P3
# Created by IrfanView
30 30
255
37 177 78 37 177 78 37 177 78 37 177 78 37 177 78 
37 177 78 37 177 78 37 177 78 37 177 78 37 177 78 
37 177 78 37 177 78 37 177 78 37 177 78 37 177 78 
37 177 78 37 177 78 37 177 78 37 177 78 37 177 78 
37 177 78 37 177 78 37 177 78 37 177 78 37 177 78 
37 177 78 37 177 78 37 177 78 37 177 78 37 177 78 
37 177 78 37 177 78 37 177 78 37 177 78 37 177 78 
37 177 78 37 177 78 37 177 78 37 177 78 37 177 78 
37 177 78 37 177 78 37 177 78 37 177 78 37 177 78 
37 177 78 37 177 78 37 177 78 37 177 78 37 177 78 
37 177 78 37 177 78 37 177 78 37 177 78 37 177 78 
37 177 78 37 177 78 37 177 78 37 177 78 37 177 78 
37 177 78 37 177 78 37 177 78 37 177 78 37 177 78 
37 177 78 37 177 78 37 177 78 37 177 78 37 177 78 
37 177 78 37 177 78 37 177 78 37 177 78 37 177 78 
37 177 78 37 177 78 37 177 78 37 177 78 37 177 78 
37 177 78 37 177 78 37 177 78 37 177 78 37 177 78 
37 177 78 37 177 78 37 177 78 37 177 78 37 177 78 
37 177 78 37 177 78 37 177 78 37 177 78 37 177 78 
37 177 78 37 177 78 37 177 78 37 177 78 37 177 78 
37 177 78 37 177 78 37 177 78 37 177 78 37 177 78 
37 177 78 37 177 78 37 177 78 37 177 78 37 177 78 
37 177 78 37 177 78 37 177 78 37 177 78 37 177 78 
37 177 78 37 177 78 37 177 78 37 177 78 37 177 78 
37 177 78 37 177 78 37 177 78 37 177 78 37 177 78 
37 177 78 37 177 78 37 177 78 37 177 78 37 177 78 
37 177 78 37 177 78 37 177 78 37 177 78 37 177 78 
37 177 78 37 177 78 37 177 78 37 177 78 37 177 78 
37 177 78 37 177 78 37 177 78 37 177 78 37 177 78 
37 177 78 37 177 78 37 177 78 37 177 78 37 177 78 
37 177 78 37 177 78 37 177 78 37 177 78 37 177 78 
37 177 78 37 177 78 37 177 78 34 154 67 87 194 62 
63 163 62 87 196 60 68 190 68 60 186 71 42 179 74 
34 178 80 37 177 78 37 177 78 37 177 78 37 177 78 
37 177 78 37 177 78 37 177 78 37 177 78 37 177 78 
37 177 78 37 177 78 37 177 78 37 177 78 37 177 78 
37 177 78 37 177 78 37 177 78 37 177 78 37 177 78 
37 177 78 37 177 78 36 177 78 26 112 51 178 224 31 
111 139 29 181 229 29 182 229 30 182 229 30 177 229 35 
137 212 51 62 186 74 36 177 78 37 177 78 37 177 78 
37 177 78 37 177 78 37 177 78 37 177 78 37 177 78 
37 177 78 37 177 78 37 177 78 37 177 78 37 177 78 
37 177 78 37 177 78 37 177 78 37 177 78 37 177 78 
37 177 78 37 177 78 36 177 78 26 112 50 178 225 31 
112 139 29 182 229 29 182 229 29 182 229 29 182 229 29 
182 229 29 161 223 44 40 179 77 37 177 78 37 177 78 
37 177 78 37 177 78 37 177 78 37 177 78 37 177 78 
37 177 78 37 177 78 37 177 78 37 177 78 37 177 78 
37 177 78 37 177 78 37 177 78 37 177 78 37 177 78 
37 177 78 37 177 78 36 177 78 26 112 50 178 225 31 
112 139 29 182 229 29 182 229 29 182 229 29 182 229 29 
182 229 29 181 229 29 59 186 73 37 177 78 37 177 78 
37 177 78 37 177 78 37 177 78 37 177 78 37 177 78 
37 177 78 37 177 78 37 177 78 37 177 78 37 177 78 
37 177 78 37 177 78 37 177 78 37 177 78 37 177 78 
37 177 78 37 177 78 36 177 78 26 112 50 178 225 31 
112 139 29 182 229 29 182 229 29 182 229 29 182 229 29 
182 229 29 182 229 32 56 184 74 37 177 78 37 177 78 
37 177 78 37 177 78 37 177 78 37 177 78 37 177 78 
37 177 78 37 177 78 37 177 78 37 177 78 37 177 78 
37 177 78 37 177 78 37 177 78 37 177 78 37 177 78 
37 177 78 37 177 78 36 177 78 26 112 50 178 225 31 
112 139 29 182 229 29 182 229 29 182 229 29 182 228 31 
181 229 28 137 212 58 37 177 77 37 177 78 37 177 78 
37 177 78 37 177 78 37 177 78 37 177 78 37 177 78 
37 177 78 37 177 78 37 177 78 37 177 78 37 177 78 
37 177 78 37 177 78 37 177 78 37 177 78 37 177 78 
37 177 78 37 177 78 36 177 78 26 111 52 179 225 29 
112 138 28 181 230 29 182 229 26 181 230 30 173 226 38 
115 205 59 39 179 77 37 177 78 37 177 78 37 177 78 
37 177 78 37 177 78 37 177 78 37 177 78 37 177 78 
37 177 78 37 177 78 37 177 78 37 177 78 37 177 78 
37 177 78 37 177 78 37 177 78 37 177 78 37 177 78 
37 177 78 37 177 78 37 178 78 34 159 70 74 192 66 
58 167 64 76 192 65 67 188 68 59 185 72 43 179 74 
37 177 78 36 178 78 37 177 78 37 177 78 37 177 78 
37 177 78 37 177 78 37 177 78 37 177 78 37 177 78 
37 177 78 37 177 78 37 177 78 37 177 78 37 177 78 
37 177 78 37 177 78 37 177 78 37 177 78 37 177 78 
37 177 78 37 177 78 37 177 78 37 177 78 37 177 78 
37 177 78 37 177 78 37 177 78 37 177 78 37 177 78 
37 177 78 37 177 78 37 177 78 37 177 78 37 177 78 
37 177 78 37 177 78 37 177 78 37 177 78 37 177 78 
37 177 78 37 177 78 37 177 78 37 177 78 37 177 78 
37 177 78 37 177 78 37 177 78 37 177 78 37 177 78 
37 177 78 37 177 78 37 177 78 37 177 78 37 177 78 
37 177 78 37 177 78 37 177 78 37 177 78 37 177 78 
37 177 78 37 177 78 37 177 78 37 177 78 37 177 78 
37 177 78 37 177 78 37 177 78 37 177 78 37 177 78 
37 177 78 37 177 78 37 177 78 37 177 78 37 177 78 
37 177 78 37 177 78 37 177 78 37 177 78 37 177 78 
37 177 78 37 177 78 37 177 78 37 177 78 37 177 78 
37 177 78 37 177 78 37 177 78 37 177 78 37 177 78 
37 177 78 37 177 78 37 177 78 37 177 78 37 177 78 
37 177 78 37 177 78 37 177 78 37 177 78 37 177 78 
37 177 78 37 177 78 37 177 78 37 177 78 37 177 78 
37 177 78 37 177 78 37 177 78 37 177 78 37 177 78 
37 177 78 37 177 78 37 177 78 37 177 78 37 177 78 
37 177 78 37 177 78 37 177 78 37 177 78 37 177 78 
37 177 78 37 177 78 37 177 78 37 177 78 37 177 78 
37 177 78 37 177 78 37 177 78 37 177 78 37 177 78 
37 177 78 37 177 78 37 177 78 37 177 78 37 177 78 
37 177 78 37 177 78 37 177 78 37 177 78 37 177 78 
37 177 78 37 177 78 37 177 78 37 177 78 37 177 78 
37 177 78 37 177 78 37 177 78 37 177 78 37 177 78 
37 177 78 37 177 78 37 177 78 37 177 78 37 177 78 
37 177 78 37 177 78 37 177 78 37 177 78 37 177 78 
37 177 78 37 177 78 37 177 78 37 177 78 37 177 78 
37 177 78 37 177 78 37 177 78 37 177 78 37 177 78 
37 177 78 37 177 78 37 177 78 37 177 78 37 177 78 
37 177 78 37 177 78 37 177 78 37 177 78 37 177 78 
37 177 78 37 177 78 37 177 78 37 177 78 37 177 78 
37 177 78 37 177 78 37 177 78 37 177 78 37 177 78 
37 177 78 37 177 78 37 177 78 37 177 78 37 177 78 
37 177 78 37 177 78 37 177 78 37 177 78 37 177 78 
37 177 78 37 177 78 37 177 78 37 177 78 37 177 78 
37 177 78 37 177 78 37 177 78 37 177 78 37 177 78 
37 177 78 37 177 78 37 177 78 37 177 78 37 177 78 
37 177 78 37 177 78 37 177 78 37 177 78 37 177 78 
37 177 78 37 177 78 37 177 78 37 177 78 37 177 78 
37 177 78 37 177 78 37 177 78 37 177 78 37 177 78 
37 177 78 37 177 78 37 177 78 37 177 78 37 177 78 
37 177 78 37 177 78 37 177 78 37 177 78 37 177 78 
37 177 78 37 177 78 37 177 78 37 177 78 37 177 78 
37 177 78 37 177 78 37 177 78 37 177 78 37 177 78 
37 177 78 37 177 78 37 177 78 37 177 78 37 177 78 
37 177 78 37 177 78 37 177 78 37 177 78 37 177 78 
37 177 78 37 177 78 37 177 78 37 177 78 37 177 78 
37 177 78 37 177 78 37 177 78 37 177 78 37 177 78 
37 177 78 37 177 78 37 177 78 37 177 78 37 177 78 
37 177 78 37 177 78 37 177 78 37 177 78 37 177 78 
37 177 78 37 177 78 37 177 78 37 177 78 37 177 78 
37 177 78 37 177 78 37 177 78 37 177 78 37 177 78 
37 177 78 37 177 78 37 177 78 37 177 78 37 177 78 
37 177 78 37 177 78 37 177 78 37 177 78 37 177 78 
37 177 78 37 177 78 37 177 78 37 177 78 37 177 78 
37 177 78 37 177 78 37 177 78 37 177 78 37 177 78 
37 177 78 37 177 78 37 177 78 37 177 78 37 177 78 
37 177 78 37 177 78 37 177 78 37 177 78 37 177 78 
37 177 78 37 177 78 37 177 78 37 177 78 37 177 78 
37 177 78 37 177 78 37 177 78 37 177 78 37 177 78 
37 177 78 37 177 78 37 177 78 37 177 78 37 177 78 
37 177 78 37 177 78 37 177 78 37 177 78 37 177 78 
37 177 78 37 177 78 37 177 78 37 177 78 37 177 78 
37 177 78 37 177 78 37 177 78 37 177 78 37 177 78 
37 177 78 37 177 78 37 177 78 37 177 78 37 177 78 
37 177 78 37 177 78 37 177 78 37 177 78 37 177 78 
37 177 78 37 177 78 37 177 78 37 177 78 37 177 78 
37 177 78 37 177 78 37 177 78 37 177 78 37 177 78 
37 177 78 37 177 78 37 177 78 37 177 78 37 177 78 
37 177 78 37 177 78 37 177 78 37 177 78 37 177 78 
37 177 78 37 177 78 37 177 78 37 177 78 37 177 78 
37 177 78 37 177 78 37 177 78 37 177 78 37 177 78 
37 177 78 37 177 78 37 177 78 37 177 78 37 177 78 
37 177 78 37 177 78 37 177 78 37 177 78 37 177 78 
37 177 78 37 177 78 37 177 78 37 177 78 37 177 78 
37 177 78 37 177 78 37 177 78 37 177 78 37 177 78 
37 177 78 37 177 78 37 177 78 37 177 78 37 177 78 
37 177 78 37 177 78 37 177 78 37 177 78 37 177 78 
37 177 78 37 177 78 37 177 78 37 177 78 37 177 78 
37 177 78 37 177 78 37 177 78 37 177 78 37 177 78 
37 177 78 37 177 78 37 177 78 37 177 78 37 177 78 
37 177 78 37 177 78 37 177 78 37 177 78 37 177 78 
37 177 78 37 177 78 37 177 78 37 177 78 37 177 78 
37 177 78 37 177 78 37 177 78 37 177 78 37 177 78 
37 177 78 37 177 78 37 177 78 37 177 78 37 177 78 
37 177 78 37 177 78 37 177 78 37 177 78 37 177 78 
37 177 78 37 177 78 37 177 78 37 177 78 37 177 78 
37 177 78 37 177 78 37 177 78 37 177 78 37 177 78 
37 177 78 37 177 78 37 177 78 37 177 78 37 177 78 
37 177 78 37 177 78 37 177 78 37 177 78 37 177 78 
37 177 78 37 177 78 37 177 78 37 177 78 37 177 78 
37 177 78 37 177 78 37 177 78 37 177 78 37 177 78 
37 177 78 37 177 78 37 177 78 37 177 78 37 177 78 
37 177 78 37 177 78 37 177 78 37 177 78 37 177 78 
37 177 78 37 177 78 37 177 78 37 177 78 37 177 78 
37 177 78 37 177 78 37 177 78 37 177 78 37 177 78 
37 177 78 37 177 78 37 177 78 37 177 78 37 177 78 
37 177 78 37 177 78 37 177 78 37 177 78 37 177 78 
37 177 78 37 177 78 37 177 78 37 177 78 37 177 78 
