P3
# Created by IrfanView
30 30
255
37 177 78 37 177 78 37 177 78 37 177 78 37 177 78 
37 177 78 37 177 78 37 177 78 37 177 78 37 177 78 
37 177 78 37 177 78 37 177 78 37 177 78 37 177 78 
37 177 78 37 177 78 37 177 78 37 177 78 37 177 78 
37 177 78 37 177 78 37 177 78 37 177 78 37 177 78 
37 177 78 37 177 78 37 177 78 37 177 78 37 177 78 
37 177 78 37 177 78 37 177 78 37 177 78 37 177 78 
37 177 78 37 177 78 37 177 78 37 177 78 37 177 78 
37 177 78 37 177 78 37 177 78 37 177 78 37 177 78 
37 177 78 37 177 78 37 177 78 37 177 78 37 177 78 
37 177 78 37 177 78 37 177 78 37 177 78 37 177 78 
37 177 78 37 177 78 37 177 78 37 177 78 37 177 78 
37 177 78 37 177 78 37 177 78 37 177 78 37 177 78 
37 177 78 37 177 78 37 177 78 37 177 78 37 177 78 
37 177 78 37 177 78 37 177 78 37 177 78 37 177 78 
37 177 78 37 177 78 37 177 78 37 177 78 37 177 78 
37 177 78 37 177 78 37 177 78 37 177 78 37 177 78 
37 177 78 37 177 78 37 177 78 37 177 78 37 177 78 
37 177 78 37 177 78 37 177 78 37 177 78 37 177 78 
37 177 78 37 177 78 37 177 78 37 177 78 37 177 78 
37 177 78 37 177 78 37 177 78 37 177 78 37 177 78 
37 177 78 37 177 78 37 177 78 37 177 78 37 177 78 
37 177 78 37 177 78 37 177 78 37 177 78 37 177 78 
37 177 78 37 177 78 37 177 78 37 177 78 37 177 78 
37 177 78 37 177 78 37 177 78 37 177 78 37 177 78 
37 177 78 37 177 78 37 177 78 37 177 78 37 177 78 
37 177 78 37 177 78 37 177 78 37 177 78 37 177 78 
37 177 78 37 177 78 37 177 78 37 177 78 37 177 78 
37 177 78 37 177 78 37 177 78 37 177 78 37 177 78 
37 177 78 37 177 78 37 177 78 37 177 78 37 177 78 
37 177 78 37 177 78 37 177 78 37 177 78 37 177 78 
37 177 78 37 177 78 37 177 78 37 177 78 37 177 78 
37 177 78 37 177 78 37 177 78 37 177 78 37 177 78 
37 177 78 37 177 78 37 177 78 37 177 78 51 153 62 
89 189 55 79 171 57 94 198 60 77 192 65 61 188 71 
44 180 75 36 177 79 37 177 78 37 177 78 37 177 78 
37 177 78 37 177 78 37 177 78 37 177 78 37 177 78 
37 177 78 37 177 78 37 177 78 37 177 78 37 177 78 
37 177 78 37 177 78 37 177 78 37 177 78 37 177 78 
37 177 78 37 177 78 37 177 78 37 177 78 69 123 40 
161 202 30 132 166 29 182 229 29 182 229 29 182 229 29 
176 228 35 128 210 55 48 181 77 37 177 78 37 177 78 
37 177 78 37 177 78 37 177 78 37 177 78 37 177 78 
37 177 78 37 177 78 37 177 78 37 177 78 37 177 78 
37 177 78 37 177 78 37 177 78 37 177 78 37 177 78 
37 177 78 37 177 78 37 177 78 37 177 78 69 123 40 
160 203 29 132 166 27 182 229 29 182 229 29 182 229 29 
181 229 29 180 230 30 125 208 56 37 177 78 37 177 78 
37 177 78 37 177 78 37 177 78 37 177 78 37 177 78 
37 177 78 37 177 78 37 177 78 37 177 78 37 177 78 
37 177 78 37 177 78 37 177 78 37 177 78 37 177 78 
37 177 78 37 177 78 37 177 78 37 177 78 69 123 40 
160 203 29 132 166 27 182 229 29 182 229 29 182 229 29 
182 229 29 181 229 29 160 222 38 37 177 78 37 177 78 
37 177 78 37 177 78 37 177 78 37 177 78 37 177 78 
37 177 78 37 177 78 37 177 78 37 177 78 37 177 78 
37 177 78 37 177 78 37 177 78 37 177 78 37 177 78 
37 177 78 37 177 78 37 177 78 37 177 78 69 123 40 
160 203 29 132 166 27 182 229 29 182 229 29 182 229 29 
182 229 29 181 229 29 152 219 43 37 177 78 37 177 78 
37 177 78 37 177 78 37 177 78 37 177 78 37 177 78 
37 177 78 37 177 78 37 177 78 37 177 78 37 177 78 
37 177 78 37 177 78 37 177 78 37 177 78 37 177 78 
37 177 78 37 177 78 37 177 78 37 177 78 69 123 40 
160 203 29 132 166 27 182 229 29 182 229 29 182 228 31 
182 229 30 179 228 33 84 193 72 37 177 78 37 177 78 
37 177 78 37 177 78 37 177 78 37 177 78 37 177 78 
37 177 78 37 177 78 37 177 78 37 177 78 37 177 78 
37 177 78 37 177 78 37 177 78 37 177 78 37 177 78 
37 177 78 37 177 78 37 177 78 37 177 78 69 123 41 
160 203 28 131 166 28 181 229 29 181 229 31 180 230 30 
152 218 44 73 190 72 37 177 78 37 177 78 37 177 78 
37 177 78 37 177 78 37 177 78 37 177 78 37 177 78 
37 177 78 37 177 78 37 177 78 37 177 78 37 177 78 
37 177 78 37 177 78 37 177 78 37 177 78 37 177 78 
37 177 78 37 177 78 37 177 78 37 177 78 43 167 70 
60 183 68 56 174 69 64 187 69 55 183 72 44 180 75 
35 178 78 37 177 78 37 177 78 37 177 78 37 177 78 
37 177 78 37 177 78 37 177 78 37 177 78 37 177 78 
37 177 78 37 177 78 37 177 78 37 177 78 37 177 78 
37 177 78 37 177 78 37 177 78 37 177 78 37 177 78 
37 177 78 37 177 78 37 177 78 37 177 78 37 177 78 
37 177 78 37 177 78 37 177 78 37 177 78 37 177 78 
37 177 78 37 177 78 37 177 78 37 177 78 37 177 78 
37 177 78 37 177 78 37 177 78 37 177 78 37 177 78 
37 177 78 37 177 78 37 177 78 37 177 78 37 177 78 
37 177 78 37 177 78 37 177 78 37 177 78 37 177 78 
37 177 78 37 177 78 37 177 78 37 177 78 37 177 78 
37 177 78 37 177 78 37 177 78 37 177 78 37 177 78 
37 177 78 37 177 78 37 177 78 37 177 78 37 177 78 
37 177 78 37 177 78 37 177 78 37 177 78 37 177 78 
37 177 78 37 177 78 37 177 78 37 177 78 37 177 78 
37 177 78 37 177 78 37 177 78 37 177 78 37 177 78 
37 177 78 37 177 78 37 177 78 37 177 78 37 177 78 
37 177 78 37 177 78 37 177 78 37 177 78 37 177 78 
37 177 78 37 177 78 37 177 78 37 177 78 37 177 78 
37 177 78 37 177 78 37 177 78 37 177 78 37 177 78 
37 177 78 37 177 78 37 177 78 37 177 78 37 177 78 
37 177 78 37 177 78 37 177 78 37 177 78 37 177 78 
37 177 78 37 177 78 37 177 78 37 177 78 37 177 78 
37 177 78 37 177 78 37 177 78 37 177 78 37 177 78 
37 177 78 37 177 78 37 177 78 37 177 78 37 177 78 
37 177 78 37 177 78 37 177 78 37 177 78 37 177 78 
37 177 78 37 177 78 37 177 78 37 177 78 37 177 78 
37 177 78 37 177 78 37 177 78 37 177 78 37 177 78 
37 177 78 37 177 78 37 177 78 37 177 78 37 177 78 
37 177 78 37 177 78 37 177 78 37 177 78 37 177 78 
37 177 78 37 177 78 37 177 78 37 177 78 37 177 78 
37 177 78 37 177 78 37 177 78 37 177 78 37 177 78 
37 177 78 37 177 78 37 177 78 37 177 78 37 177 78 
37 177 78 37 177 78 37 177 78 37 177 78 37 177 78 
37 177 78 37 177 78 37 177 78 37 177 78 37 177 78 
37 177 78 37 177 78 37 177 78 37 177 78 37 177 78 
37 177 78 37 177 78 37 177 78 37 177 78 37 177 78 
37 177 78 37 177 78 37 177 78 37 177 78 37 177 78 
37 177 78 37 177 78 37 177 78 37 177 78 37 177 78 
37 177 78 37 177 78 37 177 78 37 177 78 37 177 78 
37 177 78 37 177 78 37 177 78 37 177 78 37 177 78 
37 177 78 37 177 78 37 177 78 37 177 78 37 177 78 
37 177 78 37 177 78 37 177 78 37 177 78 37 177 78 
37 177 78 37 177 78 37 177 78 37 177 78 37 177 78 
37 177 78 37 177 78 37 177 78 37 177 78 37 177 78 
37 177 78 37 177 78 37 177 78 37 177 78 37 177 78 
37 177 78 37 177 78 37 177 78 37 177 78 37 177 78 
37 177 78 37 177 78 37 177 78 37 177 78 37 177 78 
37 177 78 37 177 78 37 177 78 37 177 78 37 177 78 
37 177 78 37 177 78 37 177 78 37 177 78 37 177 78 
37 177 78 37 177 78 37 177 78 37 177 78 37 177 78 
37 177 78 37 177 78 37 177 78 37 177 78 37 177 78 
37 177 78 37 177 78 37 177 78 37 177 78 37 177 78 
37 177 78 37 177 78 37 177 78 37 177 78 37 177 78 
37 177 78 37 177 78 37 177 78 37 177 78 37 177 78 
37 177 78 37 177 78 37 177 78 37 177 78 37 177 78 
37 177 78 37 177 78 37 177 78 37 177 78 37 177 78 
37 177 78 37 177 78 37 177 78 37 177 78 37 177 78 
37 177 78 37 177 78 37 177 78 37 177 78 37 177 78 
37 177 78 37 177 78 37 177 78 37 177 78 37 177 78 
37 177 78 37 177 78 37 177 78 37 177 78 37 177 78 
37 177 78 37 177 78 37 177 78 37 177 78 37 177 78 
37 177 78 37 177 78 37 177 78 37 177 78 37 177 78 
37 177 78 37 177 78 37 177 78 37 177 78 37 177 78 
37 177 78 37 177 78 37 177 78 37 177 78 37 177 78 
37 177 78 37 177 78 37 177 78 37 177 78 37 177 78 
37 177 78 37 177 78 37 177 78 37 177 78 37 177 78 
37 177 78 37 177 78 37 177 78 37 177 78 37 177 78 
37 177 78 37 177 78 37 177 78 37 177 78 37 177 78 
37 177 78 37 177 78 37 177 78 37 177 78 37 177 78 
37 177 78 37 177 78 37 177 78 37 177 78 37 177 78 
37 177 78 37 177 78 37 177 78 37 177 78 37 177 78 
37 177 78 37 177 78 37 177 78 37 177 78 37 177 78 
37 177 78 37 177 78 37 177 78 37 177 78 37 177 78 
37 177 78 37 177 78 37 177 78 37 177 78 37 177 78 
37 177 78 37 177 78 37 177 78 37 177 78 37 177 78 
37 177 78 37 177 78 37 177 78 37 177 78 37 177 78 
37 177 78 37 177 78 37 177 78 37 177 78 37 177 78 
37 177 78 37 177 78 37 177 78 37 177 78 37 177 78 
37 177 78 37 177 78 37 177 78 37 177 78 37 177 78 
37 177 78 37 177 78 37 177 78 37 177 78 37 177 78 
37 177 78 37 177 78 37 177 78 37 177 78 37 177 78 
37 177 78 37 177 78 37 177 78 37 177 78 37 177 78 
37 177 78 37 177 78 37 177 78 37 177 78 37 177 78 
37 177 78 37 177 78 37 177 78 37 177 78 37 177 78 
37 177 78 37 177 78 37 177 78 37 177 78 37 177 78 
37 177 78 37 177 78 37 177 78 37 177 78 37 177 78 
37 177 78 37 177 78 37 177 78 37 177 78 37 177 78 
37 177 78 37 177 78 37 177 78 37 177 78 37 177 78 
37 177 78 37 177 78 37 177 78 37 177 78 37 177 78 
37 177 78 37 177 78 37 177 78 37 177 78 37 177 78 
37 177 78 37 177 78 37 177 78 37 177 78 37 177 78 
37 177 78 37 177 78 37 177 78 37 177 78 37 177 78 
37 177 78 37 177 78 37 177 78 37 177 78 37 177 78 
37 177 78 37 177 78 37 177 78 37 177 78 37 177 78 
37 177 78 37 177 78 37 177 78 37 177 78 37 177 78 
37 177 78 37 177 78 37 177 78 37 177 78 37 177 78 
37 177 78 37 177 78 37 177 78 37 177 78 37 177 78 
37 177 78 37 177 78 37 177 78 37 177 78 37 177 78 
37 177 78 37 177 78 37 177 78 37 177 78 37 177 78 
37 177 78 37 177 78 37 177 78 37 177 78 37 177 78 
37 177 78 37 177 78 37 177 78 37 177 78 37 177 78 
37 177 78 37 177 78 37 177 78 37 177 78 37 177 78 
