P3
# Created by IrfanView
30 30
255
37 177 78 37 177 78 37 177 78 37 177 78 37 177 78 
37 177 78 37 177 78 37 177 78 37 177 78 37 177 78 
37 177 78 37 177 78 37 177 78 37 177 78 37 177 78 
37 177 78 37 177 78 37 177 78 37 177 78 37 177 78 
37 177 78 37 177 78 37 177 78 37 177 78 37 177 78 
37 177 78 37 177 78 37 177 78 37 177 78 37 177 78 
37 177 78 37 177 78 37 177 78 37 177 78 37 177 78 
37 177 78 37 177 78 37 177 78 37 177 78 37 177 78 
37 177 78 37 177 78 37 177 78 37 177 78 37 177 78 
37 177 78 37 177 78 37 177 78 37 177 78 37 177 78 
37 177 78 37 177 78 37 177 78 37 177 78 37 177 78 
37 177 78 37 177 78 37 177 78 37 177 78 37 177 78 
37 177 78 37 177 78 37 177 78 37 177 78 37 177 78 
37 177 78 37 177 78 37 177 78 37 177 78 37 177 78 
37 177 78 37 177 78 37 177 78 37 177 78 37 177 78 
37 177 78 37 177 78 37 177 78 37 177 78 37 177 78 
37 177 78 37 177 78 37 177 78 37 177 78 37 177 78 
37 177 78 37 177 78 37 177 78 37 177 78 37 177 78 
37 177 79 37 177 78 36 178 78 36 178 79 37 177 79 
37 177 79 36 178 78 37 178 78 37 178 78 37 177 79 
37 177 79 37 178 78 37 177 78 37 177 79 37 177 79 
37 177 78 37 177 78 37 177 78 37 177 79 37 177 79 
37 177 79 37 177 78 37 177 78 37 177 78 37 177 78 
37 177 78 37 177 78 37 177 78 37 177 78 37 177 78 
34 179 82 39 177 76 32 178 74 36 177 79 41 174 76 
36 176 80 36 177 76 39 175 77 40 175 74 38 173 80 
37 175 81 36 178 70 35 179 70 29 179 76 30 181 79 
32 180 76 30 181 80 33 180 79 38 177 77 41 176 76 
40 177 75 39 177 77 36 178 78 35 178 79 34 179 78 
34 179 78 35 179 78 36 178 78 37 177 78 37 177 78 
32 182 70 43 173 87 36 114 57 71 144 51 108 203 55 
104 207 46 105 205 55 43 120 62 63 146 58 108 204 54 
105 205 51 104 205 56 90 196 76 70 186 77 49 173 70 
49 173 70 48 173 73 43 176 73 36 179 72 32 182 72 
34 178 83 35 178 82 38 177 80 39 176 78 37 178 78 
37 178 78 35 179 78 34 179 78 37 177 78 37 177 78 
34 181 68 43 173 90 19 49 25 92 118 31 182 229 32 
179 232 21 182 228 31 48 62 22 92 116 25 184 229 26 
181 228 27 182 231 28 185 229 20 177 231 30 171 233 37 
171 233 37 173 236 28 167 236 51 133 210 59 114 199 70 
109 203 60 88 196 68 45 175 66 32 176 83 39 175 78 
38 176 78 37 178 78 34 179 78 37 177 78 37 177 78 
39 177 78 39 176 81 19 46 26 95 115 27 181 229 35 
180 229 38 184 226 37 49 58 26 93 114 26 185 227 32 
185 228 44 181 229 24 184 229 25 181 230 31 178 230 33 
183 229 29 185 228 31 183 231 29 178 231 24 176 231 22 
186 228 25 177 229 40 160 226 57 135 213 63 61 183 78 
40 174 74 37 178 79 34 179 79 37 177 78 36 178 78 
35 178 82 41 175 77 17 48 24 94 115 25 181 230 27 
179 229 34 183 227 31 48 60 23 92 114 26 182 229 29 
179 230 32 182 229 27 182 229 30 182 229 29 181 229 29 
182 229 29 182 229 29 182 229 30 182 229 30 182 229 30 
182 229 29 183 230 30 183 229 30 183 229 30 179 233 44 
122 212 71 76 191 80 34 177 80 40 176 80 29 182 77 
35 177 82 41 175 77 17 48 24 94 115 25 181 230 27 
179 229 34 183 227 31 48 60 23 92 114 27 181 229 29 
179 230 31 182 229 28 182 229 30 182 229 29 182 229 29 
182 229 29 182 229 29 182 229 29 182 229 29 182 229 29 
182 229 29 183 230 30 182 229 29 182 229 30 181 229 34 
192 229 19 180 230 48 72 185 79 32 180 81 32 180 82 
35 177 82 41 175 77 17 48 24 94 115 25 181 230 27 
179 229 34 183 227 31 48 60 23 92 114 27 181 229 29 
179 230 31 182 229 28 182 229 30 182 229 29 182 229 29 
182 229 29 182 229 29 182 229 29 182 229 29 182 229 29 
182 229 29 182 229 29 182 229 29 183 229 29 186 228 23 
176 232 31 179 232 41 155 224 67 45 174 62 36 178 77 
35 177 82 41 175 77 17 48 24 94 115 25 181 230 27 
179 229 34 183 227 31 48 60 23 92 114 27 181 229 29 
179 230 31 182 229 28 182 229 30 182 229 29 182 229 29 
182 229 29 182 229 29 182 229 29 182 229 29 182 229 29 
182 229 29 182 229 29 182 229 29 182 229 29 178 231 29 
179 229 37 190 227 26 177 231 33 115 209 78 36 178 64 
35 177 82 41 175 77 17 48 24 94 115 25 181 230 27 
179 229 34 183 227 31 48 60 23 92 114 27 181 229 29 
179 230 31 182 229 28 182 229 30 182 229 29 182 229 29 
182 229 29 182 229 29 182 229 29 182 229 29 182 229 29 
182 229 29 182 229 29 182 229 29 182 229 29 182 229 30 
183 229 30 183 229 28 182 229 30 171 231 52 52 170 65 
35 177 82 41 175 77 17 48 24 94 115 25 181 230 27 
179 229 34 183 227 31 48 60 23 92 114 27 181 229 29 
179 230 31 182 229 28 182 229 30 182 229 29 182 229 29 
182 229 29 182 229 29 182 229 29 182 229 29 182 229 29 
182 229 29 182 229 29 182 229 29 182 229 29 182 229 29 
182 229 29 182 229 29 183 229 29 174 231 37 72 187 73 
35 177 82 41 175 77 17 48 24 94 115 25 181 230 27 
179 229 34 183 227 31 48 60 23 92 114 27 181 229 29 
179 230 31 182 229 28 182 229 30 182 229 29 182 229 29 
182 229 29 182 229 29 182 229 29 182 229 29 182 229 29 
182 229 29 182 229 29 182 229 29 182 229 29 182 229 29 
182 229 29 182 229 29 183 229 29 179 231 31 84 196 76 
35 177 82 41 175 77 17 48 24 94 115 25 181 230 27 
179 229 34 183 227 31 48 60 23 92 114 27 181 229 29 
179 230 31 182 229 28 182 229 30 182 229 29 182 229 29 
182 229 29 182 229 29 182 229 29 182 229 29 182 229 29 
182 229 29 182 229 29 182 229 29 182 229 29 182 229 29 
182 229 29 182 229 29 183 229 29 183 231 32 78 187 67 
35 177 82 41 175 77 17 48 24 94 115 25 181 230 27 
179 229 34 183 227 31 48 60 23 92 114 27 181 229 29 
179 230 31 182 229 28 182 229 30 182 229 29 182 229 29 
182 229 29 182 229 29 182 229 29 182 229 29 182 229 29 
182 229 29 182 229 29 182 229 29 182 229 29 182 228 31 
182 228 31 182 228 31 181 227 30 175 231 37 83 188 49 
35 177 82 41 175 77 17 48 24 94 115 25 181 230 27 
179 229 34 183 227 31 48 60 23 92 114 27 181 229 29 
179 230 31 182 229 28 182 229 30 182 229 29 182 229 29 
182 229 29 182 229 29 182 229 29 182 229 29 182 229 29 
182 229 29 182 229 29 182 229 29 182 229 29 182 228 31 
182 228 31 182 228 31 185 231 33 178 230 38 79 189 55 
35 177 82 41 175 77 17 48 24 94 115 25 181 230 27 
179 229 34 183 227 31 48 60 23 92 114 27 181 229 29 
179 230 31 182 229 28 182 229 30 182 229 29 182 229 29 
182 229 29 182 229 29 182 229 29 182 229 29 182 229 29 
182 229 29 182 229 29 182 229 29 182 229 29 182 228 31 
182 228 31 182 228 31 182 228 31 166 227 51 60 185 73 
35 177 82 41 175 77 17 48 24 94 115 25 181 230 27 
179 229 34 183 227 31 48 60 23 92 114 27 181 229 29 
179 230 31 182 229 28 182 229 30 182 229 29 182 229 29 
182 229 29 182 229 29 182 229 29 182 229 29 182 229 29 
182 229 29 182 229 29 182 229 29 182 229 29 182 229 32 
183 229 30 181 229 31 182 228 32 134 212 60 30 178 84 
35 177 82 41 175 77 17 48 24 94 115 25 181 230 27 
179 229 34 183 227 31 48 60 23 92 114 27 181 229 29 
179 230 31 182 229 28 182 229 30 182 229 29 182 229 29 
182 229 29 182 228 31 182 228 31 182 228 31 182 228 31 
182 228 31 182 228 31 183 229 32 182 229 32 177 231 32 
181 231 21 175 231 28 181 227 71 79 187 90 37 175 78 
35 177 82 41 175 77 17 48 24 94 115 25 181 230 27 
179 229 34 183 227 31 48 60 23 92 114 27 181 229 29 
179 230 31 182 229 28 182 229 30 182 229 29 182 229 29 
182 229 29 182 228 31 182 228 31 182 228 31 182 228 31 
182 228 31 182 228 31 185 231 34 184 229 31 184 229 20 
181 227 44 177 225 54 81 191 88 37 174 77 32 180 78 
35 177 82 41 175 77 17 48 24 94 115 25 181 230 27 
179 229 34 183 227 31 48 60 23 92 114 27 181 229 29 
179 230 31 182 229 28 182 229 30 182 229 29 182 229 29 
182 229 29 183 229 32 183 229 32 182 228 31 182 228 31 
182 228 31 182 228 31 182 228 31 181 229 31 178 232 30 
175 229 54 72 188 61 34 177 78 33 179 78 32 180 78 
35 178 82 41 175 77 17 48 24 94 115 25 181 230 27 
179 229 34 183 227 31 48 60 23 92 114 26 181 229 29 
179 230 32 182 229 28 182 229 30 183 229 29 183 229 29 
183 229 29 184 230 33 184 230 34 183 228 31 183 228 31 
182 228 31 182 228 30 182 228 32 181 228 34 170 224 66 
66 188 80 30 180 78 38 175 80 37 177 79 38 177 78 
39 177 78 39 176 81 19 46 26 95 115 27 181 229 35 
180 229 38 184 226 37 49 58 27 94 115 20 183 228 35 
181 229 32 184 229 26 180 231 27 180 230 31 180 230 31 
180 231 26 179 231 27 180 230 32 179 230 32 180 231 26 
184 230 25 181 230 32 157 225 58 110 201 75 43 176 72 
37 177 79 37 178 79 37 177 79 37 177 78 37 177 78 
34 181 68 43 173 90 19 49 25 92 118 31 182 229 32 
179 232 21 182 228 31 48 61 22 93 115 24 182 229 32 
180 230 28 183 228 32 184 230 21 180 229 30 176 231 35 
174 233 32 181 230 24 179 230 33 175 231 38 171 233 39 
126 211 50 107 201 74 60 174 79 33 178 88 37 177 79 
37 177 78 37 177 78 37 177 78 37 177 78 37 177 78 
32 182 70 43 173 87 36 114 57 71 144 51 108 203 55 
104 207 46 105 205 55 43 120 62 64 144 64 106 205 54 
103 205 56 106 204 55 106 204 62 98 197 64 82 188 58 
78 190 58 71 193 76 56 182 73 44 176 72 40 178 70 
32 182 71 34 178 84 36 177 83 35 180 70 37 177 77 
37 177 78 37 177 78 37 177 78 37 177 78 37 177 78 
34 179 82 39 177 76 32 178 74 36 177 79 41 174 76 
36 176 80 36 177 76 39 175 76 42 175 74 36 177 70 
35 176 85 37 178 64 31 180 76 31 179 82 30 177 80 
31 178 75 34 179 78 33 176 80 35 178 82 35 179 77 
39 177 79 37 178 76 36 179 75 36 178 77 37 177 78 
37 177 78 37 177 78 37 177 78 37 177 78 37 177 78 
37 177 79 37 177 78 36 178 78 36 178 79 37 177 79 
37 177 79 36 178 78 37 178 78 37 177 78 37 178 79 
36 177 80 37 177 78 37 177 78 37 177 78 37 177 78 
37 177 77 36 178 78 36 177 79 36 177 79 37 178 78 
37 177 79 37 177 78 37 177 78 38 177 78 37 177 78 
37 177 78 37 177 78 37 177 78 37 177 78 37 177 78 
37 177 78 37 177 78 37 177 78 37 177 78 37 177 78 
37 177 78 37 177 78 37 177 78 37 177 78 37 177 78 
37 177 78 37 177 78 37 177 78 37 177 78 37 177 78 
37 177 78 37 177 78 37 177 78 37 177 78 37 177 78 
37 177 78 37 177 78 37 177 78 37 177 78 37 177 78 
37 177 78 37 177 78 37 177 78 37 177 78 37 177 78 
