P3
# Created by IrfanView
30 30
255
36 177 78 36 177 78 36 177 78 36 177 78 36 177 78 
36 177 78 36 177 78 36 176 77 36 176 77 36 176 77 
36 176 77 36 176 77 36 176 77 36 176 77 36 176 77 
36 176 77 36 176 77 36 176 77 36 176 77 36 176 77 
36 176 77 36 176 77 36 176 77 36 176 77 36 176 77 
36 176 77 36 176 77 36 176 77 36 176 77 36 176 77 
37 177 78 37 177 78 37 177 78 37 177 78 37 177 78 
37 177 78 37 177 78 36 176 77 36 176 77 36 176 77 
36 176 77 36 176 77 36 176 77 36 176 77 36 176 77 
36 176 77 36 176 77 36 176 77 36 176 77 36 176 77 
36 176 77 36 176 77 36 176 77 36 176 77 36 176 77 
36 176 77 36 176 77 36 176 77 36 176 77 36 176 77 
36 177 78 36 177 78 36 177 78 36 177 78 36 177 78 
36 177 78 36 177 78 36 176 77 36 176 77 36 176 77 
36 176 77 36 176 77 36 176 77 36 176 77 36 176 77 
36 176 77 36 176 77 36 176 77 36 176 77 36 176 77 
36 176 77 36 176 77 36 176 77 36 176 77 65 186 68 
127 174 30 97 190 54 36 176 77 36 176 77 36 176 77 
37 177 78 37 177 78 37 177 78 37 177 78 37 177 78 
37 177 78 37 177 78 36 176 77 36 176 77 36 176 77 
36 176 77 36 176 77 36 176 77 36 176 77 36 176 77 
36 176 77 36 176 77 36 176 77 36 176 77 36 176 77 
36 176 77 36 176 77 36 176 77 41 178 75 156 219 39 
35 44 6 92 123 20 40 177 76 36 176 77 36 176 77 
37 177 78 37 177 78 37 177 78 37 177 78 37 177 78 
37 177 78 41 178 76 91 196 60 130 209 48 147 216 42 
132 210 47 95 197 58 42 178 75 36 176 77 36 176 77 
36 176 77 36 176 77 36 176 77 36 176 77 36 176 77 
36 176 77 36 176 77 36 176 77 125 208 49 161 201 27 
0 1 0 45 56 8 74 190 65 36 176 77 36 176 77 
36 177 78 36 177 78 36 177 78 36 177 78 36 177 78 
63 187 69 161 221 38 182 228 31 182 228 31 182 228 31 
182 228 31 182 228 31 166 222 36 69 188 67 36 176 77 
36 176 77 36 176 77 36 176 77 36 176 77 36 176 77 
36 176 77 36 176 77 88 195 61 182 228 31 122 153 21 
0 0 0 10 12 2 102 197 55 36 176 77 36 176 77 
37 177 78 37 177 78 37 177 78 37 177 78 56 184 72 
172 224 34 182 228 31 182 228 31 182 228 31 182 228 31 
166 208 28 164 205 28 182 228 31 175 226 33 64 186 68 
36 176 77 36 176 77 36 176 77 36 176 77 36 176 77 
36 176 77 64 186 68 176 226 33 182 228 31 92 116 16 
0 0 0 0 0 0 104 180 44 36 176 77 36 176 77 
36 177 78 36 177 78 36 177 78 36 177 78 140 213 45 
182 228 31 182 228 31 182 228 31 182 228 31 106 133 18 
3 4 1 2 2 0 96 120 16 182 228 31 150 217 41 
36 176 77 36 176 77 36 176 77 36 176 77 36 176 77 
51 181 72 167 223 36 182 228 31 182 228 31 67 85 11 
0 0 0 0 0 0 99 154 33 36 176 77 36 176 77 
36 176 77 36 176 77 36 176 77 52 182 72 182 228 31 
182 228 31 182 228 31 182 228 31 181 227 31 11 13 2 
0 0 0 0 0 0 4 5 1 174 217 30 182 228 31 
62 185 69 36 176 77 36 176 77 36 176 77 56 183 71 
160 220 38 182 228 31 182 228 31 182 228 31 47 59 8 
0 0 0 0 0 0 95 134 24 36 176 77 36 176 77 
36 176 77 36 176 77 36 176 77 86 194 61 182 228 31 
182 228 31 182 228 31 182 228 31 181 227 31 15 19 3 
0 0 0 0 0 0 8 10 1 176 220 30 182 228 31 
147 215 42 86 194 61 68 188 67 104 200 56 173 225 34 
182 228 31 182 228 31 182 228 31 182 228 31 30 38 5 
0 0 0 0 0 0 92 121 19 36 176 77 36 176 77 
36 176 77 36 176 77 36 176 77 95 197 58 182 228 31 
182 228 31 182 228 31 182 228 31 182 228 31 125 157 21 
14 18 2 11 14 2 116 146 20 182 228 31 182 228 31 
182 228 31 182 228 31 182 228 31 182 228 31 182 228 31 
182 228 31 182 228 31 182 228 31 182 228 31 14 18 2 
0 0 0 0 0 0 80 101 14 44 179 74 36 176 77 
36 176 77 36 176 77 36 176 77 76 190 65 182 228 31 
182 228 31 182 228 31 182 228 31 182 228 31 182 228 31 
180 226 31 180 225 31 182 228 31 182 228 31 182 228 31 
182 228 31 182 228 31 182 228 31 182 228 31 182 228 31 
182 228 31 182 228 31 182 228 31 182 228 31 12 15 2 
0 0 0 0 0 0 79 99 13 45 179 74 36 176 77 
36 176 77 36 176 77 36 176 77 42 178 75 174 225 33 
182 228 31 182 228 31 182 228 31 182 228 31 182 228 31 
182 228 31 182 228 31 182 228 31 182 228 31 182 228 31 
182 228 31 182 228 31 182 228 31 182 228 31 182 228 31 
182 228 31 182 228 31 182 228 31 176 221 30 1 2 0 
0 0 0 0 0 0 62 78 11 59 184 70 36 176 77 
36 176 77 36 176 77 36 176 77 36 176 77 113 204 52 
182 228 31 182 228 31 182 228 31 182 228 31 182 228 31 
182 228 31 182 228 31 182 228 31 182 228 31 182 228 31 
182 228 31 182 228 31 182 228 31 182 228 31 182 228 31 
182 228 31 182 228 31 182 228 31 176 220 30 0 0 0 
0 0 0 0 0 0 62 78 11 59 184 70 36 176 77 
36 176 77 36 176 77 36 176 77 36 176 77 40 177 76 
144 215 43 182 228 31 182 228 31 182 228 31 182 228 31 
182 228 31 182 228 31 182 228 31 182 228 31 182 228 31 
182 228 31 182 228 31 182 228 31 182 228 31 182 228 31 
182 228 31 182 228 31 182 228 31 176 220 30 0 0 0 
0 0 0 0 0 0 62 78 11 59 184 70 36 176 77 
36 176 77 36 176 77 36 176 77 36 176 77 36 176 77 
40 177 76 116 204 52 177 226 33 182 228 31 182 228 31 
182 228 31 179 227 32 122 207 50 79 192 64 128 209 48 
175 226 33 182 228 31 182 228 31 182 228 31 182 228 31 
182 228 31 182 228 31 182 228 31 176 220 30 0 0 0 
0 0 0 0 0 0 62 78 11 59 184 70 36 176 77 
36 176 77 36 176 77 36 176 77 36 176 77 36 176 77 
36 176 77 36 176 77 46 179 74 115 204 52 175 226 33 
85 194 61 48 180 73 36 176 77 36 176 77 36 176 77 
44 179 74 107 201 55 176 226 33 182 228 31 182 228 31 
182 228 31 182 228 31 182 228 31 176 220 30 0 0 0 
0 0 0 0 0 0 62 78 11 59 184 70 36 176 77 
36 176 77 36 176 77 36 176 77 36 176 77 36 176 77 
36 176 77 36 176 77 36 176 77 107 201 55 158 220 38 
36 176 77 36 176 77 36 176 77 36 176 77 36 176 77 
36 176 77 36 176 77 63 186 68 163 221 37 182 228 31 
182 228 31 182 228 31 182 228 31 179 225 31 7 9 1 
0 0 0 0 0 0 73 91 12 51 181 72 36 176 77 
36 176 77 36 176 77 36 176 77 36 176 77 36 176 77 
36 176 77 36 176 77 36 176 77 132 210 47 142 214 44 
36 176 77 36 176 77 36 176 77 36 176 77 36 176 77 
36 176 77 36 176 77 36 176 77 56 183 71 170 224 35 
182 228 31 182 228 31 182 228 31 182 228 31 12 15 2 
0 0 0 0 0 0 80 100 14 45 179 74 36 176 77 
36 176 77 36 176 77 36 176 77 36 176 77 36 176 77 
36 176 77 36 176 77 36 176 77 156 219 39 126 208 49 
36 176 77 36 176 77 36 176 77 36 176 77 36 176 77 
36 176 77 36 176 77 36 176 77 36 176 77 71 189 66 
179 227 32 182 228 31 182 228 31 182 228 31 24 30 4 
0 0 0 0 0 0 87 112 17 40 177 76 36 176 77 
74 189 65 176 226 33 180 227 32 173 224 34 118 205 51 
39 177 76 36 176 77 37 176 77 175 226 33 110 202 54 
36 176 77 38 177 77 93 196 59 156 219 39 165 222 36 
157 219 39 134 211 46 58 184 70 36 176 77 36 176 77 
106 201 55 182 228 31 182 228 31 182 228 31 39 49 7 
0 0 0 0 0 0 93 126 21 36 176 77 36 176 77 
36 176 77 140 213 44 182 228 31 182 228 31 182 228 31 
105 201 55 36 176 77 46 180 74 182 228 31 95 197 58 
39 177 76 134 211 46 182 228 31 182 228 31 182 228 31 
182 228 31 124 207 49 36 176 77 36 176 77 36 176 77 
37 176 77 147 216 42 182 228 31 182 228 31 57 71 10 
0 0 0 0 0 0 97 145 29 36 176 77 36 176 77 
36 176 77 52 182 72 182 228 31 182 228 31 182 228 31 
178 227 32 79 191 63 52 182 72 182 228 31 92 196 59 
123 207 50 182 228 31 182 228 31 182 228 31 182 228 31 
182 228 31 71 188 66 36 176 77 36 176 77 36 176 77 
36 176 77 54 183 71 174 225 34 182 228 31 79 99 13 
0 0 0 0 0 0 102 166 39 36 176 77 36 176 77 
36 176 77 36 176 77 161 220 38 182 228 31 182 228 31 
182 228 31 171 224 35 68 188 67 181 228 31 152 217 40 
182 228 31 182 228 31 182 228 31 182 228 31 182 228 31 
182 228 31 62 185 69 36 176 77 36 176 77 36 176 77 
36 176 77 36 176 77 96 197 58 182 228 31 110 137 19 
0 0 0 2 3 0 105 192 50 36 176 77 36 176 77 
36 176 77 36 176 77 132 210 47 182 228 31 182 228 31 
182 228 31 182 228 31 180 227 32 179 227 32 182 228 31 
182 228 31 182 228 31 182 228 31 182 228 31 182 228 31 
182 228 31 62 185 69 36 176 77 36 176 77 36 176 77 
36 176 77 36 176 77 37 176 77 143 214 43 142 178 24 
0 0 0 27 34 5 89 195 60 36 176 77 36 176 77 
36 176 77 36 176 77 105 201 55 182 228 31 182 228 31 
182 228 31 182 228 31 182 228 31 182 228 31 182 228 31 
182 228 31 182 228 31 182 228 31 182 228 31 182 228 31 
182 228 31 58 184 70 36 176 77 36 176 77 36 176 77 
36 176 77 36 176 77 36 176 77 56 183 71 172 220 32 
12 15 2 71 90 13 52 182 72 36 176 77 36 176 77 
36 176 77 36 176 77 80 192 63 182 228 31 182 228 31 
182 228 31 182 228 31 182 228 31 154 218 40 162 221 37 
179 227 32 182 228 31 182 228 31 182 228 31 182 228 31 
112 203 53 36 176 77 36 176 77 36 176 77 36 176 77 
36 176 77 36 176 77 36 176 77 36 176 77 100 199 57 
87 109 15 108 169 36 36 176 77 36 176 77 36 176 77 
36 176 77 36 176 77 44 179 75 175 226 33 182 228 31 
182 228 31 182 228 31 138 212 45 38 177 76 108 202 54 
69 188 67 167 223 36 182 228 31 173 225 34 93 196 59 
37 176 77 36 176 77 36 176 77 36 176 77 36 176 77 
36 176 77 36 176 77 36 176 77 36 176 77 37 176 77 
86 194 61 53 182 72 36 176 77 36 176 77 36 176 77 
36 176 77 36 176 77 36 176 77 72 189 66 134 211 46 
138 212 45 100 199 57 39 177 76 36 176 77 109 202 54 
36 176 77 47 180 74 66 187 68 47 180 73 36 176 77 
36 176 77 36 176 77 36 176 77 36 176 77 36 176 77 
36 176 77 36 176 77 36 176 77 36 176 77 36 176 77 
36 176 77 36 176 77 36 176 77 36 176 77 36 176 77 
36 176 77 36 176 77 36 176 77 36 176 77 36 176 77 
36 176 77 36 176 77 36 176 77 36 176 77 40 177 76 
36 176 77 36 176 77 36 176 77 36 176 77 36 176 77 
36 176 77 36 176 77 36 176 77 36 176 77 36 176 77 
36 176 77 36 176 77 36 176 77 36 176 77 36 176 77 
36 176 77 36 176 77 36 176 77 36 176 77 36 176 77 
