P3
# Created by IrfanView
30 30
255
37 177 78 37 177 78 37 177 78 37 177 78 37 177 78 
37 177 78 37 177 78 37 177 78 37 177 78 37 177 78 
37 177 78 36 178 78 35 178 78 36 177 78 35 178 79 
35 178 79 35 178 78 36 177 78 37 177 78 37 177 78 
37 177 78 37 177 78 37 177 78 37 177 78 37 177 78 
37 177 78 37 177 78 37 177 78 37 177 78 37 177 78 
37 177 78 37 177 78 37 177 78 37 177 78 37 177 78 
37 177 78 37 177 78 37 177 78 36 177 78 36 177 79 
47 180 76 105 198 64 193 223 36 225 233 23 226 233 22 
226 234 21 226 233 25 195 224 33 118 201 62 43 179 77 
37 177 77 36 178 78 37 177 78 37 177 78 37 177 78 
37 177 78 37 177 78 37 177 78 37 177 78 37 177 78 
37 177 78 37 177 78 37 177 78 37 177 78 37 177 78 
37 177 78 37 177 78 37 177 78 51 181 77 164 215 46 
244 239 14 253 241 3 253 241 3 254 241 2 254 241 2 
254 242 2 254 241 8 253 242 2 253 242 4 232 235 20 
152 210 51 55 182 76 37 177 78 37 177 78 37 177 78 
37 177 78 37 177 78 37 177 78 37 177 78 37 177 78 
37 177 78 37 177 78 37 177 78 37 177 78 37 177 78 
37 177 79 37 177 79 84 190 71 223 232 24 253 241 4 
254 241 2 254 241 2 254 241 2 254 241 2 254 241 2 
254 241 2 254 241 3 254 241 3 254 241 4 254 241 2 
253 241 2 237 238 16 98 194 68 37 177 78 37 177 78 
37 177 78 37 177 78 37 177 78 37 177 78 37 177 78 
37 177 78 37 177 78 37 177 78 37 177 78 37 177 78 
35 178 78 127 203 62 247 240 12 254 241 2 254 241 2 
254 241 2 254 241 2 254 241 2 254 241 2 254 241 2 
254 241 2 254 241 2 254 241 2 254 241 2 254 241 2 
254 241 2 253 242 2 240 238 17 84 190 72 37 177 78 
37 177 78 37 177 78 37 177 78 37 177 78 37 177 78 
37 177 78 37 177 78 37 177 78 36 178 78 36 177 77 
153 211 55 252 241 6 254 241 2 254 241 2 254 241 2 
254 241 2 254 241 2 254 241 2 254 241 2 254 241 2 
254 241 2 254 241 2 254 241 2 254 241 2 254 241 2 
254 241 2 254 241 2 254 241 2 237 238 18 67 187 73 
36 178 79 37 177 78 37 177 78 37 177 78 37 177 78 
37 177 78 37 177 78 37 177 78 37 177 77 73 188 72 
250 241 7 254 241 2 254 241 2 254 241 2 254 241 2 
254 241 4 254 241 3 254 241 2 254 241 2 254 241 2 
254 241 2 254 241 2 254 241 2 254 242 1 254 241 3 
254 241 3 254 241 1 254 241 2 253 241 2 199 225 40 
36 177 77 36 178 78 37 177 78 37 177 78 37 177 78 
37 177 78 37 177 78 37 177 78 36 177 78 170 216 45 
254 241 2 254 241 2 254 241 3 254 241 3 253 242 35 
253 247 118 252 248 134 253 245 71 254 241 5 254 241 1 
254 241 2 254 241 3 254 241 4 253 244 73 253 248 134 
252 248 116 253 242 32 254 241 4 254 241 2 251 242 6 
112 199 67 37 177 78 37 177 78 37 177 78 37 177 78 
37 177 78 37 177 78 37 177 78 39 178 78 232 235 21 
254 241 2 254 241 2 254 241 3 252 245 81 253 254 241 
255 255 255 254 255 254 253 253 251 252 249 166 253 242 7 
254 241 2 253 241 10 252 250 169 254 254 251 255 255 255 
251 251 250 248 248 231 252 244 76 254 241 2 254 241 2 
192 222 37 36 178 77 37 177 78 37 177 78 37 177 78 
37 177 78 37 177 78 37 177 78 67 186 76 252 241 6 
254 241 2 254 241 2 253 242 29 254 253 238 255 255 255 
255 255 255 167 167 167 61 61 61 89 89 88 226 221 87 
254 241 5 251 247 115 254 255 252 255 255 255 168 168 168 
21 21 21 9 9 11 118 118 100 252 241 24 254 241 2 
249 240 12 60 183 77 37 177 78 37 177 78 37 177 78 
37 177 78 37 177 78 35 178 76 94 194 67 253 241 2 
254 241 2 254 241 3 253 246 109 254 255 254 255 255 255 
201 201 201 3 3 3 0 0 0 0 0 0 65 63 25 
253 241 6 253 252 208 255 255 254 234 234 234 9 9 9 
0 0 0 0 0 0 1 1 2 181 174 29 254 241 2 
253 241 4 126 204 61 37 177 78 37 177 78 37 177 78 
37 177 78 37 177 78 36 177 78 127 204 54 254 241 2 
254 241 2 254 241 3 253 249 144 255 255 255 255 255 255 
136 136 136 0 0 0 0 0 0 0 0 1 6 4 4 
246 236 10 253 254 235 255 255 255 194 194 194 0 0 0 
0 0 0 0 0 0 0 0 0 132 127 13 254 241 2 
253 242 2 161 215 46 37 177 78 37 177 78 37 177 78 
37 177 78 37 177 78 36 178 77 160 214 45 254 241 2 
254 241 2 253 241 4 253 246 109 255 255 254 255 255 255 
179 179 179 1 1 1 0 0 0 0 0 0 42 41 12 
253 241 7 253 251 197 255 255 254 242 242 242 21 21 21 
0 0 0 0 0 0 2 3 4 199 191 36 254 242 1 
254 242 1 193 223 32 35 178 78 37 177 78 37 177 78 
37 177 78 37 177 78 37 177 79 203 227 30 254 241 2 
254 241 2 254 241 2 252 243 26 254 253 236 255 255 255 
254 254 254 112 112 112 10 10 10 36 36 36 198 192 59 
254 241 4 251 246 93 254 254 251 255 255 255 199 199 199 
62 62 62 49 49 50 160 158 128 253 241 15 254 242 4 
254 241 2 240 239 15 42 178 79 37 177 78 37 177 78 
37 177 78 37 177 78 38 176 77 238 238 18 254 241 2 
254 241 2 254 241 2 254 241 3 253 245 79 253 254 238 
255 255 254 255 255 255 250 249 248 251 247 160 252 242 8 
254 241 2 254 241 5 252 248 130 254 253 244 255 255 255 
254 255 253 252 251 216 253 243 50 254 241 2 253 242 10 
254 241 3 253 241 3 80 189 75 37 177 78 37 177 78 
37 177 78 37 177 78 53 181 78 252 241 8 254 241 2 
254 241 2 254 241 2 254 241 2 254 241 4 252 244 33 
253 247 113 252 248 129 253 244 69 254 241 3 254 241 2 
254 241 3 254 241 2 254 241 2 253 243 35 253 245 90 
252 245 73 253 241 10 254 241 3 254 241 2 254 241 2 
254 241 3 253 241 3 114 201 62 37 177 78 37 177 78 
37 177 78 37 177 78 62 184 77 253 242 5 254 241 2 
254 241 2 254 241 2 254 241 2 254 241 2 254 241 2 
254 241 3 254 241 3 254 241 3 254 241 2 254 241 2 
254 241 2 254 241 2 254 241 2 254 242 1 254 242 2 
254 241 3 254 241 2 254 241 2 254 241 2 254 241 2 
254 241 2 253 241 3 115 201 59 37 177 78 37 177 78 
37 177 78 37 177 78 70 187 75 253 242 3 254 241 2 
254 241 2 254 241 2 254 241 2 254 241 2 254 241 2 
254 241 2 254 241 2 254 241 2 254 241 2 254 241 2 
254 241 2 254 241 2 254 241 2 254 241 2 254 241 2 
254 241 2 254 241 2 254 241 2 254 241 2 254 241 2 
254 241 2 253 241 3 115 201 59 37 177 78 37 177 78 
37 177 78 37 177 78 70 187 75 253 242 3 254 241 2 
254 241 2 254 241 2 254 241 2 254 241 2 254 241 2 
254 241 2 254 241 2 254 241 2 254 241 2 254 241 2 
254 241 2 254 241 2 254 241 2 254 241 2 254 241 2 
254 241 2 254 241 2 254 241 2 254 241 2 254 241 2 
254 241 2 253 241 3 115 201 59 37 177 78 37 177 78 
37 177 78 37 177 78 70 187 74 253 242 4 254 241 2 
254 241 2 254 241 2 254 241 2 254 241 2 254 241 2 
254 241 2 254 241 2 254 241 2 254 241 2 254 241 2 
254 241 2 254 241 2 254 241 2 254 241 2 254 241 2 
254 241 2 254 241 2 254 241 2 254 241 2 254 241 2 
254 241 2 254 242 8 115 201 59 37 177 78 37 177 78 
37 177 78 37 177 78 78 190 69 253 241 5 254 241 2 
254 241 2 254 241 2 254 241 2 254 241 2 254 241 2 
254 241 2 254 241 2 254 241 2 254 241 2 254 241 2 
254 241 2 254 241 2 254 241 2 254 241 2 254 241 2 
254 241 2 254 241 2 254 241 2 254 241 2 254 241 2 
254 241 2 253 241 3 115 201 59 37 177 78 37 177 78 
37 177 78 36 177 79 104 198 63 253 241 5 254 241 2 
254 241 2 254 241 2 254 241 2 254 241 2 254 241 2 
254 241 2 254 241 2 254 241 2 254 241 2 254 241 2 
254 241 2 254 241 2 254 241 2 254 241 2 254 241 2 
254 241 2 254 241 2 254 241 2 254 241 2 254 241 2 
254 241 3 253 241 3 115 201 59 37 177 78 37 177 78 
37 177 78 36 177 79 150 210 47 253 242 4 254 241 2 
254 241 2 254 241 2 254 241 2 254 241 2 254 241 2 
254 241 2 254 241 2 254 241 2 254 241 2 254 241 2 
254 241 2 254 241 2 254 241 2 254 241 2 254 241 2 
254 241 2 254 241 2 254 241 2 254 241 2 254 241 2 
254 241 3 253 241 3 115 201 59 37 177 78 37 177 78 
37 177 78 36 178 77 142 208 53 254 242 1 254 241 2 
254 241 2 254 241 2 254 241 2 254 241 2 254 241 2 
254 241 2 254 241 2 254 241 2 254 241 2 254 241 2 
254 241 2 254 241 2 254 241 2 254 241 2 254 241 2 
254 241 2 254 241 2 254 241 2 254 241 2 254 241 2 
254 241 2 253 241 3 115 201 59 37 177 78 37 177 78 
37 177 78 37 177 78 138 208 52 254 241 4 254 241 2 
254 241 2 254 241 2 254 241 2 254 241 2 254 241 2 
254 241 2 254 241 2 254 241 2 254 241 2 254 241 2 
254 241 2 254 241 2 254 241 2 254 241 2 254 241 2 
254 241 2 254 241 2 254 241 2 254 241 2 254 241 2 
254 241 2 253 241 3 115 201 59 37 177 78 37 177 78 
37 177 78 37 177 78 138 208 50 254 242 5 254 241 2 
254 241 2 254 241 2 254 241 2 254 241 2 254 241 2 
254 241 2 254 241 1 254 242 4 254 241 2 254 241 2 
254 241 3 254 241 2 254 241 2 254 241 2 254 241 2 
254 241 2 254 241 2 254 241 2 254 241 2 254 241 2 
254 241 2 253 241 3 115 201 59 37 177 78 37 177 78 
37 177 78 37 177 78 136 207 58 250 243 15 249 242 15 
249 242 15 249 242 15 249 242 15 249 242 15 248 242 16 
241 238 16 222 232 21 218 230 24 205 227 29 176 219 38 
167 216 43 166 216 43 184 221 37 217 230 26 233 234 21 
249 242 16 249 242 15 249 242 15 249 242 15 249 242 15 
249 242 15 246 241 18 98 196 66 37 177 78 37 177 78 
37 177 78 37 177 78 41 179 79 41 177 74 39 176 75 
39 177 74 39 176 75 39 176 75 39 177 75 40 175 77 
36 177 77 34 178 79 35 178 79 35 178 79 35 178 79 
37 177 77 36 178 79 35 178 78 36 177 79 35 178 76 
39 176 75 39 177 74 39 176 75 39 177 74 39 177 74 
39 176 75 39 176 76 35 178 78 37 177 78 37 177 78 
37 177 78 37 177 78 37 177 78 37 177 78 37 177 78 
37 177 78 37 177 78 37 177 78 37 177 78 37 177 78 
37 177 78 37 177 78 37 177 78 37 177 78 37 177 78 
37 177 78 37 177 78 37 177 78 37 177 78 37 177 78 
37 177 78 37 177 78 37 177 78 37 177 78 37 177 78 
37 177 78 37 177 78 37 177 78 37 177 78 37 177 78 
37 177 78 37 177 78 37 177 78 37 177 78 37 177 78 
37 177 78 37 177 78 37 177 78 37 177 78 37 177 78 
37 177 78 37 177 78 37 177 78 37 177 78 37 177 78 
37 177 78 37 177 78 37 177 78 37 177 78 37 177 78 
37 177 78 37 177 78 37 177 78 37 177 78 37 177 78 
37 177 78 37 177 78 37 177 78 37 177 78 37 177 78 
