P3
# Created by IrfanView
131 30
255
0 0 0 0 0 0 0 0 0 0 0 0 0 0 0 
0 0 0 0 0 0 0 0 0 0 0 0 0 0 0 
0 0 0 0 0 0 0 0 0 0 0 0 0 0 0 
0 0 0 0 0 0 0 0 0 0 0 0 0 0 0 
0 0 0 0 0 0 0 0 0 0 0 0 0 0 0 
0 0 0 0 0 0 0 0 0 0 0 0 0 0 0 
0 0 0 0 0 0 0 0 0 0 0 0 0 0 0 
0 0 0 0 0 0 0 0 0 0 0 0 0 0 0 
0 0 0 0 0 0 0 0 0 0 0 0 0 0 0 
0 0 0 0 0 0 0 0 0 0 0 0 0 0 0 
0 0 0 0 0 0 0 0 0 0 0 0 0 0 0 
0 0 0 0 0 0 0 0 0 0 0 0 0 0 0 
0 0 0 0 0 0 0 0 0 0 0 0 0 0 0 
0 0 0 0 0 0 0 0 0 0 0 0 0 0 0 
0 0 0 0 0 0 0 0 0 0 0 0 0 0 0 
0 0 0 0 0 0 0 0 0 0 0 0 0 0 0 
0 0 0 0 0 0 0 0 0 0 0 0 0 0 0 
0 0 0 0 0 0 0 0 0 0 0 0 0 0 0 
0 0 0 0 0 0 0 0 0 0 0 0 0 0 0 
0 0 0 0 0 0 0 0 0 0 0 0 0 0 0 
0 0 0 0 0 0 0 0 0 0 0 0 0 0 0 
0 0 0 0 0 0 0 0 0 0 0 0 0 0 0 
0 0 0 0 0 0 0 0 0 0 0 0 0 0 0 
0 0 0 0 0 0 0 0 0 0 0 0 0 0 0 
0 0 0 0 0 0 0 0 0 0 0 0 0 0 0 
0 0 0 0 0 0 0 0 0 0 0 0 0 0 0 
0 0 0 0 0 0 0 0 0 0 0 0 0 0 0 
0 0 0 0 0 0 0 0 0 0 0 0 0 0 0 
0 0 0 0 0 0 0 0 0 0 0 0 0 0 0 
0 0 0 0 0 0 0 0 0 0 0 0 0 0 0 
0 0 0 0 0 0 0 0 0 0 0 0 0 0 0 
0 0 0 0 0 0 0 0 0 0 0 0 0 0 0 
0 0 0 0 0 0 0 0 0 0 0 0 0 0 0 
0 0 0 0 0 0 0 0 0 0 0 0 0 0 0 
0 0 0 0 0 0 0 0 0 0 0 0 0 0 0 
0 0 0 0 0 0 0 0 0 0 0 0 0 0 0 
0 0 0 0 0 0 0 0 0 0 0 0 0 0 0 
0 0 0 0 0 0 0 0 0 0 0 0 0 0 0 
0 0 0 0 0 0 0 0 0 0 0 0 0 0 0 
0 0 0 0 0 0 0 0 0 0 0 0 0 0 0 
0 0 0 0 0 0 0 0 0 0 0 0 0 0 0 
0 0 0 0 0 0 0 0 0 0 0 0 0 0 0 
0 0 0 0 0 0 0 0 0 0 0 0 0 0 0 
0 0 0 0 0 0 0 0 0 0 0 0 0 0 0 
0 0 0 0 0 0 0 0 0 0 0 0 0 0 0 
0 0 0 0 0 0 0 0 0 0 0 0 0 0 0 
0 0 0 0 0 0 0 0 0 0 0 0 0 0 0 
0 0 0 0 0 0 0 0 0 0 0 0 0 0 0 
0 0 0 0 0 0 0 0 0 0 0 0 0 0 0 
0 0 0 0 0 0 0 0 0 0 0 0 0 0 0 
0 0 0 0 0 0 0 0 0 0 0 0 0 0 0 
0 0 0 0 0 0 0 0 0 0 0 0 0 0 0 
0 0 0 0 0 0 0 0 0 0 0 0 0 0 0 
0 0 0 0 0 0 0 0 0 0 0 0 0 0 0 
0 0 0 0 0 0 0 0 0 0 0 0 0 0 0 
0 0 0 0 0 0 0 0 0 0 0 0 0 0 0 
0 0 0 0 0 0 0 0 0 0 0 0 0 0 0 
0 0 0 0 0 0 0 0 0 0 0 0 0 0 0 
0 0 0 0 0 0 0 0 0 0 0 0 0 0 0 
0 0 0 0 0 0 0 0 0 0 0 0 0 0 0 
0 0 0 0 0 0 0 0 0 0 0 0 0 0 0 
0 0 0 0 0 0 0 0 0 0 0 0 0 0 0 
0 0 0 0 0 0 0 0 0 0 0 0 0 0 0 
0 0 0 0 0 0 0 0 0 0 0 0 0 0 0 
0 0 0 0 0 0 0 0 0 0 0 0 0 0 0 
0 0 0 0 0 0 0 0 0 0 0 0 0 0 0 
0 0 0 0 0 0 0 0 0 0 0 0 0 0 0 
0 0 0 0 0 0 0 0 0 0 0 0 0 0 0 
0 0 0 0 0 0 0 0 0 0 0 0 0 0 0 
0 0 0 0 0 0 0 0 0 0 0 0 0 0 0 
0 0 0 0 0 0 0 0 0 0 0 0 0 0 0 
0 0 0 0 0 0 0 0 0 0 0 0 0 0 0 
0 0 0 0 0 0 0 0 0 0 0 0 0 0 0 
0 0 0 0 0 0 0 0 0 0 0 0 0 0 0 
0 0 0 0 0 0 0 0 0 0 0 0 0 0 0 
0 0 0 0 0 0 0 0 0 0 0 0 0 0 0 
0 0 0 0 0 0 0 0 0 0 0 0 0 0 0 
0 0 0 0 0 0 0 0 0 0 0 0 0 0 0 
0 0 0 0 0 0 0 0 0 0 0 0 0 0 0 
0 0 0 0 0 0 0 0 0 0 0 0 0 0 0 
1 0 1 16 21 26 7 38 64 5 38 65 4 38 66 
4 38 65 6 38 66 23 51 73 12 23 35 6 8 15 
0 2 3 1 1 4 1 1 0 1 0 3 0 1 1 
0 0 0 0 0 0 0 0 0 0 0 0 0 0 0 
0 0 0 0 0 0 0 0 0 0 0 0 0 0 0 
0 0 0 0 0 0 0 0 0 0 0 0 0 0 0 
0 0 0 0 0 0 0 0 0 0 0 0 0 0 0 
0 0 0 0 0 0 0 0 0 0 0 0 0 0 0 
0 0 0 0 0 0 0 0 0 0 0 0 0 0 0 
0 0 0 0 0 0 0 0 0 0 0 0 0 0 0 
0 0 0 0 0 0 0 0 0 0 0 0 0 0 0 
0 0 0 0 0 0 0 0 0 0 0 0 0 0 0 
0 0 0 0 0 0 0 0 0 0 0 0 0 0 0 
0 0 0 0 0 0 0 0 0 0 0 0 0 0 0 
0 0 0 0 0 0 0 0 0 0 0 0 0 0 0 
0 0 0 0 0 0 0 0 0 0 0 0 0 0 0 
0 0 0 0 0 0 0 0 0 0 0 0 0 0 0 
0 0 0 0 0 0 0 0 0 0 0 0 0 0 0 
0 0 0 0 0 0 0 0 0 0 0 0 0 0 0 
0 0 0 0 0 0 0 0 0 0 0 0 0 0 0 
0 0 0 0 0 0 0 0 0 0 0 0 0 0 0 
0 0 0 0 0 0 0 0 0 0 0 0 0 0 0 
0 0 0 0 0 0 0 0 0 0 0 0 0 0 0 
0 0 0 0 0 0 0 0 0 0 0 0 0 0 0 
0 0 0 0 0 0 0 0 0 0 0 0 0 0 0 
0 0 0 0 0 0 0 0 0 0 0 0 0 0 0 
0 0 0 2 1 1 19 25 31 40 99 143 5 112 191 
2 113 189 1 113 192 4 112 189 5 112 188 11 112 185 
20 110 171 28 85 127 23 49 70 3 4 13 1 2 3 
2 0 1 0 0 0 0 0 0 0 0 0 0 0 0 
0 0 0 0 0 0 0 0 0 0 0 0 0 0 0 
0 0 0 0 0 0 0 0 0 0 0 0 0 0 0 
0 0 0 0 0 0 0 0 0 0 0 0 0 0 0 
0 0 0 0 0 0 0 0 0 0 0 0 0 0 0 
0 0 0 0 0 0 0 0 0 0 0 0 0 0 0 
0 0 0 0 0 0 0 0 0 0 0 0 0 0 0 
0 0 0 0 0 0 0 0 0 0 0 0 0 0 0 
0 0 0 0 0 0 0 0 0 0 0 0 0 0 0 
0 0 0 0 0 0 0 0 0 0 0 0 0 0 0 
0 0 0 0 0 0 0 0 0 0 0 0 0 0 0 
0 0 0 0 0 0 0 0 0 0 0 0 0 0 0 
0 0 0 0 0 0 0 0 0 0 0 0 0 0 0 
0 0 0 0 0 0 0 0 0 0 0 0 0 0 0 
0 0 0 0 0 0 0 0 0 0 0 0 0 0 0 
0 0 0 0 0 0 0 0 0 0 0 0 0 0 0 
0 0 0 0 0 0 0 0 0 0 0 0 0 0 0 
0 0 0 0 0 0 0 0 0 0 0 0 0 0 0 
0 0 0 0 0 0 0 0 0 0 0 0 0 0 0 
0 0 0 0 0 0 0 0 0 0 0 0 0 0 0 
0 0 0 0 0 0 0 0 0 0 0 0 0 0 0 
0 0 0 0 0 0 0 0 0 0 0 0 0 0 0 
0 0 0 0 0 0 0 0 0 0 0 0 0 0 0 
0 0 0 0 0 0 0 0 1 3 1 2 5 5 7 
35 76 110 11 115 190 1 114 200 34 127 189 9 112 182 
3 113 191 2 113 193 1 113 197 10 111 189 30 107 161 
23 37 52 2 3 4 0 0 0 0 0 0 0 0 0 
0 0 0 0 0 0 0 0 0 0 0 0 0 0 0 
0 0 0 0 0 0 0 0 0 0 0 0 0 0 0 
0 0 0 0 0 0 0 0 0 0 0 0 0 0 0 
0 0 0 0 0 0 0 0 0 0 0 0 0 0 0 
0 0 0 0 0 0 0 0 0 0 0 0 0 0 0 
0 0 0 0 0 0 0 0 0 0 0 0 0 0 0 
0 0 0 0 0 0 0 0 0 0 0 0 0 0 0 
0 0 0 0 0 0 0 0 0 0 0 0 0 0 0 
0 0 0 0 0 0 0 0 0 0 0 0 0 0 0 
0 0 0 0 0 0 0 0 0 0 0 0 0 0 0 
0 0 0 0 0 0 0 0 0 0 0 0 0 0 0 
0 0 0 0 0 0 0 0 0 0 0 0 0 0 0 
0 0 0 0 0 0 0 0 0 0 0 0 0 0 0 
0 0 0 0 0 0 0 0 0 0 0 0 0 0 0 
0 0 0 0 0 0 0 0 0 0 0 0 0 0 0 
0 0 0 0 0 0 0 0 0 0 0 0 0 0 0 
0 0 0 0 0 0 0 0 0 0 0 0 0 0 0 
0 0 0 0 0 0 0 0 0 0 0 0 0 0 0 
0 0 0 0 0 0 0 0 0 0 0 0 0 0 0 
0 0 0 0 0 0 0 0 0 0 0 0 0 0 0 
0 0 0 0 0 0 0 0 0 0 0 0 0 0 0 
0 0 0 0 0 0 0 0 0 0 0 0 0 0 0 
0 0 0 0 0 0 0 0 0 2 0 1 1 1 6 
4 2 2 8 11 17 18 107 168 8 110 183 23 45 65 
32 56 75 35 108 159 3 112 198 2 112 193 1 114 188 
4 111 196 16 118 191 20 47 70 0 0 1 0 0 0 
0 0 0 0 0 0 0 0 0 0 0 0 0 0 0 
0 0 0 0 0 0 0 0 0 0 0 0 0 0 0 
0 0 0 0 0 0 0 0 0 0 0 0 0 0 0 
0 0 0 0 0 0 0 0 0 0 0 0 0 0 0 
0 0 0 0 0 0 0 0 0 0 0 0 0 0 0 
0 0 0 0 0 0 0 0 0 0 0 0 0 0 0 
0 0 0 0 0 0 0 0 0 0 0 0 0 0 0 
0 0 0 0 0 0 0 0 0 0 0 0 0 0 0 
0 0 0 0 0 0 0 0 0 0 0 0 0 0 0 
0 0 0 0 0 0 0 0 0 0 0 0 0 0 0 
0 0 0 0 0 0 0 0 0 0 0 0 0 0 0 
0 0 0 0 0 0 0 0 0 0 0 0 0 0 0 
0 0 0 0 0 0 0 0 0 0 0 0 0 0 0 
0 0 0 0 0 0 0 0 0 0 0 0 0 0 0 
0 0 0 0 0 0 0 0 0 0 0 0 0 0 0 
0 0 0 0 0 0 0 0 0 0 0 0 0 0 0 
0 0 0 0 0 0 0 0 0 0 0 0 0 0 0 
0 0 0 0 0 0 0 0 0 0 0 0 0 0 0 
0 0 0 0 0 0 0 0 0 0 0 0 0 0 0 
0 0 0 0 0 0 0 0 0 0 0 0 0 0 0 
0 0 0 0 0 0 0 0 0 0 0 0 0 0 0 
0 0 0 0 0 0 0 0 0 0 0 0 0 0 0 
0 0 0 0 0 0 0 0 0 0 0 0 1 0 1 
4 0 1 1 3 6 26 52 71 3 113 190 18 119 192 
13 19 26 3 1 3 10 11 15 39 90 123 7 114 191 
1 113 193 4 111 188 1 113 192 18 114 185 26 45 63 
4 1 0 0 0 1 2 0 0 1 0 1 1 0 1 
1 0 0 2 0 0 0 1 0 1 0 3 1 1 1 
0 0 2 1 0 2 2 0 0 1 0 2 0 0 0 
0 0 0 1 0 0 1 0 0 0 0 0 0 0 0 
1 0 0 5 0 0 1 0 0 1 1 0 1 0 0 
0 0 0 0 0 0 1 0 0 1 0 0 0 0 0 
0 0 0 0 0 0 2 0 2 5 0 0 1 2 2 
2 0 0 0 0 0 0 0 0 0 0 1 0 0 0 
1 0 1 1 1 2 0 1 0 0 0 0 0 0 0 
0 0 0 1 0 0 1 0 1 1 0 0 2 0 0 
4 0 1 2 0 1 0 1 5 0 0 3 0 1 1 
1 0 0 0 0 1 2 0 0 0 0 3 1 0 2 
0 0 0 0 0 2 1 0 0 0 0 2 1 0 0 
1 0 1 1 0 4 0 1 0 1 0 2 1 0 1 
1 0 1 0 0 1 0 0 1 0 0 3 0 0 2 
3 0 0 0 0 1 1 0 1 0 0 3 1 0 0 
0 0 0 0 0 0 1 0 0 1 0 0 1 0 0 
0 0 0 0 0 0 1 0 0 1 0 0 1 0 0 
0 0 1 1 0 1 0 1 0 0 0 1 0 0 0 
0 0 2 0 1 2 1 1 0 1 0 1 2 0 0 
1 0 1 3 0 1 1 0 5 0 0 3 2 0 0 
1 0 0 0 0 0 0 0 0 0 0 0 0 0 0 
0 0 0 0 0 0 0 0 0 0 0 0 0 0 0 
1 1 0 0 2 3 3 4 3 33 103 147 2 113 193 
21 103 163 3 4 6 3 2 3 2 3 8 7 3 6 
29 70 105 4 113 192 0 114 197 1 112 190 1 113 193 
40 118 170 9 13 18 1 0 3 0 1 3 1 0 0 
1 0 0 0 0 3 0 0 6 1 0 1 3 0 0 
2 0 0 2 0 1 4 0 1 0 1 6 2 0 0 
0 0 2 0 0 2 0 0 2 0 0 2 0 0 2 
0 0 2 0 0 2 1 1 0 0 2 2 1 1 3 
2 0 3 0 0 2 0 0 2 0 0 2 0 0 2 
0 0 2 0 0 2 0 0 2 0 0 2 0 1 3 
1 0 2 0 1 1 0 0 2 0 0 2 0 0 1 
0 1 2 1 0 1 2 0 0 1 0 0 0 0 0 
0 0 0 0 0 0 1 0 0 2 1 1 1 1 4 
1 1 4 2 1 6 3 0 2 5 0 1 2 0 1 
1 0 0 1 0 0 1 0 2 1 0 2 3 0 0 
1 0 3 0 0 3 0 0 1 1 0 1 1 0 1 
0 0 4 2 0 3 6 0 0 1 1 2 3 0 1 
1 0 0 1 0 0 0 0 2 0 1 3 0 1 1 
2 2 1 2 2 4 2 0 0 1 0 2 2 0 1 
1 0 1 0 0 2 0 0 2 0 0 2 0 0 2 
0 0 2 0 0 2 0 0 2 0 0 1 0 0 1 
0 0 1 0 0 1 1 0 0 1 0 0 0 0 2 
0 0 2 1 0 0 2 0 0 2 0 0 3 0 1 
1 1 3 1 1 6 1 0 4 2 0 1 3 0 0 
2 2 0 0 1 2 0 0 0 0 0 0 0 0 0 
0 0 0 0 0 0 0 0 0 0 0 0 0 0 0 
0 0 0 2 0 0 1 0 3 22 30 41 15 114 188 
2 113 194 33 87 126 1 1 2 1 0 1 0 1 1 
3 1 2 5 9 11 37 99 142 4 113 194 3 112 191 
1 113 194 4 115 188 36 62 82 5 0 1 2 2 2 
11 16 23 6 19 37 6 18 35 6 19 34 7 18 34 
4 21 42 6 21 39 17 25 35 8 11 15 6 21 37 
5 19 35 5 19 35 5 19 35 5 19 36 5 19 36 
5 19 35 5 19 35 5 19 36 9 20 36 10 7 10 
11 16 21 4 22 39 5 19 35 5 19 35 5 19 36 
5 19 36 5 19 35 5 19 35 5 19 35 6 20 34 
12 22 36 4 2 4 11 22 35 6 20 36 5 20 38 
6 19 35 7 19 34 4 21 40 8 20 37 15 19 25 
0 0 0 0 0 0 0 0 0 0 0 2 2 2 3 
4 3 4 18 25 34 27 54 74 33 79 113 19 50 81 
3 2 2 12 18 26 5 21 41 6 18 34 6 20 35 
5 21 39 6 20 38 11 13 19 14 14 17 6 20 39 
6 19 37 6 18 34 6 19 37 6 19 40 6 19 35 
10 15 24 10 20 31 5 20 39 7 18 34 6 18 35 
6 19 35 7 21 39 7 20 39 19 28 37 1 3 7 
8 0 1 8 18 34 5 19 35 5 19 35 5 19 36 
5 19 36 5 19 36 5 19 35 5 19 35 5 19 35 
5 19 35 6 19 36 13 24 37 10 22 37 5 21 40 
7 18 33 6 19 35 5 19 38 6 20 39 16 25 39 
2 2 7 1 0 4 18 19 24 6 20 38 6 19 38 
6 21 40 7 20 40 14 20 30 0 1 3 1 0 0 
0 0 0 0 0 0 0 0 0 0 0 0 0 0 0 
0 0 0 0 0 0 1 0 2 2 0 0 30 75 110 
2 112 191 2 113 194 18 54 80 1 0 1 1 0 1 
0 0 1 1 2 4 4 2 3 14 25 38 21 113 180 
2 112 193 2 112 193 3 112 193 33 90 132 0 1 3 
5 1 2 37 56 71 23 108 171 6 111 189 7 111 184 
8 110 187 10 111 181 39 98 142 44 58 74 21 28 37 
38 113 166 7 111 187 6 111 188 6 111 187 9 111 185 
11 111 183 9 111 184 9 110 184 6 111 188 21 110 173 
18 25 35 38 59 78 23 115 181 6 111 187 6 111 187 
6 111 187 11 111 183 11 110 183 9 110 183 8 111 184 
7 113 188 37 95 142 5 3 9 46 89 121 16 113 181 
5 112 189 5 111 188 9 111 185 24 115 179 32 78 114 
31 36 40 0 0 0 0 0 0 0 0 0 5 8 10 
37 64 82 37 107 158 16 113 185 6 112 190 3 113 194 
24 84 131 4 2 3 38 57 73 29 116 176 7 111 185 
7 112 186 29 119 180 40 88 123 18 26 36 21 24 30 
43 104 151 7 111 184 6 112 185 5 112 187 18 112 183 
37 90 127 23 29 36 42 78 106 14 112 181 7 112 185 
6 112 186 4 112 189 18 112 179 39 97 139 49 61 74 
2 2 4 16 23 29 24 115 181 7 111 186 9 110 184 
9 110 184 7 111 186 6 111 187 6 111 188 8 111 184 
10 110 182 8 111 184 7 111 186 31 103 157 51 101 136 
8 111 184 7 111 186 6 111 186 6 112 187 47 119 171 
60 80 96 5 4 5 2 0 1 45 64 78 25 118 181 
5 112 188 10 111 181 55 116 158 39 56 72 0 1 4 
2 0 0 0 0 0 0 0 0 0 0 0 0 0 0 
0 0 0 0 0 0 0 0 0 2 2 2 8 10 16 
32 119 178 3 112 194 9 114 189 24 36 47 0 0 4 
2 0 0 0 0 0 0 0 0 0 0 0 2 2 3 
40 106 154 3 112 192 1 113 192 1 112 192 23 103 161 
2 1 2 1 1 2 2 3 5 32 75 107 4 113 189 
1 113 193 9 113 184 35 60 84 3 4 8 2 0 1 
1 0 1 31 48 60 5 110 190 1 112 194 3 112 191 
55 99 129 31 42 59 6 29 46 14 35 57 15 110 180 
26 100 154 3 4 6 3 2 5 36 80 112 1 112 193 
1 113 193 15 116 183 58 77 90 21 36 50 8 28 52 
23 59 92 6 112 191 25 66 98 1 1 5 4 1 3 
34 115 170 3 111 196 2 112 189 24 110 173 18 25 32 
1 1 5 0 0 1 4 3 4 2 3 10 30 49 65 
33 109 165 6 112 187 9 113 185 46 98 134 44 95 133 
3 112 189 22 61 95 2 4 7 2 2 4 24 38 50 
15 113 186 39 108 156 21 31 42 2 2 4 1 0 0 
2 1 4 22 36 48 5 112 185 1 112 193 6 114 186 
41 65 89 0 3 2 2 1 2 3 3 5 40 102 146 
3 112 190 0 113 198 21 116 183 27 43 56 2 3 6 
2 0 3 2 1 4 37 74 103 4 113 196 35 106 160 
11 33 59 19 64 104 3 113 191 1 113 194 6 113 193 
20 58 91 16 32 51 40 98 139 4 113 193 32 74 107 
8 11 15 26 102 157 0 113 193 1 112 193 27 120 186 
10 14 22 0 1 4 2 1 3 3 1 2 4 7 15 
26 99 153 20 118 183 22 47 71 1 4 4 1 1 2 
0 0 0 0 0 0 0 0 0 0 0 0 0 0 0 
0 0 0 0 0 0 0 0 0 0 0 0 2 2 0 
26 51 71 8 111 189 3 113 190 19 109 174 5 8 15 
1 0 3 2 0 2 0 0 0 0 0 0 0 0 0 
4 1 0 24 69 106 3 112 191 0 113 193 2 112 191 
8 94 157 0 2 4 1 1 1 4 3 4 29 88 136 
2 112 192 0 113 195 36 112 163 0 3 9 6 1 1 
0 1 1 4 0 1 22 55 82 3 113 187 1 113 195 
24 120 189 12 17 20 1 3 5 5 1 2 5 2 8 
28 99 147 27 82 123 3 3 3 5 2 2 21 89 140 
5 111 190 3 111 193 36 101 149 1 2 5 2 2 2 
2 2 2 17 22 25 18 111 182 25 49 69 3 0 1 
8 15 26 18 117 181 2 112 192 1 114 189 33 73 105 
7 2 2 1 1 6 4 1 0 5 4 6 43 87 121 
12 114 189 4 113 191 31 109 166 25 41 57 2 2 4 
22 39 50 7 114 191 26 50 72 5 2 2 5 2 1 
27 47 64 9 114 188 33 67 95 2 2 4 3 1 0 
0 0 1 2 2 3 28 59 84 2 113 188 2 113 194 
33 113 165 4 2 6 0 1 1 2 1 0 5 4 4 
29 101 155 1 112 193 1 113 192 30 91 138 4 2 6 
2 2 2 1 1 1 8 12 17 20 112 180 41 110 159 
15 21 27 5 1 3 31 88 129 3 112 191 1 113 193 
35 113 168 11 13 15 6 3 3 22 40 61 8 110 186 
30 47 63 1 2 4 23 74 114 3 112 190 2 113 196 
40 127 188 1 1 3 1 0 2 3 1 2 4 7 11 
27 84 127 12 115 188 38 65 91 5 2 1 1 1 9 
0 1 1 0 0 0 0 0 0 0 0 0 0 0 0 
0 0 0 0 0 0 0 0 0 0 0 0 0 0 0 
2 3 5 27 90 135 3 112 196 0 113 191 33 98 145 
3 2 4 0 1 4 1 0 1 0 0 0 0 0 0 
0 0 0 2 1 1 8 41 68 2 112 192 0 113 193 
2 113 193 26 100 154 3 1 2 1 1 4 5 5 11 
23 115 181 0 113 193 4 112 191 26 59 87 0 1 1 
1 0 4 1 0 1 2 0 1 17 80 127 2 114 189 
2 114 196 34 89 129 1 3 5 3 4 3 4 2 5 
6 7 9 41 79 103 36 59 78 3 1 1 3 7 12 
17 110 178 0 114 190 6 112 186 30 56 75 1 3 1 
1 1 0 4 2 3 7 9 15 63 114 152 14 20 30 
9 2 0 23 49 73 6 113 185 4 111 192 18 115 180 
9 15 27 2 0 1 3 2 3 14 18 24 41 110 156 
4 113 193 6 112 187 43 108 151 10 14 20 6 2 2 
0 1 4 4 5 10 31 108 165 20 31 43 0 1 6 
1 4 9 25 92 142 6 111 191 21 41 55 2 0 0 
1 0 1 0 0 2 2 2 2 24 86 131 2 113 191 
3 113 188 31 65 90 5 1 1 1 0 2 2 1 1 
14 20 26 17 110 178 0 113 197 8 112 180 19 42 58 
2 1 2 0 1 1 4 3 5 51 76 95 47 110 155 
14 21 27 4 0 1 1 4 12 29 113 175 4 112 192 
5 112 190 35 74 104 1 3 4 1 2 2 11 16 21 
65 131 170 5 9 14 1 0 1 20 42 64 5 111 186 
1 113 195 5 86 146 3 0 1 1 0 2 7 7 8 
39 95 139 8 113 189 42 83 112 5 3 5 1 2 4 
3 0 1 1 0 0 0 0 0 0 0 0 0 0 0 
0 0 0 0 0 0 0 0 0 0 1 0 1 0 0 
1 1 1 17 25 35 20 116 182 2 112 190 2 113 192 
22 68 102 4 1 2 2 1 6 1 1 0 0 0 2 
1 1 0 1 1 3 2 2 3 42 90 126 2 112 194 
0 113 192 2 113 194 18 67 107 7 0 2 2 1 5 
22 35 48 8 114 193 2 112 191 23 112 171 13 18 23 
3 1 0 2 0 1 3 0 2 5 7 10 29 118 180 
3 112 192 8 115 187 26 37 49 1 3 7 4 2 2 
20 29 38 69 125 164 16 18 22 2 3 5 3 1 2 
27 46 61 7 111 188 1 113 195 31 114 177 5 3 9 
2 2 4 2 1 4 31 58 81 73 111 135 4 2 5 
3 2 3 3 3 5 26 77 117 2 113 194 4 111 192 
28 87 126 4 1 1 3 1 1 4 5 9 43 106 148 
5 112 187 6 112 187 24 74 115 2 2 7 1 1 1 
1 2 2 1 0 1 3 1 1 68 91 105 10 11 14 
1 1 0 26 38 48 16 119 193 21 117 185 2 4 11 
0 0 0 0 0 3 0 0 1 1 2 5 24 111 174 
3 112 192 27 121 184 13 20 25 2 3 4 2 0 2 
1 1 2 21 43 60 4 111 188 0 113 197 39 110 163 
3 5 7 1 1 3 4 0 1 1 1 4 49 56 62 
20 24 28 2 2 4 2 1 2 22 30 36 10 109 183 
2 112 192 23 119 188 13 18 25 3 1 3 2 0 2 
3 0 1 31 36 40 4 1 2 2 0 1 20 26 34 
12 113 185 0 114 196 5 86 144 2 2 2 4 6 11 
41 95 133 6 111 191 33 85 124 5 4 6 1 2 1 
2 0 1 0 2 1 1 0 0 0 0 0 0 0 0 
0 0 0 0 0 0 0 0 0 0 0 0 0 1 1 
2 1 1 3 3 2 34 76 105 5 112 191 1 112 192 
3 112 188 30 53 71 4 3 2 1 0 4 2 0 0 
0 1 1 1 1 4 3 4 4 29 44 56 18 117 190 
4 111 189 1 113 192 12 114 187 25 42 57 2 0 4 
3 1 4 28 63 91 2 113 194 5 112 188 31 77 115 
4 2 4 2 0 2 2 0 2 3 3 1 24 37 49 
10 114 185 1 113 191 30 95 144 6 5 6 1 2 7 
8 12 19 31 105 157 32 83 124 3 3 3 1 0 2 
1 1 1 32 72 102 2 113 195 6 112 189 28 64 94 
7 3 4 2 4 11 16 32 50 27 116 181 27 51 69 
2 0 1 1 0 2 2 2 4 26 103 159 1 113 192 
8 111 185 22 39 54 4 2 2 2 4 7 37 77 105 
7 112 187 4 113 192 42 106 151 7 11 18 2 1 2 
0 0 0 0 0 0 0 0 0 0 0 0 0 0 2 
1 0 0 1 0 1 34 81 115 2 114 195 19 96 155 
3 3 6 0 0 0 0 0 2 0 0 1 25 37 48 
10 114 190 3 113 193 30 82 123 0 0 2 0 0 0 
0 0 0 0 1 1 30 79 114 2 114 191 4 112 190 
29 61 87 2 3 6 2 1 1 0 0 2 0 0 0 
0 0 0 0 0 0 1 1 2 2 4 3 28 57 76 
5 112 193 3 113 193 36 96 138 1 2 2 1 0 1 
0 0 0 0 0 0 0 0 0 0 0 0 1 0 2 
1 2 5 29 107 164 1 115 193 23 91 141 5 9 14 
50 98 132 5 114 190 40 106 152 11 17 22 3 2 2 
0 0 0 0 0 0 0 0 0 0 0 0 0 0 0 
0 0 0 0 0 0 0 0 0 0 0 0 0 0 0 
2 0 0 1 1 5 11 12 14 26 109 164 3 112 194 
3 111 196 13 116 183 13 17 22 1 1 1 0 1 3 
1 1 0 0 1 2 3 1 4 10 12 18 31 109 164 
3 113 194 2 113 191 1 112 196 40 102 147 4 4 5 
0 1 4 1 1 4 36 99 148 2 115 189 18 118 189 
23 33 46 3 1 1 0 1 5 1 0 2 5 3 1 
27 64 96 3 113 189 1 114 195 34 123 180 18 86 140 
10 84 142 23 99 157 9 112 184 31 52 70 4 2 4 
4 0 2 0 1 3 26 98 152 2 113 193 1 114 194 
44 118 168 10 83 142 15 81 140 16 110 179 28 117 174 
13 15 21 1 0 2 3 0 0 23 30 36 14 113 188 
2 113 192 37 110 159 4 3 3 5 1 3 20 33 45 
19 116 187 2 113 193 22 109 172 12 20 27 3 1 3 
2 1 3 0 0 0 0 0 0 0 0 0 0 0 0 
0 1 2 4 1 2 12 14 23 29 120 187 2 112 193 
25 78 119 1 2 4 0 1 2 1 0 2 0 1 1 
30 70 96 2 113 194 12 114 186 25 41 51 0 0 0 
0 0 0 0 0 0 1 2 5 30 108 164 0 114 196 
29 115 176 12 17 24 3 1 1 2 0 0 0 0 2 
0 0 0 0 0 0 0 0 0 3 0 0 2 3 6 
28 83 124 2 113 191 9 114 187 23 40 58 1 2 2 
2 0 2 0 0 0 0 0 0 0 0 0 0 0 0 
1 1 3 4 1 3 25 79 118 3 112 193 53 116 158 
46 103 137 5 113 194 34 114 169 7 12 20 3 0 0 
2 1 1 0 0 0 0 0 0 0 0 0 0 0 0 
0 0 0 0 0 0 0 0 0 0 0 0 0 0 0 
0 1 3 5 0 1 1 1 5 25 48 65 7 113 189 
0 113 194 2 113 194 23 99 155 1 1 2 1 1 1 
1 2 0 2 1 2 1 0 2 10 12 17 43 105 150 
2 113 190 1 112 191 1 114 193 27 118 177 19 30 42 
3 2 1 2 1 1 10 14 22 20 113 179 5 113 191 
32 95 142 1 2 2 0 1 1 1 1 1 0 1 3 
3 2 4 23 89 143 2 113 191 19 111 177 13 72 117 
10 71 128 14 82 133 12 116 191 31 113 169 4 1 8 
2 1 4 0 0 2 8 13 20 17 110 179 3 112 192 
20 100 156 12 71 119 9 71 125 22 97 157 4 112 191 
31 79 113 2 4 5 1 1 0 0 1 5 27 54 74 
3 112 192 5 112 190 29 56 77 4 3 3 5 2 4 
33 73 106 1 113 195 2 112 192 31 75 112 4 2 3 
4 1 2 2 1 5 0 0 0 0 0 0 0 0 0 
1 1 3 3 1 1 2 2 3 33 71 100 3 112 193 
5 111 189 22 59 87 2 1 0 0 0 0 2 1 1 
1 4 8 28 96 143 4 112 191 31 104 157 5 3 4 
0 0 0 0 0 0 0 0 0 12 21 32 21 117 186 
2 113 192 30 76 111 2 1 2 0 0 1 0 0 1 
0 0 0 0 0 0 0 0 0 0 0 0 1 0 0 
1 4 5 26 109 171 0 113 197 38 109 160 3 6 8 
3 1 1 1 1 3 0 0 0 0 0 0 0 0 0 
1 0 0 1 0 1 2 1 2 33 62 84 4 111 194 
29 131 193 5 114 183 19 105 172 20 33 44 5 2 4 
2 0 3 1 0 1 0 0 0 0 0 0 0 0 0 
0 0 0 0 0 0 0 0 0 0 0 0 0 0 0 
0 0 0 0 0 1 3 0 2 0 1 6 31 91 134 
1 113 193 1 112 193 2 113 193 28 82 123 1 1 1 
1 1 1 1 1 3 4 0 3 10 12 16 51 106 146 
2 113 196 6 110 189 2 113 197 16 111 180 24 51 72 
4 0 4 1 1 2 3 2 2 22 44 62 8 111 182 
7 114 190 34 57 74 0 1 3 0 0 2 2 0 0 
1 0 1 8 14 18 24 116 181 3 112 191 36 78 106 
1 1 4 1 1 2 9 13 23 16 107 172 28 64 92 
5 0 1 2 0 4 2 3 6 28 48 64 4 113 191 
17 116 184 25 44 60 2 2 2 1 1 1 20 40 57 
13 111 185 19 32 47 5 2 3 1 1 1 1 1 3 
26 81 122 4 112 187 34 121 182 6 10 12 1 2 4 
4 1 1 19 93 148 1 113 191 3 112 190 31 59 84 
2 4 2 2 0 2 0 1 1 1 0 2 1 1 1 
1 1 0 1 1 4 4 0 1 5 9 12 23 105 163 
2 112 193 7 110 186 21 40 54 1 1 1 2 0 0 
3 2 3 7 13 20 23 110 174 5 112 190 31 60 85 
2 3 4 1 0 2 1 1 2 5 1 2 23 54 79 
7 111 186 15 117 189 17 30 38 1 1 4 1 1 2 
2 0 1 0 0 5 1 2 4 4 2 1 0 0 1 
1 1 0 15 27 36 13 114 187 3 113 194 27 58 82 
0 1 1 1 0 1 0 1 1 0 0 0 0 0 0 
0 0 0 0 0 0 0 0 1 1 1 2 18 31 43 
10 115 188 2 111 192 17 117 188 32 52 68 0 2 2 
2 0 1 2 0 1 0 0 1 0 0 0 0 0 0 
0 0 0 0 0 0 0 0 0 0 0 0 0 0 0 
0 0 0 0 0 0 0 0 1 1 0 0 18 25 31 
25 120 188 1 113 192 1 112 193 4 112 190 21 53 80 
1 0 7 4 0 1 2 0 2 6 11 17 46 105 146 
5 112 188 1 112 193 1 113 196 16 110 180 16 41 64 
4 2 4 2 1 3 2 1 1 4 2 1 28 69 101 
3 113 191 28 106 164 2 4 8 2 1 2 0 0 0 
0 0 0 0 0 0 25 42 55 3 114 189 20 114 185 
17 26 32 0 0 5 3 1 1 0 3 10 52 106 146 
21 32 42 2 1 2 1 1 1 4 3 5 29 73 107 
2 114 193 35 102 151 3 4 9 4 1 1 1 0 3 
14 27 39 48 114 156 0 1 8 3 0 4 0 0 2 
2 1 4 29 107 165 2 115 193 28 69 101 3 1 3 
0 1 2 2 1 3 10 83 137 0 113 193 3 111 190 
46 80 105 3 2 1 2 0 2 2 0 1 1 1 0 
1 1 1 1 0 4 0 1 2 0 0 3 28 52 67 
7 111 186 1 113 192 18 113 181 9 16 23 2 2 1 
0 2 4 3 2 0 28 52 66 6 111 185 31 119 184 
9 14 18 6 3 2 3 0 3 1 0 2 4 3 3 
36 88 129 4 111 194 27 89 136 3 2 6 5 1 1 
0 0 3 1 0 3 4 0 3 50 52 53 3 2 3 
0 0 4 2 0 0 24 58 82 4 111 189 21 115 183 
11 17 20 0 0 0 0 0 0 0 0 0 0 0 0 
0 0 0 0 0 0 2 0 0 1 1 4 4 1 0 
28 49 67 7 113 191 4 110 193 30 95 146 7 2 5 
0 0 1 0 0 0 0 0 0 0 0 0 0 0 0 
0 0 0 0 0 0 0 0 0 0 0 0 0 0 0 
0 0 0 0 0 0 0 0 0 0 1 4 4 3 2 
27 64 92 2 112 193 2 113 192 2 112 194 11 113 186 
21 35 47 3 2 3 5 2 1 16 32 49 34 108 163 
4 112 189 0 114 197 3 113 193 24 111 172 28 51 68 
1 1 3 1 1 3 0 1 0 2 0 1 5 3 5 
27 95 146 5 112 191 31 67 95 4 0 1 0 0 1 
0 0 0 0 0 0 0 0 0 23 68 101 3 113 192 
38 94 137 2 1 2 0 0 3 0 0 1 0 1 2 
20 26 34 1 1 2 0 1 3 1 1 1 3 4 6 
26 101 158 6 111 183 34 61 83 2 0 0 0 1 2 
0 1 2 6 7 13 19 19 22 1 0 2 1 1 2 
2 2 3 14 25 34 15 113 185 18 115 183 18 26 33 
4 0 2 0 1 1 2 3 5 28 77 113 1 113 194 
2 112 191 19 66 106 3 1 1 1 1 1 1 0 3 
0 1 1 3 1 1 5 1 2 2 1 1 0 0 4 
25 76 113 1 113 195 1 113 193 26 103 157 0 2 4 
4 0 1 2 1 5 3 1 2 38 93 131 3 112 193 
33 80 115 0 1 4 1 1 2 2 1 3 1 0 1 
1 4 9 28 112 173 5 113 188 29 52 69 1 1 2 
1 1 2 0 0 3 6 1 2 33 66 96 61 92 121 
4 2 4 4 0 0 1 1 3 24 86 134 4 111 188 
32 85 123 4 1 0 0 0 0 0 0 0 0 0 0 
0 0 0 0 0 0 0 0 0 2 0 0 0 0 3 
0 2 2 34 97 140 2 112 193 1 114 191 29 67 96 
4 2 1 0 0 0 0 0 0 0 0 0 0 0 0 
0 0 0 0 0 0 0 0 0 0 0 0 0 0 0 
0 0 0 0 0 0 0 0 0 0 0 0 2 0 0 
4 4 4 25 107 166 5 112 188 0 114 194 3 111 192 
16 106 172 6 10 15 16 22 28 39 85 117 20 117 184 
2 113 192 1 113 193 3 113 191 34 99 149 20 30 39 
2 3 7 3 0 2 0 1 3 0 1 1 2 1 4 
3 6 12 24 120 187 23 115 182 9 12 20 2 0 1 
0 0 2 0 0 0 0 0 0 0 0 2 25 94 147 
13 115 184 20 37 55 3 2 3 2 0 0 0 0 1 
0 1 1 1 1 0 1 0 0 1 0 1 0 0 0 
7 15 22 18 116 188 24 112 171 6 6 8 0 0 4 
2 0 1 3 0 1 1 0 2 2 2 2 1 0 2 
2 0 3 4 2 4 26 55 76 4 112 191 30 86 126 
2 4 13 3 1 1 0 0 0 2 2 6 33 58 75 
2 112 191 1 113 193 28 102 158 2 3 9 0 1 1 
1 1 3 3 0 1 13 23 37 80 109 131 13 16 22 
5 1 1 32 105 157 2 113 193 2 113 194 14 74 121 
3 1 2 1 1 2 3 1 3 20 28 35 27 122 188 
22 116 184 17 22 27 2 0 2 2 0 0 0 1 1 
1 1 2 21 32 42 8 111 186 26 105 160 5 7 10 
3 0 1 1 1 2 2 0 1 32 61 82 29 118 182 
20 32 43 3 3 4 1 0 2 8 8 11 29 115 179 
13 116 188 16 27 38 0 1 4 0 0 0 0 0 0 
0 0 0 0 0 0 0 0 0 0 0 0 0 1 4 
5 0 1 12 21 31 15 118 192 5 112 190 4 114 189 
17 34 52 3 2 4 0 0 0 0 0 0 0 0 0 
0 0 0 0 0 0 0 0 0 0 0 0 0 0 0 
0 0 0 0 0 0 1 0 1 0 0 1 2 3 4 
4 2 4 27 49 70 11 112 186 0 113 193 2 113 195 
4 112 191 42 119 175 31 76 109 29 121 185 5 112 188 
2 112 193 4 112 191 23 109 169 39 71 94 2 2 8 
1 1 3 0 0 0 0 0 0 0 0 0 2 1 3 
3 1 1 27 45 59 6 112 191 40 90 126 3 2 3 
1 1 4 1 0 2 2 1 4 3 3 3 15 21 26 
22 119 189 31 103 155 8 8 10 2 1 3 0 0 0 
0 0 0 0 0 0 2 1 4 2 1 1 5 2 4 
2 4 6 35 62 81 5 111 188 33 75 105 3 2 2 
2 0 3 0 0 2 2 1 2 1 1 4 1 0 2 
1 1 1 1 0 2 4 3 6 29 83 124 12 113 190 
33 49 63 2 1 3 1 1 2 1 0 0 2 2 4 
6 8 13 41 116 169 2 114 194 10 113 186 27 52 73 
5 4 4 19 28 37 35 86 122 41 120 173 35 55 71 
1 1 5 4 0 1 32 96 144 2 114 194 3 112 192 
29 84 125 1 1 3 3 1 2 6 7 10 35 91 136 
10 113 189 36 69 97 5 2 2 1 1 4 1 0 1 
3 3 5 4 4 3 29 54 83 8 112 188 36 71 99 
2 6 3 9 1 2 5 3 5 26 46 63 19 112 181 
32 96 142 1 1 2 2 1 2 6 2 2 23 40 55 
10 111 180 33 98 145 7 3 4 1 1 2 0 0 0 
0 0 0 1 0 0 1 0 2 1 0 1 4 0 0 
2 1 6 6 3 5 35 84 118 2 112 196 3 112 192 
20 118 188 10 13 18 2 0 4 0 0 0 0 0 0 
0 0 0 0 0 0 0 0 0 0 0 0 0 0 0 
0 0 0 0 0 0 0 0 0 3 0 1 0 1 4 
10 19 31 41 81 110 24 110 172 2 112 191 1 113 192 
2 113 191 2 112 194 3 111 187 2 113 195 2 112 191 
7 111 188 33 110 168 25 63 93 8 11 19 1 3 5 
3 4 2 2 0 1 0 0 0 1 1 1 0 0 1 
1 1 4 12 16 22 27 91 138 6 112 190 40 65 86 
3 2 8 5 1 2 5 1 2 1 2 2 15 18 24 
37 83 115 4 114 189 26 85 134 15 16 18 1 3 1 
0 0 0 0 0 0 0 0 0 3 0 0 3 1 4 
1 2 6 29 38 45 24 97 150 4 112 189 34 66 86 
3 2 4 1 1 3 2 0 0 2 0 1 5 0 1 
2 0 1 2 2 4 1 1 2 23 38 50 21 108 169 
27 122 190 10 17 23 3 1 3 1 2 0 0 0 2 
4 1 2 3 2 2 24 38 49 26 116 182 2 113 194 
29 115 174 26 76 114 24 111 178 18 105 173 23 41 56 
2 2 3 0 1 4 3 0 1 31 61 83 10 113 189 
4 112 192 22 99 160 7 6 12 12 18 29 32 93 135 
8 113 189 50 97 130 5 9 13 3 2 1 1 0 0 
0 1 1 3 2 4 37 48 61 32 110 158 26 121 187 
31 47 63 15 38 52 25 57 85 25 71 102 27 118 179 
7 115 192 23 46 63 1 1 2 0 1 2 7 13 17 
32 78 112 2 112 190 36 86 126 5 3 7 1 2 2 
0 1 0 0 0 0 1 0 0 3 0 0 0 2 6 
2 1 3 5 4 7 30 58 82 23 119 187 3 112 192 
6 111 189 19 94 151 2 2 4 1 1 2 0 0 0 
0 0 0 0 0 0 0 0 0 0 0 0 0 0 0 
0 0 0 0 0 0 0 0 0 0 0 0 12 14 15 
53 101 132 21 116 185 3 113 196 2 113 197 3 112 193 
4 112 190 3 112 193 14 113 186 26 112 174 30 104 160 
29 74 110 23 42 58 5 6 10 2 1 5 0 2 4 
3 0 1 3 1 2 0 1 2 0 0 0 2 2 2 
13 15 17 28 72 103 22 112 172 2 113 192 3 113 192 
14 117 191 28 78 113 14 16 17 2 5 6 33 59 86 
28 108 165 6 110 191 5 111 194 5 113 187 34 110 165 
34 48 65 0 0 0 0 0 0 0 0 0 1 1 5 
14 19 24 29 73 103 19 115 181 7 111 189 3 113 189 
11 112 189 42 98 138 23 27 31 4 1 1 1 1 4 
1 1 7 3 0 1 24 33 43 35 93 136 12 111 184 
2 112 192 3 112 194 25 108 166 30 56 79 6 1 3 
1 1 2 1 1 1 0 1 3 2 3 6 20 33 49 
30 108 165 6 112 191 6 111 189 29 112 174 17 28 38 
1 2 3 3 0 0 1 0 0 2 1 3 3 5 7 
32 79 114 10 115 187 7 113 190 30 102 154 18 109 175 
24 109 171 42 74 98 4 5 10 2 1 0 0 1 1 
2 2 1 15 21 26 31 81 120 17 117 191 5 113 186 
8 113 191 15 112 190 5 113 187 3 111 198 2 114 190 
2 114 191 32 105 159 11 11 19 29 31 35 34 74 106 
31 118 179 2 113 191 2 113 194 7 113 188 35 105 148 
45 58 68 2 2 2 1 1 1 1 0 0 0 2 4 
5 0 0 39 52 66 45 116 166 7 113 187 2 114 191 
2 114 192 3 114 192 12 116 189 49 95 131 14 11 16 
1 0 0 0 0 0 0 0 0 0 0 0 0 0 0 
0 0 0 0 0 0 0 0 0 0 0 0 0 0 0 
4 6 9 10 25 37 4 23 39 6 21 36 4 22 39 
4 22 38 5 21 37 4 22 38 24 33 41 0 3 12 
2 1 1 3 1 1 4 2 1 2 2 2 0 1 2 
3 0 0 1 1 2 1 1 0 2 0 0 0 0 0 
2 2 2 10 11 11 7 23 38 4 25 41 4 22 38 
5 22 42 7 22 36 5 23 39 12 10 12 5 1 2 
13 28 39 5 22 42 6 24 38 3 23 39 6 22 39 
4 22 41 11 20 26 0 0 0 0 0 0 0 0 0 
3 1 1 10 14 19 7 22 36 6 22 40 5 23 40 
5 22 36 4 23 39 7 23 41 11 15 21 2 1 1 
1 0 3 4 0 0 1 0 1 11 18 26 5 24 40 
4 23 39 5 24 39 6 23 37 3 23 44 15 24 33 
1 2 1 1 1 3 2 0 0 1 0 1 3 1 2 
2 1 3 3 4 8 28 55 76 42 92 130 21 31 39 
1 3 3 4 0 0 0 1 4 1 0 1 4 0 0 
1 1 2 2 2 3 36 54 69 26 78 122 8 73 124 
28 64 92 8 15 26 0 1 3 3 2 3 2 0 0 
0 1 3 1 2 1 12 16 21 5 23 40 5 24 37 
6 21 39 3 23 40 4 22 40 5 23 35 4 22 41 
5 22 36 4 22 38 11 21 32 2 1 3 20 24 30 
6 22 38 4 22 37 4 23 39 4 22 37 4 22 38 
6 23 43 21 29 34 2 2 2 0 0 0 1 0 0 
1 0 0 0 1 4 21 30 38 4 23 41 5 23 39 
5 23 37 4 22 40 6 22 38 4 22 38 11 24 35 
6 8 9 0 0 0 0 0 0 0 0 0 0 0 0 
0 0 0 0 0 0 0 0 0 0 0 0 0 0 0 
0 0 0 0 0 0 0 0 0 0 0 0 0 0 0 
0 0 0 0 0 0 0 0 0 0 0 0 0 0 0 
0 0 0 0 0 0 0 0 0 0 0 0 0 0 0 
0 0 0 0 0 0 0 0 0 0 0 0 0 0 0 
0 0 0 0 0 0 0 0 0 0 0 0 0 0 0 
0 0 0 0 0 0 0 0 0 0 0 0 0 0 0 
0 0 0 0 0 0 0 0 0 0 0 0 0 0 0 
0 0 0 0 0 0 0 0 0 0 0 0 0 0 0 
0 0 0 0 0 0 0 0 0 0 0 0 0 0 0 
0 0 0 0 0 0 0 0 0 0 0 0 0 0 0 
0 0 0 0 0 0 0 0 0 0 0 0 0 0 0 
0 0 0 0 0 0 0 0 0 0 0 0 0 0 0 
0 0 0 0 0 0 0 0 0 0 0 0 0 0 0 
0 0 0 0 0 0 0 0 0 0 0 0 0 0 0 
0 0 0 0 0 0 0 0 0 0 0 0 0 0 0 
0 0 0 0 0 0 0 0 0 0 0 0 0 0 0 
0 0 0 0 0 0 0 0 0 0 0 0 0 0 0 
0 0 0 0 0 0 0 0 0 0 0 0 0 0 0 
0 0 0 0 0 0 0 0 0 0 0 0 0 0 0 
0 0 0 0 0 0 0 0 0 0 0 0 0 0 0 
0 0 0 0 0 0 0 0 0 0 0 0 0 0 0 
0 0 0 0 0 0 0 0 0 0 0 0 0 0 0 
0 0 0 0 0 0 0 0 0 0 0 0 0 0 0 
0 0 0 0 0 0 0 0 0 0 0 0 0 0 0 
0 0 0 0 0 0 0 0 0 0 0 0 0 0 0 
0 0 0 0 0 0 0 0 0 0 0 0 0 0 0 
0 0 0 0 0 0 0 0 0 0 0 0 0 0 0 
0 0 0 0 0 0 0 0 0 0 0 0 0 0 0 
0 0 0 0 0 0 0 0 0 0 0 0 0 0 0 
0 0 0 0 0 0 0 0 0 0 0 0 0 0 0 
0 0 0 0 0 0 0 0 0 0 0 0 0 0 0 
0 0 0 0 0 0 0 0 0 0 0 0 0 0 0 
0 0 0 0 0 0 0 0 0 0 0 0 0 0 0 
0 0 0 0 0 0 0 0 0 0 0 0 0 0 0 
0 0 0 0 0 0 0 0 0 0 0 0 0 0 0 
0 0 0 0 0 0 0 0 0 0 0 0 0 0 0 
0 0 0 0 0 0 0 0 0 0 0 0 0 0 0 
0 0 0 0 0 0 0 0 0 0 0 0 0 0 0 
0 0 0 0 0 0 0 0 0 0 0 0 0 0 0 
0 0 0 0 0 0 0 0 0 0 0 0 0 0 0 
0 0 0 0 0 0 0 0 0 0 0 0 0 0 0 
0 0 0 0 0 0 0 0 0 0 0 0 0 0 0 
0 0 0 0 0 0 0 0 0 0 0 0 0 0 0 
0 0 0 0 0 0 0 0 0 0 0 0 0 0 0 
0 0 0 0 0 0 0 0 0 0 0 0 0 0 0 
0 0 0 0 0 0 0 0 0 0 0 0 0 0 0 
0 0 0 0 0 0 0 0 0 0 0 0 0 0 0 
0 0 0 0 0 0 0 0 0 0 0 0 0 0 0 
0 0 0 0 0 0 0 0 0 0 0 0 0 0 0 
0 0 0 0 0 0 0 0 0 0 0 0 0 0 0 
0 0 0 0 0 0 0 0 0 0 0 0 0 0 0 
0 0 0 0 0 0 0 0 0 0 0 0 0 0 0 
0 0 0 0 0 0 0 0 0 0 0 0 0 0 0 
0 0 0 0 0 0 0 0 0 0 0 0 0 0 0 
0 0 0 0 0 0 0 0 0 0 0 0 0 0 0 
0 0 0 0 0 0 0 0 0 0 0 0 0 0 0 
0 0 0 0 0 0 0 0 0 0 0 0 0 0 0 
0 0 0 0 0 0 0 0 0 0 0 0 0 0 0 
0 0 0 0 0 0 0 0 0 0 0 0 0 0 0 
0 0 0 0 0 0 0 0 0 0 0 0 0 0 0 
0 0 0 0 0 0 0 0 0 0 0 0 0 0 0 
0 0 0 0 0 0 0 0 0 0 0 0 0 0 0 
0 0 0 0 0 0 0 0 0 0 0 0 0 0 0 
0 0 0 0 0 0 0 0 0 0 0 0 0 0 0 
0 0 0 0 0 0 0 0 0 0 0 0 0 0 0 
0 0 0 0 0 0 0 0 0 0 0 0 0 0 0 
0 0 0 0 0 0 0 0 0 0 0 0 0 0 0 
0 0 0 0 0 0 0 0 0 0 0 0 0 0 0 
0 0 0 0 0 0 0 0 0 0 0 0 0 0 0 
0 0 0 0 0 0 0 0 0 0 0 0 0 0 0 
0 0 0 0 0 0 0 0 0 0 0 0 0 0 0 
0 0 0 0 0 0 0 0 0 0 0 0 0 0 0 
0 0 0 0 0 0 0 0 0 0 0 0 0 0 0 
0 0 0 0 0 0 0 0 0 0 0 0 0 0 0 
0 0 0 0 0 0 0 0 0 0 0 0 0 0 0 
0 0 0 0 0 0 0 0 0 0 0 0 0 0 0 
0 0 0 0 0 0 0 0 0 0 0 0 0 0 0 
0 0 0 0 0 0 0 0 0 0 0 0 0 0 0 
0 0 0 0 0 0 0 0 0 0 0 0 0 0 0 
0 0 0 0 0 0 0 0 0 0 0 0 0 0 0 
0 0 0 0 0 0 0 0 0 0 0 0 0 0 0 
0 0 0 0 0 0 0 0 0 0 0 0 0 0 0 
0 0 0 0 0 0 0 0 0 0 0 0 0 0 0 
0 0 0 0 0 0 0 0 0 0 0 0 0 0 0 
0 0 0 0 0 0 0 0 0 0 0 0 0 0 0 
0 0 0 0 0 0 0 0 0 0 0 0 0 0 0 
0 0 0 0 0 0 0 0 0 0 0 0 0 0 0 
0 0 0 0 0 0 0 0 0 0 0 0 0 0 0 
0 0 0 0 0 0 0 0 0 0 0 0 0 0 0 
0 0 0 0 0 0 0 0 0 0 0 0 0 0 0 
0 0 0 0 0 0 0 0 0 0 0 0 0 0 0 
0 0 0 0 0 0 0 0 0 0 0 0 0 0 0 
0 0 0 0 0 0 0 0 0 0 0 0 0 0 0 
0 0 0 0 0 0 0 0 0 0 0 0 0 0 0 
0 0 0 0 0 0 0 0 0 0 0 0 0 0 0 
0 0 0 0 0 0 0 0 0 0 0 0 0 0 0 
0 0 0 0 0 0 0 0 0 0 0 0 0 0 0 
0 0 0 0 0 0 0 0 0 0 0 0 0 0 0 
0 0 0 0 0 0 0 0 0 0 0 0 0 0 0 
0 0 0 0 0 0 0 0 0 0 0 0 0 0 0 
0 0 0 0 0 0 0 0 0 0 0 0 0 0 0 
0 0 0 0 0 0 0 0 0 0 0 0 0 0 0 
0 0 0 0 0 0 0 0 0 0 0 0 0 0 0 
0 0 0 0 0 0 0 0 0 0 0 0 0 0 0 
0 0 0 0 0 0 0 0 0 0 0 0 0 0 0 
