P3
# Created by IrfanView
79 30
255
0 0 0 0 0 0 0 0 0 0 0 0 0 0 0 
0 0 0 0 0 0 0 0 0 1 1 1 2 0 0 
0 0 2 0 0 1 0 0 0 0 0 0 0 0 0 
0 0 0 0 0 0 0 0 0 0 0 0 0 0 0 
0 0 0 0 0 0 0 0 0 0 0 0 0 0 0 
0 0 0 0 0 0 1 1 0 1 1 2 1 0 2 
0 0 1 0 0 0 0 0 0 0 0 0 0 0 0 
0 0 0 0 0 0 0 0 0 0 0 0 0 0 0 
0 0 0 0 0 0 0 0 0 0 0 0 0 0 0 
0 0 0 0 0 0 0 0 0 0 0 0 0 0 0 
0 0 0 0 0 0 0 0 0 0 0 0 0 0 0 
0 0 0 0 0 0 0 0 0 0 0 0 0 0 0 
0 0 0 0 0 0 0 0 0 0 0 0 0 0 0 
0 0 0 0 0 0 0 0 0 0 0 0 0 0 0 
0 0 0 0 0 0 0 0 0 0 0 0 0 0 0 
0 0 0 0 0 0 0 0 0 0 0 0 0 0 0 
0 0 0 0 0 0 0 0 0 0 0 0 0 0 0 
0 0 0 0 0 0 0 1 0 0 0 3 0 0 4 
1 1 5 0 1 4 0 1 4 0 1 4 0 1 4 
0 1 4 0 1 4 0 1 4 0 1 4 0 1 4 
0 1 4 0 1 4 0 1 4 0 1 4 0 1 4 
0 1 4 1 1 6 3 0 0 0 2 0 0 0 2 
1 0 0 0 0 0 0 0 0 0 0 0 0 0 0 
0 0 0 0 0 0 0 0 0 0 0 0 0 0 0 
0 0 0 0 0 0 0 0 0 0 0 0 0 0 0 
0 0 0 0 0 0 0 0 0 0 0 0 0 0 0 
0 0 0 0 0 0 0 0 0 0 0 0 0 0 0 
0 0 0 0 0 0 0 0 0 0 0 0 0 0 0 
0 0 0 0 0 0 0 0 0 0 0 0 0 0 0 
0 0 0 0 0 0 0 0 0 0 0 0 0 0 0 
0 0 0 0 0 0 0 0 0 0 0 0 0 0 0 
0 0 0 0 0 0 0 0 0 0 0 0 0 0 0 
0 0 0 0 0 0 0 0 0 0 0 0 0 0 0 
0 0 1 1 0 1 2 1 2 53 83 104 11 88 147 
10 87 149 10 87 149 10 87 149 10 87 149 10 87 149 
10 87 149 10 87 149 10 87 149 10 87 149 10 87 149 
10 87 149 10 87 149 10 87 149 10 86 149 10 86 149 
27 88 135 1 3 6 3 0 4 2 1 1 0 1 0 
0 0 0 0 0 0 0 0 0 0 0 0 0 0 0 
0 0 0 0 0 0 0 0 0 0 0 0 0 0 0 
0 0 0 0 0 0 0 0 0 0 0 0 0 0 0 
0 0 0 0 0 0 0 0 0 0 0 0 0 0 0 
0 0 0 0 0 0 0 0 0 0 0 0 0 0 0 
0 0 0 0 0 0 0 0 0 0 0 0 0 0 0 
0 0 0 0 0 0 0 0 0 0 0 0 0 0 0 
0 0 0 0 0 0 0 0 0 0 0 0 0 0 0 
0 0 0 0 0 0 0 0 0 0 0 0 0 0 0 
0 0 0 0 0 0 0 0 0 0 0 0 0 0 0 
0 0 0 0 0 0 0 0 0 0 0 0 0 0 0 
0 1 1 2 1 1 23 33 42 36 99 146 4 111 189 
1 113 192 2 112 192 2 112 191 2 112 192 2 112 192 
4 112 189 5 111 188 2 112 191 1 112 191 1 112 192 
2 113 192 2 112 192 2 112 193 2 112 192 31 104 161 
4 3 4 2 2 3 2 0 2 1 0 0 0 0 0 
0 0 0 0 0 0 0 0 0 0 0 0 0 0 0 
0 0 0 0 0 0 0 0 0 0 0 0 0 0 0 
0 0 0 0 0 0 0 0 0 0 0 0 0 0 0 
0 0 0 0 0 0 0 0 0 0 0 0 0 0 0 
0 0 0 0 0 0 0 0 0 0 0 0 0 0 0 
0 0 0 0 0 0 0 0 0 0 0 0 0 0 0 
0 0 0 0 0 0 0 0 0 0 0 0 0 0 0 
0 0 0 0 0 0 0 0 0 0 0 0 0 0 0 
0 0 0 0 0 0 0 0 0 0 0 0 0 0 0 
0 0 0 0 0 0 0 0 0 0 0 0 0 0 0 
0 0 0 0 0 0 0 0 0 0 0 0 0 0 0 
0 0 0 0 0 0 9 12 15 29 74 117 1 114 195 
1 112 195 3 113 192 1 113 195 4 111 188 31 81 121 
31 58 80 11 51 81 8 50 84 28 77 113 28 87 132 
6 104 175 2 113 195 3 112 189 35 82 115 3 3 2 
1 1 1 0 0 0 0 0 0 0 0 0 0 0 0 
0 0 0 0 0 0 0 0 0 0 0 0 0 0 0 
0 0 0 0 0 0 0 0 0 0 0 0 0 0 0 
0 0 0 0 0 0 0 0 0 0 0 0 0 0 0 
0 0 0 0 0 0 0 0 0 0 0 0 0 0 0 
0 0 0 0 0 0 0 0 0 0 0 0 0 0 0 
0 0 0 0 0 0 0 0 0 0 0 0 0 0 0 
0 0 0 0 0 0 0 0 0 0 0 0 0 0 0 
0 0 0 0 0 0 0 0 0 0 0 0 0 0 0 
0 0 0 0 0 0 0 0 0 0 0 0 0 0 0 
0 0 0 0 0 0 0 0 0 0 0 0 0 0 0 
0 0 0 0 0 0 0 0 0 0 0 0 0 0 0 
0 0 0 0 1 0 34 65 89 2 113 193 2 112 192 
2 113 195 3 112 192 23 114 180 21 30 37 2 2 1 
1 1 1 1 2 2 1 2 4 1 2 8 34 94 138 
1 114 191 6 114 191 23 41 59 1 1 1 1 1 1 
0 0 0 0 0 0 0 0 0 0 0 0 0 0 0 
0 0 0 0 0 0 0 0 0 0 0 0 0 0 0 
0 0 0 0 0 0 0 0 0 0 0 0 0 0 0 
0 0 0 0 0 0 0 0 0 0 0 0 0 0 0 
0 0 0 0 0 0 0 0 0 0 0 0 0 0 0 
0 0 0 0 0 0 0 0 0 0 0 0 0 0 0 
0 0 0 0 0 0 0 0 0 0 0 0 0 0 0 
0 0 0 0 0 0 0 0 0 0 0 0 0 0 0 
0 0 0 0 0 0 0 0 0 0 0 0 0 0 0 
0 0 0 0 0 0 0 0 0 0 0 0 0 0 0 
0 0 0 0 0 0 0 0 0 0 0 0 0 0 0 
0 0 0 0 0 0 0 0 0 0 0 0 0 0 0 
1 1 1 24 93 142 2 112 192 0 114 195 3 112 191 
5 112 188 39 95 135 4 2 3 1 1 4 0 0 1 
0 0 1 0 0 1 5 0 1 28 68 100 2 114 190 
28 118 182 7 9 13 0 0 0 0 0 0 0 0 0 
0 0 0 0 0 0 0 0 0 0 0 0 0 0 0 
0 0 0 0 0 0 0 0 0 0 0 0 0 0 0 
0 0 0 0 0 0 0 0 0 0 0 0 0 0 0 
0 0 0 0 0 0 0 0 0 0 0 0 0 0 0 
0 0 0 0 0 0 0 0 0 0 0 0 0 0 0 
0 0 0 0 0 0 0 0 0 0 0 0 0 0 0 
0 0 0 0 0 0 0 0 0 0 0 0 0 0 0 
0 0 0 0 0 0 0 0 0 0 0 0 0 0 0 
0 0 0 0 0 0 0 0 0 0 0 0 0 0 0 
0 0 0 0 0 0 0 0 0 0 0 0 0 0 0 
0 0 0 0 0 0 0 0 0 0 0 0 0 0 0 
0 0 0 0 0 0 1 0 0 0 0 1 7 10 17 
23 113 173 1 113 197 2 113 189 2 112 194 10 113 188 
28 43 55 4 1 2 1 1 3 0 0 2 1 0 2 
1 0 2 4 1 1 24 40 56 8 110 183 32 95 143 
0 1 4 0 0 0 0 0 0 0 0 0 0 0 0 
0 0 2 1 0 0 1 0 0 0 1 0 0 0 0 
0 0 0 0 0 0 0 0 0 0 1 1 1 0 0 
1 0 0 0 0 0 0 0 0 0 0 0 0 0 0 
0 0 0 0 0 1 0 0 0 1 0 0 0 0 1 
0 1 1 0 0 0 1 0 0 1 0 1 0 1 1 
1 0 1 2 0 1 1 0 0 0 0 1 1 0 0 
1 0 0 0 0 0 0 0 1 0 0 1 1 0 0 
2 0 0 1 0 0 1 1 0 1 0 0 0 0 0 
0 0 0 0 0 0 0 0 0 0 1 1 1 0 0 
1 0 0 0 0 0 0 0 0 0 0 0 0 0 0 
0 0 0 0 0 0 0 0 0 0 0 0 1 0 0 
1 0 5 4 0 1 1 2 4 27 47 62 7 111 187 
0 113 194 2 112 189 0 113 194 44 113 161 1 3 5 
2 0 0 0 0 3 2 1 3 3 1 3 3 3 6 
28 29 33 2 3 7 33 117 173 29 64 93 3 0 1 
0 0 0 0 0 0 0 0 0 1 0 2 3 0 3 
14 15 18 9 19 30 5 16 35 4 16 33 4 17 31 
4 16 34 8 18 29 7 9 10 3 0 1 1 1 2 
0 1 1 0 1 0 0 0 0 1 0 0 1 1 1 
1 1 2 2 2 2 2 3 5 9 12 16 22 37 50 
17 50 78 36 88 127 7 71 122 33 80 111 4 2 4 
13 18 24 5 17 33 4 17 32 7 17 29 4 17 33 
5 17 33 5 19 31 5 18 31 10 18 27 3 1 7 
3 1 1 8 16 22 5 18 36 3 17 33 4 17 31 
5 16 31 5 17 32 17 23 26 3 1 1 1 0 2 
0 1 1 0 0 0 0 0 0 0 0 0 0 0 0 
0 0 0 0 0 0 0 0 0 0 0 0 0 0 1 
3 0 0 2 2 3 31 71 105 1 113 194 0 113 194 
1 113 192 4 112 191 28 54 74 0 1 3 1 0 2 
0 0 2 4 0 1 1 2 3 42 71 92 66 114 150 
3 3 5 77 95 111 24 30 38 2 1 1 0 0 0 
0 0 0 0 0 0 0 0 1 1 0 1 49 57 65 
38 111 166 5 111 190 3 112 192 3 113 191 10 112 179 
36 104 149 24 29 42 2 1 0 2 1 2 1 0 0 
0 0 0 0 0 0 0 0 1 2 2 4 3 1 5 
30 49 65 30 90 130 25 112 172 6 113 192 4 112 190 
3 113 189 2 113 190 27 87 142 4 2 3 51 84 103 
12 111 185 4 111 187 2 114 195 6 111 187 3 113 194 
5 111 191 24 111 172 47 73 94 2 1 0 1 1 1 
26 64 103 6 111 185 4 112 187 3 113 191 5 112 187 
30 114 169 65 85 107 3 1 1 0 2 1 2 0 1 
0 0 0 0 0 0 0 0 0 0 0 0 0 0 0 
0 0 0 0 0 0 0 0 0 0 0 0 2 1 1 
2 4 6 39 111 165 2 112 189 0 113 192 1 113 196 
31 116 177 15 18 20 2 1 4 1 1 2 0 1 3 
2 2 6 29 50 66 17 111 179 28 88 131 2 4 5 
4 0 1 2 0 0 0 0 0 0 0 0 0 0 0 
0 0 0 1 0 1 2 0 0 2 2 4 14 21 29 
39 104 145 2 114 187 8 111 184 32 54 78 6 6 9 
1 0 3 0 1 2 2 0 1 1 0 0 0 0 0 
2 2 2 1 2 2 20 29 35 31 95 140 9 114 188 
5 111 190 17 118 188 30 97 147 44 94 132 6 111 187 
4 111 197 28 71 108 1 1 3 4 1 4 33 65 92 
8 112 185 0 114 194 2 113 187 2 113 194 38 98 140 
15 24 33 2 2 4 1 2 4 3 1 1 14 19 27 
42 127 183 3 113 195 20 108 173 33 70 99 7 12 19 
1 0 3 0 0 2 2 1 1 1 0 1 0 0 0 
0 0 0 0 0 0 0 0 0 0 0 0 0 0 0 
0 0 0 0 0 1 1 0 1 0 1 5 17 24 30 
16 113 184 0 113 192 0 114 195 6 111 187 36 79 110 
2 2 6 2 0 3 3 0 1 1 1 2 17 27 34 
20 106 169 7 111 188 21 39 59 3 2 4 1 1 1 
1 0 1 1 0 0 0 0 0 0 0 0 0 0 0 
0 0 1 0 0 3 5 1 1 20 30 39 23 108 168 
1 112 198 14 108 179 11 16 26 0 1 4 1 1 0 
1 0 3 1 1 3 1 0 2 1 0 0 1 1 2 
12 23 32 25 108 165 4 114 189 10 115 187 38 97 135 
26 40 50 6 1 4 8 11 19 23 110 172 4 112 186 
26 52 73 1 1 2 2 1 1 1 3 11 34 116 175 
0 113 194 0 113 194 3 112 192 22 45 62 1 2 4 
3 1 1 1 1 3 7 7 9 51 105 139 9 111 188 
28 117 181 30 51 68 8 1 1 1 1 6 0 1 1 
1 0 1 0 0 3 0 0 1 0 0 0 0 0 0 
0 0 0 0 0 0 0 0 0 0 0 0 0 0 0 
0 0 1 4 0 1 1 1 6 25 49 69 3 111 191 
3 112 190 1 114 193 9 112 186 37 69 93 33 67 91 
10 53 88 9 53 91 9 52 89 24 100 156 5 112 188 
19 106 170 3 6 10 0 0 0 0 0 0 0 0 0 
0 0 0 0 0 0 0 0 0 0 0 0 1 0 0 
0 0 2 8 10 14 33 97 145 2 113 191 1 113 193 
9 111 184 38 52 64 0 0 0 0 0 0 0 0 0 
0 0 0 1 0 2 2 0 1 7 10 17 39 110 163 
4 112 192 7 111 189 34 68 100 1 2 5 1 0 3 
4 0 1 2 3 5 27 89 132 16 118 190 16 24 34 
2 0 4 2 1 1 2 3 3 27 94 144 1 112 193 
1 112 193 1 112 195 6 26 44 1 1 3 1 2 2 
3 2 3 28 73 107 8 111 187 16 115 185 25 51 77 
5 1 2 0 0 3 0 0 0 0 0 0 0 0 0 
0 0 0 0 0 0 0 0 0 0 0 0 0 0 0 
0 0 0 0 0 0 0 0 0 0 0 0 0 0 0 
0 0 2 2 1 0 33 87 125 1 112 195 0 113 195 
2 112 190 2 113 194 4 111 190 3 112 193 5 111 190 
4 112 192 2 112 193 1 113 196 4 112 190 38 97 140 
0 1 1 0 0 0 0 0 0 0 0 0 0 0 0 
0 0 0 0 0 0 0 0 0 1 1 1 0 1 1 
36 79 111 4 113 190 0 113 196 2 113 188 3 111 191 
11 32 52 0 0 0 0 0 0 0 0 0 0 0 0 
2 0 0 0 0 6 30 58 83 3 112 191 1 115 194 
26 105 162 5 5 6 2 2 4 1 0 1 1 0 1 
4 2 3 45 72 91 45 116 167 6 4 8 2 0 0 
0 0 4 2 1 4 22 61 94 3 112 191 0 114 193 
2 113 191 6 25 46 4 1 1 2 2 5 22 60 87 
6 114 192 11 115 189 44 83 110 5 3 3 4 0 1 
0 1 4 2 0 0 0 0 0 0 0 0 0 0 0 
0 0 0 0 0 0 0 0 0 0 0 0 0 0 0 
0 0 0 0 0 0 0 0 0 0 0 0 0 0 1 
0 2 4 28 114 174 1 112 194 1 113 190 8 112 183 
34 106 154 5 87 149 6 86 145 34 120 180 22 117 184 
8 111 183 1 113 191 4 113 191 40 64 84 3 1 1 
0 0 0 0 0 0 0 0 0 0 0 0 0 0 0 
0 0 0 0 0 0 0 2 4 33 53 69 11 111 178 
4 112 191 17 120 188 1 114 194 1 113 198 6 27 46 
0 0 0 0 0 0 0 0 0 0 0 0 0 1 6 
2 1 4 22 76 121 2 114 194 4 111 190 17 103 173 
15 19 27 2 1 4 0 0 1 1 0 1 3 2 3 
12 9 12 54 61 64 0 2 2 3 0 2 0 1 2 
3 2 3 27 47 61 6 111 188 3 114 195 8 112 188 
22 42 55 3 3 6 30 65 98 10 112 189 6 111 186 
39 90 124 4 2 3 2 0 0 0 0 3 1 1 2 
3 0 0 0 0 0 0 0 0 0 0 0 0 0 0 
0 0 0 0 0 0 0 0 0 0 0 0 0 0 0 
0 0 0 0 0 0 0 0 1 2 1 2 17 29 39 
9 112 187 3 111 192 3 113 190 46 119 174 3 3 6 
2 1 3 3 2 3 1 2 3 1 4 11 17 61 98 
1 113 193 25 115 180 9 11 14 0 2 5 0 0 0 
0 0 1 0 0 1 1 0 0 0 0 2 0 0 0 
0 1 1 22 28 35 21 107 169 2 112 196 20 117 184 
48 95 132 7 110 184 1 114 195 6 27 46 0 0 1 
0 0 0 0 0 0 0 0 0 2 0 2 3 1 2 
9 75 125 3 111 192 2 113 192 4 112 186 35 110 163 
17 26 32 2 0 3 3 1 1 2 2 5 3 1 2 
2 1 1 3 1 1 0 1 1 1 0 3 2 1 1 
12 16 22 20 114 184 2 113 194 13 110 181 23 29 39 
36 70 99 15 115 186 3 113 192 40 99 148 7 10 16 
0 1 2 0 0 0 0 0 0 0 0 0 0 0 1 
0 0 0 0 0 0 0 0 0 0 0 0 0 0 0 
0 0 0 0 0 0 0 0 0 0 0 0 0 0 0 
0 0 0 0 0 0 3 3 2 22 53 80 1 113 191 
3 113 194 5 113 188 29 55 77 1 1 0 3 0 1 
0 0 0 0 0 0 0 0 0 32 61 83 4 112 192 
31 91 135 4 3 4 0 2 4 0 0 1 0 0 2 
0 0 2 1 0 1 1 1 2 3 2 1 7 11 15 
36 98 143 4 112 191 10 114 189 39 71 95 16 57 92 
5 112 187 1 113 194 20 45 64 0 0 0 0 0 0 
0 0 0 0 0 0 1 1 2 1 0 1 29 72 107 
2 113 194 1 112 196 1 113 192 2 113 191 18 112 177 
41 73 99 3 4 5 2 0 4 2 1 0 0 0 0 
0 0 0 0 0 0 0 0 1 1 0 0 0 1 2 
24 94 152 1 112 194 9 109 174 37 74 107 13 117 187 
3 112 187 42 115 166 8 15 24 1 1 0 1 0 2 
0 0 0 0 0 0 0 0 0 0 0 0 0 0 0 
0 0 0 0 0 0 0 0 0 0 0 0 0 0 0 
0 0 0 0 0 0 0 0 0 0 0 0 0 0 0 
1 0 0 2 2 3 29 94 137 1 113 190 1 111 197 
29 116 175 12 15 16 1 0 1 1 0 1 0 0 0 
0 0 0 0 0 0 6 19 33 11 110 180 27 58 82 
4 5 10 11 10 10 0 1 2 0 0 1 0 0 0 
0 1 1 3 1 1 4 1 3 38 79 110 5 112 191 
5 113 194 45 92 125 2 2 3 33 97 141 2 113 191 
2 112 190 41 76 105 0 0 1 0 0 0 0 0 0 
0 0 0 1 2 3 4 0 2 11 16 27 42 115 160 
2 113 189 1 114 192 4 112 190 4 111 196 9 111 184 
42 96 138 12 16 24 2 0 2 0 0 0 0 0 0 
0 0 0 0 0 0 0 0 0 1 1 2 33 81 120 
3 112 192 4 114 187 14 117 192 1 114 194 20 105 170 
18 27 37 3 1 1 3 0 1 0 0 1 0 0 0 
0 0 0 0 0 0 0 0 0 0 0 0 0 0 0 
0 0 0 0 0 0 0 0 0 0 0 0 0 0 0 
0 0 0 0 0 0 0 0 0 0 0 0 1 0 0 
4 7 14 25 117 178 0 113 193 1 113 189 41 81 114 
2 3 1 0 0 3 0 1 2 0 0 0 0 0 0 
0 0 0 19 24 29 95 151 186 9 11 16 40 71 99 
92 133 161 1 2 4 2 1 2 0 0 0 1 2 2 
3 3 5 30 53 72 14 110 183 5 112 188 37 98 145 
4 6 12 3 2 5 31 111 167 0 113 193 2 112 192 
14 56 89 0 1 0 0 0 0 0 0 0 0 0 0 
2 0 0 1 0 4 2 2 3 6 10 16 42 93 135 
10 114 192 1 113 191 1 114 192 0 114 195 3 112 194 
44 99 140 4 2 5 0 0 0 0 0 0 0 0 0 
0 0 0 1 0 1 1 0 0 28 54 76 6 111 186 
3 112 192 1 113 200 25 117 183 35 52 67 0 0 3 
0 0 3 0 1 4 3 0 0 0 0 0 0 0 0 
0 0 0 0 0 0 0 0 0 0 0 0 0 0 0 
0 0 0 0 0 0 0 0 0 0 0 0 0 0 0 
0 0 0 0 0 0 0 0 0 0 0 0 27 45 58 
9 113 186 1 112 194 17 117 182 20 27 34 1 2 3 
3 0 1 0 0 1 0 0 1 1 0 0 1 0 0 
2 1 0 3 2 3 21 41 59 21 115 187 39 75 102 
2 2 3 0 0 2 1 0 0 1 1 6 20 26 31 
24 108 168 2 112 193 9 116 195 39 93 134 23 57 87 
7 39 71 13 109 176 1 113 194 1 113 195 10 55 93 
0 0 0 0 0 3 0 1 2 0 2 1 2 1 2 
2 1 1 2 2 3 1 1 2 3 2 4 34 61 80 
22 107 166 2 112 194 1 113 193 3 111 193 18 112 182 
19 25 34 0 0 0 0 0 0 0 0 0 0 0 0 
0 0 0 2 1 1 28 48 63 6 112 189 0 114 194 
6 111 186 18 50 74 1 2 5 0 0 2 2 0 0 
1 0 1 0 0 0 0 0 0 0 0 0 0 0 0 
0 0 0 0 0 0 0 0 0 0 0 0 0 0 0 
0 0 0 0 0 0 0 0 0 0 0 0 0 0 0 
0 0 0 0 0 0 0 0 0 30 71 104 3 113 191 
4 112 189 29 85 128 2 2 2 1 1 1 0 0 0 
0 0 1 0 0 1 0 1 1 1 1 3 0 1 3 
24 36 44 28 116 176 27 122 189 13 19 26 1 1 4 
1 0 0 0 0 0 4 5 9 36 100 143 4 112 192 
6 111 191 1 113 192 5 111 190 2 114 193 3 113 191 
2 112 192 1 113 194 2 112 193 10 54 95 2 0 0 
0 1 3 4 1 1 21 21 25 5 6 9 3 2 2 
1 1 3 1 0 2 2 0 3 1 1 0 22 29 41 
30 117 176 3 112 192 4 112 192 15 114 188 21 27 30 
0 0 0 0 0 0 0 0 0 0 0 0 0 0 1 
1 1 2 32 87 127 2 113 193 0 113 195 13 111 183 
20 31 41 2 1 1 0 0 0 0 0 0 0 0 0 
0 0 0 0 0 0 0 0 0 0 0 0 0 0 0 
0 0 0 0 0 0 0 0 0 0 0 0 0 0 0 
0 0 0 0 0 0 0 0 0 0 0 0 0 0 0 
0 0 0 0 1 3 24 96 148 3 112 191 11 115 190 
25 39 52 1 1 1 1 1 1 0 0 0 0 1 0 
1 1 1 0 1 3 1 2 1 16 19 24 30 105 158 
2 112 193 34 88 126 1 1 1 1 0 5 3 0 1 
1 2 3 38 77 105 5 112 188 15 111 182 30 65 98 
45 110 161 36 107 156 24 63 98 36 73 107 2 112 191 
0 113 193 2 112 189 24 75 117 0 1 0 2 0 1 
1 2 10 47 114 165 35 68 94 4 3 2 1 0 1 
2 0 2 0 2 2 1 0 7 2 2 5 24 86 129 
3 112 191 1 113 198 30 106 161 1 2 4 0 0 0 
0 0 0 0 0 0 1 0 0 2 0 2 19 29 38 
17 116 185 1 113 191 1 113 194 28 110 172 1 2 3 
1 1 2 0 0 0 0 0 0 0 0 0 0 0 0 
0 0 0 0 0 0 0 0 0 0 0 0 0 0 0 
0 0 0 0 0 0 0 0 0 0 0 0 0 0 0 
0 0 0 0 0 0 0 0 0 0 0 0 2 2 2 
16 24 31 20 114 178 2 112 189 31 103 156 2 3 6 
0 0 0 0 0 0 0 0 0 0 1 0 0 1 2 
2 0 0 4 8 13 37 90 130 4 112 189 19 116 189 
17 28 38 1 2 3 3 0 0 1 1 3 30 50 68 
15 112 179 12 112 189 40 70 95 3 2 3 5 2 2 
3 1 7 2 2 3 14 53 90 1 112 193 0 113 193 
1 113 191 32 99 150 2 0 1 1 0 1 1 4 5 
8 95 157 33 110 166 4 8 12 1 1 2 1 0 1 
4 1 4 3 4 2 34 49 68 17 115 184 1 113 195 
11 113 185 32 60 82 1 3 6 0 0 0 0 0 0 
0 0 0 1 0 0 4 2 3 29 74 108 3 112 188 
1 114 193 2 112 192 35 90 131 0 0 0 0 0 0 
0 0 0 0 0 0 0 0 0 0 0 0 0 0 0 
0 0 0 0 0 0 0 0 0 0 0 0 0 0 0 
0 0 0 0 0 0 1 0 1 0 0 3 0 1 0 
0 0 2 2 0 0 0 1 2 5 8 11 35 72 97 
2 113 194 5 112 187 26 55 82 3 2 4 1 1 3 
1 3 9 19 29 39 5 18 35 34 63 80 9 45 72 
23 77 120 9 113 186 3 112 192 31 96 147 3 4 9 
3 1 4 2 0 4 15 23 32 31 109 166 5 114 190 
39 84 119 3 3 6 0 2 6 3 1 2 2 3 5 
4 2 1 28 87 129 2 113 191 1 113 192 1 113 194 
7 82 139 1 2 1 1 1 2 13 14 17 24 118 186 
7 112 189 28 50 69 3 2 4 2 1 5 15 23 32 
36 83 114 11 113 187 3 112 191 8 111 184 49 102 137 
6 8 8 2 1 1 2 0 0 1 0 0 1 0 1 
1 1 2 14 21 27 26 114 175 1 113 193 1 113 195 
2 112 191 32 63 86 2 1 3 1 1 3 0 0 0 
0 0 0 0 0 0 0 0 0 0 0 0 0 0 0 
0 0 0 0 0 0 0 0 0 0 0 0 0 0 0 
0 0 0 0 0 3 2 0 1 1 0 3 0 0 3 
3 7 14 27 53 75 30 105 159 9 112 187 4 111 190 
17 119 192 18 82 130 21 88 133 25 110 171 10 100 167 
18 118 189 9 110 185 6 111 184 2 113 192 0 113 193 
1 113 193 4 111 191 29 52 72 4 2 1 3 3 4 
32 39 46 37 99 147 3 113 195 34 101 155 7 8 14 
2 2 2 3 1 0 3 1 1 3 2 4 8 16 28 
15 96 159 1 113 194 2 113 190 3 112 190 15 100 165 
7 9 14 3 3 8 5 14 29 11 112 184 2 113 193 
38 110 163 18 51 76 35 91 136 20 115 182 7 110 188 
3 113 189 18 110 179 40 80 111 7 8 10 1 0 0 
0 0 1 1 1 1 1 1 4 2 2 7 19 30 41 
41 97 140 6 112 189 1 113 192 2 112 192 9 112 187 
24 44 61 3 3 6 5 1 1 0 0 0 0 0 0 
0 0 0 0 0 0 0 0 0 0 0 0 0 0 0 
0 0 0 0 0 0 0 0 0 0 0 0 0 0 0 
1 1 2 2 1 0 16 13 18 21 51 73 29 103 158 
7 113 190 3 113 190 0 114 195 0 115 192 0 114 193 
2 112 192 0 114 199 0 113 193 1 113 192 2 113 191 
1 113 192 0 113 196 2 112 191 1 113 191 1 114 193 
29 105 158 7 7 11 29 38 45 49 102 136 26 117 183 
2 113 193 3 112 187 13 116 189 42 88 128 11 17 21 
1 2 0 22 27 34 50 97 131 28 116 179 5 112 186 
3 113 188 0 114 197 4 112 189 3 113 194 42 113 161 
21 27 33 4 13 25 10 111 183 3 113 193 4 112 190 
8 111 184 4 112 192 6 111 188 26 117 180 35 80 117 
17 25 38 5 1 3 5 1 1 0 0 3 0 0 0 
3 1 2 29 31 35 50 98 129 16 114 185 2 113 195 
1 114 194 2 112 190 1 112 196 5 112 191 44 116 167 
31 45 55 1 2 2 0 0 0 0 0 0 0 0 0 
0 0 0 0 0 0 0 0 0 0 0 0 0 0 0 
0 0 0 0 0 0 0 0 0 0 0 0 2 0 1 
1 1 1 37 41 45 24 69 102 6 63 107 6 63 107 
6 64 107 6 63 106 7 61 111 7 62 108 6 64 106 
5 64 104 6 63 106 5 63 109 5 64 110 5 63 109 
7 62 105 7 62 105 7 62 107 8 63 107 28 52 68 
1 3 7 58 71 83 8 62 108 5 63 111 6 63 107 
5 63 110 6 63 110 9 65 100 34 44 55 3 0 3 
35 57 72 9 63 106 7 63 110 6 63 109 6 63 110 
5 63 111 7 63 107 5 64 112 5 66 111 29 45 56 
41 53 62 14 113 181 24 119 187 15 92 151 34 96 144 
34 78 107 29 47 59 9 10 17 3 3 3 4 1 2 
1 0 2 0 1 4 0 1 3 0 1 1 3 2 6 
55 72 85 6 63 106 5 64 106 5 64 106 7 63 105 
7 63 106 5 64 109 5 64 108 8 63 104 35 60 82 
3 2 2 0 0 0 0 0 0 0 0 0 0 0 0 
0 0 0 0 0 0 0 0 0 0 0 0 0 0 0 
0 0 0 0 0 0 0 0 0 1 0 3 2 0 0 
0 3 3 1 2 4 0 0 3 0 0 4 1 0 0 
0 0 0 1 0 0 0 0 1 0 0 3 2 0 0 
0 0 0 0 0 0 0 0 0 0 0 0 0 1 2 
0 1 3 0 0 1 1 0 2 1 2 5 2 2 2 
5 1 1 0 1 4 2 0 0 2 0 1 0 0 2 
3 0 1 0 1 10 1 1 1 0 1 2 2 1 2 
1 1 1 0 1 4 2 0 1 1 0 1 1 0 0 
1 0 1 2 0 0 2 1 0 2 1 2 4 5 7 
2 8 16 6 11 16 2 2 4 0 1 4 2 2 1 
2 1 2 1 2 4 2 1 2 1 1 1 0 0 0 
1 0 0 2 0 0 0 1 1 1 2 0 4 1 0 
1 1 3 1 0 2 0 0 0 0 0 2 0 0 3 
4 0 0 1 0 1 2 1 0 2 1 3 3 0 0 
0 0 0 0 0 0 0 0 0 0 0 0 0 0 0 
0 0 0 0 0 0 0 0 0 0 0 0 0 0 0 
0 0 0 0 0 0 0 0 0 0 0 0 0 0 0 
0 0 0 0 0 0 0 0 0 0 0 0 0 0 0 
0 0 0 0 0 0 0 0 0 0 0 0 0 0 0 
0 0 0 0 0 0 0 0 0 0 0 0 0 0 0 
0 0 0 0 0 0 0 0 0 0 0 0 0 0 0 
0 0 0 0 0 0 0 0 0 0 0 0 0 0 0 
0 0 0 0 0 0 0 0 0 0 0 0 0 0 0 
0 0 0 0 0 0 0 0 0 0 0 0 0 0 0 
0 0 0 0 0 0 0 0 0 0 0 0 0 0 0 
0 0 0 0 0 0 0 0 0 0 0 0 0 0 0 
0 0 0 0 0 0 0 0 0 0 0 0 0 0 0 
0 0 0 0 0 0 0 0 0 0 0 0 0 0 0 
0 0 0 0 0 0 0 0 0 0 0 0 0 0 0 
0 0 0 0 0 0 0 0 0 0 0 0 0 0 0 
0 0 0 0 0 0 0 0 0 0 0 0 0 0 0 
0 0 0 0 0 0 0 0 0 0 0 0 0 0 0 
0 0 0 0 0 0 0 0 0 0 0 0 0 0 0 
0 0 0 0 0 0 0 0 0 0 0 0 0 0 0 
0 0 0 0 0 0 0 0 0 0 0 0 0 0 0 
0 0 0 0 0 0 0 0 0 0 0 0 0 0 0 
0 0 0 0 0 0 0 0 0 0 0 0 0 0 0 
0 0 0 0 0 0 0 0 0 0 0 0 0 0 0 
0 0 0 0 0 0 0 0 0 0 0 0 0 0 0 
0 0 0 0 0 0 0 0 0 0 0 0 0 0 0 
0 0 0 0 0 0 0 0 0 0 0 0 0 0 0 
0 0 0 0 0 0 0 0 0 0 0 0 0 0 0 
0 0 0 0 0 0 0 0 0 0 0 0 0 0 0 
0 0 0 0 0 0 0 0 0 0 0 0 0 0 0 
0 0 0 0 0 0 0 0 0 0 0 0 0 0 0 
0 0 0 0 0 0 0 0 0 0 0 0 0 0 0 
0 0 0 0 0 0 0 0 0 0 0 0 0 0 0 
0 0 0 0 0 0 0 0 0 0 0 0 0 0 0 
