P3
# Created by IrfanView
30 30
255
37 177 78 37 177 78 37 177 78 37 177 78 37 177 78 
37 177 78 37 177 78 37 177 78 37 177 78 38 176 78 
39 177 71 48 177 66 53 180 65 40 177 74 39 176 72 
118 206 50 149 219 51 52 177 66 36 178 78 36 178 75 
36 177 79 36 177 79 37 177 79 36 177 79 37 177 78 
37 177 79 37 177 78 37 177 78 37 177 78 37 177 78 
37 177 78 37 177 78 37 177 78 37 177 78 37 177 78 
37 177 78 37 177 78 37 177 78 37 177 78 37 177 78 
73 189 64 169 231 48 166 229 42 111 204 56 85 189 52 
169 229 39 178 231 30 140 217 51 48 178 65 37 178 74 
37 177 78 38 177 78 39 176 76 39 177 75 39 177 76 
37 177 79 37 177 78 37 177 78 37 177 78 37 177 78 
37 177 78 37 177 78 37 177 78 37 177 78 37 177 78 
37 177 78 37 177 78 37 177 78 37 177 78 38 177 77 
66 187 66 176 230 38 179 230 29 181 230 28 179 229 37 
183 227 36 187 223 48 188 222 55 152 212 65 82 190 58 
69 186 61 93 198 55 131 213 48 128 213 52 46 179 68 
37 177 77 37 177 78 37 177 78 37 177 78 37 177 78 
37 177 78 37 177 78 37 177 78 37 177 78 37 177 78 
37 177 78 37 177 78 37 178 77 42 176 71 43 176 65 
62 174 54 172 232 41 182 229 29 183 225 45 179 182 85 
165 113 129 159 93 134 155 83 137 158 94 132 167 144 104 
182 211 67 178 229 37 179 230 29 178 230 34 87 195 62 
37 177 77 37 177 78 37 177 78 37 177 78 37 177 78 
37 177 78 37 177 78 37 177 78 37 177 78 37 177 78 
37 177 78 38 176 78 53 184 72 135 218 57 175 230 41 
163 226 41 179 230 34 189 219 62 175 142 129 159 76 156 
163 73 162 164 73 162 164 72 162 164 73 162 163 73 162 
161 76 152 170 137 108 183 215 45 168 228 44 70 186 64 
37 177 79 37 177 78 37 177 78 37 177 78 37 177 78 
37 177 78 37 177 78 37 177 78 37 177 78 37 177 78 
37 177 78 36 178 78 47 178 72 97 199 50 180 229 33 
182 227 35 184 201 81 164 101 138 162 74 159 165 71 163 
162 73 165 163 73 163 162 73 162 163 72 164 163 73 164 
163 73 164 163 72 164 163 94 143 188 207 155 65 180 97 
38 177 76 37 177 78 37 177 78 37 177 78 37 177 78 
37 177 78 37 177 78 37 177 78 38 177 78 37 177 77 
38 177 76 39 177 75 68 187 65 121 206 44 183 227 38 
182 184 94 163 93 151 164 72 164 162 73 163 163 73 164 
164 73 163 164 73 163 163 73 163 164 73 163 164 73 162 
163 73 162 163 73 162 161 74 162 152 91 155 49 169 86 
37 177 79 37 177 79 37 177 79 37 177 78 37 177 78 
37 177 78 37 177 78 37 177 78 37 177 77 41 177 71 
101 206 64 105 202 51 168 228 41 183 229 29 182 204 72 
159 84 146 163 73 163 162 73 163 163 73 163 163 73 163 
163 73 163 163 73 163 163 73 163 163 73 163 163 73 163 
163 73 163 163 73 163 163 73 162 163 73 162 103 123 122 
39 176 78 39 177 77 39 177 77 37 177 78 37 177 78 
37 177 78 37 177 78 37 177 78 34 179 77 40 176 74 
87 194 58 160 223 43 178 232 27 182 228 33 173 151 103 
161 74 162 165 72 161 162 73 164 163 73 163 163 73 163 
163 73 163 163 73 163 163 73 163 163 73 163 163 73 163 
163 73 163 163 73 163 164 72 164 164 72 162 151 81 158 
59 161 94 35 178 78 38 177 77 37 177 79 37 177 78 
37 177 78 37 177 78 37 177 78 38 177 77 38 177 77 
39 177 68 141 215 41 181 229 31 182 212 60 159 85 139 
162 74 160 163 73 163 164 72 166 163 73 162 164 73 162 
164 73 163 163 73 163 163 73 163 163 73 163 163 73 163 
163 73 163 163 73 163 163 73 163 164 72 163 163 73 162 
129 99 140 51 168 86 37 177 78 37 177 79 37 177 78 
37 177 78 37 177 78 37 177 78 36 177 79 37 178 77 
93 198 59 178 230 34 184 226 37 167 132 107 162 74 162 
165 71 166 163 73 163 163 73 162 164 73 162 165 71 165 
163 72 163 163 73 163 163 73 163 163 73 163 163 73 163 
163 73 163 163 73 163 164 73 164 161 74 162 165 71 165 
164 72 163 135 115 128 44 179 72 38 177 79 37 177 78 
37 177 78 37 177 78 37 177 78 37 178 76 37 177 78 
118 206 49 178 230 32 177 177 77 160 76 156 164 72 163 
162 73 162 164 95 134 177 161 101 164 111 126 162 73 161 
163 73 162 163 73 163 163 73 163 163 73 163 163 73 163 
163 73 163 163 73 163 164 72 164 164 72 162 162 73 163 
162 94 140 176 193 61 90 197 62 37 177 79 37 177 78 
37 177 78 37 177 78 37 177 78 36 178 79 40 176 77 
107 203 52 180 228 35 166 118 119 164 72 162 162 73 163 
160 83 145 183 204 67 186 226 56 190 222 70 177 176 79 
163 107 126 163 73 162 163 73 163 163 73 164 163 73 162 
163 73 163 163 73 163 163 73 162 160 82 150 171 144 103 
181 216 45 180 224 34 74 191 67 37 177 78 37 177 78 
37 177 78 37 177 78 37 177 78 38 177 78 38 177 73 
119 205 47 182 227 39 164 107 127 162 73 164 162 74 161 
160 96 139 185 224 48 224 242 164 253 254 247 227 242 174 
193 226 68 175 184 67 174 164 84 173 163 87 173 164 86 
173 163 86 173 163 85 174 175 76 181 209 51 179 225 34 
178 224 36 160 217 50 44 175 73 38 177 79 37 177 78 
37 177 78 37 177 78 37 177 78 38 177 77 50 180 72 
156 222 39 186 224 45 173 137 122 163 73 162 164 72 163 
164 74 157 171 143 103 193 226 73 245 249 224 252 255 253 
251 252 237 222 239 153 184 225 59 179 225 33 179 224 33 
179 225 31 179 223 37 180 222 47 187 226 67 209 233 121 
237 245 199 252 254 244 123 202 142 38 177 75 37 177 78 
37 177 78 37 177 78 37 177 78 37 177 78 97 197 56 
184 224 48 164 136 94 159 115 103 163 94 144 163 73 162 
162 73 165 161 77 151 176 165 90 198 225 90 246 248 233 
254 255 254 253 254 254 254 254 243 239 245 209 240 247 210 
240 247 209 241 248 216 252 254 237 254 255 247 254 254 253 
252 254 252 238 247 204 173 227 73 75 191 65 37 177 78 
37 177 78 37 177 78 37 177 78 36 178 77 76 188 65 
158 150 102 166 122 106 187 221 54 179 187 74 159 78 147 
164 73 161 162 73 162 161 83 146 181 194 69 188 215 74 
217 218 178 249 248 245 254 254 254 253 254 254 255 254 253 
254 253 255 255 255 253 254 254 254 255 254 253 248 253 237 
206 236 131 180 229 36 174 231 40 69 186 61 37 177 78 
37 177 78 37 177 78 37 177 78 37 177 77 41 174 79 
113 114 119 184 184 84 179 229 31 183 227 35 170 122 120 
161 74 164 165 72 160 161 73 163 161 96 135 186 204 62 
184 225 45 182 208 70 208 233 120 215 234 144 224 241 166 
224 241 168 228 241 178 233 244 184 222 239 155 193 228 77 
180 229 33 179 230 33 136 217 54 44 175 70 37 177 78 
37 177 78 37 177 78 37 177 78 36 176 79 36 177 77 
104 123 117 160 118 113 188 222 50 180 230 29 177 184 69 
161 74 156 162 73 163 161 74 164 164 72 161 160 98 129 
183 187 75 186 225 39 181 228 32 181 229 29 183 228 32 
180 229 29 181 228 34 181 228 38 179 230 32 183 226 39 
180 208 55 142 198 68 50 177 65 38 177 77 37 177 78 
37 177 78 37 177 78 37 177 78 36 177 77 39 175 78 
62 157 93 139 90 141 161 128 102 185 224 45 184 224 44 
164 108 123 164 72 162 163 72 164 162 73 161 163 73 165 
161 76 152 164 108 128 172 155 95 182 200 64 189 222 49 
186 223 49 186 224 45 188 222 48 179 194 71 165 120 112 
159 90 144 96 129 113 37 177 81 37 177 79 37 177 78 
37 177 78 37 177 78 37 177 78 39 176 78 34 179 76 
39 175 78 65 157 95 116 111 124 156 129 102 186 216 56 
182 206 62 160 96 135 162 73 162 164 73 162 164 71 166 
161 74 162 161 73 163 162 75 158 158 77 153 157 79 146 
158 79 142 157 79 143 157 80 143 160 77 150 150 83 151 
101 124 122 45 172 83 37 177 78 38 177 79 37 177 78 
37 177 78 37 177 78 37 177 78 36 178 79 36 176 78 
32 178 77 35 176 80 49 169 84 112 132 103 151 114 98 
180 187 77 185 209 65 166 112 125 163 75 154 160 74 163 
164 73 161 165 72 163 164 72 163 164 72 161 164 72 162 
161 73 164 162 76 155 165 106 131 169 155 98 103 178 88 
42 175 80 36 178 77 37 178 76 37 177 79 37 177 78 
37 177 78 37 177 78 36 177 77 35 177 75 36 176 79 
34 177 77 35 177 78 36 177 73 121 207 59 180 188 73 
155 109 113 172 155 92 188 220 57 177 181 83 168 125 114 
164 106 131 165 104 135 165 104 132 163 105 143 173 129 137 
169 137 105 182 193 74 178 227 50 106 202 58 48 179 65 
37 177 78 37 177 77 37 177 78 37 177 78 37 177 78 
37 177 78 37 177 78 36 177 77 34 177 78 38 177 66 
39 176 73 37 177 73 39 175 73 134 214 45 182 228 33 
184 203 69 152 93 116 175 163 100 184 227 36 180 228 35 
186 225 37 181 228 36 180 227 41 178 225 57 173 229 50 
172 231 48 141 218 48 77 193 61 42 176 73 38 176 78 
37 177 78 37 177 78 37 177 78 37 177 78 37 177 78 
36 177 78 37 177 78 35 178 77 37 177 73 124 215 58 
112 205 51 95 198 58 119 207 46 171 228 37 178 231 26 
184 227 35 175 159 89 158 79 140 180 194 68 181 229 28 
179 230 29 181 229 32 180 230 33 87 187 45 48 176 61 
49 175 63 41 177 71 38 177 79 38 177 79 36 177 80 
38 177 76 37 177 78 37 177 78 37 177 78 37 177 78 
34 177 77 37 176 75 35 177 76 36 176 75 75 189 62 
175 230 37 178 230 34 181 229 31 179 230 29 183 229 28 
180 230 30 186 209 65 159 77 151 175 166 87 183 227 33 
181 230 27 181 229 28 180 229 33 167 229 43 133 212 55 
75 188 65 57 183 66 40 176 76 38 177 80 37 177 79 
36 178 79 37 177 78 37 177 78 37 177 78 37 177 78 
37 176 77 33 178 78 33 178 77 36 177 73 85 190 52 
177 230 34 180 229 29 181 229 29 181 229 29 181 229 30 
183 228 27 179 183 72 159 77 145 174 180 74 180 230 26 
180 229 31 181 229 29 181 229 29 181 229 29 181 229 30 
177 230 36 151 225 55 40 178 67 38 177 74 37 178 76 
38 177 78 37 177 78 37 177 78 37 177 78 37 177 78 
35 176 79 37 176 75 42 175 69 100 196 52 172 231 40 
179 230 32 182 229 29 181 229 29 181 229 29 182 229 30 
180 230 28 178 209 50 173 174 78 179 216 44 184 228 28 
180 230 28 181 229 29 181 229 29 181 229 29 182 229 27 
181 230 29 145 214 36 122 208 54 70 190 67 38 176 80 
36 178 78 37 177 78 37 177 78 37 177 78 37 177 78 
34 178 76 37 177 73 97 204 65 145 221 50 156 225 45 
174 230 41 176 230 37 178 230 35 178 230 35 175 231 36 
167 229 44 136 216 51 113 204 52 151 224 47 175 231 38 
180 229 33 180 230 31 180 229 30 181 229 29 179 230 28 
182 228 30 180 229 31 161 226 48 56 182 69 39 176 78 
37 178 78 37 177 78 37 177 78 37 177 78 37 177 78 
35 177 77 36 176 76 39 176 70 40 176 69 42 176 67 
50 177 62 65 188 61 66 188 60 67 187 60 66 188 63 
45 175 59 38 177 71 40 176 76 45 176 66 65 184 64 
94 195 54 134 213 44 175 228 31 180 230 28 181 228 35 
167 227 34 127 211 53 66 183 63 39 177 74 39 176 77 
37 177 77 37 177 78 37 177 78 37 177 78 37 177 78 
