P3
# Created by IrfanView
30 30
255
37 177 78 37 177 78 37 177 78 37 177 78 37 177 78 
37 177 78 37 177 78 37 177 78 37 177 78 37 177 78 
38 177 74 47 177 66 52 180 67 39 177 76 37 177 74 
118 206 50 150 218 50 50 177 70 36 178 78 37 178 75 
36 177 80 36 178 78 36 177 78 36 178 77 37 177 79 
37 177 78 37 177 78 37 177 78 37 177 78 37 177 78 
37 177 78 37 177 78 37 177 78 37 177 78 37 177 78 
37 177 78 37 177 78 37 177 78 37 177 78 37 177 78 
72 189 65 172 230 44 168 229 40 110 204 56 83 190 55 
171 229 36 179 230 30 140 218 48 47 179 68 36 178 76 
37 177 78 38 177 77 38 176 76 38 177 75 38 176 77 
37 177 79 37 177 78 37 177 78 37 177 78 37 177 78 
37 177 78 37 177 78 37 177 78 37 177 78 37 177 78 
37 177 78 37 177 78 37 177 78 37 177 78 38 177 77 
64 187 69 178 229 35 179 230 31 181 229 29 179 230 34 
181 228 32 185 225 42 187 223 51 151 214 57 80 191 58 
68 186 63 93 198 59 132 213 48 129 213 50 46 179 70 
37 177 77 37 177 78 37 177 78 37 177 78 37 177 78 
37 177 78 37 177 78 37 177 78 37 177 78 37 177 78 
37 177 78 37 177 78 37 177 77 41 176 73 41 177 67 
58 175 57 174 231 38 181 229 29 182 227 40 178 182 83 
168 111 134 161 90 140 157 81 141 161 91 139 170 143 104 
180 214 56 179 230 32 181 229 29 180 229 34 88 195 60 
37 177 78 37 177 78 37 177 78 37 177 78 37 177 78 
37 177 78 37 177 78 37 177 78 37 177 78 37 177 78 
37 177 78 38 177 78 53 184 72 136 218 55 176 230 39 
165 225 39 178 231 33 188 221 56 175 142 132 162 74 160 
162 72 163 163 73 163 163 73 163 163 73 163 163 72 164 
157 88 135 187 222 50 181 230 28 170 228 40 68 187 65 
36 178 78 37 177 78 37 177 78 37 177 78 37 177 78 
37 177 78 37 177 78 37 177 78 37 177 78 37 177 78 
37 177 78 36 177 79 45 178 73 96 200 51 181 229 30 
182 228 32 182 203 75 165 99 145 163 74 162 164 72 164 
163 73 164 163 73 163 163 73 163 163 73 163 162 73 163 
160 90 139 183 224 51 187 226 48 198 230 160 64 181 97 
37 177 77 37 177 78 37 177 78 37 177 78 37 177 78 
37 177 78 37 177 78 37 177 78 37 177 79 36 177 79 
37 177 77 38 177 77 67 187 66 122 206 43 181 228 37 
180 185 92 167 91 158 164 72 163 163 73 162 163 73 163 
164 72 164 164 72 164 163 73 162 164 72 163 163 74 162 
171 155 93 185 227 50 234 245 191 156 214 173 40 176 79 
37 177 80 37 177 78 37 177 78 37 177 78 37 177 78 
37 177 78 37 177 78 37 177 78 36 178 77 41 176 71 
102 206 63 105 202 50 169 229 38 182 229 29 181 205 68 
161 83 153 163 73 163 163 73 164 163 73 163 163 73 163 
163 73 163 163 73 161 163 72 164 161 82 150 172 154 91 
192 224 78 234 247 196 200 233 208 53 175 89 38 177 79 
38 177 78 37 177 78 37 177 78 37 177 78 37 177 78 
37 177 78 37 177 78 37 177 78 35 179 77 41 176 74 
87 194 59 162 223 41 179 231 29 181 229 31 173 152 102 
162 73 162 164 72 163 163 73 163 163 73 163 163 73 163 
163 73 163 163 74 160 165 106 129 183 204 66 209 236 129 
249 252 231 166 218 180 52 176 87 37 177 79 37 178 77 
36 178 78 37 177 78 37 177 78 37 177 78 37 177 78 
37 177 78 37 177 78 37 177 78 39 176 77 37 178 78 
37 177 70 141 215 41 181 229 30 181 213 53 161 83 145 
163 73 162 163 73 161 164 72 166 163 73 163 162 74 161 
161 89 144 174 159 93 186 223 63 227 241 167 251 254 249 
163 218 182 41 175 82 38 177 77 37 178 77 36 177 81 
37 177 78 37 177 78 37 177 78 37 177 78 37 177 78 
37 177 78 37 177 78 37 177 78 37 177 79 37 178 77 
93 198 60 180 230 31 183 227 35 168 131 108 163 73 166 
164 72 165 164 72 164 162 73 161 164 99 136 177 169 87 
183 224 45 188 227 60 234 244 183 240 250 239 148 211 169 
42 174 81 36 178 77 37 177 80 37 177 78 37 177 78 
37 177 78 37 177 78 37 177 78 37 177 78 37 177 78 
37 177 78 37 177 78 37 177 78 37 178 75 36 177 78 
118 206 49 179 230 31 176 178 75 162 74 160 163 73 163 
164 72 162 163 93 140 176 176 82 186 223 50 187 227 57 
214 235 130 245 248 219 248 245 247 154 143 163 72 151 100 
37 177 79 36 178 76 38 177 79 37 177 78 36 176 77 
37 177 78 37 177 78 37 177 78 37 177 78 37 177 78 
37 177 78 37 177 78 37 177 78 36 178 79 38 177 77 
105 203 54 179 230 30 168 116 124 164 72 162 163 73 163 
161 82 149 181 206 61 200 230 89 235 244 193 252 252 238 
240 229 238 205 167 204 164 90 165 163 73 163 144 86 150 
74 147 105 40 175 79 36 177 79 37 177 78 36 176 77 
37 177 78 37 177 77 36 178 78 37 177 77 37 177 78 
37 177 78 37 177 78 37 177 78 38 177 78 36 178 74 
118 205 48 181 229 31 166 104 134 162 73 164 163 73 162 
161 95 141 182 227 40 210 235 117 200 160 193 171 97 170 
160 75 159 163 73 163 163 73 163 163 73 163 162 74 163 
140 89 149 53 167 90 37 178 77 37 177 78 36 176 78 
37 177 79 36 178 79 37 178 78 37 177 79 37 177 78 
37 177 78 37 177 78 37 177 78 36 177 78 49 180 73 
157 221 38 183 227 38 174 137 120 165 72 162 164 71 165 
164 73 162 171 142 104 182 226 40 167 124 118 163 72 162 
164 72 163 163 73 163 163 73 163 163 73 163 164 72 163 
162 74 162 101 124 120 41 175 80 37 177 78 37 177 78 
38 177 80 37 178 72 42 176 73 37 178 75 37 177 78 
37 177 78 37 177 78 37 177 78 36 178 78 98 197 57 
183 226 42 166 134 101 158 115 106 164 92 147 163 73 163 
162 73 163 162 75 157 175 166 86 182 206 57 159 92 133 
163 73 162 163 73 163 163 73 163 163 73 163 163 73 161 
163 73 164 151 81 154 68 154 96 38 177 78 37 178 76 
43 175 71 101 201 55 161 226 45 75 191 64 37 177 78 
37 177 78 37 177 78 37 177 78 37 178 77 74 188 65 
162 148 100 166 120 114 185 224 46 179 188 71 160 76 152 
164 72 163 163 73 162 162 81 152 180 196 63 179 203 57 
166 118 119 159 77 151 157 77 157 155 78 153 167 98 166 
194 153 196 230 214 230 208 224 214 132 204 156 126 203 128 
139 214 51 180 230 31 175 231 38 68 186 63 37 177 78 
37 177 78 37 177 78 37 177 78 37 177 78 39 175 78 
117 110 127 182 186 76 180 230 31 181 228 31 170 121 123 
162 74 163 165 72 162 162 73 163 165 94 140 183 207 55 
183 226 41 180 201 62 200 218 107 216 232 136 223 239 165 
225 241 162 228 241 175 231 244 183 222 240 152 191 230 74 
182 229 30 179 231 29 138 216 53 42 176 71 37 177 78 
37 177 78 37 177 78 37 177 78 36 176 79 35 177 76 
105 121 118 162 116 118 185 224 44 181 229 28 176 185 68 
163 73 161 163 73 162 162 73 163 164 73 161 162 95 137 
181 189 69 186 226 33 181 229 30 182 229 29 182 228 30 
180 229 29 181 228 32 181 228 35 180 230 31 182 228 33 
180 208 53 142 199 63 47 178 69 37 177 78 37 177 78 
37 177 78 37 177 78 37 177 78 37 177 78 37 175 78 
61 157 94 145 86 148 163 126 106 183 225 40 182 226 38 
166 105 130 165 72 161 162 73 165 163 73 162 163 72 165 
162 74 158 166 106 133 172 155 94 180 203 57 185 225 41 
185 226 40 184 226 38 185 225 39 179 195 65 166 119 115 
162 87 151 96 128 117 36 178 80 37 177 78 37 177 78 
37 177 78 37 177 78 37 177 78 36 178 78 35 178 75 
38 176 76 61 159 93 119 108 131 159 126 106 184 218 50 
179 209 54 163 94 142 163 72 161 164 73 162 164 72 166 
161 74 162 161 73 163 163 74 161 160 75 157 159 77 154 
159 77 151 160 76 151 159 77 150 162 74 158 153 80 156 
103 123 122 42 174 81 38 177 78 37 177 79 37 177 78 
37 177 78 37 177 78 37 177 78 38 176 79 35 177 78 
33 177 77 35 176 79 45 171 80 112 132 106 156 110 106 
179 189 72 184 211 56 166 111 131 163 73 159 162 73 163 
164 73 162 165 72 163 164 72 163 164 73 162 165 72 163 
162 73 164 162 74 159 166 104 136 170 155 97 101 180 82 
40 176 78 35 178 76 37 177 76 38 176 79 37 177 78 
37 177 78 37 177 78 36 177 77 35 177 76 35 176 79 
34 177 78 35 177 77 34 177 76 121 208 55 177 190 70 
159 105 123 173 155 92 186 223 50 176 183 78 168 123 121 
166 104 137 166 103 140 167 103 138 166 103 148 174 129 139 
169 136 108 181 194 71 177 229 43 106 203 55 46 179 70 
36 178 76 38 177 78 37 177 79 36 178 78 37 177 78 
37 177 78 37 177 78 36 177 77 35 177 77 37 177 70 
37 176 75 35 177 74 39 175 76 134 214 43 183 228 32 
184 205 61 154 90 125 177 162 99 183 228 31 180 230 30 
183 228 31 180 230 31 180 229 34 179 226 50 174 230 45 
173 231 42 142 218 45 78 193 61 40 176 75 37 177 79 
38 177 78 37 177 78 37 177 78 37 177 78 37 177 78 
36 177 78 37 177 78 35 178 77 37 176 75 125 215 55 
113 204 51 94 198 60 120 206 48 172 228 35 179 231 27 
183 227 32 175 159 90 160 76 152 179 196 65 181 229 30 
179 231 27 181 229 31 179 230 33 84 187 51 44 177 65 
46 176 66 39 177 72 37 177 80 38 177 78 36 178 79 
38 177 77 37 177 78 37 177 78 37 177 78 37 177 78 
34 177 77 36 176 76 35 177 77 35 177 74 74 189 64 
175 230 34 178 231 30 182 229 31 179 230 29 182 229 30 
179 231 27 184 211 57 161 75 157 175 166 86 181 229 30 
181 229 28 180 230 28 181 229 31 169 229 41 133 212 55 
75 189 64 56 183 67 39 177 76 37 177 79 38 177 79 
36 177 79 37 177 78 37 177 78 37 177 78 37 177 78 
36 176 78 34 177 77 34 178 76 35 177 75 84 190 55 
178 230 33 181 229 29 181 229 29 181 229 29 181 229 29 
182 229 29 179 184 69 162 74 158 173 181 71 179 230 26 
180 229 31 181 229 29 181 229 29 181 229 29 182 229 30 
179 229 34 153 225 53 41 177 69 39 176 78 36 178 75 
37 177 78 37 177 78 37 177 78 37 177 78 37 177 78 
35 176 79 36 177 76 40 176 72 99 196 54 175 230 37 
180 229 31 182 229 29 181 229 29 181 229 29 181 229 29 
180 230 27 179 209 48 173 174 77 179 217 41 184 228 29 
180 230 28 181 229 29 181 229 29 181 229 29 180 230 28 
180 230 28 144 214 36 123 209 52 70 190 68 37 177 80 
36 178 78 37 177 78 37 177 78 37 177 78 37 177 78 
33 177 76 36 177 75 100 203 61 148 220 46 158 225 41 
175 230 40 177 230 32 179 229 32 179 229 32 177 230 35 
168 229 39 138 216 48 113 204 51 152 224 43 176 231 35 
180 229 31 180 229 30 180 229 29 181 230 29 180 230 28 
181 229 30 181 229 30 163 226 44 57 182 71 38 177 77 
37 177 78 37 177 78 37 177 78 37 177 78 37 177 78 
35 177 77 35 177 76 38 176 73 38 176 73 40 176 71 
48 178 64 64 188 63 64 188 63 65 188 63 64 188 65 
44 175 62 37 177 73 37 177 78 43 176 71 65 184 67 
93 195 57 134 214 44 176 227 32 180 230 28 180 230 33 
168 227 32 126 212 52 64 184 67 39 177 75 38 177 79 
37 178 77 37 177 78 37 177 78 37 177 78 37 177 78 
