P3
# Created by IrfanView
30 30
255
45 179 82 55 192 86 54 196 76 41 188 58 39 186 56 
46 194 72 51 194 88 47 186 87 54 185 89 55 178 71 
74 189 62 88 193 49 77 170 17 81 165 7 123 198 43 
155 234 81 94 184 37 68 168 34 66 170 59 71 182 79 
57 178 72 48 176 65 55 186 72 62 192 86 55 179 93 
56 178 95 61 180 90 54 177 71 52 177 59 68 197 70 
29 167 71 34 173 72 34 176 66 30 174 60 30 174 60 
34 176 66 37 173 73 36 168 67 42 165 58 87 202 81 
133 237 100 132 224 77 113 193 44 130 198 53 166 223 90 
176 235 109 148 216 95 106 183 71 70 154 58 53 148 54 
51 160 51 56 177 61 45 171 48 14 142 29 42 165 74 
43 165 80 53 173 83 53 175 74 48 175 58 60 188 65 
37 180 88 34 177 85 34 177 89 39 179 93 39 175 91 
36 168 82 41 166 74 51 168 63 47 156 27 97 195 50 
152 236 78 169 239 81 171 224 82 186 224 105 190 215 123 
168 189 112 176 197 128 158 189 122 138 183 118 111 174 95 
84 170 61 87 192 63 103 221 83 104 229 99 47 170 66 
39 162 72 44 167 77 47 171 75 42 168 60 49 176 61 
30 179 89 25 173 87 30 172 96 42 178 106 42 172 102 
40 161 84 56 167 73 83 183 67 89 177 38 114 189 34 
162 219 62 194 233 90 192 212 99 178 181 102 161 150 105 
142 122 98 142 119 103 130 115 96 138 141 110 156 185 127 
156 217 114 150 236 103 139 243 96 122 236 96 73 189 80 
55 172 81 52 168 85 52 170 82 49 169 71 55 176 71 
24 179 88 22 174 89 31 176 101 46 180 109 49 171 98 
53 163 77 85 181 74 129 210 82 152 217 71 173 219 71 
199 225 90 199 205 97 166 148 84 141 105 79 140 90 101 
143 84 116 149 81 120 135 74 105 126 89 97 131 125 93 
147 177 89 168 229 102 158 242 94 122 219 77 75 177 67 
59 163 74 57 161 84 58 165 87 58 166 80 68 177 86 
28 187 95 28 183 92 37 181 94 46 179 90 48 166 70 
60 159 51 97 179 55 143 205 72 194 235 103 199 218 100 
191 187 100 163 137 86 140 93 83 148 86 109 159 85 134 
153 71 137 174 84 156 172 90 154 150 90 128 122 93 89 
138 144 80 191 227 121 196 255 126 150 222 94 71 149 50 
69 150 73 75 157 91 71 158 90 65 155 81 76 169 89 
19 178 85 20 175 74 28 171 63 40 170 48 53 165 27 
73 165 20 110 178 31 148 191 58 195 212 110 168 160 95 
144 111 94 138 85 105 146 78 129 168 88 157 176 90 165 
161 72 152 162 72 159 149 68 147 143 79 139 153 113 137 
184 170 141 205 216 148 167 196 103 96 137 41 41 87 14 
54 104 45 58 111 57 31 90 34 3 69 5 12 82 12 
23 178 84 27 178 73 40 180 55 61 187 41 94 199 34 
129 212 44 168 223 70 197 225 104 177 174 105 138 109 93 
128 76 112 151 84 153 156 81 164 150 67 155 156 73 151 
166 85 161 155 82 163 138 73 153 150 97 169 168 128 178 
147 126 133 113 107 81 101 108 56 103 117 58 120 133 90 
136 154 116 129 154 114 76 108 61 24 67 11 31 79 17 
33 182 88 29 172 64 40 175 37 60 177 18 132 227 49 
177 246 75 164 203 62 198 209 115 144 125 95 139 97 121 
149 89 161 134 67 160 166 97 188 150 81 161 140 77 132 
141 87 136 110 71 126 136 106 170 94 63 139 89 62 131 
86 64 110 73 55 77 132 118 117 165 151 140 139 122 114 
96 82 69 97 92 63 94 101 59 76 94 42 42 67 10 
26 169 79 50 187 81 50 176 40 59 166 8 105 188 20 
162 217 63 193 217 105 192 186 124 126 94 95 135 86 133 
140 79 156 140 78 163 142 84 158 137 87 140 147 104 134 
118 88 112 68 58 93 72 69 122 66 58 135 96 84 166 
93 77 150 66 47 103 115 91 127 166 138 160 99 67 82 
92 62 64 90 69 48 91 82 43 103 110 59 76 89 33 
33 169 84 57 187 87 45 161 34 81 178 37 139 207 68 
179 218 103 195 202 134 142 122 98 137 95 117 137 84 130 
145 91 143 156 107 152 123 84 111 173 145 157 202 182 181 
94 90 89 55 71 87 48 70 111 54 66 140 56 60 151 
43 39 126 51 39 115 91 72 128 122 95 136 170 135 165 
149 116 125 141 115 98 104 90 51 66 66 14 69 77 17 
40 174 89 52 178 79 43 153 30 100 187 57 179 236 119 
187 212 128 155 146 113 116 83 90 142 90 128 145 88 129 
150 100 125 190 149 155 192 166 153 214 202 180 176 173 154 
116 126 118 41 63 77 22 47 88 48 67 143 60 73 165 
53 60 150 61 63 140 70 62 121 72 59 102 64 44 72 
60 39 48 153 138 117 158 153 111 54 59 1 63 75 9 
33 165 79 54 178 80 57 165 43 83 165 41 166 215 110 
171 186 121 117 97 90 146 100 129 143 84 128 175 114 147 
192 143 138 248 213 181 255 255 209 207 204 159 110 115 92 
188 198 199 137 151 178 56 69 122 45 58 137 75 89 177 
68 86 162 46 65 124 47 65 103 77 92 115 65 74 89 
32 38 36 93 102 75 93 107 58 7 27 0 44 67 0 
29 161 75 55 180 78 69 176 46 77 158 27 164 207 102 
184 192 132 123 92 98 150 95 137 150 82 133 175 109 137 
239 188 167 255 227 174 197 183 120 153 153 101 144 151 133 
182 189 205 206 203 250 132 126 196 65 67 152 49 60 142 
42 66 128 44 78 116 72 114 128 101 143 142 33 72 69 
11 47 33 22 56 21 35 70 16 55 92 23 86 124 47 
38 172 83 45 171 63 68 177 34 116 198 51 177 221 100 
180 186 114 143 109 110 135 74 118 147 73 126 151 80 110 
204 150 126 218 181 128 125 107 43 122 118 71 195 199 198 
103 99 136 121 95 166 141 113 200 86 71 162 46 52 128 
42 71 113 58 107 121 86 150 134 69 139 111 48 116 91 
38 103 73 34 95 51 35 93 34 56 112 37 35 88 6 
50 179 96 38 158 58 73 174 42 162 236 99 168 205 91 
130 130 56 150 114 98 145 88 107 154 86 123 164 100 127 
138 87 83 205 168 139 220 197 153 162 150 112 198 191 183 
81 69 89 89 65 115 136 111 176 80 69 135 46 53 107 
28 58 84 12 62 63 40 105 83 29 103 70 71 146 113 
70 146 107 113 190 136 117 192 125 71 146 64 9 83 0 
45 166 95 44 153 72 95 181 82 124 180 79 119 138 56 
168 159 92 212 182 130 177 133 104 150 102 100 135 88 106 
129 88 122 145 109 135 174 145 139 195 169 142 168 142 107 
108 92 59 87 88 72 69 80 76 67 80 88 49 67 79 
47 74 85 61 96 102 51 93 89 49 100 83 48 107 77 
59 127 80 67 146 81 116 203 124 71 166 76 74 171 76 
56 180 110 46 158 82 76 162 75 94 152 68 121 143 78 
205 201 140 247 228 159 196 167 111 127 93 66 139 102 110 
139 99 149 131 93 144 162 126 140 220 184 170 225 187 150 
166 143 91 144 147 90 104 121 67 129 146 104 158 174 145 
136 153 135 75 96 81 41 68 49 72 109 78 71 119 71 
58 120 53 46 123 41 92 183 88 66 168 68 74 182 80 
31 171 85 29 158 68 57 162 69 68 146 60 82 124 60 
154 169 112 220 217 150 217 201 141 166 137 105 136 100 100 
121 79 119 125 79 126 130 87 107 155 113 114 199 157 141 
223 190 149 209 195 120 186 182 93 200 197 118 209 209 139 
196 198 135 154 163 100 101 121 52 90 121 45 141 186 95 
102 160 58 58 131 23 76 163 50 56 154 43 81 185 74 
33 185 85 29 171 71 58 180 79 77 176 85 69 134 70 
88 128 68 158 174 103 214 211 144 203 182 137 145 109 95 
123 77 105 147 97 135 143 94 115 123 76 84 140 96 97 
175 137 118 194 164 112 201 178 111 212 192 131 194 178 119 
199 188 132 212 212 150 179 190 121 142 169 88 114 155 63 
95 153 51 77 150 43 90 177 70 63 161 60 72 176 77 
39 200 88 25 179 67 33 173 64 59 179 82 68 158 88 
68 133 67 103 140 60 151 164 84 210 196 135 193 158 128 
168 118 130 144 88 115 137 84 100 152 102 111 148 105 114 
125 82 92 128 82 95 128 84 97 149 108 122 141 110 118 
124 104 105 115 107 96 103 112 85 116 141 101 84 127 71 
75 136 67 70 148 73 78 170 95 56 159 90 63 172 105 
18 176 63 27 181 67 26 173 58 33 164 60 56 163 81 
68 151 69 85 141 42 118 144 45 161 156 74 198 168 116 
210 159 155 174 116 128 134 82 84 138 93 90 141 106 104 
124 89 93 141 100 114 122 83 101 126 94 107 121 100 107 
114 106 104 112 118 104 108 131 103 128 169 127 108 167 113 
82 158 94 60 153 83 50 157 89 39 158 94 56 180 118 
20 167 61 47 195 85 46 191 72 41 175 60 55 174 70 
68 164 57 98 167 40 156 195 68 135 138 31 156 132 58 
204 157 131 234 180 170 201 155 132 151 116 86 134 111 79 
140 126 87 141 131 80 128 126 67 126 130 71 113 127 66 
132 158 95 161 202 134 143 201 125 121 196 114 69 161 74 
56 162 72 51 171 81 44 177 88 37 179 95 41 187 106 
38 169 75 47 179 77 35 170 49 38 169 41 56 176 52 
54 156 21 91 168 12 178 225 71 218 229 99 157 141 46 
149 108 62 204 159 126 231 198 147 213 194 128 198 194 121 
200 208 122 182 201 94 180 207 92 191 225 113 174 217 109 
159 215 108 139 210 106 87 172 71 51 151 52 51 163 65 
43 169 70 45 180 85 30 175 80 21 175 79 30 188 93 
54 165 86 52 166 71 71 191 68 100 221 80 103 215 68 
95 193 32 124 202 18 179 230 49 196 215 63 209 202 88 
175 148 81 141 112 56 186 171 88 214 216 109 183 203 78 
192 225 86 189 232 80 150 201 46 109 167 20 88 156 17 
81 160 32 73 164 45 62 165 58 52 166 68 48 173 81 
43 177 88 35 178 88 28 177 83 30 185 84 37 194 91 
68 161 90 59 158 68 76 182 56 114 223 72 137 242 79 
142 236 54 157 234 30 185 242 41 191 220 50 222 229 99 
184 173 91 119 110 33 158 165 53 212 235 93 191 229 64 
179 229 52 179 234 55 164 224 50 144 211 44 121 198 44 
93 180 41 66 165 39 55 163 54 52 170 74 43 170 81 
39 173 88 33 173 84 29 173 76 32 179 72 39 190 75 
59 142 72 61 150 60 83 175 48 118 213 59 146 238 67 
156 241 50 161 236 21 170 230 18 176 215 34 205 230 87 
173 185 87 109 123 28 139 166 33 190 231 65 172 228 33 
166 225 23 176 228 40 178 231 55 175 237 68 160 229 74 
127 210 68 91 186 60 69 172 63 60 171 76 49 169 82 
46 172 88 43 172 80 40 171 69 45 178 59 53 188 60 
77 162 81 100 186 87 126 216 84 146 233 77 154 237 69 
159 238 49 167 240 26 173 238 24 183 235 49 184 227 75 
170 204 94 147 183 75 169 214 71 181 238 61 164 228 27 
184 248 38 177 227 32 179 225 39 175 230 51 172 237 71 
158 237 84 130 220 86 93 193 77 64 174 75 52 168 83 
51 170 90 47 169 86 47 167 77 52 173 67 61 182 67 
87 185 82 111 208 92 136 229 89 143 229 76 147 224 66 
154 226 54 159 232 31 161 230 25 163 229 44 149 210 54 
144 201 84 145 202 89 162 224 77 162 228 56 149 218 27 
185 248 45 185 228 25 185 223 22 178 226 30 174 234 48 
165 241 70 142 231 79 101 202 72 67 176 69 52 169 81 
51 168 97 47 166 102 47 163 98 53 167 95 63 176 98 
71 175 60 77 179 54 87 180 37 98 183 30 118 193 41 
135 203 38 133 205 10 121 194 0 119 191 6 111 182 24 
107 175 54 91 160 43 107 177 29 130 202 32 131 203 16 
154 216 17 189 228 23 198 233 25 193 238 33 176 236 40 
155 229 48 126 214 52 92 192 57 65 175 63 62 176 89 
59 176 108 55 172 117 55 169 117 63 172 117 73 181 123 
