P3
# Created by IrfanView
30 30
255
37 177 78 37 177 78 37 177 78 37 177 78 37 177 78 
37 177 78 37 177 78 37 177 78 37 177 78 37 177 78 
37 177 78 37 177 78 37 177 78 37 177 78 118 197 43 
158 235 71 37 177 78 37 177 78 37 177 78 37 177 78 
37 177 78 37 177 78 37 177 78 37 177 78 37 177 78 
37 177 78 37 177 78 37 177 78 37 177 78 37 177 78 
37 177 78 37 177 78 37 177 78 37 177 78 37 177 78 
37 177 78 37 177 78 37 177 78 37 177 78 37 177 78 
136 244 98 131 225 79 99 183 61 108 182 59 160 224 75 
168 231 82 146 214 91 37 177 78 37 177 78 37 177 78 
37 177 78 37 177 78 37 177 78 37 177 78 37 177 78 
37 177 78 37 177 78 37 177 78 37 177 78 37 177 78 
37 177 78 37 177 78 37 177 78 37 177 78 37 177 78 
37 177 78 37 177 78 37 177 78 37 177 78 80 193 61 
150 232 69 182 244 71 187 239 77 173 216 66 182 214 77 
185 216 96 176 216 119 160 210 123 114 181 88 90 169 60 
37 177 78 37 177 78 122 214 81 97 199 74 37 177 78 
37 177 78 37 177 78 37 177 78 37 177 78 37 177 78 
37 177 78 37 177 78 37 177 78 37 177 78 37 177 78 
37 177 78 37 177 78 37 177 78 37 177 78 107 199 54 
163 218 52 183 214 51 202 215 84 184 185 83 157 148 69 
131 121 62 111 106 64 123 127 90 136 147 107 169 193 119 
174 221 83 171 234 68 162 233 77 153 245 102 37 177 78 
37 177 78 37 177 78 37 177 78 37 177 78 37 177 78 
37 177 78 37 177 78 37 177 78 37 177 78 37 177 78 
37 177 78 37 177 78 37 177 78 149 234 78 154 215 50 
200 226 67 215 209 95 181 150 121 144 93 110 152 88 115 
151 84 119 159 94 136 139 77 124 149 87 138 129 85 84 
163 160 47 207 236 70 167 221 61 134 216 70 37 177 78 
37 177 78 37 177 78 37 177 78 37 177 78 37 177 78 
37 177 78 37 177 78 37 177 78 37 177 78 37 177 78 
37 177 78 37 177 78 140 214 67 178 231 81 190 216 81 
195 187 88 162 124 85 141 80 121 148 66 150 172 76 165 
169 66 157 165 69 156 159 67 152 162 73 157 146 82 108 
188 171 79 191 209 63 206 242 110 154 211 98 75 158 66 
37 177 78 37 177 78 37 177 78 37 177 78 37 177 78 
37 177 78 37 177 78 37 177 78 37 177 78 37 177 78 
37 177 78 37 177 78 145 193 45 203 216 110 184 167 113 
155 109 120 140 75 133 162 83 166 161 69 168 170 62 171 
181 69 177 166 65 161 171 84 163 148 77 135 142 103 108 
176 183 103 185 210 106 203 218 151 115 128 84 63 81 41 
63 92 48 63 106 52 237 28 36 237 28 36 61 68 50 
37 177 78 37 177 78 37 177 78 37 177 78 37 177 78 
37 177 78 165 231 61 199 225 89 179 163 104 148 101 111 
144 74 144 152 70 168 160 74 171 160 68 167 173 72 176 
160 64 164 162 79 167 130 64 136 151 106 161 158 141 160 
117 132 101 111 128 83 95 88 62 237 28 36 237 28 36 
237 28 36 237 28 36 237 28 36 237 28 36 73 72 68 
37 177 78 37 177 78 37 177 78 37 177 78 37 177 78 
152 236 50 188 236 62 201 208 94 157 118 111 149 82 136 
154 77 149 166 84 166 155 73 157 153 76 158 158 86 162 
133 73 143 117 75 139 131 105 170 84 74 145 69 72 139 
68 78 131 50 50 78 237 28 36 237 28 36 237 28 36 
237 28 36 237 28 36 237 28 36 39 89 52 38 87 55 
37 177 78 37 177 78 37 177 78 37 177 78 107 202 20 
162 226 41 198 223 77 184 168 93 143 84 114 158 77 154 
147 70 138 143 72 128 150 88 129 137 83 117 138 95 125 
123 91 128 74 54 105 61 54 121 65 72 153 74 87 179 
67 77 175 63 57 131 112 76 90 237 28 36 125 74 45 
79 50 16 56 77 36 63 111 69 71 127 88 42 102 64 
37 177 78 37 177 78 37 177 78 37 177 78 137 218 51 
186 231 70 195 194 102 157 115 93 152 74 126 173 86 164 
153 86 140 141 94 112 140 111 79 168 150 102 196 183 151 
107 92 95 59 41 91 73 62 140 59 66 147 36 53 143 
35 52 160 41 47 135 64 49 82 237 28 36 237 28 36 
237 28 36 237 28 36 237 28 36 41 65 41 41 74 53 
37 177 78 37 177 78 37 177 78 37 177 78 166 237 81 
191 219 83 165 140 99 148 84 110 169 77 142 147 61 122 
152 101 116 178 154 128 195 190 126 203 204 136 166 164 125 
132 124 122 57 44 88 48 38 111 54 60 144 46 60 157 
59 77 187 53 70 160 54 68 107 65 63 77 72 43 61 
86 46 54 237 28 36 237 28 36 237 28 36 42 60 46 
37 177 78 37 177 78 37 177 78 37 177 78 163 229 80 
174 190 81 136 91 98 159 77 143 169 68 136 182 99 127 
219 192 139 215 218 137 240 248 191 232 236 209 122 112 120 
194 181 207 166 161 191 56 56 106 61 64 157 63 74 182 
41 59 161 36 68 143 41 91 124 54 101 119 48 68 101 
43 41 65 91 72 66 104 87 67 237 28 36 66 79 61 
37 177 78 37 177 78 37 177 78 73 174 54 171 226 83 
183 187 93 141 88 118 160 72 158 173 71 147 178 100 124 
215 197 123 234 246 146 175 186 128 142 145 128 140 127 147 
198 182 218 203 197 223 131 129 176 55 56 149 55 62 168 
48 64 151 60 99 154 49 123 136 42 122 121 9 67 78 
22 57 59 51 61 37 58 64 30 52 75 46 55 88 61 
37 177 78 37 177 78 37 177 78 105 196 69 185 226 85 
183 178 86 158 106 129 153 71 156 160 65 157 170 94 143 
177 156 109 199 207 122 119 126 59 117 117 79 212 200 200 
121 103 127 106 86 123 157 143 202 76 76 164 45 55 144 
32 48 110 45 84 113 67 148 131 70 165 123 61 147 98 
31 102 46 18 69 2 49 98 33 61 128 77 24 97 54 
37 177 78 37 177 78 37 177 78 135 219 97 179 207 88 
148 136 52 151 118 101 142 86 123 153 72 151 150 75 142 
140 102 101 178 165 120 191 192 126 171 172 114 193 186 160 
78 63 66 111 91 119 105 89 138 79 78 146 48 58 129 
27 46 102 32 71 100 35 107 96 15 102 60 57 138 72 
88 161 79 112 177 83 132 203 111 50 140 66 0 94 29 
37 177 78 37 177 78 37 177 78 119 202 96 110 121 43 
180 164 89 197 201 107 156 145 89 145 89 124 153 77 152 
150 80 143 137 90 108 196 190 130 190 200 114 139 138 82 
100 93 64 93 81 81 91 82 103 60 60 96 46 60 109 
57 83 144 40 79 134 54 104 139 47 98 101 60 103 60 
85 128 49 94 146 38 141 211 95 77 172 70 37 177 78 
37 177 78 37 177 78 37 177 78 71 154 66 137 140 97 
209 192 136 201 224 94 192 206 93 146 105 101 157 81 143 
153 67 154 158 87 147 142 110 89 197 185 125 228 219 160 
160 155 99 138 138 88 105 111 67 148 162 127 150 175 154 
108 143 145 60 100 112 39 75 89 57 88 83 82 105 61 
63 95 19 48 104 0 95 176 56 37 177 78 37 177 78 
37 177 78 37 177 78 37 177 78 76 161 93 108 108 96 
176 157 125 201 231 101 189 211 77 168 131 89 147 74 101 
160 79 148 156 73 151 157 79 129 162 102 114 186 153 118 
213 206 125 196 210 89 168 197 53 182 222 74 167 211 72 
168 216 96 139 179 82 84 112 38 108 130 65 173 198 130 
117 160 81 70 145 52 37 177 78 37 177 78 37 177 78 
37 177 78 37 177 78 37 177 78 37 177 78 87 116 94 
117 125 88 158 188 76 202 222 97 204 182 109 151 98 84 
161 87 136 149 62 143 170 78 161 167 88 145 144 94 97 
147 123 75 175 169 75 178 186 65 192 209 79 192 213 84 
188 206 88 187 199 97 184 189 109 161 171 102 115 140 74 
83 135 63 37 177 78 37 177 78 37 177 78 37 177 78 
37 177 78 37 177 78 37 177 78 37 177 78 37 177 78 
78 139 72 98 129 53 159 172 84 206 210 113 192 172 111 
151 89 110 155 76 142 146 72 149 150 79 155 140 77 134 
148 87 131 145 79 115 148 85 112 141 84 103 154 102 115 
151 102 108 141 99 100 140 109 104 106 99 81 95 122 87 
73 136 79 37 177 78 37 177 78 37 177 78 37 177 78 
37 177 78 37 177 78 37 177 78 37 177 78 37 177 78 
64 156 73 87 133 58 111 133 48 126 144 36 202 198 111 
210 167 151 166 108 132 124 75 107 133 85 125 142 86 135 
147 82 138 150 71 136 168 88 151 155 82 137 136 74 113 
136 82 105 141 101 109 134 115 108 148 160 138 105 155 117 
37 177 78 37 177 78 37 177 78 37 177 78 37 177 78 
37 177 78 37 177 78 37 177 78 37 177 78 37 177 78 
37 177 78 37 177 78 157 207 92 141 158 54 135 129 43 
191 171 108 211 188 136 177 162 107 149 132 88 153 125 104 
142 104 95 161 112 105 146 100 87 152 122 94 149 136 91 
147 148 80 183 202 120 161 203 117 125 193 108 37 177 78 
37 177 78 37 177 78 37 177 78 37 177 78 37 177 78 
37 177 78 37 177 78 37 177 78 37 177 78 37 177 78 
37 177 78 37 177 78 166 229 89 201 227 102 174 176 69 
120 103 21 194 177 97 212 212 112 195 202 98 202 201 111 
208 201 120 206 193 114 208 203 121 185 206 113 174 215 109 
159 217 96 141 216 87 85 175 52 37 177 78 37 177 78 
37 177 78 37 177 78 37 177 78 37 177 78 37 177 78 
37 177 78 37 177 78 84 201 69 116 217 77 93 184 45 
107 188 47 140 210 60 167 227 67 180 228 56 194 212 68 
185 148 77 140 98 38 179 178 70 195 218 78 195 221 62 
192 220 58 194 223 71 151 196 51 37 177 78 37 177 78 
37 177 78 37 177 78 37 177 78 37 177 78 37 177 78 
37 177 78 37 177 78 37 177 78 37 177 78 37 177 78 
37 177 78 37 177 78 79 179 31 145 227 65 162 235 70 
168 234 66 169 227 57 173 231 51 170 232 35 197 229 66 
197 163 89 141 100 38 168 174 52 191 228 60 186 234 36 
169 222 16 172 225 31 170 238 55 132 226 54 37 177 78 
37 177 78 37 177 78 37 177 78 37 177 78 37 177 78 
37 177 78 37 177 78 37 177 78 37 177 78 37 177 78 
37 177 78 49 161 37 78 173 21 137 215 44 169 229 53 
177 227 44 171 222 31 177 233 38 169 237 38 187 234 70 
184 173 83 129 108 25 150 170 23 179 226 36 177 241 31 
167 233 19 178 235 34 164 224 32 160 234 49 167 253 80 
147 241 82 94 197 54 37 177 78 37 177 78 37 177 78 
37 177 78 37 177 78 37 177 78 37 177 78 37 177 78 
37 177 78 89 195 73 122 221 69 152 235 67 172 234 61 
178 229 48 173 226 34 173 235 38 158 235 41 166 231 67 
177 198 93 152 167 66 171 210 59 176 235 49 164 237 33 
163 239 27 174 237 36 169 227 31 168 228 36 167 231 47 
149 221 51 121 206 53 90 192 64 37 177 78 37 177 78 
37 177 78 37 177 78 37 177 78 37 177 78 37 177 78 
76 188 78 110 220 99 128 237 94 134 233 78 157 236 83 
169 237 76 167 234 59 164 235 53 148 236 54 143 228 65 
148 216 93 143 203 89 160 224 86 159 231 69 152 232 49 
162 242 47 167 239 44 175 237 40 183 231 35 181 228 38 
186 241 62 175 250 87 115 218 77 37 177 78 37 177 78 
37 177 78 37 177 78 37 177 78 37 177 78 37 177 78 
37 177 78 37 177 78 37 177 78 37 177 78 101 188 45 
112 188 38 118 191 24 119 197 23 107 197 21 92 188 26 
37 177 78 37 177 78 37 177 78 37 177 78 123 205 33 
141 223 37 156 231 40 171 234 39 193 235 37 195 232 38 
172 220 38 133 202 34 86 190 43 37 177 78 37 177 78 
37 177 78 37 177 78 37 177 78 37 177 78 37 177 78 
