P3
# Created by IrfanView
70 30
255
0 0 0 0 0 0 0 0 0 0 0 0 0 0 0 
0 0 0 0 0 0 1 0 1 1 0 0 2 0 0 
3 0 1 0 1 2 1 0 0 1 0 0 1 0 0 
1 0 0 0 0 0 0 0 0 0 0 0 0 0 0 
0 0 0 1 0 0 1 0 0 0 0 2 2 0 1 
1 1 3 1 0 1 0 0 0 0 0 0 0 0 0 
0 0 0 0 0 0 0 0 0 0 0 0 0 0 0 
0 0 0 0 0 0 0 0 0 0 0 0 0 0 0 
0 0 0 0 0 0 0 0 0 0 0 0 0 0 0 
0 0 0 0 0 0 0 0 0 0 0 0 0 0 0 
0 0 0 0 0 0 0 0 0 0 0 0 0 0 0 
0 0 0 0 0 0 0 0 0 0 0 0 0 0 0 
0 0 0 0 0 0 0 0 0 0 0 0 0 0 0 
0 0 0 0 0 0 0 0 0 0 0 0 0 0 0 
0 0 0 0 0 0 0 0 0 0 0 0 0 0 0 
0 0 0 0 0 0 1 0 1 3 0 0 0 0 3 
0 0 4 2 0 0 1 0 0 1 0 0 1 0 0 
1 0 0 0 0 0 0 0 0 0 0 0 0 0 0 
0 0 0 1 0 0 1 0 0 0 0 2 3 0 0 
0 1 5 1 0 1 0 0 0 0 0 0 0 0 0 
0 0 0 0 0 0 0 0 0 0 0 0 0 0 0 
0 0 0 0 0 0 0 0 0 0 0 0 0 0 0 
0 0 0 0 0 0 0 0 0 0 0 0 0 0 0 
0 0 0 0 0 0 0 0 0 0 0 0 0 0 0 
0 0 0 0 0 0 0 0 0 0 0 0 0 0 0 
0 0 0 0 0 0 0 0 0 0 0 0 0 0 0 
0 0 0 0 0 0 0 0 0 0 0 0 0 0 0 
0 0 0 0 0 0 0 0 0 0 0 0 0 0 0 
0 0 0 0 0 0 0 0 0 0 0 0 0 0 0 
0 0 0 0 0 0 0 0 1 6 1 1 26 39 53 
8 43 75 10 41 72 10 41 72 10 41 72 10 41 72 
10 41 72 10 41 72 10 41 72 10 41 72 10 41 72 
10 41 72 10 41 72 10 41 72 10 41 73 11 42 69 
8 42 76 18 26 40 0 0 0 0 0 0 0 0 0 
0 0 0 0 0 0 0 0 0 0 0 0 0 0 0 
0 0 0 0 0 0 0 0 0 0 0 0 0 0 0 
0 0 0 0 0 0 0 0 0 0 0 0 0 0 0 
0 0 0 0 0 0 0 0 0 0 0 0 0 0 0 
0 0 0 0 0 0 0 0 0 0 0 0 0 0 0 
0 0 0 0 0 0 0 0 0 0 0 0 0 0 0 
0 0 0 0 0 0 0 0 0 0 0 0 0 0 0 
0 0 0 0 0 0 0 0 0 0 0 0 0 0 0 
0 0 0 0 0 0 0 0 0 0 0 0 0 0 0 
0 0 0 0 0 0 0 1 1 5 1 1 44 71 92 
17 110 175 2 111 191 2 112 192 2 112 191 2 111 191 
2 111 191 2 112 192 3 111 190 2 112 192 2 112 192 
2 111 191 2 112 191 2 112 192 3 112 191 2 113 191 
4 112 191 30 64 94 0 0 0 0 0 0 0 0 0 
0 0 0 0 0 0 0 0 0 0 0 0 0 0 0 
0 0 0 0 0 0 0 0 0 0 0 0 0 0 0 
0 0 0 0 0 0 0 0 0 0 0 0 0 0 0 
0 0 0 0 0 0 0 0 0 0 0 0 0 0 0 
0 0 0 0 0 0 0 0 0 0 0 0 0 0 0 
0 0 0 0 0 0 0 0 0 0 0 0 0 0 0 
0 0 0 0 0 0 0 0 0 0 0 0 0 0 0 
0 0 0 0 0 0 0 0 0 0 0 0 0 0 0 
0 0 0 0 0 0 0 0 0 0 0 0 0 0 0 
0 0 0 0 0 0 0 0 2 1 0 2 1 1 3 
28 46 59 24 105 164 4 112 191 1 113 193 1 113 193 
1 113 194 3 112 192 20 86 136 36 105 155 6 90 152 
5 90 152 34 124 185 14 113 182 1 112 193 1 113 193 
7 111 188 24 40 53 0 0 0 0 0 0 0 0 0 
0 0 0 0 0 0 0 0 0 0 0 0 0 0 0 
0 0 0 0 0 0 0 0 0 0 0 0 0 0 0 
0 0 0 0 0 0 0 0 0 0 0 0 0 0 0 
0 0 0 0 0 0 0 0 0 0 0 0 0 0 0 
0 0 0 0 0 0 0 0 0 0 0 0 0 0 0 
0 0 0 0 0 0 0 0 0 0 0 0 0 0 0 
0 0 0 0 0 0 0 0 0 0 0 0 0 0 0 
0 0 0 0 0 0 0 0 0 0 0 0 0 0 0 
0 0 0 0 0 0 0 0 0 0 0 0 0 0 0 
0 0 0 0 0 0 0 0 2 5 0 1 0 2 1 
4 1 0 27 65 97 7 111 183 1 113 193 0 113 193 
1 114 195 29 120 187 19 25 30 5 2 4 3 0 2 
1 0 3 6 9 16 6 20 39 11 116 189 1 112 192 
22 108 173 4 4 8 0 0 0 0 0 0 0 0 0 
0 0 0 0 0 0 0 0 0 0 0 0 0 0 0 
0 0 0 0 0 0 0 0 0 0 0 0 0 0 0 
0 0 0 0 0 0 0 0 0 0 0 0 0 0 0 
0 0 0 0 0 0 0 0 0 0 0 0 0 0 0 
0 0 0 0 0 0 0 0 0 0 0 0 0 0 0 
0 0 0 0 0 0 0 0 0 0 0 0 0 0 0 
0 0 0 0 0 0 0 0 0 0 0 0 0 0 0 
0 0 0 0 0 0 0 0 0 0 0 0 0 0 0 
0 0 0 0 0 0 0 0 0 0 0 0 0 0 0 
0 0 0 0 0 0 0 0 2 2 0 2 1 3 5 
3 2 2 26 86 131 1 114 196 0 113 195 1 112 191 
4 112 188 30 81 120 0 1 4 1 1 3 0 1 3 
0 1 1 2 1 0 6 7 8 28 109 167 2 112 193 
32 87 129 4 2 2 0 0 0 0 0 0 0 0 0 
0 0 0 0 0 0 0 0 0 0 0 0 0 0 0 
0 0 0 0 0 0 0 0 0 0 0 0 0 0 0 
0 0 0 0 0 0 0 0 0 0 0 0 0 0 0 
0 0 0 0 0 0 0 0 0 0 0 0 0 0 0 
0 0 0 0 0 0 0 0 0 0 0 0 0 0 0 
0 0 0 0 0 0 0 0 0 0 0 0 0 0 0 
0 0 0 0 0 0 0 0 0 0 0 0 0 0 0 
0 0 0 0 0 0 0 0 0 0 0 0 0 0 0 
0 0 0 0 0 0 0 0 0 0 0 0 0 0 0 
0 0 0 0 0 0 1 0 0 0 0 1 2 0 2 
4 5 10 19 107 170 1 113 193 2 112 190 1 113 193 
11 113 186 30 43 54 2 0 2 1 1 0 2 0 2 
1 0 2 1 2 4 2 1 3 28 87 131 2 112 190 
33 66 90 1 2 2 0 0 1 0 0 0 1 0 0 
0 1 1 1 0 1 0 1 3 0 1 2 1 1 3 
4 0 0 1 0 1 0 1 3 0 1 1 0 0 1 
0 1 0 1 0 0 0 0 1 1 1 0 1 1 0 
0 1 2 1 0 1 1 0 2 0 0 1 0 0 1 
1 0 1 1 0 2 1 1 1 1 0 0 1 1 1 
0 1 3 1 0 1 0 1 2 1 0 1 0 1 3 
0 0 1 1 0 1 1 0 2 1 0 1 0 0 1 
1 0 0 1 0 0 0 0 1 0 0 1 0 0 0 
0 0 0 0 0 0 0 0 0 0 0 0 0 0 0 
0 0 0 0 0 0 1 0 0 0 1 0 1 1 2 
28 40 52 5 112 189 1 112 194 2 112 193 1 112 192 
37 107 155 4 3 4 1 1 3 2 0 2 1 0 3 
1 1 1 4 3 3 2 2 2 27 59 85 21 117 183 
14 22 33 1 3 3 3 2 4 2 3 6 1 2 6 
1 1 4 3 1 4 1 1 4 2 1 5 2 3 7 
4 2 3 1 2 9 2 3 4 2 2 5 0 2 4 
2 1 3 0 2 6 2 3 7 1 3 5 2 1 5 
2 2 4 3 1 4 1 1 5 2 1 4 1 2 4 
0 2 9 5 2 4 1 5 6 1 2 6 2 3 8 
3 2 5 4 1 5 1 2 6 5 1 4 1 1 7 
3 1 4 0 2 5 1 1 5 2 1 4 0 2 4 
1 1 7 1 2 9 4 0 1 1 0 3 0 0 0 
0 0 0 0 0 0 0 0 0 0 0 0 0 0 0 
0 0 0 0 0 0 0 0 2 0 1 0 3 0 1 
25 65 98 3 112 189 1 113 193 1 113 193 6 111 189 
30 55 74 2 1 1 2 0 1 3 0 2 3 1 5 
5 1 1 59 92 118 48 69 85 21 27 33 89 131 158 
3 3 5 1 2 4 56 99 129 8 98 165 7 98 165 
8 97 166 6 98 164 6 98 166 6 97 168 10 97 159 
51 96 130 60 71 81 19 100 161 6 98 168 6 98 169 
6 98 167 9 97 161 11 97 161 53 84 110 43 51 62 
16 99 159 6 98 167 5 98 168 6 98 164 6 98 167 
8 98 161 6 100 165 21 98 154 76 103 125 11 98 159 
6 99 161 5 99 164 6 98 166 6 98 169 7 97 165 
6 97 167 5 99 165 5 99 167 7 98 168 6 98 165 
6 98 165 12 82 136 1 1 4 2 0 2 0 0 0 
0 0 0 0 0 0 0 0 0 0 0 0 0 0 0 
0 0 0 0 0 0 1 0 0 0 1 2 3 1 3 
32 101 154 1 113 191 0 113 193 2 113 190 42 122 178 
5 7 11 0 1 1 0 0 3 1 1 2 2 3 3 
28 51 73 13 113 181 23 52 74 2 2 1 3 1 3 
0 0 1 3 1 1 22 29 35 40 117 171 2 112 193 
1 113 195 3 112 190 1 112 194 29 110 168 31 61 82 
6 8 13 1 3 3 29 55 77 23 119 182 1 113 194 
4 112 188 24 101 159 24 51 72 5 7 10 5 2 4 
30 55 73 24 118 183 1 113 193 0 113 193 2 112 195 
21 112 177 44 92 123 19 29 39 32 94 141 3 112 196 
5 111 190 24 113 180 12 94 157 2 113 192 1 113 189 
0 113 194 9 115 191 25 103 162 12 89 150 5 112 191 
0 114 195 29 96 146 0 1 4 1 1 2 0 0 0 
0 0 0 0 0 0 0 0 0 0 0 0 0 0 0 
0 0 0 0 0 0 2 0 0 0 1 4 12 14 18 
21 116 183 1 113 193 0 114 195 3 114 187 26 66 98 
1 1 3 2 1 2 1 0 3 1 1 1 15 27 39 
22 117 182 21 115 185 13 17 21 1 1 1 0 1 2 
0 0 1 1 1 1 1 1 4 24 35 43 20 114 180 
1 113 193 2 112 193 2 112 194 23 77 119 4 2 3 
2 3 2 2 1 5 40 67 86 17 119 192 20 115 184 
44 75 100 7 8 11 3 1 4 1 2 2 2 2 5 
9 12 18 22 109 174 0 114 193 1 113 196 9 113 188 
22 45 65 2 1 5 30 45 59 7 113 186 5 114 191 
25 76 114 10 15 18 28 74 108 3 111 192 1 113 194 
1 113 195 37 105 157 3 7 17 1 5 12 40 115 171 
4 111 190 24 62 89 2 1 1 3 0 1 0 0 0 
0 0 0 0 0 0 0 0 0 0 0 0 0 0 0 
0 0 0 0 0 0 0 0 0 0 0 2 25 43 61 
7 112 189 2 112 190 2 112 193 19 112 185 42 58 70 
23 43 59 9 33 54 8 33 57 8 33 58 35 111 165 
2 113 194 21 81 127 2 3 6 0 0 0 0 0 0 
0 0 0 0 0 0 2 0 0 0 1 2 37 97 139 
2 112 190 0 113 193 2 112 193 23 103 163 1 3 8 
3 2 2 40 64 84 18 118 187 14 111 182 19 40 62 
3 1 1 1 1 2 0 1 2 1 0 1 2 2 2 
29 50 65 8 112 185 4 111 194 2 112 193 31 111 163 
11 11 12 3 2 5 28 80 120 7 114 189 27 73 109 
3 3 4 2 4 4 30 100 148 3 112 191 0 113 197 
4 111 187 29 55 76 1 2 3 4 2 1 28 79 120 
9 115 186 22 35 53 1 1 4 0 2 2 0 0 0 
0 0 0 0 0 0 0 0 0 0 0 0 0 0 0 
0 0 0 0 0 0 0 0 1 1 1 2 32 82 118 
1 112 193 2 112 192 2 113 196 3 113 191 5 111 190 
5 111 190 3 113 191 2 114 191 3 112 192 1 113 195 
3 112 190 32 64 84 1 2 2 0 0 0 0 0 0 
0 0 0 0 0 0 1 1 1 3 1 0 21 41 57 
9 112 186 0 113 193 3 112 191 12 113 187 11 23 32 
32 60 91 16 118 187 12 113 183 16 41 66 2 0 2 
0 1 6 3 0 0 1 0 2 1 0 1 3 2 2 
31 74 108 1 114 192 3 111 190 3 114 192 35 69 97 
2 1 5 19 25 33 32 116 176 39 83 118 0 2 3 
2 1 4 14 16 20 21 112 178 1 113 193 2 112 193 
29 114 176 13 15 20 1 1 2 2 2 3 31 47 62 
66 133 181 8 9 14 2 0 2 3 0 0 0 0 0 
0 0 0 0 0 0 0 0 0 0 0 0 0 0 0 
0 0 0 0 0 0 1 0 0 1 3 5 27 107 163 
1 112 191 1 112 194 10 113 184 26 115 173 11 97 163 
6 99 170 23 118 189 12 111 185 4 112 187 3 112 190 
23 119 188 21 28 34 2 2 1 0 0 0 0 0 0 
0 0 0 1 0 0 1 0 3 2 1 1 1 3 8 
31 107 160 2 113 189 1 113 196 4 111 188 33 96 145 
15 116 187 14 114 187 51 87 107 1 0 2 0 1 1 
1 0 1 0 1 3 1 0 1 0 0 1 2 3 3 
29 100 154 1 113 194 0 113 191 23 111 176 11 17 22 
4 0 1 17 17 21 49 66 81 1 3 4 2 0 3 
3 2 0 23 44 62 5 113 192 1 113 192 3 112 191 
31 70 104 1 1 4 0 1 3 2 3 4 5 4 6 
36 37 40 1 2 2 0 1 4 0 0 5 0 0 0 
0 0 0 0 0 0 0 0 0 0 0 0 0 0 0 
0 0 0 0 0 0 2 0 0 16 23 31 12 112 183 
1 112 193 0 113 194 42 111 159 1 2 6 1 2 5 
1 2 4 18 22 26 7 18 37 18 91 143 2 113 193 
33 101 153 2 2 2 3 1 2 0 0 0 0 0 0 
0 0 0 1 0 1 1 0 2 2 0 1 1 1 1 
28 65 90 5 112 188 0 114 194 3 112 191 1 113 196 
13 114 187 49 87 110 3 3 7 1 0 0 0 0 1 
0 0 1 0 0 1 2 0 0 1 1 3 10 16 22 
18 113 179 2 112 190 0 112 195 37 86 122 1 2 2 
0 0 1 0 1 3 4 0 0 3 0 1 0 2 5 
3 1 1 27 70 101 2 112 192 2 113 191 16 113 185 
17 26 34 1 0 2 0 0 2 1 1 0 1 1 1 
1 1 1 0 1 3 2 0 1 1 0 0 0 0 0 
0 0 0 0 0 0 0 0 0 0 0 0 0 0 0 
0 0 0 0 0 0 0 0 1 16 47 72 4 111 188 
1 112 191 6 113 191 27 52 73 1 2 2 1 0 0 
0 0 2 0 0 2 4 0 2 34 85 121 4 113 191 
30 62 91 2 0 0 0 1 5 0 0 0 0 0 0 
0 0 0 1 0 0 1 0 1 0 0 3 0 1 3 
10 15 22 29 120 181 2 112 194 2 112 188 7 116 193 
46 83 112 6 3 5 2 3 3 0 0 1 0 0 0 
0 0 0 0 0 0 3 1 0 2 0 1 22 42 60 
5 112 187 2 112 190 13 114 186 16 29 41 3 1 0 
0 0 0 0 0 0 0 0 0 1 0 0 1 0 1 
1 2 3 25 95 146 2 112 190 2 112 192 37 98 139 
2 2 3 1 0 0 0 0 0 0 0 0 0 0 0 
0 0 0 0 0 0 0 0 0 0 0 0 0 0 0 
0 0 0 0 0 0 0 0 0 0 0 0 0 0 0 
0 0 0 0 0 0 2 0 0 27 85 130 2 113 193 
0 113 195 27 114 175 14 14 16 1 1 1 0 0 2 
1 0 3 1 1 2 2 2 4 9 46 75 13 117 190 
20 25 37 2 2 3 4 2 1 0 0 0 0 0 0 
0 0 0 1 0 0 0 0 2 1 1 2 5 1 0 
1 3 5 42 111 161 1 113 193 3 111 190 20 116 185 
10 19 32 2 1 0 1 1 1 0 0 0 0 0 0 
0 0 0 0 0 0 1 0 0 1 1 1 21 69 106 
2 113 193 2 112 192 34 100 149 1 1 4 1 0 0 
0 0 0 0 0 0 0 0 0 0 0 3 3 0 1 
13 20 26 19 114 183 1 113 195 9 113 187 30 50 66 
1 1 2 0 0 0 0 0 0 0 0 0 0 0 0 
0 0 0 0 0 0 0 0 0 0 0 0 0 0 0 
0 0 0 0 0 0 0 0 0 0 0 0 0 0 0 
0 0 0 0 0 0 2 2 4 26 112 174 2 113 193 
2 113 190 39 79 105 4 2 5 1 1 4 1 1 0 
1 0 2 0 1 0 2 2 3 46 62 75 77 119 152 
5 5 9 65 114 150 63 83 99 0 0 0 0 0 0 
0 0 0 1 0 0 0 0 2 2 1 0 3 4 8 
44 86 122 6 112 187 3 112 191 0 113 194 5 112 187 
22 51 77 3 1 3 1 1 1 1 0 0 0 0 0 
0 0 0 0 0 0 0 1 2 2 2 6 31 109 162 
3 112 191 5 112 189 31 56 75 1 0 1 1 0 1 
0 0 0 0 0 0 0 0 0 0 0 0 1 0 1 
27 50 69 3 112 191 2 113 193 31 108 163 1 1 5 
1 0 2 0 0 0 0 0 0 0 0 0 0 0 0 
0 0 0 0 0 0 0 0 0 0 0 0 0 0 0 
0 0 0 0 0 0 0 0 0 0 0 1 0 0 1 
1 0 0 1 1 3 24 36 50 12 114 185 2 112 194 
20 116 179 16 22 29 0 0 2 0 0 1 1 0 0 
0 1 1 1 0 0 2 0 1 2 0 1 2 2 3 
35 76 106 15 113 183 28 38 47 1 0 1 0 0 3 
1 0 0 2 0 1 1 2 1 1 4 7 30 77 117 
9 113 186 6 113 195 35 119 173 2 113 193 3 111 194 
25 79 120 1 2 1 1 0 4 1 0 0 0 0 0 
0 0 0 0 0 0 2 2 2 12 18 25 20 121 190 
2 113 193 26 109 168 6 5 8 0 0 4 2 0 0 
0 0 0 0 0 0 0 0 0 3 0 0 1 2 3 
27 76 113 1 112 194 3 112 190 38 71 101 1 1 0 
1 0 2 0 0 1 0 0 0 0 0 0 0 0 0 
0 0 0 0 0 0 0 0 0 0 0 0 0 0 0 
0 0 0 0 0 0 0 0 0 0 0 0 0 0 1 
0 1 1 4 2 2 28 65 94 2 113 192 2 112 193 
28 83 121 2 0 1 0 0 0 0 0 0 0 0 0 
4 0 0 0 2 3 2 1 1 1 1 4 37 65 83 
12 116 191 38 103 149 1 2 3 0 1 2 4 0 0 
0 0 2 0 1 5 11 14 16 27 79 120 6 112 188 
7 113 187 22 72 108 22 30 43 17 115 180 2 112 193 
24 103 160 2 3 5 0 0 2 0 0 0 0 0 0 
0 0 0 0 0 0 1 2 5 30 54 71 6 111 186 
2 113 192 32 70 96 1 2 5 2 0 0 0 0 2 
0 0 0 0 0 0 0 0 0 0 1 4 1 3 7 
30 102 156 2 112 192 26 120 185 10 15 24 0 1 0 
2 0 1 1 0 0 0 0 0 0 0 0 0 0 0 
0 0 0 0 0 0 0 0 0 0 0 0 0 0 0 
0 0 0 0 0 0 0 0 0 1 0 0 1 0 2 
1 0 2 4 2 3 25 89 136 3 112 190 13 114 185 
21 37 53 2 0 0 0 0 0 0 0 0 0 0 0 
0 0 2 1 1 1 2 2 0 27 43 57 19 112 178 
6 111 187 31 52 66 3 2 5 1 0 1 1 0 2 
2 2 3 12 13 16 50 110 150 2 112 192 4 112 189 
40 100 138 4 4 6 1 2 5 34 91 134 1 113 191 
16 115 186 11 19 32 2 2 2 0 1 0 0 0 0 
0 0 0 0 0 0 2 1 1 28 80 116 3 112 193 
26 120 187 15 22 30 2 1 1 2 0 1 0 1 3 
0 0 0 0 0 0 0 0 0 2 1 2 11 15 21 
18 117 188 1 113 196 33 89 130 6 1 0 0 1 2 
2 0 0 0 0 0 0 0 0 0 0 0 0 0 0 
0 0 0 0 0 0 0 0 0 0 0 0 0 0 0 
0 0 0 0 0 0 0 0 0 1 0 0 1 0 4 
2 0 2 9 13 17 23 116 182 2 111 194 28 99 150 
5 3 6 0 1 0 0 0 0 0 0 0 0 0 0 
0 0 0 1 0 1 15 21 29 25 104 161 3 113 193 
36 110 166 1 4 8 2 1 2 1 0 2 1 1 2 
10 12 18 47 107 151 6 111 189 3 112 192 51 110 148 
10 12 18 4 3 1 3 2 3 31 46 58 12 115 190 
5 112 186 20 52 75 5 2 2 0 1 2 0 0 0 
0 0 0 0 0 0 3 4 7 27 105 161 2 113 190 
32 87 126 2 2 4 2 1 4 2 0 1 0 1 1 
0 0 0 0 0 0 0 0 0 1 1 1 23 46 64 
2 113 194 14 115 186 28 42 55 2 2 2 1 1 2 
1 0 1 0 0 1 0 0 0 0 0 0 0 0 0 
0 0 0 0 0 0 0 0 0 0 0 0 0 0 0 
2 0 2 2 1 2 2 0 1 1 1 0 2 2 3 
3 6 6 38 77 102 6 111 187 5 113 187 27 51 75 
3 3 6 2 2 6 6 9 15 28 43 55 8 29 49 
36 74 100 9 54 92 25 93 147 4 112 193 3 112 193 
31 63 90 1 0 2 1 1 2 4 1 1 7 12 18 
46 103 145 3 113 194 2 113 191 47 108 152 10 13 16 
3 1 1 3 0 1 2 1 4 2 4 10 29 95 143 
2 113 192 36 91 128 4 1 3 1 0 4 1 1 4 
3 2 5 3 2 5 14 18 30 12 115 188 14 116 189 
35 49 61 2 0 3 2 0 0 1 1 0 1 1 1 
1 1 2 2 2 3 3 2 2 2 2 3 34 86 124 
4 112 190 29 101 155 2 1 3 2 0 2 1 0 2 
1 0 1 0 0 0 0 0 0 0 0 0 0 0 0 
0 0 0 0 0 0 0 0 0 0 0 0 0 0 0 
1 0 2 2 0 1 1 1 3 2 4 8 26 58 82 
31 111 169 6 112 184 2 112 191 13 119 193 18 93 155 
18 103 157 24 119 191 5 111 190 6 111 190 4 111 189 
2 112 192 2 113 193 2 113 194 1 113 192 24 116 180 
7 11 17 2 1 2 3 4 6 29 55 70 35 111 166 
5 111 189 1 112 195 30 116 174 11 13 21 2 5 1 
3 1 6 1 1 1 5 2 2 21 35 49 35 111 161 
2 113 191 16 110 178 23 38 51 3 0 1 2 0 0 
3 3 1 26 32 40 32 85 126 4 112 190 18 116 185 
22 38 53 0 1 4 1 0 1 2 1 0 0 1 4 
3 2 4 3 1 1 4 6 10 35 59 79 18 107 171 
3 112 191 31 94 140 16 23 29 0 1 5 3 0 0 
0 1 2 0 0 0 0 0 0 0 0 0 0 0 0 
0 0 0 0 0 0 0 0 0 0 0 0 0 0 0 
0 1 1 7 7 10 37 64 89 27 106 168 4 111 188 
0 113 194 2 111 195 0 113 195 0 113 194 1 111 195 
0 115 189 3 111 192 1 111 192 0 112 192 0 113 194 
1 112 193 0 112 194 0 113 194 1 112 189 29 77 111 
5 2 2 33 53 69 29 104 159 4 112 185 2 112 189 
0 113 194 4 111 191 6 114 187 44 86 118 2 3 4 
7 1 2 32 44 60 28 91 137 11 117 187 1 113 193 
1 112 193 2 112 193 15 109 179 32 57 75 21 24 31 
36 87 128 26 121 187 1 114 192 1 113 193 3 113 191 
19 111 180 41 81 110 6 5 5 0 1 4 4 1 0 
13 14 13 37 66 88 31 114 172 5 111 187 1 113 194 
0 113 191 2 113 189 31 121 186 32 64 94 1 1 3 
1 1 2 0 0 1 0 0 0 0 0 0 0 0 0 
0 0 0 0 0 0 0 0 0 0 0 0 0 0 0 
1 0 0 8 10 13 35 58 78 7 46 79 7 45 76 
6 45 77 4 46 80 8 44 77 6 47 73 7 45 80 
7 45 76 5 45 79 6 45 78 6 45 78 6 46 77 
7 45 78 8 45 76 7 45 75 6 46 77 20 28 33 
2 3 4 28 46 59 7 46 79 7 44 78 5 45 80 
6 45 79 6 46 78 5 46 80 23 50 70 2 2 3 
4 0 1 38 54 64 6 46 74 7 46 77 7 45 76 
5 46 79 6 46 77 5 47 79 29 43 55 23 31 38 
9 45 74 7 46 77 6 45 81 6 45 76 5 46 82 
7 46 81 25 56 80 4 5 6 0 1 2 1 0 1 
13 15 17 31 58 79 6 46 81 7 45 73 6 45 78 
6 45 78 6 45 76 5 46 81 28 54 77 1 1 5 
1 1 0 0 0 0 0 0 0 0 0 0 0 0 0 
0 0 0 0 0 0 0 0 0 0 0 0 0 0 0 
0 0 0 0 0 0 0 0 0 0 0 0 0 0 0 
0 0 0 0 0 0 0 0 0 0 0 0 0 0 0 
0 0 0 0 0 0 0 0 0 0 0 0 0 0 0 
0 0 0 0 0 0 0 0 0 0 0 0 0 0 0 
0 0 0 0 0 0 0 0 0 0 0 0 0 0 0 
0 0 0 0 0 0 0 0 0 0 0 0 0 0 0 
0 0 0 0 0 0 0 0 0 0 0 0 0 0 0 
0 0 0 0 0 0 0 0 0 0 0 0 0 0 0 
0 0 0 0 0 0 0 0 0 0 0 0 0 0 0 
0 0 0 0 0 0 0 0 0 0 0 0 0 0 0 
0 0 0 0 0 0 0 0 0 0 0 0 0 0 0 
0 0 0 0 0 0 0 0 0 0 0 0 0 0 0 
0 0 0 0 0 0 0 0 0 0 0 0 0 0 0 
0 0 0 0 0 0 0 0 0 0 0 0 0 0 0 
0 0 0 0 0 0 0 0 0 0 0 0 0 0 0 
0 0 0 0 0 0 0 0 0 0 0 0 0 0 0 
0 0 0 0 0 0 0 0 0 0 0 0 0 0 0 
0 0 0 0 0 0 0 0 0 0 0 0 0 0 0 
0 0 0 0 0 0 0 0 0 0 0 0 0 0 0 
0 0 0 0 0 0 0 0 0 0 0 0 0 0 0 
0 0 0 0 0 0 0 0 0 0 0 0 0 0 0 
0 0 0 0 0 0 0 0 0 0 0 0 0 0 0 
0 0 0 0 0 0 0 0 0 0 0 0 0 0 0 
0 0 0 0 0 0 0 0 0 0 0 0 0 0 0 
0 0 0 0 0 0 0 0 0 0 0 0 0 0 0 
0 0 0 0 0 0 0 0 0 0 0 0 0 0 0 
0 0 0 0 0 0 0 0 0 0 0 0 0 0 0 
0 0 0 0 0 0 0 0 0 0 0 0 0 0 0 
0 0 0 0 0 0 0 0 0 0 0 0 0 0 0 
0 0 0 0 0 0 0 0 0 0 0 0 0 0 0 
0 0 0 0 0 0 0 0 0 0 0 0 0 0 0 
0 0 0 0 0 0 0 0 0 0 0 0 0 0 0 
0 0 0 0 0 0 0 0 0 0 0 0 0 0 0 
0 0 0 0 0 0 0 0 0 0 0 0 0 0 0 
0 0 0 0 0 0 0 0 0 0 0 0 0 0 0 
0 0 0 0 0 0 0 0 0 0 0 0 0 0 0 
0 0 0 0 0 0 0 0 0 0 0 0 0 0 0 
0 0 0 0 0 0 0 0 0 0 0 0 0 0 0 
0 0 0 0 0 0 0 0 0 0 0 0 0 0 0 
0 0 0 0 0 0 0 0 0 0 0 0 0 0 0 
0 0 0 0 0 0 0 0 0 0 0 0 0 0 0 
0 0 0 0 0 0 0 0 0 0 0 0 0 0 0 
