P3
# Created by IrfanView
30 30
255
36 177 78 51 182 77 87 197 70 70 188 77 37 178 76 
36 177 78 36 177 78 36 177 78 36 177 78 36 177 78 
36 177 78 36 177 78 36 177 78 36 177 78 36 177 78 
36 177 78 36 177 78 36 177 78 36 177 78 36 177 78 
36 177 78 36 177 78 36 177 78 36 177 78 36 177 78 
36 177 78 36 177 78 36 177 78 36 177 78 36 177 78 
35 178 79 135 211 58 182 229 28 182 229 29 144 216 57 
40 178 78 37 177 77 36 177 77 37 177 78 38 177 75 
49 182 71 58 186 70 48 181 72 38 177 76 36 177 78 
36 177 78 36 177 78 36 177 78 37 177 78 37 177 78 
37 177 78 37 177 78 37 177 78 37 177 78 37 177 78 
37 177 78 37 177 78 37 177 78 37 177 78 37 177 78 
35 177 77 156 220 50 181 229 29 182 229 28 182 229 31 
89 194 74 36 177 77 54 183 70 116 207 49 163 223 37 
180 229 31 182 229 28 180 229 30 164 224 37 119 206 49 
53 183 71 36 177 78 36 177 78 37 177 78 37 177 78 
37 177 78 37 177 78 37 177 78 37 177 78 37 177 78 
37 177 78 37 177 78 37 177 78 37 177 78 37 177 78 
37 177 78 104 200 70 180 229 34 182 229 30 181 229 30 
170 224 42 123 208 51 174 227 32 182 229 30 182 229 28 
182 229 28 181 229 28 181 229 28 182 229 28 182 229 30 
175 227 32 88 186 60 36 177 78 36 177 78 37 177 78 
37 177 78 37 177 78 37 177 78 37 177 78 37 177 78 
37 177 78 37 177 78 37 177 78 37 177 78 37 177 78 
36 177 78 35 178 77 80 193 71 143 216 53 179 230 37 
182 229 28 182 229 28 182 229 28 182 229 28 182 229 28 
182 229 28 182 229 28 182 229 29 182 229 28 182 229 28 
163 205 32 20 24 11 26 95 45 36 177 79 36 177 78 
36 177 78 36 177 78 36 177 78 36 177 78 36 177 78 
36 177 78 36 177 78 36 177 78 36 177 78 36 177 78 
36 177 78 36 177 78 36 177 78 36 177 78 81 192 65 
181 229 30 182 229 28 182 229 28 182 229 28 182 229 28 
137 173 29 46 57 18 55 68 20 155 197 33 182 229 28 
100 125 24 1 1 2 2 4 3 33 133 63 36 177 78 
36 177 78 36 177 78 36 177 78 36 177 78 37 177 77 
57 184 78 41 178 79 37 177 78 36 177 78 36 177 78 
37 177 78 37 177 78 37 177 78 36 177 77 146 218 40 
182 229 29 182 229 29 182 229 29 182 229 30 176 220 32 
14 18 7 0 0 2 0 0 2 42 53 19 182 229 32 
119 150 29 1 1 2 1 0 1 19 40 24 37 172 76 
36 177 78 36 177 78 37 177 79 44 179 78 142 216 56 
181 228 33 134 211 60 37 177 76 37 177 78 37 177 78 
37 177 78 37 177 78 36 177 79 60 185 66 179 230 31 
182 229 29 182 229 29 182 229 29 182 229 30 151 191 32 
0 1 2 0 0 0 0 0 0 4 6 4 182 227 40 
180 226 32 76 96 22 18 21 9 65 80 22 102 190 69 
35 178 77 37 177 77 36 177 78 108 202 64 181 229 29 
179 230 32 174 229 36 65 185 71 37 177 78 36 177 78 
37 177 78 37 177 78 35 178 78 93 197 58 182 229 28 
182 229 28 182 229 28 182 229 28 182 229 30 176 224 32 
26 33 14 0 0 2 0 0 1 52 66 22 182 229 28 
182 229 29 181 229 29 181 229 31 180 229 31 179 229 33 
140 213 53 115 205 61 118 206 60 171 224 37 167 211 33 
135 170 29 182 229 30 178 230 34 147 216 47 75 190 71 
36 177 78 36 177 78 35 177 78 109 204 52 182 229 28 
182 229 28 182 229 28 182 229 28 182 229 28 182 229 28 
157 197 31 72 92 24 82 104 24 170 213 31 182 229 28 
182 229 28 182 229 28 182 229 28 182 229 28 182 228 31 
182 229 29 181 229 28 182 229 28 182 229 28 151 190 31 
126 158 25 182 229 29 182 229 29 181 229 29 173 226 38 
37 177 78 37 177 78 36 177 79 105 202 54 181 229 28 
182 229 28 182 229 28 182 229 28 182 229 28 182 229 28 
181 229 29 181 230 28 181 229 29 182 229 28 182 229 28 
182 229 28 182 229 28 182 229 28 182 229 28 182 229 29 
182 229 28 182 229 28 182 229 28 182 229 29 155 195 30 
126 158 23 182 229 28 182 229 28 182 229 29 182 229 29 
37 177 78 37 177 78 36 177 77 84 194 62 181 230 27 
182 229 29 182 229 29 182 229 29 182 229 29 182 229 29 
182 229 29 182 229 29 182 229 29 182 229 29 182 229 29 
182 229 29 182 229 29 182 229 29 182 229 29 182 229 29 
182 229 29 182 229 28 182 229 29 182 228 30 167 209 34 
126 158 23 182 229 28 182 229 28 182 229 28 182 229 29 
37 177 78 37 177 78 37 177 78 48 181 73 175 228 32 
182 229 29 182 229 29 182 229 29 182 229 29 182 229 29 
182 229 29 182 229 29 182 229 29 182 229 29 182 229 29 
182 229 29 182 229 29 182 229 29 182 229 29 181 229 29 
175 227 36 162 223 44 163 222 46 182 229 33 150 191 30 
127 159 24 182 229 28 182 229 30 181 229 29 149 217 51 
36 177 78 36 177 78 36 177 78 35 177 78 123 209 47 
182 229 30 182 229 28 182 229 28 182 229 28 182 229 28 
182 229 28 182 229 28 182 229 28 182 229 28 182 229 28 
182 229 28 182 229 28 181 229 29 168 225 38 84 193 72 
45 179 78 35 177 78 36 177 78 101 201 72 176 223 31 
150 190 28 181 230 30 174 227 37 123 207 56 43 180 76 
36 177 78 36 177 78 36 177 78 36 177 78 48 182 73 
165 225 35 182 229 28 182 229 28 182 229 28 182 229 28 
182 229 28 182 229 28 182 229 28 182 229 28 182 229 28 
182 229 28 181 229 28 175 227 32 80 193 65 36 177 78 
36 177 78 36 177 78 36 177 78 53 182 78 178 230 35 
180 229 30 175 227 38 65 186 72 36 177 78 36 177 78 
37 177 78 37 177 78 37 177 78 37 177 78 36 177 78 
64 188 66 170 226 34 181 229 29 182 229 28 182 229 28 
182 229 28 182 229 28 182 229 28 182 229 28 182 229 29 
181 229 28 171 227 32 71 190 65 36 177 78 37 177 78 
37 177 78 37 177 78 37 177 78 36 177 78 101 199 69 
150 217 49 109 201 69 35 178 78 37 177 78 37 177 78 
37 177 78 37 177 78 37 177 78 37 177 78 37 177 78 
36 177 78 54 184 70 161 222 38 182 229 29 182 229 29 
182 229 29 182 229 29 182 229 29 182 229 29 182 229 30 
151 218 41 56 184 68 36 177 78 37 177 78 37 177 78 
37 177 78 37 177 78 37 177 78 37 177 78 36 177 77 
36 177 79 36 177 78 36 177 78 37 177 78 37 177 78 
37 177 78 37 177 78 37 177 78 37 177 78 37 177 78 
37 177 78 43 179 78 171 225 43 182 229 28 182 229 28 
182 229 28 182 229 28 182 229 28 182 229 28 182 229 29 
165 222 45 56 183 79 37 177 78 37 177 78 37 177 78 
37 177 78 37 177 78 37 177 78 37 177 78 37 177 78 
36 177 78 36 177 78 37 177 78 37 177 78 37 177 78 
36 177 78 36 177 78 36 177 78 36 177 78 36 177 78 
36 177 78 76 191 74 181 229 29 182 229 28 182 229 28 
182 229 28 182 229 28 182 229 28 182 229 28 182 229 28 
181 229 29 80 192 73 36 177 78 36 177 78 36 177 78 
36 177 78 36 177 78 36 177 78 36 177 78 36 177 78 
36 177 78 36 177 78 36 177 78 36 177 78 36 177 78 
36 177 78 36 177 78 36 177 78 36 177 78 36 177 78 
36 177 78 52 181 77 157 221 52 182 229 29 182 229 28 
182 229 28 182 229 28 182 229 28 182 229 28 180 229 31 
161 222 48 49 180 78 36 177 78 36 177 78 36 177 78 
36 177 78 36 177 78 36 177 78 36 177 78 36 177 78 
36 177 78 36 177 78 36 177 78 36 177 78 36 177 78 
37 177 78 37 177 78 37 177 78 36 177 78 35 177 78 
36 177 78 36 177 77 39 178 76 161 223 36 182 229 28 
182 229 28 182 229 28 182 229 28 175 227 32 85 195 73 
41 177 77 36 177 79 35 178 78 37 177 77 36 177 78 
36 177 78 36 177 78 37 177 78 37 177 78 37 177 78 
37 177 78 37 177 78 37 177 78 37 177 78 37 177 78 
37 177 78 37 177 78 36 177 78 78 190 75 117 205 62 
90 196 70 42 177 77 36 177 76 158 222 36 182 229 28 
182 229 29 182 229 29 182 229 29 170 225 33 37 177 76 
36 177 78 75 190 75 145 215 52 163 222 45 159 221 47 
90 195 69 37 177 78 37 177 78 37 177 78 37 177 78 
37 177 78 37 177 78 37 177 78 37 177 78 37 177 78 
37 177 78 37 177 78 37 177 77 164 223 45 182 229 30 
181 229 30 166 224 42 72 188 74 158 222 37 182 229 28 
182 229 28 182 229 28 182 229 28 170 225 34 37 177 77 
75 189 73 179 229 34 182 229 29 182 229 28 182 229 29 
179 229 35 65 186 76 36 177 78 37 177 78 37 177 78 
37 177 78 37 177 78 37 177 78 37 177 78 37 177 78 
36 177 78 36 177 78 48 180 79 181 229 35 182 229 28 
182 229 29 180 230 28 170 225 43 169 225 37 181 229 28 
182 229 28 182 229 28 182 229 28 170 225 33 51 182 75 
166 225 41 181 229 28 182 229 28 182 229 28 182 229 28 
181 229 28 121 206 61 35 178 78 36 177 78 36 177 78 
36 177 78 36 177 78 36 177 78 36 177 78 36 177 78 
36 177 78 37 177 78 49 180 79 179 229 36 182 229 28 
182 229 29 182 229 28 181 229 29 182 229 28 182 229 28 
182 229 28 182 229 28 182 229 28 170 225 34 118 205 61 
182 229 28 182 229 28 182 229 28 182 229 28 182 229 28 
182 229 30 133 213 46 36 177 79 36 177 78 36 177 78 
36 177 78 36 177 78 36 177 78 36 177 78 36 177 78 
37 177 78 37 177 78 36 177 77 152 217 55 181 229 29 
182 229 29 182 229 29 182 229 29 182 229 29 182 229 29 
182 229 29 182 229 29 182 229 29 179 228 31 178 228 37 
183 229 31 182 229 29 182 229 28 182 229 29 182 229 28 
182 229 29 99 200 58 37 177 78 37 177 78 37 177 78 
37 177 78 37 177 78 37 177 78 37 177 78 37 177 78 
37 177 78 37 177 78 36 177 77 62 185 75 172 226 40 
180 230 29 182 229 29 182 229 29 182 229 29 182 229 29 
182 229 29 182 229 29 182 229 29 182 229 29 182 229 30 
182 228 29 182 229 29 182 229 29 182 228 29 174 228 36 
123 208 48 40 178 75 37 177 78 37 177 78 37 177 78 
37 177 78 37 177 78 37 177 78 37 177 78 37 177 78 
37 177 78 37 177 78 37 177 78 37 177 78 63 186 76 
151 218 52 182 229 31 181 229 28 181 229 28 182 229 29 
182 229 29 182 229 29 182 229 29 182 229 29 181 230 28 
182 228 31 177 227 39 134 210 55 87 194 73 43 179 76 
34 178 77 36 177 77 37 177 78 37 177 78 37 177 78 
37 177 78 37 177 78 37 177 78 37 177 78 37 177 78 
36 177 78 36 177 78 36 177 78 36 177 78 36 177 78 
37 177 76 73 191 76 108 204 64 123 207 58 123 207 59 
123 208 59 122 208 58 122 208 59 122 208 58 119 205 62 
85 194 73 48 180 77 35 178 77 36 177 78 36 177 78 
36 177 78 36 177 78 36 177 78 36 177 78 36 177 78 
36 177 78 36 177 78 36 177 78 36 177 78 36 177 78 
37 177 78 37 177 78 37 177 78 37 177 78 37 177 78 
36 177 78 36 177 79 37 177 78 36 177 78 37 176 78 
38 176 78 38 176 78 38 176 78 37 177 78 36 177 78 
36 177 79 36 177 77 36 177 78 37 177 78 37 177 78 
37 177 78 37 177 78 37 177 78 37 177 78 37 177 78 
37 177 78 37 177 78 37 177 78 37 177 78 37 177 78 
