P3
# Created by IrfanView
30 30
255
36 177 78 36 177 78 36 177 78 36 177 78 36 177 78 
36 177 78 36 177 78 36 177 78 36 177 78 36 177 78 
36 177 78 35 178 78 36 178 78 36 177 79 35 177 79 
35 177 79 37 177 78 36 177 78 37 177 78 37 177 78 
37 177 78 37 177 78 37 177 78 37 177 78 37 177 78 
37 177 78 36 177 78 36 177 78 36 177 78 36 177 78 
37 177 78 37 177 78 37 177 78 37 177 78 37 177 78 
37 177 78 37 177 78 37 177 78 36 177 78 36 177 78 
47 180 76 42 179 77 37 177 78 37 177 78 37 177 78 
37 177 78 37 177 78 37 177 78 37 177 78 37 177 78 
37 177 78 37 177 78 37 177 78 37 177 78 37 177 78 
37 177 78 37 177 78 37 177 78 37 177 78 37 177 78 
37 177 78 37 177 78 37 177 78 37 177 78 37 177 78 
37 177 78 37 177 78 37 177 78 50 181 77 164 215 46 
192 224 32 38 177 78 37 177 78 37 177 78 37 177 78 
37 177 78 37 177 78 37 177 78 37 177 78 37 177 78 
37 177 78 37 177 78 37 177 78 37 177 78 37 177 78 
37 177 78 37 177 78 37 177 78 37 177 78 37 177 78 
37 177 78 37 177 78 37 177 78 37 177 78 37 177 78 
36 177 79 36 177 79 84 190 71 223 232 24 253 241 4 
132 205 45 73 188 65 37 177 78 37 177 78 37 177 78 
37 177 78 37 177 78 37 177 78 37 177 78 37 177 78 
37 177 78 37 177 78 37 177 78 37 177 78 37 177 78 
37 177 78 37 177 78 37 177 78 37 177 78 37 177 78 
36 177 78 36 177 78 36 177 78 36 177 78 36 177 78 
35 178 78 127 203 62 247 240 12 254 241 1 254 241 1 
254 241 1 61 184 70 37 177 78 37 177 78 37 177 78 
37 177 78 37 177 78 37 177 78 37 177 78 37 177 78 
37 177 78 37 177 78 37 177 78 37 177 78 37 177 78 
37 177 78 36 177 78 36 177 78 36 177 78 36 177 78 
36 177 78 36 177 78 36 177 78 35 178 77 36 177 77 
153 211 55 252 241 5 254 241 1 254 241 1 254 241 1 
253 241 1 120 202 49 37 177 78 37 177 78 37 177 78 
37 177 78 37 177 78 37 177 78 37 177 78 37 177 78 
37 177 78 37 177 78 37 177 78 37 177 78 37 177 78 
37 177 78 36 177 78 36 177 78 36 177 78 36 177 78 
37 177 78 37 177 78 37 177 78 37 177 77 73 188 71 
250 241 7 254 241 2 254 241 2 254 241 2 254 241 2 
254 241 3 254 241 3 164 215 34 148 210 38 65 185 68 
37 177 78 37 177 78 37 177 78 37 177 78 37 177 78 
37 177 78 37 177 78 37 177 78 37 177 78 37 177 78 
37 177 78 37 177 78 37 177 78 37 177 78 37 177 78 
37 177 78 37 177 78 37 177 78 36 177 78 171 216 45 
254 241 2 254 241 2 254 241 3 254 241 3 253 242 35 
253 247 118 252 248 134 253 245 71 254 241 5 153 212 37 
37 177 78 80 190 63 37 177 78 37 177 78 37 177 78 
37 177 78 37 177 78 37 177 78 37 177 78 37 177 78 
37 177 78 37 177 78 37 177 78 37 177 78 37 177 78 
37 177 78 37 177 78 37 177 78 39 178 78 232 235 21 
254 241 1 254 241 1 254 241 2 252 245 81 253 253 241 
255 255 255 254 255 254 253 253 251 252 249 166 198 225 27 
177 219 29 187 221 26 37 177 78 37 177 78 38 177 79 
37 177 78 37 177 78 37 177 78 37 177 78 37 177 78 
37 177 78 37 177 78 37 177 78 37 177 78 37 177 78 
36 177 78 36 177 78 36 177 78 66 186 76 252 241 6 
254 241 1 254 241 1 253 242 28 254 253 238 255 255 255 
255 255 255 167 167 167 61 61 61 89 89 88 226 221 87 
254 241 5 222 237 97 164 222 180 137 213 159 133 187 149 
37 177 78 37 177 78 37 177 78 37 177 78 37 177 78 
37 177 78 37 177 78 37 177 78 36 177 78 36 177 78 
37 177 78 37 177 78 35 178 76 94 194 67 253 242 2 
254 241 1 254 241 2 253 246 109 254 255 254 255 255 255 
201 201 201 3 3 3 0 0 0 0 0 0 65 63 25 
253 241 6 253 252 208 255 255 254 234 234 234 21 63 33 
37 177 78 37 177 78 37 177 78 37 177 78 37 177 78 
37 177 78 37 177 78 37 177 78 37 177 78 37 177 78 
37 177 78 37 177 78 36 177 78 127 204 54 254 241 1 
254 241 2 254 241 3 253 249 144 255 255 255 255 255 255 
136 136 136 0 0 0 0 0 0 0 0 1 6 4 4 
246 236 10 253 254 235 255 255 255 194 194 194 11 54 24 
37 177 78 27 128 56 26 126 55 37 177 78 37 177 78 
37 177 78 37 177 78 37 177 78 37 177 78 37 177 78 
37 177 78 37 177 78 36 177 77 160 214 45 254 241 2 
254 241 2 253 241 4 253 246 109 255 255 254 255 255 255 
179 179 179 1 1 1 0 0 0 0 0 0 42 41 12 
253 241 7 253 251 197 255 255 254 242 242 242 24 36 28 
14 66 29 1 2 1 22 100 46 62 185 74 56 183 71 
41 178 76 37 177 78 37 177 78 37 177 78 37 177 78 
36 177 78 36 177 78 37 177 79 203 227 30 254 241 1 
254 241 1 254 241 1 252 243 25 254 253 236 255 255 255 
254 254 254 112 112 112 10 10 10 36 36 36 198 192 59 
254 241 4 251 246 93 254 254 251 255 255 255 199 199 199 
62 62 62 49 49 50 160 158 128 253 241 15 254 242 4 
104 197 54 37 177 78 37 177 78 36 177 78 36 177 78 
36 177 78 36 177 78 37 176 77 238 238 18 254 241 1 
254 241 1 254 241 1 254 241 3 253 245 79 253 253 238 
255 255 254 255 255 255 250 249 248 251 247 160 252 242 8 
254 241 1 254 241 5 252 248 130 254 253 244 255 255 255 
254 255 253 252 251 216 253 243 50 254 241 1 253 242 10 
139 207 44 51 181 73 37 177 78 36 177 78 36 177 78 
37 177 78 37 177 78 52 181 78 252 241 7 254 241 1 
254 241 1 254 241 1 254 241 1 254 241 3 252 244 33 
253 247 113 252 248 129 253 244 68 254 241 3 254 242 1 
254 241 2 254 241 1 254 241 2 253 243 35 253 245 90 
252 245 73 253 242 10 254 242 2 254 241 1 254 242 1 
254 241 2 246 239 5 105 198 62 37 177 78 37 177 78 
37 177 78 37 177 78 62 184 77 253 242 5 254 241 2 
254 241 2 254 241 2 254 241 2 254 241 2 254 241 2 
254 241 3 254 241 3 254 241 3 254 241 2 254 241 2 
254 241 2 254 241 2 254 241 2 254 242 1 254 242 2 
254 241 3 254 241 2 254 241 2 254 241 2 254 241 2 
254 241 2 253 241 3 115 201 59 37 177 78 37 177 78 
37 177 78 37 177 78 70 187 75 253 242 3 254 241 1 
254 241 1 254 241 1 254 241 1 254 241 1 254 241 1 
254 241 1 254 241 1 254 241 1 254 241 1 241 229 1 
240 228 1 254 241 1 254 241 1 254 241 1 254 241 1 
254 241 1 254 241 1 254 241 1 254 241 1 254 241 1 
254 241 1 253 241 2 115 201 59 37 177 78 37 177 78 
36 177 78 36 177 78 69 187 75 253 242 3 254 241 1 
254 241 1 254 241 1 254 241 1 254 241 1 254 241 1 
249 237 1 180 171 1 147 140 1 152 144 1 168 160 1 
168 159 1 151 143 1 147 140 1 210 199 1 254 241 1 
254 241 1 254 241 1 254 241 1 254 241 1 254 241 1 
254 241 1 253 241 3 115 201 59 36 177 78 36 177 78 
36 177 78 36 177 78 69 187 73 253 242 4 254 241 1 
254 241 1 254 241 1 254 241 1 214 203 1 149 141 1 
151 143 1 221 210 1 254 241 1 254 241 1 254 241 1 
254 241 1 254 241 1 254 241 1 188 179 1 144 137 1 
203 193 1 254 241 1 254 241 1 254 241 1 254 241 1 
254 241 2 254 242 8 115 201 59 36 177 78 36 177 78 
37 177 78 37 177 78 78 190 69 253 241 5 254 241 1 
254 241 1 254 241 1 254 241 1 198 188 1 252 239 1 
254 241 1 254 241 1 254 241 1 254 241 1 254 241 1 
254 241 1 254 241 1 254 241 1 254 241 1 254 241 1 
194 185 1 194 184 1 254 241 1 254 241 1 254 241 1 
254 241 1 253 242 3 115 201 59 37 177 78 37 177 78 
37 177 78 36 177 78 104 198 63 253 241 6 254 241 2 
254 241 2 254 241 2 254 241 2 254 241 2 254 241 2 
254 241 2 254 241 2 254 241 2 254 241 2 254 241 2 
254 241 2 254 241 2 254 241 2 254 241 2 254 241 2 
254 241 2 254 241 2 254 241 2 254 241 2 254 241 2 
254 241 3 253 241 3 115 201 59 37 177 78 37 177 78 
37 177 78 36 177 79 150 210 47 253 242 4 254 241 1 
254 241 1 254 241 1 254 241 1 254 241 1 254 241 1 
254 241 1 254 241 1 254 241 1 254 241 1 254 241 1 
254 241 1 254 241 1 254 241 1 254 241 1 254 241 1 
254 241 1 254 241 1 254 241 1 254 241 1 254 241 1 
254 241 3 253 241 3 115 201 59 37 177 78 37 177 78 
36 177 78 35 178 77 142 208 53 254 242 1 254 241 1 
254 241 1 254 241 1 254 241 1 254 241 1 254 241 1 
254 241 1 254 241 1 254 241 1 254 241 1 254 241 1 
254 241 1 254 241 1 254 241 1 254 241 1 254 241 1 
254 241 1 254 241 1 254 241 1 254 241 1 254 241 1 
254 241 1 253 241 2 115 201 59 36 177 78 36 177 78 
36 177 78 36 177 78 138 208 52 254 241 4 254 241 1 
254 241 1 254 241 1 254 241 1 254 241 1 254 241 1 
254 241 1 254 241 1 254 241 1 254 241 1 254 241 1 
254 241 1 254 241 1 254 241 1 254 241 1 254 241 1 
254 241 1 254 241 1 254 241 1 254 241 1 254 241 1 
254 241 1 253 241 2 115 201 59 36 177 78 36 177 78 
37 177 78 37 177 78 138 207 50 254 242 5 254 241 2 
254 241 2 254 241 2 254 241 2 254 241 2 254 241 2 
254 241 2 254 241 1 254 242 3 254 241 2 254 241 2 
254 241 3 254 241 2 254 241 2 254 241 2 254 241 2 
254 241 2 254 241 2 254 241 2 254 241 2 254 241 2 
254 241 2 253 241 3 115 201 59 37 177 78 37 177 78 
37 177 78 37 177 78 136 207 58 250 243 15 249 242 14 
249 242 14 249 242 14 249 242 14 249 242 14 248 242 16 
241 238 16 222 232 21 218 230 24 205 227 29 176 219 38 
167 216 42 166 216 42 184 221 36 217 230 25 233 234 21 
249 242 15 249 242 14 249 242 14 249 242 14 249 242 14 
249 242 14 246 241 17 98 196 66 37 177 78 37 177 78 
37 177 78 37 177 78 41 179 79 41 176 74 39 176 75 
38 176 74 39 176 75 39 176 75 38 176 75 40 175 77 
36 177 77 34 178 79 35 178 79 35 177 79 35 178 79 
37 177 77 36 178 79 35 178 78 36 177 78 35 178 76 
39 176 75 38 176 74 39 176 75 38 176 74 38 176 74 
39 176 75 39 176 76 35 178 78 37 177 78 37 177 78 
36 177 78 36 177 78 36 177 78 36 177 78 36 177 78 
36 177 78 36 177 78 36 177 78 36 177 78 36 177 78 
36 177 78 36 177 78 36 177 78 36 177 78 36 177 78 
36 177 78 36 177 78 36 177 78 36 177 78 36 177 78 
36 177 78 36 177 78 36 177 78 36 177 78 36 177 78 
36 177 78 36 177 78 36 177 78 36 177 78 36 177 78 
37 177 78 37 177 78 37 177 78 37 177 78 37 177 78 
37 177 78 37 177 78 37 177 78 37 177 78 37 177 78 
37 177 78 37 177 78 37 177 78 37 177 78 37 177 78 
37 177 78 37 177 78 37 177 78 37 177 78 37 177 78 
37 177 78 37 177 78 37 177 78 37 177 78 37 177 78 
37 177 78 37 177 78 37 177 78 37 177 78 37 177 78 
