P3
# Created by IrfanView
30 30
255
36 177 78 36 177 78 36 177 78 36 177 78 36 177 78 
36 177 78 36 177 78 36 177 78 37 177 78 37 177 78 
37 177 78 36 178 78 36 178 78 36 177 79 35 177 79 
35 177 79 37 177 78 36 177 78 37 177 78 37 177 78 
37 177 78 37 177 78 37 177 78 37 177 78 37 177 78 
37 177 78 36 177 78 36 177 78 36 177 78 36 177 78 
37 177 78 37 177 78 37 177 78 37 177 78 37 177 78 
37 177 78 37 177 78 37 177 78 37 177 78 37 177 78 
37 177 78 37 177 78 37 177 78 37 177 78 37 177 78 
37 177 78 37 177 78 37 177 78 37 177 78 37 177 78 
37 177 78 37 177 78 37 177 78 37 177 78 37 177 78 
37 177 78 37 177 78 37 177 78 37 177 78 37 177 78 
37 177 78 37 177 78 37 177 78 37 177 78 37 177 78 
37 177 78 37 177 78 37 177 78 37 177 78 37 177 78 
37 177 78 37 177 78 37 177 78 37 177 78 37 177 78 
37 177 78 37 177 78 37 177 78 37 177 78 37 177 78 
37 177 78 37 177 78 37 177 78 37 177 78 37 177 78 
37 177 78 37 177 78 37 177 78 37 177 78 37 177 78 
37 177 78 37 177 78 37 177 78 37 177 78 37 177 78 
37 177 78 37 177 78 37 177 78 37 177 78 37 177 78 
37 177 78 37 177 78 37 177 78 37 177 78 37 177 78 
37 177 78 37 177 78 37 177 78 37 177 78 37 177 78 
37 177 78 37 177 78 37 177 78 37 177 78 37 177 78 
37 177 78 37 177 78 37 177 78 37 177 78 37 177 78 
37 177 78 37 177 78 37 177 78 37 177 78 37 177 78 
37 177 78 37 177 78 37 177 78 37 177 78 37 177 78 
37 177 78 37 177 78 37 177 78 37 177 78 37 177 78 
37 177 78 37 177 78 37 177 78 37 177 78 37 177 78 
37 177 78 37 177 78 37 177 78 37 177 78 37 177 78 
37 177 78 36 177 78 36 177 78 36 177 78 36 177 78 
37 177 78 37 177 78 37 177 78 37 177 78 37 177 78 
37 177 78 37 177 78 37 177 78 37 177 78 37 177 78 
37 177 78 37 177 78 37 177 78 37 177 78 37 177 78 
37 177 78 37 177 78 37 177 78 37 177 78 37 177 78 
37 177 78 37 177 78 37 177 78 37 177 78 37 177 78 
37 177 78 36 177 78 36 177 78 36 177 78 36 177 78 
37 177 78 37 177 78 37 177 78 37 177 78 37 177 78 
37 177 78 37 177 78 37 177 78 37 177 78 37 177 78 
37 177 78 37 177 78 37 177 78 37 177 78 37 177 78 
37 177 78 37 177 78 37 177 78 37 177 78 37 177 78 
37 177 78 37 177 78 37 177 78 37 177 78 37 177 78 
37 177 78 37 177 78 37 177 78 37 177 78 37 177 78 
37 177 78 37 177 78 37 177 78 36 177 78 37 177 78 
37 177 78 37 177 78 37 177 78 37 177 78 37 177 78 
37 177 78 37 177 78 37 177 78 37 177 78 37 177 78 
37 177 78 37 177 78 37 177 78 37 177 78 37 177 78 
37 177 78 37 177 78 37 177 78 37 177 78 37 177 78 
37 177 78 37 177 78 37 177 78 37 177 78 37 177 78 
37 177 78 37 177 78 37 177 78 36 177 78 37 177 78 
37 177 78 37 177 78 37 177 78 37 177 78 37 177 78 
37 177 78 37 177 78 37 177 78 37 177 78 37 177 78 
37 177 78 37 177 78 37 177 78 37 177 78 37 177 78 
37 177 78 37 177 78 37 177 78 37 177 78 37 177 78 
37 177 78 37 177 78 37 177 78 37 177 78 37 177 78 
36 177 78 36 177 78 36 177 78 37 177 78 37 177 78 
37 177 78 37 177 78 37 177 78 37 177 78 37 177 78 
37 177 78 37 177 78 37 177 78 37 177 78 37 177 78 
37 177 78 37 177 78 37 177 78 37 177 78 37 177 78 
37 177 78 37 177 78 37 177 78 37 177 78 37 177 78 
37 177 78 37 177 78 37 177 78 36 177 78 36 177 78 
37 177 78 37 177 78 35 178 76 91 193 68 154 212 37 
67 186 67 41 178 77 41 178 77 37 177 78 37 177 78 
36 174 77 36 172 76 37 177 78 37 177 78 37 177 78 
37 177 78 37 177 78 37 177 78 37 177 78 37 177 78 
37 177 78 37 177 78 37 177 78 37 177 78 37 177 78 
37 177 78 37 177 78 37 177 78 37 177 78 37 177 78 
37 177 78 37 177 78 36 177 78 127 204 54 252 241 2 
178 219 28 186 221 26 211 234 113 159 221 177 205 237 215 
129 134 130 21 101 44 37 176 78 35 167 74 36 174 77 
37 177 78 37 177 78 37 177 78 37 177 78 37 177 78 
37 177 78 37 177 78 37 177 78 37 177 78 37 177 78 
37 177 78 37 177 78 37 177 78 37 177 78 37 177 78 
37 177 78 37 177 78 36 177 77 160 214 45 254 241 2 
254 241 2 253 241 4 253 246 109 255 255 254 255 255 255 
179 179 179 2 8 4 21 100 44 8 38 17 44 94 37 
55 182 72 37 177 78 37 177 78 37 177 78 37 177 78 
37 177 78 37 177 78 37 177 78 37 177 78 37 177 78 
37 177 78 37 177 78 37 177 78 37 177 78 37 177 78 
36 177 78 36 177 78 37 177 79 203 227 30 254 241 1 
254 241 1 254 241 1 252 243 25 254 253 236 255 255 255 
254 254 254 112 112 112 10 10 10 36 36 36 198 192 59 
238 236 9 171 219 70 158 220 174 68 188 102 41 178 81 
36 174 77 37 177 78 37 177 78 37 177 78 37 177 78 
37 177 78 37 177 78 37 177 78 37 177 78 36 177 78 
36 177 78 36 177 78 37 176 77 238 238 18 254 241 1 
254 241 1 254 241 1 254 241 3 253 245 79 253 253 238 
255 255 254 255 255 255 250 249 248 251 247 160 252 242 8 
254 241 1 254 241 5 252 248 130 254 253 244 187 231 200 
86 195 118 37 177 78 37 177 78 37 177 78 37 177 78 
37 177 78 37 177 78 37 177 78 37 177 78 36 177 78 
37 177 78 37 177 78 52 181 78 252 241 7 254 241 1 
254 241 1 254 241 1 254 241 1 254 241 3 252 244 33 
253 247 113 252 248 129 253 244 68 254 241 3 254 242 1 
254 241 2 254 241 1 254 241 2 253 243 35 253 245 90 
230 238 69 91 193 58 53 180 130 15 168 171 17 169 160 
21 171 142 31 175 102 41 178 78 37 177 78 37 177 78 
37 177 78 37 177 78 62 184 77 253 242 5 254 241 2 
254 241 2 254 241 2 254 241 2 254 241 2 254 241 2 
254 241 3 254 241 3 254 241 3 254 241 2 254 241 2 
254 241 2 254 241 2 254 241 2 254 242 1 254 242 2 
254 241 3 254 241 2 148 208 98 0 162 232 0 162 232 
0 162 232 1 163 227 36 176 89 37 177 78 37 177 78 
37 177 78 37 177 78 70 187 75 253 242 3 254 241 1 
254 241 1 254 241 1 254 241 1 254 241 1 254 241 1 
254 241 1 254 241 1 254 241 1 254 241 1 241 229 1 
240 228 1 254 241 1 254 241 1 254 241 1 254 241 1 
254 241 1 254 241 1 200 224 50 0 162 232 0 162 232 
0 162 232 0 162 232 72 188 98 37 177 78 37 177 78 
36 177 78 36 177 78 69 187 75 253 242 3 254 241 1 
254 241 1 254 241 1 254 241 1 254 241 1 254 241 1 
249 237 1 180 171 1 147 140 1 152 144 1 168 160 1 
168 159 1 151 143 1 147 140 1 210 199 1 254 241 1 
254 241 1 254 241 1 250 240 5 28 171 206 0 162 232 
0 162 232 24 169 211 111 200 63 36 177 78 36 177 78 
36 177 78 36 177 78 69 187 73 253 242 4 254 241 1 
254 241 1 254 241 1 254 241 1 214 203 1 149 141 1 
151 143 1 221 210 1 254 241 1 254 241 1 254 241 1 
254 241 1 254 241 1 254 241 1 188 179 1 144 137 1 
203 193 1 254 241 1 254 241 1 196 223 54 96 192 144 
108 196 134 205 227 49 115 201 59 36 177 78 36 177 78 
37 177 78 37 177 78 78 190 69 253 241 5 254 241 1 
254 241 1 254 241 1 254 241 1 198 188 1 252 239 1 
254 241 1 254 241 1 254 241 1 254 241 1 254 241 1 
254 241 1 254 241 1 254 241 1 254 241 1 254 241 1 
194 185 1 194 184 1 254 241 1 254 241 1 254 241 1 
254 241 1 253 242 3 115 201 59 37 177 78 37 177 78 
37 177 78 36 177 78 104 198 63 253 241 6 254 241 2 
254 241 2 254 241 2 254 241 2 254 241 2 254 241 2 
254 241 2 254 241 2 254 241 2 254 241 2 254 241 2 
254 241 2 254 241 2 254 241 2 254 241 2 254 241 2 
254 241 2 254 241 2 254 241 2 254 241 2 254 241 2 
254 241 3 253 241 3 115 201 59 37 177 78 37 177 78 
37 177 78 36 177 79 150 210 47 253 242 4 254 241 1 
254 241 1 254 241 1 254 241 1 254 241 1 254 241 1 
254 241 1 254 241 1 254 241 1 254 241 1 254 241 1 
254 241 1 254 241 1 254 241 1 254 241 1 254 241 1 
254 241 1 254 241 1 254 241 1 254 241 1 254 241 1 
254 241 3 253 241 3 115 201 59 37 177 78 37 177 78 
36 177 78 35 178 77 142 208 53 254 242 1 254 241 1 
254 241 1 254 241 1 254 241 1 254 241 1 254 241 1 
254 241 1 254 241 1 254 241 1 254 241 1 254 241 1 
254 241 1 254 241 1 254 241 1 254 241 1 254 241 1 
254 241 1 254 241 1 254 241 1 254 241 1 254 241 1 
254 241 1 253 241 2 115 201 59 36 177 78 36 177 78 
36 177 78 36 177 78 138 208 52 254 241 4 254 241 1 
254 241 1 254 241 1 254 241 1 254 241 1 254 241 1 
254 241 1 254 241 1 254 241 1 254 241 1 254 241 1 
254 241 1 254 241 1 254 241 1 254 241 1 254 241 1 
254 241 1 254 241 1 254 241 1 254 241 1 254 241 1 
254 241 1 253 241 2 115 201 59 36 177 78 36 177 78 
37 177 78 37 177 78 138 207 50 254 242 5 254 241 2 
254 241 2 254 241 2 254 241 2 254 241 2 254 241 2 
254 241 2 254 241 1 254 242 3 254 241 2 254 241 2 
254 241 3 254 241 2 254 241 2 254 241 2 254 241 2 
254 241 2 254 241 2 254 241 2 254 241 2 254 241 2 
254 241 2 253 241 3 115 201 59 37 177 78 37 177 78 
37 177 78 37 177 78 136 207 58 250 243 15 249 242 14 
249 242 14 249 242 14 249 242 14 249 242 14 248 242 16 
241 238 16 222 232 21 218 230 24 205 227 29 176 219 38 
167 216 42 166 216 42 184 221 36 217 230 25 233 234 21 
249 242 15 249 242 14 249 242 14 249 242 14 249 242 14 
249 242 14 246 241 17 98 196 66 37 177 78 37 177 78 
37 177 78 37 177 78 41 179 79 41 176 74 39 176 75 
38 176 74 39 176 75 39 176 75 38 176 75 40 175 77 
36 177 77 34 178 79 35 178 79 35 177 79 35 178 79 
37 177 77 36 178 79 35 178 78 36 177 78 35 178 76 
39 176 75 38 176 74 39 176 75 38 176 74 38 176 74 
39 176 75 39 176 76 35 178 78 37 177 78 37 177 78 
36 177 78 36 177 78 36 177 78 36 177 78 36 177 78 
36 177 78 36 177 78 36 177 78 36 177 78 36 177 78 
36 177 78 36 177 78 36 177 78 36 177 78 36 177 78 
36 177 78 36 177 78 36 177 78 36 177 78 36 177 78 
36 177 78 36 177 78 36 177 78 36 177 78 36 177 78 
36 177 78 36 177 78 36 177 78 36 177 78 36 177 78 
37 177 78 37 177 78 37 177 78 37 177 78 37 177 78 
37 177 78 37 177 78 37 177 78 37 177 78 37 177 78 
37 177 78 37 177 78 37 177 78 37 177 78 37 177 78 
37 177 78 37 177 78 37 177 78 37 177 78 37 177 78 
37 177 78 37 177 78 37 177 78 37 177 78 37 177 78 
37 177 78 37 177 78 37 177 78 37 177 78 37 177 78 
