P3
# Created by IrfanView
78 30
255
0 0 0 0 0 0 0 0 0 0 0 0 0 0 0 
0 0 0 0 0 0 0 0 3 1 0 0 1 1 1 
1 0 2 1 0 1 1 0 1 1 0 1 1 0 1 
1 0 1 1 0 1 1 0 1 0 1 2 4 0 1 
2 2 2 1 2 4 4 0 1 1 0 1 1 0 1 
1 0 1 1 0 1 1 0 1 1 0 1 1 0 1 
0 1 1 1 0 1 0 1 2 2 0 0 0 0 0 
0 0 0 0 0 0 0 0 0 0 0 0 0 0 0 
0 0 0 0 0 0 0 0 0 0 0 0 0 0 0 
0 0 0 0 0 0 0 0 0 0 0 0 0 0 0 
0 0 0 0 0 0 0 0 0 0 0 0 0 0 0 
0 0 0 0 0 0 0 0 0 0 0 0 0 0 0 
0 0 0 0 0 0 0 0 0 0 0 0 0 0 0 
0 0 0 0 0 0 0 0 0 0 0 0 0 0 0 
0 0 0 0 0 0 0 0 0 0 0 0 0 0 0 
0 0 0 0 0 0 0 0 0 0 0 0 0 0 0 
0 0 0 0 0 0 0 0 0 0 0 0 0 0 0 
3 0 0 1 0 1 1 1 3 1 1 3 0 0 2 
0 0 1 0 0 1 0 0 2 0 0 2 0 0 2 
0 0 2 0 1 1 1 1 4 4 1 4 3 2 1 
0 1 2 0 0 2 0 0 2 0 0 1 0 0 1 
0 0 1 0 0 2 1 0 2 4 0 2 2 0 1 
1 0 2 0 0 3 0 0 0 0 0 0 0 0 0 
0 0 0 0 0 0 0 0 0 0 0 0 0 0 0 
0 0 0 0 0 0 0 0 0 0 0 0 0 0 0 
0 0 0 0 0 0 0 0 0 0 0 0 0 0 0 
0 0 0 0 0 0 0 0 0 0 0 0 0 0 0 
0 0 0 0 0 0 0 0 0 0 0 0 0 0 0 
0 0 0 0 0 0 0 0 0 0 0 0 0 0 0 
0 0 0 0 0 0 0 0 0 0 0 0 0 0 0 
0 0 0 0 0 0 0 0 0 0 0 0 0 0 0 
0 0 0 0 0 0 0 0 0 0 0 0 0 0 0 
0 0 0 0 0 0 0 0 0 0 0 0 0 1 4 
7 1 0 5 5 7 0 4 12 0 4 11 0 4 11 
0 4 12 0 4 12 0 4 12 0 4 12 2 4 13 
3 5 7 2 7 3 1 4 14 0 4 14 0 4 12 
0 4 12 0 4 11 0 4 11 0 4 11 0 4 12 
1 4 12 2 5 17 2 3 10 6 0 0 0 0 4 
0 0 0 0 0 0 0 0 0 0 0 0 0 0 0 
0 0 0 0 0 0 0 0 0 0 0 0 0 0 0 
0 0 0 0 0 0 0 0 0 0 0 0 0 0 0 
0 0 0 0 0 0 0 0 0 0 0 0 0 0 0 
0 0 0 0 0 0 0 0 0 0 0 0 0 0 0 
0 0 0 0 0 0 0 0 0 0 0 0 0 0 0 
0 0 0 0 0 0 0 0 0 0 0 0 0 0 0 
0 0 0 0 0 0 0 0 0 0 0 0 0 0 0 
0 0 0 0 0 0 0 0 0 0 0 0 0 0 0 
0 0 0 0 0 0 0 0 0 0 0 0 0 0 0 
0 0 0 0 0 0 0 1 3 4 2 2 49 72 92 
20 103 164 12 105 177 13 105 171 12 104 176 12 105 174 
12 105 172 12 105 176 15 106 173 64 109 139 35 59 84 
19 102 166 10 106 172 14 105 175 12 105 173 11 105 174 
13 104 173 11 105 177 12 105 174 12 105 175 21 103 161 
66 103 130 3 0 1 0 0 2 0 0 0 0 0 0 
0 0 0 0 0 0 0 0 0 0 0 0 0 0 0 
0 0 0 0 0 0 0 0 0 0 0 0 0 0 0 
0 0 0 0 0 0 0 0 0 0 0 0 0 0 0 
0 0 0 0 0 0 0 0 0 0 0 0 0 0 0 
0 0 0 0 0 0 0 0 0 0 0 0 0 0 0 
0 0 0 0 0 0 0 0 0 0 0 0 0 0 0 
0 0 0 0 0 0 0 0 0 0 0 0 0 0 0 
0 0 0 0 0 0 0 0 0 0 0 0 0 0 0 
0 0 0 0 0 0 0 0 0 0 0 0 0 0 0 
0 0 0 0 0 0 0 0 0 0 0 0 0 0 0 
2 0 0 4 2 3 3 5 6 39 71 96 17 113 183 
2 114 196 4 111 190 4 111 191 9 115 194 31 102 154 
28 51 70 8 12 18 3 4 5 45 86 116 21 116 184 
3 112 199 2 113 193 1 113 192 2 113 191 1 113 195 
10 111 186 34 107 160 42 70 94 4 6 9 3 0 0 
0 1 3 0 0 0 0 0 0 0 0 0 0 0 0 
0 0 0 0 0 0 0 0 0 0 0 0 0 0 0 
0 0 0 0 0 0 0 0 0 0 0 0 0 0 0 
0 0 0 0 0 0 0 0 0 0 0 0 0 0 0 
0 0 0 0 0 0 0 0 0 0 0 0 0 0 0 
0 0 0 0 0 0 0 0 0 0 0 0 0 0 0 
0 0 0 0 0 0 0 0 0 0 0 0 0 0 0 
0 0 0 0 0 0 0 0 0 0 0 0 0 0 0 
0 0 0 0 0 0 0 0 0 0 0 0 0 0 0 
0 0 0 0 0 0 0 0 0 0 0 0 0 0 0 
0 0 0 0 0 0 0 1 0 0 1 0 2 2 2 
3 2 2 4 4 5 30 42 59 18 119 184 3 113 196 
35 108 164 36 59 73 6 3 7 1 2 10 6 1 2 
7 1 1 2 2 5 30 54 80 6 116 189 1 112 195 
2 112 192 2 114 193 4 111 188 35 81 113 9 11 15 
6 1 1 3 1 1 0 0 1 0 0 1 0 0 0 
0 0 0 0 0 0 0 0 0 0 0 0 0 0 0 
0 0 0 0 0 0 0 0 0 0 0 0 0 0 0 
0 0 0 0 0 0 0 0 0 0 0 0 0 0 0 
0 0 0 0 0 0 0 0 0 0 0 0 0 0 0 
0 0 0 0 0 0 0 0 0 0 0 0 0 0 0 
0 0 0 0 0 0 0 0 0 0 0 0 0 0 0 
0 0 0 0 0 0 0 0 0 0 0 0 0 0 0 
0 0 0 0 0 0 0 0 0 0 0 0 0 0 0 
0 0 0 0 0 0 0 0 0 0 0 0 0 0 0 
0 0 0 0 0 0 0 0 0 0 0 0 0 0 0 
0 0 1 0 0 2 0 1 0 2 0 0 5 2 2 
29 50 65 13 111 181 5 111 188 23 53 81 5 3 2 
2 0 3 1 0 2 0 1 6 0 1 4 3 0 0 
22 42 64 8 112 184 1 114 189 1 113 192 2 112 193 
28 115 180 11 11 16 5 3 3 0 0 2 0 0 4 
0 0 2 1 0 0 0 0 0 0 0 0 0 0 0 
0 0 0 0 0 0 0 0 0 0 0 0 0 0 0 
0 0 0 0 0 0 0 0 0 0 0 0 0 0 0 
0 0 0 0 0 0 0 0 0 0 0 0 0 0 0 
0 0 0 0 0 0 0 0 0 0 0 0 0 0 0 
0 0 0 0 0 0 0 0 0 0 0 0 0 0 0 
0 0 0 0 0 0 0 0 0 0 0 0 0 0 0 
0 0 0 0 0 0 0 0 0 0 0 0 0 0 0 
0 0 0 0 0 0 0 0 0 0 0 0 0 0 0 
0 0 0 0 0 0 0 0 0 0 0 0 0 0 0 
0 0 0 0 0 0 0 0 0 1 0 1 1 0 1 
0 1 1 1 0 0 2 3 3 31 88 130 1 114 192 
14 112 188 19 25 33 2 4 8 1 0 2 0 0 2 
4 0 0 1 1 2 3 1 3 28 82 121 1 112 196 
1 113 191 2 112 191 3 112 193 40 86 123 2 1 1 
1 2 3 0 0 0 1 0 0 0 0 1 1 0 1 
1 0 0 0 0 0 0 0 2 0 1 4 4 0 0 
2 0 1 0 1 1 0 0 0 0 0 0 0 0 0 
0 0 1 0 0 2 1 0 0 3 0 0 0 0 0 
0 0 2 0 0 2 1 0 1 0 0 3 0 0 3 
0 0 2 0 0 0 2 0 0 0 0 0 0 1 2 
0 1 2 0 0 0 0 0 0 0 0 0 0 0 0 
0 1 6 2 0 1 1 1 1 0 0 3 0 0 1 
0 0 1 0 0 1 0 0 0 2 0 0 2 0 0 
1 0 0 0 0 0 0 0 0 0 0 0 0 0 0 
0 0 0 0 0 0 0 0 0 0 0 0 0 0 0 
0 0 0 1 0 0 0 0 1 0 0 2 1 0 0 
11 17 27 21 110 172 1 116 195 28 107 165 2 4 7 
2 2 2 0 0 0 1 0 0 0 0 2 2 2 5 
7 4 6 31 109 165 1 112 191 1 112 193 0 112 194 
15 113 183 20 35 49 3 0 0 0 0 0 0 0 0 
0 0 0 0 0 0 2 0 0 1 1 4 1 1 3 
4 0 1 6 0 1 0 2 5 2 2 0 4 0 1 
0 0 0 0 0 0 0 0 0 0 0 1 0 1 2 
1 0 0 2 0 2 0 1 2 2 1 0 3 0 0 
0 1 1 1 0 0 2 0 0 2 0 1 2 0 1 
1 1 5 1 0 1 3 0 0 2 0 0 0 0 0 
0 0 0 0 0 0 1 0 0 5 1 0 1 1 3 
1 1 2 2 0 0 0 0 0 0 0 1 0 0 3 
0 1 2 0 1 4 0 1 3 0 0 0 0 0 0 
0 0 0 0 0 0 0 0 0 0 0 0 0 0 0 
0 0 0 0 0 0 0 0 0 0 0 0 0 0 1 
0 0 2 0 0 1 2 2 4 32 71 100 6 111 185 
1 114 196 28 78 119 0 1 1 1 1 1 0 0 0 
2 0 0 1 1 6 3 2 5 14 22 30 21 117 187 
1 112 193 1 113 193 1 112 191 34 99 149 3 4 3 
1 0 3 1 1 1 0 0 0 0 0 0 0 0 0 
0 0 3 4 1 4 64 99 127 4 72 125 5 72 120 
7 70 122 6 70 128 10 70 116 33 40 45 1 1 1 
0 0 0 0 0 0 0 1 0 0 1 1 0 1 7 
47 80 106 6 71 123 5 72 125 5 71 122 6 70 121 
7 70 120 24 79 122 16 53 87 22 35 49 0 2 8 
2 1 4 2 1 4 0 0 0 0 0 0 0 0 0 
27 50 65 7 72 119 4 72 125 8 70 117 7 70 120 
35 84 120 24 49 69 15 24 30 5 1 2 4 2 2 
1 1 1 0 1 0 0 0 0 0 0 0 0 0 0 
0 0 0 0 0 0 0 0 0 0 0 0 0 0 0 
0 0 0 0 0 0 0 0 1 1 0 0 1 2 3 
3 7 14 35 114 169 3 112 191 3 112 193 26 53 74 
0 0 0 0 0 0 0 0 0 0 0 0 0 0 2 
3 1 2 29 55 75 2 112 192 0 114 194 1 113 192 
8 111 189 33 56 78 5 3 4 0 2 2 2 0 1 
0 0 0 0 0 0 0 0 0 1 1 2 5 4 4 
26 40 54 38 108 157 4 112 191 3 112 187 30 111 163 
28 57 80 7 8 10 2 2 2 0 0 0 1 0 0 
1 0 0 1 1 0 3 2 5 26 44 59 36 103 154 
5 112 193 5 112 191 5 112 191 1 112 194 2 113 193 
6 110 188 11 113 187 43 107 154 26 41 52 4 1 2 
0 0 0 0 0 0 0 0 0 17 25 34 40 102 149 
6 111 189 2 112 194 1 113 194 3 113 192 5 113 190 
14 115 188 31 87 132 19 31 44 1 0 1 0 0 0 
0 0 0 0 0 0 0 0 0 0 0 0 0 0 0 
0 0 0 0 0 0 0 0 0 0 0 0 0 0 0 
1 0 1 1 0 3 2 1 2 24 47 65 6 111 186 
1 113 196 10 111 186 21 29 39 0 1 2 0 0 1 
2 0 0 2 0 0 0 0 2 3 2 2 32 80 115 
1 113 195 2 113 190 2 114 193 25 105 165 7 10 13 
1 1 2 0 0 1 0 0 1 0 0 0 0 0 0 
0 0 0 2 0 1 0 2 2 6 2 1 31 62 90 
5 116 191 3 113 189 5 28 50 4 2 2 1 1 1 
1 1 1 0 0 0 0 0 0 0 0 0 0 0 0 
1 1 1 1 3 1 11 19 34 30 125 192 20 114 175 
20 37 54 35 87 127 16 116 182 4 113 198 2 112 191 
2 113 197 27 114 176 6 9 16 0 0 0 0 0 0 
0 0 0 3 2 2 9 13 17 35 123 184 11 112 182 
44 83 113 27 112 171 6 112 186 4 112 193 1 113 192 
25 115 175 15 35 58 1 2 2 0 1 3 2 0 0 
2 0 1 0 0 0 0 0 0 0 0 0 0 0 0 
0 0 0 0 0 0 0 0 0 0 1 4 3 0 2 
2 3 5 34 95 138 1 114 195 3 111 193 30 109 167 
3 4 12 2 1 2 0 1 3 0 2 6 1 1 6 
2 1 3 0 5 14 31 104 157 2 113 197 0 113 194 
3 112 191 36 76 108 0 1 2 0 0 0 0 0 0 
0 0 0 0 0 0 0 0 0 0 0 0 1 0 0 
2 0 1 15 30 45 24 117 184 3 112 191 1 113 190 
40 69 89 3 2 3 0 0 0 0 0 0 0 0 0 
0 0 0 0 0 0 0 0 0 0 0 0 3 2 1 
30 57 82 5 112 187 19 87 138 2 4 2 8 2 4 
23 38 58 21 103 162 2 113 190 1 113 194 5 113 188 
13 38 59 0 0 0 0 0 0 0 0 0 4 1 1 
21 36 51 17 115 187 31 119 181 2 6 11 18 18 24 
47 100 143 5 113 184 0 113 191 2 112 195 19 114 176 
18 28 37 2 0 0 0 0 1 0 0 2 0 0 0 
0 0 0 0 0 0 0 0 0 0 0 0 0 0 0 
0 0 0 0 1 2 3 0 1 16 27 40 17 114 183 
2 113 193 3 111 193 18 114 180 14 71 120 11 73 124 
26 96 149 22 105 165 8 97 164 5 98 168 9 97 163 
8 113 187 2 112 192 0 114 196 28 119 183 20 28 37 
0 0 1 0 0 0 0 0 0 0 0 0 0 0 0 
0 0 0 0 0 0 1 1 1 10 10 14 33 106 158 
2 112 191 3 111 194 0 114 195 27 61 87 1 2 3 
0 0 0 0 0 0 0 0 0 0 0 0 0 0 0 
0 0 0 0 0 0 2 1 5 31 101 150 2 114 192 
28 68 102 5 1 1 1 2 6 5 4 3 32 51 71 
5 112 187 1 113 194 2 113 189 5 33 57 0 0 0 
0 0 0 0 0 0 1 2 2 29 83 125 4 111 189 
30 92 140 2 1 5 1 2 2 7 11 10 47 101 143 
5 110 191 2 114 193 7 110 189 37 108 152 2 3 5 
2 1 2 0 0 4 0 0 0 0 0 0 0 0 0 
0 0 0 0 0 0 0 0 0 0 0 0 2 0 0 
0 1 4 29 71 104 5 113 191 2 112 192 1 112 195 
3 114 190 3 113 196 2 112 194 2 112 194 2 113 194 
2 113 193 5 111 186 3 112 192 0 113 196 1 112 193 
2 112 190 30 87 132 4 2 7 1 0 0 0 0 0 
0 0 0 0 0 0 0 0 0 0 0 0 0 0 0 
3 1 3 36 91 125 4 112 191 3 111 194 4 111 188 
1 114 197 13 50 80 1 3 4 0 0 0 0 0 0 
0 0 0 0 0 0 0 0 0 0 0 0 0 0 0 
18 28 40 10 115 186 8 110 189 29 48 68 2 3 1 
2 0 8 7 1 3 46 89 118 6 112 187 2 112 195 
20 119 189 27 35 45 0 0 0 0 0 0 0 0 0 
5 8 13 25 116 183 4 112 189 23 62 96 1 2 2 
1 1 2 5 1 3 19 23 29 28 113 174 1 112 197 
5 112 187 20 113 182 17 26 38 5 0 0 0 0 3 
0 0 0 0 0 0 0 0 0 0 0 0 0 0 0 
0 0 0 0 0 0 2 1 1 7 11 22 33 118 175 
1 113 191 3 111 196 11 116 189 20 49 76 28 74 112 
30 102 155 22 109 174 31 101 151 32 75 108 30 48 65 
33 90 134 0 112 193 4 112 193 9 113 184 29 46 61 
4 2 4 0 0 0 0 0 0 0 0 0 0 0 0 
0 0 3 1 1 1 1 4 6 35 60 80 11 115 188 
4 111 189 35 106 162 21 112 177 3 112 189 9 51 87 
0 1 2 0 0 0 0 0 0 0 0 0 2 0 0 
2 1 4 3 1 1 1 3 8 33 82 119 5 112 185 
18 115 188 14 19 26 2 4 6 9 13 19 33 81 123 
8 115 190 4 112 194 6 112 187 43 94 127 4 3 5 
5 0 1 1 3 7 6 2 1 35 64 87 2 113 190 
8 110 185 24 45 65 0 0 0 0 0 0 0 0 0 
0 0 0 23 73 107 4 112 190 0 113 195 4 111 191 
5 18 33 1 0 2 3 1 4 0 0 0 0 0 0 
0 0 0 0 0 0 0 0 0 0 0 0 0 0 0 
1 2 2 30 56 77 4 113 188 1 113 192 3 113 191 
27 106 157 5 7 8 2 4 6 2 3 6 1 4 7 
3 3 4 3 2 3 5 3 4 29 113 171 3 112 191 
2 113 196 27 105 161 4 5 8 4 2 3 0 0 1 
0 0 0 0 0 0 0 0 0 1 1 1 5 0 1 
21 34 46 22 112 176 1 114 195 33 110 167 29 45 63 
9 114 188 3 112 189 14 58 94 1 1 0 0 0 0 
0 0 0 0 0 0 2 0 0 1 2 2 2 1 2 
15 15 21 23 109 175 4 111 188 29 108 158 5 3 10 
25 39 55 43 113 159 5 113 188 2 111 193 14 113 186 
42 92 128 5 8 13 3 1 3 1 0 2 3 1 3 
2 3 4 37 104 153 2 114 191 20 117 189 8 10 17 
0 1 2 0 0 0 0 0 0 0 0 0 35 54 67 
4 112 192 1 113 191 2 113 191 3 19 36 1 0 0 
4 0 0 0 0 0 0 0 0 0 0 0 0 0 0 
0 0 0 0 0 0 0 0 0 3 5 9 30 102 151 
1 113 193 1 112 192 1 113 195 30 80 124 2 1 2 
5 0 1 2 0 1 3 1 4 1 1 3 2 1 3 
18 29 41 11 114 190 5 111 186 5 111 184 32 65 93 
4 1 3 0 0 2 0 0 1 0 0 0 0 0 0 
0 0 0 2 3 4 11 17 23 33 102 154 3 112 194 
29 117 179 18 33 46 35 55 72 4 112 190 0 113 195 
40 99 141 2 2 2 0 0 0 0 0 0 0 0 0 
0 0 0 1 1 0 2 1 2 28 55 78 6 113 188 
0 113 199 39 100 154 35 84 121 11 113 186 2 114 198 
15 115 186 28 91 140 26 51 70 5 2 2 4 0 1 
1 1 2 1 0 1 3 1 2 22 37 48 11 113 189 
1 113 190 26 104 160 6 2 3 0 1 2 0 0 0 
0 0 0 0 0 0 26 48 65 4 112 192 1 113 191 
13 115 186 18 28 37 1 1 3 5 0 0 0 0 0 
0 0 0 0 0 0 0 0 1 0 0 0 2 0 0 
0 1 3 19 31 42 12 118 190 3 112 191 0 112 194 
3 114 189 26 53 81 0 2 2 1 1 4 0 0 3 
1 0 2 0 0 2 1 1 2 26 58 83 4 111 190 
1 114 198 22 115 177 11 14 23 2 0 4 2 0 2 
0 0 1 1 0 0 0 0 1 0 0 2 5 3 3 
40 88 122 4 113 192 17 115 189 23 48 67 3 3 4 
32 69 98 2 111 192 0 113 198 12 77 128 1 2 3 
0 0 0 0 0 0 0 0 0 0 1 0 3 1 1 
2 3 4 25 95 148 4 112 193 5 112 187 28 129 192 
2 113 195 2 113 190 2 112 196 16 75 126 3 3 4 
3 2 1 1 2 6 0 1 2 0 1 1 2 1 1 
2 2 4 30 78 113 2 113 195 2 112 191 29 82 120 
4 3 5 1 1 3 0 1 0 2 0 2 2 5 6 
35 106 155 3 112 189 1 113 193 29 110 168 7 5 7 
0 2 6 3 0 1 0 0 0 0 0 0 0 0 0 
0 0 1 1 0 2 4 0 0 1 5 10 32 86 123 
6 111 188 1 113 195 0 113 193 12 114 189 12 23 30 
2 2 4 1 0 2 0 0 0 0 0 0 0 0 0 
0 1 2 31 85 126 4 113 193 4 113 192 33 78 112 
1 4 7 2 0 0 1 0 2 0 0 1 2 0 0 
0 0 2 3 1 1 29 61 82 12 109 184 3 113 190 
27 111 172 37 73 103 4 37 67 12 85 139 0 113 195 
1 112 194 5 76 133 1 0 1 0 0 1 0 0 0 
0 0 0 0 0 0 4 3 3 19 33 43 19 118 192 
2 113 195 15 113 181 53 95 129 6 112 187 2 112 192 
0 113 194 5 69 117 2 0 2 0 0 1 0 0 0 
0 0 0 0 0 0 1 0 1 8 12 17 33 119 179 
3 113 190 4 110 194 19 52 71 4 3 5 3 1 2 
0 2 1 5 2 5 36 76 107 6 111 188 3 113 190 
6 112 187 37 71 93 0 0 0 0 0 0 0 0 0 
0 0 0 0 0 0 0 0 0 2 0 0 1 0 2 
0 0 2 19 23 27 20 113 178 1 113 196 0 113 196 
0 113 193 25 105 165 2 5 9 0 1 3 1 0 0 
0 0 0 0 0 0 0 0 0 3 4 8 25 107 166 
1 114 197 14 112 183 24 37 50 3 2 1 2 0 0 
0 0 1 0 0 1 0 0 2 2 0 1 20 31 41 
18 111 174 4 111 192 5 111 184 2 114 197 7 112 186 
6 111 189 4 113 193 1 113 192 0 112 194 5 77 133 
1 1 1 0 0 1 0 0 0 0 0 0 1 0 2 
5 3 4 31 77 111 4 113 192 1 114 196 29 115 176 
12 20 29 22 115 180 2 112 190 2 112 189 21 91 141 
2 0 1 0 0 0 0 0 0 0 0 0 0 0 0 
2 1 2 30 62 84 6 111 187 3 112 191 17 115 187 
17 30 42 1 2 3 2 3 1 4 1 3 43 78 93 
14 115 190 4 113 193 2 114 194 39 100 143 1 2 5 
0 0 0 0 0 0 0 0 0 0 0 0 0 0 0 
0 0 0 1 0 0 0 1 2 2 1 1 29 66 94 
3 113 191 0 113 194 0 113 194 0 113 193 23 79 123 
3 3 3 1 1 4 1 0 1 0 0 0 0 0 0 
0 0 0 24 39 51 12 114 186 3 113 193 33 94 140 
1 1 3 2 0 0 1 0 0 0 1 0 0 0 1 
1 0 2 5 9 18 38 105 155 7 111 185 30 95 149 
31 66 91 47 117 169 22 69 105 25 48 70 18 112 182 
1 114 193 0 113 194 24 100 155 1 2 2 0 0 1 
0 0 0 0 0 0 1 0 0 4 7 15 31 116 179 
1 112 194 3 114 193 22 90 143 2 4 8 30 87 125 
0 112 194 3 112 189 26 106 166 1 2 5 0 0 0 
0 0 0 0 0 0 1 1 1 4 4 7 23 90 141 
1 112 192 1 112 191 22 111 170 4 4 11 0 2 1 
2 4 10 42 72 99 18 116 178 2 115 193 5 112 189 
28 99 147 4 13 21 4 2 3 0 0 0 0 0 0 
0 0 0 1 0 3 0 0 2 0 1 1 0 1 2 
2 2 4 3 4 9 29 103 157 1 113 194 1 112 191 
0 114 194 2 113 190 20 54 79 4 3 2 1 1 3 
1 0 1 0 0 2 2 0 0 1 2 6 27 65 94 
5 112 188 6 113 186 31 59 81 0 2 3 1 0 1 
2 0 1 0 0 0 2 1 3 6 1 2 38 84 118 
4 112 193 29 105 164 16 22 29 5 1 1 6 1 2 
5 2 3 4 13 25 8 112 187 2 112 191 1 113 192 
32 115 174 1 4 7 0 0 4 4 0 1 2 1 2 
4 0 1 35 61 82 5 111 190 0 113 194 3 112 191 
29 75 110 6 2 4 27 44 55 7 113 191 2 111 194 
12 94 164 2 3 11 0 2 0 0 0 2 0 2 0 
4 1 0 20 29 41 17 118 192 3 112 189 1 113 196 
19 85 129 5 1 3 15 19 25 37 84 119 9 116 191 
1 114 195 6 112 185 39 103 146 4 11 16 5 1 0 
0 0 0 0 0 0 0 0 0 0 0 0 3 0 1 
1 0 1 1 0 1 1 1 3 9 2 2 31 52 76 
12 111 188 2 113 193 1 112 191 3 112 195 14 109 184 
16 27 38 2 3 4 2 0 0 0 0 3 1 0 3 
1 1 4 24 31 37 31 95 142 3 112 193 28 120 180 
8 3 8 2 3 1 1 0 0 0 1 5 1 0 2 
3 2 4 26 56 80 13 115 191 27 116 181 20 34 46 
2 3 6 1 1 5 3 0 2 1 0 2 27 43 56 
5 113 192 1 113 194 2 113 192 14 100 164 3 3 11 
7 0 2 1 0 7 1 1 2 1 1 6 38 99 146 
2 112 192 0 113 194 4 111 188 22 44 63 1 3 8 
6 4 7 29 114 173 2 114 190 15 98 154 5 9 12 
3 1 0 4 2 1 2 0 1 1 2 5 29 74 107 
2 113 192 2 112 193 5 111 193 33 76 113 43 70 88 
30 113 171 5 112 193 2 112 189 20 118 185 31 71 107 
12 14 21 5 2 3 2 0 0 0 1 0 0 0 0 
0 0 0 0 0 0 0 1 1 3 0 0 3 2 5 
10 19 30 39 82 113 23 110 173 1 112 193 1 113 195 
2 112 191 1 113 192 7 112 184 37 80 112 6 9 13 
2 1 4 3 1 3 28 42 56 31 80 119 20 115 182 
2 113 193 3 111 194 5 108 180 41 79 117 6 9 13 
2 3 6 5 1 1 11 15 21 46 76 95 23 115 176 
4 111 192 36 79 111 3 3 5 6 1 1 3 1 4 
7 1 3 15 24 39 26 81 126 3 113 191 2 113 188 
0 114 195 13 108 176 23 44 68 1 2 5 3 2 6 
10 15 19 29 66 97 11 113 187 3 112 191 1 113 194 
6 111 186 34 56 76 5 3 3 10 11 13 23 80 133 
5 112 191 16 120 194 49 77 102 2 3 11 4 4 2 
10 8 16 32 55 72 20 113 176 3 112 192 1 112 196 
4 112 187 28 123 185 10 111 182 3 112 193 16 117 183 
30 87 137 27 33 48 3 2 2 4 1 0 1 2 2 
0 0 3 2 0 0 0 0 0 0 0 0 0 0 0 
1 0 1 12 16 24 52 96 130 26 114 176 4 112 190 
1 114 193 1 113 190 0 113 196 2 112 191 0 113 194 
0 114 193 7 113 186 55 113 156 44 55 69 33 91 135 
15 113 183 1 114 196 3 112 187 0 114 194 1 112 194 
2 114 189 6 111 198 35 105 154 25 35 42 54 75 86 
41 118 173 6 114 194 2 113 193 2 114 192 10 112 184 
50 99 138 7 8 10 15 12 13 49 96 134 30 117 179 
5 112 190 3 112 192 4 112 191 1 113 195 4 113 190 
23 116 182 42 62 75 66 94 117 22 109 172 4 111 190 
1 114 195 4 112 189 1 114 195 2 113 191 25 113 177 
49 76 96 54 109 148 6 113 190 3 113 186 2 115 193 
8 114 185 32 101 150 49 81 103 29 108 158 9 114 191 
4 113 189 1 113 197 3 113 188 6 112 188 23 118 187 
29 105 163 31 68 100 29 38 49 1 4 3 1 3 4 
1 0 4 1 1 2 1 1 0 1 0 1 2 0 2 
0 0 0 0 0 0 0 0 0 1 0 0 7 8 12 
13 30 45 2 29 53 5 28 49 6 28 47 5 28 49 
5 28 49 5 28 48 6 28 49 6 28 50 4 29 49 
11 31 49 25 29 34 5 28 47 5 28 48 5 28 48 
4 29 49 6 28 46 5 28 49 6 29 46 5 27 49 
5 28 47 14 17 20 22 32 40 4 28 50 6 28 47 
5 28 49 3 29 49 6 28 47 17 33 49 2 3 6 
5 6 8 12 32 50 4 28 50 5 28 48 6 28 49 
5 28 49 5 28 49 5 29 49 4 29 51 14 23 32 
24 38 50 2 29 52 6 28 48 5 29 48 6 28 47 
5 29 49 5 29 49 4 29 51 20 32 43 17 35 51 
5 28 50 7 28 48 5 28 50 6 27 46 7 28 49 
23 40 56 5 29 50 6 27 47 6 28 48 4 28 50 
6 28 46 28 45 59 1 4 11 1 1 4 0 1 2 
0 0 1 0 0 2 2 0 0 0 0 1 1 0 2 
1 0 0 1 0 0 0 0 1 0 0 0 0 0 0 
0 0 0 0 0 0 0 0 0 0 0 0 0 0 0 
0 0 0 0 0 0 0 0 0 0 0 0 0 0 0 
0 0 0 0 0 0 0 0 0 0 0 0 0 0 0 
0 0 0 0 0 0 0 0 0 0 0 0 0 0 0 
0 0 0 0 0 0 0 0 0 0 0 0 0 0 0 
0 0 0 0 0 0 0 0 0 0 0 0 0 0 0 
0 0 0 0 0 0 0 0 0 0 0 0 0 0 0 
0 0 0 0 0 0 0 0 0 0 0 0 0 0 0 
0 0 0 0 0 0 0 0 0 0 0 0 0 0 0 
0 0 0 0 0 0 0 0 0 0 0 0 0 0 0 
0 0 0 0 0 0 0 0 0 0 0 0 0 0 0 
0 0 0 0 0 0 0 0 0 0 0 0 0 0 0 
0 0 0 0 0 0 0 0 0 0 0 0 0 0 0 
0 0 0 0 0 0 0 0 0 0 0 0 0 0 0 
0 0 0 0 0 0 0 0 0 0 0 0 0 0 0 
0 0 0 0 0 0 0 0 0 0 0 0 0 0 0 
0 0 0 0 0 0 0 0 0 0 0 0 0 0 0 
0 0 0 0 0 0 0 0 0 0 0 0 0 0 0 
0 0 0 0 0 0 0 0 0 0 0 0 0 0 0 
0 0 0 0 0 0 0 0 0 0 0 0 0 0 0 
0 0 0 0 0 0 0 0 0 0 0 0 0 0 0 
0 0 0 0 0 0 0 0 0 0 0 0 0 0 0 
0 0 0 0 0 0 0 0 0 0 0 0 0 0 0 
0 0 0 0 0 0 0 0 0 0 0 0 0 0 0 
0 0 0 0 0 0 0 0 0 0 0 0 0 0 0 
0 0 0 0 0 0 0 0 0 0 0 0 0 0 0 
0 0 0 0 0 0 0 0 0 0 0 0 0 0 0 
0 0 0 0 0 0 0 0 0 0 0 0 0 0 0 
0 0 0 0 0 0 0 0 0 0 0 0 0 0 0 
0 0 0 0 0 0 0 0 0 0 0 0 0 0 0 
0 0 0 0 0 0 0 0 0 0 0 0 0 0 0 
0 0 0 0 0 0 0 0 0 0 0 0 0 0 0 
0 0 0 0 0 0 0 0 0 0 0 0 0 0 0 
0 0 0 0 0 0 0 0 0 0 0 0 0 0 0 
0 0 0 0 0 0 0 0 0 0 0 0 0 0 0 
0 0 0 0 0 0 0 0 0 0 0 0 0 0 0 
0 0 0 0 0 0 0 0 0 0 0 0 0 0 0 
0 0 0 0 0 0 0 0 0 0 0 0 0 0 0 
0 0 0 0 0 0 0 0 0 0 0 0 0 0 0 
0 0 0 0 0 0 0 0 0 0 0 0 0 0 0 
0 0 0 0 0 0 0 0 0 0 0 0 0 0 0 
0 0 0 0 0 0 0 0 0 0 0 0 0 0 0 
0 0 0 0 0 0 0 0 0 0 0 0 0 0 0 
0 0 0 0 0 0 0 0 0 0 0 0 0 0 0 
0 0 0 0 0 0 0 0 0 0 0 0 0 0 0 
0 0 0 0 0 0 0 0 0 0 0 0 0 0 0 
0 0 0 0 0 0 0 0 0 0 0 0 0 0 0 
