P3
# Created by IrfanView
76 30
255
0 0 0 0 0 0 0 0 0 0 0 0 0 0 0 
0 0 0 0 0 0 0 0 0 0 0 0 0 0 0 
0 0 0 2 0 0 0 0 2 2 0 1 1 0 3 
1 0 1 1 0 1 1 0 1 2 0 1 1 0 2 
0 1 4 1 0 0 0 0 3 1 0 4 1 0 3 
1 0 1 2 0 0 1 0 1 1 0 1 1 0 1 
1 0 1 1 0 1 1 0 1 1 0 1 0 1 0 
0 1 1 1 0 5 0 1 0 0 0 0 0 0 0 
0 0 0 0 0 0 0 0 0 0 0 0 0 0 0 
0 0 0 0 0 0 0 0 0 0 0 0 0 0 0 
0 0 0 0 0 0 0 0 0 0 0 0 0 0 0 
0 0 0 0 0 0 0 0 0 0 0 0 0 0 0 
0 0 0 0 0 0 0 0 0 0 0 0 0 0 0 
0 0 0 0 0 0 0 0 0 0 0 0 0 0 0 
0 0 0 0 0 0 0 0 0 0 0 0 0 0 0 
0 0 0 0 0 0 0 0 0 0 0 0 0 0 0 
0 0 0 0 0 0 0 0 0 0 0 0 0 0 0 
0 0 0 0 0 0 0 1 1 1 1 0 1 0 1 
3 0 2 0 0 1 0 0 2 0 0 2 0 0 2 
1 0 1 1 0 1 0 1 5 1 2 4 0 2 2 
1 1 0 1 1 2 0 0 3 0 0 2 0 0 1 
0 0 1 0 0 1 0 0 1 0 0 2 1 0 2 
3 0 1 1 2 0 0 0 3 3 0 0 0 0 0 
0 0 0 0 0 0 0 0 0 0 0 0 0 0 0 
0 0 0 0 0 0 0 0 0 0 0 0 0 0 0 
0 0 0 0 0 0 0 0 0 0 0 0 0 0 0 
0 0 0 0 0 0 0 0 0 0 0 0 0 0 0 
0 0 0 0 0 0 0 0 0 0 0 0 0 0 0 
0 0 0 0 0 0 0 0 0 0 0 0 0 0 0 
0 0 0 0 0 0 0 0 0 0 0 0 0 0 0 
0 0 0 0 0 0 0 0 0 0 0 0 0 0 0 
0 0 0 0 0 0 0 0 0 0 0 0 0 0 0 
0 0 0 0 0 0 0 0 0 1 3 4 5 3 2 
0 4 15 2 5 17 0 4 12 0 4 12 0 4 12 
0 4 12 1 4 10 1 3 12 1 5 15 8 4 2 
1 5 14 1 4 16 3 2 10 0 3 12 0 4 12 
0 4 11 0 4 11 0 4 11 0 4 11 0 4 12 
0 4 12 3 5 9 5 2 1 0 1 1 3 0 0 
0 0 0 0 0 0 0 0 0 0 0 0 0 0 0 
0 0 0 0 0 0 0 0 0 0 0 0 0 0 0 
0 0 0 0 0 0 0 0 0 0 0 0 0 0 0 
0 0 0 0 0 0 0 0 0 0 0 0 0 0 0 
0 0 0 0 0 0 0 0 0 0 0 0 0 0 0 
0 0 0 0 0 0 0 0 0 0 0 0 0 0 0 
0 0 0 0 0 0 0 0 0 0 0 0 0 0 0 
0 0 0 0 0 0 0 0 0 0 0 0 0 0 0 
0 0 0 0 0 0 0 0 0 0 0 0 0 0 0 
0 0 0 0 0 0 0 0 0 0 0 0 2 2 3 
14 14 19 58 118 159 11 105 174 12 105 174 11 104 174 
12 105 174 11 105 173 15 105 171 11 104 174 38 111 164 
37 53 70 50 107 149 11 106 175 12 106 172 11 105 175 
11 105 174 11 105 174 11 105 174 11 106 173 12 105 172 
12 105 175 39 112 162 41 53 61 8 1 3 0 1 1 
1 0 0 0 0 0 0 0 0 0 0 0 0 0 0 
0 0 0 0 0 0 0 0 0 0 0 0 0 0 0 
0 0 0 0 0 0 0 0 0 0 0 0 0 0 0 
0 0 0 0 0 0 0 0 0 0 0 0 0 0 0 
0 0 0 0 0 0 0 0 0 0 0 0 0 0 0 
0 0 0 0 0 0 0 0 0 0 0 0 0 0 0 
0 0 0 0 0 0 0 0 0 0 0 0 0 0 0 
0 0 0 0 0 0 0 0 0 0 0 0 0 0 0 
0 0 0 0 0 0 0 0 0 0 0 0 0 0 0 
0 0 0 0 0 0 0 0 0 0 0 0 0 0 0 
2 0 3 2 2 0 18 30 46 38 109 161 7 113 188 
3 112 192 3 113 191 4 113 190 22 116 181 28 75 110 
23 30 39 4 4 6 26 36 46 38 110 162 2 113 192 
3 112 189 0 113 193 0 113 193 0 113 193 1 114 195 
15 111 180 37 94 137 30 38 46 3 3 3 2 2 2 
0 0 0 0 0 0 0 0 0 0 0 0 0 0 0 
0 0 0 0 0 0 0 0 0 0 0 0 0 0 0 
0 0 0 0 0 0 0 0 0 0 0 0 0 0 0 
0 0 0 0 0 0 0 0 0 0 0 0 0 0 0 
0 0 0 0 0 0 0 0 0 0 0 0 0 0 0 
0 0 0 0 0 0 0 0 0 0 0 0 0 0 0 
0 0 0 0 0 0 0 0 0 0 0 0 0 0 0 
0 0 0 0 0 0 0 0 0 0 0 0 0 0 0 
0 0 0 0 0 0 0 0 0 0 0 0 0 0 0 
0 0 0 0 0 0 0 0 0 0 0 0 0 0 0 
0 0 0 1 1 2 5 1 0 3 3 2 6 9 13 
37 104 149 2 113 191 11 114 188 48 90 119 14 21 28 
2 3 3 2 2 1 1 3 2 6 2 2 15 18 25 
22 95 150 0 113 193 0 113 193 0 113 193 0 113 193 
26 111 174 22 38 52 4 2 3 2 2 6 1 1 1 
1 1 1 0 0 0 0 0 0 0 0 0 0 0 0 
0 0 0 0 0 0 0 0 0 0 0 0 0 0 0 
0 0 0 0 0 0 0 0 0 0 0 0 0 0 0 
0 0 0 0 0 0 0 0 0 0 0 0 0 0 0 
0 0 0 0 0 0 0 0 0 0 0 0 0 0 0 
0 0 0 0 0 0 0 0 0 0 0 0 0 0 0 
0 0 0 0 0 0 0 0 0 0 0 0 0 0 0 
0 0 0 0 0 0 0 0 0 0 0 0 0 0 0 
0 0 0 0 0 0 0 0 0 0 0 0 0 0 0 
0 0 0 0 0 0 0 0 0 0 0 0 0 0 0 
0 0 0 0 0 0 2 0 0 2 1 1 1 3 5 
2 4 5 42 107 156 5 112 190 27 103 162 6 2 5 
1 1 6 0 1 3 2 1 3 2 2 5 1 1 3 
3 2 4 26 95 145 0 113 194 0 113 193 0 113 193 
1 113 192 31 77 117 7 3 3 2 1 2 2 0 1 
0 0 0 0 0 0 0 0 0 0 0 0 0 0 0 
0 0 0 0 0 0 0 0 0 0 0 0 0 0 0 
0 0 0 0 0 0 0 0 0 0 0 0 0 0 0 
0 0 0 0 0 0 0 0 0 0 0 0 0 0 0 
0 0 0 0 0 0 0 0 0 0 0 0 0 0 0 
0 0 0 0 0 0 0 0 0 0 0 0 0 0 0 
0 0 0 0 0 0 0 0 0 0 0 0 0 0 0 
0 0 0 0 0 0 0 0 0 0 0 0 0 0 0 
0 0 0 0 0 0 0 0 0 0 0 0 0 0 0 
0 0 0 0 0 0 0 0 0 0 0 0 0 0 0 
0 0 0 0 0 0 0 0 0 1 0 3 2 0 2 
2 2 2 25 39 49 9 113 189 2 113 187 26 76 111 
2 3 3 2 0 0 0 0 1 0 0 3 2 0 2 
6 0 1 10 18 26 22 119 187 2 113 193 0 113 195 
2 113 191 19 119 187 23 30 38 2 1 8 2 0 3 
1 1 2 1 0 3 1 0 2 0 0 1 2 0 0 
2 0 0 2 0 0 0 0 1 0 1 3 0 1 2 
0 0 0 0 0 0 2 0 0 2 0 1 0 1 2 
2 0 1 0 0 4 0 0 3 1 0 3 4 0 0 
0 0 0 0 0 0 0 1 1 0 0 0 0 0 0 
0 0 0 0 0 0 1 0 0 0 0 1 0 0 2 
0 0 2 0 0 3 0 0 3 0 0 2 0 0 1 
1 0 1 4 0 0 1 0 0 1 0 2 0 1 0 
2 0 0 1 0 0 0 0 0 0 0 0 0 0 0 
0 0 0 0 0 0 0 0 0 0 0 0 0 0 0 
0 0 0 0 0 0 0 0 0 0 0 0 2 0 1 
1 0 3 5 2 1 28 77 118 3 112 194 3 113 189 
24 49 71 2 2 2 0 0 0 0 0 0 0 0 0 
0 0 2 4 0 0 30 55 72 5 113 189 2 112 194 
1 113 194 2 113 194 33 94 138 1 0 4 0 2 2 
1 1 0 2 0 3 1 0 1 3 0 0 1 1 1 
0 1 3 1 1 5 1 1 3 1 0 1 2 0 0 
2 1 0 2 1 1 2 1 2 0 1 5 4 0 3 
2 1 1 3 0 3 3 0 0 3 0 0 1 1 1 
1 0 3 2 0 3 4 0 0 3 0 1 1 0 2 
0 0 0 0 0 0 0 0 0 1 0 3 1 0 1 
3 0 0 3 0 0 0 1 0 2 1 0 2 1 0 
2 1 0 1 0 2 0 2 7 1 1 3 2 0 4 
0 2 2 0 1 4 1 0 1 1 0 0 0 0 0 
0 0 0 0 0 0 0 0 0 0 0 0 0 0 0 
0 0 0 0 0 0 0 0 0 0 0 0 0 0 0 
2 0 2 0 1 3 15 18 24 23 116 184 1 113 194 
15 112 179 15 22 36 4 2 2 0 0 0 0 0 0 
0 0 0 0 1 0 1 1 5 28 82 120 4 112 187 
1 114 197 2 112 190 7 113 190 28 51 67 0 1 2 
2 1 1 2 2 7 45 77 102 5 71 121 4 72 123 
7 70 117 7 69 120 8 69 117 7 70 120 6 70 122 
6 70 123 5 71 125 4 71 123 8 70 118 12 49 78 
5 2 2 5 9 10 36 85 122 4 72 124 5 73 121 
7 70 114 5 71 123 5 71 124 6 70 123 8 69 119 
37 62 83 2 2 2 0 0 0 0 0 0 3 2 3 
58 89 113 7 70 122 4 71 124 5 71 123 6 70 119 
6 70 120 12 75 124 24 68 102 30 54 71 14 20 23 
1 1 1 6 2 0 1 1 4 1 1 2 1 0 0 
0 0 0 0 0 0 0 0 0 0 0 0 0 0 0 
0 0 0 0 0 0 0 0 0 0 0 0 0 0 0 
0 0 0 1 0 2 1 1 1 34 70 97 6 110 192 
3 112 193 30 103 156 2 4 14 3 3 2 0 0 0 
0 0 0 0 0 0 1 2 2 6 4 7 29 107 165 
1 114 193 2 112 192 2 113 192 34 114 173 6 7 10 
1 1 0 2 1 1 4 3 6 22 37 53 36 106 160 
1 113 194 3 112 189 1 114 199 5 112 190 42 133 193 
14 110 179 13 109 180 10 111 184 2 113 193 2 113 191 
21 64 96 6 2 7 4 4 7 30 58 82 28 115 180 
1 114 198 4 112 189 4 112 193 10 111 181 32 110 164 
28 63 89 16 22 26 2 2 2 1 1 1 0 0 0 
4 2 2 28 42 53 47 110 156 5 112 191 7 111 192 
9 110 187 4 111 190 1 113 194 4 112 191 4 112 192 
27 116 180 34 77 107 5 3 10 3 1 0 0 1 2 
0 0 0 0 0 0 0 0 0 0 0 0 0 0 0 
0 0 0 0 0 0 0 0 0 0 0 0 0 0 0 
0 0 0 0 0 0 2 3 3 5 7 15 27 104 158 
2 113 192 3 113 194 30 74 114 1 1 8 2 1 3 
1 0 2 0 0 3 1 0 2 3 1 2 17 22 29 
15 115 191 4 112 188 2 113 196 5 114 188 30 65 94 
3 4 3 1 0 1 0 1 1 2 1 0 2 0 0 
19 43 65 5 111 188 0 114 196 2 112 188 31 110 166 
5 10 20 1 5 15 3 6 17 39 60 80 12 111 182 
5 113 185 23 44 60 3 2 6 2 1 3 1 1 4 
33 85 123 2 114 192 2 113 190 1 113 196 34 91 135 
2 4 10 3 1 1 0 1 3 1 1 1 0 0 0 
0 0 0 1 1 5 3 2 3 5 7 18 35 130 192 
19 111 177 22 39 52 30 66 88 20 110 172 2 113 191 
2 112 195 1 114 191 10 112 188 35 65 89 1 2 5 
3 0 0 0 0 1 0 0 0 0 0 0 0 0 0 
0 0 0 0 0 0 0 0 0 0 0 0 0 0 0 
0 0 0 0 0 0 0 0 0 4 1 1 30 51 70 
8 110 180 2 114 196 6 112 187 25 51 77 4 0 3 
4 0 3 4 0 2 0 1 4 1 2 5 2 3 6 
25 50 72 3 113 200 3 112 189 0 114 196 23 114 174 
16 24 35 4 3 3 0 0 1 0 0 0 0 0 0 
1 0 0 29 73 106 3 112 192 2 112 190 2 113 194 
34 71 100 3 2 2 0 0 3 1 5 3 3 4 6 
26 107 175 28 115 180 13 18 21 3 3 2 2 0 0 
1 1 4 22 91 143 3 112 192 0 113 195 14 115 186 
23 41 59 4 2 3 2 0 0 0 0 2 0 0 0 
0 0 0 0 0 0 2 1 1 4 0 2 33 64 83 
7 111 188 29 99 150 2 4 6 3 4 7 13 15 22 
43 87 120 7 112 188 1 112 195 3 112 192 38 105 151 
1 3 5 2 0 1 0 0 1 0 0 0 0 0 0 
0 0 0 0 0 0 0 0 0 0 0 0 0 0 0 
0 0 0 0 0 0 0 0 0 0 0 0 3 2 4 
29 93 136 0 113 194 1 113 194 5 113 190 23 91 142 
13 71 116 9 73 127 39 118 175 9 96 162 7 98 163 
7 98 166 11 106 175 2 112 191 4 112 188 1 113 192 
43 94 129 1 2 2 2 0 2 0 0 0 0 0 0 
0 0 0 0 1 3 23 95 146 2 113 194 4 113 189 
20 111 178 13 18 26 4 1 1 2 3 3 12 8 12 
34 37 39 28 95 133 30 93 141 0 1 3 2 0 0 
3 2 1 10 19 29 19 117 184 1 114 192 2 112 194 
40 108 157 10 8 10 3 1 3 3 0 0 0 0 2 
0 0 0 0 0 0 0 0 0 3 2 1 5 3 8 
32 106 154 3 112 195 30 71 106 8 1 1 1 2 4 
1 3 5 5 8 15 42 108 152 1 111 199 4 113 189 
33 98 146 1 1 2 1 0 1 0 0 2 0 0 0 
0 0 0 0 0 0 0 0 0 0 0 0 0 0 0 
0 0 0 0 0 0 0 0 0 0 0 0 0 0 0 
15 23 34 15 116 180 1 113 194 2 112 192 4 113 191 
3 113 194 0 113 195 1 113 193 2 113 192 1 113 194 
3 112 190 6 111 184 1 113 192 0 113 194 1 113 195 
14 115 187 20 32 48 1 3 0 1 0 3 0 0 0 
0 0 0 0 0 0 12 21 29 16 113 177 2 114 194 
2 112 195 36 85 121 1 5 13 4 2 2 2 3 2 
46 83 105 81 126 161 52 58 68 45 55 65 0 1 2 
1 0 0 1 3 6 28 50 70 4 112 188 1 114 194 
7 111 187 32 63 90 7 3 2 0 2 7 3 0 0 
0 0 1 0 0 0 0 0 0 0 0 0 4 2 3 
34 54 63 12 113 188 8 112 187 25 45 59 2 3 7 
2 1 2 13 17 22 36 92 130 6 113 193 0 115 192 
14 112 184 24 46 65 2 2 3 3 0 1 0 0 2 
0 0 0 0 0 0 0 0 0 0 0 0 0 0 0 
0 0 0 0 0 0 0 0 3 5 0 0 2 3 6 
6 2 2 37 81 115 4 112 190 2 113 194 1 113 194 
15 77 127 27 59 86 30 86 129 27 114 176 29 111 170 
26 84 128 27 57 81 42 59 79 14 112 183 1 115 193 
1 113 192 37 101 149 6 7 13 2 1 2 0 1 3 
0 0 1 2 0 3 7 2 2 24 50 73 3 112 189 
1 113 195 17 114 189 27 37 47 1 1 3 3 1 1 
28 52 71 17 109 173 27 76 111 3 0 1 1 0 2 
2 1 0 0 1 5 2 3 3 29 80 115 3 113 193 
2 112 191 27 109 168 9 16 20 0 0 0 0 0 0 
0 0 0 0 0 0 0 0 0 0 0 0 0 0 0 
3 3 2 30 91 129 3 112 191 24 115 187 11 15 15 
3 3 2 24 42 60 32 103 158 3 112 189 1 113 195 
24 117 182 20 51 74 2 3 4 1 1 1 0 0 0 
0 0 0 0 0 0 0 0 0 0 0 0 0 0 0 
0 0 0 0 0 0 0 0 0 0 0 2 2 0 0 
1 3 2 7 10 17 27 115 176 2 112 195 1 113 193 
6 111 185 24 49 71 2 3 7 2 4 7 2 3 6 
1 4 7 5 3 4 5 2 1 27 58 85 7 111 187 
3 113 191 5 112 190 28 56 78 4 1 1 1 1 3 
1 1 1 2 1 2 2 0 1 2 4 7 26 78 115 
1 113 195 5 112 187 25 123 190 11 71 119 6 67 114 
11 66 108 17 109 176 7 114 196 29 43 54 1 1 5 
2 0 1 1 1 4 3 0 2 4 7 11 35 114 166 
1 113 193 2 113 194 39 84 117 2 2 2 0 0 0 
0 0 0 0 0 0 0 0 0 0 0 0 0 0 0 
0 0 0 12 21 32 18 111 179 1 114 197 36 99 143 
16 25 32 32 75 109 23 116 182 1 113 195 15 116 185 
40 104 150 21 37 52 3 2 1 1 1 1 1 1 1 
0 0 0 0 0 0 0 0 0 0 0 0 0 0 0 
0 0 0 0 0 0 0 0 0 0 0 0 0 0 1 
2 0 0 2 2 2 30 61 84 5 112 186 1 113 193 
2 112 193 17 117 189 10 18 28 6 2 1 4 0 0 
1 0 4 2 0 3 2 1 2 3 3 5 29 84 126 
2 112 194 4 112 192 34 114 174 6 9 15 2 0 0 
0 1 0 1 0 0 1 0 1 1 0 1 4 8 13 
29 110 168 1 112 192 1 113 194 13 110 181 8 111 186 
3 113 193 2 114 198 2 112 191 34 116 176 12 9 11 
0 1 6 3 1 1 0 1 4 4 0 0 20 31 42 
11 114 186 2 113 192 27 119 187 14 23 32 4 1 0 
0 0 0 0 0 0 0 0 0 0 0 0 0 0 0 
2 2 2 2 2 3 31 72 99 6 111 186 0 114 201 
22 97 158 26 110 176 8 110 188 28 114 177 38 90 126 
20 38 52 4 5 6 0 0 3 0 0 1 0 0 0 
0 0 0 0 0 0 0 0 0 0 0 0 0 0 0 
0 0 0 0 0 0 0 0 0 0 0 0 0 0 0 
0 1 0 3 0 1 3 4 8 30 100 147 0 113 194 
0 113 197 5 112 189 26 101 156 2 3 7 1 3 6 
0 0 0 4 0 3 1 1 3 3 1 1 3 6 16 
31 111 169 1 112 194 4 111 192 30 75 110 1 1 3 
0 1 3 0 1 0 0 0 1 1 1 1 1 1 4 
18 27 37 11 115 192 4 112 188 24 107 169 3 11 25 
28 42 54 16 37 57 34 88 129 6 112 186 27 79 119 
5 4 8 1 2 6 2 0 0 1 1 1 2 1 2 
29 58 81 4 111 190 2 113 192 36 94 137 4 3 5 
2 1 3 0 0 1 3 0 0 0 1 2 0 0 2 
0 0 1 2 2 1 6 9 13 27 112 173 2 112 194 
5 111 190 33 84 124 32 64 89 18 34 46 6 8 11 
3 1 3 4 2 3 2 2 3 0 1 4 1 0 0 
0 0 0 0 0 0 0 0 0 0 0 0 0 0 0 
0 0 0 0 0 0 0 0 0 0 0 0 0 0 0 
0 0 0 0 0 0 1 1 1 21 36 52 16 116 188 
2 114 193 1 113 192 1 113 194 22 74 110 0 0 0 
0 0 0 0 0 0 2 0 0 2 2 1 1 2 1 
19 29 42 13 117 186 1 113 193 18 115 182 16 25 34 
1 1 2 0 0 0 0 0 0 0 0 0 2 0 0 
1 1 2 28 64 89 4 113 195 5 113 190 37 74 104 
2 0 1 0 0 3 1 0 1 10 33 53 10 114 189 
24 44 58 5 2 2 2 2 3 1 0 1 1 0 2 
1 0 3 23 81 121 4 112 191 8 114 189 25 42 56 
2 0 1 1 0 3 1 1 2 5 0 3 3 5 3 
5 1 3 0 1 4 4 3 1 33 60 84 4 112 188 
0 114 191 26 122 186 3 5 9 0 0 0 0 0 0 
0 0 0 0 0 0 0 0 0 0 0 0 0 0 0 
0 0 0 0 0 0 0 0 0 0 0 0 0 0 0 
0 0 0 0 0 0 0 0 0 0 0 0 0 0 0 
0 0 0 0 0 0 1 0 0 2 1 2 33 90 131 
3 112 194 2 112 193 1 113 194 6 112 189 21 48 70 
0 0 1 0 0 0 0 0 0 0 0 1 0 0 4 
2 1 2 22 58 84 2 112 191 1 113 197 38 94 135 
2 3 5 1 0 0 0 0 0 0 0 0 0 0 0 
5 1 2 1 1 6 26 90 135 1 113 193 30 122 186 
12 17 24 0 0 3 2 0 1 1 0 3 30 39 46 
55 114 155 37 59 75 94 128 150 6 1 1 0 0 3 
2 1 0 1 1 7 31 118 175 1 112 196 27 98 152 
4 5 8 2 0 2 3 1 1 1 3 3 2 2 7 
64 96 115 44 62 80 0 1 5 2 2 2 41 110 159 
2 112 193 2 113 193 30 95 142 2 3 7 0 0 0 
0 0 0 0 0 0 0 0 0 0 0 0 0 0 0 
0 0 0 0 0 0 0 0 0 0 0 0 0 0 0 
0 0 0 0 0 0 0 0 0 0 0 0 0 0 0 
0 0 0 0 0 0 0 0 0 2 1 1 14 23 31 
18 112 179 0 113 194 0 113 193 2 112 193 18 113 184 
9 17 26 0 0 0 0 0 0 0 0 0 0 0 1 
1 0 1 1 1 3 34 97 142 1 112 194 11 111 186 
26 44 60 4 3 3 1 1 0 0 0 0 0 0 0 
0 0 0 4 2 4 4 7 12 18 109 177 5 113 190 
33 83 118 4 2 3 1 0 1 2 1 0 1 0 3 
3 1 2 30 44 53 26 112 176 31 67 99 1 1 4 
0 1 2 4 4 3 25 37 52 7 113 185 5 111 189 
34 61 82 2 2 2 2 1 4 2 1 2 1 4 3 
49 83 112 17 114 181 23 41 59 1 1 2 22 38 52 
13 113 185 1 112 194 1 112 195 31 68 96 2 2 4 
0 0 0 0 0 0 0 0 0 0 0 0 0 0 0 
0 0 0 0 0 0 0 0 0 0 0 0 0 0 0 
0 0 0 0 0 0 0 0 0 0 0 0 0 0 0 
0 0 0 0 1 0 0 1 1 1 1 3 3 1 3 
25 62 92 2 114 189 2 112 191 1 112 197 3 112 192 
21 101 161 3 4 6 0 1 4 2 0 1 0 0 4 
1 0 2 6 0 1 10 12 19 28 111 170 2 112 198 
40 113 169 1 3 7 1 2 5 1 0 1 1 0 0 
2 0 0 0 0 3 2 3 5 30 45 58 5 111 193 
18 118 190 18 32 44 2 2 3 2 1 0 1 2 5 
1 2 5 16 20 26 24 103 163 16 116 182 23 29 38 
4 1 1 1 0 2 2 3 3 28 65 95 4 112 190 
32 117 181 7 10 17 4 0 3 4 1 3 2 2 4 
22 49 74 12 109 185 45 113 161 1 4 9 3 2 8 
39 88 123 2 114 192 4 112 193 5 111 195 27 41 57 
3 3 4 0 0 0 0 0 0 0 0 0 0 0 0 
0 0 0 0 0 0 0 0 0 0 0 0 0 0 0 
0 0 0 0 0 0 0 0 0 0 0 0 0 0 0 
0 0 0 0 0 3 3 0 3 4 1 3 2 5 4 
4 7 12 42 117 170 0 114 194 2 112 191 1 112 195 
1 112 191 25 73 107 7 3 5 3 0 2 0 1 4 
2 1 4 1 1 3 8 10 15 38 69 96 9 110 184 
2 113 195 30 67 96 4 2 1 3 0 0 0 0 1 
1 0 1 0 1 7 5 0 1 8 3 2 27 73 113 
5 111 190 30 91 132 6 3 4 4 2 3 2 4 9 
3 3 11 14 20 29 34 98 136 4 113 194 41 91 128 
7 2 4 0 2 2 1 0 6 5 2 2 25 93 143 
2 111 189 31 71 99 0 1 3 1 2 8 4 4 5 
33 52 65 21 120 182 4 112 186 29 57 80 5 1 2 
21 26 33 28 114 175 2 113 193 2 114 192 23 114 178 
9 13 18 1 4 4 0 0 0 0 0 0 0 0 0 
0 0 0 0 0 0 0 0 0 0 0 0 0 0 0 
0 0 0 0 0 0 0 0 0 0 0 0 0 0 0 
0 0 0 0 0 0 1 0 0 1 4 5 4 7 13 
30 54 76 35 104 158 6 111 188 1 112 197 1 113 191 
0 113 192 1 113 193 25 103 160 22 34 45 2 2 7 
3 2 4 15 16 21 35 67 93 34 104 152 11 113 186 
1 114 195 5 113 183 24 106 162 22 36 54 1 2 5 
2 1 2 1 2 4 4 0 1 20 31 42 37 83 118 
26 114 179 3 112 193 25 86 133 34 87 124 8 70 118 
36 111 164 13 95 151 25 117 183 5 112 190 11 113 184 
25 38 54 3 3 8 3 3 2 15 23 34 33 78 117 
15 117 189 5 115 194 24 69 107 30 73 106 6 70 118 
26 105 159 8 105 174 2 114 194 29 116 180 11 13 18 
17 23 35 38 102 139 4 111 192 1 113 194 2 113 194 
29 114 174 23 34 46 3 3 5 0 0 0 0 0 0 
0 0 0 0 0 0 0 0 0 0 0 0 0 0 0 
0 0 0 0 0 0 0 0 0 0 0 0 0 0 0 
0 0 0 0 0 0 0 0 0 1 0 1 46 69 89 
38 116 174 7 114 185 0 113 194 0 112 196 1 112 192 
1 112 191 1 112 193 1 113 193 3 113 193 30 119 178 
38 57 75 57 85 107 27 111 175 6 112 188 1 113 194 
1 114 196 2 112 191 1 113 196 5 112 188 15 112 182 
49 83 110 2 3 8 9 5 6 44 88 119 24 115 178 
4 113 189 5 112 191 3 113 196 4 112 190 4 112 191 
2 113 195 0 113 194 2 113 190 0 114 195 4 111 191 
33 100 153 3 3 5 4 4 4 44 85 119 22 116 177 
4 112 193 3 114 190 2 113 192 6 111 192 3 111 196 
2 113 193 4 112 187 1 113 195 7 110 186 35 77 111 
47 87 120 26 114 177 4 111 191 1 113 194 1 113 192 
5 112 190 3 113 193 24 112 178 43 80 110 0 0 1 
0 0 0 0 0 0 0 0 0 0 0 0 0 0 0 
0 0 0 0 0 0 0 0 0 0 0 0 0 0 0 
0 0 0 0 0 0 0 0 0 0 0 0 0 0 1 
16 30 40 4 29 51 7 28 48 5 28 50 5 28 49 
5 28 47 6 28 48 6 28 48 6 28 48 7 28 46 
3 29 50 12 22 32 24 39 52 3 29 52 6 28 46 
5 28 48 6 28 47 6 28 47 4 28 50 6 28 47 
4 29 50 17 32 45 1 0 2 4 2 2 16 35 52 
4 29 51 5 28 46 5 28 49 6 28 48 5 28 48 
6 28 50 6 28 49 6 28 48 6 28 48 4 29 48 
5 29 47 11 18 25 2 0 0 0 1 3 18 34 50 
4 29 48 5 28 48 6 28 46 6 28 48 5 28 49 
7 27 48 4 28 49 5 28 49 5 28 50 6 29 47 
13 17 20 18 34 48 2 30 52 7 27 48 4 28 48 
5 28 48 4 29 50 5 29 46 6 28 46 16 34 49 
0 0 1 0 0 0 0 0 0 0 0 0 0 0 0 
0 0 0 0 0 0 0 0 0 0 0 0 0 0 0 
0 0 0 0 0 0 0 0 0 0 0 0 0 0 0 
0 0 0 0 0 0 0 0 0 0 0 0 0 0 0 
0 0 0 0 0 0 0 0 0 0 0 0 0 0 0 
0 0 0 0 0 0 0 0 0 0 0 0 0 0 0 
0 0 0 0 0 0 0 0 0 0 0 0 0 0 0 
0 0 0 0 0 0 0 0 0 0 0 0 0 0 0 
0 0 0 0 0 0 0 0 0 0 0 0 0 0 0 
0 0 0 0 0 0 0 0 0 0 0 0 0 0 0 
0 0 0 0 0 0 0 0 0 0 0 0 0 0 0 
0 0 0 0 0 0 0 0 0 0 0 0 0 0 0 
0 0 0 0 0 0 0 0 0 0 0 0 0 0 0 
0 0 0 0 0 0 0 0 0 0 0 0 0 0 0 
0 0 0 0 0 0 0 0 0 0 0 0 0 0 0 
0 0 0 0 0 0 0 0 0 0 0 0 0 0 0 
0 0 0 0 0 0 0 0 0 0 0 0 0 0 0 
0 0 0 0 0 0 0 0 0 0 0 0 0 0 0 
0 0 0 0 0 0 0 0 0 0 0 0 0 0 0 
0 0 0 0 0 0 0 0 0 0 0 0 0 0 0 
0 0 0 0 0 0 0 0 0 0 0 0 0 0 0 
0 0 0 0 0 0 0 0 0 0 0 0 0 0 0 
0 0 0 0 0 0 0 0 0 0 0 0 0 0 0 
0 0 0 0 0 0 0 0 0 0 0 0 0 0 0 
0 0 0 0 0 0 0 0 0 0 0 0 0 0 0 
0 0 0 0 0 0 0 0 0 0 0 0 0 0 0 
0 0 0 0 0 0 0 0 0 0 0 0 0 0 0 
0 0 0 0 0 0 0 0 0 0 0 0 0 0 0 
0 0 0 0 0 0 0 0 0 0 0 0 0 0 0 
0 0 0 0 0 0 0 0 0 0 0 0 0 0 0 
0 0 0 0 0 0 0 0 0 0 0 0 0 0 0 
0 0 0 0 0 0 0 0 0 0 0 0 0 0 0 
0 0 0 0 0 0 0 0 0 0 0 0 0 0 0 
0 0 0 0 0 0 0 0 0 0 0 0 0 0 0 
0 0 0 0 0 0 0 0 0 0 0 0 0 0 0 
0 0 0 0 0 0 0 0 0 0 0 0 0 0 0 
0 0 0 0 0 0 0 0 0 0 0 0 0 0 0 
0 0 0 0 0 0 0 0 0 0 0 0 0 0 0 
0 0 0 0 0 0 0 0 0 0 0 0 0 0 0 
0 0 0 0 0 0 0 0 0 0 0 0 0 0 0 
0 0 0 0 0 0 0 0 0 0 0 0 0 0 0 
0 0 0 0 0 0 0 0 0 0 0 0 0 0 0 
0 0 0 0 0 0 0 0 0 0 0 0 0 0 0 
0 0 0 0 0 0 0 0 0 0 0 0 0 0 0 
0 0 0 0 0 0 0 0 0 0 0 0 0 0 0 
0 0 0 0 0 0 0 0 0 0 0 0 0 0 0 
0 0 0 0 0 0 0 0 0 0 0 0 0 0 0 
0 0 0 0 0 0 0 0 0 0 0 0 0 0 0 
