P3
# Created by IrfanView
30 30
255
37 177 78 37 177 78 37 177 78 37 177 78 37 177 78 
37 177 78 37 177 78 37 177 78 37 177 78 37 177 78 
37 177 78 37 177 78 37 177 78 37 177 78 37 177 78 
37 177 78 37 177 78 37 177 78 37 177 78 37 177 78 
37 177 78 37 177 78 37 177 78 37 177 78 37 177 78 
37 177 78 37 177 78 37 177 78 37 177 78 37 177 78 
37 177 78 37 177 78 37 177 78 37 177 78 37 177 78 
37 177 78 37 177 78 37 177 78 37 177 78 37 177 78 
37 177 78 37 177 78 37 177 78 37 177 78 37 177 78 
37 177 78 37 177 78 37 177 78 37 177 78 37 177 78 
37 177 78 37 177 78 37 177 78 37 177 78 37 177 78 
37 177 78 37 177 78 37 177 78 37 177 78 37 177 78 
37 177 78 37 177 78 37 177 78 37 177 78 37 177 78 
37 177 78 37 177 78 37 177 78 37 177 78 37 177 78 
37 177 78 27 130 58 39 75 50 81 107 88 81 107 88 
81 107 88 81 107 88 38 75 49 27 131 58 37 177 78 
37 177 78 37 177 78 37 177 78 37 177 78 37 177 78 
37 177 78 37 177 78 37 177 78 37 177 78 37 177 78 
37 177 78 37 177 78 37 177 78 37 177 78 37 177 78 
37 177 78 37 177 78 37 177 78 36 173 76 27 102 49 
65 72 67 122 125 123 188 188 188 195 195 195 195 195 195 
195 195 195 195 195 195 188 188 188 95 97 95 25 114 51 
37 177 78 37 177 78 37 177 78 37 177 78 37 177 78 
37 177 78 37 177 78 37 177 78 37 177 78 37 177 78 
37 177 78 37 177 78 37 177 78 37 177 78 37 177 78 
37 177 78 37 177 78 37 177 78 22 107 47 140 140 140 
195 195 195 195 195 195 195 195 195 195 195 195 195 195 195 
181 181 181 155 155 155 162 162 162 195 195 195 96 97 96 
34 162 71 37 177 78 37 177 78 37 177 78 37 177 78 
37 177 78 37 177 78 37 177 78 37 177 78 37 177 78 
37 177 78 37 177 78 37 177 78 37 177 78 37 177 78 
37 177 78 37 177 78 37 177 78 36 72 46 123 123 123 
167 167 167 195 195 195 195 195 195 195 195 195 180 180 180 
77 77 77 86 86 86 79 79 79 129 129 129 194 194 194 
37 71 47 37 177 78 37 177 78 37 177 78 37 177 78 
37 177 78 37 177 78 37 177 78 37 177 78 37 177 78 
37 177 78 37 177 78 37 177 78 37 177 78 37 177 78 
37 177 78 37 177 78 28 116 54 89 93 90 115 115 115 
67 67 67 104 104 104 194 194 194 186 186 186 70 70 70 
216 216 216 194 194 194 201 201 201 116 116 116 134 134 134 
88 99 91 32 153 67 37 177 78 37 177 78 37 177 78 
37 177 78 37 177 78 37 177 78 37 177 78 37 177 78 
37 177 78 37 177 78 37 177 78 37 177 78 37 177 78 
37 177 78 26 123 54 156 156 156 128 128 128 64 64 64 
255 255 255 142 142 142 162 162 162 177 177 177 57 57 57 
255 255 255 107 107 107 129 129 129 175 175 175 87 87 87 
154 154 154 26 125 55 37 177 78 37 177 78 37 177 78 
37 177 78 37 177 78 37 177 78 37 177 78 37 177 78 
37 177 78 37 177 78 37 177 78 37 177 78 37 177 78 
37 177 78 31 150 66 114 130 119 214 214 214 216 216 216 
212 212 212 99 99 99 172 172 172 182 182 182 60 60 60 
239 239 239 255 255 255 255 255 255 142 142 142 111 111 111 
87 101 91 34 163 72 37 177 78 37 177 78 37 177 78 
37 177 78 37 177 78 37 177 78 37 177 78 37 177 78 
37 177 78 37 177 78 37 177 78 37 177 78 37 177 78 
37 177 78 37 177 78 21 102 45 63 63 63 36 36 36 
63 63 63 150 150 150 195 195 195 195 195 195 158 158 158 
85 85 85 147 147 147 127 127 127 98 98 98 190 190 190 
24 69 37 37 177 78 37 177 78 37 177 78 37 177 78 
37 177 78 37 177 78 37 177 78 37 177 78 37 177 78 
37 177 78 37 177 78 37 177 78 37 177 78 37 177 78 
37 177 78 37 177 78 24 115 51 91 95 92 169 169 169 
170 170 170 113 118 115 100 103 101 135 135 135 195 195 195 
163 163 163 108 108 108 119 119 119 144 144 144 58 92 68 
23 111 49 37 177 78 37 177 78 37 177 78 37 177 78 
37 177 78 37 177 78 37 177 78 37 177 78 37 177 78 
37 177 78 37 177 78 37 177 78 37 177 78 37 177 78 
37 177 78 37 177 78 37 177 78 64 99 74 33 76 46 
26 67 38 43 80 54 82 106 89 24 66 36 149 149 149 
195 195 195 195 195 195 101 101 101 32 37 105 18 39 50 
37 177 78 37 177 78 37 177 78 37 177 78 37 177 78 
37 177 78 37 177 78 37 177 78 37 177 78 37 177 78 
37 177 78 37 177 78 37 177 78 37 177 78 37 177 78 
37 177 78 37 177 78 37 177 78 34 110 57 30 122 57 
33 159 70 32 154 68 31 150 66 24 116 51 129 129 129 
195 195 195 154 154 154 24 26 48 47 54 153 35 41 114 
31 148 65 37 177 78 37 177 78 37 177 78 37 177 78 
37 177 78 37 177 78 37 177 78 37 177 78 37 177 78 
37 177 78 37 177 78 37 177 78 37 177 78 37 177 78 
37 177 78 37 177 78 37 177 78 37 177 78 37 177 78 
22 56 32 47 71 53 27 71 39 106 109 107 192 192 192 
153 153 153 31 34 74 50 57 163 47 54 153 61 70 197 
21 102 45 37 177 78 37 177 78 37 177 78 37 177 78 
37 177 78 37 177 78 37 177 78 37 177 78 37 177 78 
37 177 78 37 177 78 37 177 78 37 177 78 37 177 78 
37 177 78 37 177 78 37 177 78 37 177 78 37 177 78 
23 74 38 79 80 99 83 84 112 83 84 112 83 84 112 
38 41 89 61 70 198 51 59 167 47 54 153 63 71 202 
16 59 41 37 177 78 37 177 78 37 177 78 37 177 78 
37 177 78 37 177 78 37 177 78 37 177 78 37 177 78 
37 177 78 37 177 78 37 177 78 37 177 78 37 177 78 
37 177 78 37 177 78 37 177 78 37 177 78 37 177 78 
32 153 67 44 50 143 63 72 204 63 72 204 63 72 204 
63 72 204 63 72 204 51 59 167 47 54 153 63 72 204 
37 47 120 28 137 60 37 177 78 37 177 78 37 177 78 
37 177 78 37 177 78 37 177 78 37 177 78 37 177 78 
37 177 78 37 177 78 37 177 78 37 177 78 37 177 78 
37 177 78 37 177 78 37 177 78 37 177 78 37 177 78 
21 88 50 53 61 172 63 72 204 25 29 82 63 72 204 
43 49 138 58 67 189 57 65 184 30 34 96 63 72 204 
54 62 176 19 90 41 37 177 78 37 177 78 37 177 78 
37 177 78 37 177 78 37 177 78 37 177 78 37 177 78 
37 177 78 37 177 78 37 177 78 37 177 78 37 177 78 
37 177 78 37 177 78 37 177 78 37 177 78 37 177 78 
24 86 61 63 72 204 63 72 204 8 9 27 63 72 204 
41 46 131 58 66 188 63 72 204 36 41 115 63 72 204 
63 72 204 27 61 78 36 172 76 37 177 78 37 177 78 
37 177 78 37 177 78 37 177 78 37 177 78 37 177 78 
37 177 78 37 177 78 37 177 78 37 177 78 37 177 78 
37 177 78 37 177 78 37 177 78 37 177 78 37 177 78 
20 63 51 63 72 204 63 72 204 6 7 21 57 65 183 
41 46 131 58 66 188 63 72 204 36 41 115 63 72 204 
52 59 169 16 29 48 33 157 69 37 177 78 37 177 78 
37 177 78 37 177 78 37 177 78 37 177 78 37 177 78 
37 177 78 37 177 78 37 177 78 37 177 78 37 177 78 
37 177 78 37 177 78 37 177 78 37 177 78 23 110 48 
32 37 104 63 72 204 63 72 204 16 69 37 30 34 96 
41 46 131 58 66 188 58 66 188 41 46 131 28 31 88 
94 64 54 118 83 58 32 152 67 37 177 78 37 177 78 
37 177 78 37 177 78 37 177 78 37 177 78 37 177 78 
37 177 78 37 177 78 37 177 78 37 177 78 37 177 78 
37 177 78 37 177 78 37 177 78 37 177 78 5 31 23 
0 91 131 0 91 131 11 37 71 21 95 45 22 103 46 
24 27 78 58 66 188 40 44 119 49 32 24 174 115 83 
185 122 87 163 107 77 32 83 39 37 177 78 37 177 78 
37 177 78 37 177 78 37 177 78 37 177 78 37 177 78 
37 177 78 37 177 78 37 177 78 37 177 78 37 177 78 
37 177 78 37 177 78 37 177 78 37 177 78 9 64 51 
0 120 172 0 120 172 0 72 104 31 147 65 35 165 73 
11 32 30 58 67 189 52 43 74 185 122 87 185 122 87 
185 122 87 185 122 87 45 91 46 37 177 78 37 177 78 
37 177 78 37 177 78 37 177 78 37 177 78 37 177 78 
37 177 78 37 177 78 37 177 78 37 177 78 37 177 78 
37 177 78 37 177 78 37 177 78 37 177 78 34 163 72 
13 63 28 21 102 45 30 146 64 37 176 77 30 144 64 
34 44 110 60 68 193 69 45 32 185 122 87 153 101 72 
154 102 73 185 122 87 64 53 35 36 172 76 37 177 78 
37 177 78 37 177 78 37 177 78 37 177 78 37 177 78 
37 177 78 37 177 78 37 177 78 37 177 78 37 177 78 
37 177 78 37 177 78 37 177 78 37 177 78 37 177 78 
16 76 34 26 124 55 37 177 78 35 168 74 7 42 27 
24 31 81 31 42 111 55 46 84 185 122 87 103 68 48 
106 70 50 185 122 87 111 73 52 36 171 75 37 177 78 
37 177 78 37 177 78 37 177 78 37 177 78 37 177 78 
37 177 78 37 177 78 37 177 78 37 177 78 37 177 78 
37 177 78 37 177 78 37 177 78 32 153 68 17 83 37 
9 43 19 22 108 47 37 177 78 34 160 71 0 84 120 
0 52 74 2 62 88 101 67 47 185 122 87 54 51 28 
106 70 50 185 122 87 111 73 52 36 171 75 37 177 78 
37 177 78 37 177 78 37 177 78 37 177 78 37 177 78 
37 177 78 37 177 78 37 177 78 37 177 78 37 177 78 
37 177 78 37 177 78 37 177 78 37 177 78 26 126 55 
16 77 34 11 53 23 34 164 72 24 115 50 5 26 12 
13 64 13 135 89 64 185 122 87 185 122 87 40 98 28 
57 91 34 185 122 87 111 73 52 36 171 75 37 177 78 
37 177 78 37 177 78 37 177 78 37 177 78 37 177 78 
37 177 78 37 177 78 37 177 78 37 177 78 37 177 78 
37 177 78 37 177 78 37 177 78 37 177 78 37 177 78 
33 158 69 31 149 66 37 177 78 24 113 50 12 55 20 
33 43 19 173 114 81 185 122 87 157 104 74 30 95 24 
41 97 29 177 117 83 106 70 50 36 171 75 37 177 78 
37 177 78 37 177 78 37 177 78 37 177 78 37 177 78 
37 177 78 37 177 78 37 177 78 37 177 78 37 177 78 
37 177 78 37 177 78 37 177 78 37 177 78 37 177 78 
37 177 78 37 177 78 35 165 73 35 169 75 29 138 60 
12 56 25 36 23 17 74 54 35 56 66 30 35 170 36 
28 135 28 2 10 2 0 0 0 36 171 75 37 177 78 
37 177 78 37 177 78 37 177 78 37 177 78 37 177 78 
37 177 78 37 177 78 37 177 78 37 177 78 37 177 78 
37 177 78 37 177 78 37 177 78 37 177 78 37 177 78 
37 177 78 37 177 78 33 64 32 62 85 47 22 106 46 
46 39 25 56 37 26 26 38 15 56 98 35 41 71 25 
25 120 25 42 41 21 56 37 26 26 116 51 37 177 78 
37 177 78 37 177 78 37 177 78 37 177 78 37 177 78 
37 177 78 37 177 78 37 177 78 37 177 78 37 177 78 
37 177 78 37 177 78 37 177 78 37 177 78 37 177 78 
37 177 78 37 177 78 29 100 46 65 45 31 80 53 38 
100 66 47 105 69 49 43 41 22 48 49 24 94 62 44 
80 53 38 98 64 46 105 69 49 23 97 43 37 177 78 
37 177 78 37 177 78 37 177 78 37 177 78 37 177 78 
