P3
# Created by IrfanView
30 30
255
37 177 78 37 177 78 37 177 78 37 177 78 37 177 78 
37 177 78 37 177 78 37 177 78 37 177 78 37 177 78 
37 177 78 37 177 78 37 177 78 37 177 78 37 177 78 
37 177 78 37 177 78 37 177 78 37 177 78 37 177 78 
37 177 78 37 177 78 37 177 78 37 177 78 37 177 78 
37 177 78 37 177 78 37 177 78 37 177 78 37 177 78 
37 177 78 37 177 78 37 177 78 37 177 78 37 177 78 
37 177 78 37 177 78 37 177 78 37 177 78 37 177 78 
37 177 78 37 177 78 37 177 78 37 177 78 37 177 78 
37 177 78 37 177 78 37 177 78 37 177 78 37 177 78 
37 177 78 37 177 78 37 177 78 37 177 78 37 177 78 
37 177 78 37 177 78 37 177 78 37 177 78 37 177 78 
37 177 78 37 177 78 37 177 78 37 177 78 37 177 78 
37 177 78 37 177 78 37 177 78 37 177 78 37 177 78 
37 177 78 27 130 58 45 50 26 97 44 28 97 44 28 
97 44 28 97 44 28 44 51 26 27 131 58 37 177 78 
37 177 78 37 177 78 37 177 78 37 177 78 37 177 78 
37 177 78 37 177 78 37 177 78 37 177 78 37 177 78 
37 177 78 37 177 78 37 177 78 37 177 78 37 177 78 
37 177 78 37 177 78 37 177 78 36 173 76 28 97 43 
79 19 16 149 20 24 229 27 35 237 28 36 237 28 36 
237 28 36 237 28 36 229 27 35 115 16 19 25 112 49 
37 177 78 37 177 78 37 177 78 37 177 78 37 177 78 
37 177 78 37 177 78 37 177 78 37 177 78 37 177 78 
37 177 78 37 177 78 37 177 78 37 177 78 37 177 78 
37 177 78 37 177 78 37 177 78 22 107 47 170 20 26 
237 28 36 237 28 36 237 28 36 237 28 36 237 28 36 
220 26 34 188 22 29 197 23 30 237 28 36 116 15 18 
34 162 71 37 177 78 37 177 78 37 177 78 37 177 78 
37 177 78 37 177 78 37 177 78 37 177 78 37 177 78 
37 177 78 37 177 78 37 177 78 37 177 78 37 177 78 
37 177 78 37 177 78 37 177 78 41 49 25 150 18 23 
203 24 31 237 28 36 237 28 36 237 28 36 219 26 33 
85 10 13 80 9 12 75 8 11 156 19 24 235 28 36 
43 47 24 37 177 78 37 177 78 37 177 78 37 177 78 
37 177 78 37 177 78 37 177 78 37 177 78 37 177 78 
37 177 78 37 177 78 37 177 78 37 177 78 37 177 78 
37 177 78 37 177 78 28 111 49 83 14 15 107 12 16 
65 8 10 125 15 19 236 28 36 227 27 34 78 9 12 
201 24 30 180 21 27 187 22 28 109 13 17 163 19 25 
107 26 22 32 153 67 37 177 78 37 177 78 37 177 78 
37 177 78 37 177 78 37 177 78 37 177 78 37 177 78 
37 177 78 37 177 78 37 177 78 37 177 78 37 177 78 
37 177 78 26 123 54 145 17 22 119 14 18 59 7 9 
237 28 36 133 16 20 197 23 30 215 25 33 53 6 8 
237 28 36 99 12 15 120 14 18 163 19 25 105 12 16 
187 22 28 26 125 55 37 177 78 37 177 78 37 177 78 
37 177 78 37 177 78 37 177 78 37 177 78 37 177 78 
37 177 78 37 177 78 37 177 78 37 177 78 37 177 78 
37 177 78 31 150 66 107 32 24 199 23 30 201 24 30 
197 23 30 96 12 15 209 25 32 221 26 34 61 7 9 
222 26 34 237 28 36 237 28 36 132 16 20 136 16 21 
104 30 23 34 163 72 37 177 78 37 177 78 37 177 78 
37 177 78 37 177 78 37 177 78 37 177 78 37 177 78 
37 177 78 37 177 78 37 177 78 37 177 78 37 177 78 
37 177 78 37 177 78 21 102 45 68 8 10 33 4 5 
72 9 11 182 21 28 237 28 36 237 28 36 192 23 29 
84 10 13 136 16 21 117 14 18 116 14 17 231 27 35 
26 59 27 37 177 78 37 177 78 37 177 78 37 177 78 
37 177 78 37 177 78 37 177 78 37 177 78 37 177 78 
37 177 78 37 177 78 37 177 78 37 177 78 37 177 78 
37 177 78 37 177 78 24 115 51 110 18 19 206 24 31 
207 25 32 137 22 23 117 17 19 163 19 25 237 28 36 
199 24 30 132 16 20 146 17 22 175 21 27 68 50 28 
23 111 49 37 177 78 37 177 78 37 177 78 37 177 78 
37 177 78 37 177 78 37 177 78 37 177 78 37 177 78 
37 177 78 37 177 78 37 177 78 37 177 78 37 177 78 
37 177 78 37 177 78 37 177 78 60 51 28 32 56 27 
25 54 25 41 51 26 77 38 24 24 55 26 181 22 27 
237 28 36 237 28 36 123 15 19 32 37 105 18 39 50 
37 177 78 37 177 78 37 177 78 37 177 78 37 177 78 
37 177 78 37 177 78 37 177 78 37 177 78 37 177 78 
37 177 78 37 177 78 37 177 78 37 177 78 37 177 78 
37 177 78 37 177 78 37 177 78 33 98 44 30 117 52 
33 159 70 32 154 68 31 150 66 24 116 51 156 18 24 
237 28 36 187 22 28 27 14 37 47 54 153 35 41 114 
31 148 65 37 177 78 37 177 78 37 177 78 37 177 78 
37 177 78 37 177 78 37 177 78 37 177 78 37 177 78 
37 177 78 37 177 78 37 177 78 37 177 78 37 177 78 
37 177 78 37 177 78 37 177 78 37 177 78 37 177 78 
25 44 21 56 35 21 31 57 27 129 19 21 233 28 35 
185 22 28 33 24 65 50 57 163 47 54 153 61 70 197 
21 102 45 37 177 78 37 177 78 37 177 78 37 177 78 
37 177 78 37 177 78 37 177 78 37 177 78 37 177 78 
37 177 78 37 177 78 37 177 78 37 177 78 37 177 78 
37 177 78 37 177 78 37 177 78 37 177 78 37 177 78 
25 66 30 93 21 43 97 25 56 97 25 56 97 25 56 
41 28 77 61 70 198 51 59 167 47 54 153 63 71 202 
16 59 41 37 177 78 37 177 78 37 177 78 37 177 78 
37 177 78 37 177 78 37 177 78 37 177 78 37 177 78 
37 177 78 37 177 78 37 177 78 37 177 78 37 177 78 
37 177 78 37 177 78 37 177 78 37 177 78 37 177 78 
32 153 67 44 50 143 63 72 204 63 72 204 63 72 204 
63 72 204 63 72 204 51 59 167 47 54 153 63 72 204 
37 47 120 28 137 60 37 177 78 37 177 78 37 177 78 
37 177 78 37 177 78 37 177 78 37 177 78 37 177 78 
37 177 78 37 177 78 37 177 78 37 177 78 37 177 78 
37 177 78 37 177 78 37 177 78 37 177 78 37 177 78 
21 88 50 53 61 172 63 72 204 25 29 82 63 72 204 
43 49 138 58 67 189 57 65 184 30 34 96 63 72 204 
54 62 176 19 90 41 37 177 78 37 177 78 37 177 78 
37 177 78 37 177 78 37 177 78 37 177 78 37 177 78 
37 177 78 37 177 78 37 177 78 37 177 78 37 177 78 
37 177 78 37 177 78 37 177 78 37 177 78 37 177 78 
24 86 61 63 72 204 63 72 204 8 9 27 63 72 204 
41 46 131 58 66 188 63 72 204 36 41 115 63 72 204 
63 72 204 27 61 78 36 172 76 37 177 78 37 177 78 
37 177 78 37 177 78 37 177 78 37 177 78 37 177 78 
37 177 78 37 177 78 37 177 78 37 177 78 37 177 78 
37 177 78 37 177 78 37 177 78 37 177 78 37 177 78 
20 63 51 63 72 204 63 72 204 6 7 21 57 65 183 
41 46 131 58 66 188 63 72 204 36 41 115 63 72 204 
52 59 169 16 29 48 33 157 69 37 177 78 37 177 78 
37 177 78 37 177 78 37 177 78 37 177 78 37 177 78 
37 177 78 37 177 78 37 177 78 37 177 78 37 177 78 
37 177 78 37 177 78 37 177 78 37 177 78 23 110 48 
32 37 104 63 72 204 63 72 204 16 69 37 30 34 96 
41 46 131 58 66 188 58 66 188 41 46 131 28 31 88 
94 64 54 118 83 58 32 152 67 37 177 78 37 177 78 
37 177 78 37 177 78 37 177 78 37 177 78 37 177 78 
37 177 78 37 177 78 37 177 78 37 177 78 37 177 78 
37 177 78 37 177 78 37 177 78 37 177 78 5 31 23 
0 91 131 0 91 131 11 37 71 21 95 45 22 103 46 
24 27 78 58 66 188 40 44 119 49 32 24 174 115 83 
185 122 87 163 107 77 32 83 39 37 177 78 37 177 78 
37 177 78 37 177 78 37 177 78 37 177 78 37 177 78 
37 177 78 37 177 78 37 177 78 37 177 78 37 177 78 
37 177 78 37 177 78 37 177 78 37 177 78 9 64 51 
0 120 172 0 120 172 0 72 104 31 147 65 35 165 73 
11 32 30 58 67 189 52 43 74 185 122 87 185 122 87 
185 122 87 185 122 87 45 91 46 37 177 78 37 177 78 
37 177 78 37 177 78 37 177 78 37 177 78 37 177 78 
37 177 78 37 177 78 37 177 78 37 177 78 37 177 78 
37 177 78 37 177 78 37 177 78 37 177 78 34 163 72 
13 63 28 21 102 45 30 146 64 37 176 77 30 144 64 
34 44 110 60 68 193 69 45 32 185 122 87 153 101 72 
154 102 73 185 122 87 64 53 35 36 172 76 37 177 78 
37 177 78 37 177 78 37 177 78 37 177 78 37 177 78 
37 177 78 37 177 78 37 177 78 37 177 78 37 177 78 
37 177 78 37 177 78 37 177 78 37 177 78 37 177 78 
16 76 34 26 124 55 37 177 78 35 168 74 7 42 27 
24 31 81 31 42 111 55 46 84 185 122 87 103 68 48 
106 70 50 185 122 87 111 73 52 36 171 75 37 177 78 
37 177 78 37 177 78 37 177 78 37 177 78 37 177 78 
37 177 78 37 177 78 37 177 78 37 177 78 37 177 78 
37 177 78 37 177 78 37 177 78 32 153 68 17 83 37 
9 43 19 22 108 47 37 177 78 34 160 71 0 84 120 
0 52 74 2 62 88 101 67 47 185 122 87 54 51 28 
106 70 50 185 122 87 111 73 52 36 171 75 37 177 78 
37 177 78 37 177 78 37 177 78 37 177 78 37 177 78 
37 177 78 37 177 78 37 177 78 37 177 78 37 177 78 
37 177 78 37 177 78 37 177 78 37 177 78 26 126 55 
16 77 34 11 53 23 34 164 72 24 115 50 5 26 12 
13 64 13 135 89 64 185 122 87 185 122 87 40 98 28 
57 91 34 185 122 87 111 73 52 36 171 75 37 177 78 
37 177 78 37 177 78 37 177 78 37 177 78 37 177 78 
37 177 78 37 177 78 37 177 78 37 177 78 37 177 78 
37 177 78 37 177 78 37 177 78 37 177 78 37 177 78 
33 158 69 31 149 66 37 177 78 24 113 50 12 55 20 
33 43 19 173 114 81 185 122 87 157 104 74 30 95 24 
41 97 29 177 117 83 106 70 50 36 171 75 37 177 78 
37 177 78 37 177 78 37 177 78 37 177 78 37 177 78 
37 177 78 37 177 78 37 177 78 37 177 78 37 177 78 
37 177 78 37 177 78 37 177 78 37 177 78 37 177 78 
37 177 78 37 177 78 35 165 73 35 169 75 29 138 60 
12 56 25 36 23 17 74 54 35 56 66 30 35 170 36 
28 135 28 2 10 2 0 0 0 36 171 75 37 177 78 
37 177 78 37 177 78 37 177 78 37 177 78 37 177 78 
37 177 78 37 177 78 37 177 78 37 177 78 37 177 78 
37 177 78 37 177 78 37 177 78 37 177 78 37 177 78 
37 177 78 37 177 78 33 64 32 62 85 47 22 106 46 
46 39 25 56 37 26 26 38 15 56 98 35 41 71 25 
25 120 25 42 41 21 56 37 26 26 116 51 37 177 78 
37 177 78 37 177 78 37 177 78 37 177 78 37 177 78 
37 177 78 37 177 78 37 177 78 37 177 78 37 177 78 
37 177 78 37 177 78 37 177 78 37 177 78 37 177 78 
37 177 78 37 177 78 29 100 46 65 45 31 80 53 38 
100 66 47 105 69 49 43 41 22 48 49 24 94 62 44 
80 53 38 98 64 46 105 69 49 23 97 43 37 177 78 
37 177 78 37 177 78 37 177 78 37 177 78 37 177 78 
