P3
# Created by IrfanView
95 40
255
255 201 14 255 201 14 255 201 14 255 201 14 255 201 14 
255 201 14 255 201 14 255 201 14 255 201 14 255 201 14 
255 201 14 255 201 14 255 201 14 255 201 14 255 201 14 
255 201 14 255 201 14 255 201 14 255 201 14 255 201 14 
255 201 14 255 201 14 255 201 14 255 201 14 255 201 14 
255 201 14 255 201 14 255 201 14 255 201 14 255 201 14 
255 201 14 255 201 14 255 201 14 255 201 14 255 201 14 
255 201 14 255 201 14 255 201 14 255 201 14 255 201 14 
255 201 14 255 201 14 255 201 14 255 201 14 255 201 14 
255 201 14 255 201 14 255 201 14 255 201 14 255 201 14 
255 201 14 255 201 14 255 201 14 255 201 14 255 201 14 
255 201 14 255 201 14 255 201 14 255 201 14 255 201 14 
255 201 14 255 201 14 255 201 14 255 201 14 255 201 14 
255 201 14 255 201 14 255 201 14 255 201 14 255 201 14 
255 201 14 255 201 14 255 201 14 255 201 14 255 201 14 
255 201 14 255 201 14 255 201 14 255 201 14 255 201 14 
255 201 14 255 201 14 255 201 14 255 201 14 255 201 14 
255 201 14 255 201 14 255 201 14 255 201 14 255 201 14 
255 201 14 255 201 14 255 201 14 255 201 14 255 201 14 
255 201 14 255 201 14 255 201 14 255 201 14 255 201 14 
255 201 14 255 201 14 255 201 14 255 201 14 255 201 14 
255 201 14 255 201 14 255 201 14 255 201 14 255 201 14 
255 201 14 255 201 14 255 201 14 255 201 14 255 201 14 
255 201 14 255 201 14 255 201 14 255 201 14 255 201 14 
255 201 14 255 201 14 255 201 14 255 201 14 255 201 14 
255 201 14 255 201 14 255 201 14 255 201 14 255 201 14 
255 201 14 255 201 14 255 201 14 255 201 14 255 201 14 
255 201 14 255 201 14 255 201 14 255 201 14 255 201 14 
255 201 14 255 201 14 255 201 14 255 201 14 255 201 14 
255 201 14 255 201 14 255 201 14 255 201 14 255 201 14 
255 201 14 255 201 14 255 201 14 255 201 14 255 201 14 
255 201 14 255 201 14 255 201 14 255 201 14 255 201 14 
255 201 14 255 201 14 255 201 14 255 201 14 255 201 14 
255 201 14 255 201 14 255 201 14 255 201 14 255 201 14 
255 201 14 255 201 14 255 201 14 255 201 14 255 201 14 
255 201 14 255 201 14 255 201 14 255 201 14 255 201 14 
255 201 14 255 201 14 255 201 14 255 201 14 255 201 14 
255 201 14 255 201 14 255 201 14 255 201 14 255 201 14 
255 201 14 255 201 14 255 201 14 255 201 14 255 201 14 
255 201 14 255 201 14 255 201 14 255 201 14 255 201 14 
255 201 14 255 201 14 255 201 14 255 201 14 255 201 14 
255 201 14 255 201 14 255 201 14 255 201 14 255 201 14 
255 201 14 255 201 14 255 201 14 255 201 14 255 201 14 
255 201 14 255 201 14 255 201 14 255 201 14 255 201 14 
255 201 14 255 201 14 255 201 14 255 201 14 255 201 14 
255 201 14 255 201 14 255 201 14 255 201 14 255 201 14 
255 201 14 255 201 14 255 201 14 255 201 14 255 201 14 
255 201 14 255 201 14 255 201 14 255 201 14 255 201 14 
255 201 14 255 201 14 255 201 14 255 201 14 255 201 14 
255 201 14 255 201 14 255 201 14 255 201 14 255 201 14 
255 201 14 255 201 14 255 201 14 255 201 14 255 201 14 
255 201 14 255 201 14 255 201 14 255 201 14 255 201 14 
255 201 14 255 201 14 255 201 14 255 201 14 255 201 14 
255 201 14 255 201 14 255 201 14 255 201 14 255 201 14 
255 201 14 255 201 14 255 201 14 255 201 14 255 201 14 
255 201 14 255 201 14 255 201 14 255 201 14 255 201 14 
255 201 14 255 201 14 255 201 14 255 201 14 255 201 14 
255 201 14 255 201 14 255 201 14 255 201 14 255 201 14 
255 201 14 255 201 14 255 201 14 255 201 14 255 201 14 
255 201 14 255 201 14 255 201 14 255 201 14 255 201 14 
255 201 14 255 201 14 255 201 14 255 201 14 255 201 14 
255 201 14 255 201 14 255 201 14 255 201 14 255 201 14 
255 201 14 255 201 14 255 201 14 255 201 14 255 201 14 
255 201 14 255 201 14 255 201 14 255 201 14 255 201 14 
255 201 14 255 201 14 255 201 14 255 201 14 255 201 14 
255 201 14 255 201 14 255 201 14 255 201 14 255 201 14 
255 201 14 255 201 14 255 201 14 255 201 14 255 201 14 
255 201 14 255 201 14 255 201 14 255 201 14 255 201 14 
255 201 14 255 201 14 255 201 14 255 201 14 255 201 14 
255 201 14 255 201 14 255 201 14 255 201 14 255 201 14 
255 201 14 255 201 14 255 201 14 255 201 14 255 201 14 
255 201 14 255 201 14 255 201 14 255 201 14 255 201 14 
255 201 14 255 201 14 255 201 14 255 201 14 255 201 14 
255 201 14 255 201 14 255 201 14 255 201 14 255 201 14 
255 201 14 255 201 14 255 201 14 255 201 14 255 201 14 
255 201 14 255 201 14 255 201 14 255 201 14 255 201 14 
255 201 14 255 201 14 255 201 14 255 201 14 255 201 14 
255 201 14 255 201 14 255 201 14 255 201 14 255 201 14 
255 201 14 255 201 14 255 201 14 255 201 14 255 201 14 
255 201 14 255 201 14 255 201 14 255 201 14 255 201 14 
255 201 14 255 201 14 255 201 14 255 201 14 255 201 14 
255 201 14 255 201 14 255 201 14 255 201 14 255 201 14 
255 201 14 255 201 14 255 201 14 255 201 14 255 201 14 
255 201 14 255 201 14 255 201 14 255 201 14 255 201 14 
255 201 14 255 201 14 255 201 14 255 201 14 255 201 14 
255 201 14 255 201 14 255 201 14 255 201 14 255 201 14 
255 201 14 255 201 14 255 201 14 255 201 14 255 201 14 
255 201 14 255 201 14 255 201 14 255 201 14 255 201 14 
255 201 14 255 201 14 255 201 14 255 201 14 255 201 14 
255 201 14 255 201 14 255 201 14 255 201 14 255 201 14 
255 201 14 255 201 14 255 201 14 255 201 14 255 201 14 
255 201 14 255 201 14 255 201 14 255 201 14 255 201 14 
255 201 14 255 201 14 255 201 14 255 201 14 255 201 14 
255 201 14 255 201 14 255 201 14 255 201 14 255 201 14 
255 201 14 255 201 14 255 201 14 255 201 14 255 201 14 
255 201 14 255 201 14 255 201 14 255 201 14 255 201 14 
255 201 14 255 201 14 255 201 14 255 201 14 255 201 14 
255 201 14 255 201 14 255 201 14 255 201 14 255 201 14 
255 201 14 255 201 14 255 201 14 255 201 14 255 201 14 
255 201 14 255 201 14 255 201 14 255 201 14 255 201 14 
255 201 14 255 201 14 255 201 14 255 201 14 255 201 14 
255 201 14 255 201 14 255 201 14 255 201 14 255 201 14 
255 201 14 255 201 14 255 201 14 255 201 14 255 201 14 
255 201 14 255 201 14 255 201 14 255 201 14 255 201 14 
255 201 14 255 201 14 255 201 14 255 201 14 255 201 14 
255 201 14 255 201 14 255 201 14 255 201 14 255 201 14 
255 201 14 255 201 14 255 201 14 255 201 14 255 201 14 
255 201 14 255 201 14 255 201 14 255 201 14 255 201 14 
255 201 14 255 201 14 255 201 14 255 201 14 255 201 14 
255 201 14 255 201 14 255 201 14 255 201 14 255 201 14 
255 201 14 255 201 14 255 201 14 255 201 14 255 201 14 
255 201 14 255 201 14 255 201 14 255 201 14 255 201 14 
255 201 14 255 201 14 255 201 14 255 201 14 255 201 14 
255 201 14 255 201 14 255 201 14 255 201 14 255 201 14 
255 201 14 255 201 14 255 201 14 255 201 14 255 201 14 
255 201 14 255 201 14 255 201 14 255 201 14 255 201 14 
255 201 14 255 201 14 255 201 14 255 201 14 255 201 14 
255 201 14 255 201 14 0 0 0 0 0 0 0 0 0 
0 0 0 0 0 0 0 0 0 0 0 0 0 0 0 
0 0 0 0 0 0 0 0 0 0 0 0 0 0 0 
255 201 14 255 201 14 255 201 14 255 201 14 255 201 14 
255 201 14 255 201 14 255 201 14 255 201 14 255 201 14 
255 201 14 255 201 14 255 201 14 255 201 14 255 201 14 
255 201 14 255 201 14 255 201 14 255 201 14 255 201 14 
255 201 14 255 201 14 255 201 14 255 201 14 255 201 14 
255 201 14 255 201 14 255 201 14 255 201 14 255 201 14 
255 201 14 255 201 14 255 201 14 255 201 14 255 201 14 
255 201 14 255 201 14 255 201 14 255 201 14 255 201 14 
255 201 14 255 201 14 255 201 14 255 201 14 255 201 14 
255 201 14 255 201 14 255 201 14 255 201 14 255 201 14 
255 201 14 255 201 14 255 201 14 255 201 14 255 201 14 
255 201 14 255 201 14 255 201 14 255 201 14 255 201 14 
255 201 14 255 201 14 255 201 14 255 201 14 255 201 14 
255 201 14 255 201 14 255 201 14 255 201 14 255 201 14 
255 201 14 255 201 14 255 201 14 255 201 14 255 201 14 
255 201 14 255 201 14 255 201 14 255 201 14 255 201 14 
0 0 0 0 0 0 0 0 0 112 146 190 112 146 190 
112 146 190 112 146 190 112 146 190 112 146 190 112 146 190 
112 146 190 112 146 190 112 146 190 112 146 190 0 0 0 
0 0 0 0 0 0 255 201 14 255 201 14 255 201 14 
255 201 14 255 201 14 255 201 14 255 201 14 255 201 14 
255 201 14 255 201 14 255 201 14 255 201 14 255 201 14 
255 201 14 255 201 14 255 201 14 255 201 14 255 201 14 
255 201 14 255 201 14 255 201 14 255 201 14 255 201 14 
255 201 14 255 201 14 255 201 14 255 201 14 255 201 14 
255 201 14 255 201 14 255 201 14 255 201 14 255 201 14 
255 201 14 255 201 14 255 201 14 255 201 14 255 201 14 
255 201 14 255 201 14 255 201 14 255 201 14 255 201 14 
255 201 14 255 201 14 255 201 14 255 201 14 255 201 14 
255 201 14 255 201 14 255 201 14 255 201 14 255 201 14 
255 201 14 255 201 14 255 201 14 255 201 14 255 201 14 
255 201 14 255 201 14 255 201 14 255 201 14 255 201 14 
255 201 14 255 201 14 255 201 14 255 201 14 255 201 14 
255 201 14 255 201 14 255 201 14 255 201 14 255 201 14 
255 201 14 255 201 14 0 0 0 0 0 0 0 0 0 
0 0 0 112 146 190 112 146 190 112 146 190 112 146 190 
112 146 190 112 146 190 112 146 190 112 146 190 112 146 190 
112 146 190 112 146 190 112 146 190 112 146 190 112 146 190 
112 146 190 0 0 0 0 0 0 255 201 14 255 201 14 
255 201 14 255 201 14 255 201 14 255 201 14 255 201 14 
255 201 14 255 201 14 255 201 14 255 201 14 255 201 14 
255 201 14 255 201 14 255 201 14 255 201 14 255 201 14 
255 201 14 255 201 14 255 201 14 255 201 14 255 201 14 
255 201 14 255 201 14 255 201 14 255 201 14 255 201 14 
255 201 14 255 201 14 255 201 14 255 201 14 255 201 14 
255 201 14 255 201 14 255 201 14 255 201 14 255 201 14 
255 201 14 255 201 14 255 201 14 255 201 14 255 201 14 
255 201 14 255 201 14 255 201 14 255 201 14 255 201 14 
255 201 14 255 201 14 255 201 14 255 201 14 255 201 14 
255 201 14 255 201 14 255 201 14 255 201 14 255 201 14 
255 201 14 255 201 14 255 201 14 255 201 14 255 201 14 
255 201 14 255 201 14 255 201 14 255 201 14 255 201 14 
255 201 14 255 201 14 255 201 14 255 201 14 255 201 14 
0 0 0 0 0 0 0 0 0 112 146 190 112 146 190 
112 146 190 112 146 190 112 146 190 112 146 190 112 146 190 
112 146 190 112 146 190 112 146 190 112 146 190 112 146 190 
112 146 190 112 146 190 112 146 190 112 146 190 112 146 190 
112 146 190 112 146 190 0 0 0 0 0 0 255 201 14 
255 201 14 255 201 14 255 201 14 255 201 14 255 201 14 
255 201 14 255 201 14 255 201 14 255 201 14 255 201 14 
255 201 14 255 201 14 255 201 14 255 201 14 255 201 14 
255 201 14 255 201 14 255 201 14 255 201 14 255 201 14 
255 201 14 255 201 14 255 201 14 255 201 14 255 201 14 
255 201 14 255 201 14 255 201 14 255 201 14 255 201 14 
255 201 14 255 201 14 255 201 14 255 201 14 255 201 14 
255 201 14 255 201 14 255 201 14 255 201 14 255 201 14 
255 201 14 255 201 14 255 201 14 255 201 14 255 201 14 
255 201 14 255 201 14 255 201 14 255 201 14 255 201 14 
255 201 14 255 201 14 255 201 14 255 201 14 255 201 14 
255 201 14 255 201 14 255 201 14 255 201 14 255 201 14 
255 201 14 255 201 14 255 201 14 255 201 14 255 201 14 
255 201 14 255 201 14 255 201 14 255 201 14 0 0 0 
0 0 0 112 146 190 112 146 190 112 146 190 112 146 190 
112 146 190 112 146 190 112 146 190 112 146 190 112 146 190 
112 146 190 112 146 190 112 146 190 112 146 190 112 146 190 
112 146 190 112 146 190 112 146 190 112 146 190 112 146 190 
112 146 190 112 146 190 112 146 190 0 0 0 0 0 0 
255 201 14 255 201 14 255 201 14 255 201 14 255 201 14 
255 201 14 255 201 14 255 201 14 255 201 14 255 201 14 
255 201 14 255 201 14 255 201 14 255 201 14 255 201 14 
255 201 14 255 201 14 255 201 14 255 201 14 255 201 14 
255 201 14 255 201 14 255 201 14 255 201 14 255 201 14 
255 201 14 255 201 14 255 201 14 255 201 14 255 201 14 
255 201 14 255 201 14 255 201 14 255 201 14 255 201 14 
255 201 14 255 201 14 255 201 14 255 201 14 255 201 14 
255 201 14 255 201 14 255 201 14 255 201 14 255 201 14 
255 201 14 255 201 14 255 201 14 255 201 14 255 201 14 
255 201 14 255 201 14 255 201 14 255 201 14 255 201 14 
255 201 14 255 201 14 255 201 14 255 201 14 255 201 14 
255 201 14 255 201 14 255 201 14 255 201 14 255 201 14 
255 201 14 255 201 14 255 201 14 255 201 14 0 0 0 
112 146 190 112 146 190 112 146 190 112 146 190 112 146 190 
112 146 190 112 146 190 112 146 190 112 146 190 112 146 190 
112 146 190 112 146 190 112 146 190 112 146 190 112 146 190 
112 146 190 112 146 190 112 146 190 112 146 190 112 146 190 
112 146 190 112 146 190 112 146 190 112 146 190 0 0 0 
255 201 14 255 201 14 255 201 14 255 201 14 255 201 14 
255 201 14 255 201 14 255 201 14 255 201 14 255 201 14 
255 201 14 255 201 14 255 201 14 255 201 14 255 201 14 
255 201 14 255 201 14 255 201 14 255 201 14 255 201 14 
255 201 14 255 201 14 255 201 14 255 201 14 255 201 14 
255 201 14 255 201 14 255 201 14 255 201 14 255 201 14 
255 201 14 255 201 14 255 201 14 255 201 14 255 201 14 
255 201 14 255 201 14 255 201 14 255 201 14 255 201 14 
255 201 14 255 201 14 255 201 14 255 201 14 255 201 14 
255 201 14 255 201 14 255 201 14 255 201 14 255 201 14 
255 201 14 255 201 14 255 201 14 255 201 14 255 201 14 
255 201 14 255 201 14 255 201 14 255 201 14 255 201 14 
255 201 14 255 201 14 255 201 14 255 201 14 255 201 14 
255 201 14 255 201 14 255 201 14 0 0 0 0 0 0 
112 146 190 112 146 190 112 146 190 112 146 190 112 146 190 
112 146 190 112 146 190 112 146 190 112 146 190 112 146 190 
112 146 190 112 146 190 112 146 190 112 146 190 112 146 190 
0 0 0 0 0 0 0 0 0 0 0 0 0 0 0 
112 146 190 112 146 190 112 146 190 112 146 190 112 146 190 
0 0 0 255 201 14 255 201 14 255 201 14 255 201 14 
255 201 14 255 201 14 255 201 14 255 201 14 255 201 14 
255 201 14 255 201 14 255 201 14 255 201 14 255 201 14 
255 201 14 255 201 14 255 201 14 255 201 14 255 201 14 
255 201 14 255 201 14 255 201 14 255 201 14 255 201 14 
255 201 14 255 201 14 255 201 14 255 201 14 255 201 14 
255 201 14 255 201 14 255 201 14 255 201 14 255 201 14 
255 201 14 255 201 14 255 201 14 255 201 14 255 201 14 
255 201 14 255 201 14 255 201 14 255 201 14 255 201 14 
255 201 14 255 201 14 255 201 14 255 201 14 255 201 14 
255 201 14 255 201 14 255 201 14 255 201 14 255 201 14 
255 201 14 255 201 14 255 201 14 255 201 14 255 201 14 
255 201 14 255 201 14 255 201 14 255 201 14 255 201 14 
255 201 14 255 201 14 255 201 14 0 0 0 112 146 190 
112 146 190 112 146 190 112 146 190 112 146 190 112 146 190 
112 146 190 112 146 190 112 146 190 112 146 190 112 146 190 
112 146 190 112 146 190 112 146 190 112 146 190 0 0 0 
0 0 0 0 0 0 0 0 0 0 0 0 0 0 0 
0 0 0 112 146 190 112 146 190 112 146 190 112 146 190 
0 0 0 0 0 0 255 201 14 255 201 14 255 201 14 
255 201 14 255 201 14 255 201 14 255 201 14 255 201 14 
255 201 14 255 201 14 255 201 14 255 201 14 255 201 14 
255 201 14 255 201 14 255 201 14 255 201 14 255 201 14 
255 201 14 255 201 14 255 201 14 255 201 14 255 201 14 
255 201 14 255 201 14 255 201 14 255 201 14 255 201 14 
255 201 14 255 201 14 255 201 14 255 201 14 255 201 14 
255 201 14 255 201 14 255 201 14 255 201 14 255 201 14 
255 201 14 255 201 14 255 201 14 255 201 14 255 201 14 
255 201 14 255 201 14 255 201 14 255 201 14 255 201 14 
255 201 14 255 201 14 255 201 14 255 201 14 255 201 14 
255 201 14 255 201 14 255 201 14 255 201 14 255 201 14 
255 201 14 255 201 14 255 201 14 255 201 14 255 201 14 
255 201 14 255 201 14 255 201 14 0 0 0 0 0 0 
0 0 0 0 0 0 0 0 0 112 146 190 112 146 190 
112 146 190 112 146 190 112 146 190 112 146 190 112 146 190 
112 146 190 112 146 190 112 146 190 0 0 0 0 0 0 
255 255 255 255 255 255 255 255 255 255 255 255 255 255 255 
0 0 0 0 0 0 112 146 190 112 146 190 112 146 190 
112 146 190 0 0 0 255 201 14 255 201 14 255 201 14 
255 201 14 255 201 14 255 201 14 255 201 14 255 201 14 
255 201 14 255 201 14 255 201 14 255 201 14 255 201 14 
255 201 14 255 201 14 255 201 14 255 201 14 255 201 14 
255 201 14 255 201 14 255 201 14 255 201 14 255 201 14 
255 201 14 255 201 14 255 201 14 255 201 14 255 201 14 
255 201 14 255 201 14 255 201 14 255 201 14 255 201 14 
255 201 14 255 201 14 255 201 14 255 201 14 255 201 14 
255 201 14 255 201 14 255 201 14 255 201 14 255 201 14 
255 201 14 255 201 14 255 201 14 255 201 14 255 201 14 
255 201 14 255 201 14 255 201 14 255 201 14 255 201 14 
255 201 14 255 201 14 255 201 14 255 201 14 255 201 14 
255 201 14 255 201 14 255 201 14 255 201 14 255 201 14 
255 201 14 255 201 14 0 0 0 0 0 0 0 0 0 
0 0 0 0 0 0 0 0 0 0 0 0 0 0 0 
112 146 190 112 146 190 112 146 190 112 146 190 112 146 190 
112 146 190 112 146 190 0 0 0 0 0 0 255 255 255 
255 255 255 255 255 255 255 255 255 255 255 255 255 255 255 
255 255 255 0 0 0 0 0 0 112 146 190 112 146 190 
112 146 190 0 0 0 255 201 14 255 201 14 255 201 14 
255 201 14 255 201 14 255 201 14 255 201 14 255 201 14 
255 201 14 255 201 14 255 201 14 255 201 14 255 201 14 
255 201 14 255 201 14 255 201 14 255 201 14 255 201 14 
255 201 14 255 201 14 255 201 14 255 201 14 255 201 14 
255 201 14 255 201 14 255 201 14 255 201 14 255 201 14 
255 201 14 255 201 14 255 201 14 255 201 14 255 201 14 
255 201 14 255 201 14 255 201 14 255 201 14 255 201 14 
255 201 14 255 201 14 255 201 14 255 201 14 255 201 14 
255 201 14 255 201 14 255 201 14 255 201 14 255 201 14 
255 201 14 255 201 14 255 201 14 255 201 14 255 201 14 
255 201 14 255 201 14 255 201 14 255 201 14 255 201 14 
255 201 14 255 201 14 255 201 14 255 201 14 255 201 14 
255 201 14 0 0 0 0 0 0 255 255 255 255 255 255 
255 255 255 255 255 255 255 255 255 0 0 0 0 0 0 
0 0 0 112 146 190 112 146 190 112 146 190 112 146 190 
112 146 190 0 0 0 0 0 0 255 255 255 255 255 255 
255 255 255 255 255 255 0 0 0 0 0 0 255 255 255 
255 255 255 255 255 255 0 0 0 0 0 0 112 146 190 
112 146 190 0 0 0 0 0 0 255 201 14 255 201 14 
255 201 14 255 201 14 255 201 14 255 201 14 255 201 14 
255 201 14 255 201 14 255 201 14 255 201 14 255 201 14 
255 201 14 255 201 14 255 201 14 255 201 14 255 201 14 
255 201 14 255 201 14 255 201 14 255 201 14 255 201 14 
255 201 14 255 201 14 255 201 14 255 201 14 255 201 14 
255 201 14 255 201 14 255 201 14 255 201 14 255 201 14 
255 201 14 255 201 14 255 201 14 255 201 14 255 201 14 
255 201 14 255 201 14 255 201 14 255 201 14 255 201 14 
255 201 14 255 201 14 255 201 14 255 201 14 255 201 14 
255 201 14 255 201 14 255 201 14 255 201 14 255 201 14 
255 201 14 255 201 14 255 201 14 255 201 14 255 201 14 
255 201 14 255 201 14 255 201 14 255 201 14 255 201 14 
0 0 0 255 255 255 255 255 255 255 255 255 0 0 0 
0 0 0 255 255 255 255 255 255 255 255 255 255 255 255 
0 0 0 0 0 0 112 146 190 112 146 190 112 146 190 
112 146 190 0 0 0 0 0 0 255 255 255 255 255 255 
255 255 255 0 0 0 0 0 0 0 0 0 0 0 0 
255 255 255 255 255 255 0 0 0 0 0 0 112 146 190 
112 146 190 112 146 190 0 0 0 255 201 14 255 201 14 
255 201 14 255 201 14 255 201 14 255 201 14 255 201 14 
255 201 14 255 201 14 255 201 14 255 201 14 255 201 14 
255 201 14 255 201 14 255 201 14 255 201 14 255 201 14 
255 201 14 255 201 14 255 201 14 255 201 14 255 201 14 
255 201 14 255 201 14 255 201 14 255 201 14 255 201 14 
255 201 14 255 201 14 255 201 14 255 201 14 255 201 14 
255 201 14 255 201 14 255 201 14 255 201 14 255 201 14 
255 201 14 255 201 14 255 201 14 255 201 14 255 201 14 
255 201 14 255 201 14 255 201 14 255 201 14 255 201 14 
255 201 14 255 201 14 255 201 14 255 201 14 255 201 14 
255 201 14 255 201 14 255 201 14 255 201 14 255 201 14 
255 201 14 255 201 14 255 201 14 255 201 14 0 0 0 
0 0 0 255 255 255 255 255 255 0 0 0 0 0 0 
0 0 0 0 0 0 255 255 255 255 255 255 255 255 255 
255 255 255 0 0 0 112 146 190 112 146 190 112 146 190 
112 146 190 0 0 0 0 0 0 255 255 255 255 255 255 
255 255 255 255 255 255 0 0 0 0 0 0 255 255 255 
255 255 255 255 255 255 0 0 0 0 0 0 112 146 190 
112 146 190 112 146 190 0 0 0 255 201 14 255 201 14 
255 201 14 255 201 14 255 201 14 255 201 14 255 201 14 
255 201 14 255 201 14 255 201 14 255 201 14 255 201 14 
255 201 14 255 201 14 255 201 14 255 201 14 255 201 14 
255 201 14 255 201 14 255 201 14 255 201 14 255 201 14 
255 201 14 255 201 14 255 201 14 255 201 14 255 201 14 
255 201 14 255 201 14 255 201 14 255 201 14 255 201 14 
255 201 14 255 201 14 255 201 14 255 201 14 255 201 14 
255 201 14 255 201 14 255 201 14 255 201 14 255 201 14 
255 201 14 255 201 14 255 201 14 255 201 14 255 201 14 
255 201 14 255 201 14 255 201 14 255 201 14 255 201 14 
255 201 14 255 201 14 255 201 14 255 201 14 255 201 14 
255 201 14 255 201 14 255 201 14 255 201 14 0 0 0 
0 0 0 255 255 255 255 255 255 255 255 255 0 0 0 
0 0 0 255 255 255 255 255 255 255 255 255 255 255 255 
255 255 255 0 0 0 112 146 190 112 146 190 112 146 190 
112 146 190 0 0 0 0 0 0 255 255 255 255 255 255 
255 255 255 255 255 255 255 255 255 255 255 255 255 255 255 
255 255 255 255 255 255 0 0 0 0 0 0 112 146 190 
112 146 190 0 0 0 0 0 0 255 201 14 255 201 14 
255 201 14 255 201 14 255 201 14 255 201 14 255 201 14 
255 201 14 255 201 14 255 201 14 255 201 14 255 201 14 
255 201 14 255 201 14 255 201 14 255 201 14 255 201 14 
255 201 14 255 201 14 255 201 14 255 201 14 255 201 14 
255 201 14 255 201 14 255 201 14 255 201 14 255 201 14 
255 201 14 255 201 14 255 201 14 255 201 14 255 201 14 
255 201 14 255 201 14 255 201 14 255 201 14 255 201 14 
255 201 14 255 201 14 255 201 14 255 201 14 255 201 14 
255 201 14 255 201 14 255 201 14 255 201 14 255 201 14 
255 201 14 255 201 14 255 201 14 255 201 14 255 201 14 
255 201 14 255 201 14 255 201 14 255 201 14 255 201 14 
255 201 14 255 201 14 255 201 14 255 201 14 255 201 14 
0 0 0 255 255 255 255 255 255 255 255 255 255 255 255 
255 255 255 255 255 255 255 255 255 255 255 255 255 255 255 
0 0 0 0 0 0 112 146 190 112 146 190 112 146 190 
112 146 190 0 0 0 0 0 0 255 255 255 255 255 255 
255 255 255 255 255 255 255 255 255 255 255 255 255 255 255 
255 255 255 255 255 255 0 0 0 0 0 0 112 146 190 
112 146 190 0 0 0 255 201 14 255 201 14 255 201 14 
255 201 14 255 201 14 255 201 14 255 201 14 255 201 14 
255 201 14 255 201 14 255 201 14 255 201 14 255 201 14 
255 201 14 255 201 14 255 201 14 255 201 14 255 201 14 
255 201 14 255 201 14 255 201 14 255 201 14 255 201 14 
255 201 14 255 201 14 255 201 14 255 201 14 255 201 14 
255 201 14 255 201 14 255 201 14 255 201 14 255 201 14 
255 201 14 255 201 14 255 201 14 255 201 14 255 201 14 
255 201 14 255 201 14 255 201 14 255 201 14 255 201 14 
255 201 14 255 201 14 255 201 14 255 201 14 255 201 14 
255 201 14 255 201 14 255 201 14 255 201 14 255 201 14 
255 201 14 255 201 14 255 201 14 255 201 14 255 201 14 
255 201 14 255 201 14 255 201 14 255 201 14 255 201 14 
255 201 14 0 0 0 0 0 0 255 255 255 255 255 255 
255 255 255 255 255 255 255 255 255 0 0 0 0 0 0 
0 0 0 112 146 190 112 146 190 112 146 190 112 146 190 
112 146 190 112 146 190 0 0 0 0 0 0 255 255 255 
255 255 255 255 255 255 255 255 255 255 255 255 255 255 255 
255 255 255 0 0 0 0 0 0 112 146 190 112 146 190 
112 146 190 0 0 0 255 201 14 255 201 14 255 201 14 
255 201 14 255 201 14 255 201 14 255 201 14 255 201 14 
255 201 14 255 201 14 255 201 14 255 201 14 255 201 14 
255 201 14 255 201 14 255 201 14 255 201 14 255 201 14 
255 201 14 255 201 14 255 201 14 255 201 14 255 201 14 
255 201 14 255 201 14 255 201 14 255 201 14 255 201 14 
255 201 14 255 201 14 255 201 14 255 201 14 255 201 14 
255 201 14 255 201 14 255 201 14 255 201 14 255 201 14 
255 201 14 255 201 14 255 201 14 255 201 14 255 201 14 
255 201 14 255 201 14 255 201 14 255 201 14 255 201 14 
255 201 14 255 201 14 255 201 14 255 201 14 255 201 14 
255 201 14 255 201 14 255 201 14 255 201 14 255 201 14 
255 201 14 255 201 14 255 201 14 255 201 14 255 201 14 
255 201 14 255 201 14 0 0 0 0 0 0 0 0 0 
0 0 0 0 0 0 0 0 0 0 0 0 0 0 0 
112 146 190 112 146 190 112 146 190 112 146 190 112 146 190 
112 146 190 112 146 190 112 146 190 0 0 0 0 0 0 
255 255 255 255 255 255 255 255 255 255 255 255 255 255 255 
0 0 0 0 0 0 112 146 190 112 146 190 112 146 190 
0 0 0 0 0 0 255 201 14 255 201 14 255 201 14 
255 201 14 255 201 14 255 201 14 255 201 14 255 201 14 
255 201 14 255 201 14 255 201 14 255 201 14 255 201 14 
255 201 14 255 201 14 255 201 14 255 201 14 255 201 14 
255 201 14 255 201 14 255 201 14 255 201 14 255 201 14 
255 201 14 255 201 14 255 201 14 255 201 14 255 201 14 
255 201 14 255 201 14 255 201 14 255 201 14 255 201 14 
255 201 14 255 201 14 255 201 14 255 201 14 255 201 14 
255 201 14 255 201 14 255 201 14 255 201 14 255 201 14 
255 201 14 255 201 14 255 201 14 255 201 14 255 201 14 
255 201 14 255 201 14 255 201 14 255 201 14 255 201 14 
255 201 14 255 201 14 255 201 14 255 201 14 255 201 14 
255 201 14 255 201 14 255 201 14 255 201 14 255 201 14 
255 201 14 0 0 0 0 0 0 112 146 190 0 0 0 
0 0 0 0 0 0 0 0 0 112 146 190 112 146 190 
112 146 190 112 146 190 112 146 190 112 146 190 112 146 190 
112 146 190 112 146 190 112 146 190 112 146 190 0 0 0 
0 0 0 0 0 0 0 0 0 0 0 0 0 0 0 
0 0 0 112 146 190 112 146 190 112 146 190 112 146 190 
0 0 0 255 201 14 255 201 14 255 201 14 255 201 14 
255 201 14 255 201 14 255 201 14 255 201 14 255 201 14 
255 201 14 255 201 14 255 201 14 255 201 14 255 201 14 
255 201 14 255 201 14 255 201 14 255 201 14 255 201 14 
255 201 14 255 201 14 255 201 14 255 201 14 255 201 14 
255 201 14 255 201 14 255 201 14 255 201 14 255 201 14 
255 201 14 255 201 14 255 201 14 255 201 14 255 201 14 
255 201 14 255 201 14 255 201 14 255 201 14 255 201 14 
255 201 14 255 201 14 255 201 14 255 201 14 255 201 14 
255 201 14 255 201 14 255 201 14 255 201 14 255 201 14 
255 201 14 255 201 14 255 201 14 255 201 14 255 201 14 
255 201 14 255 201 14 255 201 14 255 201 14 255 201 14 
255 201 14 255 201 14 255 201 14 255 201 14 255 201 14 
255 201 14 0 0 0 0 0 0 112 146 190 112 146 190 
112 146 190 112 146 190 112 146 190 112 146 190 112 146 190 
112 146 190 112 146 190 112 146 190 112 146 190 112 146 190 
112 146 190 112 146 190 112 146 190 112 146 190 112 146 190 
0 0 0 0 0 0 0 0 0 0 0 0 0 0 0 
112 146 190 112 146 190 112 146 190 112 146 190 0 0 0 
0 0 0 255 201 14 255 201 14 255 201 14 255 201 14 
255 201 14 255 201 14 255 201 14 255 201 14 255 201 14 
255 201 14 255 201 14 255 201 14 255 201 14 255 201 14 
255 201 14 255 201 14 255 201 14 255 201 14 255 201 14 
255 201 14 255 201 14 255 201 14 255 201 14 255 201 14 
255 201 14 255 201 14 255 201 14 255 201 14 255 201 14 
255 201 14 255 201 14 255 201 14 255 201 14 255 201 14 
255 201 14 255 201 14 255 201 14 255 201 14 255 201 14 
255 201 14 255 201 14 255 201 14 255 201 14 255 201 14 
255 201 14 255 201 14 255 201 14 255 201 14 255 201 14 
255 201 14 255 201 14 255 201 14 255 201 14 255 201 14 
255 201 14 255 201 14 255 201 14 255 201 14 255 201 14 
255 201 14 255 201 14 255 201 14 255 201 14 255 201 14 
255 201 14 255 201 14 0 0 0 0 0 0 112 146 190 
112 146 190 112 146 190 112 146 190 112 146 190 112 146 190 
0 0 0 0 0 0 0 0 0 0 0 0 0 0 0 
112 146 190 112 146 190 112 146 190 112 146 190 112 146 190 
112 146 190 112 146 190 112 146 190 112 146 190 112 146 190 
112 146 190 112 146 190 0 0 0 0 0 0 255 201 14 
255 201 14 255 201 14 255 201 14 255 201 14 255 201 14 
255 201 14 255 201 14 255 201 14 255 201 14 255 201 14 
255 201 14 255 201 14 255 201 14 255 201 14 255 201 14 
255 201 14 255 201 14 255 201 14 255 201 14 255 201 14 
255 201 14 255 201 14 255 201 14 255 201 14 255 201 14 
255 201 14 255 201 14 255 201 14 255 201 14 255 201 14 
255 201 14 255 201 14 255 201 14 255 201 14 255 201 14 
255 201 14 255 201 14 255 201 14 255 201 14 255 201 14 
255 201 14 255 201 14 255 201 14 255 201 14 255 201 14 
255 201 14 255 201 14 255 201 14 255 201 14 255 201 14 
255 201 14 255 201 14 255 201 14 255 201 14 255 201 14 
255 201 14 255 201 14 255 201 14 255 201 14 255 201 14 
255 201 14 255 201 14 255 201 14 255 201 14 255 201 14 
255 201 14 255 201 14 255 201 14 0 0 0 0 0 0 
0 0 0 0 0 0 0 0 0 0 0 0 0 0 0 
0 0 0 255 201 14 0 0 0 255 255 255 0 0 0 
0 0 0 112 146 190 112 146 190 112 146 190 112 146 190 
112 146 190 112 146 190 112 146 190 112 146 190 112 146 190 
0 0 0 0 0 0 255 201 14 255 201 14 255 201 14 
255 201 14 255 201 14 255 201 14 255 201 14 255 201 14 
255 201 14 255 201 14 255 201 14 255 201 14 255 201 14 
255 201 14 255 201 14 255 201 14 255 201 14 255 201 14 
255 201 14 255 201 14 255 201 14 255 201 14 255 201 14 
255 201 14 255 201 14 255 201 14 255 201 14 255 201 14 
255 201 14 255 201 14 255 201 14 255 201 14 255 201 14 
255 201 14 255 201 14 255 201 14 255 201 14 255 201 14 
255 201 14 255 201 14 255 201 14 255 201 14 255 201 14 
255 201 14 255 201 14 255 201 14 255 201 14 255 201 14 
255 201 14 255 201 14 255 201 14 255 201 14 255 201 14 
255 201 14 255 201 14 255 201 14 255 201 14 255 201 14 
255 201 14 255 201 14 255 201 14 255 201 14 255 201 14 
255 201 14 255 201 14 255 201 14 255 201 14 255 201 14 
255 201 14 255 201 14 255 201 14 0 0 0 255 255 255 
0 0 0 255 201 14 255 201 14 0 0 0 255 255 255 
0 0 0 255 201 14 0 0 0 255 255 255 0 0 0 
255 201 14 0 0 0 112 146 190 112 146 190 112 146 190 
112 146 190 112 146 190 112 146 190 112 146 190 0 0 0 
0 0 0 255 201 14 255 201 14 255 201 14 255 201 14 
255 201 14 255 201 14 255 201 14 255 201 14 255 201 14 
255 201 14 255 201 14 255 201 14 255 201 14 255 201 14 
255 201 14 255 201 14 255 201 14 255 201 14 255 201 14 
255 201 14 255 201 14 255 201 14 255 201 14 255 201 14 
255 201 14 255 201 14 255 201 14 255 201 14 255 201 14 
255 201 14 255 201 14 255 201 14 255 201 14 255 201 14 
255 201 14 255 201 14 255 201 14 255 201 14 255 201 14 
255 201 14 255 201 14 255 201 14 255 201 14 255 201 14 
255 201 14 255 201 14 255 201 14 255 201 14 255 201 14 
255 201 14 255 201 14 255 201 14 255 201 14 255 201 14 
255 201 14 255 201 14 255 201 14 255 201 14 255 201 14 
255 201 14 255 201 14 255 201 14 255 201 14 255 201 14 
255 201 14 255 201 14 255 201 14 255 201 14 255 201 14 
255 201 14 255 201 14 255 201 14 0 0 0 255 255 255 
0 0 0 255 201 14 255 201 14 0 0 0 0 0 0 
0 0 0 255 201 14 0 0 0 0 0 0 0 0 0 
255 201 14 0 0 0 112 146 190 112 146 190 112 146 190 
112 146 190 112 146 190 112 146 190 112 146 190 0 0 0 
0 0 0 255 201 14 255 201 14 255 201 14 255 201 14 
255 201 14 255 201 14 255 201 14 255 201 14 255 201 14 
255 201 14 255 201 14 255 201 14 255 201 14 255 201 14 
255 201 14 255 201 14 255 201 14 255 201 14 255 201 14 
255 201 14 255 201 14 255 201 14 255 201 14 255 201 14 
255 201 14 255 201 14 255 201 14 255 201 14 255 201 14 
255 201 14 255 201 14 255 201 14 255 201 14 255 201 14 
255 201 14 255 201 14 255 201 14 255 201 14 255 201 14 
255 201 14 255 201 14 255 201 14 255 201 14 255 201 14 
255 201 14 255 201 14 255 201 14 255 201 14 255 201 14 
255 201 14 255 201 14 255 201 14 255 201 14 255 201 14 
255 201 14 255 201 14 255 201 14 255 201 14 255 201 14 
255 201 14 255 201 14 255 201 14 255 201 14 255 201 14 
255 201 14 255 201 14 255 201 14 255 201 14 255 201 14 
255 201 14 255 201 14 255 201 14 0 0 0 0 0 0 
0 0 0 255 201 14 255 201 14 255 201 14 255 201 14 
255 201 14 255 201 14 255 201 14 255 201 14 255 201 14 
255 201 14 0 0 0 112 146 190 112 146 190 112 146 190 
112 146 190 112 146 190 112 146 190 0 0 0 0 0 0 
255 201 14 255 201 14 255 201 14 255 201 14 255 201 14 
255 201 14 255 201 14 255 201 14 255 201 14 255 201 14 
255 201 14 255 201 14 255 201 14 255 201 14 255 201 14 
255 201 14 255 201 14 255 201 14 255 201 14 255 201 14 
255 201 14 255 201 14 255 201 14 255 201 14 255 201 14 
255 201 14 255 201 14 255 201 14 255 201 14 255 201 14 
255 201 14 255 201 14 255 201 14 255 201 14 255 201 14 
255 201 14 255 201 14 255 201 14 255 201 14 255 201 14 
255 201 14 255 201 14 255 201 14 255 201 14 255 201 14 
255 201 14 255 201 14 255 201 14 255 201 14 255 201 14 
255 201 14 255 201 14 255 201 14 255 201 14 255 201 14 
255 201 14 255 201 14 255 201 14 255 201 14 255 201 14 
255 201 14 255 201 14 255 201 14 255 201 14 255 201 14 
255 201 14 255 201 14 255 201 14 255 201 14 255 201 14 
255 201 14 255 201 14 255 201 14 255 201 14 255 201 14 
255 201 14 255 201 14 255 201 14 255 201 14 255 201 14 
255 201 14 255 201 14 255 201 14 255 201 14 255 201 14 
0 0 0 0 0 0 112 146 190 112 146 190 112 146 190 
112 146 190 112 146 190 0 0 0 0 0 0 255 201 14 
255 201 14 255 201 14 255 201 14 255 201 14 255 201 14 
255 201 14 255 201 14 255 201 14 255 201 14 255 201 14 
255 201 14 255 201 14 255 201 14 255 201 14 255 201 14 
255 201 14 255 201 14 255 201 14 255 201 14 255 201 14 
255 201 14 255 201 14 255 201 14 255 201 14 255 201 14 
255 201 14 255 201 14 255 201 14 255 201 14 255 201 14 
255 201 14 255 201 14 255 201 14 255 201 14 255 201 14 
255 201 14 255 201 14 255 201 14 255 201 14 255 201 14 
255 201 14 255 201 14 255 201 14 255 201 14 255 201 14 
255 201 14 255 201 14 255 201 14 255 201 14 255 201 14 
255 201 14 255 201 14 255 201 14 255 201 14 255 201 14 
255 201 14 255 201 14 255 201 14 255 201 14 255 201 14 
255 201 14 255 201 14 255 201 14 255 201 14 255 201 14 
255 201 14 255 201 14 255 201 14 255 201 14 255 201 14 
255 201 14 255 201 14 255 201 14 255 201 14 255 201 14 
255 201 14 255 201 14 255 201 14 0 0 0 0 0 0 
0 0 0 255 201 14 255 201 14 0 0 0 0 0 0 
0 0 0 112 146 190 112 146 190 112 146 190 112 146 190 
112 146 190 0 0 0 0 0 0 255 201 14 255 201 14 
255 201 14 255 201 14 255 201 14 255 201 14 255 201 14 
255 201 14 255 201 14 255 201 14 255 201 14 255 201 14 
255 201 14 255 201 14 255 201 14 255 201 14 255 201 14 
255 201 14 255 201 14 255 201 14 255 201 14 255 201 14 
255 201 14 255 201 14 255 201 14 255 201 14 255 201 14 
255 201 14 255 201 14 255 201 14 255 201 14 255 201 14 
255 201 14 255 201 14 255 201 14 255 201 14 255 201 14 
255 201 14 255 201 14 255 201 14 255 201 14 255 201 14 
255 201 14 255 201 14 255 201 14 255 201 14 255 201 14 
255 201 14 255 201 14 255 201 14 255 201 14 255 201 14 
255 201 14 255 201 14 255 201 14 255 201 14 255 201 14 
255 201 14 255 201 14 255 201 14 255 201 14 255 201 14 
255 201 14 255 201 14 255 201 14 255 201 14 255 201 14 
255 201 14 255 201 14 255 201 14 255 201 14 255 201 14 
255 201 14 255 201 14 255 201 14 255 201 14 255 201 14 
255 201 14 255 201 14 0 0 0 0 0 0 112 146 190 
0 0 0 0 0 0 0 0 0 0 0 0 112 146 190 
112 146 190 112 146 190 112 146 190 112 146 190 112 146 190 
0 0 0 0 0 0 255 201 14 255 201 14 255 201 14 
255 201 14 255 201 14 255 201 14 255 201 14 255 201 14 
255 201 14 255 201 14 255 201 14 255 201 14 255 201 14 
255 201 14 255 201 14 255 201 14 255 201 14 255 201 14 
255 201 14 255 201 14 255 201 14 255 201 14 255 201 14 
255 201 14 255 201 14 255 201 14 255 201 14 255 201 14 
255 201 14 255 201 14 255 201 14 255 201 14 255 201 14 
255 201 14 255 201 14 255 201 14 255 201 14 255 201 14 
255 201 14 255 201 14 255 201 14 255 201 14 255 201 14 
255 201 14 255 201 14 255 201 14 255 201 14 255 201 14 
255 201 14 255 201 14 255 201 14 255 201 14 255 201 14 
255 201 14 255 201 14 255 201 14 255 201 14 255 201 14 
255 201 14 255 201 14 255 201 14 255 201 14 255 201 14 
255 201 14 255 201 14 255 201 14 255 201 14 255 201 14 
255 201 14 255 201 14 255 201 14 255 201 14 255 201 14 
255 201 14 255 201 14 255 201 14 255 201 14 255 201 14 
255 201 14 255 201 14 0 0 0 0 0 0 112 146 190 
112 146 190 112 146 190 112 146 190 112 146 190 112 146 190 
112 146 190 112 146 190 112 146 190 112 146 190 0 0 0 
255 201 14 255 201 14 255 201 14 255 201 14 255 201 14 
255 201 14 255 201 14 255 201 14 255 201 14 255 201 14 
255 201 14 255 201 14 255 201 14 255 201 14 255 201 14 
255 201 14 255 201 14 255 201 14 255 201 14 255 201 14 
255 201 14 255 201 14 255 201 14 255 201 14 255 201 14 
255 201 14 255 201 14 255 201 14 255 201 14 255 201 14 
255 201 14 255 201 14 255 201 14 255 201 14 255 201 14 
255 201 14 255 201 14 255 201 14 255 201 14 255 201 14 
255 201 14 255 201 14 255 201 14 255 201 14 255 201 14 
255 201 14 255 201 14 255 201 14 255 201 14 255 201 14 
255 201 14 255 201 14 255 201 14 255 201 14 255 201 14 
255 201 14 255 201 14 255 201 14 255 201 14 255 201 14 
255 201 14 255 201 14 255 201 14 255 201 14 255 201 14 
255 201 14 255 201 14 255 201 14 255 201 14 255 201 14 
255 201 14 255 201 14 255 201 14 255 201 14 255 201 14 
255 201 14 255 201 14 255 201 14 255 201 14 255 201 14 
255 201 14 255 201 14 255 201 14 0 0 0 0 0 0 
0 0 0 0 0 0 0 0 0 0 0 0 0 0 0 
0 0 0 0 0 0 0 0 0 0 0 0 0 0 0 
255 201 14 255 201 14 255 201 14 255 201 14 255 201 14 
255 201 14 255 201 14 255 201 14 255 201 14 255 201 14 
255 201 14 255 201 14 255 201 14 255 201 14 255 201 14 
255 201 14 255 201 14 255 201 14 255 201 14 255 201 14 
255 201 14 255 201 14 255 201 14 255 201 14 255 201 14 
255 201 14 255 201 14 255 201 14 255 201 14 255 201 14 
255 201 14 255 201 14 255 201 14 255 201 14 255 201 14 
255 201 14 255 201 14 255 201 14 255 201 14 255 201 14 
255 201 14 255 201 14 255 201 14 255 201 14 255 201 14 
255 201 14 255 201 14 255 201 14 255 201 14 255 201 14 
255 201 14 255 201 14 255 201 14 255 201 14 255 201 14 
255 201 14 255 201 14 255 201 14 255 201 14 255 201 14 
255 201 14 255 201 14 255 201 14 255 201 14 255 201 14 
255 201 14 255 201 14 255 201 14 255 201 14 255 201 14 
255 201 14 255 201 14 255 201 14 255 201 14 255 201 14 
255 201 14 255 201 14 255 201 14 255 201 14 255 201 14 
255 201 14 255 201 14 255 201 14 255 201 14 0 0 0 
255 201 14 255 201 14 255 201 14 255 201 14 255 201 14 
255 201 14 255 201 14 255 201 14 255 201 14 255 201 14 
255 201 14 255 201 14 255 201 14 255 201 14 255 201 14 
255 201 14 255 201 14 255 201 14 255 201 14 255 201 14 
255 201 14 255 201 14 255 201 14 255 201 14 255 201 14 
255 201 14 255 201 14 255 201 14 255 201 14 255 201 14 
255 201 14 255 201 14 255 201 14 255 201 14 255 201 14 
255 201 14 255 201 14 255 201 14 255 201 14 255 201 14 
255 201 14 255 201 14 255 201 14 255 201 14 255 201 14 
255 201 14 255 201 14 255 201 14 255 201 14 255 201 14 
255 201 14 255 201 14 255 201 14 255 201 14 255 201 14 
255 201 14 255 201 14 255 201 14 255 201 14 255 201 14 
255 201 14 255 201 14 255 201 14 255 201 14 255 201 14 
255 201 14 255 201 14 255 201 14 255 201 14 255 201 14 
255 201 14 255 201 14 255 201 14 255 201 14 255 201 14 
255 201 14 255 201 14 255 201 14 255 201 14 255 201 14 
255 201 14 255 201 14 255 201 14 255 201 14 255 201 14 
255 201 14 255 201 14 255 201 14 255 201 14 255 201 14 
255 201 14 255 201 14 255 201 14 255 201 14 255 201 14 
255 201 14 255 201 14 255 201 14 255 201 14 255 201 14 
255 201 14 255 201 14 255 201 14 255 201 14 255 201 14 
255 201 14 255 201 14 255 201 14 255 201 14 255 201 14 
255 201 14 255 201 14 255 201 14 255 201 14 255 201 14 
255 201 14 255 201 14 255 201 14 255 201 14 255 201 14 
255 201 14 255 201 14 255 201 14 255 201 14 255 201 14 
255 201 14 255 201 14 255 201 14 255 201 14 255 201 14 
255 201 14 255 201 14 255 201 14 255 201 14 255 201 14 
255 201 14 255 201 14 255 201 14 255 201 14 255 201 14 
255 201 14 255 201 14 255 201 14 255 201 14 255 201 14 
255 201 14 255 201 14 255 201 14 255 201 14 255 201 14 
255 201 14 255 201 14 255 201 14 255 201 14 255 201 14 
255 201 14 255 201 14 255 201 14 255 201 14 255 201 14 
255 201 14 255 201 14 255 201 14 255 201 14 255 201 14 
255 201 14 255 201 14 255 201 14 255 201 14 255 201 14 
255 201 14 255 201 14 255 201 14 255 201 14 255 201 14 
255 201 14 255 201 14 255 201 14 255 201 14 255 201 14 
255 201 14 255 201 14 255 201 14 255 201 14 255 201 14 
255 201 14 255 201 14 255 201 14 255 201 14 255 201 14 
255 201 14 255 201 14 255 201 14 255 201 14 255 201 14 
255 201 14 255 201 14 255 201 14 255 201 14 255 201 14 
255 201 14 255 201 14 255 201 14 255 201 14 255 201 14 
255 201 14 255 201 14 255 201 14 255 201 14 255 201 14 
255 201 14 255 201 14 255 201 14 255 201 14 255 201 14 
255 201 14 255 201 14 255 201 14 255 201 14 255 201 14 
255 201 14 255 201 14 255 201 14 255 201 14 255 201 14 
255 201 14 255 201 14 255 201 14 255 201 14 255 201 14 
255 201 14 255 201 14 255 201 14 255 201 14 255 201 14 
255 201 14 255 201 14 255 201 14 255 201 14 255 201 14 
255 201 14 255 201 14 255 201 14 255 201 14 255 201 14 
255 201 14 255 201 14 255 201 14 255 201 14 255 201 14 
255 201 14 255 201 14 255 201 14 255 201 14 255 201 14 
255 201 14 255 201 14 255 201 14 255 201 14 255 201 14 
255 201 14 255 201 14 255 201 14 255 201 14 255 201 14 
255 201 14 255 201 14 255 201 14 255 201 14 255 201 14 
255 201 14 255 201 14 255 201 14 255 201 14 255 201 14 
255 201 14 255 201 14 255 201 14 255 201 14 255 201 14 
255 201 14 255 201 14 255 201 14 255 201 14 255 201 14 
255 201 14 255 201 14 255 201 14 255 201 14 255 201 14 
255 201 14 255 201 14 255 201 14 255 201 14 255 201 14 
255 201 14 255 201 14 255 201 14 255 201 14 255 201 14 
255 201 14 255 201 14 255 201 14 255 201 14 255 201 14 
255 201 14 255 201 14 255 201 14 255 201 14 255 201 14 
255 201 14 255 201 14 255 201 14 255 201 14 255 201 14 
255 201 14 255 201 14 255 201 14 255 201 14 255 201 14 
255 201 14 255 201 14 255 201 14 255 201 14 255 201 14 
255 201 14 255 201 14 255 201 14 255 201 14 255 201 14 
255 201 14 255 201 14 255 201 14 255 201 14 255 201 14 
255 201 14 255 201 14 255 201 14 255 201 14 255 201 14 
255 201 14 255 201 14 255 201 14 255 201 14 255 201 14 
255 201 14 255 201 14 255 201 14 255 201 14 255 201 14 
255 201 14 255 201 14 255 201 14 255 201 14 255 201 14 
255 201 14 255 201 14 255 201 14 255 201 14 255 201 14 
255 201 14 255 201 14 255 201 14 255 201 14 255 201 14 
255 201 14 255 201 14 255 201 14 255 201 14 255 201 14 
255 201 14 255 201 14 255 201 14 255 201 14 255 201 14 
255 201 14 255 201 14 255 201 14 255 201 14 255 201 14 
255 201 14 255 201 14 255 201 14 255 201 14 255 201 14 
255 201 14 255 201 14 255 201 14 255 201 14 255 201 14 
255 201 14 255 201 14 255 201 14 255 201 14 255 201 14 
255 201 14 255 201 14 255 201 14 255 201 14 255 201 14 
255 201 14 255 201 14 255 201 14 255 201 14 255 201 14 
255 201 14 255 201 14 255 201 14 255 201 14 255 201 14 
255 201 14 255 201 14 255 201 14 255 201 14 255 201 14 
255 201 14 255 201 14 255 201 14 255 201 14 255 201 14 
255 201 14 255 201 14 255 201 14 255 201 14 255 201 14 
255 201 14 255 201 14 255 201 14 255 201 14 255 201 14 
255 201 14 255 201 14 255 201 14 255 201 14 255 201 14 
255 201 14 255 201 14 255 201 14 255 201 14 255 201 14 
255 201 14 255 201 14 255 201 14 255 201 14 255 201 14 
255 201 14 255 201 14 255 201 14 255 201 14 255 201 14 
255 201 14 255 201 14 255 201 14 255 201 14 255 201 14 
255 201 14 255 201 14 255 201 14 255 201 14 255 201 14 
