P3
# Created by IrfanView
94 30
255
0 0 0 0 0 0 0 0 0 0 0 0 0 0 0 
0 0 0 0 0 0 0 0 0 0 0 0 0 0 0 
0 0 0 0 0 0 0 0 0 0 0 0 0 0 0 
0 0 0 0 0 0 0 0 0 0 0 0 0 0 0 
0 0 0 0 0 0 0 0 0 0 0 0 0 0 0 
0 0 0 0 0 0 0 0 0 0 0 0 0 0 0 
0 0 0 0 0 0 0 0 0 0 0 0 0 0 0 
0 0 0 0 0 0 0 0 0 0 0 0 0 0 0 
0 0 0 0 0 0 0 0 0 0 0 0 0 0 0 
0 0 0 0 0 0 0 0 0 0 0 0 0 0 0 
0 0 0 0 0 0 0 0 0 0 0 0 0 0 0 
0 0 0 0 0 0 0 0 0 0 0 0 0 0 0 
0 0 0 0 0 0 0 0 0 0 0 0 0 0 0 
0 0 0 0 0 0 0 0 0 0 0 0 0 0 0 
0 0 0 0 0 0 0 0 0 0 0 0 0 0 0 
0 0 0 0 0 0 0 0 0 0 0 0 0 0 0 
0 0 0 0 0 0 0 0 0 0 0 0 0 0 0 
0 0 0 0 0 0 0 0 0 0 0 0 0 0 0 
0 0 0 0 0 0 0 0 0 0 0 0 0 0 0 
0 0 0 0 0 0 0 0 0 0 0 0 0 0 0 
0 0 0 0 0 0 0 0 0 0 0 0 0 0 0 
0 0 0 0 0 0 0 0 0 0 0 0 0 0 0 
0 0 0 0 0 0 0 0 0 0 0 0 0 0 0 
0 0 0 0 0 0 0 0 0 0 0 0 0 0 0 
0 0 0 0 0 0 0 0 0 0 0 0 0 0 0 
0 0 0 0 0 0 0 0 0 0 0 0 0 0 0 
0 0 0 0 0 0 0 0 0 0 0 0 0 0 0 
0 0 0 0 0 0 0 0 0 0 0 0 0 0 0 
0 0 0 0 0 0 0 0 0 0 0 0 0 0 0 
0 0 0 0 0 0 0 0 0 0 0 0 0 0 0 
0 0 0 0 0 0 0 0 0 0 0 0 0 0 0 
0 0 0 0 0 0 0 0 0 0 0 0 0 0 0 
0 0 0 0 0 0 0 0 0 0 0 0 0 0 0 
0 0 0 0 0 0 0 0 0 0 0 0 0 0 0 
0 0 0 0 0 0 0 0 0 0 0 0 0 0 0 
0 0 0 0 0 0 0 0 0 0 0 0 0 0 0 
0 0 0 0 0 0 0 0 0 0 0 0 0 0 0 
0 0 0 0 0 0 0 0 0 0 0 0 0 0 0 
0 0 0 0 0 0 0 0 0 0 0 0 0 0 0 
0 0 0 0 0 0 0 0 0 0 0 0 0 0 0 
0 0 0 0 0 0 0 0 0 0 0 0 0 0 0 
0 0 0 0 0 0 0 0 0 0 0 0 0 0 0 
0 0 0 0 0 0 0 0 0 0 0 0 0 0 0 
0 0 0 0 0 0 0 0 0 0 0 0 0 0 0 
0 0 0 0 0 0 0 0 0 0 0 0 0 0 0 
0 0 0 0 0 0 0 0 0 0 0 0 0 0 0 
0 0 0 0 0 0 0 0 0 0 0 0 0 0 0 
0 0 0 0 0 0 0 0 0 0 0 0 0 0 0 
0 0 0 0 0 0 0 0 0 0 0 0 0 0 0 
0 0 0 0 0 0 0 0 0 0 0 0 0 0 0 
0 0 0 0 0 0 0 0 0 0 0 0 0 0 0 
0 0 0 0 0 0 0 0 0 0 0 0 0 0 0 
0 0 0 0 0 0 0 0 0 0 0 0 0 0 0 
0 0 0 0 0 0 0 0 0 0 0 0 0 0 0 
0 0 0 0 0 0 0 0 0 0 0 0 0 0 0 
0 0 0 0 0 0 0 0 0 0 0 0 0 0 0 
0 0 0 0 0 0 0 0 0 0 0 0 0 0 0 
0 0 0 0 0 0 0 0 0 0 0 0 0 0 0 
0 0 0 0 0 0 0 0 0 0 0 0 0 0 0 
0 0 0 0 0 0 0 0 0 0 0 0 0 0 0 
0 0 0 0 0 0 0 0 0 0 0 0 0 0 0 
0 0 0 0 0 0 0 0 0 0 0 0 0 0 0 
0 0 0 0 0 0 0 0 0 0 0 0 0 0 0 
0 0 0 0 0 0 0 0 0 0 0 0 0 0 0 
0 0 0 0 0 0 0 0 0 0 0 0 0 0 0 
0 0 0 0 0 0 0 0 0 0 0 0 0 0 0 
0 0 0 0 0 0 0 0 0 0 0 0 0 0 0 
0 0 0 0 0 0 0 0 0 0 0 0 0 0 0 
0 0 0 0 0 0 0 0 0 0 0 0 0 0 0 
0 0 0 0 0 0 0 0 0 0 0 0 0 0 0 
0 0 0 0 0 0 0 0 0 0 0 0 0 0 0 
0 0 0 0 0 0 0 0 0 0 0 0 0 0 0 
0 0 0 0 0 0 0 0 0 0 0 0 0 0 0 
0 0 0 0 0 0 0 0 0 0 0 0 0 0 0 
0 0 0 0 0 0 0 0 0 0 0 0 0 0 0 
0 0 0 0 0 0 0 0 0 0 0 0 0 0 0 
0 0 0 0 0 0 0 0 0 0 0 0 0 0 0 
0 0 0 2 2 2 12 19 24 9 17 23 9 17 23 
9 17 23 9 17 23 9 17 23 15 19 23 0 0 0 
0 0 0 0 0 0 0 0 0 0 0 0 0 0 0 
0 0 0 0 0 0 0 0 0 26 28 30 9 17 23 
9 17 23 9 17 23 9 17 23 9 17 23 9 16 22 
17 17 17 0 0 0 0 0 0 0 0 0 0 0 0 
0 0 0 0 0 0 0 0 0 0 0 0 0 0 0 
0 0 0 0 0 0 0 0 0 0 0 0 0 0 0 
0 0 0 0 0 0 0 0 0 0 0 0 0 0 0 
0 0 0 0 0 0 0 0 0 0 0 0 0 0 0 
0 0 0 0 0 0 0 0 0 0 0 0 0 0 0 
0 0 0 0 0 0 0 0 0 0 0 0 0 0 0 
0 0 0 0 0 0 0 0 0 0 0 0 0 0 0 
0 0 0 0 0 0 0 0 0 0 0 0 0 0 0 
0 0 0 0 0 0 0 0 0 0 0 0 0 0 0 
0 0 0 0 0 0 0 0 0 0 0 0 0 0 0 
0 0 0 0 0 0 0 0 0 0 0 0 0 0 0 
0 0 0 0 0 0 0 0 0 0 0 0 0 0 0 
0 0 0 0 0 0 0 0 0 0 0 0 0 0 0 
13 13 13 62 76 89 50 74 96 26 100 166 13 105 188 
13 105 188 13 105 188 27 90 146 9 9 9 0 0 0 
0 0 0 0 0 0 0 0 0 0 0 0 0 0 0 
0 0 0 10 10 10 47 97 141 13 105 188 13 105 188 
13 105 188 19 105 183 57 90 120 47 61 75 11 11 11 
0 0 0 0 0 0 0 0 0 0 0 0 0 0 0 
0 0 0 0 0 0 0 0 0 0 0 0 0 0 0 
0 0 0 0 0 0 0 0 0 0 0 0 0 0 0 
0 0 0 0 0 0 0 0 0 0 0 0 0 0 0 
0 0 0 0 0 0 0 0 0 0 0 0 0 0 0 
0 0 0 0 0 0 0 0 0 0 0 0 0 0 0 
0 0 0 0 0 0 0 0 0 0 0 0 0 0 0 
0 0 0 0 0 0 0 0 0 0 0 0 0 0 0 
0 0 0 0 0 0 0 0 0 0 0 0 0 0 0 
0 0 0 0 0 0 0 0 0 0 0 0 0 0 0 
0 0 0 0 0 0 0 0 0 0 0 0 0 0 0 
0 0 0 0 0 0 0 0 0 0 0 0 0 0 0 
0 0 0 0 0 0 0 0 0 0 0 0 0 0 0 
0 0 0 0 0 0 0 0 0 0 0 0 0 0 0 
0 0 0 0 0 0 51 84 113 13 105 188 13 105 188 
13 105 188 36 115 186 20 20 20 0 0 0 0 0 0 
0 0 0 0 0 0 0 0 0 0 0 0 0 0 0 
52 77 100 13 101 181 13 105 188 13 105 188 13 105 188 
59 86 111 5 5 5 0 0 0 0 0 0 0 0 0 
0 0 0 0 0 0 0 0 0 0 0 0 0 0 0 
0 0 0 0 0 0 0 0 0 0 0 0 0 0 0 
0 0 0 0 0 0 0 0 0 0 0 0 0 0 0 
0 0 0 0 0 0 0 0 0 0 0 0 0 0 0 
0 0 0 0 0 0 0 0 0 0 0 0 0 0 0 
0 0 0 0 0 0 0 0 0 0 0 0 0 0 0 
0 0 0 0 0 0 0 0 0 0 0 0 0 0 0 
0 0 0 0 0 0 0 0 0 0 0 0 0 0 0 
0 0 0 0 0 0 0 0 0 0 0 0 0 0 0 
0 0 0 0 0 0 0 0 0 0 0 0 0 0 0 
0 0 0 0 0 0 0 0 0 0 0 0 0 0 0 
0 0 0 0 0 0 0 0 0 0 0 0 0 0 0 
0 0 0 0 0 0 0 0 0 0 0 0 0 0 0 
0 0 0 0 0 0 0 0 0 0 0 0 0 0 0 
5 5 5 34 95 150 21 102 175 13 105 188 13 105 188 
22 101 172 9 9 9 0 0 0 0 0 0 0 0 0 
0 0 0 0 0 0 0 0 0 35 41 46 24 98 165 
13 105 188 13 105 188 13 105 188 21 103 178 25 27 30 
0 0 0 0 0 0 0 0 0 0 0 0 0 0 0 
0 0 0 0 0 0 0 0 0 0 0 0 0 0 0 
0 0 0 0 0 0 0 0 0 0 0 0 0 0 0 
0 0 0 0 0 0 0 0 0 0 0 0 0 0 0 
0 0 0 0 0 0 0 0 0 0 0 0 0 0 0 
0 0 0 0 0 0 0 0 0 0 0 0 0 0 0 
0 0 0 0 0 0 0 0 0 0 0 0 0 0 0 
0 0 0 0 0 0 0 0 0 0 0 0 0 0 0 
0 0 0 0 0 0 0 0 0 0 0 0 0 0 0 
0 0 0 0 0 0 0 0 0 0 0 0 0 0 0 
0 0 0 0 0 0 0 0 0 0 0 0 0 0 0 
0 0 0 0 0 0 0 0 0 0 0 0 0 0 0 
0 0 0 0 0 0 0 0 0 0 0 0 0 0 0 
0 0 0 0 0 0 0 0 0 0 0 0 0 0 0 
0 0 0 0 0 0 0 0 0 0 0 0 33 37 41 
33 101 161 33 81 123 13 105 188 13 105 188 13 105 187 
40 50 60 0 0 0 0 0 0 0 0 0 0 0 0 
0 0 0 23 23 23 47 101 150 70 107 139 13 105 188 
13 105 188 13 105 188 38 95 145 3 3 3 0 0 0 
0 0 0 0 0 0 0 0 0 0 0 0 0 0 0 
0 0 0 0 0 0 0 0 0 0 0 0 0 0 0 
0 0 0 0 0 0 0 0 0 0 0 0 0 0 0 
0 0 0 0 0 0 0 0 0 0 0 0 10 10 10 
35 35 35 33 33 33 18 18 18 0 0 0 0 0 0 
18 18 18 10 10 10 0 0 0 0 0 0 0 0 0 
0 0 0 0 0 0 0 0 0 0 0 0 0 0 0 
0 0 0 0 0 0 0 0 0 0 0 0 0 0 0 
0 0 0 0 0 0 9 9 9 37 37 37 31 31 31 
18 18 18 0 0 0 0 0 0 29 29 29 0 0 0 
0 0 0 0 0 0 0 0 0 0 0 0 0 0 0 
0 0 0 0 0 0 0 0 0 0 0 0 0 0 0 
0 0 0 0 0 0 0 0 0 0 0 0 0 0 0 
0 0 0 0 0 0 0 0 0 0 0 0 0 0 0 
0 0 0 0 0 0 0 0 0 46 67 87 49 93 132 
46 93 135 13 105 188 13 105 188 13 105 188 32 43 52 
0 0 0 0 0 0 0 0 0 0 0 0 0 0 0 
52 79 104 46 99 148 46 88 125 13 105 188 13 105 188 
13 105 188 46 73 98 0 0 0 0 0 0 0 0 0 
50 52 53 77 101 123 52 112 166 50 113 170 50 113 170 
50 111 166 76 109 139 67 76 85 0 0 0 1 1 1 
95 113 129 55 103 146 50 113 170 62 113 158 92 107 121 
0 0 0 11 11 11 38 55 71 40 97 148 25 103 174 
49 120 184 39 95 146 41 90 135 55 94 129 41 89 131 
28 29 29 0 0 0 80 90 99 69 102 131 50 111 166 
50 113 170 50 113 170 54 110 159 83 107 130 37 39 40 
0 0 0 0 0 0 0 0 0 1 1 1 29 36 43 
47 91 131 36 96 150 36 96 150 32 80 122 43 102 154 
38 88 133 44 83 119 54 89 120 0 0 0 0 0 0 
0 0 0 0 0 0 0 0 0 0 0 0 0 0 0 
0 0 0 0 0 0 0 0 0 0 0 0 0 0 0 
0 0 0 0 0 0 0 0 0 0 0 0 0 0 0 
0 0 0 0 0 0 0 0 0 0 0 0 0 0 0 
0 0 0 3 3 3 44 95 140 38 56 73 29 67 100 
13 105 188 13 105 188 13 105 188 32 52 70 0 0 0 
0 0 0 0 0 0 0 0 0 38 48 57 30 97 158 
50 55 60 33 97 156 13 105 188 13 105 188 13 102 182 
35 39 42 0 0 0 0 0 0 0 0 0 0 0 0 
8 8 8 38 87 131 13 105 188 13 105 188 45 92 136 
17 17 17 0 0 0 0 0 0 0 0 0 0 0 0 
54 74 92 27 100 166 53 58 63 0 0 0 2 2 2 
55 81 105 15 105 186 19 100 174 62 76 88 16 16 16 
41 44 47 52 102 149 13 105 188 39 99 152 0 0 0 
0 0 0 0 0 0 24 24 24 36 114 185 13 105 188 
13 105 188 40 68 93 6 6 6 0 0 0 0 0 0 
0 0 0 23 23 24 48 87 121 18 106 185 33 100 161 
46 60 73 8 8 8 2 2 2 28 31 33 55 103 147 
13 105 188 37 57 76 0 0 0 0 0 0 0 0 0 
0 0 0 0 0 0 0 0 0 0 0 0 0 0 0 
0 0 0 0 0 0 0 0 0 0 0 0 0 0 0 
0 0 0 0 0 0 0 0 0 0 0 0 0 0 0 
0 0 0 0 0 0 0 0 0 0 0 0 0 0 0 
17 17 18 37 104 165 31 31 31 30 53 74 13 105 188 
13 105 188 13 105 188 47 81 112 0 0 0 0 0 0 
0 0 0 28 28 28 39 102 158 53 71 86 26 33 39 
15 102 180 13 105 188 13 105 188 37 104 165 10 10 10 
0 0 0 0 0 0 0 0 0 0 0 0 10 10 10 
40 107 169 13 105 188 14 104 185 37 46 55 0 0 0 
0 0 0 0 0 0 0 0 0 0 0 0 37 57 75 
46 82 115 0 0 0 0 0 0 20 22 23 25 102 171 
13 105 188 35 84 129 1 1 1 0 0 0 0 0 0 
27 27 28 37 105 167 35 71 104 0 0 0 0 0 0 
0 0 0 27 31 35 20 104 179 13 105 188 21 98 167 
29 29 29 0 0 0 0 0 0 0 0 0 50 55 60 
34 101 162 13 105 188 34 104 167 48 51 54 0 0 0 
0 0 0 0 0 0 0 0 0 33 34 35 19 96 165 
35 35 35 0 0 0 0 0 0 0 0 0 0 0 0 
0 0 0 0 0 0 0 0 0 0 0 0 0 0 0 
0 0 0 0 0 0 0 0 0 0 0 0 0 0 0 
0 0 0 0 0 0 0 0 0 0 0 0 0 0 0 
0 0 0 0 0 0 0 0 0 0 0 0 43 54 63 
48 103 153 0 0 0 53 75 94 13 105 188 13 105 188 
13 105 188 20 56 89 0 0 0 0 0 0 4 4 4 
55 88 117 42 87 127 5 5 5 43 74 102 13 105 188 
13 105 188 13 105 188 45 83 118 0 0 0 0 0 0 
0 0 0 0 0 0 0 0 0 34 38 41 13 101 181 
13 105 188 39 107 168 12 12 12 0 0 0 0 0 0 
0 0 0 0 0 0 0 0 0 53 96 133 39 45 50 
0 0 0 0 0 0 25 30 34 13 105 188 13 105 188 
37 88 134 3 3 3 0 0 0 0 0 0 0 0 0 
37 73 105 31 45 58 0 0 0 0 0 0 0 0 0 
33 51 67 13 105 188 13 105 188 42 96 144 0 0 0 
0 0 0 0 0 0 26 30 34 38 108 171 13 105 188 
15 104 185 48 61 72 0 0 0 0 0 0 0 0 0 
0 0 0 0 0 0 3 3 3 53 86 117 10 10 10 
0 0 0 0 0 0 0 0 0 0 0 0 0 0 0 
0 0 0 0 0 0 0 0 0 0 0 0 0 0 0 
0 0 0 0 0 0 0 0 0 0 0 0 0 0 0 
0 0 0 0 0 0 0 0 0 0 0 0 0 0 0 
0 0 0 0 0 0 0 0 0 37 76 112 38 70 99 
0 0 0 14 14 14 13 105 187 13 105 188 13 105 188 
49 107 160 0 0 0 0 0 0 51 65 77 36 104 166 
29 30 32 1 1 1 46 100 150 13 105 188 13 105 188 
13 105 187 34 49 64 0 0 0 0 0 0 0 0 0 
0 0 0 0 0 0 46 73 97 13 105 188 13 105 188 
41 86 126 0 0 0 0 0 0 0 0 0 0 0 0 
0 0 0 14 14 14 58 106 148 9 9 9 0 0 0 
0 0 0 40 43 46 13 99 178 13 105 188 18 101 176 
36 45 54 0 0 0 0 0 0 0 0 0 43 54 64 
23 23 23 0 0 0 0 0 0 0 0 0 44 91 134 
13 105 188 13 105 188 46 70 92 0 0 0 0 0 0 
11 11 11 44 88 129 13 105 188 13 105 188 46 93 135 
0 0 0 0 0 0 0 0 0 0 0 0 0 0 0 
0 0 0 0 0 0 39 43 48 0 0 0 0 0 0 
0 0 0 0 0 0 0 0 0 0 0 0 0 0 0 
0 0 0 0 0 0 0 0 0 0 0 0 0 0 0 
0 0 0 0 0 0 0 0 0 0 0 0 0 0 0 
0 0 0 0 0 0 0 0 0 0 0 0 0 0 0 
0 0 0 13 13 13 35 100 157 42 49 56 0 0 0 
41 41 41 14 106 188 13 105 188 13 105 188 35 93 146 
0 0 0 38 38 39 25 90 148 56 68 78 0 0 0 
34 34 34 23 106 180 13 105 188 13 105 188 19 97 168 
33 33 33 0 0 0 0 0 0 0 0 0 0 0 0 
3 3 3 37 93 144 13 105 188 13 105 188 31 47 60 
0 0 0 0 0 0 0 0 0 0 0 0 0 0 0 
44 49 54 39 81 119 0 0 0 0 0 0 0 0 0 
7 7 7 50 111 166 13 105 188 13 105 188 31 94 151 
35 43 50 0 0 0 0 0 0 0 0 0 0 0 0 
0 0 0 0 0 0 22 22 22 32 103 166 13 105 188 
16 105 185 32 36 40 0 0 0 0 0 0 41 48 55 
17 105 184 13 105 188 15 104 185 27 36 44 0 0 0 
0 0 0 0 0 0 0 0 0 0 0 0 0 0 0 
0 0 0 0 0 0 0 0 0 0 0 0 0 0 0 
0 0 0 0 0 0 0 0 0 0 0 0 0 0 0 
0 0 0 0 0 0 0 0 0 0 0 0 0 0 0 
0 0 0 0 0 0 0 0 0 0 0 0 0 0 0 
0 0 0 0 0 0 0 0 0 0 0 0 0 0 0 
41 46 52 33 98 158 16 16 16 0 0 0 15 15 15 
17 97 169 13 105 188 13 105 188 24 94 157 23 23 23 
50 94 133 45 84 119 0 0 0 0 0 0 38 57 75 
13 105 188 13 105 188 13 105 188 41 97 147 0 0 0 
0 0 0 0 0 0 0 0 0 0 0 0 29 31 32 
21 100 170 13 105 188 21 98 168 30 31 32 0 0 0 
0 0 0 0 0 0 0 0 0 0 0 0 39 72 101 
44 59 73 0 0 0 0 0 0 0 0 0 0 0 0 
43 51 57 22 98 167 13 105 188 13 105 188 35 99 156 
37 39 41 0 0 0 0 0 0 0 0 0 0 0 0 
0 0 0 34 44 53 14 103 184 13 105 188 39 103 161 
14 14 14 0 0 0 0 0 0 48 87 122 13 105 188 
13 105 188 38 108 170 12 12 12 0 0 0 0 0 0 
0 0 0 0 0 0 0 0 0 0 0 0 0 0 0 
0 0 0 0 0 0 0 0 0 0 0 0 0 0 0 
0 0 0 0 0 0 0 0 0 0 0 0 0 0 0 
0 0 0 0 0 0 0 0 0 0 0 0 0 0 0 
0 0 0 0 0 0 0 0 0 0 0 0 0 0 0 
0 0 0 0 0 0 0 0 0 0 0 0 36 65 91 
52 94 133 0 0 0 0 0 0 0 0 0 40 107 168 
13 105 188 13 105 188 28 110 184 72 92 110 32 94 150 
20 21 21 0 0 0 0 0 0 48 91 129 13 105 188 
13 105 188 13 105 188 47 73 97 0 0 0 0 0 0 
0 0 0 0 0 0 0 0 0 32 48 63 13 105 188 
13 105 188 39 94 144 3 3 3 0 0 0 0 0 0 
0 0 0 0 0 0 1 1 1 55 102 143 27 29 30 
0 0 0 0 0 0 0 0 0 0 0 0 0 0 0 
33 52 70 20 107 185 13 105 188 13 105 188 41 105 162 
21 24 26 0 0 0 0 0 0 0 0 0 0 0 0 
45 75 103 13 105 188 13 105 188 40 77 111 0 0 0 
0 0 0 0 0 0 44 106 161 13 105 188 13 105 188 
32 72 108 0 0 0 0 0 0 0 0 0 0 0 0 
0 0 0 0 0 0 0 0 0 0 0 0 0 0 0 
0 0 0 0 0 0 0 0 0 0 0 0 0 0 0 
0 0 0 0 0 0 0 0 0 0 0 0 0 0 0 
0 0 0 0 0 0 0 0 0 0 0 0 0 0 0 
0 0 0 0 0 0 0 0 0 0 0 0 0 0 0 
0 0 0 0 0 0 0 0 0 46 98 144 42 61 79 
0 0 0 0 0 0 0 0 0 56 120 177 13 105 188 
13 105 188 15 103 183 25 96 161 48 55 61 0 0 0 
0 0 0 14 14 14 27 99 164 13 105 188 13 105 188 
16 105 185 33 39 45 0 0 0 0 0 0 0 0 0 
0 0 0 0 0 0 44 83 119 13 105 188 13 105 188 
48 74 97 0 0 0 0 0 0 0 0 0 0 0 0 
0 0 0 28 28 29 52 99 142 4 4 4 0 0 0 
14 14 14 14 14 14 0 0 0 0 0 0 0 0 0 
36 57 76 18 105 183 13 105 188 13 105 188 49 89 125 
0 0 0 0 0 0 0 0 0 7 7 7 42 101 155 
13 105 188 13 104 186 36 50 63 0 0 0 0 0 0 
0 0 0 16 79 135 13 105 188 13 105 188 42 71 97 
0 0 0 0 0 0 0 0 0 0 0 0 0 0 0 
0 0 0 0 0 0 0 0 0 0 0 0 0 0 0 
0 0 0 0 0 0 0 0 0 0 0 0 0 0 0 
0 0 0 0 0 0 0 0 0 0 0 0 0 0 0 
0 0 0 0 0 0 0 0 0 0 0 0 0 0 0 
0 0 0 0 0 0 0 0 0 0 0 0 0 0 0 
0 0 0 25 25 25 33 100 161 18 20 21 0 0 0 
0 0 0 0 0 0 24 67 107 13 105 188 13 105 188 
13 104 186 43 72 99 5 5 5 0 0 0 0 0 0 
37 44 50 15 103 182 13 105 188 13 105 188 36 102 162 
17 17 17 0 0 0 0 0 0 0 0 0 0 0 0 
11 11 11 34 102 164 13 105 188 13 105 188 28 31 34 
0 0 0 0 0 0 0 0 0 0 0 0 0 0 0 
45 60 74 46 69 90 0 0 0 0 0 0 48 61 73 
46 57 67 0 0 0 0 0 0 0 0 0 6 6 6 
55 80 103 13 104 186 13 105 188 25 103 172 25 25 25 
0 0 0 0 0 0 27 29 31 20 104 179 13 105 188 
24 99 168 24 24 24 0 0 0 0 0 0 0 0 0 
22 85 141 13 105 188 13 105 188 16 31 45 0 0 0 
0 0 0 0 0 0 0 0 0 0 0 0 0 0 0 
0 0 0 0 0 0 0 0 0 0 0 0 0 0 0 
0 0 0 0 0 0 0 0 0 0 0 0 0 0 0 
0 0 0 0 0 0 0 0 0 0 0 0 0 0 0 
0 0 0 0 0 0 0 0 0 0 0 0 0 0 0 
0 0 0 0 0 0 0 0 0 0 0 0 0 0 0 
50 66 79 44 97 144 4 4 4 0 0 0 0 0 0 
0 0 0 51 94 134 13 105 188 13 105 188 40 99 153 
14 14 14 0 0 0 0 0 0 0 0 0 33 64 93 
13 105 188 13 105 188 13 105 188 43 84 121 0 0 0 
0 0 0 0 0 0 0 0 0 0 0 0 6 6 6 
21 98 168 13 105 188 15 93 164 23 24 24 0 0 0 
0 0 0 0 0 0 0 0 0 2 2 2 46 90 130 
26 26 26 0 0 0 0 0 0 34 71 105 34 61 85 
0 0 0 0 0 0 0 0 0 0 0 0 31 31 31 
23 105 179 13 105 188 23 109 186 32 32 32 0 0 0 
0 0 0 45 64 81 13 105 188 13 105 188 37 90 137 
0 0 0 0 0 0 0 0 0 0 0 0 43 97 146 
13 105 188 13 105 188 22 56 82 0 0 0 0 0 0 
0 0 0 0 0 0 0 0 0 0 0 0 6 6 6 
5 5 5 0 0 0 0 0 0 0 0 0 0 0 0 
0 0 0 0 0 0 0 0 0 0 0 0 0 0 0 
0 0 0 0 0 0 0 0 0 0 0 0 0 0 0 
0 0 0 0 0 0 0 0 0 0 0 0 0 0 0 
0 0 0 0 0 0 0 0 0 2 2 2 45 91 133 
38 70 99 0 0 0 0 0 0 0 0 0 0 0 0 
22 52 79 13 105 188 21 98 168 39 48 56 0 0 0 
0 0 0 0 0 0 15 15 15 35 97 153 13 105 188 
13 105 188 13 105 188 41 56 71 0 0 0 0 0 0 
0 0 0 0 0 0 0 0 0 11 11 11 28 105 173 
13 105 188 18 93 162 30 31 31 0 0 0 0 0 0 
0 0 0 0 0 0 38 50 60 39 75 108 0 0 0 
0 0 0 2 2 2 40 100 154 39 97 148 10 10 10 
0 0 0 0 0 0 0 0 0 19 19 19 22 96 162 
13 105 188 32 97 156 8 8 8 0 0 0 0 0 0 
38 86 130 13 105 188 13 105 188 41 65 86 0 0 0 
0 0 0 0 0 0 0 0 0 49 63 77 14 103 184 
13 105 188 50 104 152 14 14 14 0 0 0 0 0 0 
0 0 0 0 0 0 26 26 26 75 75 75 19 19 19 
0 0 0 0 0 0 2 2 2 0 0 0 0 0 0 
0 0 0 0 0 0 0 0 0 0 0 0 0 0 0 
0 0 0 0 0 0 0 0 0 0 0 0 0 0 0 
0 0 0 0 0 0 0 0 0 0 0 0 0 0 0 
0 0 0 1 1 1 60 77 92 15 100 176 43 82 117 
1 1 1 0 0 0 0 0 0 0 0 0 35 55 73 
13 105 188 54 77 98 0 0 0 0 0 0 0 0 0 
2 2 2 68 86 102 14 104 186 13 105 188 13 105 188 
13 105 188 50 66 81 0 0 0 0 0 0 0 0 0 
0 0 0 0 0 0 0 0 0 48 82 113 13 105 188 
13 105 188 37 70 99 18 18 18 2 2 2 9 9 9 
45 55 65 42 97 148 23 23 23 0 0 0 0 0 0 
23 23 23 26 108 183 14 104 186 36 68 97 15 15 15 
0 0 0 1 1 1 64 79 93 15 103 183 16 105 185 
30 52 71 0 0 0 0 0 0 43 43 44 24 101 171 
13 105 188 13 105 188 53 66 78 0 0 0 0 0 0 
0 0 0 0 0 0 5 5 5 54 100 140 13 105 188 
14 105 187 41 76 107 25 25 26 2 2 2 11 12 12 
42 52 62 54 76 95 36 36 36 0 0 0 10 10 10 
19 19 19 33 33 33 0 0 0 0 0 0 0 0 0 
0 0 0 0 0 0 0 0 0 0 0 0 0 0 0 
0 0 0 0 0 0 0 0 0 0 0 0 0 0 0 
0 0 0 0 0 0 0 0 0 0 0 0 57 82 103 
43 94 141 17 103 180 13 105 188 16 106 186 53 102 146 
56 70 82 0 0 0 0 0 0 46 61 75 36 87 133 
22 22 22 0 0 0 2 2 2 57 94 128 54 105 152 
15 101 179 13 105 188 13 105 188 13 105 188 13 105 188 
28 99 164 46 91 132 14 14 14 0 0 0 0 0 0 
0 0 0 0 0 0 12 14 15 55 92 124 21 102 175 
13 105 188 36 106 170 52 122 184 49 110 165 57 94 127 
19 19 19 0 0 0 0 0 0 0 0 0 43 54 64 
23 99 167 48 118 181 21 96 164 45 102 154 60 106 147 
46 97 142 17 101 178 32 100 162 57 74 90 10 10 10 
29 30 31 24 46 66 45 107 163 13 105 188 13 105 188 
13 105 188 51 95 135 49 64 78 0 0 0 0 0 0 
0 0 0 0 0 0 26 26 26 48 84 117 25 102 171 
13 105 188 21 102 175 46 115 178 33 97 155 43 94 141 
33 36 38 0 0 0 0 0 0 25 25 25 48 48 48 
1 1 1 0 0 0 0 0 0 0 0 0 0 0 0 
0 0 0 0 0 0 0 0 0 0 0 0 0 0 0 
0 0 0 0 0 0 0 0 0 0 0 0 0 0 0 
0 0 0 0 0 0 0 0 0 1 2 3 0 2 4 
0 2 4 0 2 4 0 2 4 0 2 4 1 2 2 
0 0 0 0 0 0 0 0 0 0 1 1 0 0 0 
0 0 0 0 0 0 0 2 3 0 2 4 0 2 4 
0 2 4 0 2 4 0 2 4 0 2 4 0 2 4 
0 2 4 1 1 1 0 0 0 0 0 0 0 0 0 
0 0 0 0 0 0 1 1 1 26 27 27 23 30 37 
58 84 107 29 44 59 27 28 29 2 2 2 0 0 0 
0 0 0 0 0 0 0 0 0 40 40 41 32 32 33 
3 3 3 18 19 19 30 32 33 49 69 87 47 73 96 
21 24 27 23 23 23 0 0 0 0 0 0 1 1 1 
0 2 4 0 2 4 0 2 4 0 2 4 0 2 4 
0 2 4 1 2 4 0 0 0 0 0 0 0 0 0 
0 0 0 0 0 0 0 0 0 32 33 33 14 22 30 
58 84 107 29 37 44 37 38 39 1 1 1 0 0 0 
0 0 0 0 0 0 0 0 0 0 0 0 0 0 0 
0 0 0 0 0 0 0 0 0 0 0 0 0 0 0 
0 0 0 0 0 0 0 0 0 0 0 0 0 0 0 
0 0 0 0 0 0 0 0 0 0 0 0 0 0 0 
0 0 0 0 0 0 0 0 0 0 0 0 0 0 0 
0 0 0 0 0 0 0 0 0 0 0 0 0 0 0 
0 0 0 0 0 0 0 0 0 0 0 0 0 0 0 
0 0 0 0 0 0 0 0 0 0 0 0 0 0 0 
0 0 0 0 0 0 0 0 0 0 0 0 0 0 0 
0 0 0 0 0 0 0 0 0 0 0 0 0 0 0 
0 0 0 0 0 0 0 0 0 0 0 0 0 0 0 
0 0 0 0 0 0 0 0 0 0 0 0 0 0 0 
0 0 0 0 0 0 0 0 0 0 0 0 0 0 0 
0 0 0 0 0 0 0 0 0 0 0 0 0 0 0 
0 0 0 0 0 0 0 0 0 0 0 0 0 0 0 
0 0 0 0 0 0 0 0 0 0 0 0 0 0 0 
0 0 0 0 0 0 0 0 0 0 0 0 0 0 0 
0 0 0 0 0 0 0 0 0 0 0 0 0 0 0 
0 0 0 0 0 0 0 0 0 0 0 0 0 0 0 
0 0 0 0 0 0 0 0 0 0 0 0 0 0 0 
0 0 0 0 0 0 0 0 0 0 0 0 0 0 0 
0 0 0 0 0 0 0 0 0 0 0 0 0 0 0 
0 0 0 0 0 0 0 0 0 0 0 0 0 0 0 
0 0 0 0 0 0 0 0 0 0 0 0 0 0 0 
0 0 0 0 0 0 0 0 0 0 0 0 0 0 0 
0 0 0 0 0 0 0 0 0 0 0 0 0 0 0 
0 0 0 0 0 0 0 0 0 0 0 0 0 0 0 
0 0 0 0 0 0 0 0 0 0 0 0 0 0 0 
0 0 0 0 0 0 0 0 0 0 0 0 0 0 0 
0 0 0 0 0 0 0 0 0 0 0 0 0 0 0 
0 0 0 0 0 0 0 0 0 0 0 0 0 0 0 
0 0 0 0 0 0 0 0 0 0 0 0 0 0 0 
0 0 0 0 0 0 0 0 0 0 0 0 0 0 0 
0 0 0 0 0 0 0 0 0 0 0 0 0 0 0 
0 0 0 0 0 0 0 0 0 0 0 0 0 0 0 
0 0 0 0 0 0 0 0 0 0 0 0 0 0 0 
0 0 0 0 0 0 0 0 0 0 0 0 0 0 0 
0 0 0 0 0 0 0 0 0 0 0 0 0 0 0 
0 0 0 0 0 0 0 0 0 0 0 0 0 0 0 
0 0 0 0 0 0 0 0 0 0 0 0 0 0 0 
0 0 0 0 0 0 0 0 0 0 0 0 0 0 0 
0 0 0 0 0 0 0 0 0 0 0 0 0 0 0 
0 0 0 0 0 0 0 0 0 0 0 0 0 0 0 
0 0 0 0 0 0 0 0 0 0 0 0 0 0 0 
0 0 0 0 0 0 0 0 0 0 0 0 0 0 0 
0 0 0 0 0 0 0 0 0 0 0 0 0 0 0 
0 0 0 0 0 0 0 0 0 0 0 0 0 0 0 
0 0 0 0 0 0 0 0 0 0 0 0 0 0 0 
0 0 0 0 0 0 0 0 0 0 0 0 0 0 0 
0 0 0 0 0 0 0 0 0 0 0 0 0 0 0 
0 0 0 0 0 0 0 0 0 0 0 0 0 0 0 
0 0 0 0 0 0 0 0 0 0 0 0 0 0 0 
0 0 0 0 0 0 0 0 0 0 0 0 0 0 0 
0 0 0 0 0 0 0 0 0 0 0 0 0 0 0 
0 0 0 0 0 0 0 0 0 0 0 0 0 0 0 
0 0 0 0 0 0 0 0 0 0 0 0 0 0 0 
0 0 0 0 0 0 0 0 0 0 0 0 0 0 0 
0 0 0 0 0 0 0 0 0 0 0 0 0 0 0 
0 0 0 0 0 0 0 0 0 0 0 0 0 0 0 
0 0 0 0 0 0 0 0 0 0 0 0 0 0 0 
0 0 0 0 0 0 0 0 0 0 0 0 0 0 0 
0 0 0 0 0 0 0 0 0 0 0 0 0 0 0 
0 0 0 0 0 0 0 0 0 0 0 0 0 0 0 
0 0 0 0 0 0 0 0 0 0 0 0 0 0 0 
0 0 0 0 0 0 0 0 0 0 0 0 0 0 0 
0 0 0 0 0 0 0 0 0 0 0 0 0 0 0 
0 0 0 0 0 0 0 0 0 0 0 0 0 0 0 
0 0 0 0 0 0 0 0 0 0 0 0 0 0 0 
0 0 0 0 0 0 0 0 0 0 0 0 0 0 0 
0 0 0 0 0 0 0 0 0 0 0 0 0 0 0 
0 0 0 0 0 0 0 0 0 0 0 0 0 0 0 
0 0 0 0 0 0 0 0 0 0 0 0 0 0 0 
0 0 0 0 0 0 0 0 0 0 0 0 0 0 0 
0 0 0 0 0 0 0 0 0 0 0 0 0 0 0 
0 0 0 0 0 0 0 0 0 0 0 0 0 0 0 
0 0 0 0 0 0 0 0 0 0 0 0 0 0 0 
0 0 0 0 0 0 0 0 0 0 0 0 0 0 0 
0 0 0 0 0 0 0 0 0 0 0 0 0 0 0 
0 0 0 0 0 0 0 0 0 0 0 0 0 0 0 
0 0 0 0 0 0 0 0 0 0 0 0 0 0 0 
0 0 0 0 0 0 0 0 0 0 0 0 0 0 0 
0 0 0 0 0 0 0 0 0 0 0 0 0 0 0 
0 0 0 0 0 0 0 0 0 0 0 0 0 0 0 
0 0 0 0 0 0 0 0 0 0 0 0 0 0 0 
0 0 0 0 0 0 0 0 0 0 0 0 0 0 0 
0 0 0 0 0 0 0 0 0 0 0 0 0 0 0 
0 0 0 0 0 0 0 0 0 0 0 0 0 0 0 
0 0 0 0 0 0 0 0 0 0 0 0 0 0 0 
0 0 0 0 0 0 0 0 0 0 0 0 0 0 0 
0 0 0 0 0 0 0 0 0 0 0 0 0 0 0 
0 0 0 0 0 0 0 0 0 0 0 0 0 0 0 
0 0 0 0 0 0 0 0 0 0 0 0 0 0 0 
0 0 0 0 0 0 0 0 0 0 0 0 0 0 0 
0 0 0 0 0 0 0 0 0 0 0 0 0 0 0 
0 0 0 0 0 0 0 0 0 0 0 0 0 0 0 
0 0 0 0 0 0 0 0 0 0 0 0 0 0 0 
0 0 0 0 0 0 0 0 0 0 0 0 0 0 0 
0 0 0 0 0 0 0 0 0 0 0 0 0 0 0 
0 0 0 0 0 0 0 0 0 0 0 0 0 0 0 
0 0 0 0 0 0 0 0 0 0 0 0 0 0 0 
0 0 0 0 0 0 0 0 0 0 0 0 0 0 0 
0 0 0 0 0 0 0 0 0 0 0 0 0 0 0 
0 0 0 0 0 0 0 0 0 0 0 0 0 0 0 
0 0 0 0 0 0 0 0 0 0 0 0 0 0 0 
0 0 0 0 0 0 0 0 0 0 0 0 0 0 0 
0 0 0 0 0 0 0 0 0 0 0 0 0 0 0 
0 0 0 0 0 0 0 0 0 0 0 0 0 0 0 
0 0 0 0 0 0 0 0 0 0 0 0 0 0 0 
0 0 0 0 0 0 0 0 0 0 0 0 0 0 0 
0 0 0 0 0 0 0 0 0 0 0 0 0 0 0 
0 0 0 0 0 0 0 0 0 0 0 0 0 0 0 
0 0 0 0 0 0 0 0 0 0 0 0 0 0 0 
0 0 0 0 0 0 0 0 0 0 0 0 0 0 0 
0 0 0 0 0 0 0 0 0 0 0 0 0 0 0 
0 0 0 0 0 0 0 0 0 0 0 0 0 0 0 
0 0 0 0 0 0 0 0 0 0 0 0 0 0 0 
