P3
# Created by IrfanView
102 30
255
0 0 0 0 0 0 0 0 0 0 0 0 0 0 0 
0 0 0 0 0 0 0 0 0 0 0 0 0 0 0 
0 0 0 0 0 0 0 0 0 0 0 0 0 0 0 
0 0 0 0 0 0 0 0 0 0 0 0 0 0 0 
0 0 0 0 0 0 0 0 0 0 0 0 0 0 0 
0 0 0 0 0 0 0 0 0 0 0 0 0 0 0 
0 0 0 0 0 0 0 0 0 0 0 0 0 0 0 
0 0 0 0 0 0 0 0 0 0 0 0 0 0 0 
0 0 0 0 0 0 0 0 0 0 0 0 0 0 0 
0 0 0 0 0 0 0 0 0 0 0 0 0 0 0 
0 0 0 0 0 0 0 0 0 0 0 0 0 0 0 
0 0 0 0 0 0 0 0 0 0 0 0 0 0 0 
0 0 0 0 0 0 0 0 0 0 0 0 0 0 0 
0 0 0 0 0 0 0 0 0 0 0 0 0 0 0 
0 0 0 0 0 0 0 0 0 0 0 0 0 0 0 
0 0 0 0 0 0 0 0 0 0 0 0 0 0 0 
0 0 0 0 0 0 0 0 0 0 0 0 0 0 0 
0 0 0 0 0 0 0 0 0 0 0 0 0 0 0 
0 0 0 0 0 0 0 0 0 0 0 0 0 0 0 
0 0 0 0 0 0 0 0 0 0 0 0 0 0 0 
0 0 0 0 0 0 0 0 0 0 0 0 0 0 0 
0 0 0 0 0 0 0 0 0 0 0 0 0 0 0 
0 0 0 0 0 0 0 0 0 0 0 0 0 0 0 
0 0 0 0 0 0 0 0 0 0 0 0 0 0 0 
0 0 0 0 0 0 0 0 0 0 0 0 0 0 0 
0 0 0 0 0 0 0 0 0 0 0 0 0 0 0 
0 0 0 0 0 0 0 0 0 0 0 0 0 0 0 
0 0 0 0 0 0 0 0 0 0 0 0 0 0 0 
0 0 0 0 0 0 0 0 0 0 0 0 0 0 0 
0 0 0 0 0 0 0 0 0 0 0 0 0 0 0 
0 0 0 0 0 0 0 0 0 0 0 0 0 0 0 
0 0 0 0 0 0 0 0 0 0 0 0 0 0 0 
0 0 0 0 0 0 0 0 0 0 0 0 0 0 0 
0 0 0 0 0 0 0 0 0 0 0 0 0 0 0 
0 0 0 0 0 0 0 0 0 0 0 0 0 0 0 
0 0 0 0 0 0 0 0 0 0 0 0 0 0 0 
0 0 0 0 0 0 0 0 0 0 0 0 0 0 0 
0 0 0 0 0 0 0 0 0 0 0 0 0 0 0 
0 0 0 0 0 0 0 0 0 0 0 0 0 0 0 
0 0 0 0 0 0 0 0 0 0 0 0 0 0 0 
0 0 0 0 0 0 0 0 0 0 0 0 0 0 0 
0 0 0 0 0 0 0 0 0 0 0 0 0 0 0 
0 0 0 0 0 0 0 0 0 0 0 0 0 0 0 
0 0 0 0 0 0 0 0 0 0 0 0 0 0 0 
0 0 0 0 0 0 0 0 0 0 0 0 0 0 0 
0 0 0 0 0 0 0 0 0 0 0 0 0 0 0 
0 0 0 0 0 0 0 0 0 0 0 0 0 0 0 
0 0 0 0 0 0 0 0 0 0 0 0 0 0 0 
0 0 0 0 0 0 0 0 0 0 0 0 0 0 0 
0 0 0 0 0 0 0 0 0 0 0 0 0 0 0 
0 0 0 0 0 0 0 0 0 0 0 0 0 0 0 
0 0 0 0 0 0 0 0 0 0 0 0 0 0 0 
0 0 0 0 0 0 0 0 0 0 0 0 0 0 0 
0 0 0 0 0 0 0 0 0 0 0 0 0 0 0 
0 0 0 0 0 0 0 0 0 0 0 0 0 0 0 
0 0 0 0 0 0 0 0 0 0 0 0 0 0 0 
0 0 0 0 0 0 0 0 0 0 0 0 0 0 0 
0 0 0 0 0 0 0 0 0 0 0 0 0 0 0 
0 0 0 0 0 0 0 0 0 0 0 0 0 0 0 
0 0 0 0 0 0 0 0 0 0 0 0 0 0 0 
0 0 0 0 0 0 0 0 0 0 0 0 0 0 0 
0 0 0 0 0 0 0 0 0 0 0 0 0 0 0 
0 0 0 0 0 0 0 0 0 0 0 0 0 0 0 
0 0 0 0 0 0 0 0 0 0 0 0 0 0 0 
0 0 0 0 0 0 0 0 0 0 0 0 0 0 0 
0 0 0 0 0 0 0 0 0 0 0 0 0 0 0 
0 0 0 0 0 0 0 0 0 0 0 0 0 0 0 
0 0 0 0 0 0 0 0 0 0 0 0 0 0 0 
0 0 0 0 0 0 0 0 0 0 0 0 0 0 0 
0 0 0 0 0 0 0 0 0 0 0 0 0 0 0 
0 0 0 0 0 0 0 0 0 0 0 0 0 0 0 
0 0 0 0 0 0 0 0 0 0 0 0 0 0 0 
0 0 0 0 0 0 0 0 0 0 0 0 0 0 0 
0 0 0 0 0 0 0 0 0 0 0 0 0 0 0 
0 0 0 0 0 0 0 0 0 0 0 0 0 0 0 
0 0 0 0 0 0 0 0 0 0 0 0 0 0 0 
0 0 0 0 0 0 0 0 0 0 0 0 0 0 0 
0 0 0 0 0 0 0 0 0 0 0 0 0 0 0 
0 0 0 0 0 0 0 0 0 0 0 0 0 0 0 
0 0 0 0 0 0 0 0 0 0 0 0 0 0 0 
0 0 0 0 0 0 0 0 0 0 0 0 0 0 0 
0 0 0 0 0 0 0 0 0 0 0 0 0 0 0 
0 0 0 0 0 0 0 0 0 0 0 0 0 0 0 
0 0 0 8 8 8 43 43 43 43 43 43 43 43 43 
43 43 43 43 43 43 43 43 43 43 43 43 43 43 43 
20 20 20 0 0 0 0 0 0 0 0 0 0 0 0 
0 0 0 0 0 0 0 0 0 0 0 0 31 31 31 
43 43 43 43 43 43 43 43 43 43 43 43 43 43 43 
43 43 43 43 43 43 32 32 32 0 0 0 0 0 0 
0 0 0 0 0 0 0 0 0 0 0 0 0 0 0 
0 0 0 0 0 0 0 0 0 0 0 0 0 0 0 
0 0 0 0 0 0 0 0 0 0 0 0 0 0 0 
0 0 0 0 0 0 0 0 0 0 0 0 0 0 0 
0 0 0 0 0 0 0 0 0 0 0 0 0 0 0 
0 0 0 0 0 0 0 0 0 0 0 0 0 0 0 
0 0 0 0 0 0 0 0 0 0 0 0 0 0 0 
0 0 0 0 0 0 0 0 0 0 0 0 0 0 0 
0 0 0 0 0 0 0 0 0 0 0 0 0 0 0 
0 0 0 0 0 0 0 0 0 0 0 0 0 0 0 
0 0 0 0 0 0 0 0 0 0 0 0 0 0 0 
0 0 0 0 0 0 0 0 0 0 0 0 0 0 0 
0 0 0 0 0 0 0 0 0 0 0 0 0 0 0 
0 0 0 0 0 0 0 0 0 0 0 0 0 0 0 
0 0 0 0 0 0 0 0 0 25 40 55 14 106 187 
14 106 188 14 106 188 14 106 188 14 106 188 14 106 188 
14 106 188 14 106 188 12 36 57 0 0 0 0 0 0 
0 0 0 0 0 0 0 0 0 0 0 0 0 0 0 
19 19 19 29 97 159 14 106 188 14 106 188 14 106 188 
14 106 188 14 106 188 14 106 188 14 106 188 34 63 89 
0 0 0 0 0 0 0 0 0 0 0 0 0 0 0 
0 0 0 0 0 0 0 0 0 0 0 0 0 0 0 
0 0 0 0 0 0 0 0 0 0 0 0 0 0 0 
0 0 0 0 0 0 0 0 0 0 0 0 0 0 0 
0 0 0 0 0 0 0 0 0 0 0 0 0 0 0 
0 0 0 0 0 0 0 0 0 0 0 0 0 0 0 
0 0 0 0 0 0 0 0 0 0 0 0 0 0 0 
0 0 0 0 0 0 0 0 0 0 0 0 0 0 0 
0 0 0 0 0 0 0 0 0 0 0 0 0 0 0 
0 0 0 0 0 0 0 0 0 0 0 0 0 0 0 
0 0 0 0 0 0 0 0 0 0 0 0 0 0 0 
0 0 0 0 0 0 0 0 0 0 0 0 0 0 0 
0 0 0 0 0 0 0 0 0 0 0 0 0 0 0 
0 0 0 0 0 0 0 0 0 0 0 0 0 0 0 
0 0 0 0 0 0 0 0 0 0 0 0 0 0 0 
16 17 17 31 35 38 37 90 138 13 105 188 15 95 166 
13 104 185 13 105 188 13 105 188 13 105 188 15 53 88 
0 0 0 0 0 0 0 0 0 0 0 0 0 0 0 
0 0 0 0 0 0 44 76 105 13 101 181 13 105 188 
13 105 188 13 105 188 13 105 188 36 101 160 31 47 61 
32 32 33 6 6 6 0 0 0 0 0 0 0 0 0 
0 0 0 0 0 0 0 0 0 0 0 0 0 0 0 
0 0 0 0 0 0 0 0 0 0 0 0 0 0 0 
0 0 0 0 0 0 0 0 0 0 0 0 0 0 0 
0 0 0 0 0 0 0 0 0 0 0 0 0 0 0 
0 0 0 0 0 0 0 0 0 0 0 0 0 0 0 
0 0 0 0 0 0 0 0 0 0 0 0 0 0 0 
0 0 0 0 0 0 0 0 0 0 0 0 0 0 0 
0 0 0 0 0 0 0 0 0 0 0 0 0 0 0 
0 0 0 0 0 0 0 0 0 0 0 0 0 0 0 
0 0 0 0 0 0 0 0 0 0 0 0 0 0 0 
0 0 0 0 0 0 0 0 0 0 0 0 0 0 0 
0 0 0 0 0 0 0 0 0 0 0 0 0 0 0 
0 0 0 0 0 0 0 0 0 0 0 0 0 0 0 
0 0 0 0 0 0 0 0 0 0 0 0 0 0 0 
0 0 0 0 0 0 0 0 0 0 0 0 41 56 69 
13 105 188 48 89 126 14 102 182 13 105 188 13 105 188 
13 105 188 48 90 128 0 0 0 0 0 0 0 0 0 
0 0 0 0 0 0 0 0 0 30 38 45 18 100 173 
64 114 159 13 105 188 13 105 188 13 105 188 16 104 184 
30 40 48 0 0 0 0 0 0 0 0 0 0 0 0 
0 0 0 0 0 0 0 0 0 0 0 0 0 0 0 
0 0 0 0 0 0 0 0 0 0 0 0 0 0 0 
0 0 0 0 0 0 0 0 0 0 0 0 0 0 0 
0 0 0 0 0 0 0 0 0 0 0 0 0 0 0 
0 0 0 0 0 0 0 0 0 0 0 0 0 0 0 
0 0 0 0 0 0 0 0 0 0 0 0 0 0 0 
0 0 0 0 0 0 0 0 0 0 0 0 0 0 0 
0 0 0 0 0 0 0 0 0 0 0 0 0 0 0 
0 0 0 0 0 0 0 0 0 0 0 0 0 0 0 
0 0 0 0 0 0 0 0 0 0 0 0 0 0 0 
0 0 0 0 0 0 0 0 0 0 0 0 0 0 0 
0 0 0 0 0 0 0 0 0 0 0 0 0 0 0 
0 0 0 0 0 0 0 0 0 0 0 0 0 0 0 
0 0 0 0 0 0 0 0 0 0 0 0 0 0 0 
0 0 0 0 0 0 0 0 0 0 0 0 0 0 0 
0 0 0 34 56 76 13 105 188 45 56 66 16 104 183 
13 105 188 13 105 188 13 105 188 40 82 120 0 0 0 
0 0 0 0 0 0 0 0 0 0 0 0 17 17 17 
36 101 161 38 79 117 33 91 144 13 105 188 13 105 188 
13 105 188 31 96 155 5 5 5 0 0 0 0 0 0 
0 0 0 0 0 0 0 0 0 0 0 0 0 0 0 
0 0 0 0 0 0 0 0 0 0 0 0 0 0 0 
0 0 0 0 0 0 0 0 0 0 0 0 0 0 0 
0 0 0 0 0 0 0 0 0 0 0 0 0 0 0 
0 0 0 0 0 0 0 0 0 0 0 0 0 0 0 
0 0 0 0 0 0 0 0 0 0 0 0 0 0 0 
0 0 0 0 0 0 0 0 0 0 0 0 0 0 0 
0 0 0 0 0 0 0 0 0 0 0 0 0 0 0 
0 0 0 0 0 0 0 0 0 0 0 0 0 0 0 
0 0 0 0 0 0 0 0 0 0 0 0 0 0 0 
0 0 0 0 0 0 0 0 0 0 0 0 0 0 0 
0 0 0 0 0 0 0 0 0 0 0 0 0 0 0 
0 0 0 0 0 0 0 0 0 0 0 0 0 0 0 
0 0 0 0 0 0 0 0 0 0 0 0 0 0 0 
0 0 0 0 0 0 0 0 0 0 0 0 0 0 0 
0 0 0 0 0 0 0 0 0 39 84 124 31 101 164 
33 33 33 18 106 185 13 105 188 13 105 188 13 105 188 
30 73 111 0 0 0 0 0 0 0 0 0 0 0 0 
6 6 6 41 81 117 28 97 159 41 46 51 18 105 184 
13 105 188 13 105 188 13 105 188 37 72 104 0 0 0 
0 0 0 0 0 0 30 40 49 43 80 112 43 80 112 
43 80 112 43 80 112 43 80 112 43 80 112 49 76 100 
7 7 7 0 0 0 26 31 36 43 80 112 43 80 112 
43 80 112 43 80 112 43 80 112 57 78 97 0 0 0 
0 0 0 15 15 15 33 51 68 34 81 124 15 74 127 
30 95 155 28 79 125 36 61 84 17 17 17 47 73 95 
30 30 31 0 0 0 34 52 67 43 80 112 43 80 112 
43 80 112 43 80 112 43 80 112 43 80 112 43 80 112 
23 24 26 0 0 0 0 0 0 0 0 0 0 0 0 
22 24 26 30 58 83 32 82 127 23 80 132 34 101 161 
35 87 135 36 62 87 29 31 32 41 70 97 27 31 34 
0 0 0 0 0 0 0 0 0 0 0 0 0 0 0 
0 0 0 0 0 0 0 0 0 0 0 0 0 0 0 
0 0 0 0 0 0 0 0 0 0 0 0 0 0 0 
0 0 0 0 0 0 0 0 0 0 0 0 0 0 0 
0 0 0 0 0 0 0 0 0 0 0 0 15 15 15 
24 102 171 46 87 123 24 24 24 19 107 186 13 105 188 
13 105 188 13 105 188 22 64 102 0 0 0 0 0 0 
0 0 0 0 0 0 31 50 68 22 105 179 33 42 50 
35 64 89 13 105 188 13 105 188 13 105 188 17 103 181 
24 27 31 0 0 0 0 0 0 0 0 0 28 39 48 
34 83 127 13 105 188 13 105 188 13 105 188 24 103 174 
44 82 117 24 38 51 0 0 0 0 0 0 19 24 29 
31 77 119 17 106 186 13 105 188 28 100 165 38 75 108 
17 28 37 0 0 0 33 45 56 36 106 169 13 105 188 
33 85 131 27 42 56 24 32 39 48 81 111 14 102 182 
20 104 180 27 109 182 16 16 17 0 0 0 30 45 57 
30 78 120 13 105 187 13 105 188 13 105 188 24 106 181 
34 76 113 28 45 60 2 2 2 0 0 0 0 0 0 
23 26 28 36 80 119 20 103 178 27 103 172 42 70 97 
20 25 30 21 27 33 37 77 113 13 104 185 15 100 176 
25 100 168 8 8 8 0 0 0 0 0 0 0 0 0 
0 0 0 0 0 0 0 0 0 0 0 0 0 0 0 
0 0 0 0 0 0 0 0 0 0 0 0 0 0 0 
0 0 0 0 0 0 0 0 0 0 0 0 0 0 0 
0 0 0 0 0 0 0 0 0 0 0 0 0 0 0 
0 0 0 36 55 73 13 104 187 27 38 48 30 30 30 
21 109 188 13 105 188 13 105 188 13 105 188 14 56 94 
0 0 0 0 0 0 0 0 0 24 29 33 26 102 171 
37 63 87 6 6 6 39 97 150 13 105 188 13 105 188 
13 105 188 36 93 145 5 5 5 0 0 0 0 0 0 
0 0 0 0 0 0 36 43 49 13 105 188 13 105 188 
13 105 188 26 53 77 0 0 0 0 0 0 0 0 0 
0 0 0 0 0 0 0 0 0 38 97 150 31 106 173 
34 37 40 0 0 0 0 0 0 31 47 62 18 106 186 
13 105 188 38 74 106 0 0 0 0 0 0 0 0 0 
0 0 0 39 86 130 13 105 188 29 78 122 0 0 0 
0 0 0 0 0 0 25 29 31 15 105 187 13 105 188 
13 105 188 42 71 98 0 0 0 0 0 0 0 0 0 
0 0 0 34 50 64 28 105 175 13 105 188 32 92 146 
16 17 18 0 0 0 0 0 0 0 0 0 5 5 5 
37 92 141 13 105 188 29 74 115 0 0 0 0 0 0 
0 0 0 0 0 0 0 0 0 0 0 0 0 0 0 
0 0 0 0 0 0 0 0 0 0 0 0 0 0 0 
0 0 0 0 0 0 0 0 0 0 0 0 0 0 0 
0 0 0 0 0 0 0 0 0 0 0 0 0 0 0 
0 0 0 0 0 0 0 0 0 36 88 135 28 97 160 
3 3 3 36 36 36 23 110 190 13 105 188 13 105 188 
13 105 188 27 88 142 0 0 0 0 0 0 8 8 8 
37 97 150 38 90 136 6 6 6 27 31 35 17 104 183 
13 105 188 13 105 188 13 105 188 41 69 94 0 0 0 
0 0 0 0 0 0 0 0 0 0 0 0 32 65 94 
13 105 188 13 105 188 18 102 177 18 20 23 0 0 0 
0 0 0 0 0 0 0 0 0 0 0 0 3 3 3 
34 100 160 40 70 97 0 0 0 0 0 0 22 23 24 
27 105 176 13 105 188 15 105 187 33 33 33 0 0 0 
0 0 0 0 0 0 0 0 0 34 53 69 13 105 188 
26 45 63 0 0 0 0 0 0 0 0 0 28 55 79 
13 105 188 13 105 188 17 103 181 16 18 20 0 0 0 
0 0 0 0 0 0 47 66 84 18 104 182 13 105 188 
26 103 173 25 32 37 0 0 0 0 0 0 0 0 0 
0 0 0 0 0 0 37 66 93 13 105 188 35 51 65 
0 0 0 0 0 0 0 0 0 15 15 15 32 48 62 
21 48 72 29 64 95 22 40 56 33 35 37 0 0 0 
0 0 0 0 0 0 0 0 0 0 0 0 0 0 0 
0 0 0 0 0 0 0 0 0 0 0 0 0 0 0 
0 0 0 0 0 0 0 0 0 0 0 0 13 13 13 
21 103 177 31 71 108 0 0 0 0 0 0 13 94 167 
13 105 188 13 105 188 13 105 188 50 111 165 0 0 0 
0 0 0 39 73 104 27 99 164 22 24 25 0 0 0 
40 69 96 13 105 188 13 105 188 13 105 188 18 104 182 
27 31 34 0 0 0 0 0 0 0 0 0 0 0 0 
3 3 3 28 91 147 13 105 188 13 105 188 37 93 144 
0 0 0 0 0 0 0 0 0 0 0 0 0 0 0 
0 0 0 34 36 38 19 98 170 28 31 34 0 0 0 
0 0 0 31 63 91 13 105 188 13 105 188 14 105 187 
52 62 72 0 0 0 0 0 0 0 0 0 0 0 0 
16 23 30 23 104 177 22 22 23 0 0 0 0 0 0 
0 0 0 38 98 152 13 105 188 13 105 188 32 90 143 
1 1 1 0 0 0 0 0 0 26 35 44 19 104 181 
13 105 188 13 105 188 35 56 74 0 0 0 0 0 0 
0 0 0 0 0 0 0 0 0 0 0 0 19 33 46 
25 100 167 19 19 19 0 0 0 22 24 26 40 76 109 
26 103 173 35 74 110 24 63 98 25 102 172 13 105 188 
14 105 186 44 86 124 6 6 6 0 0 0 0 0 0 
0 0 0 0 0 0 0 0 0 0 0 0 0 0 0 
0 0 0 0 0 0 0 0 0 0 0 0 0 0 0 
0 0 0 32 55 75 13 105 188 32 42 52 0 0 0 
0 0 0 19 88 151 13 105 188 13 105 188 13 105 188 
41 102 157 0 0 0 41 55 69 20 102 175 39 50 61 
0 0 0 5 5 5 34 92 145 13 105 188 13 105 188 
13 105 188 40 97 149 5 5 5 0 0 0 0 0 0 
0 0 0 0 0 0 35 39 43 15 103 182 13 105 188 
13 105 188 27 50 71 0 0 0 0 0 0 0 0 0 
0 0 0 0 0 0 0 0 0 36 66 93 34 93 146 
0 0 0 0 0 0 0 0 0 50 107 159 13 105 188 
13 105 188 13 105 188 20 104 180 49 93 132 31 38 45 
0 0 0 0 0 0 12 12 12 38 50 60 0 0 0 
0 0 0 0 0 0 22 25 28 15 102 180 13 105 188 
13 105 188 34 63 89 0 0 0 0 0 0 17 17 17 
34 103 166 13 105 188 13 105 188 36 100 158 15 15 15 
0 0 0 0 0 0 0 0 0 0 0 0 0 0 0 
0 0 0 9 15 21 23 54 82 0 0 0 17 20 24 
24 96 160 13 105 188 15 87 152 0 0 0 0 0 0 
41 68 91 13 105 188 13 105 188 13 105 188 16 31 45 
0 0 0 0 0 0 0 0 0 0 0 0 0 0 0 
0 0 0 0 0 0 0 0 0 0 0 0 0 0 0 
0 0 0 0 0 0 0 0 0 31 83 130 32 101 164 
3 3 3 0 0 0 0 0 0 26 96 158 13 105 188 
13 105 188 13 105 188 32 93 148 20 22 25 22 94 159 
39 72 101 0 0 0 0 0 0 23 28 32 16 104 182 
13 105 188 13 105 188 13 105 188 26 54 78 0 0 0 
0 0 0 0 0 0 0 0 0 0 0 0 37 70 100 
13 105 188 13 105 188 20 103 178 21 23 25 0 0 0 
0 0 0 0 0 0 0 0 0 0 0 0 4 4 4 
42 101 154 25 51 74 0 0 0 0 0 0 0 0 0 
38 82 121 13 105 188 13 105 188 13 105 188 13 105 188 
13 105 188 13 105 188 35 100 160 40 62 82 10 10 10 
0 0 0 0 0 0 0 0 0 0 0 0 23 51 75 
13 105 188 13 105 188 19 105 182 18 20 22 0 0 0 
0 0 0 39 68 94 13 105 188 13 105 188 13 105 188 
32 59 84 0 0 0 0 0 0 0 0 0 0 0 0 
0 0 0 0 0 0 0 0 0 0 0 0 0 0 0 
0 0 0 29 75 117 13 105 188 13 105 188 40 94 142 
0 0 0 0 0 0 35 65 92 13 105 188 13 105 188 
13 104 185 25 35 43 0 0 0 0 0 0 0 0 0 
0 0 0 0 0 0 0 0 0 0 0 0 0 0 0 
0 0 0 0 0 0 0 0 0 0 0 0 21 21 21 
19 101 175 35 68 97 0 0 0 0 0 0 0 0 0 
33 103 166 13 105 188 13 105 188 13 105 188 29 90 145 
42 95 143 32 86 135 13 13 13 0 0 0 0 0 0 
37 73 107 13 105 188 13 105 188 13 105 188 20 106 184 
20 23 27 0 0 0 0 0 0 0 0 0 0 0 0 
7 7 7 39 102 158 13 105 188 13 105 188 41 93 140 
0 0 0 0 0 0 0 0 0 0 0 0 0 0 0 
0 0 0 30 32 35 19 99 170 22 25 27 0 0 0 
0 0 0 0 0 0 25 29 34 29 100 165 13 105 188 
13 105 188 13 105 188 13 105 188 13 105 188 13 105 188 
13 105 188 52 85 115 0 0 0 0 0 0 0 0 0 
0 0 0 43 104 158 13 105 188 13 105 188 36 94 146 
1 1 1 0 0 0 7 7 7 33 99 158 13 105 188 
13 105 188 17 102 177 22 24 26 0 0 0 0 0 0 
0 0 0 0 0 0 0 0 0 0 0 0 0 0 0 
0 0 0 0 0 0 0 0 0 39 82 121 13 105 188 
32 101 162 32 39 46 0 0 0 13 13 13 34 101 161 
13 105 188 13 105 188 27 98 162 8 8 8 0 0 0 
0 0 0 0 0 0 0 0 0 0 0 0 0 0 0 
0 0 0 0 0 0 0 0 0 0 0 0 0 0 0 
0 0 0 37 61 81 13 102 182 36 42 48 0 0 0 
0 0 0 0 0 0 41 110 173 13 105 188 13 105 188 
13 105 188 14 100 177 25 102 170 27 33 39 0 0 0 
0 0 0 5 5 5 31 97 157 13 105 188 13 105 188 
13 105 188 30 87 138 0 0 0 0 0 0 0 0 0 
0 0 0 0 0 0 30 35 39 15 102 181 13 105 188 
13 105 188 31 50 67 0 0 0 0 0 0 0 0 0 
0 0 0 0 0 0 0 0 0 31 62 88 39 98 151 
0 0 0 0 0 0 0 0 0 0 0 0 0 0 0 
28 28 29 33 64 91 32 99 159 13 105 188 13 105 188 
13 105 188 13 105 188 13 105 188 20 101 174 18 19 19 
0 0 0 0 0 0 37 41 44 15 102 180 13 105 188 
13 105 188 37 58 78 0 0 0 0 0 0 23 29 34 
15 104 185 13 105 188 13 105 188 36 99 157 2 2 2 
0 0 0 0 0 0 0 0 0 0 0 0 0 0 0 
0 0 0 0 0 0 0 0 0 0 0 0 0 0 0 
12 12 12 23 24 24 13 13 13 0 0 0 13 13 13 
52 97 138 13 105 188 13 105 188 23 97 163 39 48 55 
0 0 0 0 0 0 0 0 0 0 0 0 0 0 0 
0 0 0 0 0 0 0 0 0 0 0 0 0 0 0 
0 0 0 0 0 0 0 0 0 46 98 146 33 102 164 
3 3 3 0 0 0 0 0 0 0 0 0 48 118 180 
13 105 188 13 105 188 13 105 188 15 104 185 32 48 63 
0 0 0 0 0 0 0 0 0 20 26 32 15 104 185 
13 105 188 13 105 188 13 105 188 31 58 82 0 0 0 
0 0 0 0 0 0 0 0 0 0 0 0 33 67 97 
13 105 188 13 105 188 21 102 176 22 22 22 0 0 0 
0 0 0 0 0 0 0 0 0 0 0 0 3 3 3 
36 103 163 30 56 79 0 0 0 0 0 0 25 53 77 
15 28 39 0 0 0 0 0 0 0 0 0 1 1 1 
32 40 48 34 86 134 13 105 188 13 105 188 13 105 188 
19 101 174 19 19 20 0 0 0 0 0 0 39 67 92 
13 105 188 13 105 188 20 103 177 20 21 22 0 0 0 
0 0 0 14 32 48 13 105 188 13 105 188 13 105 188 
22 64 102 0 0 0 0 0 0 0 0 0 0 0 0 
0 0 0 0 0 0 0 0 0 0 0 0 0 0 0 
0 0 0 0 0 0 0 0 0 0 0 0 13 13 13 
24 43 59 33 96 154 13 105 188 33 99 160 38 72 103 
18 20 22 0 0 0 0 0 0 0 0 0 0 0 0 
0 0 0 0 0 0 0 0 0 0 0 0 0 0 0 
0 0 0 0 0 0 0 0 0 0 0 0 28 31 34 
17 103 181 32 75 114 0 0 0 0 0 0 0 0 0 
0 0 0 56 125 188 13 105 188 13 105 188 13 105 188 
48 82 114 3 3 3 0 0 0 0 0 0 0 0 0 
32 69 102 13 105 188 13 105 188 13 105 188 21 107 185 
23 27 30 0 0 0 0 0 0 0 0 0 0 0 0 
0 0 0 30 89 143 13 105 188 13 105 188 35 91 141 
0 0 0 0 0 0 0 0 0 0 0 0 0 0 0 
0 0 0 43 54 64 29 99 163 23 23 23 0 0 0 
3 3 3 26 96 158 32 66 96 0 0 0 0 0 0 
0 0 0 0 0 0 0 0 0 10 10 10 30 93 150 
13 105 188 13 105 188 42 94 141 0 0 0 0 0 0 
0 0 0 38 99 155 13 105 188 13 105 188 39 90 135 
1 1 1 0 0 0 0 0 0 9 35 58 13 105 188 
13 105 188 13 105 188 44 86 123 0 0 0 0 0 0 
0 0 0 0 0 0 0 0 0 0 0 0 0 0 0 
34 47 59 23 24 26 0 0 0 0 0 0 12 12 12 
38 56 73 48 97 142 31 81 126 31 59 84 30 36 42 
5 5 6 0 0 0 0 0 0 0 0 0 0 0 0 
0 0 0 0 0 0 0 0 0 0 0 0 0 0 0 
0 0 0 0 0 0 0 0 0 0 0 0 0 0 0 
0 0 0 43 85 123 13 105 188 24 59 92 0 0 0 
0 0 0 0 0 0 0 0 0 11 76 136 13 105 188 
13 105 188 36 99 156 11 13 14 0 0 0 0 0 0 
0 0 0 10 10 10 30 97 156 13 105 188 13 105 188 
13 105 188 34 86 133 0 0 0 0 0 0 0 0 0 
0 0 0 0 0 0 0 0 0 14 80 141 13 105 188 
13 105 188 29 78 121 0 0 0 0 0 0 0 0 0 
0 0 0 0 0 0 26 27 28 29 94 154 37 59 79 
0 0 0 0 0 0 32 42 52 13 105 188 45 97 144 
0 0 0 0 0 0 0 0 0 0 0 0 0 0 0 
8 8 8 23 93 157 13 105 188 17 106 185 31 42 53 
0 0 0 0 0 0 34 37 40 14 101 180 13 105 188 
13 105 188 41 62 81 0 0 0 0 0 0 0 0 0 
29 38 46 14 104 186 13 105 188 13 105 188 40 86 127 
0 0 0 0 0 0 0 0 0 0 0 0 0 0 0 
6 6 6 42 70 96 41 96 145 19 21 22 0 0 0 
38 53 66 38 99 154 66 106 142 43 62 78 34 53 69 
34 53 69 34 53 69 34 53 69 34 53 69 37 54 69 
9 9 9 0 0 0 0 0 0 0 0 0 0 0 0 
0 0 0 0 0 0 0 0 0 0 0 0 0 0 0 
0 0 0 15 15 15 50 75 97 14 102 181 13 105 188 
37 87 133 14 14 14 0 0 0 0 0 0 0 0 0 
14 65 111 13 105 188 18 98 171 25 31 36 0 0 0 
0 0 0 0 0 0 5 5 5 39 63 85 14 104 186 
13 105 188 13 105 188 13 105 188 48 97 141 4 4 4 
0 0 0 0 0 0 0 0 0 0 0 0 0 0 0 
41 96 147 13 105 188 13 105 188 33 105 169 19 21 23 
0 0 0 0 0 0 0 0 0 34 39 44 40 100 155 
51 84 114 8 8 8 0 0 0 0 0 0 36 69 99 
13 105 188 16 102 180 41 50 59 0 0 0 0 0 0 
0 0 0 0 0 0 37 64 88 13 105 188 15 103 183 
59 81 101 0 0 0 0 0 0 0 0 0 38 70 98 
13 105 188 13 105 188 16 98 173 22 23 24 0 0 0 
0 0 0 0 0 0 7 7 7 39 94 144 13 105 188 
13 105 188 21 101 173 35 40 45 0 0 0 0 0 0 
0 0 0 23 29 34 41 88 130 40 95 146 25 26 28 
5 5 5 45 86 123 15 105 186 13 105 188 13 105 188 
13 105 188 13 105 188 13 105 188 13 105 188 13 105 188 
13 105 188 35 94 148 6 6 6 5 5 5 0 0 0 
0 0 0 0 0 0 0 0 0 0 0 0 0 0 0 
0 0 0 25 35 44 29 84 134 31 107 176 13 105 188 
13 105 188 13 105 188 13 105 188 28 110 183 47 79 108 
0 0 0 0 0 0 19 70 116 13 102 183 46 69 89 
0 0 0 0 0 0 49 68 85 32 87 136 37 111 178 
13 105 188 13 105 188 13 105 188 13 105 188 13 105 188 
13 103 184 37 101 158 49 72 94 0 0 0 0 0 0 
0 0 0 0 0 0 21 28 35 26 100 168 13 105 188 
13 105 188 24 99 166 31 77 119 17 55 90 41 97 147 
32 101 164 33 56 76 7 7 7 0 0 0 0 0 0 
4 4 4 38 104 164 28 98 161 14 103 183 29 108 180 
35 60 83 43 62 78 37 55 72 34 82 125 13 101 181 
30 100 163 38 48 58 0 0 0 16 16 16 17 42 65 
40 80 116 20 101 173 13 105 188 13 105 188 13 101 181 
37 81 122 40 52 63 0 0 0 0 0 0 0 0 0 
27 30 32 39 102 159 13 105 188 13 105 188 22 104 178 
39 95 146 35 90 140 37 98 153 30 105 173 48 78 105 
13 13 13 0 0 0 27 33 39 15 104 184 13 105 188 
13 105 188 13 105 188 13 105 188 13 105 188 13 105 188 
13 105 188 13 105 188 13 105 188 44 74 100 51 51 51 
19 19 19 0 0 0 0 0 0 0 0 0 0 0 0 
0 0 0 0 0 0 0 0 0 15 30 43 5 42 76 
5 42 76 5 42 76 5 42 76 5 42 76 5 42 76 
5 42 76 17 33 48 0 0 0 0 0 0 20 20 20 
27 28 28 2 2 2 0 0 0 0 0 0 14 34 52 
5 42 76 5 42 76 5 42 76 5 42 76 5 42 76 
5 42 76 5 42 76 5 42 76 5 42 76 12 23 33 
0 0 0 0 0 0 0 0 0 0 0 0 0 0 0 
28 30 31 26 57 86 34 87 135 18 74 123 22 77 127 
39 86 127 36 60 81 16 16 16 0 0 0 0 0 0 
0 0 0 0 0 0 8 9 10 11 36 59 14 14 14 
29 37 44 37 72 102 32 87 137 18 74 123 32 87 137 
37 77 113 32 46 59 7 7 7 0 0 0 0 0 0 
14 14 14 5 42 76 5 42 76 5 42 76 5 42 76 
5 42 76 5 42 76 5 42 76 11 27 42 0 0 0 
0 0 0 0 0 0 0 0 0 13 13 13 30 50 69 
38 85 128 24 79 129 23 79 128 34 83 128 33 60 85 
13 14 16 0 0 0 0 0 0 0 0 0 13 24 35 
5 42 76 5 42 76 5 42 76 5 42 76 5 42 76 
5 42 76 5 42 76 5 42 76 5 42 76 5 42 76 
11 16 20 5 5 5 0 0 0 0 0 0 0 0 0 
0 0 0 0 0 0 0 0 0 0 0 0 0 0 0 
0 0 0 0 0 0 0 0 0 0 0 0 0 0 0 
0 0 0 0 0 0 0 0 0 0 0 0 0 0 0 
0 0 0 0 0 0 0 0 0 0 0 0 0 0 0 
0 0 0 0 0 0 0 0 0 0 0 0 0 0 0 
0 0 0 0 0 0 0 0 0 0 0 0 0 0 0 
0 0 0 0 0 0 0 0 0 0 0 0 0 0 0 
0 0 0 0 0 0 0 0 0 0 0 0 0 0 0 
0 0 0 0 0 0 0 0 0 0 0 0 0 0 0 
0 0 0 0 0 0 0 0 0 0 0 0 0 0 0 
0 0 0 0 0 0 0 0 0 0 0 0 0 0 0 
0 0 0 0 0 0 0 0 0 0 0 0 0 0 0 
0 0 0 0 0 0 0 0 0 0 0 0 0 0 0 
0 0 0 0 0 0 0 0 0 0 0 0 0 0 0 
0 0 0 0 0 0 0 0 0 0 0 0 0 0 0 
0 0 0 0 0 0 0 0 0 0 0 0 0 0 0 
0 0 0 0 0 0 0 0 0 0 0 0 0 0 0 
0 0 0 0 0 0 0 0 0 0 0 0 0 0 0 
0 0 0 0 0 0 0 0 0 0 0 0 0 0 0 
0 0 0 0 0 0 0 0 0 0 0 0 0 0 0 
0 0 0 0 0 0 0 0 0 0 0 0 0 0 0 
0 0 0 0 0 0 0 0 0 0 0 0 0 0 0 
0 0 0 0 0 0 0 0 0 0 0 0 0 0 0 
0 0 0 0 0 0 0 0 0 0 0 0 0 0 0 
0 0 0 0 0 0 0 0 0 0 0 0 0 0 0 
0 0 0 0 0 0 0 0 0 0 0 0 0 0 0 
0 0 0 0 0 0 0 0 0 0 0 0 0 0 0 
0 0 0 0 0 0 0 0 0 0 0 0 0 0 0 
0 0 0 0 0 0 0 0 0 0 0 0 0 0 0 
0 0 0 0 0 0 0 0 0 0 0 0 0 0 0 
0 0 0 0 0 0 0 0 0 0 0 0 0 0 0 
0 0 0 0 0 0 0 0 0 0 0 0 0 0 0 
0 0 0 0 0 0 0 0 0 0 0 0 0 0 0 
0 0 0 0 0 0 0 0 0 0 0 0 0 0 0 
0 0 0 0 0 0 0 0 0 0 0 0 0 0 0 
0 0 0 0 0 0 0 0 0 0 0 0 0 0 0 
0 0 0 0 0 0 0 0 0 0 0 0 0 0 0 
0 0 0 0 0 0 0 0 0 0 0 0 0 0 0 
0 0 0 0 0 0 0 0 0 0 0 0 0 0 0 
0 0 0 0 0 0 0 0 0 0 0 0 0 0 0 
0 0 0 0 0 0 0 0 0 0 0 0 0 0 0 
0 0 0 0 0 0 0 0 0 0 0 0 0 0 0 
0 0 0 0 0 0 0 0 0 0 0 0 0 0 0 
0 0 0 0 0 0 0 0 0 0 0 0 0 0 0 
0 0 0 0 0 0 0 0 0 0 0 0 0 0 0 
0 0 0 0 0 0 0 0 0 0 0 0 0 0 0 
0 0 0 0 0 0 0 0 0 0 0 0 0 0 0 
0 0 0 0 0 0 0 0 0 0 0 0 0 0 0 
0 0 0 0 0 0 0 0 0 0 0 0 0 0 0 
0 0 0 0 0 0 0 0 0 0 0 0 0 0 0 
0 0 0 0 0 0 0 0 0 0 0 0 0 0 0 
0 0 0 0 0 0 0 0 0 0 0 0 0 0 0 
0 0 0 0 0 0 0 0 0 0 0 0 0 0 0 
0 0 0 0 0 0 0 0 0 0 0 0 0 0 0 
0 0 0 0 0 0 0 0 0 0 0 0 0 0 0 
0 0 0 0 0 0 0 0 0 0 0 0 0 0 0 
0 0 0 0 0 0 0 0 0 0 0 0 0 0 0 
0 0 0 0 0 0 0 0 0 0 0 0 0 0 0 
0 0 0 0 0 0 0 0 0 0 0 0 0 0 0 
0 0 0 0 0 0 0 0 0 0 0 0 0 0 0 
0 0 0 0 0 0 0 0 0 0 0 0 0 0 0 
0 0 0 0 0 0 0 0 0 0 0 0 0 0 0 
0 0 0 0 0 0 0 0 0 0 0 0 0 0 0 
0 0 0 0 0 0 0 0 0 0 0 0 0 0 0 
0 0 0 0 0 0 0 0 0 0 0 0 0 0 0 
0 0 0 0 0 0 0 0 0 0 0 0 0 0 0 
0 0 0 0 0 0 0 0 0 0 0 0 0 0 0 
0 0 0 0 0 0 0 0 0 0 0 0 0 0 0 
0 0 0 0 0 0 0 0 0 0 0 0 0 0 0 
0 0 0 0 0 0 0 0 0 0 0 0 0 0 0 
0 0 0 0 0 0 0 0 0 0 0 0 0 0 0 
0 0 0 0 0 0 0 0 0 0 0 0 0 0 0 
0 0 0 0 0 0 0 0 0 0 0 0 0 0 0 
0 0 0 0 0 0 0 0 0 0 0 0 0 0 0 
0 0 0 0 0 0 0 0 0 0 0 0 0 0 0 
0 0 0 0 0 0 0 0 0 0 0 0 0 0 0 
0 0 0 0 0 0 0 0 0 0 0 0 0 0 0 
0 0 0 0 0 0 0 0 0 0 0 0 0 0 0 
0 0 0 0 0 0 0 0 0 0 0 0 0 0 0 
0 0 0 0 0 0 0 0 0 0 0 0 0 0 0 
0 0 0 0 0 0 0 0 0 0 0 0 0 0 0 
0 0 0 0 0 0 0 0 0 0 0 0 0 0 0 
0 0 0 0 0 0 0 0 0 0 0 0 0 0 0 
0 0 0 0 0 0 0 0 0 0 0 0 0 0 0 
0 0 0 0 0 0 0 0 0 0 0 0 0 0 0 
0 0 0 0 0 0 0 0 0 0 0 0 0 0 0 
0 0 0 0 0 0 0 0 0 0 0 0 0 0 0 
0 0 0 0 0 0 0 0 0 0 0 0 0 0 0 
0 0 0 0 0 0 0 0 0 0 0 0 0 0 0 
0 0 0 0 0 0 0 0 0 0 0 0 0 0 0 
0 0 0 0 0 0 0 0 0 0 0 0 0 0 0 
0 0 0 0 0 0 0 0 0 0 0 0 0 0 0 
0 0 0 0 0 0 0 0 0 0 0 0 0 0 0 
0 0 0 0 0 0 0 0 0 0 0 0 0 0 0 
0 0 0 0 0 0 0 0 0 0 0 0 0 0 0 
0 0 0 0 0 0 0 0 0 0 0 0 0 0 0 
0 0 0 0 0 0 0 0 0 0 0 0 0 0 0 
0 0 0 0 0 0 0 0 0 0 0 0 0 0 0 
0 0 0 0 0 0 0 0 0 0 0 0 0 0 0 
0 0 0 0 0 0 0 0 0 0 0 0 0 0 0 
0 0 0 0 0 0 0 0 0 0 0 0 0 0 0 
0 0 0 0 0 0 0 0 0 0 0 0 0 0 0 
0 0 0 0 0 0 0 0 0 0 0 0 0 0 0 
0 0 0 0 0 0 0 0 0 0 0 0 0 0 0 
0 0 0 0 0 0 0 0 0 0 0 0 0 0 0 
0 0 0 0 0 0 0 0 0 0 0 0 0 0 0 
0 0 0 0 0 0 0 0 0 0 0 0 0 0 0 
0 0 0 0 0 0 0 0 0 0 0 0 0 0 0 
0 0 0 0 0 0 0 0 0 0 0 0 0 0 0 
0 0 0 0 0 0 0 0 0 0 0 0 0 0 0 
0 0 0 0 0 0 0 0 0 0 0 0 0 0 0 
0 0 0 0 0 0 0 0 0 0 0 0 0 0 0 
0 0 0 0 0 0 0 0 0 0 0 0 0 0 0 
0 0 0 0 0 0 0 0 0 0 0 0 0 0 0 
0 0 0 0 0 0 0 0 0 0 0 0 0 0 0 
0 0 0 0 0 0 0 0 0 0 0 0 0 0 0 
0 0 0 0 0 0 0 0 0 0 0 0 0 0 0 
0 0 0 0 0 0 0 0 0 0 0 0 0 0 0 
0 0 0 0 0 0 0 0 0 0 0 0 0 0 0 
0 0 0 0 0 0 0 0 0 0 0 0 0 0 0 
0 0 0 0 0 0 0 0 0 0 0 0 0 0 0 
0 0 0 0 0 0 0 0 0 0 0 0 0 0 0 
0 0 0 0 0 0 0 0 0 0 0 0 0 0 0 
