P3
# Created by IrfanView
113 30
255
0 0 0 0 0 0 0 0 0 0 0 0 0 0 0 
0 0 0 0 0 0 0 0 0 0 0 0 0 0 0 
0 0 0 0 0 0 0 0 0 0 0 0 0 0 0 
0 0 0 0 0 0 0 0 0 0 0 0 0 0 0 
0 0 0 0 0 0 0 0 0 0 0 0 0 0 0 
0 0 0 0 0 0 0 0 0 0 0 0 0 0 0 
0 0 0 0 0 0 0 0 0 0 0 0 0 0 0 
0 0 0 0 0 0 0 0 0 0 0 0 0 0 0 
0 0 0 0 0 0 0 0 0 0 0 0 0 0 0 
0 0 0 0 0 0 0 0 0 0 0 0 0 0 0 
0 0 0 0 0 0 0 0 0 0 0 0 0 0 0 
0 0 0 0 0 0 0 0 0 0 0 0 0 0 0 
0 0 0 0 0 0 0 0 0 0 0 0 0 0 0 
0 0 0 0 0 0 0 0 0 0 0 0 0 0 0 
0 0 0 0 0 0 0 0 0 0 0 0 0 0 0 
0 0 0 0 0 0 0 0 0 0 0 0 0 0 0 
0 0 0 0 0 0 0 0 0 0 0 0 0 0 0 
0 0 0 0 0 0 0 0 0 0 0 0 0 0 0 
0 0 0 0 0 0 0 0 0 0 0 0 0 0 0 
0 0 0 0 0 0 0 0 0 0 0 0 0 0 0 
0 0 0 0 0 0 0 0 0 0 0 0 0 0 0 
0 0 0 0 0 0 0 0 0 0 0 0 0 0 0 
0 0 0 0 0 0 0 0 0 0 0 0 0 0 0 
0 0 0 0 0 0 0 0 0 0 0 0 0 0 0 
0 0 0 0 0 0 0 0 0 0 0 0 0 0 0 
0 0 0 0 0 0 0 0 0 0 0 0 0 0 0 
0 0 0 0 0 0 0 0 0 0 0 0 0 0 0 
0 0 0 0 0 0 0 0 0 0 0 0 0 0 0 
0 0 0 0 0 0 0 0 0 0 0 0 0 0 0 
0 0 0 0 0 0 0 0 0 0 0 0 0 0 0 
0 0 0 0 0 0 0 0 0 0 0 0 0 0 0 
0 0 0 0 0 0 0 0 0 0 0 0 0 0 0 
0 0 0 0 0 0 0 0 0 0 0 0 0 0 0 
0 0 0 0 0 0 0 0 0 0 0 0 0 0 0 
0 0 0 0 0 0 0 0 0 0 0 0 0 0 0 
0 0 0 0 0 0 0 0 0 0 0 0 0 0 0 
0 0 0 0 0 0 0 0 0 0 0 0 0 0 0 
0 0 0 0 0 0 0 0 0 0 0 0 0 0 0 
0 0 0 0 0 0 0 0 0 0 0 0 0 0 0 
0 0 0 0 0 0 0 0 0 0 0 0 0 0 0 
0 0 0 0 0 0 0 0 0 0 0 0 0 0 0 
0 0 0 0 0 0 0 0 0 0 0 0 0 0 0 
0 0 0 0 0 0 0 0 0 0 0 0 0 0 0 
0 0 0 0 0 0 0 0 0 0 0 0 0 0 0 
0 0 0 0 0 0 0 0 0 0 0 0 0 0 0 
0 0 0 0 0 0 0 0 0 0 0 0 0 0 0 
0 0 0 0 0 0 0 0 0 10 10 10 58 98 132 
57 102 141 57 102 141 57 102 141 57 102 141 57 102 141 
57 102 141 57 102 141 57 102 141 55 83 108 0 0 0 
0 0 0 0 0 0 0 0 0 0 0 0 0 0 0 
0 0 0 0 0 0 0 0 0 15 16 18 59 100 136 
57 102 141 57 102 141 57 102 141 57 102 141 57 102 141 
57 102 141 57 102 141 57 102 141 47 56 64 0 0 0 
0 0 0 0 0 0 0 0 0 0 0 0 0 0 0 
0 0 0 0 0 0 0 0 0 0 0 0 0 0 0 
0 0 0 0 0 0 0 0 0 0 0 0 0 0 0 
0 0 0 0 0 0 0 0 0 0 0 0 0 0 0 
0 0 0 0 0 0 0 0 0 0 0 0 0 0 0 
0 0 0 0 0 0 0 0 0 0 0 0 0 0 0 
0 0 0 0 0 0 0 0 0 0 0 0 0 0 0 
0 0 0 0 0 0 0 0 0 0 0 0 0 0 0 
0 0 0 0 0 0 0 0 0 0 0 0 0 0 0 
0 0 0 0 0 0 0 0 0 0 0 0 0 0 0 
0 0 0 0 0 0 0 0 0 0 0 0 0 0 0 
0 0 0 0 0 0 0 0 0 0 0 0 0 0 0 
0 0 0 0 0 0 0 0 0 0 0 0 0 0 0 
0 0 0 0 0 0 0 0 0 0 0 0 0 0 0 
0 0 0 0 0 0 0 0 0 0 0 0 0 0 0 
0 0 0 0 0 0 0 0 0 0 0 0 0 0 0 
0 0 0 29 33 37 40 101 156 21 103 178 13 105 188 
13 105 188 13 105 188 13 105 188 13 105 188 13 105 188 
13 105 188 14 75 129 0 0 0 0 0 0 0 0 0 
0 0 0 0 0 0 0 0 0 0 0 0 0 0 0 
0 0 0 49 81 110 13 105 188 13 105 188 13 105 188 
13 105 188 13 105 188 13 105 188 16 104 183 31 98 158 
50 108 161 21 25 28 0 0 0 0 0 0 0 0 0 
0 0 0 0 0 0 0 0 0 0 0 0 0 0 0 
0 0 0 0 0 0 0 0 0 0 0 0 0 0 0 
0 0 0 0 0 0 0 0 0 0 0 0 0 0 0 
0 0 0 0 0 0 0 0 0 0 0 0 0 0 0 
0 0 0 0 0 0 0 0 0 0 0 0 0 0 0 
0 0 0 0 0 0 0 0 0 0 0 0 0 0 0 
0 0 0 0 0 0 0 0 0 0 0 0 0 0 0 
0 0 0 0 0 0 0 0 0 0 0 0 0 0 0 
0 0 0 0 0 0 0 0 0 0 0 0 0 0 0 
0 0 0 0 0 0 0 0 0 0 0 0 0 0 0 
0 0 0 0 0 0 0 0 0 0 0 0 0 0 0 
0 0 0 0 0 0 0 0 0 0 0 0 0 0 0 
0 0 0 0 0 0 0 0 0 0 0 0 0 0 0 
0 0 0 0 0 0 0 0 0 0 0 0 0 0 0 
0 0 0 0 0 0 0 0 0 0 0 0 0 0 0 
0 0 0 0 0 0 0 0 0 0 0 0 0 0 0 
2 2 2 40 48 55 24 103 174 13 105 188 24 88 147 
13 105 188 13 105 188 13 105 188 13 105 188 24 103 175 
9 9 9 0 0 0 0 0 0 0 0 0 0 0 0 
0 0 0 0 0 0 0 0 0 35 38 42 22 105 180 
16 95 166 13 105 188 13 105 188 13 105 188 13 105 188 
26 103 172 37 46 55 13 13 13 0 0 0 0 0 0 
0 0 0 0 0 0 0 0 0 0 0 0 0 0 0 
0 0 0 0 0 0 0 0 0 0 0 0 0 0 0 
0 0 0 0 0 0 0 0 0 0 0 0 0 0 0 
0 0 0 0 0 0 0 0 0 0 0 0 0 0 0 
0 0 0 0 0 0 0 0 0 0 0 0 0 0 0 
0 0 0 0 0 0 0 0 0 0 0 0 0 0 0 
0 0 0 0 0 0 0 0 0 0 0 0 0 0 0 
0 0 0 0 0 0 0 0 0 0 0 0 0 0 0 
0 0 0 0 0 0 0 0 0 0 0 0 0 0 0 
0 0 0 0 0 0 0 0 0 0 0 0 0 0 0 
0 0 0 0 0 0 0 0 0 0 0 0 0 0 0 
0 0 0 0 0 0 0 0 0 0 0 0 0 0 0 
0 0 0 0 0 0 0 0 0 0 0 0 0 0 0 
0 0 0 0 0 0 0 0 0 0 0 0 0 0 0 
0 0 0 0 0 0 0 0 0 0 0 0 0 0 0 
0 0 0 0 0 0 0 0 0 0 0 0 0 0 0 
0 0 0 0 0 0 0 0 0 0 0 0 0 0 0 
56 119 177 13 103 184 55 81 105 13 105 188 13 105 188 
13 105 188 13 105 188 39 119 190 19 19 19 0 0 0 
0 0 0 0 0 0 0 0 0 0 0 0 0 0 0 
12 12 13 40 96 147 41 110 173 53 114 170 13 105 188 
13 105 188 13 105 188 13 105 188 41 72 99 0 0 0 
0 0 0 0 0 0 0 0 0 0 0 0 0 0 0 
0 0 0 0 0 0 0 0 0 0 0 0 0 0 0 
0 0 0 0 0 0 0 0 0 0 0 0 0 0 0 
0 0 0 0 0 0 0 0 0 0 0 0 0 0 0 
0 0 0 0 0 0 0 0 0 0 0 0 0 0 0 
0 0 0 0 0 0 0 0 0 0 0 0 0 0 0 
0 0 0 0 0 0 0 0 0 0 0 0 0 0 0 
0 0 0 0 0 0 0 0 0 0 0 0 0 0 0 
0 0 0 0 0 0 0 0 0 0 0 0 0 0 0 
0 0 0 0 0 0 0 0 0 0 0 0 0 0 0 
0 0 0 0 0 0 0 0 0 0 0 0 0 0 0 
0 0 0 0 0 0 0 0 0 0 0 0 0 0 0 
0 0 0 0 0 0 0 0 0 0 0 0 0 0 0 
0 0 0 0 0 0 0 0 0 0 0 0 0 0 0 
0 0 0 0 0 0 0 0 0 0 0 0 0 0 0 
0 0 0 0 0 0 0 0 0 0 0 0 0 0 0 
0 0 0 0 0 0 0 0 0 0 0 0 0 0 0 
0 0 0 0 0 0 12 12 12 33 105 169 30 102 166 
36 52 66 13 105 188 13 105 188 13 105 188 13 105 188 
34 114 185 15 15 15 0 0 0 0 0 0 0 0 0 
0 0 0 0 0 0 1 1 1 54 85 113 18 101 175 
56 69 81 17 103 180 13 105 188 13 105 188 13 105 188 
16 104 183 28 32 35 0 0 0 0 0 0 0 0 0 
0 0 0 0 0 0 0 0 0 0 0 0 0 0 0 
0 0 0 0 0 0 0 0 0 0 0 0 0 0 0 
0 0 0 0 0 0 0 0 0 0 0 0 0 0 0 
0 0 0 0 0 0 0 0 0 0 0 0 0 0 0 
0 0 0 0 0 0 0 0 0 0 0 0 0 0 0 
0 0 0 0 0 0 0 0 0 0 0 0 0 0 0 
0 0 0 0 0 0 0 0 0 0 0 0 0 0 0 
0 0 0 0 0 0 0 0 0 0 0 0 0 0 0 
0 0 0 0 0 0 0 0 0 0 0 0 0 0 0 
0 0 0 0 0 0 0 0 0 0 0 0 0 0 0 
0 0 0 0 0 0 0 0 0 0 0 0 0 0 0 
0 0 0 0 0 0 0 0 0 0 0 0 0 0 0 
0 0 0 0 0 0 0 0 0 0 0 0 0 0 0 
0 0 0 0 0 0 0 0 0 0 0 0 0 0 0 
0 0 0 0 0 0 0 0 0 0 0 0 0 0 0 
0 0 0 0 0 0 0 0 0 0 0 0 0 0 0 
0 0 0 0 0 0 0 0 0 0 0 0 0 0 0 
32 38 44 15 103 183 50 89 124 28 44 59 13 105 188 
13 105 188 13 105 188 13 105 188 29 108 180 12 12 12 
0 0 0 0 0 0 0 0 0 0 0 0 0 0 0 
39 51 61 17 101 177 52 81 106 32 62 88 13 105 188 
13 105 188 13 105 188 13 105 188 39 99 152 0 0 0 
0 0 0 0 0 0 0 0 0 40 49 57 47 66 84 
47 66 84 47 66 84 47 66 84 47 66 84 47 66 84 
47 66 84 50 61 71 2 2 2 0 0 0 11 11 11 
47 61 75 47 66 84 47 66 84 47 66 84 47 66 84 
47 66 84 55 67 79 12 12 12 0 0 0 0 0 0 
10 10 10 34 45 54 37 75 109 14 60 102 33 87 136 
31 72 109 31 46 60 14 14 14 25 25 25 51 64 76 
17 17 17 0 0 0 27 34 39 47 66 84 47 66 84 
47 66 84 47 66 84 47 66 84 47 66 84 47 66 84 
47 66 84 23 26 29 0 0 0 0 0 0 0 0 0 
0 0 0 0 0 0 8 8 8 31 41 51 33 66 95 
23 63 100 46 103 154 16 60 99 42 73 100 36 40 44 
10 10 10 42 56 69 27 30 34 0 0 0 0 0 0 
0 0 0 0 0 0 0 0 0 0 0 0 0 0 0 
0 0 0 0 0 0 0 0 0 0 0 0 0 0 0 
0 0 0 0 0 0 0 0 0 0 0 0 0 0 0 
0 0 0 0 0 0 0 0 0 0 0 0 0 0 0 
0 0 0 0 0 0 0 0 0 45 77 105 13 105 188 
39 49 58 35 51 66 13 105 188 13 105 188 13 105 188 
13 105 188 24 103 175 8 8 8 0 0 0 0 0 0 
0 0 0 0 0 0 21 23 24 34 107 172 41 93 140 
13 13 13 32 91 144 13 105 188 13 105 188 13 105 188 
13 105 188 41 67 90 0 0 0 0 0 0 0 0 0 
0 0 0 49 78 104 26 102 171 13 105 188 13 105 188 
13 105 188 13 105 188 21 103 177 40 98 149 35 61 83 
0 0 0 0 0 0 28 28 28 30 91 146 16 105 186 
13 105 188 13 105 188 17 101 177 43 107 164 30 58 84 
0 0 0 7 7 7 48 69 88 36 104 165 14 105 186 
30 99 161 36 74 109 28 58 85 47 100 147 14 103 184 
28 104 172 27 94 155 37 95 147 1 1 1 0 0 0 
46 71 94 32 100 162 13 105 188 13 105 188 13 105 188 
13 105 188 15 105 186 37 104 164 33 75 113 18 22 25 
0 0 0 0 0 0 0 0 0 18 19 19 35 66 93 
35 102 162 14 104 184 40 100 155 30 64 95 19 41 61 
34 78 118 19 102 176 16 105 184 39 98 152 18 104 182 
29 33 37 0 0 0 0 0 0 0 0 0 0 0 0 
0 0 0 0 0 0 0 0 0 0 0 0 0 0 0 
0 0 0 0 0 0 0 0 0 0 0 0 0 0 0 
0 0 0 0 0 0 0 0 0 0 0 0 0 0 0 
0 0 0 0 0 0 0 0 0 0 0 0 0 0 0 
7 7 7 34 99 157 28 99 162 19 19 19 43 59 73 
13 105 188 13 105 188 13 105 188 13 105 188 19 98 170 
5 5 5 0 0 0 0 0 0 0 0 0 7 7 7 
38 83 125 22 95 161 26 29 32 43 46 48 15 102 181 
13 105 188 13 105 188 13 105 188 19 101 176 26 28 30 
0 0 0 0 0 0 0 0 0 0 0 0 0 0 0 
49 55 61 13 105 188 13 105 188 13 105 188 19 105 182 
41 47 53 0 0 0 0 0 0 0 0 0 0 0 0 
0 0 0 2 2 2 34 61 84 13 105 188 30 105 173 
51 59 66 2 2 2 0 0 0 5 5 5 40 81 119 
14 103 184 13 105 188 32 70 104 9 9 9 0 0 0 
0 0 0 7 7 7 46 85 119 13 105 188 13 105 188 
38 68 96 0 0 0 0 0 0 0 0 0 10 10 10 
33 102 165 13 105 188 13 105 188 13 104 187 54 80 103 
3 3 3 0 0 0 0 0 0 0 0 0 0 0 0 
35 45 54 37 103 163 13 105 188 19 100 174 38 59 78 
13 13 13 0 0 0 0 0 0 0 0 0 50 64 76 
13 102 182 13 105 188 33 91 144 0 0 0 0 0 0 
0 0 0 0 0 0 0 0 0 0 0 0 0 0 0 
0 0 0 0 0 0 0 0 0 0 0 0 0 0 0 
0 0 0 0 0 0 0 0 0 0 0 0 0 0 0 
0 0 0 0 0 0 0 0 0 0 0 0 0 0 0 
0 0 0 0 0 0 0 0 0 37 47 57 14 105 186 
30 69 105 0 0 0 50 66 81 13 105 188 13 105 188 
13 105 188 13 105 188 14 99 176 2 6 9 0 0 0 
0 0 0 0 0 0 46 70 91 16 103 181 46 62 77 
0 0 0 40 69 95 13 105 188 13 105 188 13 105 188 
13 105 188 45 97 144 4 4 4 0 0 0 0 0 0 
0 0 0 0 0 0 0 0 0 32 48 62 13 105 188 
13 105 188 13 105 188 29 81 127 1 1 1 0 0 0 
0 0 0 0 0 0 0 0 0 0 0 0 0 0 0 
38 53 66 13 105 187 53 75 94 0 0 0 0 0 0 
0 0 0 50 78 103 13 105 187 13 105 188 40 102 159 
15 15 15 0 0 0 0 0 0 0 0 0 0 0 0 
32 34 36 15 99 175 14 101 180 23 26 28 0 0 0 
0 0 0 0 0 0 18 18 18 22 102 175 13 105 188 
13 105 188 23 100 170 17 17 17 0 0 0 0 0 0 
0 0 0 1 1 1 54 75 94 19 104 181 13 105 188 
16 105 186 39 55 69 0 0 0 0 0 0 0 0 0 
0 0 0 0 0 0 7 7 7 38 102 159 13 105 188 
33 64 92 0 0 0 0 0 0 0 0 0 0 0 0 
0 0 0 0 0 0 1 1 1 1 1 1 0 0 0 
0 0 0 0 0 0 0 0 0 0 0 0 0 0 0 
0 0 0 0 0 0 0 0 0 0 0 0 0 0 0 
0 0 0 0 0 0 0 0 0 0 0 0 0 0 0 
0 0 0 35 74 110 13 104 186 32 43 53 0 0 0 
38 55 69 13 105 188 13 105 188 13 105 188 13 105 188 
13 105 188 42 50 58 0 0 0 0 0 0 29 36 43 
21 104 178 47 82 113 2 2 2 9 9 9 43 101 154 
13 105 188 13 105 188 13 105 188 13 105 188 39 61 82 
0 0 0 0 0 0 0 0 0 0 0 0 0 0 0 
0 0 0 31 76 118 13 105 188 13 105 188 13 105 188 
33 55 75 0 0 0 0 0 0 0 0 0 0 0 0 
0 0 0 0 0 0 0 0 0 38 69 97 31 103 168 
18 18 18 0 0 0 0 0 0 31 34 38 18 99 172 
13 105 188 13 105 188 45 95 140 0 0 0 0 0 0 
0 0 0 0 0 0 0 0 0 8 8 8 40 115 183 
34 95 150 1 1 1 0 0 0 0 0 0 0 0 0 
38 61 82 13 105 188 13 105 188 13 105 188 37 85 128 
0 0 0 0 0 0 0 0 0 0 0 0 46 67 87 
14 102 181 13 105 188 13 105 187 44 79 110 6 6 6 
0 0 0 0 0 0 0 0 0 0 0 0 0 0 0 
0 0 0 46 96 142 14 101 178 41 44 46 0 0 0 
0 0 0 6 6 6 38 43 47 37 70 99 32 83 128 
32 96 154 36 107 171 25 75 121 40 72 102 25 27 29 
0 0 0 0 0 0 0 0 0 0 0 0 0 0 0 
0 0 0 0 0 0 0 0 0 0 0 0 0 0 0 
0 0 0 0 0 0 0 0 0 8 8 8 33 103 167 
30 100 162 6 6 6 0 0 0 4 10 15 13 102 183 
13 105 188 13 105 188 13 105 188 13 105 188 46 55 62 
0 0 0 15 15 15 37 100 156 37 94 146 11 11 11 
0 0 0 30 35 39 17 103 181 13 105 188 13 105 188 
13 105 188 22 103 177 35 36 38 0 0 0 0 0 0 
0 0 0 0 0 0 0 0 0 13 13 13 25 103 174 
13 105 188 13 105 188 21 103 175 19 21 22 0 0 0 
0 0 0 0 0 0 0 0 0 0 0 0 0 0 0 
7 7 7 46 104 156 36 76 112 0 0 0 0 0 0 
0 0 0 38 72 101 13 105 188 13 105 188 13 105 188 
34 106 171 46 50 53 0 0 0 0 0 0 0 0 0 
0 0 0 0 0 0 20 77 129 49 79 105 0 0 0 
0 0 0 0 0 0 0 0 0 33 83 129 13 105 188 
13 105 188 13 105 188 29 44 57 0 0 0 0 0 0 
0 0 0 32 41 50 19 100 173 13 105 188 13 105 188 
33 104 169 23 23 23 0 0 0 0 0 0 0 0 0 
0 0 0 0 0 0 0 0 0 0 0 0 16 47 75 
39 100 155 4 4 4 0 0 0 26 30 33 46 96 140 
16 103 182 47 89 127 33 46 57 37 54 68 26 94 154 
13 105 188 13 105 188 25 101 169 27 33 39 0 0 0 
0 0 0 0 0 0 0 0 0 0 0 0 0 0 0 
0 0 0 0 0 0 0 0 0 0 0 0 0 0 0 
0 0 0 29 39 48 14 105 187 41 82 119 0 0 0 
0 0 0 9 9 9 15 102 181 13 105 188 13 105 188 
13 105 188 13 105 188 37 46 53 4 4 4 49 89 125 
23 103 175 37 42 47 0 0 0 0 0 0 43 70 94 
13 105 188 13 105 188 13 105 188 13 105 188 45 97 145 
2 2 2 0 0 0 0 0 0 0 0 0 0 0 0 
0 0 0 48 63 76 13 105 187 13 105 188 13 105 188 
37 90 137 0 0 0 0 0 0 0 0 0 0 0 0 
0 0 0 0 0 0 0 0 0 32 35 38 17 102 178 
31 43 54 0 0 0 0 0 0 0 0 0 53 107 155 
13 105 188 13 105 188 13 105 188 13 105 188 22 104 177 
47 92 132 39 48 56 3 3 3 0 0 0 0 0 0 
34 37 40 16 17 17 0 0 0 0 0 0 0 0 0 
20 22 24 23 105 179 13 105 188 13 105 188 30 108 178 
16 17 17 0 0 0 0 0 0 18 19 19 39 101 156 
13 105 188 13 105 188 13 105 188 48 73 97 0 0 0 
0 0 0 0 0 0 0 0 0 0 0 0 0 0 0 
0 0 0 0 0 0 10 26 40 21 38 54 0 0 0 
35 39 42 28 95 156 13 105 188 13 105 188 35 53 69 
0 0 0 0 0 0 22 52 79 13 105 188 13 105 188 
13 105 188 27 64 96 0 0 0 0 0 0 0 0 0 
0 0 0 0 0 0 0 0 0 0 0 0 0 0 0 
0 0 0 0 0 0 0 0 0 0 0 0 31 69 105 
15 105 186 28 38 47 0 0 0 0 0 0 14 14 14 
17 104 182 13 105 188 13 105 188 13 105 188 13 105 188 
28 37 44 38 53 67 16 104 183 43 62 79 0 0 0 
0 0 0 4 4 4 37 97 152 13 105 188 13 105 188 
13 105 188 13 105 188 30 53 74 0 0 0 0 0 0 
0 0 0 0 0 0 0 0 0 0 0 0 45 93 136 
13 105 188 13 105 188 13 105 188 37 60 80 0 0 0 
0 0 0 0 0 0 0 0 0 0 0 0 0 0 0 
0 0 0 46 73 96 28 98 161 6 6 6 0 0 0 
0 0 0 0 0 0 41 80 115 13 105 188 13 105 188 
13 105 188 13 105 188 13 105 188 13 105 188 13 105 187 
35 101 161 51 77 100 10 10 11 0 0 0 0 0 0 
0 0 0 0 0 0 0 0 0 26 47 66 13 105 188 
13 105 188 13 105 188 34 80 121 0 0 0 0 0 0 
0 0 0 43 64 84 13 105 188 13 105 188 13 105 188 
24 103 175 18 20 21 0 0 0 0 0 0 0 0 0 
0 0 0 0 0 0 0 0 0 0 0 0 0 0 0 
0 0 0 0 0 0 0 0 0 45 91 131 13 105 188 
13 105 188 17 104 182 41 45 49 0 0 0 0 0 0 
37 78 114 13 105 188 13 105 188 13 105 188 31 66 97 
0 0 0 0 0 0 0 0 0 0 0 0 0 0 0 
0 0 0 0 0 0 0 0 0 0 0 0 0 0 0 
0 0 0 9 9 9 29 100 164 36 99 156 11 11 11 
0 0 0 0 0 0 20 20 20 18 105 184 13 105 188 
13 105 188 13 105 188 13 105 188 52 65 76 23 100 169 
39 79 116 4 4 4 0 0 0 0 0 0 34 41 48 
14 104 185 13 105 188 13 105 188 13 105 188 19 102 177 
17 17 17 0 0 0 0 0 0 0 0 0 0 0 0 
0 0 0 26 26 26 25 101 169 13 105 188 13 105 188 
23 105 179 20 20 20 0 0 0 0 0 0 0 0 0 
0 0 0 0 0 0 0 0 0 0 0 0 41 100 152 
40 82 120 0 0 0 0 0 0 0 0 0 0 0 0 
30 34 38 26 99 164 13 105 188 13 105 188 13 105 188 
13 105 188 13 105 188 13 105 188 13 105 188 13 105 188 
48 97 142 15 15 15 0 0 0 0 0 0 0 0 0 
1 1 1 46 98 146 13 105 188 13 105 188 13 105 188 
39 57 73 0 0 0 0 0 0 0 0 0 41 100 152 
13 105 188 13 105 188 13 105 188 39 84 125 1 1 1 
0 0 0 0 0 0 0 0 0 0 0 0 0 0 0 
0 0 0 0 0 0 0 0 0 0 0 0 0 0 0 
0 0 0 35 85 130 13 105 188 14 104 186 49 83 113 
1 1 1 0 0 0 12 12 12 32 104 170 13 105 188 
13 105 188 17 102 178 36 41 46 0 0 0 0 0 0 
0 0 0 0 0 0 0 0 0 0 0 0 0 0 0 
0 0 0 0 0 0 0 0 0 0 0 0 47 57 66 
13 103 184 37 70 99 0 0 0 0 0 0 0 0 0 
25 25 25 20 107 186 13 105 188 13 105 188 13 105 188 
13 105 188 27 98 162 38 105 166 20 20 21 0 0 0 
0 0 0 0 0 0 35 70 102 13 105 188 13 105 188 
13 105 188 13 105 188 39 93 142 0 0 0 0 0 0 
0 0 0 0 0 0 0 0 0 0 0 0 39 57 73 
13 105 187 13 105 188 13 105 188 45 89 128 0 0 0 
0 0 0 0 0 0 0 0 0 0 0 0 0 0 0 
0 0 0 38 39 40 15 99 174 27 38 47 0 0 0 
0 0 0 0 0 0 0 0 0 0 0 0 37 43 48 
42 88 129 21 100 172 13 105 188 13 105 188 13 105 188 
13 105 188 13 105 188 13 105 188 13 104 186 30 44 56 
0 0 0 0 0 0 0 0 0 32 32 33 19 101 175 
13 105 188 13 105 188 28 99 163 13 14 14 0 0 0 
0 0 0 26 27 28 14 105 187 13 105 188 13 105 188 
13 105 188 29 51 71 0 0 0 0 0 0 0 0 0 
0 0 0 0 0 0 0 0 0 0 0 0 0 0 0 
0 0 0 0 0 0 0 0 0 0 0 0 37 40 44 
33 57 79 37 50 61 2 2 2 0 0 0 0 0 0 
46 70 92 13 104 186 13 105 188 14 105 187 45 73 99 
1 1 1 0 0 0 0 0 0 0 0 0 0 0 0 
0 0 0 0 0 0 0 0 0 0 0 0 0 0 0 
0 0 0 0 0 0 44 85 122 13 105 188 40 45 49 
0 0 0 0 0 0 0 0 0 31 31 31 22 109 187 
13 105 188 13 105 188 13 105 188 13 105 188 20 102 175 
37 46 54 0 0 0 0 0 0 0 0 0 5 5 5 
32 98 158 13 105 188 13 105 188 13 105 188 13 105 188 
30 51 70 0 0 0 0 0 0 0 0 0 0 0 0 
0 0 0 1 1 1 39 85 126 13 105 188 13 105 188 
13 105 188 36 51 66 0 0 0 0 0 0 0 0 0 
0 0 0 0 0 0 0 0 0 0 0 0 35 68 98 
34 106 172 12 12 12 0 0 0 0 0 0 4 12 20 
2 2 3 0 0 0 0 0 0 0 0 0 25 28 30 
32 57 80 40 100 154 14 104 186 13 105 188 13 105 188 
13 105 188 13 105 188 51 86 118 0 0 0 0 0 0 
0 0 0 47 68 87 13 105 188 13 105 188 13 105 188 
44 84 120 0 0 0 0 0 0 0 0 0 32 52 70 
13 105 188 13 105 188 13 105 188 15 101 179 22 27 31 
0 0 0 0 0 0 0 0 0 0 0 0 0 0 0 
0 0 0 0 0 0 0 0 0 0 0 0 0 0 0 
0 0 0 0 0 0 0 0 0 0 0 0 0 0 0 
0 0 0 8 8 8 44 60 74 19 102 178 13 105 188 
31 105 173 49 72 92 1 1 1 0 0 0 0 0 0 
0 0 0 0 0 0 0 0 0 0 0 0 0 0 0 
0 0 0 0 0 0 0 0 0 0 0 0 16 17 18 
33 105 170 30 100 162 6 6 6 0 0 0 0 0 0 
0 0 0 37 37 37 23 110 189 13 105 188 13 105 188 
13 105 188 13 102 182 43 68 90 0 0 0 0 0 0 
0 0 0 0 0 0 28 36 43 15 105 186 13 105 188 
13 105 188 13 105 188 26 108 183 23 25 27 0 0 0 
0 0 0 0 0 0 0 0 0 0 0 0 15 16 17 
26 103 172 13 105 188 13 105 188 24 107 181 22 25 27 
0 0 0 0 0 0 0 0 0 0 0 0 0 0 0 
0 0 0 12 12 12 35 100 160 44 79 111 0 0 0 
0 0 0 13 13 13 29 103 169 37 56 73 0 0 0 
0 0 0 0 0 0 0 0 0 0 0 0 5 5 5 
43 62 79 15 104 185 13 105 188 13 105 188 13 104 186 
35 48 60 0 0 0 0 0 0 0 0 0 42 94 142 
13 105 188 13 105 188 13 104 186 36 46 55 0 0 0 
0 0 0 0 0 0 7 42 74 13 105 188 13 105 188 
13 105 188 27 110 185 20 20 20 0 0 0 0 0 0 
0 0 0 0 0 0 0 0 0 0 0 0 0 0 0 
0 0 0 0 0 0 0 0 0 0 0 0 0 0 0 
0 0 0 0 0 0 28 50 69 19 65 105 43 106 162 
16 104 184 75 128 175 38 56 74 31 33 34 0 0 0 
0 0 0 0 0 0 0 0 0 0 0 0 0 0 0 
0 0 0 0 0 0 0 0 0 0 0 0 0 0 0 
0 0 0 0 0 0 46 63 78 13 105 188 40 90 135 
0 0 0 0 0 0 0 0 0 0 0 0 28 28 28 
21 108 187 13 105 188 13 105 188 13 105 188 46 96 142 
8 8 8 0 0 0 0 0 0 0 0 0 0 0 0 
28 62 93 13 105 188 13 105 188 13 105 188 13 105 188 
36 87 134 0 0 0 0 0 0 0 0 0 0 0 0 
0 0 0 0 0 0 18 23 27 13 105 188 13 105 188 
13 105 188 31 88 139 4 4 4 0 0 0 0 0 0 
0 0 0 0 0 0 0 0 0 0 0 0 44 62 78 
21 99 169 32 32 33 0 0 0 0 0 0 33 49 63 
13 105 188 35 62 86 0 0 0 0 0 0 0 0 0 
0 0 0 0 0 0 0 0 0 10 10 10 23 88 147 
13 105 188 13 105 188 30 100 163 14 14 14 0 0 0 
0 0 0 33 34 35 20 101 174 13 105 188 13 105 188 
32 103 168 19 19 19 0 0 0 0 0 0 0 0 0 
21 47 70 13 105 188 13 105 188 13 105 188 30 113 188 
24 24 24 0 0 0 0 0 0 0 0 0 0 0 0 
0 0 0 0 0 0 0 0 0 29 35 41 61 100 135 
10 10 10 0 0 0 0 0 0 0 0 0 0 0 0 
28 76 120 39 103 161 34 103 165 13 105 188 14 102 181 
34 99 157 42 66 88 11 11 11 0 0 0 0 0 0 
0 0 0 0 0 0 0 0 0 0 0 0 0 0 0 
0 0 0 0 0 0 0 0 0 0 0 0 16 16 16 
34 102 163 13 105 188 27 75 118 0 0 0 0 0 0 
0 0 0 0 0 0 0 0 0 14 93 164 13 105 188 
13 105 188 25 96 161 27 30 32 0 0 0 0 0 0 
0 0 0 0 0 0 19 19 19 37 104 164 13 105 188 
13 105 188 13 105 188 13 105 188 37 56 73 0 0 0 
0 0 0 0 0 0 0 0 0 0 0 0 0 0 0 
7 16 24 13 105 188 13 105 188 13 105 188 37 94 145 
3 3 3 0 0 0 0 0 0 0 0 0 0 0 0 
0 0 0 45 51 56 28 101 165 49 72 93 0 0 0 
0 0 0 0 0 0 35 78 117 13 105 188 43 97 147 
8 8 8 0 0 0 0 0 0 0 0 0 0 0 0 
0 0 0 23 29 35 16 102 179 13 105 188 15 104 184 
45 64 81 0 0 0 0 0 0 0 0 0 35 58 78 
13 105 188 13 105 188 13 105 188 46 84 119 0 0 0 
0 0 0 0 0 0 0 0 0 36 44 51 13 101 181 
13 105 188 13 105 188 16 102 180 32 37 41 0 0 0 
0 0 0 0 0 0 0 0 0 0 0 0 0 0 0 
48 64 79 30 101 165 57 72 85 0 0 0 0 0 0 
0 0 0 0 0 0 0 0 0 0 0 0 0 0 0 
13 13 13 39 98 150 13 105 188 13 105 188 14 104 186 
45 67 87 0 0 0 0 0 0 0 0 0 0 0 0 
0 0 0 0 0 0 0 0 0 0 0 0 0 0 0 
1 1 1 40 43 46 42 91 135 13 105 188 13 105 188 
30 96 156 29 30 31 1 1 1 0 0 0 0 0 0 
0 0 0 17 83 142 13 105 188 16 103 182 35 45 54 
0 0 0 0 0 0 0 0 0 1 1 1 12 12 13 
36 65 92 13 104 187 13 105 188 13 105 188 13 105 188 
13 105 188 56 77 96 2 2 2 0 0 0 0 0 0 
0 0 0 0 0 0 0 0 0 33 36 37 19 103 178 
13 105 188 13 105 188 24 107 182 34 43 51 0 0 0 
0 0 0 0 0 0 8 8 8 44 59 72 34 104 167 
55 86 114 9 9 9 0 0 0 0 0 0 15 15 15 
34 100 160 13 105 188 15 104 184 46 60 72 0 0 0 
0 0 0 0 0 0 0 0 0 13 14 14 37 87 133 
13 105 188 15 104 184 62 89 114 6 6 6 0 0 0 
0 0 0 6 6 6 43 98 148 13 105 188 13 105 188 
13 105 188 33 44 54 0 0 0 0 0 0 0 0 0 
0 0 0 4 4 4 47 97 142 13 105 188 13 105 188 
13 105 188 47 93 136 15 15 15 0 0 0 0 0 0 
1 1 1 23 27 30 45 87 125 26 96 159 53 67 81 
1 1 1 0 0 0 0 0 0 0 0 0 0 0 0 
0 0 0 0 0 0 0 0 0 0 0 0 34 74 110 
13 105 188 13 105 188 13 105 188 51 102 148 0 0 0 
7 7 7 0 0 0 0 0 0 0 0 0 0 0 0 
0 0 0 7 7 7 50 94 134 33 95 150 17 101 176 
13 105 188 13 105 188 13 105 188 13 105 188 18 104 181 
42 100 153 36 39 42 0 0 0 0 0 0 23 89 149 
13 104 186 52 85 115 1 1 1 0 0 0 6 6 6 
68 107 143 33 88 137 34 111 180 13 105 188 13 105 188 
13 105 188 13 105 188 13 105 188 13 105 188 17 101 178 
41 99 151 52 73 92 0 0 0 0 0 0 0 0 0 
0 0 0 0 0 0 38 60 80 16 103 181 13 105 188 
13 105 188 23 106 181 40 89 133 16 47 74 33 74 110 
35 94 146 29 101 167 35 56 74 9 9 9 0 0 0 
0 0 0 0 0 0 41 49 56 13 104 186 23 96 162 
13 105 187 25 107 182 45 68 89 41 51 59 45 54 63 
37 56 72 31 90 144 13 105 188 30 103 169 41 54 65 
7 7 7 0 0 0 23 29 33 34 62 88 42 85 124 
13 102 182 13 105 188 13 105 188 13 105 188 33 86 134 
43 64 84 16 16 16 0 0 0 0 0 0 0 0 0 
28 30 31 41 100 153 13 104 187 13 105 188 13 105 188 
29 97 158 45 96 143 42 93 139 39 96 148 22 103 176 
52 101 145 32 37 41 0 0 0 0 0 0 28 31 34 
32 60 85 34 58 80 16 16 16 0 0 0 0 0 0 
0 0 0 1 1 1 43 100 152 13 105 188 13 105 188 
13 105 188 34 68 99 48 48 48 38 38 38 0 0 0 
0 0 0 0 0 0 0 0 0 0 0 0 18 22 25 
8 61 108 8 62 111 8 62 111 8 62 111 8 62 111 
8 62 111 8 62 111 8 62 111 21 67 108 7 7 7 
0 0 0 0 0 0 31 39 47 32 43 53 11 11 11 
0 0 0 0 0 0 21 21 21 9 60 106 8 62 111 
8 62 111 8 62 111 8 62 111 8 62 111 8 62 111 
8 62 111 8 62 111 8 62 111 8 62 111 24 36 47 
0 0 0 0 0 0 0 0 0 0 0 0 0 0 0 
4 4 4 47 59 70 31 80 124 35 107 172 22 98 165 
19 94 162 35 110 177 41 96 145 36 62 85 27 28 30 
0 0 0 0 0 0 0 0 0 0 0 0 0 0 0 
18 36 52 22 51 78 30 30 30 31 54 73 40 90 136 
38 110 176 21 96 164 25 101 168 44 114 177 37 89 136 
36 56 74 9 10 11 0 0 0 0 0 0 3 3 3 
25 57 86 8 62 111 8 62 111 8 62 111 8 62 111 
8 62 111 8 62 111 8 62 111 13 61 104 13 13 13 
0 0 0 0 0 0 0 0 0 0 0 0 21 21 21 
31 52 72 42 98 149 36 111 179 20 96 163 28 103 171 
35 101 161 38 82 120 28 39 48 9 9 9 0 0 0 
0 0 0 22 32 42 23 102 175 13 105 188 13 105 187 
30 44 57 0 0 0 0 0 0 0 0 0 30 34 38 
15 100 176 13 105 188 13 105 188 19 103 178 31 37 43 
14 14 14 0 0 0 0 0 0 0 0 0 0 0 0 
0 0 0 0 0 0 0 0 0 0 0 0 0 0 0 
0 0 0 0 0 0 0 0 0 0 0 0 0 0 0 
0 0 0 0 0 0 0 0 0 0 0 0 0 0 0 
0 0 0 0 0 0 0 0 0 0 0 0 0 0 0 
0 0 0 0 0 0 0 0 0 0 0 0 0 0 0 
0 0 0 0 0 0 0 0 0 0 0 0 0 0 0 
0 0 0 0 0 0 0 0 0 0 0 0 0 0 0 
0 0 0 0 0 0 0 0 0 0 0 0 0 0 0 
0 0 0 6 6 6 3 3 3 2 2 2 6 6 6 
3 3 3 0 0 0 0 0 0 0 0 0 0 0 0 
0 0 0 0 0 0 0 0 0 0 0 0 0 0 0 
0 0 0 0 0 0 1 1 1 7 7 7 3 3 3 
4 4 4 9 9 9 0 0 0 0 0 0 0 0 0 
0 0 0 0 0 0 0 0 0 0 0 0 0 0 0 
0 0 0 0 0 0 0 0 0 0 0 0 0 0 0 
0 0 0 0 0 0 0 0 0 0 0 0 0 0 0 
0 0 0 0 0 0 0 0 0 0 0 0 3 3 3 
6 6 6 2 2 2 4 4 4 5 5 5 0 0 0 
0 0 0 0 0 0 0 0 0 0 0 0 47 96 141 
13 105 188 13 105 188 16 104 184 33 38 42 0 0 0 
0 0 0 11 11 11 46 90 129 13 105 188 13 105 188 
14 104 186 48 78 105 1 1 1 0 0 0 0 0 0 
0 0 0 0 0 0 0 0 0 0 0 0 0 0 0 
0 0 0 0 0 0 0 0 0 0 0 0 0 0 0 
0 0 0 0 0 0 0 0 0 0 0 0 0 0 0 
0 0 0 0 0 0 0 0 0 0 0 0 0 0 0 
0 0 0 0 0 0 0 0 0 0 0 0 0 0 0 
0 0 0 0 0 0 0 0 0 0 0 0 0 0 0 
0 0 0 0 0 0 0 0 0 0 0 0 0 0 0 
0 0 0 0 0 0 0 0 0 0 0 0 0 0 0 
0 0 0 0 0 0 0 0 0 0 0 0 0 0 0 
0 0 0 0 0 0 0 0 0 0 0 0 0 0 0 
0 0 0 0 0 0 0 0 0 0 0 0 0 0 0 
0 0 0 0 0 0 0 0 0 0 0 0 0 0 0 
0 0 0 0 0 0 0 0 0 0 0 0 0 0 0 
0 0 0 0 0 0 0 0 0 0 0 0 0 0 0 
0 0 0 0 0 0 0 0 0 0 0 0 0 0 0 
0 0 0 0 0 0 0 0 0 0 0 0 0 0 0 
0 0 0 0 0 0 0 0 0 0 0 0 0 0 0 
0 0 0 0 0 0 0 0 0 0 0 0 0 0 0 
0 0 0 0 0 0 0 0 0 0 0 0 0 0 0 
0 0 0 0 0 0 46 104 156 13 105 188 13 105 188 
49 89 125 0 0 0 0 0 0 15 15 15 62 96 126 
14 104 186 13 105 188 20 104 180 53 82 109 9 9 9 
0 0 0 0 0 0 0 0 0 0 0 0 0 0 0 
0 0 0 0 0 0 0 0 0 0 0 0 0 0 0 
0 0 0 0 0 0 0 0 0 0 0 0 0 0 0 
0 0 0 0 0 0 0 0 0 0 0 0 0 0 0 
0 0 0 0 0 0 0 0 0 0 0 0 0 0 0 
0 0 0 0 0 0 0 0 0 0 0 0 0 0 0 
0 0 0 0 0 0 0 0 0 0 0 0 0 0 0 
0 0 0 0 0 0 0 0 0 0 0 0 0 0 0 
0 0 0 0 0 0 0 0 0 0 0 0 0 0 0 
0 0 0 0 0 0 0 0 0 0 0 0 0 0 0 
0 0 0 0 0 0 0 0 0 0 0 0 0 0 0 
0 0 0 0 0 0 0 0 0 0 0 0 0 0 0 
0 0 0 0 0 0 0 0 0 0 0 0 0 0 0 
0 0 0 0 0 0 0 0 0 0 0 0 0 0 0 
0 0 0 0 0 0 0 0 0 0 0 0 0 0 0 
0 0 0 0 0 0 0 0 0 0 0 0 0 0 0 
0 0 0 0 0 0 0 0 0 0 0 0 0 0 0 
0 0 0 0 0 0 0 0 0 0 0 0 0 0 0 
0 0 0 0 0 0 0 0 0 0 0 0 0 0 0 
0 0 0 0 0 0 0 0 0 0 0 0 0 0 0 
39 49 59 21 97 164 13 101 180 37 63 86 30 49 66 
40 68 93 46 108 165 13 103 185 15 98 174 54 104 149 
36 45 53 1 1 1 0 0 0 0 0 0 0 0 0 
0 0 0 0 0 0 0 0 0 0 0 0 0 0 0 
0 0 0 0 0 0 0 0 0 0 0 0 0 0 0 
0 0 0 0 0 0 0 0 0 0 0 0 0 0 0 
0 0 0 0 0 0 0 0 0 0 0 0 0 0 0 
0 0 0 0 0 0 0 0 0 0 0 0 0 0 0 
0 0 0 0 0 0 0 0 0 0 0 0 0 0 0 
0 0 0 0 0 0 0 0 0 0 0 0 0 0 0 
0 0 0 0 0 0 0 0 0 0 0 0 0 0 0 
0 0 0 0 0 0 0 0 0 0 0 0 0 0 0 
0 0 0 0 0 0 0 0 0 0 0 0 0 0 0 
0 0 0 0 0 0 0 0 0 0 0 0 0 0 0 
0 0 0 0 0 0 0 0 0 0 0 0 0 0 0 
0 0 0 0 0 0 0 0 0 0 0 0 0 0 0 
0 0 0 0 0 0 0 0 0 0 0 0 0 0 0 
0 0 0 0 0 0 0 0 0 0 0 0 0 0 0 
0 0 0 0 0 0 0 0 0 0 0 0 0 0 0 
0 0 0 0 0 0 0 0 0 0 0 0 0 0 0 
0 0 0 0 0 0 0 0 0 0 0 0 0 0 0 
0 0 0 0 0 0 0 0 0 0 0 0 0 0 0 
0 0 0 0 0 0 0 0 0 0 0 0 24 24 25 
43 72 99 23 68 108 9 71 126 16 62 104 41 84 123 
36 56 74 29 30 31 2 2 2 0 0 0 0 0 0 
0 0 0 0 0 0 0 0 0 0 0 0 0 0 0 
0 0 0 0 0 0 0 0 0 0 0 0 0 0 0 
0 0 0 0 0 0 0 0 0 0 0 0 0 0 0 
0 0 0 0 0 0 0 0 0 0 0 0 0 0 0 
0 0 0 0 0 0 0 0 0 0 0 0 0 0 0 
0 0 0 0 0 0 0 0 0 0 0 0 0 0 0 
0 0 0 0 0 0 0 0 0 0 0 0 0 0 0 
0 0 0 0 0 0 0 0 0 0 0 0 0 0 0 
0 0 0 0 0 0 0 0 0 0 0 0 0 0 0 
0 0 0 0 0 0 0 0 0 0 0 0 0 0 0 
0 0 0 0 0 0 0 0 0 0 0 0 0 0 0 
0 0 0 0 0 0 0 0 0 0 0 0 0 0 0 
0 0 0 0 0 0 0 0 0 0 0 0 0 0 0 
0 0 0 0 0 0 0 0 0 0 0 0 0 0 0 
0 0 0 0 0 0 0 0 0 0 0 0 0 0 0 
0 0 0 0 0 0 0 0 0 0 0 0 0 0 0 
0 0 0 0 0 0 0 0 0 0 0 0 0 0 0 
0 0 0 0 0 0 0 0 0 0 0 0 0 0 0 
0 0 0 0 0 0 0 0 0 0 0 0 0 0 0 
0 0 0 0 0 0 0 0 0 0 0 0 0 0 0 
0 0 0 0 0 0 0 0 0 0 0 0 0 0 0 
0 0 0 0 0 0 0 0 0 0 0 0 0 0 0 
0 0 0 0 0 0 0 0 0 0 0 0 0 0 0 
0 0 0 0 0 0 0 0 0 0 0 0 0 0 0 
0 0 0 0 0 0 0 0 0 0 0 0 0 0 0 
0 0 0 0 0 0 0 0 0 0 0 0 0 0 0 
0 0 0 0 0 0 0 0 0 0 0 0 0 0 0 
0 0 0 0 0 0 0 0 0 0 0 0 0 0 0 
0 0 0 0 0 0 0 0 0 0 0 0 0 0 0 
0 0 0 0 0 0 0 0 0 0 0 0 0 0 0 
0 0 0 0 0 0 0 0 0 0 0 0 0 0 0 
0 0 0 0 0 0 0 0 0 0 0 0 0 0 0 
0 0 0 0 0 0 0 0 0 0 0 0 0 0 0 
0 0 0 0 0 0 0 0 0 0 0 0 0 0 0 
0 0 0 0 0 0 0 0 0 0 0 0 0 0 0 
0 0 0 0 0 0 0 0 0 0 0 0 0 0 0 
0 0 0 0 0 0 0 0 0 0 0 0 0 0 0 
0 0 0 0 0 0 0 0 0 0 0 0 0 0 0 
0 0 0 0 0 0 0 0 0 0 0 0 0 0 0 
0 0 0 0 0 0 0 0 0 0 0 0 0 0 0 
0 0 0 0 0 0 0 0 0 0 0 0 0 0 0 
0 0 0 0 0 0 0 0 0 0 0 0 0 0 0 
0 0 0 0 0 0 0 0 0 0 0 0 0 0 0 
0 0 0 0 0 0 0 0 0 0 0 0 0 0 0 
0 0 0 0 0 0 0 0 0 0 0 0 0 0 0 
0 0 0 0 0 0 0 0 0 0 0 0 0 0 0 
0 0 0 0 0 0 0 0 0 0 0 0 0 0 0 
