P3
# Created by IrfanView
108 30
255
0 0 0 0 0 0 0 0 0 0 0 0 0 0 0 
0 0 0 0 0 0 0 0 0 0 0 0 0 0 0 
0 0 0 0 0 0 0 0 0 0 0 0 0 0 0 
0 0 0 0 0 0 0 0 0 0 0 0 0 0 0 
0 0 0 0 0 0 0 0 0 0 0 0 0 0 0 
0 0 0 0 0 0 0 0 0 0 0 0 0 0 0 
0 0 0 0 0 0 0 0 0 0 0 0 0 0 0 
0 0 0 0 0 0 0 0 0 0 0 0 0 0 0 
0 0 0 0 0 0 0 0 0 0 0 0 0 0 0 
0 0 0 0 0 0 0 0 0 0 0 0 0 0 0 
0 0 0 0 0 0 0 0 0 0 0 0 0 0 0 
0 0 0 0 0 0 0 0 0 0 0 0 0 0 0 
0 0 0 0 0 0 0 0 0 0 0 0 0 0 0 
0 0 0 0 0 0 0 0 0 0 0 0 0 0 0 
0 0 0 0 0 0 0 0 0 0 0 0 0 0 0 
0 0 0 0 0 0 0 0 0 0 0 0 0 0 0 
0 0 0 0 0 0 0 0 0 0 0 0 0 0 0 
0 0 0 0 0 0 0 0 0 0 0 0 0 0 0 
0 0 0 0 0 0 0 0 0 0 0 0 0 0 0 
0 0 0 0 0 0 0 0 0 0 0 0 0 0 0 
0 0 0 0 0 0 0 0 0 0 0 0 0 0 0 
0 0 0 0 0 0 0 0 0 0 0 0 0 0 0 
0 0 0 0 0 0 0 0 0 0 0 0 0 0 0 
0 0 0 0 0 0 0 0 0 0 0 0 0 0 0 
0 0 0 0 0 0 0 0 0 0 0 0 0 0 0 
0 0 0 0 0 0 0 0 0 0 0 0 0 0 0 
0 0 0 0 0 0 0 0 0 0 0 0 0 0 0 
0 0 0 0 0 0 0 0 0 0 0 0 0 0 0 
0 0 0 0 0 0 0 0 0 0 0 0 0 0 0 
0 0 0 0 0 0 0 0 0 0 0 0 0 0 0 
0 0 0 0 0 0 0 0 0 0 0 0 0 0 0 
0 0 0 0 0 0 0 0 0 0 0 0 0 0 0 
0 0 0 0 0 0 0 0 0 0 0 0 0 0 0 
0 0 0 0 0 0 0 0 0 0 0 0 0 0 0 
0 0 0 0 0 0 0 0 0 0 0 0 0 0 0 
0 0 0 0 0 0 0 0 0 0 0 0 0 0 0 
0 0 0 0 0 0 0 0 0 0 0 0 0 0 0 
0 0 0 0 0 0 0 0 0 0 0 0 0 0 0 
0 0 0 0 0 0 0 0 0 0 0 0 0 0 0 
0 0 0 0 0 0 0 0 0 0 0 0 0 0 0 
0 0 0 0 0 0 0 0 0 0 0 0 0 0 0 
0 0 0 0 0 0 0 0 0 0 0 0 0 0 0 
0 0 0 0 0 0 0 0 0 0 0 0 0 0 0 
0 0 0 0 0 0 0 0 0 0 0 0 0 0 0 
0 0 0 0 0 0 0 0 0 0 0 0 0 0 0 
0 0 0 0 0 0 0 0 0 0 0 0 0 0 0 
0 0 0 0 0 0 0 0 0 0 0 0 0 0 0 
0 0 0 0 0 0 0 0 0 0 0 0 0 0 0 
0 0 0 0 0 0 0 0 0 0 0 0 0 0 0 
0 0 0 0 0 0 0 0 0 0 0 0 0 0 0 
0 0 0 0 0 0 0 0 0 0 0 0 0 0 0 
0 0 0 0 0 0 0 0 0 0 0 0 0 0 0 
0 0 0 0 0 0 0 0 0 0 0 0 0 0 0 
0 0 0 0 0 0 0 0 0 0 0 0 0 0 0 
0 0 0 0 0 0 0 0 0 0 0 0 0 0 0 
0 0 0 0 0 0 0 0 0 0 0 0 0 0 0 
0 0 0 0 0 0 0 0 0 0 0 0 0 0 0 
0 0 0 0 0 0 0 0 0 0 0 0 0 0 0 
0 0 0 0 0 0 0 0 0 0 0 0 0 0 0 
0 0 0 0 0 0 0 0 0 0 0 0 0 0 0 
0 0 0 0 0 0 0 0 0 0 0 0 0 0 0 
0 0 0 0 0 0 0 0 0 0 0 0 0 0 0 
0 0 0 0 0 0 0 0 0 0 0 0 0 0 0 
0 0 0 0 0 0 0 0 0 0 0 0 0 0 0 
0 0 0 0 0 0 0 0 0 0 0 0 0 0 0 
0 0 0 0 0 0 0 0 0 0 0 0 0 0 0 
0 0 0 0 0 0 0 0 0 31 45 57 58 125 185 
58 125 185 58 125 185 58 125 185 58 125 185 58 125 185 
58 125 185 58 125 185 63 118 167 3 3 3 0 0 0 
0 0 0 0 0 0 0 0 0 0 0 0 0 0 0 
0 0 0 0 0 0 53 80 104 58 125 185 58 125 185 
58 125 185 58 125 185 58 125 185 58 125 185 58 125 185 
58 125 185 58 76 93 0 0 0 0 0 0 0 0 0 
0 0 0 0 0 0 0 0 0 0 0 0 0 0 0 
0 0 0 0 0 0 0 0 0 0 0 0 0 0 0 
0 0 0 0 0 0 0 0 0 0 0 0 0 0 0 
0 0 0 0 0 0 0 0 0 0 0 0 0 0 0 
0 0 0 0 0 0 0 0 0 0 0 0 0 0 0 
0 0 0 0 0 0 0 0 0 0 0 0 0 0 0 
0 0 0 0 0 0 0 0 0 0 0 0 0 0 0 
0 0 0 0 0 0 0 0 0 0 0 0 0 0 0 
0 0 0 0 0 0 0 0 0 0 0 0 0 0 0 
0 0 0 0 0 0 0 0 0 0 0 0 0 0 0 
0 0 0 0 0 0 0 0 0 0 0 0 0 0 0 
0 0 0 0 0 0 0 0 0 0 0 0 0 0 0 
0 0 0 0 0 0 0 0 0 0 0 0 0 0 0 
0 0 0 0 0 0 0 0 0 0 0 0 0 0 0 
0 0 0 0 0 0 0 0 0 0 0 0 0 0 0 
0 0 0 34 47 59 38 75 108 29 107 177 13 105 188 
13 105 188 13 105 188 13 105 188 13 105 188 13 105 188 
14 96 171 1 2 3 0 0 0 0 0 0 0 0 0 
0 0 0 0 0 0 0 0 0 0 0 0 30 34 37 
25 104 174 13 105 188 13 105 188 13 105 188 13 105 188 
13 105 188 22 99 169 38 80 119 45 78 108 10 13 15 
0 0 0 0 0 0 0 0 0 0 0 0 0 0 0 
0 0 0 0 0 0 0 0 0 0 0 0 0 0 0 
0 0 0 0 0 0 0 0 0 0 0 0 0 0 0 
0 0 0 0 0 0 0 0 0 0 0 0 0 0 0 
0 0 0 0 0 0 0 0 0 0 0 0 0 0 0 
0 0 0 0 0 0 0 0 0 0 0 0 0 0 0 
0 0 0 0 0 0 0 0 0 0 0 0 0 0 0 
0 0 0 0 0 0 0 0 0 0 0 0 0 0 0 
0 0 0 0 0 0 0 0 0 0 0 0 0 0 0 
0 0 0 0 0 0 0 0 0 0 0 0 0 0 0 
0 0 0 0 0 0 0 0 0 0 0 0 0 0 0 
0 0 0 0 0 0 0 0 0 0 0 0 0 0 0 
0 0 0 0 0 0 0 0 0 0 0 0 0 0 0 
0 0 0 0 0 0 0 0 0 0 0 0 0 0 0 
0 0 0 0 0 0 0 0 0 0 0 0 0 0 0 
0 0 0 0 0 0 0 0 0 0 0 0 0 0 0 
0 0 0 41 55 68 13 105 188 28 99 163 22 89 149 
13 105 188 13 105 188 13 105 188 13 105 188 38 41 44 
0 0 0 0 0 0 0 0 0 0 0 0 0 0 0 
0 0 0 5 5 5 37 83 125 30 104 170 14 98 174 
13 105 188 13 105 188 13 105 188 21 104 178 43 47 50 
0 0 0 0 0 0 0 0 0 0 0 0 0 0 0 
0 0 0 0 0 0 0 0 0 0 0 0 0 0 0 
0 0 0 0 0 0 0 0 0 0 0 0 0 0 0 
0 0 0 0 0 0 0 0 0 0 0 0 0 0 0 
0 0 0 0 0 0 0 0 0 0 0 0 0 0 0 
0 0 0 0 0 0 0 0 0 0 0 0 0 0 0 
0 0 0 0 0 0 0 0 0 0 0 0 0 0 0 
0 0 0 0 0 0 0 0 0 0 0 0 0 0 0 
0 0 0 0 0 0 0 0 0 0 0 0 0 0 0 
0 0 0 0 0 0 0 0 0 0 0 0 0 0 0 
0 0 0 0 0 0 0 0 0 0 0 0 0 0 0 
0 0 0 0 0 0 0 0 0 0 0 0 0 0 0 
0 0 0 0 0 0 0 0 0 0 0 0 0 0 0 
0 0 0 0 0 0 0 0 0 0 0 0 0 0 0 
0 0 0 0 0 0 0 0 0 0 0 0 0 0 0 
0 0 0 0 0 0 0 0 0 0 0 0 0 0 0 
0 0 0 0 0 0 0 0 0 0 0 0 41 50 59 
13 105 188 40 84 123 23 89 149 13 105 188 13 105 188 
13 105 188 13 105 188 41 45 47 0 0 0 0 0 0 
0 0 0 0 0 0 0 0 0 0 0 0 48 69 88 
17 101 177 74 104 131 13 105 188 13 105 188 13 105 188 
13 105 188 32 77 119 0 0 0 0 0 0 0 0 0 
0 0 0 0 0 0 0 0 0 0 0 0 0 0 0 
0 0 0 0 0 0 0 0 0 0 0 0 0 0 0 
0 0 0 0 0 0 0 0 0 0 0 0 0 0 0 
0 0 0 0 0 0 0 0 0 0 0 0 0 0 0 
0 0 0 0 0 0 0 0 0 0 0 0 0 0 0 
0 0 0 0 0 0 0 0 0 0 0 0 0 0 0 
0 0 0 0 0 0 0 0 0 0 0 0 0 0 0 
0 0 0 0 0 0 0 0 0 0 0 0 0 0 0 
0 0 0 0 0 0 0 0 0 0 0 0 0 0 0 
0 0 0 0 0 0 0 0 0 0 0 0 0 0 0 
0 0 0 0 0 0 0 0 0 0 0 0 0 0 0 
0 0 0 0 0 0 0 0 0 0 0 0 0 0 0 
0 0 0 0 0 0 0 0 0 0 0 0 0 0 0 
0 0 0 0 0 0 0 0 0 0 0 0 0 0 0 
0 0 0 0 0 0 0 0 0 0 0 0 0 0 0 
0 0 0 0 0 0 0 0 0 0 0 0 0 0 0 
0 0 0 0 0 0 37 63 86 13 105 187 39 50 60 
30 97 157 13 105 188 13 105 188 13 105 188 13 105 188 
32 36 39 0 0 0 0 0 0 0 0 0 0 0 0 
0 0 0 29 34 38 27 106 176 46 78 106 36 84 128 
13 105 188 13 105 188 13 105 188 13 105 188 35 52 67 
0 0 0 0 0 0 0 0 0 0 0 0 0 0 0 
0 0 0 0 0 0 0 0 0 0 0 0 0 0 0 
0 0 0 0 0 0 0 0 0 0 0 0 0 0 0 
0 0 0 0 0 0 0 0 0 0 0 0 0 0 0 
0 0 0 0 0 0 0 0 0 0 0 0 0 0 0 
3 3 3 20 20 20 20 29 37 9 14 18 15 15 15 
0 0 0 0 0 0 0 0 0 0 0 0 0 0 0 
0 0 0 0 0 0 0 0 0 0 0 0 0 0 0 
0 0 0 0 0 0 0 0 0 0 0 0 0 0 0 
0 0 0 0 0 0 0 0 0 0 0 0 0 0 0 
0 0 0 11 11 11 15 15 15 34 43 52 8 12 15 
23 23 23 0 0 0 0 0 0 0 0 0 0 0 0 
0 0 0 0 0 0 0 0 0 0 0 0 0 0 0 
0 0 0 0 0 0 0 0 0 0 0 0 0 0 0 
0 0 0 0 0 0 0 0 0 0 0 0 0 0 0 
0 0 0 0 0 0 0 0 0 0 0 0 0 0 0 
0 0 0 0 0 0 0 0 0 0 0 0 0 0 0 
43 97 145 31 105 172 19 19 19 37 104 164 13 105 188 
13 105 188 13 105 188 13 105 188 24 28 31 0 0 0 
0 0 0 0 0 0 0 0 0 13 14 14 37 96 150 
38 97 150 26 27 28 22 99 167 13 105 188 13 105 188 
13 105 188 28 103 172 12 12 12 0 0 0 0 0 0 
0 0 0 56 83 107 51 118 178 51 118 178 51 118 178 
51 118 178 51 118 178 51 118 178 54 117 173 51 63 74 
0 0 0 0 0 0 54 85 113 51 118 178 51 118 178 
51 118 178 51 118 178 51 118 178 70 114 154 17 17 17 
0 0 0 25 27 28 36 67 95 37 101 158 22 106 182 
21 93 157 24 100 168 20 98 168 43 93 138 32 50 67 
56 111 160 48 52 55 0 0 0 36 53 68 51 117 177 
51 118 178 51 118 178 51 118 178 51 118 178 51 118 178 
51 117 175 65 113 156 10 10 10 0 0 0 0 0 0 
0 0 0 4 4 4 37 49 60 34 82 125 28 101 167 
25 99 167 24 87 143 21 98 167 23 101 171 43 91 134 
41 61 79 52 110 163 28 29 29 0 0 0 0 0 0 
0 0 0 0 0 0 0 0 0 0 0 0 0 0 0 
0 0 0 0 0 0 0 0 0 0 0 0 0 0 0 
0 0 0 0 0 0 0 0 0 0 0 0 0 0 0 
0 0 0 0 0 0 0 0 0 0 0 0 0 0 0 
0 0 0 0 0 0 29 29 29 17 99 173 45 87 125 
0 0 0 45 111 171 13 105 188 13 105 188 13 105 188 
13 105 188 16 19 22 0 0 0 0 0 0 0 0 0 
0 0 0 41 73 103 25 101 171 27 33 38 39 56 72 
13 105 188 13 105 188 13 105 188 13 105 188 43 83 119 
0 0 0 0 0 0 0 0 0 0 0 0 18 20 22 
45 71 95 13 105 188 13 105 188 13 105 188 19 104 181 
47 71 92 24 29 32 4 4 4 0 0 0 0 0 0 
23 28 32 28 60 89 14 103 183 13 105 188 43 96 145 
38 51 62 10 11 12 0 0 0 34 47 58 28 102 168 
13 105 188 28 89 145 26 36 46 12 12 12 21 21 21 
53 75 96 14 105 187 13 105 188 27 103 170 12 13 13 
0 0 0 12 12 12 37 50 62 23 97 163 13 105 188 
13 105 188 13 105 188 44 92 135 37 47 56 11 11 11 
0 0 0 0 0 0 0 0 0 40 49 57 35 93 145 
14 105 187 20 96 165 49 69 87 20 20 20 0 0 0 
16 17 18 45 85 121 13 105 188 13 105 188 39 99 154 
1 1 1 0 0 0 0 0 0 0 0 0 0 0 0 
0 0 0 0 0 0 0 0 0 0 0 0 0 0 0 
0 0 0 0 0 0 0 0 0 0 0 0 0 0 0 
0 0 0 0 0 0 0 0 0 0 0 0 0 0 0 
0 0 0 0 0 0 0 0 0 0 0 0 0 0 0 
34 62 87 13 104 186 27 41 53 0 0 0 52 118 178 
13 105 188 13 105 188 13 105 188 13 105 188 7 13 18 
0 0 0 0 0 0 0 0 0 43 56 67 16 102 179 
35 55 74 0 0 0 49 96 138 13 105 188 13 105 188 
13 105 188 13 105 188 33 43 52 0 0 0 0 0 0 
0 0 0 0 0 0 0 0 0 36 44 52 13 105 188 
13 105 188 13 105 188 30 75 116 0 0 0 0 0 0 
0 0 0 0 0 0 0 0 0 0 0 0 5 5 5 
41 117 184 40 102 157 20 20 20 0 0 0 0 0 0 
34 42 50 20 106 183 13 105 188 37 101 158 12 12 12 
0 0 0 0 0 0 0 0 0 0 0 0 43 95 142 
13 105 188 36 82 124 0 0 0 0 0 0 0 0 0 
3 3 3 34 98 155 13 105 188 13 105 188 23 102 172 
22 24 25 0 0 0 0 0 0 0 0 0 5 5 5 
41 66 89 18 101 175 13 105 188 28 97 159 25 28 31 
0 0 0 0 0 0 0 0 0 0 0 0 18 18 19 
29 105 173 13 105 188 24 51 75 0 0 0 0 0 0 
0 0 0 0 0 0 0 0 0 0 0 0 0 0 0 
0 0 0 0 0 0 0 0 0 0 0 0 0 0 0 
0 0 0 0 0 0 0 0 0 0 0 0 0 0 0 
0 0 0 0 0 0 0 0 0 0 0 0 0 0 0 
0 0 0 0 0 0 3 3 3 39 99 153 27 100 166 
8 8 8 0 0 0 57 124 184 13 105 188 13 105 188 
13 105 188 13 105 188 27 50 71 0 0 0 0 0 0 
18 21 23 28 102 169 42 85 124 6 6 6 21 21 21 
24 102 172 13 105 188 13 105 188 13 105 188 34 104 167 
16 16 16 0 0 0 0 0 0 0 0 0 0 0 0 
0 0 0 32 67 99 13 105 188 13 105 188 13 104 187 
26 40 53 0 0 0 0 0 0 0 0 0 0 0 0 
0 0 0 0 0 0 21 22 24 20 103 178 42 59 74 
0 0 0 0 0 0 15 15 15 32 97 156 13 105 188 
13 105 188 40 77 111 0 0 0 0 0 0 0 0 0 
0 0 0 0 0 0 36 66 93 13 105 187 24 39 53 
0 0 0 0 0 0 0 0 0 22 26 30 16 104 182 
13 105 188 13 105 188 32 80 124 0 0 0 0 0 0 
0 0 0 0 0 0 53 79 103 15 104 184 13 105 188 
18 103 179 38 50 60 0 0 0 0 0 0 0 0 0 
0 0 0 0 0 0 0 0 0 41 95 143 17 104 183 
34 38 42 0 0 0 0 0 0 0 0 0 0 0 0 
0 0 0 28 40 50 6 49 88 19 34 49 0 0 0 
0 0 0 0 0 0 0 0 0 0 0 0 0 0 0 
0 0 0 0 0 0 0 0 0 0 0 0 0 0 0 
0 0 0 0 0 0 0 0 0 0 0 0 0 0 0 
20 23 25 18 104 181 34 77 116 0 0 0 0 0 0 
10 69 123 13 105 188 13 105 188 13 105 188 13 105 188 
48 71 92 0 0 0 4 4 4 41 90 134 29 95 154 
21 21 21 0 0 0 41 58 73 13 104 187 13 105 188 
13 105 188 13 105 188 41 82 120 0 0 0 0 0 0 
0 0 0 0 0 0 0 0 0 5 5 5 28 94 153 
13 105 188 13 105 188 29 106 175 12 12 12 0 0 0 
0 0 0 0 0 0 0 0 0 0 0 0 0 0 0 
42 57 70 23 99 168 22 23 24 0 0 0 0 0 0 
32 49 65 13 105 188 13 105 188 13 105 188 51 99 142 
12 12 12 0 0 0 0 0 0 0 0 0 0 0 0 
18 36 52 26 104 174 22 22 22 0 0 0 0 0 0 
0 0 0 36 68 97 13 105 188 13 105 188 13 105 187 
30 48 65 0 0 0 0 0 0 0 0 0 34 48 61 
16 106 186 13 105 188 13 105 188 40 75 105 0 0 0 
0 0 0 0 0 0 0 0 0 0 0 0 0 0 0 
0 0 0 23 60 94 38 96 149 7 7 7 0 0 0 
0 0 0 0 0 0 20 22 23 39 72 102 19 104 181 
14 105 187 40 55 68 0 0 0 0 0 0 0 0 0 
0 0 0 0 0 0 0 0 0 0 0 0 0 0 0 
0 0 0 0 0 0 0 0 0 0 0 0 0 0 0 
0 0 0 0 0 0 0 0 0 34 64 90 13 105 188 
31 44 55 0 0 0 0 0 0 16 63 105 13 105 188 
13 105 188 13 105 188 13 105 188 39 63 83 0 0 0 
48 74 98 20 101 175 40 47 54 0 0 0 1 1 1 
37 84 125 13 105 188 13 105 188 13 105 188 14 104 185 
43 54 64 0 0 0 0 0 0 0 0 0 0 0 0 
0 0 0 36 43 49 15 104 184 13 105 188 13 105 188 
32 76 115 0 0 0 0 0 0 0 0 0 0 0 0 
0 0 0 0 0 0 0 0 0 45 93 136 31 78 120 
0 0 0 0 0 0 0 0 0 49 93 133 13 105 188 
13 105 188 13 105 188 13 105 187 46 102 153 38 57 73 
17 17 17 0 0 0 0 0 0 20 22 25 44 58 71 
0 0 0 0 0 0 0 0 0 2 2 2 30 91 146 
13 105 188 13 105 188 25 105 177 15 15 15 0 0 0 
0 0 0 24 28 31 27 103 171 13 105 188 13 105 188 
24 102 173 30 31 32 0 0 0 0 0 0 0 0 0 
0 0 0 0 0 0 0 0 0 0 0 0 13 37 58 
26 50 71 0 0 0 40 57 71 32 80 122 40 95 145 
21 99 170 13 105 188 13 105 188 32 102 165 13 13 13 
0 0 0 0 0 0 0 0 0 0 0 0 0 0 0 
0 0 0 0 0 0 0 0 0 0 0 0 0 0 0 
0 0 0 0 0 0 0 0 0 0 0 0 0 0 0 
0 0 0 30 87 139 30 104 169 10 10 10 0 0 0 
0 0 0 23 70 112 13 105 188 13 105 188 13 105 188 
13 105 188 31 54 75 30 35 40 22 104 179 45 72 97 
0 0 0 0 0 0 21 22 22 25 102 171 13 105 188 
13 105 188 13 105 188 29 102 168 8 8 8 0 0 0 
0 0 0 0 0 0 0 0 0 0 0 0 46 81 112 
13 105 188 13 105 188 13 105 188 37 53 67 0 0 0 
0 0 0 0 0 0 0 0 0 0 0 0 0 0 0 
24 24 24 26 100 168 27 43 58 0 0 0 0 0 0 
0 0 0 39 75 108 13 105 188 13 105 188 13 105 188 
13 105 188 13 105 188 13 105 188 24 97 162 44 84 120 
26 29 32 0 0 0 0 0 0 0 0 0 0 0 0 
0 0 0 23 28 33 17 105 184 13 105 188 13 105 188 
35 84 128 0 0 0 0 0 0 0 0 0 45 83 117 
13 105 188 13 105 188 13 105 188 35 77 115 0 0 0 
0 0 0 0 0 0 0 0 0 0 0 0 0 0 0 
0 0 0 0 0 0 0 0 0 0 0 0 0 0 0 
56 72 85 53 86 115 65 98 127 15 104 185 13 105 188 
13 105 188 44 82 116 0 0 0 0 0 0 0 0 0 
0 0 0 0 0 0 0 0 0 0 0 0 0 0 0 
0 0 0 0 0 0 0 0 0 0 0 0 0 0 0 
0 0 0 0 0 0 0 0 0 22 26 30 18 105 183 
40 77 111 0 0 0 0 0 0 0 0 0 30 77 119 
13 105 188 13 105 188 13 105 188 13 105 188 42 67 88 
29 93 152 37 86 130 5 5 5 0 0 0 0 0 0 
32 54 74 13 105 188 13 105 188 13 105 188 13 105 188 
27 66 101 0 0 0 0 0 0 0 0 0 0 0 0 
0 0 0 8 8 8 37 101 159 13 105 188 13 105 188 
29 103 171 10 10 10 0 0 0 0 0 0 0 0 0 
0 0 0 0 0 0 0 0 0 36 53 68 28 105 176 
13 13 13 0 0 0 0 0 0 0 0 0 29 32 34 
25 99 167 13 105 188 13 105 188 13 105 188 13 105 188 
13 105 188 13 105 188 13 105 188 27 106 178 43 53 63 
0 0 0 0 0 0 0 0 0 0 0 0 38 68 95 
13 105 188 13 105 188 13 105 188 36 55 72 0 0 0 
0 0 0 19 19 19 27 105 176 13 105 188 13 105 188 
13 102 182 35 43 49 0 0 0 0 0 0 0 0 0 
0 0 0 0 0 0 0 0 0 0 0 0 0 0 0 
0 0 0 0 0 0 0 0 0 0 0 0 0 0 0 
38 61 82 13 105 188 13 105 188 13 104 185 27 37 46 
0 0 0 0 0 0 0 0 0 0 0 0 0 0 0 
0 0 0 0 0 0 0 0 0 0 0 0 0 0 0 
0 0 0 0 0 0 0 0 0 0 0 0 0 0 0 
0 0 0 46 73 97 14 104 185 32 40 47 0 0 0 
0 0 0 0 0 0 38 84 126 13 105 188 13 105 188 
13 105 188 13 105 188 28 97 159 33 108 176 21 23 25 
0 0 0 0 0 0 0 0 0 37 91 139 13 105 188 
13 105 188 13 105 188 13 105 187 31 43 54 0 0 0 
0 0 0 0 0 0 0 0 0 0 0 0 37 43 48 
13 103 185 13 105 188 13 105 188 42 80 115 0 0 0 
0 0 0 0 0 0 0 0 0 0 0 0 0 0 0 
0 0 0 42 87 127 34 80 121 0 0 0 0 0 0 
0 0 0 0 0 0 0 0 0 37 44 50 40 90 136 
18 101 176 13 105 188 13 105 188 13 105 188 13 105 188 
13 105 188 13 105 188 34 91 142 1 1 1 0 0 0 
0 0 0 2 2 2 43 105 160 13 105 188 13 105 188 
25 99 166 16 17 18 0 0 0 0 0 0 26 45 61 
13 105 188 13 105 188 13 105 188 25 99 165 9 9 9 
0 0 0 0 0 0 0 0 0 0 0 0 0 0 0 
0 0 0 0 0 0 0 0 0 0 0 0 0 0 0 
0 0 0 0 0 0 2 2 2 42 93 138 13 105 188 
13 105 188 30 99 161 5 5 5 0 0 0 0 0 0 
0 0 0 0 0 0 0 0 0 0 0 0 0 0 0 
0 0 0 0 0 0 0 0 0 0 0 0 0 0 0 
0 0 0 0 0 0 0 0 0 0 0 0 44 104 158 
34 105 169 14 14 14 0 0 0 0 0 0 0 0 0 
45 92 134 13 105 188 13 105 188 13 105 188 13 105 188 
17 102 179 40 54 67 0 0 0 0 0 0 0 0 0 
18 20 22 21 102 176 13 105 188 13 105 188 13 105 188 
30 100 164 6 6 6 0 0 0 0 0 0 0 0 0 
0 0 0 0 0 0 38 70 100 13 105 188 13 105 188 
13 105 188 33 42 51 0 0 0 0 0 0 0 0 0 
0 0 0 0 0 0 0 0 0 17 17 17 22 104 179 
36 54 69 0 0 0 0 0 0 4 11 17 3 6 9 
0 0 0 0 0 0 0 0 0 28 32 36 34 62 88 
32 99 159 13 105 188 13 105 188 13 105 188 13 105 188 
33 111 182 21 21 21 0 0 0 0 0 0 41 44 47 
13 101 181 13 105 188 13 105 188 43 86 125 0 0 0 
0 0 0 0 0 0 32 71 107 13 105 188 13 105 188 
13 105 188 30 80 126 0 0 0 0 0 0 0 0 0 
0 0 0 0 0 0 0 0 0 0 0 0 0 0 0 
0 0 0 0 0 0 0 0 0 0 0 0 0 0 0 
23 24 25 19 101 175 13 105 188 13 105 188 34 73 108 
0 0 0 0 0 0 0 0 0 0 0 0 0 0 0 
0 0 0 0 0 0 0 0 0 0 0 0 0 0 0 
0 0 0 0 0 0 0 0 0 0 0 0 0 0 0 
0 0 0 35 41 46 14 101 179 29 72 111 0 0 0 
0 0 0 0 0 0 0 0 0 52 99 141 13 105 188 
13 105 188 13 105 188 13 105 188 40 72 101 1 1 1 
0 0 0 0 0 0 0 0 0 29 50 70 13 105 188 
13 105 188 13 105 188 13 105 188 39 81 119 0 0 0 
0 0 0 0 0 0 0 0 0 0 0 0 5 5 5 
32 97 156 13 105 188 13 105 188 31 108 177 15 15 15 
0 0 0 0 0 0 0 0 0 0 0 0 0 0 0 
0 0 0 42 65 86 35 105 168 13 14 14 0 0 0 
1 1 1 38 94 145 38 72 103 0 0 0 0 0 0 
0 0 0 0 0 0 0 0 0 6 6 6 44 79 110 
13 105 188 13 105 188 13 105 188 40 97 147 0 0 0 
0 0 0 0 0 0 38 68 95 13 105 188 13 105 188 
13 105 188 34 47 58 0 0 0 0 0 0 0 0 0 
9 63 112 13 105 188 13 105 188 13 105 188 41 84 122 
0 0 0 0 0 0 0 0 0 0 0 0 0 0 0 
0 0 0 0 0 0 0 0 0 9 9 9 0 0 0 
0 0 0 0 0 0 0 0 0 38 62 84 13 105 188 
13 105 188 14 105 188 31 40 48 0 0 0 0 0 0 
0 0 0 0 0 0 0 0 0 0 0 0 0 0 0 
0 0 0 0 0 0 0 0 0 0 0 0 0 0 0 
0 0 0 0 0 0 0 0 0 0 0 0 46 83 116 
13 105 188 32 56 77 0 0 0 0 0 0 0 0 0 
0 0 0 35 82 124 13 105 188 13 105 188 13 105 188 
33 94 149 18 18 18 0 0 0 0 0 0 0 0 0 
0 0 0 33 86 133 13 105 188 13 105 188 13 105 188 
14 105 188 30 41 50 0 0 0 0 0 0 0 0 0 
0 0 0 0 0 0 6 6 6 19 100 173 13 105 188 
13 105 188 31 85 133 1 1 1 0 0 0 0 0 0 
0 0 0 0 0 0 0 0 0 12 14 15 35 102 162 
37 62 84 0 0 0 0 0 0 21 25 28 20 105 182 
37 80 120 0 0 0 0 0 0 0 0 0 0 0 0 
0 0 0 0 0 0 17 17 17 13 105 188 13 105 188 
13 105 188 34 55 74 0 0 0 0 0 0 7 7 7 
39 101 155 13 105 188 13 105 188 32 105 171 20 20 20 
0 0 0 0 0 0 0 0 0 28 70 107 13 105 188 
13 105 188 13 105 188 44 87 126 0 0 0 0 0 0 
0 0 0 0 0 0 0 0 0 0 0 0 0 0 0 
29 37 44 59 102 141 9 9 9 0 0 0 0 0 0 
0 0 0 33 90 141 13 105 188 13 105 188 31 100 163 
6 6 6 0 0 0 0 0 0 0 0 0 0 0 0 
0 0 0 0 0 0 0 0 0 0 0 0 0 0 0 
0 0 0 0 0 0 0 0 0 0 0 0 0 0 0 
0 0 0 33 40 46 23 105 179 13 105 188 27 55 80 
0 0 0 0 0 0 0 0 0 0 0 0 9 44 76 
13 105 188 13 105 188 24 104 175 30 34 37 0 0 0 
0 0 0 0 0 0 0 0 0 36 38 40 19 102 176 
13 105 188 13 105 188 13 105 188 33 104 168 10 10 10 
0 0 0 0 0 0 0 0 0 0 0 0 0 0 0 
4 6 8 17 100 175 13 105 188 13 105 188 40 96 147 
1 1 1 0 0 0 0 0 0 0 0 0 0 0 0 
15 15 15 53 95 133 48 102 150 12 12 12 0 0 0 
0 0 0 32 56 77 13 105 188 29 101 166 23 24 24 
0 0 0 0 0 0 0 0 0 0 0 0 0 0 0 
33 67 97 13 105 188 13 105 188 45 99 148 12 12 12 
0 0 0 0 0 0 30 34 38 15 101 179 13 105 188 
13 105 188 40 84 124 0 0 0 0 0 0 0 0 0 
0 0 0 35 52 68 13 105 188 13 105 188 13 105 188 
39 96 147 3 3 3 0 0 0 0 0 0 0 0 0 
0 0 0 7 7 7 46 65 82 33 104 169 46 55 64 
0 0 0 0 0 0 0 0 0 24 28 31 20 107 184 
13 105 188 13 105 188 40 73 104 0 0 0 0 0 0 
0 0 0 0 0 0 0 0 0 0 0 0 0 0 0 
0 0 0 0 0 0 0 0 0 0 0 0 0 0 0 
0 0 0 5 5 5 19 21 23 45 64 81 29 100 163 
13 105 188 13 105 188 33 90 142 35 47 57 7 7 7 
0 0 0 0 0 0 12 39 63 13 105 188 14 103 183 
39 57 74 0 0 0 0 0 0 7 7 7 11 12 12 
33 42 51 29 83 133 13 105 188 13 105 188 13 105 188 
13 105 188 26 107 179 50 57 63 9 9 9 1 1 1 
0 0 0 0 0 0 0 0 0 10 10 10 34 95 150 
13 105 188 13 105 188 19 105 183 38 55 70 5 5 5 
0 0 0 5 5 5 38 45 51 40 93 141 45 102 153 
24 25 26 0 0 0 0 0 0 0 0 0 44 95 141 
13 105 188 13 105 188 46 82 115 11 11 11 0 0 0 
0 0 0 1 1 1 31 42 51 22 102 173 13 105 187 
46 99 148 27 28 30 0 0 0 0 0 0 3 3 3 
44 80 111 13 105 188 13 105 188 13 105 188 36 54 70 
0 0 0 0 0 0 0 0 0 0 0 0 13 13 13 
41 100 152 13 105 188 13 105 188 15 104 184 49 73 94 
13 14 15 5 5 5 6 6 6 33 43 53 38 90 137 
33 98 156 40 49 58 0 0 0 0 0 0 0 0 0 
3 3 3 53 84 112 13 105 188 13 105 188 13 105 188 
31 43 54 0 0 0 0 0 0 1 1 1 13 13 13 
0 0 0 0 0 0 0 0 0 0 0 0 0 0 0 
0 0 0 0 0 0 0 0 0 7 7 7 50 110 165 
17 100 175 13 105 188 13 105 188 13 105 188 13 105 188 
13 105 188 13 105 188 55 99 139 0 0 0 0 0 0 
25 47 67 32 109 178 52 93 130 3 3 3 0 0 0 
8 8 8 65 119 167 25 103 174 13 105 188 13 105 188 
13 105 188 13 105 188 13 105 188 13 105 188 13 105 188 
13 102 183 43 106 162 22 22 22 0 0 0 0 0 0 
0 0 0 0 0 0 26 30 33 36 102 161 13 105 188 
13 105 188 14 104 185 34 104 168 20 75 126 34 104 168 
27 99 163 41 72 100 10 10 10 0 0 0 0 0 0 
0 0 0 21 21 21 22 101 171 40 90 135 28 105 176 
14 105 187 38 89 134 44 79 111 45 81 113 41 88 131 
16 103 181 22 97 164 37 68 97 11 11 11 0 0 0 
25 29 32 22 67 107 42 101 154 14 101 180 13 105 188 
13 105 188 13 105 188 22 100 170 44 89 131 22 22 22 
0 0 0 0 0 0 0 0 0 26 28 30 47 101 149 
13 102 183 13 105 188 13 105 188 31 109 180 34 110 178 
36 112 180 22 102 175 51 88 121 23 23 23 0 0 0 
0 0 0 27 40 52 41 91 136 37 96 150 13 101 181 
13 105 188 13 105 188 13 105 188 21 98 167 42 94 142 
31 33 36 58 58 58 11 11 11 0 0 0 0 0 0 
0 0 0 0 0 0 0 0 0 0 0 0 0 0 0 
0 0 0 7 7 7 4 28 50 3 28 50 3 28 50 
3 28 50 3 28 50 3 28 50 3 28 50 3 28 50 
14 25 35 0 0 0 0 0 0 3 3 3 6 6 6 
3 3 3 0 0 0 0 0 0 3 3 3 6 28 47 
3 28 50 3 28 50 3 28 50 3 28 50 3 28 50 
3 28 50 3 28 50 3 28 50 3 28 50 11 29 45 
0 0 0 0 0 0 0 0 0 0 0 0 0 0 0 
0 0 0 21 21 22 26 44 61 35 76 113 19 64 103 
18 62 102 41 82 119 36 54 71 16 18 19 0 0 0 
0 0 0 0 0 0 0 0 0 0 0 0 10 13 16 
9 23 35 3 3 3 16 18 19 34 52 69 39 80 118 
19 63 103 25 70 110 42 78 111 31 50 66 18 19 19 
0 0 0 0 0 0 0 0 0 13 16 18 3 28 50 
3 28 50 3 28 50 3 28 50 3 28 50 3 28 50 
3 28 50 7 29 49 4 4 4 0 0 0 0 0 0 
0 0 0 0 0 0 6 6 6 30 42 53 39 75 106 
26 70 110 20 65 104 39 82 121 27 47 65 20 22 24 
0 0 0 0 0 0 0 0 0 0 0 0 13 22 30 
3 28 50 3 28 50 3 28 50 3 28 50 3 28 50 
3 28 50 3 28 50 3 28 50 11 12 14 1 1 1 
0 0 0 0 0 0 0 0 0 0 0 0 0 0 0 
0 0 0 0 0 0 0 0 0 0 0 0 0 0 0 
0 0 0 0 0 0 0 0 0 0 0 0 0 0 0 
0 0 0 0 0 0 0 0 0 0 0 0 0 0 0 
0 0 0 0 0 0 0 0 0 0 0 0 0 0 0 
0 0 0 0 0 0 0 0 0 0 0 0 0 0 0 
0 0 0 0 0 0 0 0 0 0 0 0 0 0 0 
0 0 0 0 0 0 0 0 0 0 0 0 0 0 0 
0 0 0 0 0 0 0 0 0 0 0 0 0 0 0 
0 0 0 0 0 0 0 0 0 0 0 0 0 0 0 
0 0 0 0 0 0 0 0 0 0 0 0 0 0 0 
0 0 0 0 0 0 0 0 0 0 0 0 0 0 0 
0 0 0 0 0 0 0 0 0 0 0 0 0 0 0 
0 0 0 0 0 0 0 0 0 0 0 0 0 0 0 
0 0 0 0 0 0 0 0 0 0 0 0 0 0 0 
0 0 0 0 0 0 0 0 0 0 0 0 0 0 0 
0 0 0 0 0 0 0 0 0 0 0 0 0 0 0 
0 0 0 0 0 0 0 0 0 0 0 0 0 0 0 
0 0 0 0 0 0 0 0 0 0 0 0 0 0 0 
0 0 0 0 0 0 0 0 0 0 0 0 0 0 0 
0 0 0 0 0 0 0 0 0 0 0 0 0 0 0 
0 0 0 0 0 0 0 0 0 0 0 0 0 0 0 
0 0 0 0 0 0 0 0 0 0 0 0 0 0 0 
0 0 0 0 0 0 0 0 0 0 0 0 0 0 0 
0 0 0 0 0 0 0 0 0 0 0 0 0 0 0 
0 0 0 0 0 0 0 0 0 0 0 0 0 0 0 
0 0 0 0 0 0 0 0 0 0 0 0 0 0 0 
0 0 0 0 0 0 0 0 0 0 0 0 0 0 0 
0 0 0 0 0 0 0 0 0 0 0 0 0 0 0 
0 0 0 0 0 0 0 0 0 0 0 0 0 0 0 
0 0 0 0 0 0 0 0 0 0 0 0 0 0 0 
0 0 0 0 0 0 0 0 0 0 0 0 0 0 0 
0 0 0 0 0 0 0 0 0 0 0 0 0 0 0 
0 0 0 0 0 0 0 0 0 0 0 0 0 0 0 
0 0 0 0 0 0 0 0 0 0 0 0 0 0 0 
0 0 0 0 0 0 0 0 0 0 0 0 0 0 0 
0 0 0 0 0 0 0 0 0 0 0 0 0 0 0 
0 0 0 0 0 0 0 0 0 0 0 0 0 0 0 
0 0 0 0 0 0 0 0 0 0 0 0 0 0 0 
0 0 0 0 0 0 0 0 0 0 0 0 0 0 0 
0 0 0 0 0 0 0 0 0 0 0 0 0 0 0 
0 0 0 0 0 0 0 0 0 0 0 0 0 0 0 
0 0 0 0 0 0 0 0 0 0 0 0 0 0 0 
0 0 0 0 0 0 0 0 0 0 0 0 0 0 0 
0 0 0 0 0 0 0 0 0 0 0 0 0 0 0 
0 0 0 0 0 0 0 0 0 0 0 0 0 0 0 
0 0 0 0 0 0 0 0 0 0 0 0 0 0 0 
0 0 0 0 0 0 0 0 0 0 0 0 0 0 0 
0 0 0 0 0 0 0 0 0 0 0 0 0 0 0 
0 0 0 0 0 0 0 0 0 0 0 0 0 0 0 
0 0 0 0 0 0 0 0 0 0 0 0 0 0 0 
0 0 0 0 0 0 0 0 0 0 0 0 0 0 0 
0 0 0 0 0 0 0 0 0 0 0 0 0 0 0 
0 0 0 0 0 0 0 0 0 0 0 0 0 0 0 
0 0 0 0 0 0 0 0 0 0 0 0 0 0 0 
0 0 0 0 0 0 0 0 0 0 0 0 0 0 0 
0 0 0 0 0 0 0 0 0 0 0 0 0 0 0 
0 0 0 0 0 0 0 0 0 0 0 0 0 0 0 
0 0 0 0 0 0 0 0 0 0 0 0 0 0 0 
0 0 0 0 0 0 0 0 0 0 0 0 0 0 0 
0 0 0 0 0 0 0 0 0 0 0 0 0 0 0 
0 0 0 0 0 0 0 0 0 0 0 0 0 0 0 
0 0 0 0 0 0 0 0 0 0 0 0 0 0 0 
0 0 0 0 0 0 0 0 0 0 0 0 0 0 0 
0 0 0 0 0 0 0 0 0 0 0 0 0 0 0 
0 0 0 0 0 0 0 0 0 0 0 0 0 0 0 
0 0 0 0 0 0 0 0 0 0 0 0 0 0 0 
0 0 0 0 0 0 0 0 0 0 0 0 0 0 0 
0 0 0 0 0 0 0 0 0 0 0 0 0 0 0 
0 0 0 0 0 0 0 0 0 0 0 0 0 0 0 
0 0 0 0 0 0 0 0 0 0 0 0 0 0 0 
0 0 0 0 0 0 0 0 0 0 0 0 0 0 0 
0 0 0 0 0 0 0 0 0 0 0 0 0 0 0 
0 0 0 0 0 0 0 0 0 0 0 0 0 0 0 
0 0 0 0 0 0 0 0 0 0 0 0 0 0 0 
0 0 0 0 0 0 0 0 0 0 0 0 0 0 0 
0 0 0 0 0 0 0 0 0 0 0 0 0 0 0 
0 0 0 0 0 0 0 0 0 0 0 0 0 0 0 
0 0 0 0 0 0 0 0 0 0 0 0 0 0 0 
0 0 0 0 0 0 0 0 0 0 0 0 0 0 0 
0 0 0 0 0 0 0 0 0 0 0 0 0 0 0 
0 0 0 0 0 0 0 0 0 0 0 0 0 0 0 
0 0 0 0 0 0 0 0 0 0 0 0 0 0 0 
0 0 0 0 0 0 0 0 0 0 0 0 0 0 0 
0 0 0 0 0 0 0 0 0 0 0 0 0 0 0 
0 0 0 0 0 0 0 0 0 0 0 0 0 0 0 
0 0 0 0 0 0 0 0 0 0 0 0 0 0 0 
0 0 0 0 0 0 0 0 0 0 0 0 0 0 0 
0 0 0 0 0 0 0 0 0 0 0 0 0 0 0 
0 0 0 0 0 0 0 0 0 0 0 0 0 0 0 
0 0 0 0 0 0 0 0 0 0 0 0 0 0 0 
0 0 0 0 0 0 0 0 0 0 0 0 0 0 0 
0 0 0 0 0 0 0 0 0 0 0 0 0 0 0 
0 0 0 0 0 0 0 0 0 0 0 0 0 0 0 
0 0 0 0 0 0 0 0 0 0 0 0 0 0 0 
0 0 0 0 0 0 0 0 0 0 0 0 0 0 0 
0 0 0 0 0 0 0 0 0 0 0 0 0 0 0 
0 0 0 0 0 0 0 0 0 0 0 0 0 0 0 
0 0 0 0 0 0 0 0 0 0 0 0 0 0 0 
0 0 0 0 0 0 0 0 0 0 0 0 0 0 0 
0 0 0 0 0 0 0 0 0 0 0 0 0 0 0 
0 0 0 0 0 0 0 0 0 0 0 0 0 0 0 
0 0 0 0 0 0 0 0 0 0 0 0 0 0 0 
0 0 0 0 0 0 0 0 0 0 0 0 0 0 0 
0 0 0 0 0 0 0 0 0 0 0 0 0 0 0 
0 0 0 0 0 0 0 0 0 0 0 0 0 0 0 
0 0 0 0 0 0 0 0 0 0 0 0 0 0 0 
0 0 0 0 0 0 0 0 0 0 0 0 0 0 0 
0 0 0 0 0 0 0 0 0 0 0 0 0 0 0 
0 0 0 0 0 0 0 0 0 0 0 0 0 0 0 
0 0 0 0 0 0 0 0 0 0 0 0 0 0 0 
0 0 0 0 0 0 0 0 0 0 0 0 0 0 0 
0 0 0 0 0 0 0 0 0 0 0 0 0 0 0 
0 0 0 0 0 0 0 0 0 0 0 0 0 0 0 
0 0 0 0 0 0 0 0 0 0 0 0 0 0 0 
0 0 0 0 0 0 0 0 0 0 0 0 0 0 0 
0 0 0 0 0 0 0 0 0 0 0 0 0 0 0 
0 0 0 0 0 0 0 0 0 0 0 0 0 0 0 
0 0 0 0 0 0 0 0 0 0 0 0 0 0 0 
0 0 0 0 0 0 0 0 0 0 0 0 0 0 0 
0 0 0 0 0 0 0 0 0 0 0 0 0 0 0 
0 0 0 0 0 0 0 0 0 0 0 0 0 0 0 
0 0 0 0 0 0 0 0 0 0 0 0 0 0 0 
0 0 0 0 0 0 0 0 0 0 0 0 0 0 0 
0 0 0 0 0 0 0 0 0 0 0 0 0 0 0 
0 0 0 0 0 0 0 0 0 0 0 0 0 0 0 
0 0 0 0 0 0 0 0 0 0 0 0 0 0 0 
0 0 0 0 0 0 0 0 0 0 0 0 0 0 0 
0 0 0 0 0 0 0 0 0 0 0 0 0 0 0 
0 0 0 0 0 0 0 0 0 0 0 0 0 0 0 
0 0 0 0 0 0 0 0 0 0 0 0 0 0 0 
