P3
# Created by IrfanView
30 23
255
0 255 1 0 255 1 0 255 1 0 255 1 0 255 1 
0 255 1 0 255 1 0 255 1 0 255 1 0 255 1 
0 255 1 0 255 1 0 255 1 0 255 1 2 253 3 
2 254 3 1 255 2 0 255 1 0 255 1 0 255 1 
0 255 1 0 255 1 0 255 1 0 255 1 0 255 1 
0 255 1 0 255 1 0 255 1 0 255 1 0 255 1 
0 255 1 0 255 1 0 255 1 0 255 1 0 255 1 
0 255 1 0 255 1 0 255 1 0 255 1 0 255 1 
0 255 1 0 255 1 0 255 1 0 255 1 5 180 5 
23 91 9 4 237 6 0 255 1 0 255 1 0 255 1 
0 255 1 0 255 1 0 255 1 0 255 1 0 255 1 
0 255 1 0 255 1 0 255 1 0 255 1 0 255 1 
0 255 1 0 255 1 0 255 1 0 255 1 0 255 1 
0 255 1 0 255 1 0 255 1 0 255 1 0 255 1 
0 255 1 0 255 1 0 255 1 0 255 1 5 177 5 
188 7 6 91 38 7 8 199 8 1 254 2 0 255 1 
0 255 1 0 255 1 0 255 1 0 255 1 0 255 1 
0 255 1 0 255 1 0 255 1 0 255 1 0 255 1 
0 255 1 0 255 1 0 255 1 0 255 1 0 255 1 
0 255 1 0 255 1 0 255 1 0 255 1 0 255 1 
0 255 1 0 255 1 0 255 1 0 255 1 4 177 5 
208 4 4 253 1 0 155 9 5 20 136 9 3 251 4 
0 255 1 0 255 1 0 255 1 0 255 1 0 255 1 
0 255 1 0 255 1 0 255 1 0 255 1 0 255 1 
0 255 1 0 255 1 0 255 1 0 255 1 0 255 1 
0 255 1 0 255 1 0 255 1 0 255 1 0 255 1 
0 255 1 0 255 1 0 255 1 0 255 1 4 177 5 
208 4 4 254 0 0 253 1 1 209 4 3 55 72 9 
4 228 6 1 255 1 0 255 2 0 255 1 0 255 1 
0 255 1 0 255 1 0 255 1 0 255 1 0 255 1 
1 254 2 4 246 5 4 244 5 4 244 5 4 244 5 
4 244 5 4 244 5 4 244 5 4 244 5 4 244 5 
4 244 5 4 244 5 4 244 5 4 244 5 7 170 8 
208 4 4 254 0 0 254 0 0 253 1 0 243 3 3 
111 27 7 10 178 8 1 254 3 0 255 1 0 255 1 
0 255 1 0 255 1 0 255 1 0 255 1 0 255 1 
1 255 2 54 48 8 141 6 4 141 5 4 141 5 4 
141 5 4 141 5 4 141 5 4 141 5 4 141 5 4 
141 5 4 141 5 4 141 5 4 141 5 4 141 6 4 
235 2 2 254 0 0 254 0 0 254 0 0 254 0 0 
252 1 1 174 6 5 27 115 9 3 247 5 1 255 2 
0 255 1 0 255 1 0 255 1 0 255 1 0 255 1 
0 255 2 94 45 8 253 0 1 254 0 1 254 0 1 
254 0 1 254 0 1 254 0 1 254 0 1 254 0 1 
254 0 1 254 0 1 254 0 1 254 0 1 253 1 1 
253 0 0 254 0 0 254 0 0 254 0 0 254 0 0 
253 1 1 253 0 1 224 3 3 70 54 7 6 214 7 
0 255 2 0 255 1 0 255 1 0 255 1 0 255 1 
0 255 2 94 45 8 254 0 1 254 0 0 254 0 0 
254 0 0 254 0 0 254 0 0 254 0 0 254 0 0 
254 0 0 254 0 0 254 0 0 254 0 0 254 0 0 
254 0 0 254 0 0 254 0 0 254 0 0 254 0 0 
254 0 0 254 0 0 254 0 0 248 2 2 131 17 5 
14 160 9 1 254 2 0 255 1 0 255 1 0 255 1 
0 255 2 94 45 8 254 0 1 254 0 0 254 0 0 
254 0 0 254 0 0 254 0 0 254 0 0 254 0 0 
254 0 0 254 0 0 254 0 0 254 0 0 254 0 0 
254 0 0 254 0 0 254 0 0 254 0 0 254 0 0 
254 0 0 254 0 0 254 0 0 254 0 0 253 1 0 
192 5 4 40 92 8 4 240 5 1 255 2 0 255 1 
0 255 2 94 45 8 254 0 1 254 0 0 254 0 0 
254 0 0 254 0 0 254 0 0 254 0 0 254 0 0 
254 0 0 254 0 0 254 0 0 254 0 0 254 0 0 
254 0 0 254 0 0 254 0 0 254 0 0 254 0 0 
254 0 0 254 0 0 254 0 0 254 0 0 254 0 0 
253 1 1 233 3 3 87 41 7 7 199 7 0 255 2 
0 255 2 94 45 8 254 0 1 254 0 0 254 0 0 
254 0 0 254 0 0 254 0 0 254 0 0 254 0 0 
254 0 0 254 0 0 254 0 0 254 0 0 254 0 0 
254 0 0 254 0 0 254 0 0 254 0 0 254 0 0 
254 0 0 254 0 0 254 0 0 254 0 0 254 0 0 
254 0 0 248 2 2 128 18 6 9 169 8 0 255 1 
0 255 2 94 45 8 254 0 1 254 0 0 254 0 0 
254 0 0 254 0 0 254 0 0 254 0 0 254 0 0 
254 0 0 254 0 0 254 0 0 254 0 0 254 0 0 
254 0 0 254 0 0 254 0 0 254 0 0 254 0 0 
254 0 0 254 0 0 254 0 0 253 0 1 253 1 1 
223 3 3 68 56 8 6 217 8 0 255 1 0 255 1 
0 255 2 94 45 8 254 0 1 254 0 0 254 0 0 
254 0 0 254 0 0 254 0 0 254 0 0 254 0 0 
254 0 0 254 0 0 254 0 0 254 0 0 254 0 0 
254 0 0 254 0 0 254 0 0 254 0 0 254 0 0 
254 0 0 254 0 0 254 0 0 253 1 1 173 7 5 
27 116 10 3 248 5 1 255 2 0 255 1 0 255 1 
0 255 2 94 45 8 254 0 1 254 0 0 254 0 0 
254 0 0 254 0 0 254 0 0 254 0 0 254 0 0 
254 0 0 254 0 0 254 0 0 254 0 0 254 0 0 
254 0 0 254 0 0 254 0 0 254 0 0 254 0 0 
254 0 0 253 0 1 241 3 3 107 28 7 9 179 9 
1 254 2 0 255 1 0 255 1 0 255 1 0 255 1 
1 255 2 70 45 8 184 2 3 184 2 2 184 2 2 
184 2 2 185 2 2 185 2 2 185 2 2 184 2 2 
184 2 2 184 2 2 185 2 2 184 2 2 184 2 3 
243 2 2 254 0 0 254 0 0 254 0 0 254 0 0 
253 1 1 208 4 4 54 72 9 4 229 5 1 255 1 
0 255 1 0 255 1 0 255 1 0 255 1 0 255 1 
1 255 2 7 213 8 8 203 9 7 203 8 7 203 8 
7 203 8 7 203 8 7 203 8 7 203 8 7 203 8 
7 203 8 7 203 8 7 203 8 7 203 8 9 141 9 
208 4 4 254 0 0 254 0 0 254 0 0 252 1 1 
153 10 5 19 137 9 2 252 4 0 255 1 0 255 1 
0 255 1 0 255 1 0 255 1 0 255 1 0 255 1 
0 255 1 0 255 1 0 255 1 0 255 1 0 255 1 
0 255 1 0 255 1 0 255 1 0 255 1 0 255 1 
0 255 1 0 255 1 0 255 1 0 255 1 4 177 5 
208 4 4 254 0 0 253 1 1 233 3 3 89 40 8 
7 200 7 1 255 2 0 255 1 0 255 1 0 255 1 
0 255 1 0 255 1 0 255 1 0 255 1 0 255 1 
0 255 1 0 255 1 0 255 1 0 255 1 0 255 1 
0 255 1 0 255 1 0 255 1 0 255 1 0 255 1 
0 255 1 0 255 1 0 255 1 0 255 1 4 177 5 
208 4 4 253 0 1 193 4 4 38 92 9 4 238 6 
0 255 1 0 255 1 0 255 1 0 255 1 0 255 1 
0 255 1 0 255 1 0 255 1 0 255 1 0 255 1 
0 255 1 0 255 1 0 255 1 0 255 1 0 255 1 
0 255 1 0 255 1 0 255 1 0 255 1 0 255 1 
0 255 1 0 255 1 0 255 1 0 255 1 4 177 5 
203 5 5 131 18 6 14 158 9 2 254 2 1 255 2 
0 255 1 0 255 1 0 255 1 0 255 1 0 255 1 
0 255 1 0 255 1 0 255 1 0 255 1 0 255 1 
0 255 1 0 255 1 0 255 1 0 255 1 0 255 1 
0 255 1 0 255 1 0 255 1 0 255 1 0 255 1 
0 255 1 0 255 1 0 255 1 0 255 1 5 178 6 
44 53 8 6 214 7 0 255 1 0 255 1 0 255 1 
0 255 1 0 255 1 0 255 1 0 255 1 0 255 1 
0 255 1 0 255 1 0 255 1 0 255 1 0 255 1 
0 255 1 0 255 1 0 255 1 0 255 1 0 255 1 
0 255 1 0 255 1 0 255 1 0 255 1 0 255 1 
0 255 1 0 255 1 0 255 1 0 255 1 3 243 4 
3 248 4 0 255 1 0 255 1 0 255 1 0 255 1 
0 255 1 0 255 1 0 255 1 0 255 1 0 255 1 
0 255 1 0 255 1 0 255 1 0 255 1 0 255 1 
0 255 1 0 255 1 0 255 1 0 255 1 0 255 1 
0 255 1 0 255 1 0 255 1 0 255 1 0 255 1 
0 255 1 0 255 1 0 255 1 0 255 1 0 255 1 
0 255 1 0 255 1 0 255 1 0 255 1 0 255 1 
0 255 1 0 255 1 0 255 1 0 255 1 0 255 1 
0 255 1 0 255 1 0 255 1 0 255 1 0 255 1 
