P3
# Created by IrfanView
79 30
255
0 0 0 0 0 0 0 0 0 0 0 0 0 0 0 
0 0 0 0 0 0 0 0 0 1 1 1 0 0 3 
1 1 0 0 2 3 2 0 1 2 0 1 2 0 1 
2 0 1 2 0 1 2 0 1 2 0 1 2 0 1 
2 0 1 2 0 1 2 0 1 2 0 1 2 0 1 
2 0 1 2 0 1 1 0 2 0 1 2 0 0 1 
0 0 3 0 0 4 0 0 0 0 0 0 0 0 0 
0 0 0 0 0 0 0 0 0 0 0 0 0 0 0 
0 0 0 0 0 0 0 0 0 0 0 0 0 0 0 
0 0 0 0 0 0 0 0 0 0 0 0 0 0 0 
0 0 0 0 0 0 0 0 0 0 0 0 0 0 0 
0 0 0 0 0 0 0 0 0 0 0 0 0 0 0 
0 0 0 0 0 0 0 0 0 0 0 0 0 0 0 
0 0 0 0 0 0 0 0 0 0 0 0 0 0 0 
0 0 0 0 0 0 0 0 0 0 0 0 0 0 0 
0 0 0 0 0 0 0 0 0 0 0 0 0 0 0 
0 0 0 0 0 0 0 0 0 0 0 0 0 0 0 
0 0 0 1 0 1 2 0 3 0 1 0 1 2 1 
2 2 3 2 1 1 2 2 1 2 2 1 2 2 1 
2 2 1 2 2 1 2 2 1 2 2 1 2 2 1 
2 2 1 2 2 1 2 2 1 2 2 1 2 1 1 
2 1 1 2 2 1 1 0 11 0 0 3 0 0 1 
0 0 0 0 0 0 0 0 0 0 0 0 0 0 0 
0 0 0 0 0 0 0 0 0 0 0 0 0 0 0 
0 0 0 0 0 0 0 0 0 0 0 0 0 0 0 
0 0 0 0 0 0 0 0 0 0 0 0 0 0 0 
0 0 0 0 0 0 0 0 0 0 0 0 0 0 0 
0 0 0 0 0 0 0 0 0 0 0 0 0 0 0 
0 0 0 0 0 0 0 0 0 0 0 0 0 0 0 
0 0 0 0 0 0 0 0 0 0 0 0 0 0 0 
0 0 0 0 0 0 0 0 0 0 0 0 0 0 0 
0 0 0 0 0 0 0 0 0 0 0 0 0 0 0 
0 0 0 0 0 0 0 0 0 0 0 0 0 0 0 
0 0 1 0 1 5 3 1 4 136 125 69 196 187 32 
195 191 25 195 191 25 195 191 25 195 191 25 195 191 25 
195 191 25 195 191 25 195 191 25 195 191 25 195 191 25 
195 191 25 195 191 25 195 191 25 195 191 25 195 191 25 
177 177 54 9 5 4 1 3 2 1 0 3 1 0 2 
0 0 0 0 0 0 0 0 0 0 0 0 0 0 0 
0 0 0 0 0 0 0 0 0 0 0 0 0 0 0 
0 0 0 0 0 0 0 0 0 0 0 0 0 0 0 
0 0 0 0 0 0 0 0 0 0 0 0 0 0 0 
0 0 0 0 0 0 0 0 0 0 0 0 0 0 0 
0 0 0 0 0 0 0 0 0 0 0 0 0 0 0 
0 0 0 0 0 0 0 0 0 0 0 0 0 0 0 
0 0 0 0 0 0 0 0 0 0 0 0 0 0 0 
0 0 0 0 0 0 0 0 0 0 0 0 0 0 0 
0 0 0 0 0 0 0 0 0 0 0 0 0 0 0 
0 0 0 0 0 0 0 0 0 0 0 0 1 0 0 
2 0 0 0 1 4 41 40 23 181 180 50 252 240 13 
254 242 3 254 241 4 254 242 3 254 241 4 254 242 3 
253 241 12 253 241 11 254 241 5 254 241 3 254 241 3 
254 241 4 253 242 3 254 241 4 254 242 3 199 194 38 
10 4 15 2 3 5 1 1 4 1 0 0 0 0 0 
0 0 0 0 0 0 0 0 0 0 0 0 0 0 0 
0 0 0 0 0 0 0 0 0 0 0 0 0 0 0 
0 0 0 0 0 0 0 0 0 0 0 0 0 0 0 
0 0 0 0 0 0 0 0 0 0 0 0 0 0 0 
0 0 0 0 0 0 0 0 0 0 0 0 0 0 0 
0 0 0 0 0 0 0 0 0 0 0 0 0 0 0 
0 0 0 0 0 0 0 0 0 0 0 0 0 0 0 
0 0 0 0 0 0 0 0 0 0 0 0 0 0 0 
0 0 0 0 0 0 0 0 0 0 0 0 0 0 0 
0 0 0 0 0 0 0 0 0 0 0 0 0 0 0 
0 0 0 0 0 0 0 0 0 0 0 0 0 0 0 
0 0 0 0 0 1 12 13 7 140 134 43 254 241 2 
254 240 7 250 245 1 253 241 4 252 242 11 138 132 52 
86 83 30 108 101 26 115 104 13 137 132 40 163 156 43 
226 223 14 252 242 8 250 242 5 133 131 45 3 3 4 
2 2 2 0 0 0 0 0 0 0 0 0 0 0 0 
0 0 0 0 0 0 0 0 0 0 0 0 0 0 0 
0 0 0 0 0 0 0 0 0 0 0 0 0 0 0 
0 0 0 0 0 0 0 0 0 0 0 0 0 0 0 
0 0 0 0 0 0 0 0 0 0 0 0 0 0 0 
0 0 0 0 0 0 0 0 0 0 0 0 0 0 0 
0 0 0 0 0 0 0 0 0 0 0 0 0 0 0 
0 0 0 0 0 0 0 0 0 0 0 0 0 0 0 
0 0 0 0 0 0 0 0 0 0 0 0 0 0 0 
0 0 0 0 0 0 0 0 0 0 0 0 0 0 0 
0 0 0 0 0 0 0 0 0 0 0 0 0 0 0 
0 0 0 0 0 0 0 0 0 0 0 0 0 0 0 
0 0 0 0 1 1 113 111 41 252 241 5 254 241 5 
254 241 7 255 241 1 235 228 40 39 36 24 3 3 6 
2 1 3 5 1 2 5 5 4 4 3 8 174 174 39 
253 239 2 246 239 22 61 60 32 3 3 3 0 0 0 
0 0 0 0 0 0 0 0 0 0 0 0 0 0 0 
0 0 0 0 0 0 0 0 0 0 0 0 0 0 0 
0 0 0 0 0 0 0 0 0 0 0 0 0 0 0 
0 0 0 0 0 0 0 0 0 0 0 0 0 0 0 
0 0 0 0 0 0 0 0 0 0 0 0 0 0 0 
0 0 0 0 0 0 0 0 0 0 0 0 0 0 0 
0 0 0 0 0 0 0 0 0 0 0 0 0 0 0 
0 0 0 0 0 0 0 0 0 0 0 0 0 0 0 
0 0 0 0 0 0 0 0 0 0 0 0 0 0 0 
0 0 0 0 0 0 0 0 0 0 0 0 0 0 0 
0 0 0 0 0 0 0 0 0 0 0 0 0 0 0 
0 0 0 0 0 0 0 0 0 0 0 0 0 0 0 
1 0 2 170 169 36 251 241 8 253 243 1 253 241 4 
250 241 8 159 156 54 3 6 6 2 3 7 2 1 3 
2 0 7 2 1 5 0 3 6 111 114 35 251 240 9 
236 232 39 10 12 5 0 0 0 0 0 0 0 0 0 
0 0 0 0 0 0 0 0 0 0 0 0 0 0 0 
0 0 0 0 0 0 0 0 0 0 0 0 0 0 0 
0 0 0 0 0 0 0 0 0 0 0 0 0 0 0 
0 0 0 0 0 0 0 0 0 0 0 0 0 0 0 
0 0 0 0 0 0 0 0 0 0 0 0 0 0 0 
0 0 0 0 0 0 0 0 0 0 0 0 0 0 0 
0 0 0 0 0 0 0 0 0 0 0 0 0 0 0 
0 0 0 0 0 0 0 0 0 0 0 0 0 0 0 
0 0 0 0 0 0 0 0 0 0 0 0 0 0 0 
0 0 0 0 0 0 0 0 0 0 0 0 0 0 0 
0 0 0 0 0 0 0 0 0 0 0 0 0 0 0 
0 0 0 0 0 0 0 0 1 0 1 0 12 9 5 
235 230 37 254 240 10 253 242 6 252 242 7 243 240 21 
60 54 32 0 6 4 3 2 6 3 1 0 2 1 2 
2 2 1 1 3 1 53 50 29 246 242 17 172 168 40 
2 1 6 0 0 0 0 0 0 0 0 0 0 0 0 
0 0 1 0 1 0 1 1 1 0 1 1 0 0 2 
0 1 0 0 1 0 1 0 0 0 0 0 0 0 3 
0 0 2 0 0 0 0 0 0 0 0 0 0 0 0 
0 1 0 0 0 0 1 0 1 1 0 1 0 1 1 
0 1 0 0 1 0 0 1 2 2 0 1 2 1 2 
0 1 1 0 1 1 0 0 1 0 1 0 0 1 0 
0 0 1 0 1 1 0 1 0 0 1 0 0 0 2 
0 0 1 0 0 2 0 0 2 1 0 3 0 0 2 
0 1 0 0 1 0 1 0 0 1 0 0 0 0 2 
0 0 3 0 0 0 0 0 0 0 0 0 0 0 0 
0 0 0 0 0 0 0 0 0 0 0 0 0 0 2 
0 1 1 1 1 7 3 4 3 69 67 33 248 242 16 
254 240 12 253 242 1 252 242 3 194 191 51 3 5 7 
0 2 1 0 0 13 1 1 3 3 3 8 4 7 9 
28 32 33 9 4 7 229 226 60 108 107 37 2 2 5 
0 0 0 0 0 0 0 0 0 1 1 1 1 0 8 
17 16 19 40 37 16 43 37 13 41 35 14 40 36 10 
41 35 12 40 37 13 11 9 7 0 2 5 0 2 2 
0 0 1 0 0 0 0 0 0 0 0 0 0 1 6 
0 2 2 5 5 9 5 3 7 16 15 10 56 52 25 
98 95 32 144 140 52 159 155 21 131 130 46 3 6 9 
30 28 15 43 35 9 41 34 11 40 35 8 40 35 10 
40 36 12 43 36 11 42 35 12 27 25 13 1 0 2 
1 3 4 20 23 16 43 37 12 42 35 10 40 36 8 
41 36 9 43 37 12 31 28 21 1 2 6 0 2 4 
0 0 2 0 0 0 0 0 0 0 0 0 0 0 0 
0 0 0 0 0 0 0 0 0 1 0 0 3 0 0 
1 1 5 4 3 7 122 124 41 253 243 2 255 241 4 
254 242 1 249 241 15 88 82 40 1 4 2 1 1 6 
1 0 5 1 2 3 3 4 3 111 106 44 174 176 88 
4 5 5 106 106 81 36 32 36 2 1 2 0 0 0 
0 0 0 0 0 0 3 0 5 1 1 4 58 58 44 
211 208 65 250 242 15 253 242 7 252 240 11 249 241 22 
188 193 57 32 30 26 0 2 6 0 2 4 0 0 3 
0 0 0 0 0 0 0 0 0 2 0 4 2 2 3 
66 64 35 162 156 47 228 220 38 245 240 25 250 241 14 
253 237 8 252 240 6 176 166 51 4 2 2 123 119 66 
238 235 31 251 240 13 252 240 9 252 241 9 253 240 9 
253 237 16 233 227 45 108 107 53 1 0 15 1 5 1 
96 101 51 240 245 20 251 240 12 253 239 8 249 242 16 
218 222 53 105 105 70 1 0 13 0 2 2 0 0 6 
0 0 0 0 0 0 0 0 0 0 0 0 0 0 0 
0 0 0 0 0 0 1 0 0 2 0 0 0 0 2 
11 4 6 196 195 49 254 241 6 254 241 2 251 241 6 
220 214 48 18 18 12 3 5 4 3 0 9 3 2 2 
3 9 5 70 67 32 232 224 36 142 139 53 4 4 6 
1 4 3 1 0 4 1 0 0 0 0 0 0 0 0 
0 0 0 0 1 4 0 4 1 2 4 6 28 24 14 
183 174 53 249 243 7 244 240 19 87 84 30 11 7 8 
2 1 1 0 2 5 1 1 3 0 0 0 0 0 0 
1 1 1 2 2 2 34 33 19 172 169 46 250 240 23 
251 239 6 242 232 40 179 180 39 145 140 51 243 242 20 
249 240 12 128 127 29 0 2 8 3 1 4 95 91 34 
245 238 16 255 238 7 254 242 4 247 243 7 171 166 49 
31 31 15 2 4 8 1 1 5 1 3 7 29 20 17 
239 229 45 250 241 11 229 220 38 123 116 39 20 14 12 
3 0 3 0 1 4 1 1 6 1 0 1 0 0 0 
0 0 0 0 0 0 0 0 0 0 0 0 0 0 0 
0 0 0 0 0 1 0 0 7 0 2 1 33 25 15 
242 236 32 253 243 1 253 242 7 249 242 14 127 121 45 
2 5 7 5 4 5 6 0 3 3 1 3 31 32 17 
211 204 42 248 239 15 64 65 27 4 3 2 4 0 5 
1 0 1 0 0 2 0 0 0 0 0 0 0 0 0 
1 0 1 5 0 6 8 1 5 34 37 23 213 213 41 
252 240 4 246 239 30 18 17 12 0 1 3 0 1 0 
0 0 7 5 0 2 1 0 0 0 0 0 1 4 2 
29 27 12 197 198 47 249 242 5 244 235 26 160 162 56 
43 43 30 1 5 8 17 13 7 225 218 41 249 239 18 
85 78 37 0 3 6 4 1 1 4 6 3 232 224 53 
255 241 3 254 241 4 249 241 14 75 74 31 2 6 2 
4 2 11 1 0 9 7 9 11 167 163 57 252 239 11 
237 226 48 71 70 28 2 2 14 1 3 3 0 1 0 
0 0 6 3 0 6 3 0 0 0 0 0 0 0 0 
0 0 0 0 0 0 0 0 0 0 0 0 0 0 0 
0 1 0 1 0 10 0 3 0 75 76 30 251 239 11 
254 240 9 252 242 1 245 234 31 98 98 39 104 103 42 
115 112 29 113 112 24 113 110 27 197 195 37 252 238 15 
224 216 34 9 9 4 0 0 0 0 0 0 0 0 0 
0 0 0 0 0 0 0 0 0 0 0 0 1 0 6 
0 1 4 14 12 10 178 174 49 250 243 10 255 241 1 
245 239 32 53 51 29 0 1 2 0 0 0 0 0 0 
0 0 0 1 1 1 2 0 7 9 14 7 205 198 58 
250 242 5 248 241 18 101 99 39 1 4 2 1 0 2 
0 1 7 6 3 3 162 160 35 246 239 30 36 31 19 
0 2 8 3 1 4 6 4 6 171 172 31 254 241 5 
255 240 3 250 244 6 58 54 17 0 2 3 2 2 5 
3 5 11 115 117 35 250 240 13 247 241 28 75 69 38 
2 3 6 0 1 3 1 0 0 0 0 0 0 0 0 
0 0 0 0 0 0 0 0 0 0 0 0 0 0 0 
0 0 0 0 0 0 0 0 0 0 0 0 0 0 1 
1 0 1 1 0 6 155 153 49 250 242 5 254 240 13 
254 242 2 252 239 9 251 242 5 253 241 6 253 240 9 
253 241 5 252 243 2 252 241 4 251 238 11 165 163 41 
2 2 5 0 0 0 0 0 0 0 0 0 0 0 0 
0 0 0 0 0 0 0 0 0 0 1 2 1 2 9 
122 124 46 247 239 11 254 239 7 255 239 4 250 240 17 
56 55 18 0 1 0 0 0 0 0 0 0 0 0 0 
0 0 2 1 0 4 99 95 39 249 242 11 252 241 4 
202 196 43 6 9 2 5 2 17 2 0 2 0 2 1 
2 4 9 95 100 51 202 209 60 5 5 7 0 1 7 
3 1 4 4 3 6 116 114 35 251 241 7 254 241 2 
251 244 4 57 56 13 1 2 4 0 4 4 88 90 40 
243 235 21 247 239 35 120 120 46 4 3 14 1 5 3 
0 0 11 2 0 0 0 0 0 0 0 0 0 0 0 
0 0 0 0 0 0 0 0 0 0 0 0 0 0 0 
0 0 0 0 0 0 0 0 0 1 0 0 2 1 0 
2 2 1 217 212 42 252 242 3 254 242 2 245 239 27 
183 178 48 193 183 16 191 183 20 224 217 45 237 232 37 
248 240 22 255 239 5 249 242 13 89 89 42 2 1 10 
0 0 0 0 0 0 0 0 0 0 0 0 0 0 0 
0 0 0 0 0 0 1 4 1 74 71 34 236 233 27 
252 239 14 247 238 26 251 238 8 251 242 2 62 58 19 
0 0 3 0 0 0 0 0 0 0 0 0 1 1 6 
1 2 2 161 153 34 254 240 8 252 243 4 217 212 31 
23 22 10 4 4 7 1 0 0 0 1 1 2 3 4 
10 11 14 59 57 63 3 4 4 0 1 1 1 2 2 
3 3 8 72 69 32 246 240 15 251 241 7 246 237 38 
47 45 25 4 4 6 99 95 47 237 238 25 249 242 8 
147 147 45 4 2 11 0 1 1 0 2 0 0 0 8 
0 0 1 0 0 0 0 0 0 0 0 0 0 0 0 
0 0 0 0 0 0 0 0 0 0 0 0 0 0 0 
0 0 0 0 0 0 1 0 0 2 2 4 36 36 14 
245 236 27 252 239 9 254 240 5 198 198 58 3 5 2 
5 1 3 1 2 2 2 3 4 7 6 1 113 114 18 
253 240 9 229 228 45 16 14 14 4 2 1 0 0 0 
0 0 0 0 0 0 0 1 0 0 0 0 1 0 1 
0 1 1 34 34 29 212 208 41 254 238 7 245 240 38 
140 135 54 246 240 11 253 241 5 65 58 19 0 1 0 
0 0 0 0 0 0 0 0 0 2 1 0 1 1 11 
164 159 26 253 241 2 250 243 4 250 241 5 193 192 50 
37 35 21 1 1 6 3 1 4 4 2 3 5 4 6 
3 2 6 3 1 10 1 0 1 0 1 3 1 1 8 
21 19 15 234 230 32 253 243 6 240 239 34 29 31 23 
100 102 40 244 240 27 253 239 10 168 163 55 11 13 12 
4 1 0 2 0 2 2 0 8 0 0 0 0 0 0 
0 0 0 0 0 0 0 0 0 0 0 0 0 0 0 
0 0 0 0 0 0 0 0 0 0 0 0 0 0 0 
0 0 0 1 0 0 2 4 6 97 96 33 254 239 4 
254 240 3 248 240 14 83 86 31 1 0 6 0 1 2 
0 0 0 0 0 0 0 0 0 85 87 41 251 238 19 
157 157 45 4 6 4 1 3 3 0 0 0 0 0 0 
0 0 0 0 0 1 0 0 2 3 1 6 13 14 8 
173 172 46 251 242 6 246 237 16 104 100 44 106 109 35 
249 241 10 251 240 5 77 73 33 0 2 0 0 0 0 
0 0 0 0 0 0 0 1 2 0 1 5 127 125 38 
249 241 11 254 240 3 255 240 7 249 242 4 230 225 38 
108 110 43 10 6 7 1 1 3 1 1 5 0 0 1 
0 0 0 0 0 0 0 1 0 0 1 2 3 1 4 
189 190 41 254 240 3 240 234 35 105 107 36 240 242 30 
252 239 8 214 206 63 21 18 17 0 3 1 0 0 2 
0 0 0 0 0 0 0 0 0 0 0 0 0 0 0 
0 0 0 0 0 0 0 0 0 0 0 0 0 0 0 
0 0 0 0 0 0 0 0 0 0 0 0 0 0 0 
0 0 1 4 2 3 172 169 43 254 239 4 254 241 4 
222 218 45 16 13 14 2 0 6 0 0 2 0 0 0 
0 0 0 0 0 0 37 39 11 244 239 26 90 92 44 
5 6 5 9 12 13 2 2 2 1 1 1 0 0 0 
5 0 7 2 2 3 3 3 10 127 119 47 250 241 20 
248 242 17 154 147 54 5 5 8 167 166 42 253 242 2 
250 241 3 108 108 48 0 1 0 0 0 0 0 0 0 
0 0 0 0 1 5 0 1 8 23 22 12 207 208 64 
251 240 11 254 239 7 253 239 8 249 241 10 248 240 20 
162 161 55 17 17 15 0 3 2 0 0 0 0 0 0 
0 0 0 0 0 1 0 1 1 1 1 1 144 145 43 
251 241 2 251 241 13 250 237 26 250 241 10 210 206 37 
31 30 18 1 4 3 1 0 13 2 0 1 0 0 0 
0 0 0 0 0 0 0 0 0 0 0 0 0 0 0 
0 0 0 0 0 0 0 0 0 0 0 0 0 0 0 
0 0 0 0 0 0 0 0 0 0 0 0 0 0 2 
12 7 6 228 221 42 254 240 6 251 240 12 132 129 50 
2 3 6 2 1 2 0 1 1 0 0 0 0 0 0 
0 0 0 23 23 19 203 198 127 15 18 7 103 94 55 
165 172 114 3 3 3 1 1 1 0 0 0 4 1 3 
5 5 6 75 74 32 238 231 29 251 240 6 175 169 52 
7 9 4 3 4 13 208 201 42 255 241 1 251 243 3 
117 117 35 1 0 0 0 0 0 0 0 0 0 0 0 
1 0 2 0 0 7 4 6 3 13 10 10 158 155 47 
243 241 28 252 242 4 254 242 2 254 241 2 250 242 12 
171 170 54 4 4 8 0 0 0 0 0 0 0 0 0 
0 0 0 1 1 0 0 1 3 85 84 34 249 241 15 
254 240 3 254 241 2 232 228 42 73 71 34 0 2 2 
1 0 11 1 1 4 1 2 0 0 0 0 0 0 0 
0 0 0 0 0 0 0 0 0 0 0 0 0 0 0 
0 0 0 0 0 0 0 0 0 0 0 0 0 0 0 
0 0 0 0 0 0 0 0 0 0 0 1 68 64 28 
249 242 17 253 243 1 243 234 35 31 29 14 2 4 2 
2 0 2 0 0 4 0 0 1 1 0 0 1 0 2 
1 2 2 4 3 14 57 58 22 242 238 39 116 116 46 
1 1 3 1 1 2 0 0 2 1 4 0 35 35 27 
213 209 41 253 240 5 251 240 16 163 157 46 100 103 28 
88 81 19 238 228 23 255 241 3 252 243 2 122 119 24 
2 0 0 0 0 2 0 2 0 0 3 0 3 1 2 
0 1 1 5 3 11 2 3 3 3 3 5 87 84 36 
215 212 35 252 240 9 251 241 13 255 239 3 239 233 26 
26 26 22 0 0 0 0 0 0 0 0 0 0 0 0 
2 0 4 0 1 5 60 56 24 247 241 22 255 242 2 
248 241 15 84 81 26 1 2 11 0 0 1 3 0 2 
0 1 2 0 0 6 0 0 0 0 0 0 0 0 0 
0 0 0 0 0 0 0 0 0 0 0 0 0 0 0 
0 0 0 0 0 0 0 0 0 0 0 0 0 0 0 
0 0 0 0 0 0 1 1 2 121 122 43 250 242 6 
250 240 10 151 147 36 3 3 3 2 2 2 0 0 0 
0 0 1 0 0 2 1 0 7 1 1 2 2 3 2 
46 48 25 223 220 45 237 232 49 22 19 11 0 0 2 
1 0 3 0 0 3 6 7 11 177 173 58 249 240 12 
248 238 16 251 241 7 255 240 5 249 241 18 249 240 10 
254 240 9 254 242 2 254 241 3 121 118 25 0 0 5 
3 0 3 2 4 7 24 20 24 11 7 10 1 3 7 
4 0 2 1 1 2 0 1 6 0 0 8 35 36 24 
223 215 41 254 242 3 253 242 6 241 232 31 29 27 22 
0 0 0 0 0 0 0 0 0 1 0 0 1 0 3 
1 2 0 158 154 48 249 241 8 254 241 2 246 236 28 
39 35 16 1 1 6 0 0 0 0 0 0 0 0 0 
0 0 0 0 0 0 0 0 0 0 0 0 0 0 0 
0 0 0 0 0 0 0 0 0 0 0 0 0 0 0 
0 0 0 0 0 0 0 0 0 0 0 0 0 0 0 
0 0 0 2 2 1 176 178 34 253 238 7 246 239 27 
56 56 29 2 2 2 1 1 1 0 0 0 1 0 0 
1 0 4 0 2 5 0 2 4 23 21 23 192 190 46 
251 243 6 152 147 36 3 2 6 1 1 1 0 1 9 
2 2 5 115 120 46 249 238 13 235 228 35 92 90 37 
194 190 57 194 189 51 115 115 34 123 113 46 251 243 4 
254 242 3 254 240 5 140 138 36 0 1 2 1 0 8 
5 4 4 204 199 61 109 106 45 2 8 4 1 1 2 
0 0 6 2 0 4 2 3 2 2 5 6 157 155 34 
254 240 5 252 242 6 200 195 47 5 3 4 0 0 0 
0 0 0 0 0 0 0 0 1 1 2 3 35 29 17 
240 237 37 252 240 4 254 242 4 213 208 34 5 1 4 
1 1 3 0 0 0 0 0 0 0 0 0 0 0 0 
0 0 0 0 0 0 0 0 0 0 0 0 0 0 0 
0 0 0 0 0 0 0 0 0 0 0 0 0 0 0 
0 0 0 0 0 0 0 0 0 0 0 0 2 2 2 
29 27 15 234 227 35 251 240 7 190 184 41 3 5 3 
0 0 0 0 0 0 0 0 0 1 0 2 1 0 2 
1 3 4 10 8 5 154 150 51 249 242 10 245 237 29 
41 38 25 3 3 9 0 1 2 2 1 14 74 69 31 
234 231 36 242 233 28 104 99 48 4 6 6 4 3 8 
4 4 9 2 7 6 106 111 29 250 243 6 254 241 3 
254 241 3 167 167 40 1 0 6 0 1 2 6 4 4 
213 203 22 211 201 47 7 8 3 0 2 2 1 0 8 
2 3 9 10 5 8 72 67 37 236 231 29 252 240 8 
246 239 26 89 90 33 5 3 11 0 0 0 0 0 0 
0 0 0 0 1 2 4 3 5 129 123 40 249 242 7 
254 241 2 249 241 5 166 164 43 0 1 1 1 0 0 
0 0 0 0 0 0 0 0 0 0 0 0 0 0 0 
0 0 0 0 0 0 0 0 0 0 0 0 0 0 0 
0 0 0 0 0 0 0 0 1 0 0 2 0 1 0 
2 0 1 3 1 3 1 3 1 10 9 4 121 113 41 
253 238 12 248 243 13 93 84 33 5 4 2 2 1 3 
4 2 3 37 32 20 41 38 13 86 83 31 98 94 26 
151 143 30 247 241 16 251 240 12 180 177 45 5 8 4 
2 5 2 1 2 1 32 31 17 214 208 50 247 242 12 
137 137 46 2 5 4 2 2 5 5 1 10 3 3 8 
4 4 6 165 151 43 254 241 3 253 241 6 254 242 2 
176 177 30 3 1 2 1 3 2 18 13 23 234 225 37 
250 239 15 79 75 41 0 6 4 0 1 7 27 28 17 
137 131 47 236 232 28 253 240 5 247 242 17 165 155 59 
7 8 12 1 3 1 0 0 1 2 0 5 2 1 3 
1 2 1 25 21 12 229 226 44 252 243 2 254 240 2 
250 242 10 104 101 41 1 3 4 3 1 6 0 0 0 
0 0 0 0 0 0 0 0 0 0 0 0 0 0 0 
0 0 0 0 0 0 0 0 0 0 0 0 0 0 0 
0 0 0 0 1 3 0 0 12 0 1 1 3 0 6 
8 8 5 84 84 31 201 198 40 250 239 18 253 240 12 
242 236 27 163 156 40 174 172 47 217 210 37 225 219 15 
247 236 32 247 239 24 246 242 20 250 244 4 254 241 3 
254 240 6 246 242 15 78 75 31 2 3 4 5 5 4 
47 43 36 175 171 50 249 242 5 178 173 51 9 11 8 
0 2 3 2 0 6 5 5 2 2 7 8 21 20 12 
196 191 23 253 242 1 253 241 7 252 240 8 202 201 24 
14 9 5 2 5 9 25 25 9 246 238 31 250 242 6 
187 184 58 80 75 27 164 155 53 238 230 34 250 239 9 
249 242 7 234 231 32 128 122 45 12 9 8 0 1 2 
1 1 6 1 1 1 1 2 2 4 5 4 41 41 20 
173 168 56 249 241 16 255 240 4 255 239 6 248 239 28 
56 52 28 2 7 6 2 3 7 0 0 0 0 0 0 
0 0 0 0 0 0 0 0 0 0 0 0 0 0 0 
0 0 0 0 0 0 0 0 0 0 0 0 0 0 0 
0 1 3 0 3 2 13 14 18 77 81 29 200 196 43 
251 239 16 253 237 8 252 242 2 251 241 12 253 242 7 
252 241 5 253 240 7 253 241 2 253 241 5 253 240 9 
252 240 2 254 240 2 254 240 3 255 241 2 254 240 5 
208 199 46 10 12 6 42 46 30 156 155 59 236 232 38 
254 239 12 254 239 9 242 238 17 152 147 52 23 20 13 
1 1 5 36 35 27 149 146 57 232 224 47 250 241 12 
254 239 7 254 242 0 254 237 10 249 241 14 210 205 57 
35 32 26 26 24 9 251 237 29 254 237 6 249 240 10 
247 243 16 251 241 13 247 239 16 224 212 51 147 141 42 
34 32 19 6 3 12 1 2 7 0 2 0 2 0 8 
2 3 9 33 36 37 146 146 57 242 232 33 252 241 7 
253 239 3 255 239 6 255 240 3 252 238 15 203 200 56 
56 55 33 3 4 4 0 0 0 0 0 0 0 0 0 
0 0 0 0 0 0 0 0 0 0 0 0 0 0 0 
0 0 0 0 0 0 0 0 0 0 0 0 0 1 8 
0 3 3 41 43 43 124 131 46 144 134 15 147 133 14 
143 135 15 138 137 19 141 135 16 143 134 18 144 133 18 
144 132 20 139 136 17 138 138 14 138 138 13 140 136 15 
144 135 14 143 134 16 143 134 19 140 135 19 81 80 37 
3 6 5 84 86 67 136 136 31 143 134 20 144 133 18 
143 135 14 146 135 14 141 134 30 59 56 38 0 1 5 
86 84 43 141 136 22 146 134 14 146 132 23 144 135 15 
138 138 12 144 135 15 143 136 13 139 137 17 63 61 38 
64 62 43 240 237 37 240 233 39 195 189 35 168 168 44 
120 121 45 64 66 34 13 13 6 5 5 4 2 4 1 
0 3 0 0 1 1 0 0 2 1 1 0 3 6 8 
80 82 61 137 135 29 148 132 16 146 134 14 144 133 19 
142 135 17 141 137 13 141 137 12 138 138 17 95 94 46 
4 2 12 0 0 0 0 0 0 0 0 0 0 0 0 
0 0 0 0 0 0 0 0 0 0 0 0 0 0 0 
0 0 0 0 0 0 0 0 0 0 0 3 0 0 10 
2 2 2 3 1 3 0 1 4 0 3 0 0 1 2 
2 0 0 0 0 2 0 0 3 0 0 4 0 2 0 
0 1 0 1 0 1 2 0 0 1 0 3 0 0 3 
0 1 0 0 1 0 1 2 0 1 4 3 2 4 2 
2 2 6 4 1 0 1 1 0 0 3 0 0 1 1 
1 2 7 1 4 0 0 1 4 1 2 0 3 1 4 
1 1 5 1 2 3 0 1 3 0 1 1 0 2 4 
1 1 1 1 0 3 2 2 4 1 3 8 5 8 5 
15 14 4 12 13 6 3 4 0 2 0 9 2 4 2 
3 1 5 2 2 1 1 1 13 0 2 5 0 0 4 
0 0 0 0 0 2 0 0 2 1 1 4 3 1 5 
1 3 0 0 3 1 0 0 3 0 1 1 0 2 0 
0 0 8 0 1 3 1 0 10 2 2 8 0 3 0 
0 0 0 0 0 0 0 0 0 0 0 0 0 0 0 
0 0 0 0 0 0 0 0 0 0 0 0 0 0 0 
0 0 0 0 0 0 0 0 0 0 0 0 0 0 0 
0 0 0 0 0 0 0 0 0 0 0 0 0 0 0 
0 0 0 0 0 0 0 0 0 0 0 0 0 0 0 
0 0 0 0 0 0 0 0 0 0 0 0 0 0 0 
0 0 0 0 0 0 0 0 0 0 0 0 0 0 0 
0 0 0 0 0 0 0 0 0 0 0 0 0 0 0 
0 0 0 0 0 0 0 0 0 0 0 0 0 0 0 
0 0 0 0 0 0 0 0 0 0 0 0 0 0 0 
0 0 0 0 0 0 0 0 0 0 0 0 0 0 0 
0 0 0 0 0 0 0 0 0 0 0 0 0 0 0 
0 0 0 0 0 0 0 0 0 0 0 0 0 0 0 
0 0 0 0 0 0 0 0 0 0 0 0 0 0 0 
0 0 0 0 0 0 0 0 0 0 0 0 0 0 0 
0 0 0 0 0 0 0 0 0 0 0 0 0 0 0 
0 0 0 0 0 0 0 0 0 0 0 0 0 0 0 
0 0 0 0 0 0 0 0 0 0 0 0 0 0 0 
0 0 0 0 0 0 0 0 0 0 0 0 0 0 0 
0 0 0 0 0 0 0 0 0 0 0 0 0 0 0 
0 0 0 0 0 0 0 0 0 0 0 0 0 0 0 
0 0 0 0 0 0 0 0 0 0 0 0 0 0 0 
0 0 0 0 0 0 0 0 0 0 0 0 0 0 0 
0 0 0 0 0 0 0 0 0 0 0 0 0 0 0 
0 0 0 0 0 0 0 0 0 0 0 0 0 0 0 
0 0 0 0 0 0 0 0 0 0 0 0 0 0 0 
0 0 0 0 0 0 0 0 0 0 0 0 0 0 0 
0 0 0 0 0 0 0 0 0 0 0 0 0 0 0 
0 0 0 0 0 0 0 0 0 0 0 0 0 0 0 
0 0 0 0 0 0 0 0 0 0 0 0 0 0 0 
0 0 0 0 0 0 0 0 0 0 0 0 0 0 0 
0 0 0 0 0 0 0 0 0 0 0 0 0 0 0 
0 0 0 0 0 0 0 0 0 0 0 0 0 0 0 
0 0 0 0 0 0 0 0 0 0 0 0 0 0 0 
