P3
# Created by IrfanView
70 30
255
0 0 0 0 0 0 0 0 0 0 0 0 0 0 0 
0 0 0 0 0 0 0 1 1 0 1 0 3 0 5 
1 0 6 0 1 1 0 0 2 0 0 2 0 0 2 
0 0 2 0 0 2 0 0 2 0 0 2 0 0 2 
0 0 2 0 0 2 0 0 2 2 0 3 0 0 8 
0 1 1 0 0 7 0 0 0 0 0 0 0 0 0 
0 0 0 0 0 0 0 0 0 0 0 0 0 0 0 
0 0 0 0 0 0 0 0 0 0 0 0 0 0 0 
0 0 0 0 0 0 0 0 0 0 0 0 0 0 0 
0 0 0 0 0 0 0 0 0 0 0 0 0 0 0 
0 0 0 0 0 0 0 0 0 0 0 0 0 0 0 
0 0 0 0 0 0 0 0 0 0 0 0 0 0 0 
0 0 0 0 0 0 0 0 0 0 0 0 0 0 0 
0 0 0 0 0 0 0 0 0 0 0 0 0 0 0 
0 0 0 0 0 0 0 0 0 0 0 0 0 0 0 
0 0 0 0 0 0 0 1 0 0 1 2 3 0 0 
3 1 2 1 1 4 0 1 3 0 1 3 0 1 3 
0 1 3 0 1 3 0 1 3 0 1 3 0 1 3 
0 1 3 0 1 3 0 1 3 0 1 2 1 1 3 
1 0 6 1 1 3 0 0 0 0 0 0 0 0 0 
0 0 0 0 0 0 0 0 0 0 0 0 0 0 0 
0 0 0 0 0 0 0 0 0 0 0 0 0 0 0 
0 0 0 0 0 0 0 0 0 0 0 0 0 0 0 
0 0 0 0 0 0 0 0 0 0 0 0 0 0 0 
0 0 0 0 0 0 0 0 0 0 0 0 0 0 0 
0 0 0 0 0 0 0 0 0 0 0 0 0 0 0 
0 0 0 0 0 0 0 0 0 0 0 0 0 0 0 
0 0 0 0 0 0 0 0 0 0 0 0 0 0 0 
0 0 0 0 0 0 0 0 0 0 0 0 0 0 0 
0 0 0 0 0 0 1 2 0 3 2 10 63 60 36 
95 90 22 96 87 23 92 86 23 92 86 23 92 86 23 
92 86 23 92 86 23 92 86 23 92 86 23 92 86 23 
92 86 23 92 86 23 92 86 23 89 87 24 94 87 22 
94 89 26 47 43 25 0 0 0 0 0 0 0 0 0 
0 0 0 0 0 0 0 0 0 0 0 0 0 0 0 
0 0 0 0 0 0 0 0 0 0 0 0 0 0 0 
0 0 0 0 0 0 0 0 0 0 0 0 0 0 0 
0 0 0 0 0 0 0 0 0 0 0 0 0 0 0 
0 0 0 0 0 0 0 0 0 0 0 0 0 0 0 
0 0 0 0 0 0 0 0 0 0 0 0 0 0 0 
0 0 0 0 0 0 0 0 0 0 0 0 0 0 0 
0 0 0 0 0 0 0 0 0 0 0 0 0 0 0 
0 0 0 0 0 0 0 0 0 0 0 0 0 0 0 
0 0 0 0 0 0 1 2 0 4 3 12 102 98 50 
233 228 36 252 241 7 253 241 6 254 241 5 253 241 5 
253 241 7 253 241 5 252 241 7 253 241 6 253 241 5 
253 241 6 253 240 7 253 241 6 251 241 12 253 241 6 
247 243 11 113 110 42 0 0 0 0 0 0 0 0 0 
0 0 0 0 0 0 0 0 0 0 0 0 0 0 0 
0 0 0 0 0 0 0 0 0 0 0 0 0 0 0 
0 0 0 0 0 0 0 0 0 0 0 0 0 0 0 
0 0 0 0 0 0 0 0 0 0 0 0 0 0 0 
0 0 0 0 0 0 0 0 0 0 0 0 0 0 0 
0 0 0 0 0 0 0 0 0 0 0 0 0 0 0 
0 0 0 0 0 0 0 0 0 0 0 0 0 0 0 
0 0 0 0 0 0 0 0 0 0 0 0 0 0 0 
0 0 0 0 0 0 0 0 0 0 0 0 0 0 0 
0 0 0 0 0 0 1 0 5 1 1 1 2 2 9 
64 57 33 208 200 35 251 240 12 254 241 1 254 242 1 
253 242 5 251 240 10 173 170 36 188 180 46 201 193 19 
200 194 17 231 227 37 241 237 31 253 241 9 252 242 5 
246 239 24 56 55 25 0 0 0 0 0 0 0 0 0 
0 0 0 0 0 0 0 0 0 0 0 0 0 0 0 
0 0 0 0 0 0 0 0 0 0 0 0 0 0 0 
0 0 0 0 0 0 0 0 0 0 0 0 0 0 0 
0 0 0 0 0 0 0 0 0 0 0 0 0 0 0 
0 0 0 0 0 0 0 0 0 0 0 0 0 0 0 
0 0 0 0 0 0 0 0 0 0 0 0 0 0 0 
0 0 0 0 0 0 0 0 0 0 0 0 0 0 0 
0 0 0 0 0 0 0 0 0 0 0 0 0 0 0 
0 0 0 0 0 0 0 0 0 0 0 0 0 0 0 
0 0 0 0 0 0 1 0 0 1 0 1 0 2 5 
3 4 6 109 104 31 248 242 18 253 241 5 254 241 6 
252 241 6 233 231 45 27 26 21 3 5 3 3 1 6 
2 0 4 11 11 5 32 32 9 250 241 17 253 239 6 
215 213 31 5 4 9 0 0 0 0 0 0 0 0 0 
0 0 0 0 0 0 0 0 0 0 0 0 0 0 0 
0 0 0 0 0 0 0 0 0 0 0 0 0 0 0 
0 0 0 0 0 0 0 0 0 0 0 0 0 0 0 
0 0 0 0 0 0 0 0 0 0 0 0 0 0 0 
0 0 0 0 0 0 0 0 0 0 0 0 0 0 0 
0 0 0 0 0 0 0 0 0 0 0 0 0 0 0 
0 0 0 0 0 0 0 0 0 0 0 0 0 0 0 
0 0 0 0 0 0 0 0 0 0 0 0 0 0 0 
0 0 0 0 0 0 0 0 0 0 0 0 0 0 0 
0 0 0 0 0 0 0 0 4 0 0 5 2 3 1 
5 6 8 158 156 43 250 244 2 254 241 2 254 241 5 
253 239 5 147 145 36 3 1 3 1 0 8 0 1 1 
0 0 2 0 0 5 7 5 8 216 209 45 252 240 6 
160 159 38 2 4 4 0 0 0 0 0 0 0 0 0 
0 0 0 0 0 0 0 0 0 0 0 0 0 0 0 
0 0 0 0 0 0 0 0 0 0 0 0 0 0 0 
0 0 0 0 0 0 0 0 0 0 0 0 0 0 0 
0 0 0 0 0 0 0 0 0 0 0 0 0 0 0 
0 0 0 0 0 0 0 0 0 0 0 0 0 0 0 
0 0 0 0 0 0 0 0 0 0 0 0 0 0 0 
0 0 0 0 0 0 0 0 0 0 0 0 0 0 0 
0 0 0 0 0 0 0 0 0 0 0 0 0 0 0 
0 0 0 0 0 0 0 0 0 0 0 0 0 0 0 
0 0 0 0 0 0 0 0 1 0 0 1 2 2 5 
10 7 5 221 216 35 253 240 6 254 240 6 254 242 0 
247 238 38 52 51 28 1 2 3 1 0 3 0 0 4 
1 1 1 1 2 2 1 2 2 157 155 39 251 241 8 
98 95 35 4 2 5 2 1 0 0 1 1 0 0 2 
1 0 0 2 0 0 1 0 0 2 0 1 1 1 1 
0 1 2 1 1 2 0 2 0 0 0 2 0 1 0 
0 0 2 0 0 3 1 1 3 3 0 2 3 0 0 
2 1 1 1 0 2 1 1 1 1 0 3 2 0 1 
1 0 1 0 0 1 1 0 5 1 2 2 2 1 6 
1 1 1 0 1 1 1 1 0 1 0 1 2 0 0 
3 0 3 0 0 1 0 1 1 0 2 0 0 1 0 
0 1 3 0 0 4 0 1 0 0 0 0 0 0 0 
0 0 0 0 0 0 0 0 0 0 0 0 0 0 0 
0 0 0 0 0 0 0 0 0 1 0 6 0 6 1 
59 53 33 249 242 10 250 243 4 253 242 1 254 240 6 
186 182 50 8 3 8 1 2 4 2 0 8 2 1 1 
1 0 7 1 5 4 4 5 4 96 95 40 242 238 42 
30 30 19 5 4 3 4 3 9 7 3 5 5 1 3 
3 2 1 2 4 1 2 3 0 2 2 1 8 2 7 
5 4 3 3 5 9 7 2 8 5 1 4 4 1 9 
6 1 2 7 1 1 6 4 5 4 6 7 2 4 3 
3 3 4 2 2 6 1 3 5 1 2 11 1 4 3 
2 3 1 4 1 6 4 4 5 5 9 3 9 3 8 
7 3 3 4 2 1 4 2 2 2 1 11 2 2 3 
2 2 7 4 2 1 7 1 6 7 1 5 4 2 2 
6 1 4 7 1 2 0 1 9 2 0 3 0 0 0 
0 0 0 0 0 0 0 0 0 0 0 0 0 0 0 
0 0 0 0 0 0 0 1 0 0 0 7 1 2 4 
115 111 35 251 241 7 253 242 3 255 239 4 251 239 18 
81 78 32 1 3 6 0 1 8 2 0 8 5 1 3 
0 2 9 122 124 73 91 91 61 32 35 25 170 169 95 
5 4 11 4 3 4 157 160 66 220 213 20 220 212 18 
217 214 17 222 209 21 223 209 15 220 212 17 216 212 29 
148 153 69 70 74 57 207 210 54 215 215 16 219 214 12 
222 211 17 222 210 24 221 210 30 131 127 63 68 62 44 
209 206 33 220 210 15 222 210 13 222 211 12 221 212 15 
221 211 17 220 210 21 201 204 45 123 116 81 215 213 32 
218 213 15 220 211 26 221 211 17 222 211 13 222 210 17 
220 213 14 217 214 15 223 212 13 224 211 14 218 213 18 
219 213 15 182 182 31 1 1 3 2 0 7 0 0 0 
0 0 0 0 0 0 0 0 0 0 0 0 0 0 0 
0 0 0 0 0 0 0 0 4 0 1 1 2 3 1 
182 179 42 254 240 3 254 242 1 254 238 9 217 216 49 
7 7 5 0 1 1 0 0 2 1 0 3 6 4 4 
72 69 30 243 239 33 73 74 38 4 3 9 3 2 15 
1 1 1 1 1 9 42 35 25 216 210 50 252 240 7 
252 242 3 253 239 13 252 241 8 204 205 43 94 90 39 
12 10 8 3 4 13 82 82 32 242 227 31 255 238 10 
249 240 13 196 192 36 80 78 35 7 9 8 3 6 14 
78 77 43 231 231 31 251 241 8 254 241 1 252 241 6 
224 219 38 135 139 58 33 41 16 175 174 41 254 241 4 
250 241 16 224 218 38 209 203 30 248 242 6 254 239 8 
252 242 5 249 240 18 214 206 39 202 195 29 251 240 17 
252 242 1 183 178 41 1 3 2 1 1 5 0 0 0 
0 0 0 0 0 0 0 0 0 0 0 0 0 0 0 
0 0 0 0 0 0 1 0 5 0 2 2 16 15 10 
238 234 39 253 239 5 254 242 1 252 240 12 112 109 40 
1 2 4 4 0 5 5 0 1 2 1 0 34 31 22 
234 232 30 243 230 39 19 17 9 3 1 3 0 2 2 
1 0 1 0 1 5 0 5 3 40 41 22 232 233 36 
253 240 1 254 240 7 252 241 3 142 140 40 2 7 6 
6 3 6 4 4 5 93 94 45 244 241 22 232 230 40 
104 101 49 8 10 14 3 2 5 7 2 7 6 5 6 
16 13 9 220 220 41 251 242 7 254 240 4 250 240 16 
75 66 26 1 5 3 57 50 33 249 239 26 241 243 15 
120 123 46 17 14 13 129 122 38 247 243 6 255 239 6 
253 242 2 188 185 46 9 8 3 9 7 5 213 209 52 
250 241 14 107 103 32 0 1 5 1 0 6 0 0 0 
0 0 0 0 0 0 0 0 0 0 0 0 0 0 0 
0 0 0 0 0 0 1 0 0 0 1 4 65 64 31 
246 241 13 253 240 8 255 240 7 238 227 33 71 66 41 
65 65 33 71 68 25 72 68 22 71 69 22 210 209 49 
251 241 12 165 161 31 4 3 7 0 0 0 0 0 0 
0 0 0 0 0 1 0 0 6 1 1 2 163 163 45 
251 241 4 253 242 5 254 242 2 199 199 45 7 4 2 
6 9 9 89 95 46 244 238 31 227 226 40 59 54 32 
0 2 0 1 1 4 1 0 3 4 0 2 1 4 3 
70 69 30 245 241 21 252 240 5 252 241 7 204 199 47 
12 16 11 4 5 10 150 141 38 247 239 19 111 110 46 
2 5 5 5 4 8 189 182 39 249 242 8 254 239 4 
250 241 13 88 88 38 3 5 3 6 3 4 141 141 36 
242 241 20 51 48 22 0 1 7 2 0 1 0 0 0 
0 0 0 0 0 0 0 0 0 0 0 0 0 0 0 
0 0 0 0 0 0 1 1 0 2 1 8 139 137 36 
251 243 3 253 240 7 253 242 3 252 241 10 249 239 20 
250 240 14 252 242 9 252 242 5 253 242 6 253 240 5 
252 240 12 102 101 35 1 4 3 0 0 0 0 0 0 
0 0 0 0 1 0 1 1 2 1 1 6 63 61 27 
245 239 18 253 241 6 253 241 2 236 236 24 30 26 22 
83 89 37 241 234 28 243 237 31 55 56 22 1 5 2 
0 1 7 4 0 5 1 0 2 3 0 4 3 2 5 
131 126 43 251 242 5 255 240 3 247 243 10 111 106 41 
2 3 3 27 25 29 228 233 55 126 121 49 2 2 3 
4 2 5 19 17 15 235 229 33 253 241 6 254 238 6 
226 219 44 16 15 14 2 5 3 2 4 7 65 66 40 
211 212 90 13 9 10 0 1 5 1 0 5 0 0 0 
0 0 0 0 0 0 0 0 0 0 0 0 0 0 0 
0 0 0 0 0 0 1 1 0 6 4 9 203 202 32 
254 241 3 253 241 4 243 239 21 212 210 49 219 212 22 
221 213 15 237 232 30 247 238 26 252 240 8 251 241 4 
243 240 30 33 32 22 4 1 17 0 0 1 0 0 0 
0 0 0 0 0 1 2 1 1 1 3 4 4 5 4 
202 195 45 253 243 3 253 241 3 247 241 13 147 152 39 
239 232 39 250 237 23 125 124 58 2 4 1 1 1 5 
1 0 8 1 1 3 0 1 3 3 0 4 5 3 2 
193 188 42 253 242 3 255 241 2 225 225 42 23 20 14 
4 0 5 19 16 26 80 83 54 3 4 2 2 1 5 
1 3 10 67 63 27 250 240 15 254 242 2 251 239 10 
121 117 38 1 1 3 0 1 2 3 3 8 6 8 9 
39 38 37 4 3 6 1 0 6 0 0 2 0 0 0 
0 0 0 0 0 0 0 0 0 0 0 0 0 0 0 
0 0 0 0 0 0 2 1 1 25 25 21 242 233 25 
250 243 7 253 240 3 190 188 50 2 5 3 2 2 6 
2 1 9 22 22 19 30 32 12 180 177 31 250 242 10 
179 183 49 3 2 9 1 2 1 0 0 0 0 0 0 
0 0 0 0 0 1 1 0 4 0 1 6 1 2 6 
103 101 36 248 240 18 255 239 6 252 242 6 250 241 7 
245 241 24 131 126 50 6 3 4 3 1 7 1 0 0 
0 0 1 0 0 3 1 0 5 1 1 2 20 20 10 
237 226 37 253 242 1 250 241 5 147 147 49 2 2 2 
0 1 0 1 1 0 1 1 0 1 0 7 3 1 0 
0 5 6 124 120 39 253 241 11 254 241 1 237 234 29 
36 35 17 0 0 1 0 0 2 1 0 2 0 2 0 
1 2 4 1 2 1 1 0 5 0 0 0 0 0 0 
0 0 0 0 0 0 0 0 0 0 0 0 0 0 0 
0 0 0 0 0 0 3 1 8 81 85 25 251 240 8 
253 242 1 249 237 29 82 81 33 1 4 2 1 0 3 
0 1 2 0 0 2 2 1 7 150 140 43 250 241 8 
96 101 32 0 3 0 0 1 5 0 0 1 0 0 0 
0 0 0 0 0 3 0 0 4 0 1 0 0 1 0 
16 17 8 234 233 45 253 241 2 255 240 6 251 241 13 
128 123 51 8 6 10 3 3 11 0 1 0 0 0 0 
0 0 0 0 0 0 1 0 2 0 0 3 66 65 31 
250 240 17 255 240 5 243 237 28 41 41 17 3 3 10 
0 0 0 0 0 0 0 0 0 1 0 1 1 0 2 
1 3 5 179 177 32 253 242 4 254 239 11 177 174 46 
5 3 5 1 1 0 0 0 0 0 0 0 0 0 0 
0 0 0 0 0 0 0 0 0 0 0 0 0 0 0 
0 0 0 0 0 0 0 0 0 0 0 0 0 0 0 
0 0 0 0 0 0 2 1 3 156 153 37 252 240 5 
255 240 2 213 214 41 14 13 21 1 1 1 4 0 4 
0 1 4 2 1 2 1 4 4 96 95 26 245 242 30 
32 32 20 1 2 14 3 3 6 0 0 0 0 0 0 
0 0 0 0 0 2 0 1 1 2 3 3 1 1 12 
3 2 8 194 190 50 252 242 7 254 241 4 246 238 33 
29 26 13 1 5 2 0 1 5 0 0 2 0 0 0 
0 0 0 0 0 0 2 0 8 0 2 2 127 120 31 
251 242 6 252 240 5 188 184 45 1 2 5 0 1 3 
0 0 0 0 0 0 0 0 0 1 1 1 0 2 8 
27 24 13 238 233 30 252 241 3 247 239 18 69 65 29 
1 2 3 0 0 0 0 0 0 0 0 0 0 0 0 
0 0 0 0 0 0 0 0 0 0 0 0 0 0 0 
0 0 0 0 0 0 0 0 0 0 0 0 0 0 0 
0 0 0 0 0 0 3 2 1 217 208 37 250 242 6 
250 239 10 119 123 48 2 6 6 4 1 2 2 1 5 
0 2 2 2 0 3 1 5 3 70 72 47 166 172 88 
8 7 7 156 159 81 93 96 81 0 0 0 0 0 0 
0 0 0 0 0 2 0 1 1 1 1 7 6 7 10 
132 135 50 248 241 25 251 242 6 250 244 2 248 241 13 
83 79 32 2 3 5 1 1 5 0 0 0 0 0 0 
0 0 0 0 0 0 3 0 3 2 3 1 208 199 45 
248 240 4 248 240 17 78 74 27 0 1 8 2 0 0 
0 0 0 0 0 0 0 0 0 1 0 1 0 4 2 
80 75 31 251 241 11 251 241 6 211 202 42 4 2 2 
0 2 2 0 0 1 0 0 0 0 0 0 0 0 0 
0 0 0 0 0 0 0 0 0 0 0 0 0 0 0 
0 0 0 0 0 0 0 0 0 0 0 0 0 0 1 
2 0 3 4 2 0 55 48 25 245 241 25 253 240 5 
238 233 34 22 24 14 0 1 0 1 0 1 0 0 1 
0 1 0 1 0 2 1 0 6 1 1 2 2 4 10 
120 120 35 244 235 37 42 47 30 0 1 5 1 1 0 
1 0 5 1 0 6 3 4 6 3 7 11 122 123 40 
247 240 22 239 241 24 200 200 58 248 243 8 252 241 7 
138 141 44 2 3 2 2 1 6 0 1 0 0 0 0 
0 0 0 0 0 1 4 4 7 26 23 12 248 240 34 
254 241 6 212 205 37 8 7 10 1 1 10 2 0 1 
0 0 0 0 0 0 0 0 0 2 1 10 2 3 2 
139 133 38 252 242 5 249 242 11 112 110 51 1 2 7 
2 1 3 0 0 2 0 0 0 0 0 0 0 0 0 
0 0 0 0 0 0 0 0 0 0 0 0 0 0 0 
0 0 0 0 0 0 0 0 0 0 0 1 1 0 1 
1 2 1 3 4 6 110 107 32 249 242 7 250 242 3 
145 139 44 1 3 1 0 0 0 0 0 0 0 0 0 
1 0 8 0 1 0 0 1 1 0 1 1 95 95 38 
245 235 33 176 174 54 5 5 5 0 1 2 1 0 8 
0 1 0 0 4 2 17 16 15 139 135 38 245 239 29 
245 239 23 109 111 40 37 33 21 242 236 29 253 241 2 
194 196 45 4 2 7 0 0 1 0 0 0 0 0 0 
0 0 0 0 0 0 2 6 3 85 83 36 251 239 19 
252 241 7 115 110 43 1 7 0 2 0 5 2 0 2 
0 0 0 0 0 0 0 0 0 1 3 1 4 6 2 
198 193 43 254 240 11 238 232 40 19 18 9 0 1 5 
1 0 5 0 0 0 0 0 0 0 0 0 0 0 0 
0 0 0 0 0 0 0 0 0 0 0 0 0 0 0 
0 0 0 0 0 0 0 0 0 1 0 2 1 0 2 
0 3 1 3 4 9 164 165 37 254 241 3 245 242 24 
53 52 31 2 4 2 0 0 0 0 0 0 0 0 0 
2 0 4 0 1 0 4 2 12 58 54 32 225 223 36 
252 239 17 69 76 31 8 5 10 1 0 3 1 2 1 
4 3 3 18 15 15 184 182 60 251 241 12 249 239 16 
169 167 52 5 5 4 2 5 9 161 158 45 251 242 8 
238 235 32 26 24 13 2 4 2 1 1 2 0 0 0 
0 0 0 0 0 0 3 3 7 142 138 36 252 241 5 
237 231 40 28 31 17 1 4 7 3 0 0 0 0 4 
0 0 0 0 0 0 0 0 0 0 3 1 23 20 14 
240 235 27 251 241 6 155 151 47 3 4 5 1 1 5 
1 1 3 0 1 0 0 0 0 0 0 0 0 0 0 
0 0 0 0 0 0 0 0 0 0 0 0 0 0 0 
0 0 1 0 0 0 0 0 0 1 0 2 1 1 1 
0 1 5 22 14 10 228 228 36 254 242 1 184 178 46 
3 5 2 1 0 3 0 0 0 0 0 0 0 0 0 
0 0 0 0 0 2 28 23 17 201 196 47 250 241 8 
206 199 44 5 6 7 3 4 9 0 1 5 0 2 3 
16 12 12 183 179 55 251 239 14 250 239 13 184 179 57 
20 16 14 8 2 4 2 6 9 59 56 38 246 241 19 
249 240 17 79 81 26 3 4 6 2 0 3 0 0 1 
0 0 0 0 0 1 11 5 6 201 194 43 252 242 7 
157 150 45 2 3 2 3 2 5 5 0 4 0 1 1 
0 0 0 0 0 0 0 0 0 1 2 0 74 68 33 
248 241 12 245 239 31 56 52 30 1 3 8 3 1 1 
1 1 4 0 1 0 0 0 0 0 0 0 0 0 0 
0 0 0 0 0 0 0 0 0 0 0 0 0 0 0 
1 1 5 0 2 3 0 1 7 2 1 6 5 3 7 
7 6 5 123 115 42 248 240 16 245 242 19 82 77 36 
5 7 3 4 5 4 13 12 7 58 55 31 62 60 21 
113 112 41 120 117 17 192 185 37 249 241 11 249 240 9 
104 102 38 2 1 8 3 1 3 5 4 9 10 13 9 
177 174 63 251 239 12 248 242 8 186 179 56 18 15 10 
1 3 4 0 1 2 2 4 6 9 8 5 184 176 39 
254 240 8 154 151 54 2 4 2 3 3 2 2 0 7 
4 2 3 5 3 5 24 23 15 242 236 28 244 239 28 
59 60 36 0 1 8 0 0 3 0 1 1 0 0 7 
1 1 3 1 1 3 4 2 8 2 4 7 147 141 43 
251 240 8 187 185 46 5 3 4 2 0 4 2 0 1 
1 1 1 0 0 0 0 0 0 0 0 0 0 0 0 
0 0 0 0 0 0 0 0 0 0 0 0 0 0 0 
7 0 1 2 0 3 0 1 3 6 7 3 95 92 37 
217 210 43 251 240 11 251 240 6 243 236 28 190 180 36 
205 200 36 241 231 44 250 240 14 250 238 16 251 239 12 
249 242 9 249 243 4 249 241 6 251 240 7 234 225 37 
16 14 7 0 1 11 3 7 5 82 86 30 198 197 48 
248 242 14 252 239 9 217 213 40 19 17 16 4 6 7 
4 2 2 0 1 1 5 4 2 52 49 26 199 197 48 
252 242 2 230 227 26 45 48 29 3 1 12 3 2 6 
2 4 5 34 38 31 155 154 43 247 240 16 232 228 25 
56 54 26 3 0 2 0 1 1 0 1 3 1 2 1 
2 1 6 1 2 5 7 11 6 82 84 42 222 216 36 
250 241 8 174 169 41 27 27 16 0 4 1 0 1 1 
3 0 4 1 0 1 0 0 0 0 0 0 0 0 0 
0 0 0 0 0 0 0 0 0 0 0 0 0 0 0 
0 3 5 7 8 21 97 95 43 209 204 41 252 241 9 
254 240 1 251 241 8 248 245 3 253 244 1 253 241 8 
255 240 8 253 240 10 251 242 4 252 242 3 252 243 2 
254 240 4 255 241 2 255 242 1 253 239 14 134 134 37 
4 2 12 86 75 35 203 195 42 254 237 20 255 238 5 
253 239 8 253 240 9 249 239 20 130 133 53 2 6 10 
1 6 7 53 57 37 167 162 50 246 240 22 252 242 5 
255 239 10 254 238 6 221 215 35 79 83 39 36 30 19 
154 146 57 238 234 39 253 241 6 254 239 4 253 239 9 
236 233 35 126 128 48 6 5 12 0 3 0 1 2 10 
14 16 17 101 99 41 213 211 40 249 241 23 254 240 3 
254 238 6 251 243 8 232 225 48 110 104 40 3 1 9 
0 1 8 0 0 0 0 0 0 0 0 0 0 0 0 
0 0 0 0 0 0 0 0 0 0 0 0 0 0 0 
3 1 5 9 9 11 91 92 46 103 98 17 102 98 16 
101 98 16 103 99 12 105 96 21 103 97 15 103 98 15 
101 98 16 102 97 15 103 97 15 102 97 13 102 97 13 
101 99 14 101 97 20 101 98 15 101 98 19 37 35 24 
2 6 5 76 74 36 101 99 17 102 98 13 98 100 14 
100 100 11 103 98 15 99 101 16 83 84 35 4 4 3 
2 3 10 67 67 42 101 100 18 104 99 18 104 96 17 
96 101 18 101 97 17 106 97 16 68 68 37 40 35 31 
99 98 25 103 98 15 101 98 16 101 99 17 101 99 13 
101 98 14 101 98 39 6 5 8 0 1 2 0 1 1 
16 17 19 93 92 49 101 99 15 104 98 23 101 100 12 
101 99 17 100 99 13 102 100 13 92 93 42 1 2 3 
1 1 4 0 0 1 0 0 0 0 0 0 0 0 0 
0 0 0 0 0 0 0 0 0 0 0 0 0 0 0 
0 0 0 0 0 0 0 0 0 0 0 0 0 0 0 
0 0 0 0 0 0 0 0 0 0 0 0 0 0 0 
0 0 0 0 0 0 0 0 0 0 0 0 0 0 0 
0 0 0 0 0 0 0 0 0 0 0 0 0 0 0 
0 0 0 0 0 0 0 0 0 0 0 0 0 0 0 
0 0 0 0 0 0 0 0 0 0 0 0 0 0 0 
0 0 0 0 0 0 0 0 0 0 0 0 0 0 0 
0 0 0 0 0 0 0 0 0 0 0 0 0 0 1 
0 0 0 0 0 0 0 0 0 0 0 1 0 0 0 
0 0 0 0 0 0 0 0 0 0 0 0 0 0 0 
0 0 0 0 0 0 0 0 0 0 0 0 0 0 0 
0 0 1 0 0 0 0 0 0 0 0 0 0 0 0 
0 0 0 0 0 0 0 0 0 0 0 0 0 0 0 
0 0 0 0 0 0 0 0 0 0 0 0 0 0 0 
0 0 0 0 0 0 0 0 0 0 0 0 0 0 0 
0 0 0 0 0 0 0 0 0 0 0 0 0 0 0 
0 0 0 0 0 0 0 0 0 0 0 0 0 0 0 
0 0 0 0 0 0 0 0 0 0 0 0 0 0 0 
0 0 0 0 0 0 0 0 0 0 0 0 0 0 0 
0 0 0 0 0 0 0 0 0 0 0 0 0 0 0 
0 0 0 0 0 0 0 0 0 0 0 0 0 0 0 
0 0 0 0 0 0 0 0 0 0 0 0 0 0 0 
0 0 0 0 0 0 0 0 0 0 0 0 0 0 0 
0 0 0 0 0 0 0 0 0 0 0 0 0 0 0 
0 0 0 0 0 0 0 0 0 0 0 0 0 0 0 
0 0 0 0 0 0 0 0 0 0 0 0 0 0 0 
0 0 0 0 0 0 0 0 0 0 0 0 0 0 0 
0 0 0 0 0 0 0 0 0 0 0 0 0 0 0 
0 0 0 0 0 0 0 0 0 0 0 0 0 0 0 
0 0 0 0 0 0 0 0 0 0 0 0 0 0 0 
0 0 0 0 0 0 0 0 0 0 0 0 0 0 0 
0 0 0 0 0 0 0 0 0 0 0 0 0 0 0 
0 0 0 0 0 0 0 0 0 0 0 0 0 0 0 
0 0 0 0 0 0 0 0 0 0 0 0 0 0 0 
0 0 0 0 0 0 0 0 0 0 0 0 0 0 0 
0 0 0 0 0 0 0 0 0 0 0 0 0 0 0 
0 0 0 0 0 0 0 0 0 0 0 0 0 0 0 
0 0 0 0 0 0 0 0 0 0 0 0 0 0 0 
0 0 0 0 0 0 0 0 0 0 0 0 0 0 0 
0 0 0 0 0 0 0 0 0 0 0 0 0 0 0 
0 0 0 0 0 0 0 0 0 0 0 0 0 0 0 
0 0 0 0 0 0 0 0 0 0 0 0 0 0 0 
