P3
# Created by IrfanView
78 30
255
0 0 0 0 0 0 0 0 0 0 0 0 0 0 0 
0 0 0 0 0 0 0 0 8 0 3 0 0 0 12 
0 3 2 0 0 3 0 0 1 0 0 1 1 0 2 
1 0 2 1 0 2 1 0 2 2 0 2 2 0 8 
0 3 6 0 2 1 1 0 3 1 0 2 1 0 2 
0 0 1 0 0 1 0 0 1 1 0 2 1 0 1 
2 0 2 2 0 9 1 0 1 1 0 1 0 0 0 
0 0 0 0 0 0 0 0 0 0 0 0 0 0 0 
0 0 0 0 0 0 0 0 0 0 0 0 0 0 0 
0 0 0 0 0 0 0 0 0 0 0 0 0 0 0 
0 0 0 0 0 0 0 0 0 0 0 0 0 0 0 
0 0 0 0 0 0 0 0 0 0 0 0 0 0 0 
0 0 0 0 0 0 0 0 0 0 0 0 0 0 0 
0 0 0 0 0 0 0 0 0 0 0 0 0 0 0 
0 0 0 0 0 0 0 0 0 0 0 0 0 0 0 
0 0 0 0 0 0 0 0 0 0 0 0 0 0 0 
0 0 0 0 0 0 0 0 0 0 0 0 0 0 0 
0 0 3 0 0 7 0 2 2 1 2 4 1 1 4 
1 1 1 1 1 1 1 1 1 1 1 1 1 1 1 
1 1 1 1 3 2 1 3 4 6 1 6 1 0 2 
0 1 3 1 1 1 1 1 1 1 1 1 1 1 1 
1 1 1 1 1 1 1 1 3 0 0 10 0 1 0 
0 1 1 0 0 0 0 0 0 0 0 0 0 0 0 
0 0 0 0 0 0 0 0 0 0 0 0 0 0 0 
0 0 0 0 0 0 0 0 0 0 0 0 0 0 0 
0 0 0 0 0 0 0 0 0 0 0 0 0 0 0 
0 0 0 0 0 0 0 0 0 0 0 0 0 0 0 
0 0 0 0 0 0 0 0 0 0 0 0 0 0 0 
0 0 0 0 0 0 0 0 0 0 0 0 0 0 0 
0 0 0 0 0 0 0 0 0 0 0 0 0 0 0 
0 0 0 0 0 0 0 0 0 0 0 0 0 0 0 
0 0 0 0 0 0 0 0 0 0 0 0 0 0 0 
0 0 0 0 0 0 0 0 0 0 2 0 0 0 4 
4 2 10 8 3 11 6 3 4 6 3 4 6 3 4 
6 3 4 6 3 4 6 3 4 6 3 4 5 4 6 
4 8 4 2 5 1 6 4 4 7 3 3 6 3 4 
6 3 4 6 3 4 6 3 4 6 3 4 6 3 4 
7 3 5 11 3 5 6 2 0 1 0 10 0 1 1 
0 0 0 0 0 0 0 0 0 0 0 0 0 0 0 
0 0 0 0 0 0 0 0 0 0 0 0 0 0 0 
0 0 0 0 0 0 0 0 0 0 0 0 0 0 0 
0 0 0 0 0 0 0 0 0 0 0 0 0 0 0 
0 0 0 0 0 0 0 0 0 0 0 0 0 0 0 
0 0 0 0 0 0 0 0 0 0 0 0 0 0 0 
0 0 0 0 0 0 0 0 0 0 0 0 0 0 0 
0 0 0 0 0 0 0 0 0 0 0 0 0 0 0 
0 0 0 0 0 0 0 0 0 0 0 0 0 0 0 
0 0 0 0 0 0 0 0 0 0 0 0 0 0 0 
0 0 0 0 1 2 0 1 1 5 2 7 99 100 57 
232 228 47 237 228 28 239 227 30 239 227 26 237 227 28 
239 226 29 238 229 26 232 229 40 169 164 95 78 80 46 
230 229 49 239 226 29 239 226 30 238 227 27 238 228 26 
238 228 26 239 227 26 238 226 27 237 229 28 229 229 54 
151 149 78 2 0 9 0 1 2 0 0 0 0 0 0 
0 0 0 0 0 0 0 0 0 0 0 0 0 0 0 
0 0 0 0 0 0 0 0 0 0 0 0 0 0 0 
0 0 0 0 0 0 0 0 0 0 0 0 0 0 0 
0 0 0 0 0 0 0 0 0 0 0 0 0 0 0 
0 0 0 0 0 0 0 0 0 0 0 0 0 0 0 
0 0 0 0 0 0 0 0 0 0 0 0 0 0 0 
0 0 0 0 0 0 0 0 0 0 0 0 0 0 0 
0 0 0 0 0 0 0 0 0 0 0 0 0 0 0 
0 0 0 0 0 0 0 0 0 0 0 0 0 0 0 
0 0 0 0 0 0 0 0 0 0 0 0 0 0 3 
0 0 2 2 3 1 9 10 5 115 108 44 235 233 29 
253 239 14 255 240 2 250 242 7 246 238 21 199 191 43 
81 74 33 11 15 9 2 4 10 127 123 48 241 238 32 
253 239 4 252 243 4 253 242 3 253 241 9 254 241 5 
248 238 23 212 203 56 91 90 44 9 5 11 0 2 4 
0 2 1 0 0 0 0 0 0 0 0 0 0 0 0 
0 0 0 0 0 0 0 0 0 0 0 0 0 0 0 
0 0 0 0 0 0 0 0 0 0 0 0 0 0 0 
0 0 0 0 0 0 0 0 0 0 0 0 0 0 0 
0 0 0 0 0 0 0 0 0 0 0 0 0 0 0 
0 0 0 0 0 0 0 0 0 0 0 0 0 0 0 
0 0 0 0 0 0 0 0 0 0 0 0 0 0 0 
0 0 0 0 0 0 0 0 0 0 0 0 0 0 0 
0 0 0 0 0 0 0 0 0 0 0 0 0 0 0 
0 0 0 0 0 0 0 0 0 0 0 0 0 0 0 
0 0 0 0 0 0 0 0 2 0 0 2 2 2 1 
2 3 1 3 8 7 62 54 33 240 235 28 254 240 10 
207 199 45 72 74 36 4 5 7 7 1 2 4 2 13 
1 5 9 4 5 5 86 84 35 246 241 10 251 242 5 
253 242 7 254 242 5 247 243 13 131 129 36 15 11 9 
5 2 5 3 1 8 0 1 4 0 0 10 0 0 0 
0 0 0 0 0 0 0 0 0 0 0 0 0 0 0 
0 0 0 0 0 0 0 0 0 0 0 0 0 0 0 
0 0 0 0 0 0 0 0 0 0 0 0 0 0 0 
0 0 0 0 0 0 0 0 0 0 0 0 0 0 0 
0 0 0 0 0 0 0 0 0 0 0 0 0 0 0 
0 0 0 0 0 0 0 0 0 0 0 0 0 0 0 
0 0 0 0 0 0 0 0 0 0 0 0 0 0 0 
0 0 0 0 0 0 0 0 0 0 0 0 0 0 0 
0 0 0 0 0 0 0 0 0 0 0 0 0 0 0 
0 0 0 0 0 0 0 0 0 0 0 0 0 0 0 
0 0 1 0 0 2 0 0 3 0 0 3 3 8 12 
66 63 30 245 239 30 253 239 21 90 87 37 4 7 11 
0 3 9 2 0 9 3 1 2 1 2 0 0 2 1 
66 65 30 246 239 18 254 240 6 252 242 6 251 241 4 
228 227 49 14 11 16 1 4 6 0 0 7 0 1 3 
0 3 0 0 1 2 0 0 0 0 0 0 0 0 0 
0 0 0 0 0 0 0 0 0 0 0 0 0 0 0 
0 0 0 0 0 0 0 0 0 0 0 0 0 0 0 
0 0 0 0 0 0 0 0 0 0 0 0 0 0 0 
0 0 0 0 0 0 0 0 0 0 0 0 0 0 0 
0 0 0 0 0 0 0 0 0 0 0 0 0 0 0 
0 0 0 0 0 0 0 0 0 0 0 0 0 0 0 
0 0 0 0 0 0 0 0 0 0 0 0 0 0 0 
0 0 0 0 0 0 0 0 0 0 0 0 0 0 0 
0 0 0 0 0 0 0 0 0 0 0 0 0 0 0 
0 0 0 0 0 0 0 0 0 0 0 1 0 0 1 
0 0 2 0 0 3 4 6 5 156 151 42 251 241 3 
246 235 28 32 34 19 4 4 4 1 0 10 1 2 1 
4 0 1 4 0 10 2 3 7 146 143 41 251 241 5 
255 240 6 253 240 8 250 240 10 143 142 53 3 3 2 
1 3 8 0 1 1 0 0 2 0 1 0 0 0 2 
0 0 1 2 0 2 3 0 1 2 0 1 1 0 0 
1 0 6 2 0 1 0 0 0 0 0 0 0 0 0 
0 0 0 0 0 0 0 0 4 0 0 4 1 0 1 
1 0 0 1 0 2 3 0 2 2 0 2 1 0 2 
2 0 2 3 0 2 0 0 3 0 0 2 0 0 1 
0 0 0 0 0 0 0 0 0 0 0 0 1 0 4 
0 1 0 0 0 1 0 0 1 0 1 1 0 1 0 
3 0 2 4 0 2 0 0 1 0 0 6 0 0 1 
0 0 2 0 0 0 0 0 0 0 0 0 0 0 0 
0 0 0 0 0 0 0 0 0 0 0 0 0 0 0 
0 0 0 0 0 0 0 0 0 0 0 0 0 0 0 
23 23 10 226 221 38 252 241 5 208 202 36 5 5 4 
2 2 2 0 0 0 0 0 5 5 0 2 4 2 8 
7 8 6 209 203 40 253 242 0 255 241 0 255 241 0 
242 236 31 43 44 27 1 1 2 0 1 6 0 0 0 
0 0 0 0 0 0 1 0 1 2 0 5 0 1 7 
0 1 9 0 1 11 1 1 5 1 1 2 1 1 9 
0 0 2 0 0 0 0 0 0 0 0 0 0 0 1 
0 0 4 0 1 1 0 2 0 0 0 10 0 1 7 
0 3 0 1 1 2 1 2 0 0 2 0 0 1 4 
0 2 3 0 1 7 0 0 10 0 0 7 0 0 0 
0 0 0 0 0 0 1 2 0 2 0 10 2 0 8 
1 0 9 0 0 8 0 1 9 0 2 5 1 3 1 
0 2 1 0 2 1 0 2 4 0 1 0 0 0 0 
0 0 0 0 0 0 0 0 0 0 0 0 0 0 0 
0 0 0 0 0 0 0 0 0 0 0 0 0 0 0 
0 0 0 1 1 1 2 2 2 120 116 37 248 241 15 
250 241 9 152 146 42 1 1 1 1 1 1 0 0 0 
0 0 3 2 2 3 3 3 8 31 28 13 247 239 33 
255 242 0 253 243 0 253 242 2 183 180 43 3 4 12 
2 1 1 0 1 0 0 0 0 0 0 0 0 0 0 
1 2 0 3 3 13 139 141 74 156 152 15 161 150 14 
162 147 23 161 150 18 154 151 25 45 45 31 2 2 2 
0 0 0 0 0 0 0 0 2 1 1 1 2 5 0 
135 136 71 155 151 18 159 151 14 157 151 14 159 151 16 
158 151 18 152 148 39 100 96 32 54 52 30 6 4 1 
3 4 4 1 4 2 0 0 0 0 0 0 0 0 0 
72 69 41 153 151 23 159 151 17 158 152 17 155 153 17 
142 139 39 83 77 36 33 27 22 5 2 11 2 3 9 
0 2 8 0 1 0 0 0 0 0 0 0 0 0 0 
0 0 0 0 0 0 0 0 0 0 0 0 0 0 0 
0 0 0 0 0 0 0 0 0 0 0 0 2 2 2 
9 9 9 211 205 49 252 239 7 247 241 12 91 86 37 
0 0 0 0 0 0 0 0 0 0 2 0 1 1 6 
2 4 3 89 83 39 251 240 10 255 241 0 253 241 1 
249 237 17 86 81 39 2 8 5 2 0 3 1 1 1 
0 0 0 0 0 0 0 0 0 1 1 0 3 3 8 
54 54 32 199 194 49 250 239 18 253 238 13 214 205 38 
92 92 34 11 11 9 2 2 2 0 0 0 0 0 0 
0 0 2 1 1 3 4 6 1 57 56 31 204 200 53 
251 241 16 252 239 21 253 239 13 255 242 3 252 242 3 
251 241 12 245 239 20 197 192 54 58 56 27 3 4 8 
0 0 0 0 0 0 0 0 0 29 29 18 183 181 66 
251 239 21 255 241 2 252 241 5 250 241 8 247 240 14 
240 233 28 163 154 41 43 42 22 0 1 5 0 0 3 
0 0 0 0 0 0 0 0 0 0 0 0 0 0 0 
0 0 0 0 0 0 0 0 0 0 0 0 0 0 0 
0 0 0 0 1 3 2 5 2 70 67 30 247 241 22 
255 237 12 243 241 24 31 30 20 0 1 2 1 1 0 
1 1 4 0 1 5 0 1 9 3 3 9 150 140 37 
253 240 5 252 241 9 254 238 3 212 207 44 12 10 8 
1 2 1 0 0 1 0 0 1 0 0 0 0 0 0 
0 0 0 3 0 5 2 1 2 3 3 12 95 91 36 
246 242 12 251 243 4 62 53 20 3 4 9 1 2 2 
0 0 0 0 0 0 0 0 0 0 0 1 0 0 1 
0 0 0 1 1 1 19 23 10 243 236 42 221 213 38 
59 52 21 156 151 48 241 237 29 253 238 10 253 240 5 
251 243 5 221 218 40 13 13 13 0 0 0 0 0 0 
0 0 0 2 3 2 13 18 7 221 213 44 246 237 28 
120 120 46 213 211 39 249 240 10 251 241 8 253 240 11 
228 226 41 46 45 27 1 5 4 0 1 0 0 0 3 
0 0 3 0 0 0 0 0 0 0 0 0 0 0 0 
0 0 0 0 0 0 0 0 0 0 0 0 0 1 3 
5 4 9 173 172 49 251 241 8 255 238 14 211 205 45 
8 8 8 1 2 6 2 1 7 2 2 1 3 3 1 
3 0 13 6 6 2 201 198 45 251 242 5 252 243 2 
250 240 8 126 123 46 1 1 0 0 0 0 0 0 0 
0 0 0 0 0 0 0 0 0 0 0 0 0 0 2 
0 1 1 40 35 16 236 234 37 250 242 6 251 243 5 
99 95 51 3 4 6 0 0 0 0 0 0 0 0 0 
0 0 0 0 0 0 0 0 0 0 0 0 2 1 8 
83 85 34 247 240 13 167 161 31 6 6 6 6 4 9 
59 52 30 207 206 28 253 242 4 254 242 2 248 239 13 
74 72 24 0 0 0 0 0 0 0 0 0 3 1 13 
48 51 23 245 236 34 233 230 42 11 10 5 23 18 23 
168 163 63 246 241 14 255 240 5 251 242 9 220 223 50 
40 37 20 0 0 7 0 0 1 0 1 0 0 0 0 
0 0 0 0 0 0 0 0 0 0 0 0 0 0 0 
0 0 0 0 0 0 0 1 3 36 31 18 239 235 35 
253 241 5 255 241 2 225 217 28 157 159 32 163 156 27 
186 177 44 208 201 37 216 211 20 220 211 15 218 212 21 
249 237 15 253 240 8 255 242 2 235 235 45 36 35 21 
1 1 3 0 0 0 0 0 0 0 0 0 0 0 0 
0 0 0 0 0 0 1 2 4 16 14 8 201 193 59 
252 243 4 253 242 2 252 242 10 102 100 40 1 2 3 
0 0 0 0 0 0 0 0 0 0 0 0 0 0 0 
0 0 0 0 0 0 2 2 1 182 178 52 253 241 7 
123 118 40 1 4 6 0 2 9 4 7 9 74 73 32 
251 240 11 254 241 1 251 241 9 73 70 15 0 0 0 
0 0 0 0 0 0 3 3 6 144 140 38 250 240 10 
171 172 43 3 2 4 0 3 1 12 14 9 167 167 50 
251 240 9 253 239 5 251 243 4 184 179 47 4 4 6 
2 2 5 0 1 0 0 0 0 0 0 0 0 0 0 
0 0 0 0 0 0 0 0 0 0 0 0 0 0 2 
1 0 2 128 126 38 249 240 8 253 240 9 255 240 9 
254 239 8 252 241 10 251 241 7 251 242 3 252 242 2 
253 240 8 253 238 16 252 242 8 252 243 2 252 242 3 
255 240 4 152 156 44 3 6 11 0 0 1 0 0 0 
0 0 0 0 0 0 0 0 1 0 0 0 0 0 0 
2 2 3 143 143 49 250 242 11 253 241 7 254 240 8 
254 240 7 113 109 31 6 1 5 1 0 1 0 0 0 
0 0 0 0 0 0 0 0 0 0 0 0 0 0 0 
35 37 18 244 239 31 250 237 22 75 73 34 1 3 8 
0 2 5 5 2 11 130 127 50 253 240 13 253 241 4 
242 236 34 44 44 29 0 0 0 0 0 0 0 0 1 
10 13 4 230 221 48 250 240 5 110 111 34 0 2 7 
3 1 1 8 4 8 25 27 23 225 215 46 253 241 8 
255 240 3 239 233 40 29 33 17 1 1 12 0 1 1 
0 0 0 0 0 0 0 0 0 0 0 0 0 0 0 
0 0 0 0 0 0 3 2 3 13 16 12 227 220 46 
253 241 6 252 242 6 243 239 23 95 83 32 132 130 35 
191 188 45 229 220 33 192 182 38 127 124 42 66 66 38 
168 158 42 255 241 1 251 241 3 249 237 20 70 69 26 
4 6 5 1 1 1 0 0 0 0 0 0 0 0 1 
0 0 5 0 3 3 5 7 3 90 87 37 249 242 21 
250 240 13 180 177 46 235 227 38 254 241 2 112 109 21 
2 1 4 0 0 1 0 0 0 0 0 0 0 1 0 
1 0 8 1 3 2 4 8 6 141 133 47 254 238 10 
237 233 25 23 22 19 4 7 6 15 16 13 135 133 40 
247 239 22 251 239 10 248 240 17 145 140 55 2 6 7 
3 0 7 4 4 1 3 6 16 96 96 39 250 240 13 
250 239 17 69 70 24 1 2 2 0 0 0 0 0 0 
0 0 1 126 123 37 251 238 13 253 243 1 252 241 13 
47 37 19 0 4 2 3 0 14 0 0 0 0 0 0 
0 0 0 0 0 0 0 0 0 0 0 0 0 0 0 
2 3 1 86 84 33 248 243 10 254 242 1 251 241 7 
203 201 39 11 8 7 6 9 6 3 8 3 6 4 15 
5 4 13 2 6 2 7 4 9 219 212 36 255 239 9 
250 243 3 199 189 39 10 5 15 2 2 8 1 1 0 
0 0 0 0 0 0 0 0 0 0 2 1 3 1 14 
47 42 20 228 225 42 251 241 6 205 202 50 60 59 28 
242 240 24 254 240 9 119 114 32 2 1 3 0 0 0 
0 0 0 0 0 0 0 0 0 1 1 2 1 2 1 
16 15 21 223 218 40 255 239 7 208 206 42 7 6 5 
47 50 29 200 195 64 251 238 18 252 242 6 244 239 25 
148 149 53 9 8 14 2 4 2 3 0 2 3 2 4 
5 4 8 193 192 42 253 240 4 239 233 29 15 16 19 
0 1 2 0 0 0 0 0 0 0 1 0 76 76 43 
248 242 13 253 244 1 252 242 5 49 39 11 0 2 2 
0 0 10 0 0 0 0 0 0 0 0 0 0 0 0 
0 0 0 0 0 0 0 0 0 5 6 3 193 187 50 
252 242 4 255 240 5 251 242 5 146 146 37 0 1 6 
0 1 10 0 1 2 0 1 0 0 1 0 1 2 4 
40 39 25 245 239 20 255 239 4 248 242 11 104 103 35 
2 2 7 1 2 0 0 1 0 0 0 0 0 0 0 
0 0 0 4 6 3 23 19 10 195 190 49 248 240 9 
237 229 38 44 45 22 82 79 42 249 241 15 254 241 4 
158 155 47 2 1 3 0 0 0 0 0 0 0 0 0 
0 0 0 1 1 1 1 3 1 88 85 42 249 242 14 
254 242 4 182 174 54 153 148 52 234 234 26 252 242 10 
243 230 28 175 169 39 73 67 34 5 5 8 0 2 4 
0 2 1 2 0 1 3 1 7 53 50 25 244 239 24 
255 239 9 199 198 36 5 6 10 0 2 0 0 0 0 
0 0 0 0 1 0 69 69 29 248 240 17 253 242 5 
249 238 29 45 40 20 2 4 7 1 0 4 0 0 0 
0 0 0 0 0 0 0 0 0 0 0 2 0 1 1 
0 2 1 47 46 22 243 239 21 254 241 1 254 241 1 
248 242 8 91 87 39 0 2 3 3 0 4 0 0 3 
0 1 2 0 1 3 1 1 4 94 96 32 249 240 16 
255 239 2 229 221 43 21 22 15 1 4 1 2 0 3 
0 0 4 0 0 3 0 0 1 0 1 0 6 7 9 
147 143 52 246 240 16 245 239 23 70 62 29 2 9 10 
118 114 41 253 240 13 254 242 1 165 163 32 2 1 5 
0 0 1 0 0 0 0 0 0 0 0 1 2 2 5 
2 3 3 174 173 43 251 242 6 252 240 15 232 236 41 
249 241 13 254 236 5 254 241 2 155 150 27 5 4 9 
2 5 3 6 1 6 2 1 2 1 2 1 2 1 6 
3 3 6 138 134 43 252 245 5 253 242 6 145 143 38 
5 3 13 0 1 1 0 0 2 1 1 3 4 6 2 
188 190 44 252 238 12 252 243 3 213 208 39 6 5 11 
2 2 4 4 0 2 0 0 0 0 0 0 0 0 0 
0 1 0 2 0 6 2 4 2 3 6 8 151 143 39 
247 241 14 253 242 2 255 240 2 243 235 20 33 31 21 
1 3 3 0 0 6 0 0 0 0 0 0 0 0 0 
3 3 1 155 153 41 251 239 5 253 241 7 137 134 51 
3 5 0 1 1 5 0 1 0 0 1 3 0 1 3 
0 0 3 1 2 1 88 85 38 246 236 24 255 238 8 
218 209 41 120 115 43 82 77 13 178 170 32 252 242 3 
253 241 3 170 165 17 3 2 4 1 0 0 0 0 0 
0 0 0 2 1 1 4 4 7 44 42 22 244 236 33 
251 241 7 245 236 23 131 137 63 249 238 15 253 242 4 
255 242 0 158 148 19 3 3 4 0 0 0 0 0 0 
0 0 0 2 0 0 2 1 6 15 15 8 231 223 44 
251 238 7 248 242 6 93 86 27 2 4 6 0 3 1 
0 3 1 5 3 11 114 117 42 248 243 10 255 239 7 
245 240 18 97 94 45 0 0 0 0 0 0 0 0 0 
0 0 0 0 0 0 0 0 0 0 0 0 1 0 5 
1 4 0 27 23 28 236 232 31 251 245 2 253 241 8 
255 241 2 210 205 38 5 6 1 1 1 2 0 1 7 
0 0 0 0 0 0 0 0 0 8 4 6 209 208 29 
253 240 9 243 240 18 50 45 24 2 2 5 0 0 5 
0 0 0 0 1 2 0 3 0 1 2 9 42 42 21 
224 220 35 248 239 19 252 239 9 252 238 7 251 239 10 
249 243 16 251 241 10 254 241 1 253 241 3 171 166 17 
3 4 5 1 0 0 0 0 0 0 0 0 1 1 0 
4 3 11 135 132 43 250 240 7 252 241 3 230 229 40 
26 24 14 224 220 33 253 241 2 255 241 1 178 169 29 
3 2 7 0 0 0 0 0 0 0 0 0 1 1 0 
1 1 6 92 91 32 249 241 16 253 239 9 243 240 24 
42 37 20 2 5 3 1 1 12 4 6 5 114 109 53 
247 237 32 255 237 9 249 240 8 170 168 57 2 3 3 
0 0 0 0 0 0 0 0 0 0 0 0 0 0 0 
0 0 0 0 0 0 1 0 2 1 4 1 108 104 43 
250 242 7 253 244 0 253 242 3 253 242 3 148 147 41 
3 8 4 2 1 4 1 1 2 0 0 0 0 0 0 
0 0 0 49 45 23 239 236 23 252 238 18 179 177 35 
4 2 4 0 0 2 0 0 1 0 0 0 0 0 6 
0 1 3 14 10 11 195 188 54 248 241 7 167 166 47 
110 106 31 194 192 54 132 129 41 75 65 30 224 219 35 
252 241 4 253 241 3 192 188 33 5 6 6 2 0 0 
0 0 0 0 0 0 1 1 1 9 10 4 224 221 44 
255 239 4 255 238 5 173 177 39 7 5 7 152 150 52 
254 242 1 255 241 3 205 199 36 2 3 1 0 0 0 
0 0 0 0 0 0 0 1 0 5 7 5 176 173 38 
254 240 4 253 240 7 214 212 42 6 6 4 0 1 4 
3 5 5 111 105 48 245 236 37 253 242 3 246 241 14 
181 183 40 13 9 15 2 2 6 0 0 0 0 0 0 
0 0 0 0 0 2 1 0 5 2 0 4 1 1 4 
1 3 3 5 5 5 194 194 35 253 240 6 255 241 3 
252 243 0 249 243 9 89 91 35 3 5 8 3 0 2 
1 1 1 1 0 1 0 0 6 1 4 2 109 108 32 
251 241 13 245 242 13 86 82 40 1 1 6 0 2 2 
0 2 0 2 0 3 2 5 2 2 3 5 144 135 42 
248 241 16 199 190 50 24 25 20 2 5 9 4 2 10 
2 3 8 22 20 9 243 241 21 253 241 3 254 240 9 
217 210 37 4 3 11 0 1 0 0 0 3 1 0 6 
1 1 2 89 88 43 248 242 15 255 239 3 253 236 9 
128 134 29 6 3 12 60 55 35 249 239 25 252 240 4 
209 206 33 4 5 2 0 0 1 0 1 2 0 2 0 
1 3 5 39 38 19 244 238 33 255 239 5 253 240 3 
165 158 43 2 6 2 20 21 23 143 139 46 246 237 24 
253 239 6 249 240 19 167 171 61 11 9 10 1 3 4 
1 2 1 0 0 0 0 0 0 0 0 0 1 0 0 
0 1 1 0 1 0 1 1 2 6 7 5 76 71 48 
244 240 27 254 240 10 255 240 2 251 240 6 242 234 36 
36 35 16 3 5 1 1 1 4 0 0 10 0 0 6 
2 1 5 41 34 23 190 181 43 253 241 4 219 216 47 
10 5 17 1 6 1 0 0 8 1 1 4 0 2 0 
2 4 8 84 82 31 242 237 29 222 224 48 47 47 20 
6 6 3 1 1 8 1 1 2 0 2 2 69 68 30 
246 242 17 253 240 5 255 240 7 225 221 26 4 5 1 
0 1 4 0 0 6 1 1 1 4 1 4 185 182 47 
252 240 14 253 243 1 251 239 18 76 76 30 3 6 5 
9 8 8 209 209 41 253 242 1 215 207 34 8 9 6 
2 1 7 2 1 17 2 0 13 4 1 7 128 124 42 
252 243 5 255 239 11 245 242 12 122 122 39 95 94 46 
217 212 43 253 239 11 252 241 9 236 233 32 123 117 39 
16 19 8 4 5 4 0 0 5 0 0 2 0 0 0 
0 0 0 0 0 0 2 0 1 0 1 4 4 4 5 
28 21 14 133 129 41 221 219 36 252 242 4 253 240 4 
254 241 4 253 240 3 248 239 19 130 123 46 10 10 10 
1 6 5 6 4 5 53 51 26 145 140 41 237 230 33 
252 240 7 254 240 7 238 236 11 132 130 48 10 8 10 
6 3 5 5 3 14 15 16 12 107 104 51 229 223 48 
250 240 15 114 116 43 4 5 11 5 3 9 5 4 1 
4 1 9 30 28 15 151 145 42 251 241 9 254 241 3 
254 242 2 237 231 35 63 58 27 3 4 3 5 3 2 
24 16 13 117 114 37 244 236 21 253 240 8 250 243 5 
250 243 10 72 63 32 1 5 16 12 15 7 157 153 39 
251 239 7 249 236 26 107 106 48 1 4 3 1 7 3 
8 11 9 79 76 42 224 221 26 252 241 4 254 240 5 
251 241 11 239 229 33 245 241 24 249 239 8 239 234 28 
165 160 44 46 42 27 2 4 6 1 1 6 1 2 1 
0 0 1 0 0 6 0 0 0 0 0 0 0 0 0 
1 0 1 14 17 12 155 155 70 235 226 46 248 241 8 
253 240 8 254 239 14 251 243 2 253 242 5 255 242 0 
253 243 1 249 239 13 185 187 68 54 54 52 169 168 56 
239 236 30 250 242 5 254 240 10 253 243 1 254 241 4 
252 239 9 248 241 14 198 193 53 41 41 30 85 92 61 
214 208 62 247 240 14 248 243 13 253 240 6 240 239 26 
165 163 58 8 11 12 16 14 18 157 151 58 236 229 62 
249 243 9 255 241 5 254 241 8 254 242 4 251 241 5 
244 236 32 79 83 49 130 127 80 222 216 46 251 242 12 
253 241 5 254 240 9 252 243 3 253 238 6 238 227 50 
103 107 60 165 165 70 249 240 20 252 241 6 251 242 6 
245 240 17 188 188 49 117 113 58 205 207 49 245 240 17 
251 240 14 254 241 6 252 241 9 246 239 25 243 237 38 
196 191 51 120 118 49 49 44 30 7 7 5 0 3 3 
3 1 4 0 0 1 0 0 2 0 0 1 0 0 0 
0 0 0 0 0 0 0 0 0 0 0 0 8 9 6 
59 60 26 65 62 13 64 59 16 64 60 13 63 60 12 
63 61 14 63 61 13 64 60 12 63 60 14 65 61 13 
58 58 28 29 28 21 61 62 20 63 60 13 64 60 12 
64 60 12 63 61 14 64 61 12 65 59 15 65 60 14 
62 61 15 21 21 18 38 42 28 62 60 13 65 59 14 
62 61 15 64 60 12 64 60 13 61 60 22 3 5 2 
7 6 10 61 60 20 62 61 11 64 60 12 64 61 13 
63 61 12 63 60 13 64 59 14 65 60 16 31 34 17 
53 54 34 62 61 14 63 58 15 64 61 12 64 60 16 
64 61 13 65 59 15 63 61 14 44 46 25 56 56 26 
65 59 16 63 60 14 64 61 14 64 59 15 63 60 17 
60 56 29 63 60 17 65 60 13 64 59 17 64 60 13 
63 60 16 56 55 30 7 6 2 4 2 0 0 1 4 
1 2 0 0 1 1 0 0 6 2 0 2 0 0 0 
0 0 1 0 0 1 0 0 0 0 0 0 0 0 0 
0 0 0 0 0 0 0 0 0 0 0 0 0 0 0 
0 0 0 0 0 0 0 0 0 0 0 0 0 0 0 
0 0 0 0 0 0 0 0 0 0 0 0 0 0 0 
0 0 0 0 0 0 0 0 0 0 0 0 0 0 0 
0 0 0 0 0 0 0 0 0 0 0 0 0 0 0 
0 0 0 0 0 0 0 0 0 0 0 0 0 0 0 
0 0 0 0 0 0 0 0 0 0 0 0 0 0 0 
0 0 0 0 0 0 0 0 0 0 0 0 0 0 0 
0 0 0 0 0 0 0 0 0 0 0 0 0 0 0 
0 0 0 0 0 0 0 0 0 0 0 0 0 0 0 
0 0 0 0 0 0 0 0 0 0 0 0 0 0 0 
0 0 0 0 0 0 0 0 0 0 0 0 0 0 0 
0 0 0 0 0 0 0 0 0 0 0 0 0 0 0 
0 0 0 0 0 0 0 0 0 0 0 0 0 0 0 
0 0 0 0 0 0 0 0 0 0 0 0 0 0 0 
0 0 0 0 0 0 0 0 0 0 0 0 0 0 0 
0 0 0 0 0 0 0 0 0 0 0 0 0 0 0 
0 0 0 0 0 0 0 0 0 0 0 0 0 0 0 
0 0 0 0 0 0 0 0 0 0 0 0 0 0 0 
0 0 0 0 0 0 0 0 0 0 0 0 0 0 0 
0 0 0 0 0 0 0 0 0 0 0 0 0 0 0 
0 0 0 0 0 0 0 0 0 0 0 0 0 0 0 
0 0 0 0 0 0 0 0 0 0 0 0 0 0 0 
0 0 0 0 0 0 0 0 0 0 0 0 0 0 0 
0 0 0 0 0 0 0 0 0 0 0 0 0 0 0 
0 0 0 0 0 0 0 0 0 0 0 0 0 0 0 
0 0 0 0 0 0 0 0 0 0 0 0 0 0 0 
0 0 0 0 0 0 0 0 0 0 0 0 0 0 0 
0 0 0 0 0 0 0 0 0 0 0 0 0 0 0 
0 0 0 0 0 0 0 0 0 0 0 0 0 0 0 
0 0 0 0 0 0 0 0 0 0 0 0 0 0 0 
0 0 0 0 0 0 0 0 0 0 0 0 0 0 0 
0 0 0 0 0 0 0 0 0 0 0 0 0 0 0 
0 0 0 0 0 0 0 0 0 0 0 0 0 0 0 
0 0 0 0 0 0 0 0 0 0 0 0 0 0 0 
0 0 0 0 0 0 0 0 0 0 0 0 0 0 0 
0 0 0 0 0 0 0 0 0 0 0 0 0 0 0 
0 0 0 0 0 0 0 0 0 0 0 0 0 0 0 
0 0 0 0 0 0 0 0 0 0 0 0 0 0 0 
0 0 0 0 0 0 0 0 0 0 0 0 0 0 0 
0 0 0 0 0 0 0 0 0 0 0 0 0 0 0 
0 0 0 0 0 0 0 0 0 0 0 0 0 0 0 
0 0 0 0 0 0 0 0 0 0 0 0 0 0 0 
0 0 0 0 0 0 0 0 0 0 0 0 0 0 0 
0 0 0 0 0 0 0 0 0 0 0 0 0 0 0 
0 0 0 0 0 0 0 0 0 0 0 0 0 0 0 
0 0 0 0 0 0 0 0 0 0 0 0 0 0 0 
