P3
# Created by IrfanView
76 30
255
0 0 0 0 0 0 0 0 0 0 0 0 0 0 0 
0 0 0 0 0 0 0 0 0 0 0 0 0 0 0 
0 0 0 1 1 5 1 0 7 2 0 2 2 0 3 
1 0 2 1 0 2 1 0 2 1 1 1 1 0 14 
0 2 4 0 2 6 1 2 1 0 1 4 0 2 1 
1 0 2 1 0 3 1 0 2 0 0 1 0 0 1 
0 0 1 0 0 1 1 0 2 0 0 1 0 0 0 
0 0 0 0 0 0 0 0 0 0 0 0 0 0 0 
0 0 0 0 0 0 0 0 0 0 0 0 0 0 0 
0 0 0 0 0 0 0 0 0 0 0 0 0 0 0 
0 0 0 0 0 0 0 0 0 0 0 0 0 0 0 
0 0 0 0 0 0 0 0 0 0 0 0 0 0 0 
0 0 0 0 0 0 0 0 0 0 0 0 0 0 0 
0 0 0 0 0 0 0 0 0 0 0 0 0 0 0 
0 0 0 0 0 0 0 0 0 0 0 0 0 0 0 
0 0 0 0 0 0 0 0 0 0 0 0 0 0 0 
0 0 0 0 0 0 0 0 0 0 0 0 0 0 0 
0 0 0 0 0 0 0 0 8 1 2 3 0 0 7 
0 2 3 1 1 1 1 1 1 1 1 1 1 1 2 
0 2 1 3 1 2 3 0 13 3 2 1 3 0 2 
3 0 1 1 1 2 1 2 1 1 1 1 1 1 1 
1 1 1 1 1 1 1 1 1 1 1 1 1 1 1 
0 0 3 0 0 4 0 0 2 0 0 0 0 0 0 
0 0 0 0 0 0 0 0 0 0 0 0 0 0 0 
0 0 0 0 0 0 0 0 0 0 0 0 0 0 0 
0 0 0 0 0 0 0 0 0 0 0 0 0 0 0 
0 0 0 0 0 0 0 0 0 0 0 0 0 0 0 
0 0 0 0 0 0 0 0 0 0 0 0 0 0 0 
0 0 0 0 0 0 0 0 0 0 0 0 0 0 0 
0 0 0 0 0 0 0 0 0 0 0 0 0 0 0 
0 0 0 0 0 0 0 0 0 0 0 0 0 0 0 
0 0 0 0 0 0 0 0 0 0 0 0 0 0 0 
0 0 0 0 0 0 0 0 0 1 3 2 5 4 7 
9 3 4 11 2 5 6 3 4 6 3 4 6 3 4 
5 3 6 5 4 3 10 3 2 6 7 2 2 4 14 
5 6 3 10 4 1 6 3 6 5 4 3 6 3 4 
6 3 4 6 3 4 6 3 4 6 3 4 6 3 4 
5 3 3 4 6 1 3 3 5 0 0 4 0 0 0 
0 0 0 0 0 0 0 0 0 0 0 0 0 0 0 
0 0 0 0 0 0 0 0 0 0 0 0 0 0 0 
0 0 0 0 0 0 0 0 0 0 0 0 0 0 0 
0 0 0 0 0 0 0 0 0 0 0 0 0 0 0 
0 0 0 0 0 0 0 0 0 0 0 0 0 0 0 
0 0 0 0 0 0 0 0 0 0 0 0 0 0 0 
0 0 0 0 0 0 0 0 0 0 0 0 0 0 0 
0 0 0 0 0 0 0 0 0 0 0 0 0 0 0 
0 0 0 0 0 0 0 0 0 0 0 0 0 0 0 
0 0 0 0 0 0 0 0 0 0 0 0 1 3 2 
16 14 17 211 214 80 233 230 30 239 225 32 238 228 28 
237 227 31 238 227 32 237 226 29 237 228 36 220 225 63 
63 61 43 190 189 80 236 229 29 237 227 31 237 228 26 
238 227 27 238 227 27 238 227 27 238 228 28 239 226 33 
236 229 29 223 222 76 60 64 46 3 3 2 0 0 4 
0 0 2 0 0 0 0 0 0 0 0 0 0 0 0 
0 0 0 0 0 0 0 0 0 0 0 0 0 0 0 
0 0 0 0 0 0 0 0 0 0 0 0 0 0 0 
0 0 0 0 0 0 0 0 0 0 0 0 0 0 0 
0 0 0 0 0 0 0 0 0 0 0 0 0 0 0 
0 0 0 0 0 0 0 0 0 0 0 0 0 0 0 
0 0 0 0 0 0 0 0 0 0 0 0 0 0 0 
0 0 0 0 0 0 0 0 0 0 0 0 0 0 0 
0 0 0 0 0 0 0 0 0 0 0 0 0 0 0 
0 0 0 0 0 0 0 0 0 0 0 0 0 0 0 
1 0 4 0 1 1 44 41 22 204 196 54 250 239 11 
250 241 2 251 242 8 250 241 9 237 228 37 136 128 41 
37 35 23 4 7 6 46 44 25 200 195 55 247 241 10 
254 240 5 254 241 2 254 241 2 254 241 2 250 241 8 
241 234 29 159 157 47 43 45 27 5 5 4 3 3 3 
0 0 0 0 0 0 0 0 0 0 0 0 0 0 0 
0 0 0 0 0 0 0 0 0 0 0 0 0 0 0 
0 0 0 0 0 0 0 0 0 0 0 0 0 0 0 
0 0 0 0 0 0 0 0 0 0 0 0 0 0 0 
0 0 0 0 0 0 0 0 0 0 0 0 0 0 0 
0 0 0 0 0 0 0 0 0 0 0 0 0 0 0 
0 0 0 0 0 0 0 0 0 0 0 0 0 0 0 
0 0 0 0 0 0 0 0 0 0 0 0 0 0 0 
0 0 0 0 0 0 0 0 0 0 0 0 0 0 0 
0 0 0 0 0 0 0 0 0 0 0 0 0 0 0 
0 0 0 2 0 1 0 0 8 4 5 9 13 9 5 
175 172 51 252 241 4 246 235 24 131 129 59 25 21 17 
6 4 3 3 4 5 2 6 2 2 2 13 25 18 22 
187 181 29 252 241 3 254 241 2 254 241 2 254 241 2 
228 217 41 52 49 22 3 5 8 6 1 7 3 3 3 
1 1 1 0 0 0 0 0 0 0 0 0 0 0 0 
0 0 0 0 0 0 0 0 0 0 0 0 0 0 0 
0 0 0 0 0 0 0 0 0 0 0 0 0 0 0 
0 0 0 0 0 0 0 0 0 0 0 0 0 0 0 
0 0 0 0 0 0 0 0 0 0 0 0 0 0 0 
0 0 0 0 0 0 0 0 0 0 0 0 0 0 0 
0 0 0 0 0 0 0 0 0 0 0 0 0 0 0 
0 0 0 0 0 0 0 0 0 0 0 0 0 0 0 
0 0 0 0 0 0 0 0 0 0 0 0 0 0 0 
0 0 0 0 0 0 0 0 0 0 0 0 0 0 0 
0 0 0 0 0 0 1 0 8 0 3 0 3 2 10 
5 6 3 195 192 44 250 241 8 201 194 40 4 6 5 
0 2 4 0 2 3 0 1 2 2 1 2 1 1 8 
3 8 0 184 179 46 252 242 5 254 241 2 254 241 2 
253 241 6 133 127 42 5 3 12 0 1 13 1 1 7 
0 0 0 0 0 0 0 0 0 0 0 0 0 0 0 
0 0 0 0 0 0 0 0 0 0 0 0 0 0 0 
0 0 0 0 0 0 0 0 0 0 0 0 0 0 0 
0 0 0 0 0 0 0 0 0 0 0 0 0 0 0 
0 0 0 0 0 0 0 0 0 0 0 0 0 0 0 
0 0 0 0 0 0 0 0 0 0 0 0 0 0 0 
0 0 0 0 0 0 0 0 0 0 0 0 0 0 0 
0 0 0 0 0 0 0 0 0 0 0 0 0 0 0 
0 0 0 0 0 0 0 0 0 0 0 0 0 0 0 
0 0 0 0 0 0 0 0 0 0 0 0 0 0 0 
0 0 0 0 0 0 0 0 0 0 1 0 0 0 6 
7 3 12 56 53 30 246 237 23 250 240 8 140 137 42 
4 6 6 0 0 2 0 0 3 0 0 0 3 0 4 
1 1 4 25 24 13 242 239 35 254 241 2 252 243 3 
253 238 10 242 239 32 40 37 25 4 3 4 1 1 1 
1 1 1 2 0 1 1 0 6 1 0 1 1 0 0 
1 0 7 2 0 0 2 0 4 0 2 0 0 2 0 
0 1 0 0 0 0 0 1 0 0 0 2 0 0 5 
0 0 4 0 2 0 0 1 0 0 1 0 1 0 1 
2 0 1 2 0 0 2 0 7 1 0 5 0 0 0 
0 0 0 0 0 0 0 0 1 1 1 4 2 1 5 
1 0 5 0 0 0 0 0 1 0 0 2 0 1 0 
0 1 2 0 0 0 1 0 4 1 0 3 0 0 1 
0 0 2 0 1 0 0 0 0 0 0 0 0 0 0 
0 0 0 0 0 0 0 0 0 0 0 0 0 0 0 
0 0 0 0 0 0 0 0 0 0 0 0 0 1 3 
0 2 2 8 3 11 141 139 39 252 241 5 251 241 12 
81 78 33 6 5 7 0 0 0 0 0 0 0 0 0 
2 0 3 0 3 1 85 79 38 249 241 11 254 241 3 
251 242 6 251 240 9 164 164 45 0 2 1 0 1 2 
1 0 11 2 0 3 1 0 9 1 2 2 0 4 1 
0 3 2 1 3 1 0 4 2 0 1 7 2 0 7 
2 0 5 1 1 1 1 1 0 0 0 12 0 1 3 
0 3 2 0 3 7 2 1 3 2 0 7 1 1 3 
0 1 3 0 1 9 1 1 5 1 2 1 0 1 1 
0 0 0 0 0 0 0 0 0 3 0 5 1 1 4 
0 1 6 1 3 5 1 1 2 1 0 1 1 0 4 
1 0 4 1 0 4 0 2 4 0 1 2 0 1 4 
0 0 3 0 0 1 0 1 0 0 0 0 0 0 0 
0 0 0 0 0 0 0 0 0 0 0 0 0 0 0 
0 0 0 0 0 0 0 0 0 0 0 0 0 0 0 
0 1 4 0 3 3 28 22 15 235 233 37 251 241 4 
239 234 30 28 27 16 3 3 10 0 0 0 0 0 0 
0 0 0 1 0 7 2 6 1 144 141 37 252 242 8 
252 243 2 255 241 2 246 243 11 72 70 36 0 1 1 
0 0 3 3 4 3 124 129 71 158 151 18 161 150 13 
159 150 17 158 152 13 161 148 26 156 152 14 158 150 22 
160 151 14 160 151 14 160 152 12 159 151 14 92 91 17 
5 1 9 12 8 8 149 152 51 159 152 15 162 150 15 
160 150 18 157 153 14 159 151 11 158 153 13 153 150 23 
98 96 48 2 2 2 0 0 0 0 0 0 2 4 5 
116 120 83 152 155 18 162 148 13 157 153 14 157 153 13 
157 153 12 151 145 22 122 118 39 87 86 35 25 22 13 
4 2 9 3 4 5 1 2 1 0 0 2 0 0 1 
0 0 0 0 0 0 0 0 0 0 0 0 0 0 0 
0 0 0 0 0 0 0 0 0 0 0 0 0 0 0 
0 0 0 0 2 2 0 1 6 109 109 40 248 241 8 
249 241 7 198 193 42 4 6 4 2 3 3 0 0 0 
0 0 0 0 0 0 1 1 6 5 7 4 201 200 44 
254 242 1 250 243 7 255 237 4 207 204 51 7 9 8 
0 1 3 0 1 1 4 5 8 48 49 22 205 201 51 
250 240 8 255 238 5 254 240 4 252 240 15 243 237 49 
246 239 27 247 235 41 247 239 25 253 241 4 255 239 5 
127 123 35 6 5 5 8 7 15 90 86 36 234 228 49 
251 239 3 255 238 6 254 241 4 249 239 22 204 199 43 
106 103 40 30 29 20 2 2 2 1 1 1 0 0 0 
5 6 6 48 51 35 188 186 64 249 239 17 251 240 13 
251 236 32 254 242 3 252 240 11 248 241 15 246 244 13 
235 229 42 120 118 42 6 9 3 1 1 7 0 0 2 
0 0 0 0 0 0 0 0 0 0 0 0 0 0 0 
0 0 0 0 0 0 0 0 0 0 0 0 0 0 0 
0 0 0 0 0 0 2 3 5 7 10 7 204 195 41 
252 240 8 251 239 8 140 136 36 1 2 4 3 1 2 
3 0 3 2 0 1 1 0 0 1 2 8 27 24 16 
242 239 28 253 241 9 251 242 6 252 237 11 110 107 47 
3 4 6 1 0 0 0 0 1 1 0 5 0 1 3 
69 69 27 249 240 12 253 242 3 253 242 4 212 213 43 
11 8 12 8 7 1 12 8 6 72 71 26 243 239 24 
251 239 11 65 63 28 3 5 2 0 2 0 2 3 1 
141 137 43 251 241 6 249 244 1 252 242 3 165 152 48 
8 4 3 0 2 16 1 4 0 1 1 1 0 0 0 
0 0 0 2 2 7 3 2 3 8 9 7 242 235 43 
233 227 25 48 43 23 118 113 39 222 222 32 250 241 13 
253 238 8 253 241 5 245 239 27 102 99 43 2 3 5 
1 1 3 0 1 0 0 0 0 0 0 0 0 0 0 
0 0 0 0 0 0 0 0 0 0 0 0 0 0 0 
0 0 0 0 0 0 0 0 0 5 5 13 71 72 31 
249 240 25 252 242 3 245 242 12 81 77 29 1 2 2 
2 1 8 0 3 8 2 2 2 4 0 2 7 1 7 
87 77 37 248 242 12 254 240 12 251 243 2 238 227 42 
28 26 14 4 2 9 1 0 0 0 0 0 0 0 0 
0 1 1 128 125 41 252 241 4 253 241 7 250 242 7 
118 116 44 0 2 2 1 1 1 0 5 5 7 4 16 
218 207 39 229 221 42 20 18 9 3 3 4 0 0 3 
2 0 2 187 182 47 250 239 8 254 240 8 249 239 28 
64 59 30 2 4 3 0 0 8 0 1 0 0 0 0 
0 0 0 0 0 0 0 1 7 1 1 3 91 91 45 
247 240 15 189 181 40 3 7 3 3 3 10 20 17 21 
145 141 55 241 238 20 254 241 6 253 239 6 192 190 54 
3 2 1 1 0 2 0 1 0 0 0 0 0 0 0 
0 0 0 0 0 0 0 0 0 0 0 0 0 0 0 
0 0 0 0 0 0 0 0 0 0 0 0 4 3 5 
170 163 36 251 242 5 254 242 0 251 241 9 182 168 47 
163 154 30 164 153 30 203 200 56 215 210 34 219 212 13 
219 213 12 230 224 18 252 241 8 254 240 7 249 242 5 
154 152 56 2 0 4 1 0 4 0 0 0 0 0 0 
0 0 0 2 0 0 188 184 32 251 241 4 249 242 8 
231 224 36 27 24 21 2 4 3 5 4 3 10 11 24 
38 37 40 173 171 31 163 170 41 1 1 2 0 0 4 
3 2 6 27 26 11 243 237 31 253 243 1 251 239 7 
195 193 49 7 9 14 1 4 4 0 1 0 0 0 0 
0 0 0 0 0 0 0 0 0 4 4 7 5 6 8 
191 188 44 250 243 7 128 122 37 3 7 7 0 3 2 
2 6 4 12 11 5 188 179 55 254 242 2 252 238 8 
178 179 47 3 1 3 1 0 2 0 0 0 0 0 0 
0 0 0 0 0 0 0 0 0 0 0 0 0 0 0 
0 0 0 0 0 0 0 0 1 0 0 0 0 0 0 
31 34 16 244 235 30 253 241 8 254 241 2 251 239 12 
251 243 7 253 242 5 255 240 9 252 241 5 253 242 1 
253 241 6 253 238 16 255 239 6 255 240 7 255 240 7 
248 237 33 45 46 26 3 4 4 3 1 2 0 1 0 
0 0 0 0 0 0 26 25 14 238 233 34 253 240 9 
248 244 3 161 149 49 3 7 3 2 3 11 8 5 7 
121 118 53 169 179 104 60 63 57 57 60 52 0 1 2 
0 0 3 3 4 1 79 79 34 252 238 21 250 242 5 
248 240 12 90 91 43 4 4 7 2 1 5 0 1 0 
0 0 1 0 0 0 0 0 0 0 0 0 4 3 2 
60 64 39 244 239 22 251 239 20 66 62 30 2 5 7 
4 0 3 22 18 13 154 152 47 245 242 16 254 240 9 
239 229 34 68 69 36 1 4 9 2 0 5 0 0 0 
0 0 0 0 0 0 0 0 0 0 0 0 0 0 0 
0 0 0 0 0 0 0 1 0 1 0 11 2 3 3 
2 3 8 134 134 49 251 240 7 248 245 3 253 241 5 
157 149 33 104 100 34 163 157 40 227 216 43 219 208 54 
159 151 38 97 94 39 74 69 44 245 235 24 253 239 4 
251 241 12 190 189 43 12 6 16 2 3 2 0 2 1 
0 1 1 2 1 5 3 9 6 83 78 41 250 241 12 
251 243 2 245 237 28 51 46 23 2 2 5 2 4 5 
70 66 31 237 230 36 131 131 40 1 3 4 1 1 9 
0 2 2 2 0 2 4 7 10 142 139 41 251 243 4 
254 238 12 220 216 39 18 15 9 0 0 0 0 0 0 
0 0 0 0 0 0 0 0 0 0 0 0 0 0 0 
6 5 3 162 155 46 250 241 11 237 227 30 19 16 14 
5 5 6 58 54 26 201 195 46 254 239 8 253 241 3 
237 237 43 72 74 23 3 3 4 1 1 1 0 0 0 
0 0 0 0 0 0 0 0 0 0 0 0 0 0 0 
0 0 0 0 0 0 0 0 0 0 0 0 0 0 5 
3 2 5 14 10 14 221 220 37 253 242 2 254 241 6 
252 240 14 75 78 33 0 5 10 5 6 8 11 5 10 
6 6 4 4 5 4 4 5 9 95 96 27 249 238 21 
254 239 2 247 243 15 85 78 36 8 5 13 1 0 6 
0 2 3 0 1 4 2 0 1 3 4 10 152 147 33 
255 239 7 253 239 13 234 227 37 143 143 24 147 145 19 
149 146 12 230 220 36 245 238 24 63 58 31 1 2 3 
1 0 4 0 1 5 1 1 2 8 6 17 210 204 47 
254 239 6 250 243 8 133 128 56 2 2 7 0 0 0 
0 0 0 0 0 0 0 0 0 0 0 0 0 0 0 
0 1 1 23 27 15 230 225 30 252 239 7 184 181 47 
27 26 17 133 133 40 244 236 35 253 240 9 247 238 32 
177 180 52 54 52 23 4 1 4 2 2 2 1 1 1 
0 0 0 0 0 0 0 0 0 0 0 0 0 0 0 
0 0 0 0 0 0 0 0 0 0 0 0 1 0 0 
0 0 4 5 2 6 102 94 39 249 239 18 252 242 6 
254 240 3 241 238 27 24 22 10 3 1 15 1 0 9 
2 1 3 0 1 6 3 0 6 10 3 9 160 153 36 
252 241 9 254 241 5 220 216 47 11 11 7 0 4 0 
0 1 4 0 0 6 0 0 2 1 1 1 11 11 8 
216 210 38 252 241 10 254 241 5 248 238 33 252 236 30 
253 238 12 252 243 3 253 243 1 220 214 51 13 12 15 
2 1 2 1 0 2 0 0 3 1 1 5 38 37 23 
246 237 21 251 241 3 238 240 38 30 28 15 1 3 4 
0 0 0 0 0 0 0 0 0 0 0 0 0 0 0 
2 2 2 3 3 3 119 116 45 250 241 10 252 238 9 
193 193 33 224 213 42 246 241 26 218 213 45 156 147 49 
60 51 23 6 6 15 0 1 6 1 0 0 0 0 0 
0 0 0 0 0 0 0 0 0 0 0 0 0 0 0 
0 0 0 0 0 0 0 0 0 0 0 0 0 0 0 
2 1 0 0 1 5 7 4 5 191 183 44 252 238 7 
249 245 2 252 239 8 190 189 43 3 3 9 3 3 4 
0 0 5 0 1 8 0 3 2 1 1 10 6 7 2 
216 213 40 253 243 0 253 240 9 132 126 36 1 2 5 
0 1 5 0 1 7 0 2 4 1 1 1 0 2 3 
40 39 16 247 237 30 253 242 3 208 203 40 17 22 5 
50 49 30 63 67 19 155 144 49 251 239 16 139 132 44 
5 6 6 3 1 3 3 0 3 1 1 5 0 2 7 
95 95 31 251 238 15 247 240 9 156 158 46 5 5 3 
1 1 7 1 0 0 1 1 0 0 2 0 0 0 3 
1 0 0 3 3 4 13 12 8 221 213 41 252 240 3 
250 241 16 156 150 44 101 101 46 47 44 18 9 8 10 
1 4 7 4 5 7 4 2 1 1 0 3 0 0 1 
0 0 0 0 0 0 0 0 0 0 0 0 0 0 0 
0 0 0 0 0 0 0 0 0 0 0 0 0 0 0 
0 0 0 3 0 2 0 2 5 51 48 21 246 234 29 
254 240 4 254 242 2 252 241 10 129 130 30 0 0 1 
0 0 0 0 0 0 0 0 2 0 1 2 0 2 11 
42 40 20 245 239 26 255 239 3 240 231 37 30 29 16 
1 1 1 0 0 0 0 0 0 0 0 0 2 0 1 
0 2 4 111 108 40 248 241 10 248 241 11 114 114 51 
0 1 5 4 0 2 1 4 0 71 62 26 242 238 29 
57 58 34 3 4 18 2 2 1 1 1 2 1 1 4 
0 3 3 156 147 36 249 239 10 245 239 21 58 59 26 
1 0 5 0 2 2 3 1 1 2 1 17 3 8 4 
1 1 13 3 0 1 3 3 9 87 86 37 249 242 16 
255 241 1 240 234 34 12 6 5 0 0 0 0 0 0 
0 0 0 0 0 0 0 0 0 0 0 0 0 0 0 
0 0 0 0 0 0 0 0 0 0 0 0 0 0 0 
0 0 0 0 0 0 0 0 0 0 0 0 0 0 0 
0 0 0 0 0 0 3 0 1 2 1 9 158 155 41 
252 240 9 254 240 8 253 244 0 248 241 11 73 72 31 
0 1 0 0 0 0 0 0 0 0 1 0 0 1 4 
1 1 13 96 95 26 249 241 14 252 241 3 170 165 49 
5 6 6 2 2 1 0 0 0 0 0 0 0 0 0 
2 2 3 3 1 5 171 167 41 250 242 5 235 229 41 
21 17 14 0 2 1 4 0 3 1 2 1 42 40 27 
187 188 76 81 76 51 151 155 99 2 2 9 2 1 4 
2 2 4 3 3 4 230 224 51 252 243 3 190 186 35 
7 6 4 2 0 4 0 2 5 1 4 4 6 2 5 
125 122 82 74 80 57 2 1 1 4 3 6 190 189 48 
252 242 4 253 242 5 185 178 45 6 4 5 0 0 0 
0 0 0 0 0 0 0 0 0 0 0 0 0 0 0 
0 0 0 0 0 0 0 0 0 0 0 0 0 0 0 
0 0 0 0 0 0 0 0 0 0 0 0 0 0 0 
0 0 0 0 0 0 0 0 0 2 2 1 28 27 17 
232 227 35 255 241 3 254 242 3 251 244 2 237 230 33 
23 23 13 0 1 1 0 0 0 0 0 0 0 0 0 
1 0 1 3 2 4 167 168 41 251 242 4 244 238 21 
64 64 27 3 8 7 2 1 0 0 0 0 0 0 0 
0 0 0 2 2 3 17 10 7 226 223 33 250 240 9 
147 139 44 6 5 13 0 1 3 4 0 4 1 0 8 
2 4 8 60 53 35 219 217 40 118 113 37 5 1 15 
4 0 2 5 3 2 52 49 28 249 240 19 252 240 15 
104 98 44 4 4 5 3 1 2 2 1 8 3 9 2 
130 122 57 237 235 43 51 55 28 2 0 5 49 53 23 
241 239 23 254 241 3 249 244 5 123 117 41 6 7 6 
0 0 1 0 0 0 0 0 0 0 0 0 0 0 0 
0 0 0 0 0 0 0 0 0 0 0 0 0 0 0 
0 0 0 0 0 0 0 0 0 0 0 0 0 0 0 
1 0 2 2 1 1 0 3 2 1 1 7 3 3 5 
104 101 33 249 240 9 254 241 1 254 242 2 251 242 9 
194 190 35 6 6 8 0 2 2 0 0 5 0 0 0 
0 1 2 1 3 2 15 13 8 222 221 49 252 240 5 
206 202 48 4 3 8 3 2 5 4 0 8 1 0 1 
0 0 0 3 0 0 5 3 6 70 62 34 249 241 17 
247 232 29 44 37 19 4 3 6 2 2 7 3 4 2 
1 5 10 26 24 13 201 196 42 229 230 33 36 31 25 
0 2 3 1 2 3 4 5 5 114 107 37 252 239 8 
226 216 49 17 12 6 2 3 8 3 2 6 3 4 2 
71 68 26 239 234 27 196 190 57 3 6 3 4 2 10 
147 148 49 249 245 5 254 238 7 249 245 9 70 58 28 
2 5 6 0 0 1 0 0 0 0 0 0 0 0 0 
0 0 0 0 0 0 0 0 0 0 0 0 0 0 0 
0 0 0 0 0 0 0 0 0 0 0 0 0 0 0 
0 0 0 0 0 2 1 0 6 1 3 10 4 6 9 
11 7 5 218 213 58 254 241 1 254 241 2 254 241 1 
252 242 6 139 132 40 5 4 17 0 1 7 0 2 2 
0 1 4 1 1 6 12 8 12 99 91 44 246 241 19 
250 238 13 105 102 40 1 3 4 2 1 3 3 1 2 
1 0 4 0 2 2 1 0 8 3 6 9 125 122 45 
249 242 7 174 168 47 4 6 9 4 6 3 6 3 10 
7 3 11 21 21 12 170 166 53 249 240 12 156 151 54 
5 4 11 1 3 6 0 2 5 4 6 14 167 170 36 
248 242 10 124 124 47 0 1 5 1 2 2 6 4 10 
73 73 36 237 232 41 248 241 13 85 85 43 3 9 6 
33 28 23 235 230 46 253 241 7 254 238 11 227 224 36 
19 14 10 2 7 6 0 0 1 0 0 0 0 0 0 
0 0 0 0 0 0 0 0 0 0 0 0 0 0 0 
0 0 0 0 0 0 0 0 0 0 0 0 0 0 0 
0 0 0 0 0 0 0 1 2 2 5 3 11 8 4 
90 86 36 186 187 46 248 242 20 254 242 0 254 241 2 
254 242 1 252 243 2 197 193 34 48 44 24 2 5 3 
3 3 7 18 16 16 97 98 38 203 198 53 246 239 26 
253 241 5 253 241 7 199 204 33 55 52 29 5 4 6 
1 3 7 2 5 1 4 3 9 35 32 19 129 129 50 
235 228 38 253 237 13 155 149 38 146 142 45 158 152 22 
202 193 38 215 207 28 230 226 51 246 241 18 240 237 23 
54 51 31 4 5 13 2 3 7 31 30 17 143 133 45 
241 238 23 248 238 12 128 123 37 132 127 39 156 151 20 
200 193 33 234 228 21 250 239 10 217 217 38 18 18 11 
37 33 23 170 165 56 249 241 14 255 240 3 254 238 7 
214 210 45 40 40 21 5 4 5 0 0 0 0 0 0 
0 0 0 0 0 0 0 0 0 0 0 0 0 0 0 
0 0 0 0 0 0 0 0 0 0 0 0 0 0 0 
0 0 0 0 0 0 0 0 0 0 0 1 104 101 58 
215 209 51 247 240 13 251 243 3 254 242 0 255 240 2 
254 241 1 252 243 0 254 242 1 249 241 7 233 225 50 
71 73 53 121 119 73 220 218 46 245 241 17 250 243 7 
255 241 2 254 240 11 253 240 6 248 242 3 238 235 28 
128 123 59 2 5 6 9 7 12 149 145 58 238 228 48 
250 238 14 248 241 9 253 237 11 249 241 9 249 242 8 
252 242 7 254 240 9 255 240 5 254 243 1 252 239 6 
177 176 42 5 7 10 8 6 8 140 136 57 237 233 31 
251 240 10 251 244 4 253 237 9 250 240 14 250 242 8 
251 242 4 254 240 6 253 241 1 248 241 11 122 119 44 
140 139 57 240 232 43 250 243 8 254 240 6 254 239 12 
251 239 14 252 240 8 235 227 46 133 129 53 0 0 0 
0 0 0 0 0 0 0 0 0 0 0 0 0 0 0 
0 0 0 0 0 0 0 0 0 0 0 0 0 0 0 
0 0 0 0 0 0 0 0 0 0 0 0 1 1 0 
45 47 22 62 61 13 65 60 14 64 60 12 64 60 12 
64 60 14 64 60 13 63 61 12 64 61 12 64 60 15 
64 61 13 29 31 16 56 57 33 63 61 13 64 60 14 
63 60 16 64 60 13 64 59 19 64 60 13 64 60 14 
63 60 13 52 52 22 1 2 0 3 1 6 60 59 25 
64 60 12 65 60 13 60 61 12 63 61 12 63 60 16 
62 59 14 63 62 13 63 61 12 64 61 12 64 60 12 
64 60 15 26 24 12 0 1 1 2 1 0 59 58 28 
65 61 12 64 60 13 62 61 12 64 59 14 64 60 14 
64 60 16 63 61 11 63 61 12 63 61 12 62 61 14 
20 19 14 59 60 26 63 59 12 64 60 15 65 60 14 
63 61 13 62 61 11 65 60 12 64 58 17 58 58 23 
0 0 0 0 0 0 0 0 0 0 0 0 0 0 0 
0 0 0 0 0 0 0 0 0 0 0 0 0 0 0 
0 0 0 0 0 0 0 0 0 0 0 0 0 0 0 
0 0 0 0 0 0 0 0 0 0 0 0 0 0 0 
0 0 0 0 0 0 0 0 0 0 0 0 0 0 0 
0 0 0 0 0 0 0 0 0 0 0 0 0 0 0 
0 0 0 0 0 0 0 0 0 0 0 0 0 0 0 
0 0 0 0 0 0 0 0 0 0 0 0 0 0 0 
0 0 0 0 0 0 0 0 0 0 0 0 0 0 0 
0 0 0 0 0 0 0 0 0 0 0 0 0 0 0 
0 0 0 0 0 0 0 0 0 0 0 0 0 0 0 
0 0 0 0 0 0 0 0 0 0 0 0 0 0 0 
0 0 0 0 0 0 0 0 0 0 0 0 0 0 0 
0 0 0 0 0 0 0 0 0 0 0 0 0 0 0 
0 0 0 0 0 0 0 0 0 0 0 0 0 0 0 
0 0 0 0 0 0 0 0 0 0 0 0 0 0 0 
0 0 0 0 0 0 0 0 0 0 0 0 0 0 0 
0 0 0 0 0 0 0 0 0 0 0 0 0 0 0 
0 0 0 0 0 0 0 0 0 0 0 0 0 0 0 
0 0 0 0 0 0 0 0 0 0 0 0 0 0 0 
0 0 0 0 0 0 0 0 0 0 0 0 0 0 0 
0 0 0 0 0 0 0 0 0 0 0 0 0 0 0 
0 0 0 0 0 0 0 0 0 0 0 0 0 0 0 
0 0 0 0 0 0 0 0 0 0 0 0 0 0 0 
0 0 0 0 0 0 0 0 0 0 0 0 0 0 0 
0 0 0 0 0 0 0 0 0 0 0 0 0 0 0 
0 0 0 0 0 0 0 0 0 0 0 0 0 0 0 
0 0 0 0 0 0 0 0 0 0 0 0 0 0 0 
0 0 0 0 0 0 0 0 0 0 0 0 0 0 0 
0 0 0 0 0 0 0 0 0 0 0 0 0 0 0 
0 0 0 0 0 0 0 0 0 0 0 0 0 0 0 
0 0 0 0 0 0 0 0 0 0 0 0 0 0 0 
0 0 0 0 0 0 0 0 0 0 0 0 0 0 0 
0 0 0 0 0 0 0 0 0 0 0 0 0 0 0 
0 0 0 0 0 0 0 0 0 0 0 0 0 0 0 
0 0 0 0 0 0 0 0 0 0 0 0 0 0 0 
0 0 0 0 0 0 0 0 0 0 0 0 0 0 0 
0 0 0 0 0 0 0 0 0 0 0 0 0 0 0 
0 0 0 0 0 0 0 0 0 0 0 0 0 0 0 
0 0 0 0 0 0 0 0 0 0 0 0 0 0 0 
0 0 0 0 0 0 0 0 0 0 0 0 0 0 0 
0 0 0 0 0 0 0 0 0 0 0 0 0 0 0 
0 0 0 0 0 0 0 0 0 0 0 0 0 0 0 
0 0 0 0 0 0 0 0 0 0 0 0 0 0 0 
0 0 0 0 0 0 0 0 0 0 0 0 0 0 0 
0 0 0 0 0 0 0 0 0 0 0 0 0 0 0 
0 0 0 0 0 0 0 0 0 0 0 0 0 0 0 
0 0 0 0 0 0 0 0 0 0 0 0 0 0 0 
