P3
# Created by IrfanView
108 30
255
0 0 0 0 0 0 0 0 0 0 0 0 0 0 0 
0 0 0 0 0 0 0 0 0 0 0 0 0 0 0 
0 0 0 0 0 0 0 0 0 0 0 0 0 0 0 
0 0 0 0 0 0 0 0 0 0 0 0 0 0 0 
0 0 0 0 0 0 0 0 0 0 0 0 0 0 0 
0 0 0 0 0 0 0 0 0 0 0 0 0 0 0 
0 0 0 0 0 0 0 0 0 0 0 0 0 0 0 
0 0 0 0 0 0 0 0 0 0 0 0 0 0 0 
0 0 0 0 0 0 0 0 0 0 0 0 0 0 0 
0 0 0 0 0 0 0 0 0 0 0 0 0 0 0 
0 0 0 0 0 0 0 0 0 0 0 0 0 0 0 
0 0 0 0 0 0 0 0 0 0 0 0 0 0 0 
0 0 0 0 0 0 0 0 0 0 0 0 0 0 0 
0 0 0 0 0 0 0 0 0 0 0 0 0 0 0 
0 0 0 0 0 0 0 0 0 0 0 0 0 0 0 
0 0 0 0 0 0 0 0 0 0 0 0 0 0 0 
0 0 0 0 0 0 0 0 0 0 0 0 0 0 0 
0 0 0 0 0 0 0 0 0 0 0 0 0 0 0 
0 0 0 0 0 0 0 0 0 0 0 0 0 0 0 
0 0 0 0 0 0 0 0 0 0 0 0 0 0 0 
0 0 0 0 0 0 0 0 0 0 0 0 0 0 0 
0 0 0 0 0 0 0 0 0 0 0 0 0 0 0 
0 0 0 0 0 0 0 0 0 0 0 0 0 0 0 
0 0 0 0 0 0 0 0 0 0 0 0 0 0 0 
0 0 0 0 0 0 0 0 0 0 0 0 0 0 0 
0 0 0 0 0 0 0 0 0 0 0 0 0 0 0 
0 0 0 0 0 0 0 0 0 0 0 0 0 0 0 
0 0 0 0 0 0 0 0 0 0 0 0 0 0 0 
0 0 0 0 0 0 0 0 0 0 0 0 0 0 0 
0 0 0 0 0 0 0 0 0 0 0 0 0 0 0 
0 0 0 0 0 0 0 0 0 0 0 0 0 0 0 
0 0 0 0 0 0 0 0 0 0 0 0 0 0 0 
0 0 0 0 0 0 0 0 0 0 0 0 0 0 0 
0 0 0 0 0 0 0 0 0 0 0 0 0 0 0 
0 0 0 0 0 0 0 0 0 0 0 0 0 0 0 
0 0 0 0 0 0 0 0 0 0 0 0 0 0 0 
0 0 0 0 0 0 0 0 0 0 0 0 0 0 0 
0 0 0 0 0 0 0 0 0 0 0 0 0 0 0 
0 0 0 0 0 0 0 0 0 0 0 0 0 0 0 
0 0 0 0 0 0 0 0 0 0 0 0 0 0 0 
0 0 0 0 0 0 0 0 0 0 0 0 0 0 0 
0 0 0 0 0 0 0 0 0 0 0 0 0 0 0 
0 0 0 0 0 0 0 0 0 0 0 0 0 0 0 
0 0 0 0 0 0 0 0 0 0 0 0 0 0 0 
0 0 0 0 0 0 0 0 0 0 0 0 0 0 0 
0 0 0 0 0 0 0 0 0 0 0 0 0 0 0 
0 0 0 0 0 0 0 0 0 0 0 0 0 0 0 
0 0 0 0 0 0 0 0 0 0 0 0 0 0 0 
0 0 0 0 0 0 0 0 0 0 0 0 0 0 0 
0 0 0 0 0 0 0 0 0 0 0 0 0 0 0 
0 0 0 0 0 0 0 0 0 0 0 0 0 0 0 
0 0 0 0 0 0 0 0 0 0 0 0 0 0 0 
0 0 0 0 0 0 0 0 0 0 0 0 0 0 0 
0 0 0 0 0 0 0 0 0 0 0 0 0 0 0 
0 0 0 0 0 0 0 0 0 0 0 0 0 0 0 
0 0 0 0 0 0 0 0 0 0 0 0 0 0 0 
0 0 0 0 0 0 0 0 0 0 0 0 0 0 0 
0 0 0 0 0 0 0 0 0 0 0 0 0 0 0 
0 0 0 0 0 0 0 0 0 0 0 0 0 0 0 
0 0 0 0 0 0 0 0 0 0 0 0 0 0 0 
0 0 0 0 0 0 0 0 0 0 0 0 0 0 0 
0 0 0 0 0 0 0 0 0 0 0 0 0 0 0 
0 0 0 0 0 0 0 0 0 0 0 0 0 0 0 
0 0 0 0 0 0 0 0 0 0 0 0 0 0 0 
0 0 0 0 0 0 0 0 0 0 0 0 0 0 0 
0 0 0 0 0 0 0 0 0 0 0 0 0 0 0 
0 0 0 0 0 0 0 0 0 67 65 29 234 224 48 
234 224 48 234 224 48 234 224 48 234 224 48 234 224 48 
234 224 48 234 224 48 207 199 55 3 3 3 0 0 0 
0 0 0 0 0 0 0 0 0 0 0 0 0 0 0 
0 0 0 0 0 0 124 120 49 234 224 48 234 224 48 
234 224 48 234 224 48 234 224 48 234 224 48 234 224 48 
234 224 48 106 103 56 0 0 0 0 0 0 0 0 0 
0 0 0 0 0 0 0 0 0 0 0 0 0 0 0 
0 0 0 0 0 0 0 0 0 0 0 0 0 0 0 
0 0 0 0 0 0 0 0 0 0 0 0 0 0 0 
0 0 0 0 0 0 0 0 0 0 0 0 0 0 0 
0 0 0 0 0 0 0 0 0 0 0 0 0 0 0 
0 0 0 0 0 0 0 0 0 0 0 0 0 0 0 
0 0 0 0 0 0 0 0 0 0 0 0 0 0 0 
0 0 0 0 0 0 0 0 0 0 0 0 0 0 0 
0 0 0 0 0 0 0 0 0 0 0 0 0 0 0 
0 0 0 0 0 0 0 0 0 0 0 0 0 0 0 
0 0 0 0 0 0 0 0 0 0 0 0 0 0 0 
0 0 0 0 0 0 0 0 0 0 0 0 0 0 0 
0 0 0 0 0 0 0 0 0 0 0 0 0 0 0 
0 0 0 0 0 0 0 0 0 0 0 0 0 0 0 
0 0 0 0 0 0 0 0 0 0 0 0 0 0 0 
0 0 0 68 67 32 135 130 33 234 223 17 255 242 0 
255 242 0 255 242 0 255 242 0 255 242 0 255 242 0 
231 219 3 4 4 0 0 0 0 0 0 0 0 0 0 
0 0 0 0 0 0 0 0 0 0 0 0 40 40 30 
231 220 14 255 242 0 255 242 0 255 242 0 255 242 0 
255 242 0 225 214 11 150 144 32 132 127 41 17 17 10 
0 0 0 0 0 0 0 0 0 0 0 0 0 0 0 
0 0 0 0 0 0 0 0 0 0 0 0 0 0 0 
0 0 0 0 0 0 0 0 0 0 0 0 0 0 0 
0 0 0 0 0 0 0 0 0 0 0 0 0 0 0 
0 0 0 0 0 0 0 0 0 0 0 0 0 0 0 
0 0 0 0 0 0 0 0 0 0 0 0 0 0 0 
0 0 0 0 0 0 0 0 0 0 0 0 0 0 0 
0 0 0 0 0 0 0 0 0 0 0 0 0 0 0 
0 0 0 0 0 0 0 0 0 0 0 0 0 0 0 
0 0 0 0 0 0 0 0 0 0 0 0 0 0 0 
0 0 0 0 0 0 0 0 0 0 0 0 0 0 0 
0 0 0 0 0 0 0 0 0 0 0 0 0 0 0 
0 0 0 0 0 0 0 0 0 0 0 0 0 0 0 
0 0 0 0 0 0 0 0 0 0 0 0 0 0 0 
0 0 0 0 0 0 0 0 0 0 0 0 0 0 0 
0 0 0 0 0 0 0 0 0 0 0 0 0 0 0 
0 0 0 78 76 39 255 242 0 215 205 18 198 188 12 
255 242 0 255 242 0 255 242 0 255 242 0 46 46 37 
0 0 0 0 0 0 0 0 0 0 0 0 0 0 0 
0 0 0 5 5 5 159 152 31 224 213 19 235 223 2 
255 242 0 255 242 0 255 242 0 239 227 10 53 53 42 
0 0 0 0 0 0 0 0 0 0 0 0 0 0 0 
0 0 0 0 0 0 0 0 0 0 0 0 0 0 0 
0 0 0 0 0 0 0 0 0 0 0 0 0 0 0 
0 0 0 0 0 0 0 0 0 0 0 0 0 0 0 
0 0 0 0 0 0 0 0 0 0 0 0 0 0 0 
0 0 0 0 0 0 0 0 0 0 0 0 0 0 0 
0 0 0 0 0 0 0 0 0 0 0 0 0 0 0 
0 0 0 0 0 0 0 0 0 0 0 0 0 0 0 
0 0 0 0 0 0 0 0 0 0 0 0 0 0 0 
0 0 0 0 0 0 0 0 0 0 0 0 0 0 0 
0 0 0 0 0 0 0 0 0 0 0 0 0 0 0 
0 0 0 0 0 0 0 0 0 0 0 0 0 0 0 
0 0 0 0 0 0 0 0 0 0 0 0 0 0 0 
0 0 0 0 0 0 0 0 0 0 0 0 0 0 0 
0 0 0 0 0 0 0 0 0 0 0 0 0 0 0 
0 0 0 0 0 0 0 0 0 0 0 0 0 0 0 
0 0 0 0 0 0 0 0 0 0 0 0 66 65 40 
255 242 0 155 149 34 198 189 13 255 242 0 255 242 0 
255 242 0 255 242 0 50 49 41 0 0 0 0 0 0 
0 0 0 0 0 0 0 0 0 0 0 0 103 100 44 
238 227 5 152 148 70 255 242 0 255 242 0 255 242 0 
255 242 0 152 145 26 0 0 0 0 0 0 0 0 0 
0 0 0 0 0 0 0 0 0 0 0 0 0 0 0 
0 0 0 0 0 0 0 0 0 0 0 0 0 0 0 
0 0 0 0 0 0 0 0 0 0 0 0 0 0 0 
0 0 0 0 0 0 0 0 0 0 0 0 0 0 0 
0 0 0 0 0 0 0 0 0 0 0 0 0 0 0 
0 0 0 0 0 0 0 0 0 0 0 0 0 0 0 
0 0 0 0 0 0 0 0 0 0 0 0 0 0 0 
0 0 0 0 0 0 0 0 0 0 0 0 0 0 0 
0 0 0 0 0 0 0 0 0 0 0 0 0 0 0 
0 0 0 0 0 0 0 0 0 0 0 0 0 0 0 
0 0 0 0 0 0 0 0 0 0 0 0 0 0 0 
0 0 0 0 0 0 0 0 0 0 0 0 0 0 0 
0 0 0 0 0 0 0 0 0 0 0 0 0 0 0 
0 0 0 0 0 0 0 0 0 0 0 0 0 0 0 
0 0 0 0 0 0 0 0 0 0 0 0 0 0 0 
0 0 0 0 0 0 0 0 0 0 0 0 0 0 0 
0 0 0 0 0 0 105 102 34 253 240 0 68 67 38 
205 196 21 255 242 0 255 242 0 255 242 0 255 242 0 
41 41 32 0 0 0 0 0 0 0 0 0 0 0 0 
0 0 0 42 41 28 233 222 16 130 125 42 164 157 29 
255 242 0 255 242 0 255 242 0 255 242 0 79 77 33 
0 0 0 0 0 0 0 0 0 0 0 0 0 0 0 
0 0 0 0 0 0 0 0 0 0 0 0 0 0 0 
0 0 0 0 0 0 0 0 0 0 0 0 0 0 0 
0 0 0 0 0 0 0 0 0 0 0 0 0 0 0 
0 0 0 0 0 0 0 0 0 0 0 0 0 0 0 
3 3 3 20 20 20 43 42 19 21 21 9 15 15 15 
0 0 0 0 0 0 0 0 0 0 0 0 0 0 0 
0 0 0 0 0 0 0 0 0 0 0 0 0 0 0 
0 0 0 0 0 0 0 0 0 0 0 0 0 0 0 
0 0 0 0 0 0 0 0 0 0 0 0 0 0 0 
0 0 0 11 11 11 15 15 15 58 57 33 18 18 8 
23 23 23 0 0 0 0 0 0 0 0 0 0 0 0 
0 0 0 0 0 0 0 0 0 0 0 0 0 0 0 
0 0 0 0 0 0 0 0 0 0 0 0 0 0 0 
0 0 0 0 0 0 0 0 0 0 0 0 0 0 0 
0 0 0 0 0 0 0 0 0 0 0 0 0 0 0 
0 0 0 0 0 0 0 0 0 0 0 0 0 0 0 
185 177 35 226 215 21 19 19 19 212 203 28 255 242 0 
255 242 0 255 242 0 255 242 0 33 33 24 0 0 0 
0 0 0 0 0 0 0 0 0 15 15 13 193 185 28 
193 185 30 28 28 26 223 212 11 255 242 0 255 242 0 
255 242 0 226 216 17 13 13 11 0 0 0 0 0 0 
0 0 0 127 124 52 227 218 42 227 218 42 227 218 42 
227 218 42 227 218 42 227 218 42 218 210 45 84 82 49 
0 0 0 0 0 0 135 131 50 227 218 42 227 218 42 
227 218 42 227 218 42 227 218 42 186 179 63 17 17 17 
0 0 0 29 29 25 118 113 32 204 195 28 243 231 10 
209 199 11 223 212 13 225 214 9 174 167 36 80 78 29 
200 193 48 58 57 48 0 0 0 80 77 34 225 216 42 
227 218 42 227 218 42 227 218 42 227 218 42 227 218 42 
223 214 42 191 184 58 10 10 10 0 0 0 0 0 0 
0 0 0 4 4 4 69 67 35 161 154 27 220 210 18 
221 211 14 189 180 15 223 213 11 228 217 12 169 162 36 
93 91 39 206 198 44 29 29 28 0 0 0 0 0 0 
0 0 0 0 0 0 0 0 0 0 0 0 0 0 0 
0 0 0 0 0 0 0 0 0 0 0 0 0 0 0 
0 0 0 0 0 0 0 0 0 0 0 0 0 0 0 
0 0 0 0 0 0 0 0 0 0 0 0 0 0 0 
0 0 0 0 0 0 29 29 29 233 221 6 155 149 39 
0 0 0 220 210 35 255 242 0 255 242 0 255 242 0 
255 242 0 25 24 16 0 0 0 0 0 0 0 0 0 
0 0 0 126 122 36 227 216 14 42 41 26 84 82 36 
255 242 0 255 242 0 255 242 0 255 242 0 147 142 37 
0 0 0 0 0 0 0 0 0 0 0 0 23 23 18 
114 111 41 255 242 0 255 242 0 255 242 0 243 231 7 
109 105 44 36 35 23 4 4 4 0 0 0 0 0 0 
35 34 23 113 108 24 247 235 2 255 242 0 184 176 35 
72 70 36 12 12 10 0 0 0 67 65 32 222 212 18 
255 242 0 190 181 19 53 52 25 12 12 12 21 21 21 
112 109 49 253 240 1 255 242 0 225 215 17 14 14 12 
0 0 0 12 12 12 71 69 35 217 206 13 255 242 0 
255 242 0 255 242 0 170 163 37 64 62 35 11 11 11 
0 0 0 0 0 0 0 0 0 64 62 39 188 179 26 
253 241 1 220 209 10 102 99 46 20 20 20 0 0 0 
19 19 15 150 145 39 255 242 0 255 242 0 198 189 30 
1 1 1 0 0 0 0 0 0 0 0 0 0 0 0 
0 0 0 0 0 0 0 0 0 0 0 0 0 0 0 
0 0 0 0 0 0 0 0 0 0 0 0 0 0 0 
0 0 0 0 0 0 0 0 0 0 0 0 0 0 0 
0 0 0 0 0 0 0 0 0 0 0 0 0 0 0 
107 103 30 252 239 0 63 61 25 0 0 0 227 218 42 
255 242 0 255 242 0 255 242 0 255 242 0 22 21 6 
0 0 0 0 0 0 0 0 0 77 75 41 241 229 4 
89 86 32 0 0 0 171 165 42 255 242 0 255 242 0 
255 242 0 255 242 0 59 58 31 0 0 0 0 0 0 
0 0 0 0 0 0 0 0 0 58 56 35 255 242 0 
255 242 0 255 242 0 149 143 23 0 0 0 0 0 0 
0 0 0 0 0 0 0 0 0 0 0 0 5 5 5 
239 228 31 203 194 31 21 21 20 0 0 0 0 0 0 
56 55 33 246 234 8 255 242 0 205 196 28 13 13 12 
0 0 0 0 0 0 0 0 0 0 0 0 180 172 36 
255 242 0 158 151 29 0 0 0 0 0 0 0 0 0 
3 3 3 202 193 25 255 242 0 255 242 0 230 218 12 
26 25 22 0 0 0 0 0 0 0 0 0 5 5 5 
108 104 37 235 224 7 255 242 0 209 200 18 34 33 25 
0 0 0 0 0 0 0 0 0 0 0 0 19 19 18 
228 217 19 255 242 0 94 91 20 0 0 0 0 0 0 
0 0 0 0 0 0 0 0 0 0 0 0 0 0 0 
0 0 0 0 0 0 0 0 0 0 0 0 0 0 0 
0 0 0 0 0 0 0 0 0 0 0 0 0 0 0 
0 0 0 0 0 0 0 0 0 0 0 0 0 0 0 
0 0 0 0 0 0 3 3 3 196 187 30 219 209 17 
8 8 8 0 0 0 232 223 48 255 242 0 255 242 0 
255 242 0 255 242 0 88 84 24 0 0 0 0 0 0 
25 24 18 223 212 18 156 150 36 6 6 6 21 21 21 
229 218 13 255 242 0 255 242 0 255 242 0 218 208 24 
17 17 16 0 0 0 0 0 0 0 0 0 0 0 0 
0 0 0 124 119 27 255 242 0 255 242 0 253 240 0 
63 61 24 0 0 0 0 0 0 0 0 0 0 0 0 
0 0 0 0 0 0 25 24 21 238 227 8 87 84 39 
0 0 0 0 0 0 15 15 15 204 195 23 255 242 0 
255 242 0 138 133 35 0 0 0 0 0 0 0 0 0 
0 0 0 0 0 0 115 111 32 254 241 0 64 62 22 
0 0 0 0 0 0 0 0 0 32 32 22 246 234 4 
255 242 0 255 242 0 159 152 25 0 0 0 0 0 0 
0 0 0 0 0 0 123 119 49 249 237 2 255 242 0 
241 229 6 68 66 37 0 0 0 0 0 0 0 0 0 
0 0 0 0 0 0 0 0 0 182 175 34 246 234 5 
45 44 33 0 0 0 0 0 0 0 0 0 0 0 0 
0 0 0 59 58 26 120 114 0 61 58 16 0 0 0 
0 0 0 0 0 0 0 0 0 0 0 0 0 0 0 
0 0 0 0 0 0 0 0 0 0 0 0 0 0 0 
0 0 0 0 0 0 0 0 0 0 0 0 0 0 0 
27 27 20 244 232 6 147 141 28 0 0 0 0 0 0 
165 157 2 255 242 0 255 242 0 255 242 0 255 242 0 
109 105 45 0 0 0 4 4 4 171 164 34 201 192 20 
22 22 21 0 0 0 85 83 39 253 240 0 255 242 0 
255 242 0 255 242 0 150 144 35 0 0 0 0 0 0 
0 0 0 0 0 0 0 0 0 5 5 5 200 191 19 
255 242 0 255 242 0 231 220 18 12 12 12 0 0 0 
0 0 0 0 0 0 0 0 0 0 0 0 0 0 0 
81 79 40 224 213 13 24 24 22 0 0 0 0 0 0 
77 75 30 255 242 0 255 242 0 255 242 0 177 170 44 
12 12 12 0 0 0 0 0 0 0 0 0 0 0 0 
65 62 15 230 219 15 22 22 22 0 0 0 0 0 0 
0 0 0 121 116 31 255 242 0 255 242 0 254 241 0 
78 76 27 0 0 0 0 0 0 0 0 0 72 69 32 
251 238 4 255 242 0 255 242 0 130 125 36 0 0 0 
0 0 0 0 0 0 0 0 0 0 0 0 0 0 0 
0 0 0 121 116 17 191 183 30 7 7 7 0 0 0 
0 0 0 0 0 0 24 24 20 127 122 34 242 230 7 
253 240 1 80 77 37 0 0 0 0 0 0 0 0 0 
0 0 0 0 0 0 0 0 0 0 0 0 0 0 0 
0 0 0 0 0 0 0 0 0 0 0 0 0 0 0 
0 0 0 0 0 0 0 0 0 111 107 30 255 242 0 
64 63 29 0 0 0 0 0 0 139 132 9 255 242 0 
255 242 0 255 242 0 255 242 0 100 97 36 0 0 0 
117 113 44 234 222 9 60 59 39 0 0 0 1 1 1 
159 153 31 255 242 0 255 242 0 255 242 0 251 238 1 
71 70 42 0 0 0 0 0 0 0 0 0 0 0 0 
0 0 0 54 53 35 249 236 3 255 242 0 255 242 0 
148 141 26 0 0 0 0 0 0 0 0 0 0 0 0 
0 0 0 0 0 0 0 0 0 170 164 38 153 147 25 
0 0 0 0 0 0 0 0 0 165 159 43 255 242 0 
255 242 0 255 242 0 254 241 1 194 186 38 87 84 36 
17 17 17 0 0 0 0 0 0 27 26 19 82 80 42 
0 0 0 0 0 0 0 0 0 2 2 2 190 181 22 
255 242 0 255 242 0 235 224 14 15 15 15 0 0 0 
0 0 0 34 33 24 226 216 17 255 242 0 255 242 0 
230 219 13 33 33 30 0 0 0 0 0 0 0 0 0 
0 0 0 0 0 0 0 0 0 0 0 0 75 72 10 
88 85 23 0 0 0 83 80 38 157 150 26 185 177 33 
226 216 10 255 242 0 255 242 0 216 206 22 13 13 13 
0 0 0 0 0 0 0 0 0 0 0 0 0 0 0 
0 0 0 0 0 0 0 0 0 0 0 0 0 0 0 
0 0 0 0 0 0 0 0 0 0 0 0 0 0 0 
0 0 0 180 172 22 223 213 20 11 11 10 0 0 0 
0 0 0 146 139 17 255 242 0 255 242 0 255 242 0 
255 242 0 91 88 27 44 43 29 239 228 10 116 112 41 
0 0 0 0 0 0 23 23 21 227 216 14 255 242 0 
255 242 0 255 242 0 221 211 19 8 8 8 0 0 0 
0 0 0 0 0 0 0 0 0 0 0 0 138 132 41 
255 242 0 255 242 0 255 242 0 79 77 34 0 0 0 
0 0 0 0 0 0 0 0 0 0 0 0 0 0 0 
24 24 24 223 212 15 69 67 25 0 0 0 0 0 0 
0 0 0 135 130 33 255 242 0 255 242 0 255 242 0 
255 242 0 255 242 0 255 242 0 214 204 14 149 144 39 
34 33 25 0 0 0 0 0 0 0 0 0 0 0 0 
0 0 0 36 36 22 248 235 5 255 242 0 255 242 0 
163 157 29 0 0 0 0 0 0 0 0 0 144 139 40 
255 242 0 255 242 0 255 242 0 145 140 29 0 0 0 
0 0 0 0 0 0 0 0 0 0 0 0 0 0 0 
0 0 0 0 0 0 0 0 0 0 0 0 0 0 0 
97 94 54 139 134 48 151 146 60 250 238 2 255 242 0 
255 242 0 143 138 39 0 0 0 0 0 0 0 0 0 
0 0 0 0 0 0 0 0 0 0 0 0 0 0 0 
0 0 0 0 0 0 0 0 0 0 0 0 0 0 0 
0 0 0 0 0 0 0 0 0 33 32 22 246 234 6 
138 133 35 0 0 0 0 0 0 0 0 0 153 147 24 
255 242 0 255 242 0 255 242 0 255 242 0 106 103 39 
199 190 19 166 159 30 5 5 5 0 0 0 0 0 0 
90 87 29 255 242 0 255 242 0 255 242 0 255 242 0 
130 125 21 0 0 0 0 0 0 0 0 0 0 0 0 
0 0 0 8 8 8 206 197 28 255 242 0 255 242 0 
225 214 18 10 10 10 0 0 0 0 0 0 0 0 0 
0 0 0 0 0 0 0 0 0 81 78 33 232 221 17 
13 13 13 0 0 0 0 0 0 0 0 0 36 36 29 
221 211 14 255 242 0 255 242 0 255 242 0 255 242 0 
255 242 0 255 242 0 255 242 0 236 224 15 71 69 41 
0 0 0 0 0 0 0 0 0 0 0 0 117 112 33 
255 242 0 255 242 0 255 242 0 86 83 33 0 0 0 
0 0 0 19 19 19 233 222 16 255 242 0 255 242 0 
247 235 1 54 53 34 0 0 0 0 0 0 0 0 0 
0 0 0 0 0 0 0 0 0 0 0 0 0 0 0 
0 0 0 0 0 0 0 0 0 0 0 0 0 0 0 
98 95 35 255 242 0 255 242 0 251 238 0 53 52 25 
0 0 0 0 0 0 0 0 0 0 0 0 0 0 0 
0 0 0 0 0 0 0 0 0 0 0 0 0 0 0 
0 0 0 0 0 0 0 0 0 0 0 0 0 0 0 
0 0 0 116 112 42 250 238 1 53 52 31 0 0 0 
0 0 0 0 0 0 160 154 31 255 242 0 255 242 0 
255 242 0 255 242 0 210 200 18 231 220 22 26 26 21 
0 0 0 0 0 0 0 0 0 177 170 30 255 242 0 
255 242 0 255 242 0 254 241 0 63 62 30 0 0 0 
0 0 0 0 0 0 0 0 0 0 0 0 53 52 36 
250 237 0 255 242 0 255 242 0 143 137 37 0 0 0 
0 0 0 0 0 0 0 0 0 0 0 0 0 0 0 
0 0 0 160 154 35 155 148 27 0 0 0 0 0 0 
0 0 0 0 0 0 0 0 0 56 55 36 172 165 33 
236 224 6 255 242 0 255 242 0 255 242 0 255 242 0 
255 242 0 255 242 0 183 175 26 1 1 1 0 0 0 
0 0 0 2 2 2 205 196 35 255 242 0 255 242 0 
220 209 15 18 18 16 0 0 0 0 0 0 74 72 24 
255 242 0 255 242 0 255 242 0 218 208 15 9 9 9 
0 0 0 0 0 0 0 0 0 0 0 0 0 0 0 
0 0 0 0 0 0 0 0 0 0 0 0 0 0 0 
0 0 0 0 0 0 2 2 2 175 168 35 255 242 0 
255 242 0 212 202 20 5 5 5 0 0 0 0 0 0 
0 0 0 0 0 0 0 0 0 0 0 0 0 0 0 
0 0 0 0 0 0 0 0 0 0 0 0 0 0 0 
0 0 0 0 0 0 0 0 0 0 0 0 201 193 36 
221 210 24 14 14 14 0 0 0 0 0 0 0 0 0 
168 161 38 255 242 0 255 242 0 255 242 0 255 242 0 
241 228 4 78 76 38 0 0 0 0 0 0 0 0 0 
23 23 18 235 224 9 255 242 0 255 242 0 255 242 0 
215 205 20 6 6 6 0 0 0 0 0 0 0 0 0 
0 0 0 0 0 0 124 120 33 255 242 0 255 242 0 
255 242 0 58 57 32 0 0 0 0 0 0 0 0 0 
0 0 0 0 0 0 0 0 0 17 17 17 238 227 10 
82 79 34 0 0 0 0 0 0 22 21 3 11 11 2 
0 0 0 0 0 0 0 0 0 39 38 28 109 105 30 
208 198 22 255 242 0 255 242 0 255 242 0 255 242 0 
240 229 21 21 21 21 0 0 0 0 0 0 50 49 40 
245 233 1 255 242 0 255 242 0 156 150 37 0 0 0 
0 0 0 0 0 0 135 130 27 255 242 0 255 242 0 
255 242 0 163 156 22 0 0 0 0 0 0 0 0 0 
0 0 0 0 0 0 0 0 0 0 0 0 0 0 0 
0 0 0 0 0 0 0 0 0 0 0 0 0 0 0 
27 26 23 235 224 8 255 242 0 255 242 0 136 131 28 
0 0 0 0 0 0 0 0 0 0 0 0 0 0 0 
0 0 0 0 0 0 0 0 0 0 0 0 0 0 0 
0 0 0 0 0 0 0 0 0 0 0 0 0 0 0 
0 0 0 50 49 34 242 229 2 142 136 24 0 0 0 
0 0 0 0 0 0 0 0 0 175 168 45 255 242 0 
255 242 0 255 242 0 255 242 0 124 120 35 1 1 1 
0 0 0 0 0 0 0 0 0 86 83 26 255 242 0 
255 242 0 255 242 0 255 242 0 150 144 33 0 0 0 
0 0 0 0 0 0 0 0 0 0 0 0 5 5 5 
204 195 22 255 242 0 255 242 0 233 222 20 16 16 14 
0 0 0 0 0 0 0 0 0 0 0 0 0 0 0 
0 0 0 103 100 39 219 209 25 14 14 13 0 0 0 
1 1 1 186 178 30 128 123 33 0 0 0 0 0 0 
0 0 0 0 0 0 0 0 0 7 7 6 136 131 39 
255 242 0 255 242 0 255 242 0 188 180 32 0 0 0 
0 0 0 0 0 0 117 113 34 255 242 0 255 242 0 
255 242 0 67 65 32 0 0 0 0 0 0 0 0 0 
151 144 2 255 242 0 255 242 0 255 242 0 154 148 35 
0 0 0 0 0 0 0 0 0 0 0 0 0 0 0 
0 0 0 0 0 0 0 0 0 9 9 9 0 0 0 
0 0 0 0 0 0 0 0 0 102 98 34 255 242 0 
255 242 0 254 241 1 55 53 30 0 0 0 0 0 0 
0 0 0 0 0 0 0 0 0 0 0 0 0 0 0 
0 0 0 0 0 0 0 0 0 0 0 0 0 0 0 
0 0 0 0 0 0 0 0 0 0 0 0 143 138 41 
255 242 0 94 90 29 0 0 0 0 0 0 0 0 0 
0 0 0 158 152 29 255 242 0 255 242 0 255 242 0 
193 184 25 19 19 18 0 0 0 0 0 0 0 0 0 
0 0 0 172 164 26 255 242 0 255 242 0 255 242 0 
254 241 1 58 57 29 0 0 0 0 0 0 0 0 0 
0 0 0 0 0 0 6 6 6 231 220 8 255 242 0 
255 242 0 172 165 23 1 1 1 0 0 0 0 0 0 
0 0 0 0 0 0 0 0 0 15 15 12 211 201 26 
102 99 34 0 0 0 0 0 0 30 30 21 244 232 8 
152 145 31 0 0 0 0 0 0 0 0 0 0 0 0 
0 0 0 0 0 0 17 17 17 255 242 0 255 242 0 
255 242 0 89 86 31 0 0 0 0 0 0 7 7 7 
200 191 31 255 242 0 255 242 0 224 213 21 21 21 20 
0 0 0 0 0 0 0 0 0 138 132 22 255 242 0 
255 242 0 255 242 0 157 151 38 0 0 0 0 0 0 
0 0 0 0 0 0 0 0 0 0 0 0 0 0 0 
50 49 28 173 167 53 9 9 9 0 0 0 0 0 0 
0 0 0 182 174 26 255 242 0 255 242 0 213 203 21 
6 6 6 0 0 0 0 0 0 0 0 0 0 0 0 
0 0 0 0 0 0 0 0 0 0 0 0 0 0 0 
0 0 0 0 0 0 0 0 0 0 0 0 0 0 0 
0 0 0 51 50 33 238 227 11 255 242 0 100 96 23 
0 0 0 0 0 0 0 0 0 0 0 0 102 97 4 
255 242 0 255 242 0 233 222 13 40 39 30 0 0 0 
0 0 0 0 0 0 0 0 0 42 42 36 236 224 8 
255 242 0 255 242 0 255 242 0 220 210 23 10 10 10 
0 0 0 0 0 0 0 0 0 0 0 0 0 0 0 
9 9 4 235 224 5 255 242 0 255 242 0 188 180 32 
1 1 1 0 0 0 0 0 0 0 0 0 0 0 0 
15 15 15 163 157 47 189 181 40 12 12 12 0 0 0 
0 0 0 94 91 29 255 242 0 218 208 19 25 25 23 
0 0 0 0 0 0 0 0 0 0 0 0 0 0 0 
122 117 29 255 242 0 255 242 0 188 180 38 12 12 12 
0 0 0 0 0 0 41 40 29 242 230 2 255 242 0 
255 242 0 156 149 34 0 0 0 0 0 0 0 0 0 
0 0 0 80 78 33 255 242 0 255 242 0 255 242 0 
188 180 31 3 3 3 0 0 0 0 0 0 0 0 0 
0 0 0 7 7 7 95 93 44 221 211 23 70 69 44 
0 0 0 0 0 0 0 0 0 34 34 24 247 235 8 
255 242 0 255 242 0 128 123 36 0 0 0 0 0 0 
0 0 0 0 0 0 0 0 0 0 0 0 0 0 0 
0 0 0 0 0 0 0 0 0 0 0 0 0 0 0 
0 0 0 5 5 5 24 23 19 94 92 43 215 205 19 
255 242 0 255 242 0 183 175 25 65 63 34 7 7 7 
0 0 0 0 0 0 83 79 9 255 242 0 248 235 2 
87 84 36 0 0 0 0 0 0 7 7 7 13 13 11 
58 57 32 173 166 21 255 242 0 255 242 0 255 242 0 
255 242 0 238 227 15 68 67 48 9 9 9 1 1 1 
0 0 0 0 0 0 0 0 0 10 10 10 195 186 26 
255 242 0 255 242 0 246 233 6 83 81 35 5 5 5 
0 0 0 5 5 5 56 55 37 180 172 33 195 187 37 
27 27 23 0 0 0 0 0 0 0 0 0 178 170 36 
255 242 0 255 242 0 141 136 41 11 11 11 0 0 0 
0 0 0 1 1 1 58 57 30 231 220 11 254 241 0 
187 180 38 31 31 27 0 0 0 0 0 0 3 3 3 
137 132 39 255 242 0 255 242 0 255 242 0 83 80 34 
0 0 0 0 0 0 0 0 0 0 0 0 13 13 13 
194 186 33 255 242 0 255 242 0 249 237 2 111 108 46 
15 15 13 5 5 5 6 6 6 60 59 31 175 168 31 
204 195 24 65 64 38 0 0 0 0 0 0 0 0 0 
3 3 3 134 130 49 255 242 0 255 242 0 255 242 0 
62 61 29 0 0 0 0 0 0 1 1 1 13 13 13 
0 0 0 0 0 0 0 0 0 0 0 0 0 0 0 
0 0 0 0 0 0 0 0 0 7 7 7 209 201 42 
236 224 5 255 242 0 255 242 0 255 242 0 255 242 0 
255 242 0 255 242 0 171 165 48 0 0 0 0 0 0 
83 80 22 233 222 22 159 153 47 3 3 3 0 0 0 
8 8 8 207 199 57 231 219 14 255 242 0 255 242 0 
255 242 0 255 242 0 255 242 0 255 242 0 255 242 0 
248 236 0 208 199 34 22 22 22 0 0 0 0 0 0 
0 0 0 0 0 0 36 36 25 210 200 26 255 242 0 
255 242 0 251 238 1 220 210 24 166 158 12 219 209 24 
215 205 17 122 118 37 10 10 10 0 0 0 0 0 0 
0 0 0 21 21 21 228 217 11 172 165 33 232 221 17 
253 240 1 171 164 30 137 132 39 139 134 40 166 159 34 
244 232 4 218 207 12 120 115 33 11 11 11 0 0 0 
35 35 25 140 133 15 197 189 34 244 232 2 255 242 0 
255 242 0 255 242 0 227 216 11 164 157 37 22 22 22 
0 0 0 0 0 0 0 0 0 32 31 26 188 180 39 
248 235 0 255 242 0 255 242 0 238 227 19 233 222 23 
235 225 26 234 222 10 147 142 46 23 23 23 0 0 0 
0 0 0 61 60 25 173 166 35 193 185 28 245 233 0 
255 242 0 255 242 0 255 242 0 223 212 11 180 173 34 
37 37 31 58 58 58 11 11 11 0 0 0 0 0 0 
0 0 0 0 0 0 0 0 0 0 0 0 0 0 0 
0 0 0 7 7 7 66 63 1 67 64 0 67 64 0 
67 64 0 67 64 0 67 64 0 67 64 0 67 64 0 
43 42 12 0 0 0 0 0 0 3 3 3 6 6 6 
3 3 3 0 0 0 0 0 0 3 3 3 62 60 3 
67 64 0 67 64 0 67 64 0 67 64 0 67 64 0 
67 64 0 67 64 0 67 64 0 67 64 0 57 55 9 
0 0 0 0 0 0 0 0 0 0 0 0 0 0 0 
0 0 0 22 22 21 75 72 24 143 137 29 136 129 13 
134 128 12 149 143 36 84 81 33 20 20 16 0 0 0 
0 0 0 0 0 0 0 0 0 0 0 0 19 18 9 
44 42 7 3 3 3 20 20 16 83 80 31 147 142 34 
135 129 12 142 136 19 138 133 36 80 77 29 20 20 18 
0 0 0 0 0 0 0 0 0 20 20 13 67 64 0 
67 64 0 67 64 0 67 64 0 67 64 0 67 64 0 
67 64 0 64 61 4 4 4 4 0 0 0 0 0 0 
0 0 0 0 0 0 6 6 6 61 59 29 131 127 35 
142 136 20 137 130 14 152 146 33 80 77 24 25 25 20 
0 0 0 0 0 0 0 0 0 0 0 0 36 35 12 
67 64 0 67 64 0 67 64 0 67 64 0 67 64 0 
67 64 0 67 64 0 67 64 0 15 15 10 1 1 1 
0 0 0 0 0 0 0 0 0 0 0 0 0 0 0 
0 0 0 0 0 0 0 0 0 0 0 0 0 0 0 
0 0 0 0 0 0 0 0 0 0 0 0 0 0 0 
0 0 0 0 0 0 0 0 0 0 0 0 0 0 0 
0 0 0 0 0 0 0 0 0 0 0 0 0 0 0 
0 0 0 0 0 0 0 0 0 0 0 0 0 0 0 
0 0 0 0 0 0 0 0 0 0 0 0 0 0 0 
0 0 0 0 0 0 0 0 0 0 0 0 0 0 0 
0 0 0 0 0 0 0 0 0 0 0 0 0 0 0 
0 0 0 0 0 0 0 0 0 0 0 0 0 0 0 
0 0 0 0 0 0 0 0 0 0 0 0 0 0 0 
0 0 0 0 0 0 0 0 0 0 0 0 0 0 0 
0 0 0 0 0 0 0 0 0 0 0 0 0 0 0 
0 0 0 0 0 0 0 0 0 0 0 0 0 0 0 
0 0 0 0 0 0 0 0 0 0 0 0 0 0 0 
0 0 0 0 0 0 0 0 0 0 0 0 0 0 0 
0 0 0 0 0 0 0 0 0 0 0 0 0 0 0 
0 0 0 0 0 0 0 0 0 0 0 0 0 0 0 
0 0 0 0 0 0 0 0 0 0 0 0 0 0 0 
0 0 0 0 0 0 0 0 0 0 0 0 0 0 0 
0 0 0 0 0 0 0 0 0 0 0 0 0 0 0 
0 0 0 0 0 0 0 0 0 0 0 0 0 0 0 
0 0 0 0 0 0 0 0 0 0 0 0 0 0 0 
0 0 0 0 0 0 0 0 0 0 0 0 0 0 0 
0 0 0 0 0 0 0 0 0 0 0 0 0 0 0 
0 0 0 0 0 0 0 0 0 0 0 0 0 0 0 
0 0 0 0 0 0 0 0 0 0 0 0 0 0 0 
0 0 0 0 0 0 0 0 0 0 0 0 0 0 0 
0 0 0 0 0 0 0 0 0 0 0 0 0 0 0 
0 0 0 0 0 0 0 0 0 0 0 0 0 0 0 
0 0 0 0 0 0 0 0 0 0 0 0 0 0 0 
0 0 0 0 0 0 0 0 0 0 0 0 0 0 0 
0 0 0 0 0 0 0 0 0 0 0 0 0 0 0 
0 0 0 0 0 0 0 0 0 0 0 0 0 0 0 
0 0 0 0 0 0 0 0 0 0 0 0 0 0 0 
0 0 0 0 0 0 0 0 0 0 0 0 0 0 0 
0 0 0 0 0 0 0 0 0 0 0 0 0 0 0 
0 0 0 0 0 0 0 0 0 0 0 0 0 0 0 
0 0 0 0 0 0 0 0 0 0 0 0 0 0 0 
0 0 0 0 0 0 0 0 0 0 0 0 0 0 0 
0 0 0 0 0 0 0 0 0 0 0 0 0 0 0 
0 0 0 0 0 0 0 0 0 0 0 0 0 0 0 
0 0 0 0 0 0 0 0 0 0 0 0 0 0 0 
0 0 0 0 0 0 0 0 0 0 0 0 0 0 0 
0 0 0 0 0 0 0 0 0 0 0 0 0 0 0 
0 0 0 0 0 0 0 0 0 0 0 0 0 0 0 
0 0 0 0 0 0 0 0 0 0 0 0 0 0 0 
0 0 0 0 0 0 0 0 0 0 0 0 0 0 0 
0 0 0 0 0 0 0 0 0 0 0 0 0 0 0 
0 0 0 0 0 0 0 0 0 0 0 0 0 0 0 
0 0 0 0 0 0 0 0 0 0 0 0 0 0 0 
0 0 0 0 0 0 0 0 0 0 0 0 0 0 0 
0 0 0 0 0 0 0 0 0 0 0 0 0 0 0 
0 0 0 0 0 0 0 0 0 0 0 0 0 0 0 
0 0 0 0 0 0 0 0 0 0 0 0 0 0 0 
0 0 0 0 0 0 0 0 0 0 0 0 0 0 0 
0 0 0 0 0 0 0 0 0 0 0 0 0 0 0 
0 0 0 0 0 0 0 0 0 0 0 0 0 0 0 
0 0 0 0 0 0 0 0 0 0 0 0 0 0 0 
0 0 0 0 0 0 0 0 0 0 0 0 0 0 0 
0 0 0 0 0 0 0 0 0 0 0 0 0 0 0 
0 0 0 0 0 0 0 0 0 0 0 0 0 0 0 
0 0 0 0 0 0 0 0 0 0 0 0 0 0 0 
0 0 0 0 0 0 0 0 0 0 0 0 0 0 0 
0 0 0 0 0 0 0 0 0 0 0 0 0 0 0 
0 0 0 0 0 0 0 0 0 0 0 0 0 0 0 
0 0 0 0 0 0 0 0 0 0 0 0 0 0 0 
0 0 0 0 0 0 0 0 0 0 0 0 0 0 0 
0 0 0 0 0 0 0 0 0 0 0 0 0 0 0 
0 0 0 0 0 0 0 0 0 0 0 0 0 0 0 
0 0 0 0 0 0 0 0 0 0 0 0 0 0 0 
0 0 0 0 0 0 0 0 0 0 0 0 0 0 0 
0 0 0 0 0 0 0 0 0 0 0 0 0 0 0 
0 0 0 0 0 0 0 0 0 0 0 0 0 0 0 
0 0 0 0 0 0 0 0 0 0 0 0 0 0 0 
0 0 0 0 0 0 0 0 0 0 0 0 0 0 0 
0 0 0 0 0 0 0 0 0 0 0 0 0 0 0 
0 0 0 0 0 0 0 0 0 0 0 0 0 0 0 
0 0 0 0 0 0 0 0 0 0 0 0 0 0 0 
0 0 0 0 0 0 0 0 0 0 0 0 0 0 0 
0 0 0 0 0 0 0 0 0 0 0 0 0 0 0 
0 0 0 0 0 0 0 0 0 0 0 0 0 0 0 
0 0 0 0 0 0 0 0 0 0 0 0 0 0 0 
0 0 0 0 0 0 0 0 0 0 0 0 0 0 0 
0 0 0 0 0 0 0 0 0 0 0 0 0 0 0 
0 0 0 0 0 0 0 0 0 0 0 0 0 0 0 
0 0 0 0 0 0 0 0 0 0 0 0 0 0 0 
0 0 0 0 0 0 0 0 0 0 0 0 0 0 0 
0 0 0 0 0 0 0 0 0 0 0 0 0 0 0 
0 0 0 0 0 0 0 0 0 0 0 0 0 0 0 
0 0 0 0 0 0 0 0 0 0 0 0 0 0 0 
0 0 0 0 0 0 0 0 0 0 0 0 0 0 0 
0 0 0 0 0 0 0 0 0 0 0 0 0 0 0 
0 0 0 0 0 0 0 0 0 0 0 0 0 0 0 
0 0 0 0 0 0 0 0 0 0 0 0 0 0 0 
0 0 0 0 0 0 0 0 0 0 0 0 0 0 0 
0 0 0 0 0 0 0 0 0 0 0 0 0 0 0 
0 0 0 0 0 0 0 0 0 0 0 0 0 0 0 
0 0 0 0 0 0 0 0 0 0 0 0 0 0 0 
0 0 0 0 0 0 0 0 0 0 0 0 0 0 0 
0 0 0 0 0 0 0 0 0 0 0 0 0 0 0 
0 0 0 0 0 0 0 0 0 0 0 0 0 0 0 
0 0 0 0 0 0 0 0 0 0 0 0 0 0 0 
0 0 0 0 0 0 0 0 0 0 0 0 0 0 0 
0 0 0 0 0 0 0 0 0 0 0 0 0 0 0 
0 0 0 0 0 0 0 0 0 0 0 0 0 0 0 
0 0 0 0 0 0 0 0 0 0 0 0 0 0 0 
0 0 0 0 0 0 0 0 0 0 0 0 0 0 0 
0 0 0 0 0 0 0 0 0 0 0 0 0 0 0 
0 0 0 0 0 0 0 0 0 0 0 0 0 0 0 
0 0 0 0 0 0 0 0 0 0 0 0 0 0 0 
0 0 0 0 0 0 0 0 0 0 0 0 0 0 0 
0 0 0 0 0 0 0 0 0 0 0 0 0 0 0 
0 0 0 0 0 0 0 0 0 0 0 0 0 0 0 
0 0 0 0 0 0 0 0 0 0 0 0 0 0 0 
0 0 0 0 0 0 0 0 0 0 0 0 0 0 0 
0 0 0 0 0 0 0 0 0 0 0 0 0 0 0 
0 0 0 0 0 0 0 0 0 0 0 0 0 0 0 
0 0 0 0 0 0 0 0 0 0 0 0 0 0 0 
0 0 0 0 0 0 0 0 0 0 0 0 0 0 0 
0 0 0 0 0 0 0 0 0 0 0 0 0 0 0 
0 0 0 0 0 0 0 0 0 0 0 0 0 0 0 
0 0 0 0 0 0 0 0 0 0 0 0 0 0 0 
0 0 0 0 0 0 0 0 0 0 0 0 0 0 0 
0 0 0 0 0 0 0 0 0 0 0 0 0 0 0 
0 0 0 0 0 0 0 0 0 0 0 0 0 0 0 
0 0 0 0 0 0 0 0 0 0 0 0 0 0 0 
0 0 0 0 0 0 0 0 0 0 0 0 0 0 0 
0 0 0 0 0 0 0 0 0 0 0 0 0 0 0 
0 0 0 0 0 0 0 0 0 0 0 0 0 0 0 
0 0 0 0 0 0 0 0 0 0 0 0 0 0 0 
