P3
# Created by IrfanView
102 30
255
0 0 0 0 0 0 0 0 0 0 0 0 0 0 0 
0 0 0 0 0 0 0 0 0 0 0 0 0 0 0 
0 0 0 0 0 0 0 0 0 0 0 0 0 0 0 
0 0 0 0 0 0 0 0 0 0 0 0 0 0 0 
0 0 0 0 0 0 0 0 0 0 0 0 0 0 0 
0 0 0 0 0 0 0 0 0 0 0 0 0 0 0 
0 0 0 0 0 0 0 0 0 0 0 0 0 0 0 
0 0 0 0 0 0 0 0 0 0 0 0 0 0 0 
0 0 0 0 0 0 0 0 0 0 0 0 0 0 0 
0 0 0 0 0 0 0 0 0 0 0 0 0 0 0 
0 0 0 0 0 0 0 0 0 0 0 0 0 0 0 
0 0 0 0 0 0 0 0 0 0 0 0 0 0 0 
0 0 0 0 0 0 0 0 0 0 0 0 0 0 0 
0 0 0 0 0 0 0 0 0 0 0 0 0 0 0 
0 0 0 0 0 0 0 0 0 0 0 0 0 0 0 
0 0 0 0 0 0 0 0 0 0 0 0 0 0 0 
0 0 0 0 0 0 0 0 0 0 0 0 0 0 0 
0 0 0 0 0 0 0 0 0 0 0 0 0 0 0 
0 0 0 0 0 0 0 0 0 0 0 0 0 0 0 
0 0 0 0 0 0 0 0 0 0 0 0 0 0 0 
0 0 0 0 0 0 0 0 0 0 0 0 0 0 0 
0 0 0 0 0 0 0 0 0 0 0 0 0 0 0 
0 0 0 0 0 0 0 0 0 0 0 0 0 0 0 
0 0 0 0 0 0 0 0 0 0 0 0 0 0 0 
0 0 0 0 0 0 0 0 0 0 0 0 0 0 0 
0 0 0 0 0 0 0 0 0 0 0 0 0 0 0 
0 0 0 0 0 0 0 0 0 0 0 0 0 0 0 
0 0 0 0 0 0 0 0 0 0 0 0 0 0 0 
0 0 0 0 0 0 0 0 0 0 0 0 0 0 0 
0 0 0 0 0 0 0 0 0 0 0 0 0 0 0 
0 0 0 0 0 0 0 0 0 0 0 0 0 0 0 
0 0 0 0 0 0 0 0 0 0 0 0 0 0 0 
0 0 0 0 0 0 0 0 0 0 0 0 0 0 0 
0 0 0 0 0 0 0 0 0 0 0 0 0 0 0 
0 0 0 0 0 0 0 0 0 0 0 0 0 0 0 
0 0 0 0 0 0 0 0 0 0 0 0 0 0 0 
0 0 0 0 0 0 0 0 0 0 0 0 0 0 0 
0 0 0 0 0 0 0 0 0 0 0 0 0 0 0 
0 0 0 0 0 0 0 0 0 0 0 0 0 0 0 
0 0 0 0 0 0 0 0 0 0 0 0 0 0 0 
0 0 0 0 0 0 0 0 0 0 0 0 0 0 0 
0 0 0 0 0 0 0 0 0 0 0 0 0 0 0 
0 0 0 0 0 0 0 0 0 0 0 0 0 0 0 
0 0 0 0 0 0 0 0 0 0 0 0 0 0 0 
0 0 0 0 0 0 0 0 0 0 0 0 0 0 0 
0 0 0 0 0 0 0 0 0 0 0 0 0 0 0 
0 0 0 0 0 0 0 0 0 0 0 0 0 0 0 
0 0 0 0 0 0 0 0 0 0 0 0 0 0 0 
0 0 0 0 0 0 0 0 0 0 0 0 0 0 0 
0 0 0 0 0 0 0 0 0 0 0 0 0 0 0 
0 0 0 0 0 0 0 0 0 0 0 0 0 0 0 
0 0 0 0 0 0 0 0 0 0 0 0 0 0 0 
0 0 0 0 0 0 0 0 0 0 0 0 0 0 0 
0 0 0 0 0 0 0 0 0 0 0 0 0 0 0 
0 0 0 0 0 0 0 0 0 0 0 0 0 0 0 
0 0 0 0 0 0 0 0 0 0 0 0 0 0 0 
0 0 0 0 0 0 0 0 0 0 0 0 0 0 0 
0 0 0 0 0 0 0 0 0 0 0 0 0 0 0 
0 0 0 0 0 0 0 0 0 0 0 0 0 0 0 
0 0 0 0 0 0 0 0 0 0 0 0 0 0 0 
0 0 0 0 0 0 0 0 0 0 0 0 0 0 0 
0 0 0 0 0 0 0 0 0 0 0 0 0 0 0 
0 0 0 0 0 0 0 0 0 0 0 0 0 0 0 
0 0 0 0 0 0 0 0 0 0 0 0 0 0 0 
0 0 0 0 0 0 0 0 0 0 0 0 0 0 0 
0 0 0 0 0 0 0 0 0 0 0 0 0 0 0 
0 0 0 0 0 0 0 0 0 0 0 0 0 0 0 
0 0 0 0 0 0 0 0 0 0 0 0 0 0 0 
0 0 0 0 0 0 0 0 0 0 0 0 0 0 0 
0 0 0 0 0 0 0 0 0 0 0 0 0 0 0 
0 0 0 0 0 0 0 0 0 0 0 0 0 0 0 
0 0 0 0 0 0 0 0 0 0 0 0 0 0 0 
0 0 0 0 0 0 0 0 0 0 0 0 0 0 0 
0 0 0 0 0 0 0 0 0 0 0 0 0 0 0 
0 0 0 0 0 0 0 0 0 0 0 0 0 0 0 
0 0 0 0 0 0 0 0 0 0 0 0 0 0 0 
0 0 0 0 0 0 0 0 0 0 0 0 0 0 0 
0 0 0 0 0 0 0 0 0 0 0 0 0 0 0 
0 0 0 0 0 0 0 0 0 0 0 0 0 0 0 
0 0 0 0 0 0 0 0 0 0 0 0 0 0 0 
0 0 0 0 0 0 0 0 0 0 0 0 0 0 0 
0 0 0 0 0 0 0 0 0 0 0 0 0 0 0 
0 0 0 0 0 0 0 0 0 0 0 0 0 0 0 
0 0 0 8 8 8 43 43 43 43 43 43 43 43 43 
43 43 43 43 43 43 43 43 43 43 43 43 43 43 43 
20 20 20 0 0 0 0 0 0 0 0 0 0 0 0 
0 0 0 0 0 0 0 0 0 0 0 0 31 31 31 
43 43 43 43 43 43 43 43 43 43 43 43 43 43 43 
43 43 43 43 43 43 32 32 32 0 0 0 0 0 0 
0 0 0 0 0 0 0 0 0 0 0 0 0 0 0 
0 0 0 0 0 0 0 0 0 0 0 0 0 0 0 
0 0 0 0 0 0 0 0 0 0 0 0 0 0 0 
0 0 0 0 0 0 0 0 0 0 0 0 0 0 0 
0 0 0 0 0 0 0 0 0 0 0 0 0 0 0 
0 0 0 0 0 0 0 0 0 0 0 0 0 0 0 
0 0 0 0 0 0 0 0 0 0 0 0 0 0 0 
0 0 0 0 0 0 0 0 0 0 0 0 0 0 0 
0 0 0 0 0 0 0 0 0 0 0 0 0 0 0 
0 0 0 0 0 0 0 0 0 0 0 0 0 0 0 
0 0 0 0 0 0 0 0 0 0 0 0 0 0 0 
0 0 0 0 0 0 0 0 0 0 0 0 0 0 0 
0 0 0 0 0 0 0 0 0 0 0 0 0 0 0 
0 0 0 0 0 0 0 0 0 0 0 0 0 0 0 
0 0 0 0 0 0 0 0 0 66 64 22 254 241 1 
255 242 1 255 242 1 255 242 1 255 242 1 255 242 1 
255 242 1 255 242 1 75 71 9 0 0 0 0 0 0 
0 0 0 0 0 0 0 0 0 0 0 0 0 0 0 
19 19 19 209 199 19 255 242 1 255 242 1 255 242 1 
255 242 1 255 242 1 255 242 1 255 242 1 110 106 30 
0 0 0 0 0 0 0 0 0 0 0 0 0 0 0 
0 0 0 0 0 0 0 0 0 0 0 0 0 0 0 
0 0 0 0 0 0 0 0 0 0 0 0 0 0 0 
0 0 0 0 0 0 0 0 0 0 0 0 0 0 0 
0 0 0 0 0 0 0 0 0 0 0 0 0 0 0 
0 0 0 0 0 0 0 0 0 0 0 0 0 0 0 
0 0 0 0 0 0 0 0 0 0 0 0 0 0 0 
0 0 0 0 0 0 0 0 0 0 0 0 0 0 0 
0 0 0 0 0 0 0 0 0 0 0 0 0 0 0 
0 0 0 0 0 0 0 0 0 0 0 0 0 0 0 
0 0 0 0 0 0 0 0 0 0 0 0 0 0 0 
0 0 0 0 0 0 0 0 0 0 0 0 0 0 0 
0 0 0 0 0 0 0 0 0 0 0 0 0 0 0 
0 0 0 0 0 0 0 0 0 0 0 0 0 0 0 
0 0 0 0 0 0 0 0 0 0 0 0 0 0 0 
17 17 16 40 40 31 177 169 30 255 242 0 223 212 4 
251 238 0 255 242 0 255 242 0 255 242 0 116 111 9 
0 0 0 0 0 0 0 0 0 0 0 0 0 0 0 
0 0 0 0 0 0 129 124 39 245 233 0 255 242 0 
255 242 0 255 242 0 255 242 0 208 198 27 73 70 29 
33 33 32 6 6 6 0 0 0 0 0 0 0 0 0 
0 0 0 0 0 0 0 0 0 0 0 0 0 0 0 
0 0 0 0 0 0 0 0 0 0 0 0 0 0 0 
0 0 0 0 0 0 0 0 0 0 0 0 0 0 0 
0 0 0 0 0 0 0 0 0 0 0 0 0 0 0 
0 0 0 0 0 0 0 0 0 0 0 0 0 0 0 
0 0 0 0 0 0 0 0 0 0 0 0 0 0 0 
0 0 0 0 0 0 0 0 0 0 0 0 0 0 0 
0 0 0 0 0 0 0 0 0 0 0 0 0 0 0 
0 0 0 0 0 0 0 0 0 0 0 0 0 0 0 
0 0 0 0 0 0 0 0 0 0 0 0 0 0 0 
0 0 0 0 0 0 0 0 0 0 0 0 0 0 0 
0 0 0 0 0 0 0 0 0 0 0 0 0 0 0 
0 0 0 0 0 0 0 0 0 0 0 0 0 0 0 
0 0 0 0 0 0 0 0 0 0 0 0 0 0 0 
0 0 0 0 0 0 0 0 0 0 0 0 80 78 39 
255 242 0 156 150 43 246 233 2 255 242 0 255 242 0 
255 242 0 159 153 42 0 0 0 0 0 0 0 0 0 
0 0 0 0 0 0 0 0 0 50 49 29 232 221 7 
195 189 57 255 242 0 255 242 0 255 242 0 249 236 3 
56 54 29 0 0 0 0 0 0 0 0 0 0 0 0 
0 0 0 0 0 0 0 0 0 0 0 0 0 0 0 
0 0 0 0 0 0 0 0 0 0 0 0 0 0 0 
0 0 0 0 0 0 0 0 0 0 0 0 0 0 0 
0 0 0 0 0 0 0 0 0 0 0 0 0 0 0 
0 0 0 0 0 0 0 0 0 0 0 0 0 0 0 
0 0 0 0 0 0 0 0 0 0 0 0 0 0 0 
0 0 0 0 0 0 0 0 0 0 0 0 0 0 0 
0 0 0 0 0 0 0 0 0 0 0 0 0 0 0 
0 0 0 0 0 0 0 0 0 0 0 0 0 0 0 
0 0 0 0 0 0 0 0 0 0 0 0 0 0 0 
0 0 0 0 0 0 0 0 0 0 0 0 0 0 0 
0 0 0 0 0 0 0 0 0 0 0 0 0 0 0 
0 0 0 0 0 0 0 0 0 0 0 0 0 0 0 
0 0 0 0 0 0 0 0 0 0 0 0 0 0 0 
0 0 0 0 0 0 0 0 0 0 0 0 0 0 0 
0 0 0 93 90 31 255 242 0 74 73 43 247 235 4 
255 242 0 255 242 0 255 242 0 151 145 34 0 0 0 
0 0 0 0 0 0 0 0 0 0 0 0 17 17 17 
208 199 26 147 141 32 186 177 25 255 242 0 255 242 0 
255 242 0 203 193 22 5 5 5 0 0 0 0 0 0 
0 0 0 0 0 0 0 0 0 0 0 0 0 0 0 
0 0 0 0 0 0 0 0 0 0 0 0 0 0 0 
0 0 0 0 0 0 0 0 0 0 0 0 0 0 0 
0 0 0 0 0 0 0 0 0 0 0 0 0 0 0 
0 0 0 0 0 0 0 0 0 0 0 0 0 0 0 
0 0 0 0 0 0 0 0 0 0 0 0 0 0 0 
0 0 0 0 0 0 0 0 0 0 0 0 0 0 0 
0 0 0 0 0 0 0 0 0 0 0 0 0 0 0 
0 0 0 0 0 0 0 0 0 0 0 0 0 0 0 
0 0 0 0 0 0 0 0 0 0 0 0 0 0 0 
0 0 0 0 0 0 0 0 0 0 0 0 0 0 0 
0 0 0 0 0 0 0 0 0 0 0 0 0 0 0 
0 0 0 0 0 0 0 0 0 0 0 0 0 0 0 
0 0 0 0 0 0 0 0 0 0 0 0 0 0 0 
0 0 0 0 0 0 0 0 0 0 0 0 0 0 0 
0 0 0 0 0 0 0 0 0 156 150 33 215 205 21 
33 33 33 249 236 5 255 242 0 255 242 0 255 242 0 
141 135 24 0 0 0 0 0 0 0 0 0 0 0 0 
6 6 6 147 141 35 210 200 18 56 55 40 247 235 6 
255 242 0 255 242 0 255 242 0 130 125 32 0 0 0 
0 0 0 0 0 0 57 55 28 139 134 38 139 134 38 
139 134 38 139 134 38 139 134 38 139 134 38 120 116 45 
7 7 7 0 0 0 40 39 25 139 134 38 139 134 38 
139 134 38 139 134 38 139 134 38 112 109 54 0 0 0 
0 0 0 15 15 15 82 79 30 159 152 27 170 161 7 
203 193 20 162 155 21 103 99 32 17 17 17 113 110 44 
31 31 30 0 0 0 80 78 32 139 134 38 139 134 38 
139 134 38 139 134 38 139 134 38 139 134 38 139 134 38 
27 27 22 0 0 0 0 0 0 0 0 0 0 0 0 
28 28 21 104 99 26 163 156 25 173 165 15 210 201 24 
173 165 27 107 103 32 33 33 29 118 114 37 36 36 27 
0 0 0 0 0 0 0 0 0 0 0 0 0 0 0 
0 0 0 0 0 0 0 0 0 0 0 0 0 0 0 
0 0 0 0 0 0 0 0 0 0 0 0 0 0 0 
0 0 0 0 0 0 0 0 0 0 0 0 0 0 0 
0 0 0 0 0 0 0 0 0 0 0 0 15 15 15 
228 217 13 153 147 41 24 24 24 250 238 7 255 242 0 
255 242 0 255 242 0 133 127 16 0 0 0 0 0 0 
0 0 0 0 0 0 83 80 28 239 228 11 56 54 32 
110 106 31 255 242 0 255 242 0 255 242 0 244 232 4 
34 33 23 0 0 0 0 0 0 0 0 0 56 54 27 
163 156 27 255 242 0 255 242 0 255 242 0 231 220 13 
145 140 38 61 59 22 0 0 0 0 0 0 33 33 18 
153 146 24 251 239 4 255 242 0 218 207 18 135 129 33 
45 44 15 0 0 0 65 63 31 221 210 26 254 241 0 
169 162 26 67 65 25 45 44 23 136 131 43 246 234 1 
242 230 8 242 230 16 17 17 16 0 0 0 68 66 28 
155 148 24 254 241 0 255 242 0 255 242 0 241 229 12 
144 138 28 72 70 26 2 2 2 0 0 0 0 0 0 
30 30 23 151 145 29 238 227 8 227 216 16 117 114 38 
34 33 19 38 37 20 142 137 31 251 239 0 237 225 3 
222 212 15 8 8 8 0 0 0 0 0 0 0 0 0 
0 0 0 0 0 0 0 0 0 0 0 0 0 0 0 
0 0 0 0 0 0 0 0 0 0 0 0 0 0 0 
0 0 0 0 0 0 0 0 0 0 0 0 0 0 0 
0 0 0 0 0 0 0 0 0 0 0 0 0 0 0 
0 0 0 87 84 33 253 240 0 56 54 26 30 30 30 
252 240 8 255 242 0 255 242 0 255 242 0 125 119 8 
0 0 0 0 0 0 0 0 0 36 36 24 227 216 15 
106 102 34 6 6 6 192 184 31 255 242 0 255 242 0 
255 242 0 186 178 27 5 5 5 0 0 0 0 0 0 
0 0 0 0 0 0 54 53 35 255 242 0 255 242 0 
255 242 0 97 93 22 0 0 0 0 0 0 0 0 0 
0 0 0 0 0 0 0 0 0 194 185 29 227 217 20 
42 42 33 0 0 0 0 0 0 73 71 28 251 238 5 
255 242 0 132 127 33 0 0 0 0 0 0 0 0 0 
0 0 0 164 157 32 255 242 0 158 151 22 0 0 0 
0 0 0 0 0 0 34 33 25 252 239 2 255 242 0 
255 242 0 119 115 38 0 0 0 0 0 0 0 0 0 
0 0 0 76 74 31 232 221 17 255 242 0 190 181 23 
20 19 16 0 0 0 0 0 0 0 0 0 5 5 5 
181 173 29 255 242 0 149 142 23 0 0 0 0 0 0 
0 0 0 0 0 0 0 0 0 0 0 0 0 0 0 
0 0 0 0 0 0 0 0 0 0 0 0 0 0 0 
0 0 0 0 0 0 0 0 0 0 0 0 0 0 0 
0 0 0 0 0 0 0 0 0 0 0 0 0 0 0 
0 0 0 0 0 0 0 0 0 173 165 28 211 201 18 
3 3 3 36 36 36 254 241 10 255 242 0 255 242 0 
255 242 0 187 178 18 0 0 0 0 0 0 8 8 8 
193 185 29 174 166 31 6 6 6 38 38 27 247 234 5 
255 242 0 255 242 0 255 242 0 114 110 37 0 0 0 
0 0 0 0 0 0 0 0 0 0 0 0 118 114 27 
255 242 0 255 242 0 238 226 6 24 24 18 0 0 0 
0 0 0 0 0 0 0 0 0 0 0 0 3 3 3 
208 199 24 118 114 36 0 0 0 0 0 0 25 25 22 
233 222 16 255 242 0 253 240 2 33 33 33 0 0 0 
0 0 0 0 0 0 0 0 0 82 79 32 255 242 0 
77 74 23 0 0 0 0 0 0 0 0 0 99 95 24 
255 242 0 255 242 0 244 231 5 21 21 15 0 0 0 
0 0 0 0 0 0 98 95 45 245 232 6 255 242 0 
229 218 15 42 41 25 0 0 0 0 0 0 0 0 0 
0 0 0 0 0 0 114 110 33 255 242 0 77 74 33 
0 0 0 0 0 0 0 0 0 15 15 15 74 72 30 
92 88 17 121 116 24 69 67 19 39 38 33 0 0 0 
0 0 0 0 0 0 0 0 0 0 0 0 0 0 0 
0 0 0 0 0 0 0 0 0 0 0 0 0 0 0 
0 0 0 0 0 0 0 0 0 0 0 0 13 13 13 
236 225 10 137 131 25 0 0 0 0 0 0 225 214 2 
255 242 0 255 242 0 255 242 0 210 201 41 0 0 0 
0 0 0 128 123 35 216 206 17 26 26 22 0 0 0 
117 113 37 255 242 0 255 242 0 255 242 0 245 233 6 
37 36 27 0 0 0 0 0 0 0 0 0 0 0 0 
3 3 3 192 183 19 255 242 0 255 242 0 185 177 28 
0 0 0 0 0 0 0 0 0 0 0 0 0 0 0 
0 0 0 40 39 33 228 217 7 36 35 28 0 0 0 
0 0 0 115 110 26 255 242 0 255 242 0 254 241 1 
79 77 50 0 0 0 0 0 0 0 0 0 0 0 0 
35 34 15 237 225 12 23 23 22 0 0 0 0 0 0 
0 0 0 197 188 29 255 242 0 255 242 0 185 177 23 
1 1 1 0 0 0 0 0 0 51 49 25 243 231 7 
255 242 0 255 242 0 89 86 32 0 0 0 0 0 0 
0 0 0 0 0 0 0 0 0 0 0 0 57 55 17 
221 211 14 19 19 19 0 0 0 27 27 22 135 130 35 
229 218 15 138 133 30 126 120 18 228 217 15 255 242 0 
252 239 2 154 148 38 6 6 6 0 0 0 0 0 0 
0 0 0 0 0 0 0 0 0 0 0 0 0 0 0 
0 0 0 0 0 0 0 0 0 0 0 0 0 0 0 
0 0 0 92 89 28 255 242 0 59 58 30 0 0 0 
0 0 0 202 192 9 255 242 0 255 242 0 255 242 0 
201 192 33 0 0 0 79 77 39 234 222 9 69 68 37 
0 0 0 5 5 5 188 180 26 255 242 0 255 242 0 
255 242 0 190 182 32 5 5 5 0 0 0 0 0 0 
0 0 0 0 0 0 46 46 34 246 233 3 255 242 0 
255 242 0 88 84 23 0 0 0 0 0 0 0 0 0 
0 0 0 0 0 0 0 0 0 115 110 32 189 181 26 
0 0 0 0 0 0 0 0 0 201 193 41 255 242 0 
255 242 0 255 242 0 241 229 8 163 157 43 50 49 31 
0 0 0 0 0 0 12 12 12 69 67 37 0 0 0 
0 0 0 0 0 0 30 30 21 243 231 3 255 242 0 
255 242 0 110 106 30 0 0 0 0 0 0 17 17 17 
216 206 24 255 242 0 255 242 0 205 196 27 15 15 15 
0 0 0 0 0 0 0 0 0 0 0 0 0 0 0 
0 0 0 25 25 8 104 100 18 0 0 0 27 26 16 
213 202 14 255 242 0 205 195 4 0 0 0 0 0 0 
110 107 38 255 242 0 255 242 0 255 242 0 56 54 13 
0 0 0 0 0 0 0 0 0 0 0 0 0 0 0 
0 0 0 0 0 0 0 0 0 0 0 0 0 0 0 
0 0 0 0 0 0 0 0 0 169 161 23 215 205 22 
3 3 3 0 0 0 0 0 0 209 199 16 255 242 0 
255 242 0 255 242 0 192 183 23 26 26 20 212 202 11 
125 120 35 0 0 0 0 0 0 35 34 23 246 234 4 
255 242 0 255 242 0 255 242 0 98 94 22 0 0 0 
0 0 0 0 0 0 0 0 0 0 0 0 124 119 32 
255 242 0 255 242 0 239 227 8 27 27 20 0 0 0 
0 0 0 0 0 0 0 0 0 0 0 0 4 4 4 
198 189 34 92 89 21 0 0 0 0 0 0 0 0 0 
152 146 33 255 242 0 255 242 0 255 242 0 255 242 0 
255 242 0 254 241 0 207 198 25 98 95 37 10 10 10 
0 0 0 0 0 0 0 0 0 0 0 0 95 92 19 
255 242 0 255 242 0 245 233 7 23 23 18 0 0 0 
0 0 0 115 111 35 255 242 0 255 242 0 255 242 0 
104 100 28 0 0 0 0 0 0 0 0 0 0 0 0 
0 0 0 0 0 0 0 0 0 0 0 0 0 0 0 
0 0 0 151 144 22 255 242 0 255 242 0 182 174 32 
0 0 0 0 0 0 113 109 31 255 242 0 255 242 0 
251 239 0 50 49 24 0 0 0 0 0 0 0 0 0 
0 0 0 0 0 0 0 0 0 0 0 0 0 0 0 
0 0 0 0 0 0 0 0 0 0 0 0 21 21 21 
235 223 8 121 116 31 0 0 0 0 0 0 0 0 0 
216 206 24 255 242 0 255 242 0 255 242 0 189 180 20 
181 173 34 175 167 24 13 13 13 0 0 0 0 0 0 
133 128 32 255 242 0 255 242 0 255 242 0 247 234 8 
29 29 19 0 0 0 0 0 0 0 0 0 0 0 0 
7 7 7 204 195 30 255 242 0 255 242 0 179 171 33 
0 0 0 0 0 0 0 0 0 0 0 0 0 0 0 
0 0 0 36 36 29 228 217 8 29 29 21 0 0 0 
0 0 0 0 0 0 37 36 24 217 207 19 255 242 0 
255 242 0 255 242 0 255 242 0 255 242 0 255 242 0 
255 242 0 139 134 47 0 0 0 0 0 0 0 0 0 
0 0 0 202 194 34 255 242 0 255 242 0 189 181 28 
1 1 1 0 0 0 7 7 7 206 197 23 255 242 0 
255 242 0 238 227 6 27 27 22 0 0 0 0 0 0 
0 0 0 0 0 0 0 0 0 0 0 0 0 0 0 
0 0 0 0 0 0 0 0 0 152 146 33 255 242 0 
212 202 22 52 50 31 0 0 0 13 13 13 210 200 25 
255 242 0 255 242 0 213 203 17 8 8 8 0 0 0 
0 0 0 0 0 0 0 0 0 0 0 0 0 0 0 
0 0 0 0 0 0 0 0 0 0 0 0 0 0 0 
0 0 0 98 95 34 247 234 0 52 51 35 0 0 0 
0 0 0 0 0 0 223 213 31 255 242 0 255 242 0 
255 242 0 240 228 3 226 215 15 43 42 26 0 0 0 
0 0 0 5 5 5 205 195 21 255 242 0 255 242 0 
255 242 0 179 171 22 0 0 0 0 0 0 0 0 0 
0 0 0 0 0 0 43 42 30 245 233 2 255 242 0 
255 242 0 81 78 28 0 0 0 0 0 0 0 0 0 
0 0 0 0 0 0 0 0 0 110 106 27 193 185 31 
0 0 0 0 0 0 0 0 0 0 0 0 0 0 0 
29 29 28 113 109 28 208 199 22 255 242 0 255 242 0 
255 242 0 255 242 0 255 242 0 234 222 9 19 19 18 
0 0 0 0 0 0 46 46 37 244 231 3 255 242 0 
255 242 0 93 90 34 0 0 0 0 0 0 38 37 22 
250 238 2 255 242 0 255 242 0 204 195 26 2 2 2 
0 0 0 0 0 0 0 0 0 0 0 0 0 0 0 
0 0 0 0 0 0 0 0 0 0 0 0 0 0 0 
12 12 12 24 24 23 13 13 13 0 0 0 13 13 13 
170 164 46 255 242 0 255 242 0 216 206 13 61 60 38 
0 0 0 0 0 0 0 0 0 0 0 0 0 0 0 
0 0 0 0 0 0 0 0 0 0 0 0 0 0 0 
0 0 0 0 0 0 0 0 0 184 177 38 215 205 23 
3 3 3 0 0 0 0 0 0 0 0 0 231 221 39 
255 242 0 255 242 0 255 242 0 250 237 2 74 72 30 
0 0 0 0 0 0 0 0 0 37 36 19 249 237 3 
255 242 0 255 242 0 255 242 0 102 98 27 0 0 0 
0 0 0 0 0 0 0 0 0 0 0 0 121 116 28 
255 242 0 255 242 0 235 224 9 22 22 22 0 0 0 
0 0 0 0 0 0 0 0 0 0 0 0 3 3 3 
212 202 26 97 93 27 0 0 0 0 0 0 97 94 21 
49 47 13 0 0 0 0 0 0 0 0 0 1 1 1 
53 52 31 172 164 26 255 242 0 255 242 0 255 242 0 
233 222 8 20 20 19 0 0 0 0 0 0 112 108 35 
255 242 0 255 242 0 237 226 9 23 23 20 0 0 0 
0 0 0 61 59 11 255 242 0 255 242 0 255 242 0 
132 126 16 0 0 0 0 0 0 0 0 0 0 0 0 
0 0 0 0 0 0 0 0 0 0 0 0 0 0 0 
0 0 0 0 0 0 0 0 0 0 0 0 13 13 13 
72 69 22 200 191 24 255 242 0 209 199 23 128 123 33 
24 23 17 0 0 0 0 0 0 0 0 0 0 0 0 
0 0 0 0 0 0 0 0 0 0 0 0 0 0 0 
0 0 0 0 0 0 0 0 0 0 0 0 36 36 27 
244 232 4 145 139 25 0 0 0 0 0 0 0 0 0 
0 0 0 238 228 46 255 242 0 255 242 0 255 242 0 
140 135 43 3 3 3 0 0 0 0 0 0 0 0 0 
129 124 26 255 242 0 255 242 0 255 242 0 248 236 9 
32 32 23 0 0 0 0 0 0 0 0 0 0 0 0 
0 0 0 186 178 21 255 242 0 255 242 0 181 173 27 
0 0 0 0 0 0 0 0 0 0 0 0 0 0 0 
0 0 0 72 71 42 214 204 19 23 23 23 0 0 0 
3 3 3 209 199 16 121 116 27 0 0 0 0 0 0 
0 0 0 0 0 0 0 0 0 10 10 10 197 188 21 
255 242 0 255 242 0 179 171 35 0 0 0 0 0 0 
0 0 0 199 190 30 255 242 0 255 242 0 172 165 32 
1 1 1 0 0 0 0 0 0 77 73 5 255 242 0 
255 242 0 255 242 0 154 148 38 0 0 0 0 0 0 
0 0 0 0 0 0 0 0 0 0 0 0 0 0 0 
68 67 32 27 27 23 0 0 0 0 0 0 12 12 12 
86 84 35 178 171 41 162 155 24 105 101 27 46 45 29 
6 6 5 0 0 0 0 0 0 0 0 0 0 0 0 
0 0 0 0 0 0 0 0 0 0 0 0 0 0 0 
0 0 0 0 0 0 0 0 0 0 0 0 0 0 0 
0 0 0 154 148 37 255 242 0 118 113 19 0 0 0 
0 0 0 0 0 0 0 0 0 184 174 1 255 242 0 
255 242 0 202 193 27 14 14 11 0 0 0 0 0 0 
0 0 0 10 10 10 205 196 21 255 242 0 255 242 0 
255 242 0 172 164 26 0 0 0 0 0 0 0 0 0 
0 0 0 0 0 0 0 0 0 189 180 4 255 242 0 
255 242 0 156 150 23 0 0 0 0 0 0 0 0 0 
0 0 0 0 0 0 29 28 26 201 192 20 96 92 34 
0 0 0 0 0 0 60 58 30 255 242 0 182 175 38 
0 0 0 0 0 0 0 0 0 0 0 0 0 0 0 
9 9 8 208 198 13 255 242 0 250 237 5 61 59 30 
0 0 0 0 0 0 42 42 33 243 231 2 255 242 0 
255 242 0 96 94 39 0 0 0 0 0 0 0 0 0 
52 51 27 252 239 1 255 242 0 255 242 0 160 153 34 
0 0 0 0 0 0 0 0 0 0 0 0 0 0 0 
6 6 6 117 113 38 185 177 34 23 23 19 0 0 0 
77 75 36 198 189 30 172 166 60 91 89 41 82 80 32 
82 80 32 82 80 32 82 80 32 82 80 32 81 79 35 
9 9 9 0 0 0 0 0 0 0 0 0 0 0 0 
0 0 0 0 0 0 0 0 0 0 0 0 0 0 0 
0 0 0 15 15 15 115 111 47 244 232 2 255 242 0 
169 162 30 14 14 14 0 0 0 0 0 0 0 0 0 
148 141 6 255 242 0 229 218 7 40 39 24 0 0 0 
0 0 0 0 0 0 5 5 5 102 98 35 252 239 1 
255 242 0 255 242 0 255 242 0 177 170 41 4 4 4 
0 0 0 0 0 0 0 0 0 0 0 0 0 0 0 
188 180 33 255 242 0 255 242 0 222 212 23 25 24 18 
0 0 0 0 0 0 0 0 0 49 48 33 200 191 31 
138 133 46 8 8 8 0 0 0 0 0 0 123 118 32 
255 242 0 244 231 3 67 65 39 0 0 0 0 0 0 
0 0 0 0 0 0 107 104 34 255 242 0 247 235 3 
117 114 56 0 0 0 0 0 0 0 0 0 121 117 33 
255 242 0 255 242 0 233 221 4 24 24 22 0 0 0 
0 0 0 0 0 0 7 7 7 184 177 32 255 242 0 
255 242 0 232 220 9 49 49 34 0 0 0 0 0 0 
0 0 0 38 37 22 165 158 34 187 179 32 29 29 25 
5 5 5 153 147 39 252 239 2 255 242 0 255 242 0 
255 242 0 255 242 0 255 242 0 255 242 0 255 242 0 
255 242 0 191 182 26 6 6 6 5 5 5 0 0 0 
0 0 0 0 0 0 0 0 0 0 0 0 0 0 0 
0 0 0 52 51 23 174 166 21 232 221 20 255 242 0 
255 242 0 255 242 0 255 242 0 243 231 17 132 127 43 
0 0 0 0 0 0 153 146 12 248 235 0 105 102 43 
0 0 0 0 0 0 98 96 47 177 169 24 233 222 26 
255 242 0 255 242 0 255 242 0 255 242 0 255 242 0 
250 237 1 206 196 28 111 108 45 0 0 0 0 0 0 
0 0 0 0 0 0 39 38 20 222 211 15 255 242 0 
255 242 0 220 209 13 153 146 24 117 111 12 188 180 32 
214 204 23 93 90 30 7 7 7 0 0 0 0 0 0 
4 4 4 212 202 28 211 201 18 248 235 1 238 227 18 
101 98 31 91 89 41 85 83 34 161 153 27 246 233 0 
213 203 20 66 65 36 0 0 0 16 16 16 84 80 13 
145 139 34 231 220 9 255 242 0 255 242 0 246 234 0 
155 148 30 72 70 38 0 0 0 0 0 0 0 0 0 
34 34 27 205 196 30 255 242 0 255 242 0 238 226 11 
187 179 31 180 172 27 198 189 28 228 217 20 127 123 44 
13 13 13 0 0 0 43 42 26 249 236 2 255 242 0 
255 242 0 255 242 0 255 242 0 255 242 0 255 242 0 
255 242 0 255 242 0 255 242 0 122 118 40 51 51 51 
19 19 19 0 0 0 0 0 0 0 0 0 0 0 0 
0 0 0 0 0 0 0 0 0 53 51 13 102 97 0 
102 97 0 102 97 0 102 97 0 102 97 0 102 97 0 
102 97 0 59 57 15 0 0 0 0 0 0 20 20 20 
28 28 27 2 2 2 0 0 0 0 0 0 66 63 11 
102 97 0 102 97 0 102 97 0 102 97 0 102 97 0 
102 97 0 102 97 0 102 97 0 102 97 0 41 39 11 
0 0 0 0 0 0 0 0 0 0 0 0 0 0 0 
32 32 28 108 103 22 173 166 26 164 156 10 167 159 14 
162 155 32 98 95 33 16 16 16 0 0 0 0 0 0 
0 0 0 0 0 0 10 10 8 77 74 8 14 14 14 
50 49 28 127 123 32 178 170 24 164 156 10 177 169 24 
143 137 31 70 68 30 7 7 7 0 0 0 0 0 0 
14 14 14 102 97 0 102 97 0 102 97 0 102 97 0 
102 97 0 102 97 0 102 97 0 53 51 9 0 0 0 
0 0 0 0 0 0 0 0 0 13 13 13 83 80 27 
162 155 32 170 162 16 169 161 15 164 157 27 104 100 29 
17 16 13 0 0 0 0 0 0 0 0 0 43 42 11 
102 97 0 102 97 0 102 97 0 102 97 0 102 97 0 
102 97 0 102 97 0 102 97 0 102 97 0 102 97 0 
23 22 11 5 5 5 0 0 0 0 0 0 0 0 0 
0 0 0 0 0 0 0 0 0 0 0 0 0 0 0 
0 0 0 0 0 0 0 0 0 0 0 0 0 0 0 
0 0 0 0 0 0 0 0 0 0 0 0 0 0 0 
0 0 0 0 0 0 0 0 0 0 0 0 0 0 0 
0 0 0 0 0 0 0 0 0 0 0 0 0 0 0 
0 0 0 0 0 0 0 0 0 0 0 0 0 0 0 
0 0 0 0 0 0 0 0 0 0 0 0 0 0 0 
0 0 0 0 0 0 0 0 0 0 0 0 0 0 0 
0 0 0 0 0 0 0 0 0 0 0 0 0 0 0 
0 0 0 0 0 0 0 0 0 0 0 0 0 0 0 
0 0 0 0 0 0 0 0 0 0 0 0 0 0 0 
0 0 0 0 0 0 0 0 0 0 0 0 0 0 0 
0 0 0 0 0 0 0 0 0 0 0 0 0 0 0 
0 0 0 0 0 0 0 0 0 0 0 0 0 0 0 
0 0 0 0 0 0 0 0 0 0 0 0 0 0 0 
0 0 0 0 0 0 0 0 0 0 0 0 0 0 0 
0 0 0 0 0 0 0 0 0 0 0 0 0 0 0 
0 0 0 0 0 0 0 0 0 0 0 0 0 0 0 
0 0 0 0 0 0 0 0 0 0 0 0 0 0 0 
0 0 0 0 0 0 0 0 0 0 0 0 0 0 0 
0 0 0 0 0 0 0 0 0 0 0 0 0 0 0 
0 0 0 0 0 0 0 0 0 0 0 0 0 0 0 
0 0 0 0 0 0 0 0 0 0 0 0 0 0 0 
0 0 0 0 0 0 0 0 0 0 0 0 0 0 0 
0 0 0 0 0 0 0 0 0 0 0 0 0 0 0 
0 0 0 0 0 0 0 0 0 0 0 0 0 0 0 
0 0 0 0 0 0 0 0 0 0 0 0 0 0 0 
0 0 0 0 0 0 0 0 0 0 0 0 0 0 0 
0 0 0 0 0 0 0 0 0 0 0 0 0 0 0 
0 0 0 0 0 0 0 0 0 0 0 0 0 0 0 
0 0 0 0 0 0 0 0 0 0 0 0 0 0 0 
0 0 0 0 0 0 0 0 0 0 0 0 0 0 0 
0 0 0 0 0 0 0 0 0 0 0 0 0 0 0 
0 0 0 0 0 0 0 0 0 0 0 0 0 0 0 
0 0 0 0 0 0 0 0 0 0 0 0 0 0 0 
0 0 0 0 0 0 0 0 0 0 0 0 0 0 0 
0 0 0 0 0 0 0 0 0 0 0 0 0 0 0 
0 0 0 0 0 0 0 0 0 0 0 0 0 0 0 
0 0 0 0 0 0 0 0 0 0 0 0 0 0 0 
0 0 0 0 0 0 0 0 0 0 0 0 0 0 0 
0 0 0 0 0 0 0 0 0 0 0 0 0 0 0 
0 0 0 0 0 0 0 0 0 0 0 0 0 0 0 
0 0 0 0 0 0 0 0 0 0 0 0 0 0 0 
0 0 0 0 0 0 0 0 0 0 0 0 0 0 0 
0 0 0 0 0 0 0 0 0 0 0 0 0 0 0 
0 0 0 0 0 0 0 0 0 0 0 0 0 0 0 
0 0 0 0 0 0 0 0 0 0 0 0 0 0 0 
0 0 0 0 0 0 0 0 0 0 0 0 0 0 0 
0 0 0 0 0 0 0 0 0 0 0 0 0 0 0 
0 0 0 0 0 0 0 0 0 0 0 0 0 0 0 
0 0 0 0 0 0 0 0 0 0 0 0 0 0 0 
0 0 0 0 0 0 0 0 0 0 0 0 0 0 0 
0 0 0 0 0 0 0 0 0 0 0 0 0 0 0 
0 0 0 0 0 0 0 0 0 0 0 0 0 0 0 
0 0 0 0 0 0 0 0 0 0 0 0 0 0 0 
0 0 0 0 0 0 0 0 0 0 0 0 0 0 0 
0 0 0 0 0 0 0 0 0 0 0 0 0 0 0 
0 0 0 0 0 0 0 0 0 0 0 0 0 0 0 
0 0 0 0 0 0 0 0 0 0 0 0 0 0 0 
0 0 0 0 0 0 0 0 0 0 0 0 0 0 0 
0 0 0 0 0 0 0 0 0 0 0 0 0 0 0 
0 0 0 0 0 0 0 0 0 0 0 0 0 0 0 
0 0 0 0 0 0 0 0 0 0 0 0 0 0 0 
0 0 0 0 0 0 0 0 0 0 0 0 0 0 0 
0 0 0 0 0 0 0 0 0 0 0 0 0 0 0 
0 0 0 0 0 0 0 0 0 0 0 0 0 0 0 
0 0 0 0 0 0 0 0 0 0 0 0 0 0 0 
0 0 0 0 0 0 0 0 0 0 0 0 0 0 0 
0 0 0 0 0 0 0 0 0 0 0 0 0 0 0 
0 0 0 0 0 0 0 0 0 0 0 0 0 0 0 
0 0 0 0 0 0 0 0 0 0 0 0 0 0 0 
0 0 0 0 0 0 0 0 0 0 0 0 0 0 0 
0 0 0 0 0 0 0 0 0 0 0 0 0 0 0 
0 0 0 0 0 0 0 0 0 0 0 0 0 0 0 
0 0 0 0 0 0 0 0 0 0 0 0 0 0 0 
0 0 0 0 0 0 0 0 0 0 0 0 0 0 0 
0 0 0 0 0 0 0 0 0 0 0 0 0 0 0 
0 0 0 0 0 0 0 0 0 0 0 0 0 0 0 
0 0 0 0 0 0 0 0 0 0 0 0 0 0 0 
0 0 0 0 0 0 0 0 0 0 0 0 0 0 0 
0 0 0 0 0 0 0 0 0 0 0 0 0 0 0 
0 0 0 0 0 0 0 0 0 0 0 0 0 0 0 
0 0 0 0 0 0 0 0 0 0 0 0 0 0 0 
0 0 0 0 0 0 0 0 0 0 0 0 0 0 0 
0 0 0 0 0 0 0 0 0 0 0 0 0 0 0 
0 0 0 0 0 0 0 0 0 0 0 0 0 0 0 
0 0 0 0 0 0 0 0 0 0 0 0 0 0 0 
0 0 0 0 0 0 0 0 0 0 0 0 0 0 0 
0 0 0 0 0 0 0 0 0 0 0 0 0 0 0 
0 0 0 0 0 0 0 0 0 0 0 0 0 0 0 
0 0 0 0 0 0 0 0 0 0 0 0 0 0 0 
0 0 0 0 0 0 0 0 0 0 0 0 0 0 0 
0 0 0 0 0 0 0 0 0 0 0 0 0 0 0 
0 0 0 0 0 0 0 0 0 0 0 0 0 0 0 
0 0 0 0 0 0 0 0 0 0 0 0 0 0 0 
0 0 0 0 0 0 0 0 0 0 0 0 0 0 0 
0 0 0 0 0 0 0 0 0 0 0 0 0 0 0 
0 0 0 0 0 0 0 0 0 0 0 0 0 0 0 
0 0 0 0 0 0 0 0 0 0 0 0 0 0 0 
0 0 0 0 0 0 0 0 0 0 0 0 0 0 0 
0 0 0 0 0 0 0 0 0 0 0 0 0 0 0 
0 0 0 0 0 0 0 0 0 0 0 0 0 0 0 
0 0 0 0 0 0 0 0 0 0 0 0 0 0 0 
0 0 0 0 0 0 0 0 0 0 0 0 0 0 0 
0 0 0 0 0 0 0 0 0 0 0 0 0 0 0 
0 0 0 0 0 0 0 0 0 0 0 0 0 0 0 
0 0 0 0 0 0 0 0 0 0 0 0 0 0 0 
0 0 0 0 0 0 0 0 0 0 0 0 0 0 0 
0 0 0 0 0 0 0 0 0 0 0 0 0 0 0 
0 0 0 0 0 0 0 0 0 0 0 0 0 0 0 
0 0 0 0 0 0 0 0 0 0 0 0 0 0 0 
0 0 0 0 0 0 0 0 0 0 0 0 0 0 0 
0 0 0 0 0 0 0 0 0 0 0 0 0 0 0 
0 0 0 0 0 0 0 0 0 0 0 0 0 0 0 
0 0 0 0 0 0 0 0 0 0 0 0 0 0 0 
0 0 0 0 0 0 0 0 0 0 0 0 0 0 0 
0 0 0 0 0 0 0 0 0 0 0 0 0 0 0 
0 0 0 0 0 0 0 0 0 0 0 0 0 0 0 
0 0 0 0 0 0 0 0 0 0 0 0 0 0 0 
0 0 0 0 0 0 0 0 0 0 0 0 0 0 0 
0 0 0 0 0 0 0 0 0 0 0 0 0 0 0 
0 0 0 0 0 0 0 0 0 0 0 0 0 0 0 
0 0 0 0 0 0 0 0 0 0 0 0 0 0 0 
