P3
# Created by IrfanView
94 30
255
0 0 0 0 0 0 0 0 0 0 0 0 0 0 0 
0 0 0 0 0 0 0 0 0 0 0 0 0 0 0 
0 0 0 0 0 0 0 0 0 0 0 0 0 0 0 
0 0 0 0 0 0 0 0 0 0 0 0 0 0 0 
0 0 0 0 0 0 0 0 0 0 0 0 0 0 0 
0 0 0 0 0 0 0 0 0 0 0 0 0 0 0 
0 0 0 0 0 0 0 0 0 0 0 0 0 0 0 
0 0 0 0 0 0 0 0 0 0 0 0 0 0 0 
0 0 0 0 0 0 0 0 0 0 0 0 0 0 0 
0 0 0 0 0 0 0 0 0 0 0 0 0 0 0 
0 0 0 0 0 0 0 0 0 0 0 0 0 0 0 
0 0 0 0 0 0 0 0 0 0 0 0 0 0 0 
0 0 0 0 0 0 0 0 0 0 0 0 0 0 0 
0 0 0 0 0 0 0 0 0 0 0 0 0 0 0 
0 0 0 0 0 0 0 0 0 0 0 0 0 0 0 
0 0 0 0 0 0 0 0 0 0 0 0 0 0 0 
0 0 0 0 0 0 0 0 0 0 0 0 0 0 0 
0 0 0 0 0 0 0 0 0 0 0 0 0 0 0 
0 0 0 0 0 0 0 0 0 0 0 0 0 0 0 
0 0 0 0 0 0 0 0 0 0 0 0 0 0 0 
0 0 0 0 0 0 0 0 0 0 0 0 0 0 0 
0 0 0 0 0 0 0 0 0 0 0 0 0 0 0 
0 0 0 0 0 0 0 0 0 0 0 0 0 0 0 
0 0 0 0 0 0 0 0 0 0 0 0 0 0 0 
0 0 0 0 0 0 0 0 0 0 0 0 0 0 0 
0 0 0 0 0 0 0 0 0 0 0 0 0 0 0 
0 0 0 0 0 0 0 0 0 0 0 0 0 0 0 
0 0 0 0 0 0 0 0 0 0 0 0 0 0 0 
0 0 0 0 0 0 0 0 0 0 0 0 0 0 0 
0 0 0 0 0 0 0 0 0 0 0 0 0 0 0 
0 0 0 0 0 0 0 0 0 0 0 0 0 0 0 
0 0 0 0 0 0 0 0 0 0 0 0 0 0 0 
0 0 0 0 0 0 0 0 0 0 0 0 0 0 0 
0 0 0 0 0 0 0 0 0 0 0 0 0 0 0 
0 0 0 0 0 0 0 0 0 0 0 0 0 0 0 
0 0 0 0 0 0 0 0 0 0 0 0 0 0 0 
0 0 0 0 0 0 0 0 0 0 0 0 0 0 0 
0 0 0 0 0 0 0 0 0 0 0 0 0 0 0 
0 0 0 0 0 0 0 0 0 0 0 0 0 0 0 
0 0 0 0 0 0 0 0 0 0 0 0 0 0 0 
0 0 0 0 0 0 0 0 0 0 0 0 0 0 0 
0 0 0 0 0 0 0 0 0 0 0 0 0 0 0 
0 0 0 0 0 0 0 0 0 0 0 0 0 0 0 
0 0 0 0 0 0 0 0 0 0 0 0 0 0 0 
0 0 0 0 0 0 0 0 0 0 0 0 0 0 0 
0 0 0 0 0 0 0 0 0 0 0 0 0 0 0 
0 0 0 0 0 0 0 0 0 0 0 0 0 0 0 
0 0 0 0 0 0 0 0 0 0 0 0 0 0 0 
0 0 0 0 0 0 0 0 0 0 0 0 0 0 0 
0 0 0 0 0 0 0 0 0 0 0 0 0 0 0 
0 0 0 0 0 0 0 0 0 0 0 0 0 0 0 
0 0 0 0 0 0 0 0 0 0 0 0 0 0 0 
0 0 0 0 0 0 0 0 0 0 0 0 0 0 0 
0 0 0 0 0 0 0 0 0 0 0 0 0 0 0 
0 0 0 0 0 0 0 0 0 0 0 0 0 0 0 
0 0 0 0 0 0 0 0 0 0 0 0 0 0 0 
0 0 0 0 0 0 0 0 0 0 0 0 0 0 0 
0 0 0 0 0 0 0 0 0 0 0 0 0 0 0 
0 0 0 0 0 0 0 0 0 0 0 0 0 0 0 
0 0 0 0 0 0 0 0 0 0 0 0 0 0 0 
0 0 0 0 0 0 0 0 0 0 0 0 0 0 0 
0 0 0 0 0 0 0 0 0 0 0 0 0 0 0 
0 0 0 0 0 0 0 0 0 0 0 0 0 0 0 
0 0 0 0 0 0 0 0 0 0 0 0 0 0 0 
0 0 0 0 0 0 0 0 0 0 0 0 0 0 0 
0 0 0 0 0 0 0 0 0 0 0 0 0 0 0 
0 0 0 0 0 0 0 0 0 0 0 0 0 0 0 
0 0 0 0 0 0 0 0 0 0 0 0 0 0 0 
0 0 0 0 0 0 0 0 0 0 0 0 0 0 0 
0 0 0 0 0 0 0 0 0 0 0 0 0 0 0 
0 0 0 0 0 0 0 0 0 0 0 0 0 0 0 
0 0 0 0 0 0 0 0 0 0 0 0 0 0 0 
0 0 0 0 0 0 0 0 0 0 0 0 0 0 0 
0 0 0 0 0 0 0 0 0 0 0 0 0 0 0 
0 0 0 0 0 0 0 0 0 0 0 0 0 0 0 
0 0 0 0 0 0 0 0 0 0 0 0 0 0 0 
0 0 0 0 0 0 0 0 0 0 0 0 0 0 0 
0 0 0 2 2 2 29 28 11 28 27 8 28 27 8 
28 27 8 28 27 8 28 27 8 26 25 14 0 0 0 
0 0 0 0 0 0 0 0 0 0 0 0 0 0 0 
0 0 0 0 0 0 0 0 0 32 31 26 28 27 8 
28 27 8 28 27 8 28 27 8 28 27 8 26 25 8 
17 17 17 0 0 0 0 0 0 0 0 0 0 0 0 
0 0 0 0 0 0 0 0 0 0 0 0 0 0 0 
0 0 0 0 0 0 0 0 0 0 0 0 0 0 0 
0 0 0 0 0 0 0 0 0 0 0 0 0 0 0 
0 0 0 0 0 0 0 0 0 0 0 0 0 0 0 
0 0 0 0 0 0 0 0 0 0 0 0 0 0 0 
0 0 0 0 0 0 0 0 0 0 0 0 0 0 0 
0 0 0 0 0 0 0 0 0 0 0 0 0 0 0 
0 0 0 0 0 0 0 0 0 0 0 0 0 0 0 
0 0 0 0 0 0 0 0 0 0 0 0 0 0 0 
0 0 0 0 0 0 0 0 0 0 0 0 0 0 0 
0 0 0 0 0 0 0 0 0 0 0 0 0 0 0 
0 0 0 0 0 0 0 0 0 0 0 0 0 0 0 
0 0 0 0 0 0 0 0 0 0 0 0 0 0 0 
13 13 13 99 97 60 114 110 47 220 209 16 255 242 0 
255 242 0 255 242 0 191 182 19 9 9 9 0 0 0 
0 0 0 0 0 0 0 0 0 0 0 0 0 0 0 
0 0 0 10 10 10 176 169 40 255 242 0 255 242 0 
255 242 0 245 233 6 145 140 53 86 84 44 11 11 11 
0 0 0 0 0 0 0 0 0 0 0 0 0 0 0 
0 0 0 0 0 0 0 0 0 0 0 0 0 0 0 
0 0 0 0 0 0 0 0 0 0 0 0 0 0 0 
0 0 0 0 0 0 0 0 0 0 0 0 0 0 0 
0 0 0 0 0 0 0 0 0 0 0 0 0 0 0 
0 0 0 0 0 0 0 0 0 0 0 0 0 0 0 
0 0 0 0 0 0 0 0 0 0 0 0 0 0 0 
0 0 0 0 0 0 0 0 0 0 0 0 0 0 0 
0 0 0 0 0 0 0 0 0 0 0 0 0 0 0 
0 0 0 0 0 0 0 0 0 0 0 0 0 0 0 
0 0 0 0 0 0 0 0 0 0 0 0 0 0 0 
0 0 0 0 0 0 0 0 0 0 0 0 0 0 0 
0 0 0 0 0 0 0 0 0 0 0 0 0 0 0 
0 0 0 0 0 0 0 0 0 0 0 0 0 0 0 
0 0 0 0 0 0 137 132 47 255 242 0 255 242 0 
255 242 0 244 233 25 20 20 20 0 0 0 0 0 0 
0 0 0 0 0 0 0 0 0 0 0 0 0 0 0 
118 115 48 246 233 0 255 242 0 255 242 0 255 242 0 
131 127 55 5 5 5 0 0 0 0 0 0 0 0 0 
0 0 0 0 0 0 0 0 0 0 0 0 0 0 0 
0 0 0 0 0 0 0 0 0 0 0 0 0 0 0 
0 0 0 0 0 0 0 0 0 0 0 0 0 0 0 
0 0 0 0 0 0 0 0 0 0 0 0 0 0 0 
0 0 0 0 0 0 0 0 0 0 0 0 0 0 0 
0 0 0 0 0 0 0 0 0 0 0 0 0 0 0 
0 0 0 0 0 0 0 0 0 0 0 0 0 0 0 
0 0 0 0 0 0 0 0 0 0 0 0 0 0 0 
0 0 0 0 0 0 0 0 0 0 0 0 0 0 0 
0 0 0 0 0 0 0 0 0 0 0 0 0 0 0 
0 0 0 0 0 0 0 0 0 0 0 0 0 0 0 
0 0 0 0 0 0 0 0 0 0 0 0 0 0 0 
0 0 0 0 0 0 0 0 0 0 0 0 0 0 0 
0 0 0 0 0 0 0 0 0 0 0 0 0 0 0 
5 5 5 194 185 26 235 223 9 255 242 0 255 242 0 
229 218 11 9 9 9 0 0 0 0 0 0 0 0 0 
0 0 0 0 0 0 0 0 0 50 49 34 219 208 13 
255 242 0 255 242 0 255 242 0 238 226 9 31 31 24 
0 0 0 0 0 0 0 0 0 0 0 0 0 0 0 
0 0 0 0 0 0 0 0 0 0 0 0 0 0 0 
0 0 0 0 0 0 0 0 0 0 0 0 0 0 0 
0 0 0 0 0 0 0 0 0 0 0 0 0 0 0 
0 0 0 0 0 0 0 0 0 0 0 0 0 0 0 
0 0 0 0 0 0 0 0 0 0 0 0 0 0 0 
0 0 0 0 0 0 0 0 0 0 0 0 0 0 0 
0 0 0 0 0 0 0 0 0 0 0 0 0 0 0 
0 0 0 0 0 0 0 0 0 0 0 0 0 0 0 
0 0 0 0 0 0 0 0 0 0 0 0 0 0 0 
0 0 0 0 0 0 0 0 0 0 0 0 0 0 0 
0 0 0 0 0 0 0 0 0 0 0 0 0 0 0 
0 0 0 0 0 0 0 0 0 0 0 0 0 0 0 
0 0 0 0 0 0 0 0 0 0 0 0 0 0 0 
0 0 0 0 0 0 0 0 0 0 0 0 44 43 32 
211 201 24 157 151 26 255 242 0 255 242 0 254 241 0 
67 66 38 0 0 0 0 0 0 0 0 0 0 0 0 
0 0 0 23 23 23 189 181 39 165 160 65 255 242 0 
255 242 0 255 242 0 186 178 30 3 3 3 0 0 0 
0 0 0 0 0 0 0 0 0 0 0 0 0 0 0 
0 0 0 0 0 0 0 0 0 0 0 0 0 0 0 
0 0 0 0 0 0 0 0 0 0 0 0 0 0 0 
0 0 0 0 0 0 0 0 0 0 0 0 10 10 10 
35 35 35 33 33 33 18 18 18 0 0 0 0 0 0 
18 18 18 10 10 10 0 0 0 0 0 0 0 0 0 
0 0 0 0 0 0 0 0 0 0 0 0 0 0 0 
0 0 0 0 0 0 0 0 0 0 0 0 0 0 0 
0 0 0 0 0 0 9 9 9 37 37 37 31 31 31 
18 18 18 0 0 0 0 0 0 29 29 29 0 0 0 
0 0 0 0 0 0 0 0 0 0 0 0 0 0 0 
0 0 0 0 0 0 0 0 0 0 0 0 0 0 0 
0 0 0 0 0 0 0 0 0 0 0 0 0 0 0 
0 0 0 0 0 0 0 0 0 0 0 0 0 0 0 
0 0 0 0 0 0 0 0 0 103 100 42 164 157 43 
169 163 40 255 242 0 255 242 0 255 242 0 60 58 31 
0 0 0 0 0 0 0 0 0 0 0 0 0 0 0 
124 120 48 187 180 38 156 150 40 255 242 0 255 242 0 
255 242 0 117 113 42 0 0 0 0 0 0 0 0 0 
54 54 50 141 138 73 208 201 44 215 207 41 215 207 41 
210 202 42 162 158 72 92 91 65 0 0 0 1 1 1 
142 139 92 180 174 48 215 207 41 194 187 56 133 131 90 
0 0 0 11 11 11 83 81 35 189 181 33 232 221 13 
236 226 38 186 178 31 170 163 35 158 152 49 166 159 35 
29 29 28 0 0 0 106 105 79 155 151 64 210 202 42 
215 207 41 215 207 41 200 192 46 147 144 79 41 41 37 
0 0 0 0 0 0 0 0 0 1 1 1 49 48 28 
163 157 42 194 186 27 194 185 28 157 150 25 197 189 34 
169 162 31 147 142 39 146 141 49 0 0 0 0 0 0 
0 0 0 0 0 0 0 0 0 0 0 0 0 0 0 
0 0 0 0 0 0 0 0 0 0 0 0 0 0 0 
0 0 0 0 0 0 0 0 0 0 0 0 0 0 0 
0 0 0 0 0 0 0 0 0 0 0 0 0 0 0 
0 0 0 3 3 3 177 170 37 86 83 36 127 122 24 
255 242 0 255 242 0 255 242 0 84 81 29 0 0 0 
0 0 0 0 0 0 0 0 0 64 63 36 207 198 20 
64 63 49 203 194 23 255 242 0 255 242 0 247 235 0 
45 44 35 0 0 0 0 0 0 0 0 0 0 0 0 
8 8 8 167 160 31 255 242 0 255 242 0 170 164 38 
17 17 17 0 0 0 0 0 0 0 0 0 0 0 0 
106 103 51 219 209 16 67 67 52 0 0 0 2 2 2 
124 120 51 251 239 2 233 221 7 98 96 60 16 16 16 
49 48 40 186 178 45 255 242 0 195 187 31 0 0 0 
0 0 0 0 0 0 24 24 24 243 231 24 255 242 0 
255 242 0 114 110 36 6 6 6 0 0 0 0 0 0 
0 0 0 24 24 22 149 143 43 249 237 6 209 200 24 
84 82 44 8 8 8 2 2 2 35 35 28 182 175 48 
255 242 0 91 88 34 0 0 0 0 0 0 0 0 0 
0 0 0 0 0 0 0 0 0 0 0 0 0 0 0 
0 0 0 0 0 0 0 0 0 0 0 0 0 0 0 
0 0 0 0 0 0 0 0 0 0 0 0 0 0 0 
0 0 0 0 0 0 0 0 0 0 0 0 0 0 0 
19 19 17 215 205 27 31 31 31 91 87 27 255 242 0 
255 242 0 255 242 0 137 132 42 0 0 0 0 0 0 
0 0 0 28 28 28 204 195 30 99 97 50 44 43 25 
244 232 2 255 242 0 255 242 0 215 205 27 10 10 10 
0 0 0 0 0 0 0 0 0 0 0 0 10 10 10 
218 208 30 255 242 0 251 238 1 62 60 36 0 0 0 
0 0 0 0 0 0 0 0 0 0 0 0 90 87 34 
142 137 40 0 0 0 0 0 0 25 24 20 227 216 14 
255 242 0 164 158 28 1 1 1 0 0 0 0 0 0 
29 28 26 216 207 27 130 125 30 0 0 0 0 0 0 
0 0 0 37 37 27 240 228 9 255 242 0 223 212 11 
29 29 29 0 0 0 0 0 0 0 0 0 64 64 49 
210 201 25 255 242 0 217 208 24 57 56 47 0 0 0 
0 0 0 0 0 0 0 0 0 36 36 33 221 210 8 
35 35 35 0 0 0 0 0 0 0 0 0 0 0 0 
0 0 0 0 0 0 0 0 0 0 0 0 0 0 0 
0 0 0 0 0 0 0 0 0 0 0 0 0 0 0 
0 0 0 0 0 0 0 0 0 0 0 0 0 0 0 
0 0 0 0 0 0 0 0 0 0 0 0 70 69 42 
193 185 41 0 0 0 109 106 50 255 242 0 255 242 0 
255 242 0 115 110 15 0 0 0 0 0 0 4 4 4 
141 136 50 160 153 36 5 5 5 125 120 38 255 242 0 
255 242 0 255 242 0 146 141 39 0 0 0 0 0 0 
0 0 0 0 0 0 0 0 0 44 43 33 246 233 0 
255 242 0 217 207 29 12 12 12 0 0 0 0 0 0 
0 0 0 0 0 0 0 0 0 164 158 47 54 53 38 
0 0 0 0 0 0 38 37 24 255 242 0 255 242 0 
171 164 30 3 3 3 0 0 0 0 0 0 0 0 0 
131 126 32 68 66 29 0 0 0 0 0 0 0 0 0 
81 78 30 255 242 0 255 242 0 183 175 35 0 0 0 
0 0 0 0 0 0 36 36 26 222 212 28 255 242 0 
250 237 3 82 80 46 0 0 0 0 0 0 0 0 0 
0 0 0 0 0 0 3 3 3 141 137 48 10 10 10 
0 0 0 0 0 0 0 0 0 0 0 0 0 0 0 
0 0 0 0 0 0 0 0 0 0 0 0 0 0 0 
0 0 0 0 0 0 0 0 0 0 0 0 0 0 0 
0 0 0 0 0 0 0 0 0 0 0 0 0 0 0 
0 0 0 0 0 0 0 0 0 141 135 31 122 117 33 
0 0 0 14 14 14 253 240 1 255 242 0 255 242 0 
202 194 41 0 0 0 0 0 0 87 85 48 216 206 26 
33 32 29 1 1 1 190 182 38 255 242 0 255 242 0 
254 241 0 75 73 31 0 0 0 0 0 0 0 0 0 
0 0 0 0 0 0 117 113 42 255 242 0 255 242 0 
158 152 35 0 0 0 0 0 0 0 0 0 0 0 0 
0 0 0 14 14 14 183 176 51 9 9 9 0 0 0 
0 0 0 49 48 39 241 228 1 255 242 0 237 225 6 
61 59 34 0 0 0 0 0 0 0 0 0 72 70 42 
23 23 23 0 0 0 0 0 0 0 0 0 168 162 37 
255 242 0 255 242 0 110 107 42 0 0 0 0 0 0 
11 11 11 161 155 37 255 242 0 255 242 0 168 162 40 
0 0 0 0 0 0 0 0 0 0 0 0 0 0 0 
0 0 0 0 0 0 51 50 38 0 0 0 0 0 0 
0 0 0 0 0 0 0 0 0 0 0 0 0 0 0 
0 0 0 0 0 0 0 0 0 0 0 0 0 0 0 
0 0 0 0 0 0 0 0 0 0 0 0 0 0 0 
0 0 0 0 0 0 0 0 0 0 0 0 0 0 0 
0 0 0 13 13 13 204 195 26 61 60 41 0 0 0 
41 41 41 254 241 2 255 242 0 255 242 0 188 180 27 
0 0 0 40 40 37 196 187 15 86 85 55 0 0 0 
34 34 34 241 229 12 255 242 0 255 242 0 225 213 7 
33 33 33 0 0 0 0 0 0 0 0 0 0 0 0 
3 3 3 185 177 29 255 242 0 255 242 0 72 70 29 
0 0 0 0 0 0 0 0 0 0 0 0 0 0 0 
58 57 43 150 144 33 0 0 0 0 0 0 0 0 0 
7 7 7 210 202 41 255 242 0 255 242 0 197 188 22 
41 41 35 0 0 0 0 0 0 0 0 0 0 0 0 
0 0 0 0 0 0 22 22 22 217 207 22 255 242 0 
250 237 4 43 43 31 0 0 0 0 0 0 61 60 40 
247 235 4 255 242 0 250 238 3 51 50 26 0 0 0 
0 0 0 0 0 0 0 0 0 0 0 0 0 0 0 
0 0 0 0 0 0 0 0 0 0 0 0 0 0 0 
0 0 0 0 0 0 0 0 0 0 0 0 0 0 0 
0 0 0 0 0 0 0 0 0 0 0 0 0 0 0 
0 0 0 0 0 0 0 0 0 0 0 0 0 0 0 
0 0 0 0 0 0 0 0 0 0 0 0 0 0 0 
56 55 40 206 196 24 16 16 16 0 0 0 15 15 15 
227 216 6 255 242 0 255 242 0 208 198 15 23 23 23 
165 159 44 147 142 39 0 0 0 0 0 0 89 86 35 
255 242 0 255 242 0 255 242 0 187 179 33 0 0 0 
0 0 0 0 0 0 0 0 0 0 0 0 33 33 29 
227 216 10 255 242 0 224 214 10 32 32 29 0 0 0 
0 0 0 0 0 0 0 0 0 0 0 0 125 120 35 
84 81 42 0 0 0 0 0 0 0 0 0 0 0 0 
62 61 42 222 211 11 255 242 0 255 242 0 202 193 26 
43 43 36 0 0 0 0 0 0 0 0 0 0 0 0 
0 0 0 60 59 32 249 236 1 255 242 0 208 199 30 
14 14 14 0 0 0 0 0 0 150 144 43 255 242 0 
255 242 0 221 211 29 12 12 12 0 0 0 0 0 0 
0 0 0 0 0 0 0 0 0 0 0 0 0 0 0 
0 0 0 0 0 0 0 0 0 0 0 0 0 0 0 
0 0 0 0 0 0 0 0 0 0 0 0 0 0 0 
0 0 0 0 0 0 0 0 0 0 0 0 0 0 0 
0 0 0 0 0 0 0 0 0 0 0 0 0 0 0 
0 0 0 0 0 0 0 0 0 0 0 0 112 108 32 
164 158 46 0 0 0 0 0 0 0 0 0 217 207 30 
255 242 0 255 242 0 243 232 16 124 121 70 196 187 23 
22 22 20 0 0 0 0 0 0 160 154 42 255 242 0 
255 242 0 255 242 0 116 112 43 0 0 0 0 0 0 
0 0 0 0 0 0 0 0 0 75 73 30 255 242 0 
255 242 0 185 177 31 3 3 3 0 0 0 0 0 0 
0 0 0 0 0 0 1 1 1 177 170 49 31 31 27 
0 0 0 0 0 0 0 0 0 0 0 0 0 0 0 
84 81 30 248 236 8 255 242 0 255 242 0 207 199 32 
28 28 21 0 0 0 0 0 0 0 0 0 0 0 0 
125 121 40 255 242 0 255 242 0 137 132 35 0 0 0 
0 0 0 0 0 0 206 198 35 255 242 0 255 242 0 
137 132 26 0 0 0 0 0 0 0 0 0 0 0 0 
0 0 0 0 0 0 0 0 0 0 0 0 0 0 0 
0 0 0 0 0 0 0 0 0 0 0 0 0 0 0 
0 0 0 0 0 0 0 0 0 0 0 0 0 0 0 
0 0 0 0 0 0 0 0 0 0 0 0 0 0 0 
0 0 0 0 0 0 0 0 0 0 0 0 0 0 0 
0 0 0 0 0 0 0 0 0 182 175 38 93 91 39 
0 0 0 0 0 0 0 0 0 224 215 47 255 242 0 
255 242 0 248 236 2 213 203 15 67 66 47 0 0 0 
0 0 0 14 14 14 216 206 17 255 242 0 255 242 0 
250 237 4 50 49 32 0 0 0 0 0 0 0 0 0 
0 0 0 0 0 0 147 142 38 255 242 0 255 242 0 
116 113 44 0 0 0 0 0 0 0 0 0 0 0 0 
0 0 0 29 29 28 176 170 45 4 4 4 0 0 0 
14 14 14 14 14 14 0 0 0 0 0 0 0 0 0 
91 88 33 246 233 6 255 242 0 255 242 0 154 149 43 
0 0 0 0 0 0 0 0 0 7 7 7 198 190 33 
255 242 0 252 239 0 73 71 34 0 0 0 0 0 0 
0 0 0 181 172 7 255 242 0 255 242 0 119 115 37 
0 0 0 0 0 0 0 0 0 0 0 0 0 0 0 
0 0 0 0 0 0 0 0 0 0 0 0 0 0 0 
0 0 0 0 0 0 0 0 0 0 0 0 0 0 0 
0 0 0 0 0 0 0 0 0 0 0 0 0 0 0 
0 0 0 0 0 0 0 0 0 0 0 0 0 0 0 
0 0 0 0 0 0 0 0 0 0 0 0 0 0 0 
0 0 0 25 25 25 210 201 23 22 21 18 0 0 0 
0 0 0 0 0 0 138 132 18 255 242 0 255 242 0 
252 239 0 121 117 39 5 5 5 0 0 0 0 0 0 
55 54 36 246 234 2 255 242 0 255 242 0 210 201 27 
17 17 17 0 0 0 0 0 0 0 0 0 0 0 0 
11 11 11 214 204 24 255 242 0 255 242 0 36 36 27 
0 0 0 0 0 0 0 0 0 0 0 0 0 0 0 
86 84 43 107 104 43 0 0 0 0 0 0 82 80 46 
75 73 44 0 0 0 0 0 0 0 0 0 6 6 6 
121 118 52 252 240 0 255 242 0 229 217 15 25 25 25 
0 0 0 0 0 0 32 32 27 240 228 8 255 242 0 
223 212 13 24 24 24 0 0 0 0 0 0 0 0 0 
187 178 13 255 242 0 255 242 0 56 54 13 0 0 0 
0 0 0 0 0 0 0 0 0 0 0 0 0 0 0 
0 0 0 0 0 0 0 0 0 0 0 0 0 0 0 
0 0 0 0 0 0 0 0 0 0 0 0 0 0 0 
0 0 0 0 0 0 0 0 0 0 0 0 0 0 0 
0 0 0 0 0 0 0 0 0 0 0 0 0 0 0 
0 0 0 0 0 0 0 0 0 0 0 0 0 0 0 
90 88 48 183 176 36 4 4 4 0 0 0 0 0 0 
0 0 0 165 159 45 255 242 0 255 242 0 196 188 31 
14 14 14 0 0 0 0 0 0 0 0 0 116 112 28 
255 242 0 255 242 0 255 242 0 150 145 37 0 0 0 
0 0 0 0 0 0 0 0 0 0 0 0 6 6 6 
224 213 10 255 242 0 221 209 4 24 24 23 0 0 0 
0 0 0 0 0 0 0 0 0 2 2 2 162 156 40 
26 26 26 0 0 0 0 0 0 132 127 29 104 100 30 
0 0 0 0 0 0 0 0 0 0 0 0 31 31 31 
239 227 11 255 242 0 249 237 11 32 32 32 0 0 0 
0 0 0 95 92 42 255 242 0 255 242 0 176 168 30 
0 0 0 0 0 0 0 0 0 0 0 0 186 178 35 
255 242 0 255 242 0 83 91 34 0 0 0 0 0 0 
0 0 0 0 0 0 0 0 0 0 0 0 6 6 6 
5 5 5 0 0 0 0 0 0 0 0 0 0 0 0 
0 0 0 0 0 0 0 0 0 0 0 0 0 0 0 
0 0 0 0 0 0 0 0 0 0 0 0 0 0 0 
0 0 0 0 0 0 0 0 0 0 0 0 0 0 0 
0 0 0 0 0 0 0 0 0 2 2 2 167 160 38 
123 118 33 0 0 0 0 0 0 0 0 0 0 0 0 
101 97 18 255 242 0 224 213 10 62 61 38 0 0 0 
0 0 0 0 0 0 15 15 15 199 190 26 255 242 0 
255 242 0 255 242 0 82 80 38 0 0 0 0 0 0 
0 0 0 0 0 0 0 0 0 11 11 11 229 218 18 
255 242 0 217 206 7 31 31 30 0 0 0 0 0 0 
0 0 0 0 0 0 69 67 37 134 129 34 0 0 0 
0 0 0 2 2 2 198 190 31 189 181 32 10 10 10 
0 0 0 0 0 0 0 0 0 19 19 19 216 205 12 
255 242 0 203 194 23 8 8 8 0 0 0 0 0 0 
165 158 31 255 242 0 255 242 0 103 100 38 0 0 0 
0 0 0 0 0 0 0 0 0 87 85 47 249 236 1 
255 242 0 191 184 42 14 14 14 0 0 0 0 0 0 
0 0 0 0 0 0 26 26 26 75 75 75 19 19 19 
0 0 0 0 0 0 2 2 2 0 0 0 0 0 0 
0 0 0 0 0 0 0 0 0 0 0 0 0 0 0 
0 0 0 0 0 0 0 0 0 0 0 0 0 0 0 
0 0 0 0 0 0 0 0 0 0 0 0 0 0 0 
0 0 0 1 1 1 104 102 58 238 226 4 146 140 37 
1 1 1 0 0 0 0 0 0 0 0 0 87 84 33 
254 241 0 115 112 51 0 0 0 0 0 0 0 0 0 
2 2 2 115 112 66 252 239 1 255 242 0 255 242 0 
255 242 0 93 90 48 0 0 0 0 0 0 0 0 0 
0 0 0 0 0 0 0 0 0 138 133 43 255 242 0 
255 242 0 123 119 33 18 18 18 2 2 2 9 9 9 
73 72 43 188 180 34 23 23 23 0 0 0 0 0 0 
23 23 23 243 232 14 252 239 1 120 116 31 15 15 15 
0 0 0 1 1 1 104 102 62 247 235 3 250 237 3 
87 84 27 0 0 0 0 0 0 44 44 43 227 216 13 
255 242 0 255 242 0 88 86 51 0 0 0 0 0 0 
0 0 0 0 0 0 5 5 5 173 166 48 255 242 0 
253 240 1 131 127 37 27 26 25 2 2 2 12 12 11 
70 68 40 111 108 51 36 36 36 0 0 0 10 10 10 
19 19 19 33 33 33 0 0 0 0 0 0 0 0 0 
0 0 0 0 0 0 0 0 0 0 0 0 0 0 0 
0 0 0 0 0 0 0 0 0 0 0 0 0 0 0 
0 0 0 0 0 0 0 0 0 0 0 0 122 118 54 
178 171 35 242 230 5 255 242 0 251 238 4 181 174 46 
92 90 54 0 0 0 0 0 0 86 83 44 170 163 29 
22 22 22 0 0 0 2 2 2 155 150 52 190 183 46 
241 229 2 255 242 0 255 242 0 255 242 0 255 242 0 
217 207 18 165 159 40 14 14 14 0 0 0 0 0 0 
0 0 0 0 0 0 16 16 12 150 145 50 235 223 9 
255 242 0 221 212 26 235 225 42 210 201 40 153 148 51 
19 19 19 0 0 0 0 0 0 0 0 0 73 71 42 
222 211 12 232 222 38 220 209 10 195 187 37 181 174 54 
179 172 39 240 228 5 212 203 22 102 100 54 10 10 10 
31 31 29 82 79 21 208 199 36 255 242 0 255 242 0 
255 242 0 168 161 44 89 87 46 0 0 0 0 0 0 
0 0 0 0 0 0 26 26 26 143 138 43 227 216 14 
255 242 0 233 222 10 229 219 36 201 192 24 178 170 36 
40 40 33 0 0 0 0 0 0 25 25 25 48 48 48 
1 1 1 0 0 0 0 0 0 0 0 0 0 0 0 
0 0 0 0 0 0 0 0 0 0 0 0 0 0 0 
0 0 0 0 0 0 0 0 0 0 0 0 0 0 0 
0 0 0 0 0 0 0 0 0 3 3 1 5 5 0 
5 5 0 5 5 0 5 5 0 5 5 0 2 2 1 
0 0 0 0 0 0 0 0 0 2 2 0 0 0 0 
0 0 0 0 0 0 4 4 0 5 5 0 5 5 0 
5 5 0 5 5 0 5 5 0 5 5 0 5 5 0 
5 5 0 1 1 1 0 0 0 0 0 0 0 0 0 
0 0 0 0 0 0 1 1 1 28 28 26 42 41 22 
125 122 54 71 68 26 30 30 27 2 2 2 0 0 0 
0 0 0 0 0 0 0 0 0 41 41 40 34 33 32 
3 3 3 20 20 18 34 34 29 101 98 46 114 111 43 
29 29 20 23 23 23 0 0 0 0 0 0 1 1 1 
5 5 0 5 5 0 5 5 0 5 5 0 5 5 0 
5 5 0 5 5 1 0 0 0 0 0 0 0 0 0 
0 0 0 0 0 0 0 0 0 34 34 32 36 35 12 
126 122 55 50 49 27 40 40 37 1 1 1 0 0 0 
0 0 0 0 0 0 0 0 0 0 0 0 0 0 0 
0 0 0 0 0 0 0 0 0 0 0 0 0 0 0 
0 0 0 0 0 0 0 0 0 0 0 0 0 0 0 
0 0 0 0 0 0 0 0 0 0 0 0 0 0 0 
0 0 0 0 0 0 0 0 0 0 0 0 0 0 0 
0 0 0 0 0 0 0 0 0 0 0 0 0 0 0 
0 0 0 0 0 0 0 0 0 0 0 0 0 0 0 
0 0 0 0 0 0 0 0 0 0 0 0 0 0 0 
0 0 0 0 0 0 0 0 0 0 0 0 0 0 0 
0 0 0 0 0 0 0 0 0 0 0 0 0 0 0 
0 0 0 0 0 0 0 0 0 0 0 0 0 0 0 
0 0 0 0 0 0 0 0 0 0 0 0 0 0 0 
0 0 0 0 0 0 0 0 0 0 0 0 0 0 0 
0 0 0 0 0 0 0 0 0 0 0 0 0 0 0 
0 0 0 0 0 0 0 0 0 0 0 0 0 0 0 
0 0 0 0 0 0 0 0 0 0 0 0 0 0 0 
0 0 0 0 0 0 0 0 0 0 0 0 0 0 0 
0 0 0 0 0 0 0 0 0 0 0 0 0 0 0 
0 0 0 0 0 0 0 0 0 0 0 0 0 0 0 
0 0 0 0 0 0 0 0 0 0 0 0 0 0 0 
0 0 0 0 0 0 0 0 0 0 0 0 0 0 0 
0 0 0 0 0 0 0 0 0 0 0 0 0 0 0 
0 0 0 0 0 0 0 0 0 0 0 0 0 0 0 
0 0 0 0 0 0 0 0 0 0 0 0 0 0 0 
0 0 0 0 0 0 0 0 0 0 0 0 0 0 0 
0 0 0 0 0 0 0 0 0 0 0 0 0 0 0 
0 0 0 0 0 0 0 0 0 0 0 0 0 0 0 
0 0 0 0 0 0 0 0 0 0 0 0 0 0 0 
0 0 0 0 0 0 0 0 0 0 0 0 0 0 0 
0 0 0 0 0 0 0 0 0 0 0 0 0 0 0 
0 0 0 0 0 0 0 0 0 0 0 0 0 0 0 
0 0 0 0 0 0 0 0 0 0 0 0 0 0 0 
0 0 0 0 0 0 0 0 0 0 0 0 0 0 0 
0 0 0 0 0 0 0 0 0 0 0 0 0 0 0 
0 0 0 0 0 0 0 0 0 0 0 0 0 0 0 
0 0 0 0 0 0 0 0 0 0 0 0 0 0 0 
0 0 0 0 0 0 0 0 0 0 0 0 0 0 0 
0 0 0 0 0 0 0 0 0 0 0 0 0 0 0 
0 0 0 0 0 0 0 0 0 0 0 0 0 0 0 
0 0 0 0 0 0 0 0 0 0 0 0 0 0 0 
0 0 0 0 0 0 0 0 0 0 0 0 0 0 0 
0 0 0 0 0 0 0 0 0 0 0 0 0 0 0 
0 0 0 0 0 0 0 0 0 0 0 0 0 0 0 
0 0 0 0 0 0 0 0 0 0 0 0 0 0 0 
0 0 0 0 0 0 0 0 0 0 0 0 0 0 0 
0 0 0 0 0 0 0 0 0 0 0 0 0 0 0 
0 0 0 0 0 0 0 0 0 0 0 0 0 0 0 
0 0 0 0 0 0 0 0 0 0 0 0 0 0 0 
0 0 0 0 0 0 0 0 0 0 0 0 0 0 0 
0 0 0 0 0 0 0 0 0 0 0 0 0 0 0 
0 0 0 0 0 0 0 0 0 0 0 0 0 0 0 
0 0 0 0 0 0 0 0 0 0 0 0 0 0 0 
0 0 0 0 0 0 0 0 0 0 0 0 0 0 0 
0 0 0 0 0 0 0 0 0 0 0 0 0 0 0 
0 0 0 0 0 0 0 0 0 0 0 0 0 0 0 
0 0 0 0 0 0 0 0 0 0 0 0 0 0 0 
0 0 0 0 0 0 0 0 0 0 0 0 0 0 0 
0 0 0 0 0 0 0 0 0 0 0 0 0 0 0 
0 0 0 0 0 0 0 0 0 0 0 0 0 0 0 
0 0 0 0 0 0 0 0 0 0 0 0 0 0 0 
0 0 0 0 0 0 0 0 0 0 0 0 0 0 0 
0 0 0 0 0 0 0 0 0 0 0 0 0 0 0 
0 0 0 0 0 0 0 0 0 0 0 0 0 0 0 
0 0 0 0 0 0 0 0 0 0 0 0 0 0 0 
0 0 0 0 0 0 0 0 0 0 0 0 0 0 0 
0 0 0 0 0 0 0 0 0 0 0 0 0 0 0 
0 0 0 0 0 0 0 0 0 0 0 0 0 0 0 
0 0 0 0 0 0 0 0 0 0 0 0 0 0 0 
0 0 0 0 0 0 0 0 0 0 0 0 0 0 0 
0 0 0 0 0 0 0 0 0 0 0 0 0 0 0 
0 0 0 0 0 0 0 0 0 0 0 0 0 0 0 
0 0 0 0 0 0 0 0 0 0 0 0 0 0 0 
0 0 0 0 0 0 0 0 0 0 0 0 0 0 0 
0 0 0 0 0 0 0 0 0 0 0 0 0 0 0 
0 0 0 0 0 0 0 0 0 0 0 0 0 0 0 
0 0 0 0 0 0 0 0 0 0 0 0 0 0 0 
0 0 0 0 0 0 0 0 0 0 0 0 0 0 0 
0 0 0 0 0 0 0 0 0 0 0 0 0 0 0 
0 0 0 0 0 0 0 0 0 0 0 0 0 0 0 
0 0 0 0 0 0 0 0 0 0 0 0 0 0 0 
0 0 0 0 0 0 0 0 0 0 0 0 0 0 0 
0 0 0 0 0 0 0 0 0 0 0 0 0 0 0 
0 0 0 0 0 0 0 0 0 0 0 0 0 0 0 
0 0 0 0 0 0 0 0 0 0 0 0 0 0 0 
0 0 0 0 0 0 0 0 0 0 0 0 0 0 0 
0 0 0 0 0 0 0 0 0 0 0 0 0 0 0 
0 0 0 0 0 0 0 0 0 0 0 0 0 0 0 
0 0 0 0 0 0 0 0 0 0 0 0 0 0 0 
0 0 0 0 0 0 0 0 0 0 0 0 0 0 0 
0 0 0 0 0 0 0 0 0 0 0 0 0 0 0 
0 0 0 0 0 0 0 0 0 0 0 0 0 0 0 
0 0 0 0 0 0 0 0 0 0 0 0 0 0 0 
0 0 0 0 0 0 0 0 0 0 0 0 0 0 0 
0 0 0 0 0 0 0 0 0 0 0 0 0 0 0 
0 0 0 0 0 0 0 0 0 0 0 0 0 0 0 
0 0 0 0 0 0 0 0 0 0 0 0 0 0 0 
0 0 0 0 0 0 0 0 0 0 0 0 0 0 0 
0 0 0 0 0 0 0 0 0 0 0 0 0 0 0 
0 0 0 0 0 0 0 0 0 0 0 0 0 0 0 
0 0 0 0 0 0 0 0 0 0 0 0 0 0 0 
0 0 0 0 0 0 0 0 0 0 0 0 0 0 0 
0 0 0 0 0 0 0 0 0 0 0 0 0 0 0 
0 0 0 0 0 0 0 0 0 0 0 0 0 0 0 
0 0 0 0 0 0 0 0 0 0 0 0 0 0 0 
0 0 0 0 0 0 0 0 0 0 0 0 0 0 0 
0 0 0 0 0 0 0 0 0 0 0 0 0 0 0 
0 0 0 0 0 0 0 0 0 0 0 0 0 0 0 
0 0 0 0 0 0 0 0 0 0 0 0 0 0 0 
0 0 0 0 0 0 0 0 0 0 0 0 0 0 0 
0 0 0 0 0 0 0 0 0 0 0 0 0 0 0 
0 0 0 0 0 0 0 0 0 0 0 0 0 0 0 
0 0 0 0 0 0 0 0 0 0 0 0 0 0 0 
0 0 0 0 0 0 0 0 0 0 0 0 0 0 0 
0 0 0 0 0 0 0 0 0 0 0 0 0 0 0 
0 0 0 0 0 0 0 0 0 0 0 0 0 0 0 
0 0 0 0 0 0 0 0 0 0 0 0 0 0 0 
