P3
# Created by IrfanView
113 30
255
0 0 0 0 0 0 0 0 0 0 0 0 0 0 0 
0 0 0 0 0 0 0 0 0 0 0 0 0 0 0 
0 0 0 0 0 0 0 0 0 0 0 0 0 0 0 
0 0 0 0 0 0 0 0 0 0 0 0 0 0 0 
0 0 0 0 0 0 0 0 0 0 0 0 0 0 0 
0 0 0 0 0 0 0 0 0 0 0 0 0 0 0 
0 0 0 0 0 0 0 0 0 0 0 0 0 0 0 
0 0 0 0 0 0 0 0 0 0 0 0 0 0 0 
0 0 0 0 0 0 0 0 0 0 0 0 0 0 0 
0 0 0 0 0 0 0 0 0 0 0 0 0 0 0 
0 0 0 0 0 0 0 0 0 0 0 0 0 0 0 
0 0 0 0 0 0 0 0 0 0 0 0 0 0 0 
0 0 0 0 0 0 0 0 0 0 0 0 0 0 0 
0 0 0 0 0 0 0 0 0 0 0 0 0 0 0 
0 0 0 0 0 0 0 0 0 0 0 0 0 0 0 
0 0 0 0 0 0 0 0 0 0 0 0 0 0 0 
0 0 0 0 0 0 0 0 0 0 0 0 0 0 0 
0 0 0 0 0 0 0 0 0 0 0 0 0 0 0 
0 0 0 0 0 0 0 0 0 0 0 0 0 0 0 
0 0 0 0 0 0 0 0 0 0 0 0 0 0 0 
0 0 0 0 0 0 0 0 0 0 0 0 0 0 0 
0 0 0 0 0 0 0 0 0 0 0 0 0 0 0 
0 0 0 0 0 0 0 0 0 0 0 0 0 0 0 
0 0 0 0 0 0 0 0 0 0 0 0 0 0 0 
0 0 0 0 0 0 0 0 0 0 0 0 0 0 0 
0 0 0 0 0 0 0 0 0 0 0 0 0 0 0 
0 0 0 0 0 0 0 0 0 0 0 0 0 0 0 
0 0 0 0 0 0 0 0 0 0 0 0 0 0 0 
0 0 0 0 0 0 0 0 0 0 0 0 0 0 0 
0 0 0 0 0 0 0 0 0 0 0 0 0 0 0 
0 0 0 0 0 0 0 0 0 0 0 0 0 0 0 
0 0 0 0 0 0 0 0 0 0 0 0 0 0 0 
0 0 0 0 0 0 0 0 0 0 0 0 0 0 0 
0 0 0 0 0 0 0 0 0 0 0 0 0 0 0 
0 0 0 0 0 0 0 0 0 0 0 0 0 0 0 
0 0 0 0 0 0 0 0 0 0 0 0 0 0 0 
0 0 0 0 0 0 0 0 0 0 0 0 0 0 0 
0 0 0 0 0 0 0 0 0 0 0 0 0 0 0 
0 0 0 0 0 0 0 0 0 0 0 0 0 0 0 
0 0 0 0 0 0 0 0 0 0 0 0 0 0 0 
0 0 0 0 0 0 0 0 0 0 0 0 0 0 0 
0 0 0 0 0 0 0 0 0 0 0 0 0 0 0 
0 0 0 0 0 0 0 0 0 0 0 0 0 0 0 
0 0 0 0 0 0 0 0 0 0 0 0 0 0 0 
0 0 0 0 0 0 0 0 0 0 0 0 0 0 0 
0 0 0 0 0 0 0 0 0 0 0 0 0 0 0 
0 0 0 0 0 0 0 0 0 10 10 10 160 154 53 
174 167 51 174 167 51 174 167 51 174 167 51 174 167 51 
174 167 51 174 167 51 174 167 51 129 124 51 0 0 0 
0 0 0 0 0 0 0 0 0 0 0 0 0 0 0 
0 0 0 0 0 0 0 0 0 19 19 15 167 160 54 
174 167 51 174 167 51 174 167 51 174 167 51 174 167 51 
174 167 51 174 167 51 174 167 51 71 70 46 0 0 0 
0 0 0 0 0 0 0 0 0 0 0 0 0 0 0 
0 0 0 0 0 0 0 0 0 0 0 0 0 0 0 
0 0 0 0 0 0 0 0 0 0 0 0 0 0 0 
0 0 0 0 0 0 0 0 0 0 0 0 0 0 0 
0 0 0 0 0 0 0 0 0 0 0 0 0 0 0 
0 0 0 0 0 0 0 0 0 0 0 0 0 0 0 
0 0 0 0 0 0 0 0 0 0 0 0 0 0 0 
0 0 0 0 0 0 0 0 0 0 0 0 0 0 0 
0 0 0 0 0 0 0 0 0 0 0 0 0 0 0 
0 0 0 0 0 0 0 0 0 0 0 0 0 0 0 
0 0 0 0 0 0 0 0 0 0 0 0 0 0 0 
0 0 0 0 0 0 0 0 0 0 0 0 0 0 0 
0 0 0 0 0 0 0 0 0 0 0 0 0 0 0 
0 0 0 0 0 0 0 0 0 0 0 0 0 0 0 
0 0 0 0 0 0 0 0 0 0 0 0 0 0 0 
0 0 0 0 0 0 0 0 0 0 0 0 0 0 0 
0 0 0 41 40 28 200 191 32 238 226 9 255 242 0 
255 242 0 255 242 0 255 242 0 255 242 0 255 242 0 
255 242 0 173 165 5 0 0 0 0 0 0 0 0 0 
0 0 0 0 0 0 0 0 0 0 0 0 0 0 0 
0 0 0 133 128 45 255 242 0 255 242 0 255 242 0 
255 242 0 255 242 0 255 242 0 247 235 4 207 197 22 
203 195 42 31 31 20 0 0 0 0 0 0 0 0 0 
0 0 0 0 0 0 0 0 0 0 0 0 0 0 0 
0 0 0 0 0 0 0 0 0 0 0 0 0 0 0 
0 0 0 0 0 0 0 0 0 0 0 0 0 0 0 
0 0 0 0 0 0 0 0 0 0 0 0 0 0 0 
0 0 0 0 0 0 0 0 0 0 0 0 0 0 0 
0 0 0 0 0 0 0 0 0 0 0 0 0 0 0 
0 0 0 0 0 0 0 0 0 0 0 0 0 0 0 
0 0 0 0 0 0 0 0 0 0 0 0 0 0 0 
0 0 0 0 0 0 0 0 0 0 0 0 0 0 0 
0 0 0 0 0 0 0 0 0 0 0 0 0 0 0 
0 0 0 0 0 0 0 0 0 0 0 0 0 0 0 
0 0 0 0 0 0 0 0 0 0 0 0 0 0 0 
0 0 0 0 0 0 0 0 0 0 0 0 0 0 0 
0 0 0 0 0 0 0 0 0 0 0 0 0 0 0 
0 0 0 0 0 0 0 0 0 0 0 0 0 0 0 
0 0 0 0 0 0 0 0 0 0 0 0 0 0 0 
2 2 2 60 59 39 231 220 13 255 242 0 194 185 14 
255 242 0 255 242 0 255 242 0 255 242 0 233 222 13 
9 9 9 0 0 0 0 0 0 0 0 0 0 0 0 
0 0 0 0 0 0 0 0 0 44 44 34 240 228 10 
224 213 5 255 242 0 255 242 0 255 242 0 255 242 0 
228 217 15 61 60 36 13 13 13 0 0 0 0 0 0 
0 0 0 0 0 0 0 0 0 0 0 0 0 0 0 
0 0 0 0 0 0 0 0 0 0 0 0 0 0 0 
0 0 0 0 0 0 0 0 0 0 0 0 0 0 0 
0 0 0 0 0 0 0 0 0 0 0 0 0 0 0 
0 0 0 0 0 0 0 0 0 0 0 0 0 0 0 
0 0 0 0 0 0 0 0 0 0 0 0 0 0 0 
0 0 0 0 0 0 0 0 0 0 0 0 0 0 0 
0 0 0 0 0 0 0 0 0 0 0 0 0 0 0 
0 0 0 0 0 0 0 0 0 0 0 0 0 0 0 
0 0 0 0 0 0 0 0 0 0 0 0 0 0 0 
0 0 0 0 0 0 0 0 0 0 0 0 0 0 0 
0 0 0 0 0 0 0 0 0 0 0 0 0 0 0 
0 0 0 0 0 0 0 0 0 0 0 0 0 0 0 
0 0 0 0 0 0 0 0 0 0 0 0 0 0 0 
0 0 0 0 0 0 0 0 0 0 0 0 0 0 0 
0 0 0 0 0 0 0 0 0 0 0 0 0 0 0 
0 0 0 0 0 0 0 0 0 0 0 0 0 0 0 
224 215 46 249 236 0 124 120 52 255 242 0 255 242 0 
255 242 0 255 242 0 248 237 28 19 19 19 0 0 0 
0 0 0 0 0 0 0 0 0 0 0 0 0 0 0 
13 13 12 187 179 32 223 213 31 214 205 45 255 242 0 
255 242 0 255 242 0 255 242 0 121 117 37 0 0 0 
0 0 0 0 0 0 0 0 0 0 0 0 0 0 0 
0 0 0 0 0 0 0 0 0 0 0 0 0 0 0 
0 0 0 0 0 0 0 0 0 0 0 0 0 0 0 
0 0 0 0 0 0 0 0 0 0 0 0 0 0 0 
0 0 0 0 0 0 0 0 0 0 0 0 0 0 0 
0 0 0 0 0 0 0 0 0 0 0 0 0 0 0 
0 0 0 0 0 0 0 0 0 0 0 0 0 0 0 
0 0 0 0 0 0 0 0 0 0 0 0 0 0 0 
0 0 0 0 0 0 0 0 0 0 0 0 0 0 0 
0 0 0 0 0 0 0 0 0 0 0 0 0 0 0 
0 0 0 0 0 0 0 0 0 0 0 0 0 0 0 
0 0 0 0 0 0 0 0 0 0 0 0 0 0 0 
0 0 0 0 0 0 0 0 0 0 0 0 0 0 0 
0 0 0 0 0 0 0 0 0 0 0 0 0 0 0 
0 0 0 0 0 0 0 0 0 0 0 0 0 0 0 
0 0 0 0 0 0 0 0 0 0 0 0 0 0 0 
0 0 0 0 0 0 0 0 0 0 0 0 0 0 0 
0 0 0 0 0 0 12 12 12 221 211 23 218 207 20 
78 76 33 255 242 0 255 242 0 255 242 0 255 242 0 
243 232 23 15 15 15 0 0 0 0 0 0 0 0 0 
0 0 0 0 0 0 1 1 1 136 131 49 235 223 7 
91 89 54 243 230 5 255 242 0 255 242 0 255 242 0 
246 234 4 38 37 28 0 0 0 0 0 0 0 0 0 
0 0 0 0 0 0 0 0 0 0 0 0 0 0 0 
0 0 0 0 0 0 0 0 0 0 0 0 0 0 0 
0 0 0 0 0 0 0 0 0 0 0 0 0 0 0 
0 0 0 0 0 0 0 0 0 0 0 0 0 0 0 
0 0 0 0 0 0 0 0 0 0 0 0 0 0 0 
0 0 0 0 0 0 0 0 0 0 0 0 0 0 0 
0 0 0 0 0 0 0 0 0 0 0 0 0 0 0 
0 0 0 0 0 0 0 0 0 0 0 0 0 0 0 
0 0 0 0 0 0 0 0 0 0 0 0 0 0 0 
0 0 0 0 0 0 0 0 0 0 0 0 0 0 0 
0 0 0 0 0 0 0 0 0 0 0 0 0 0 0 
0 0 0 0 0 0 0 0 0 0 0 0 0 0 0 
0 0 0 0 0 0 0 0 0 0 0 0 0 0 0 
0 0 0 0 0 0 0 0 0 0 0 0 0 0 0 
0 0 0 0 0 0 0 0 0 0 0 0 0 0 0 
0 0 0 0 0 0 0 0 0 0 0 0 0 0 0 
0 0 0 0 0 0 0 0 0 0 0 0 0 0 0 
48 47 31 247 234 3 152 147 44 70 68 26 255 242 0 
255 242 0 255 242 0 255 242 0 238 227 18 12 12 12 
0 0 0 0 0 0 0 0 0 0 0 0 0 0 0 
70 68 37 238 227 5 127 123 48 109 105 28 255 242 0 
255 242 0 255 242 0 255 242 0 195 187 31 0 0 0 
0 0 0 0 0 0 0 0 0 63 62 39 98 95 44 
98 95 44 98 95 44 98 95 44 98 95 44 98 95 44 
98 95 44 79 77 48 2 2 2 0 0 0 11 11 11 
86 83 44 98 95 44 98 95 44 98 95 44 98 95 44 
98 95 44 88 86 53 12 12 12 0 0 0 0 0 0 
10 10 10 62 61 33 136 131 32 135 129 8 176 168 25 
138 132 25 71 69 29 14 14 14 25 25 25 86 84 49 
17 17 17 0 0 0 44 43 27 98 95 44 98 95 44 
98 95 44 98 95 44 98 95 44 98 95 44 98 95 44 
98 95 44 31 31 23 0 0 0 0 0 0 0 0 0 
0 0 0 0 0 0 8 8 8 58 57 30 118 114 29 
130 124 17 196 188 38 131 125 10 122 118 38 47 46 35 
10 10 10 80 77 40 36 36 26 0 0 0 0 0 0 
0 0 0 0 0 0 0 0 0 0 0 0 0 0 0 
0 0 0 0 0 0 0 0 0 0 0 0 0 0 0 
0 0 0 0 0 0 0 0 0 0 0 0 0 0 0 
0 0 0 0 0 0 0 0 0 0 0 0 0 0 0 
0 0 0 0 0 0 0 0 0 128 123 41 254 241 0 
65 63 38 78 76 33 255 242 0 255 242 0 255 242 0 
255 242 0 232 221 13 8 8 8 0 0 0 0 0 0 
0 0 0 0 0 0 25 24 21 225 215 24 179 171 33 
13 13 13 187 179 24 255 242 0 255 242 0 255 242 0 
255 242 0 108 105 38 0 0 0 0 0 0 0 0 0 
0 0 0 124 120 45 226 216 15 255 242 0 255 242 0 
255 242 0 255 242 0 237 225 10 191 183 32 101 97 32 
0 0 0 0 0 0 28 28 28 190 181 22 251 239 3 
255 242 0 255 242 0 238 226 5 211 202 34 104 100 26 
0 0 0 7 7 7 103 100 45 215 205 27 253 240 1 
212 202 20 136 131 31 106 102 24 185 178 40 248 236 1 
227 216 18 204 194 18 190 182 28 1 1 1 0 0 0 
113 109 42 211 202 22 254 241 0 255 242 0 255 242 0 
255 242 0 251 238 2 212 203 27 144 138 27 27 27 18 
0 0 0 0 0 0 0 0 0 19 19 18 116 111 30 
211 202 26 249 237 2 199 190 32 119 114 25 78 75 15 
150 144 28 236 225 7 249 236 3 196 188 30 244 232 6 
40 39 29 0 0 0 0 0 0 0 0 0 0 0 0 
0 0 0 0 0 0 0 0 0 0 0 0 0 0 0 
0 0 0 0 0 0 0 0 0 0 0 0 0 0 0 
0 0 0 0 0 0 0 0 0 0 0 0 0 0 0 
0 0 0 0 0 0 0 0 0 0 0 0 0 0 0 
7 7 7 203 194 25 214 204 19 19 19 19 85 83 40 
255 242 0 255 242 0 255 242 0 255 242 0 227 216 7 
5 5 5 0 0 0 0 0 0 0 0 0 7 7 7 
158 152 31 214 203 12 34 33 26 50 50 42 244 232 3 
255 242 0 255 242 0 255 242 0 236 224 7 31 31 25 
0 0 0 0 0 0 0 0 0 0 0 0 0 0 0 
65 64 48 255 242 0 255 242 0 255 242 0 245 233 7 
58 57 40 0 0 0 0 0 0 0 0 0 0 0 0 
0 0 0 2 2 2 104 100 31 255 242 0 228 217 19 
72 71 50 2 2 2 0 0 0 5 5 5 150 144 34 
249 237 1 255 242 0 131 126 27 9 9 9 0 0 0 
0 0 0 7 7 7 147 142 41 255 242 0 255 242 0 
118 114 33 0 0 0 0 0 0 0 0 0 10 10 10 
216 206 23 255 242 0 255 242 0 253 240 0 121 117 51 
3 3 3 0 0 0 0 0 0 0 0 0 0 0 0 
61 59 34 211 202 28 255 242 0 233 221 7 93 90 35 
13 13 13 0 0 0 0 0 0 0 0 0 86 84 49 
247 235 0 255 242 0 186 178 24 0 0 0 0 0 0 
0 0 0 0 0 0 0 0 0 0 0 0 0 0 0 
0 0 0 0 0 0 0 0 0 0 0 0 0 0 0 
0 0 0 0 0 0 0 0 0 0 0 0 0 0 0 
0 0 0 0 0 0 0 0 0 0 0 0 0 0 0 
0 0 0 0 0 0 0 0 0 65 64 35 253 240 1 
133 128 24 0 0 0 92 90 48 255 242 0 255 242 0 
255 242 0 255 242 0 238 226 2 12 12 1 0 0 0 
0 0 0 0 0 0 108 104 43 244 232 3 88 86 44 
0 0 0 116 112 36 255 242 0 255 242 0 255 242 0 
255 242 0 182 175 38 4 4 4 0 0 0 0 0 0 
0 0 0 0 0 0 0 0 0 74 72 29 255 242 0 
255 242 0 255 242 0 164 157 22 1 1 1 0 0 0 
0 0 0 0 0 0 0 0 0 0 0 0 0 0 0 
77 75 36 254 241 0 110 107 50 0 0 0 0 0 0 
0 0 0 124 120 46 254 241 0 255 242 0 204 196 31 
15 15 15 0 0 0 0 0 0 0 0 0 0 0 0 
38 38 32 236 224 3 244 231 2 30 30 23 0 0 0 
0 0 0 0 0 0 18 18 18 234 223 10 255 242 0 
255 242 0 226 215 12 17 17 17 0 0 0 0 0 0 
0 0 0 1 1 1 110 107 51 243 231 7 255 242 0 
251 238 3 80 78 37 0 0 0 0 0 0 0 0 0 
0 0 0 0 0 0 7 7 7 205 196 29 255 242 0 
114 110 29 0 0 0 0 0 0 0 0 0 0 0 0 
0 0 0 0 0 0 1 1 1 1 1 1 0 0 0 
0 0 0 0 0 0 0 0 0 0 0 0 0 0 0 
0 0 0 0 0 0 0 0 0 0 0 0 0 0 0 
0 0 0 0 0 0 0 0 0 0 0 0 0 0 0 
0 0 0 138 132 30 252 239 0 61 59 30 0 0 0 
81 79 36 255 242 0 255 242 0 255 242 0 255 242 0 
255 242 0 64 63 41 0 0 0 0 0 0 49 48 28 
238 226 10 138 134 43 2 2 2 9 9 9 196 188 35 
255 242 0 255 242 0 255 242 0 255 242 0 98 95 35 
0 0 0 0 0 0 0 0 0 0 0 0 0 0 0 
0 0 0 151 145 24 255 242 0 255 242 0 255 242 0 
91 88 30 0 0 0 0 0 0 0 0 0 0 0 0 
0 0 0 0 0 0 0 0 0 120 115 33 221 211 21 
18 18 18 0 0 0 0 0 0 40 40 30 231 219 7 
255 242 0 255 242 0 176 169 38 0 0 0 0 0 0 
0 0 0 0 0 0 0 0 0 8 8 8 238 227 29 
194 185 26 1 1 1 0 0 0 0 0 0 0 0 0 
98 95 35 255 242 0 255 242 0 255 242 0 163 156 30 
0 0 0 0 0 0 0 0 0 0 0 0 102 99 43 
245 232 2 255 242 0 254 241 0 136 131 39 6 6 6 
0 0 0 0 0 0 0 0 0 0 0 0 0 0 0 
0 0 0 178 171 39 241 229 2 48 47 41 0 0 0 
0 0 0 6 6 6 51 51 37 123 119 32 165 158 25 
200 191 23 222 212 25 158 150 18 125 121 35 31 30 25 
0 0 0 0 0 0 0 0 0 0 0 0 0 0 0 
0 0 0 0 0 0 0 0 0 0 0 0 0 0 0 
0 0 0 0 0 0 0 0 0 8 8 8 218 208 23 
213 203 21 6 6 6 0 0 0 20 19 3 247 235 1 
255 242 0 255 242 0 255 242 0 255 242 0 68 67 45 
0 0 0 15 15 15 202 193 28 188 180 29 11 11 11 
0 0 0 42 41 30 243 231 5 255 242 0 255 242 0 
255 242 0 236 225 10 40 39 34 0 0 0 0 0 0 
0 0 0 0 0 0 0 0 0 13 13 13 231 220 14 
255 242 0 255 242 0 235 223 10 24 23 19 0 0 0 
0 0 0 0 0 0 0 0 0 0 0 0 0 0 0 
7 7 7 199 190 38 141 135 30 0 0 0 0 0 0 
0 0 0 125 121 34 255 242 0 255 242 0 255 242 0 
223 213 24 56 56 46 0 0 0 0 0 0 0 0 0 
0 0 0 0 0 0 171 162 12 126 122 45 0 0 0 
0 0 0 0 0 0 0 0 0 166 159 25 255 242 0 
255 242 0 255 242 0 69 66 26 0 0 0 0 0 0 
0 0 0 57 56 30 232 220 8 255 242 0 255 242 0 
221 211 23 23 23 23 0 0 0 0 0 0 0 0 0 
0 0 0 0 0 0 0 0 0 0 0 0 98 94 12 
200 191 31 4 4 4 0 0 0 35 35 25 177 170 39 
245 233 4 157 151 42 67 65 31 80 78 35 203 193 17 
255 242 0 255 242 0 224 213 15 44 43 26 0 0 0 
0 0 0 0 0 0 0 0 0 0 0 0 0 0 0 
0 0 0 0 0 0 0 0 0 0 0 0 0 0 0 
0 0 0 55 53 28 254 241 1 149 143 35 0 0 0 
0 0 0 9 9 9 244 232 3 255 242 0 255 242 0 
255 242 0 255 242 0 59 58 36 4 4 4 154 149 43 
233 222 12 51 51 36 0 0 0 0 0 0 114 110 39 
255 242 0 255 242 0 255 242 0 255 242 0 184 176 37 
2 2 2 0 0 0 0 0 0 0 0 0 0 0 0 
0 0 0 87 85 46 254 241 0 255 242 0 255 242 0 
174 167 30 0 0 0 0 0 0 0 0 0 0 0 0 
0 0 0 0 0 0 0 0 0 41 40 31 239 227 5 
63 61 30 0 0 0 0 0 0 0 0 0 194 186 46 
255 242 0 255 242 0 255 242 0 255 242 0 237 225 11 
164 158 41 62 61 38 3 3 3 0 0 0 0 0 0 
42 41 33 18 18 16 0 0 0 0 0 0 0 0 0 
25 25 19 238 227 12 255 242 0 255 242 0 235 224 18 
18 18 16 0 0 0 0 0 0 19 19 18 201 193 30 
255 242 0 255 242 0 255 242 0 116 112 44 0 0 0 
0 0 0 0 0 0 0 0 0 0 0 0 0 0 0 
0 0 0 0 0 0 51 49 8 67 64 18 0 0 0 
45 45 35 205 196 18 255 242 0 255 242 0 82 79 33 
0 0 0 0 0 0 101 97 18 255 242 0 255 242 0 
255 242 0 122 117 22 0 0 0 0 0 0 0 0 0 
0 0 0 0 0 0 0 0 0 0 0 0 0 0 0 
0 0 0 0 0 0 0 0 0 0 0 0 133 128 25 
251 238 2 54 52 27 0 0 0 0 0 0 14 14 14 
246 233 4 255 242 0 255 242 0 255 242 0 255 242 0 
51 49 27 78 76 36 246 234 4 92 90 40 0 0 0 
0 0 0 4 4 4 196 188 28 255 242 0 255 242 0 
255 242 0 255 242 0 90 87 27 0 0 0 0 0 0 
0 0 0 0 0 0 0 0 0 0 0 0 171 165 38 
255 242 0 255 242 0 255 242 0 96 93 34 0 0 0 
0 0 0 0 0 0 0 0 0 0 0 0 0 0 0 
0 0 0 116 112 42 212 202 18 6 6 6 0 0 0 
0 0 0 0 0 0 143 138 35 255 242 0 255 242 0 
255 242 0 255 242 0 255 242 0 255 242 0 254 241 0 
210 200 25 118 115 48 11 11 10 0 0 0 0 0 0 
0 0 0 0 0 0 0 0 0 81 78 24 255 242 0 
255 242 0 255 242 0 154 147 28 0 0 0 0 0 0 
0 0 0 99 96 40 255 242 0 255 242 0 255 242 0 
234 223 12 22 22 18 0 0 0 0 0 0 0 0 0 
0 0 0 0 0 0 0 0 0 0 0 0 0 0 0 
0 0 0 0 0 0 0 0 0 164 158 39 255 242 0 
255 242 0 246 234 4 52 52 40 0 0 0 0 0 0 
144 139 31 255 242 0 255 242 0 255 242 0 122 117 26 
0 0 0 0 0 0 0 0 0 0 0 0 0 0 0 
0 0 0 0 0 0 0 0 0 0 0 0 0 0 0 
0 0 0 9 9 9 215 205 19 202 193 28 11 11 11 
0 0 0 0 0 0 20 20 20 247 235 6 255 242 0 
255 242 0 255 242 0 255 242 0 85 83 51 225 214 12 
145 140 33 4 4 4 0 0 0 0 0 0 53 52 33 
251 238 1 255 242 0 255 242 0 255 242 0 238 226 8 
17 17 17 0 0 0 0 0 0 0 0 0 0 0 0 
0 0 0 26 26 26 224 214 14 255 242 0 255 242 0 
239 228 11 20 20 20 0 0 0 0 0 0 0 0 0 
0 0 0 0 0 0 0 0 0 0 0 0 195 186 33 
151 145 34 0 0 0 0 0 0 0 0 0 0 0 0 
40 40 30 217 207 16 255 242 0 255 242 0 255 242 0 
255 242 0 255 242 0 255 242 0 255 242 0 255 242 0 
177 170 41 15 15 15 0 0 0 0 0 0 0 0 0 
1 1 1 184 176 38 255 242 0 255 242 0 255 242 0 
85 83 36 0 0 0 0 0 0 0 0 0 195 186 33 
255 242 0 255 242 0 255 242 0 167 160 29 1 1 1 
0 0 0 0 0 0 0 0 0 0 0 0 0 0 0 
0 0 0 0 0 0 0 0 0 0 0 0 0 0 0 
0 0 0 166 159 28 255 242 0 252 240 1 137 133 45 
1 1 1 0 0 0 12 12 12 223 213 22 255 242 0 
255 242 0 240 228 5 50 50 35 0 0 0 0 0 0 
0 0 0 0 0 0 0 0 0 0 0 0 0 0 0 
0 0 0 0 0 0 0 0 0 0 0 0 73 72 46 
249 237 1 123 118 32 0 0 0 0 0 0 0 0 0 
25 25 25 249 237 8 255 242 0 255 242 0 255 242 0 
255 242 0 214 204 17 215 205 28 21 21 20 0 0 0 
0 0 0 0 0 0 128 123 30 255 242 0 255 242 0 
255 242 0 255 242 0 182 174 32 0 0 0 0 0 0 
0 0 0 0 0 0 0 0 0 0 0 0 86 83 37 
254 241 0 255 242 0 255 242 0 160 154 39 0 0 0 
0 0 0 0 0 0 0 0 0 0 0 0 0 0 0 
0 0 0 41 41 38 236 224 3 55 54 25 0 0 0 
0 0 0 0 0 0 0 0 0 0 0 0 52 51 36 
162 156 35 230 219 10 255 242 0 255 242 0 255 242 0 
255 242 0 255 242 0 255 242 0 252 239 0 66 64 28 
0 0 0 0 0 0 0 0 0 33 33 32 235 223 7 
255 242 0 255 242 0 214 204 18 14 14 13 0 0 0 
0 0 0 29 28 25 253 240 1 255 242 0 255 242 0 
255 242 0 87 84 26 0 0 0 0 0 0 0 0 0 
0 0 0 0 0 0 0 0 0 0 0 0 0 0 0 
0 0 0 0 0 0 0 0 0 0 0 0 46 46 36 
96 93 30 70 68 35 2 2 2 0 0 0 0 0 0 
110 106 43 252 239 0 255 242 0 254 241 1 120 116 41 
1 1 1 0 0 0 0 0 0 0 0 0 0 0 0 
0 0 0 0 0 0 0 0 0 0 0 0 0 0 0 
0 0 0 0 0 0 152 146 38 255 242 0 53 52 39 
0 0 0 0 0 0 0 0 0 31 31 31 251 238 9 
255 242 0 255 242 0 255 242 0 255 242 0 235 223 8 
61 60 36 0 0 0 0 0 0 0 0 0 5 5 5 
206 197 23 255 242 0 255 242 0 255 242 0 255 242 0 
85 82 27 0 0 0 0 0 0 0 0 0 0 0 0 
0 0 0 1 1 1 159 153 33 255 242 0 255 242 0 
255 242 0 77 74 34 0 0 0 0 0 0 0 0 0 
0 0 0 0 0 0 0 0 0 0 0 0 122 117 30 
224 214 24 12 12 12 0 0 0 0 0 0 25 24 3 
3 3 2 0 0 0 0 0 0 0 0 0 31 31 25 
99 96 28 198 190 31 251 239 1 255 242 0 255 242 0 
255 242 0 255 242 0 143 138 46 0 0 0 0 0 0 
0 0 0 102 99 44 255 242 0 255 242 0 255 242 0 
149 144 38 0 0 0 0 0 0 0 0 0 85 83 29 
255 242 0 255 242 0 255 242 0 242 230 2 35 34 22 
0 0 0 0 0 0 0 0 0 0 0 0 0 0 0 
0 0 0 0 0 0 0 0 0 0 0 0 0 0 0 
0 0 0 0 0 0 0 0 0 0 0 0 0 0 0 
0 0 0 8 8 8 86 83 42 238 226 7 255 242 0 
227 216 20 108 105 46 1 1 1 0 0 0 0 0 0 
0 0 0 0 0 0 0 0 0 0 0 0 0 0 0 
0 0 0 0 0 0 0 0 0 0 0 0 19 18 16 
222 212 22 213 203 20 7 7 6 0 0 0 0 0 0 
0 0 0 37 37 37 252 240 11 255 242 0 255 242 0 
255 242 0 247 235 0 108 105 39 0 0 0 0 0 0 
0 0 0 0 0 0 48 47 27 251 239 3 255 242 0 
255 242 0 255 242 0 244 232 14 29 29 22 0 0 0 
0 0 0 0 0 0 0 0 0 0 0 0 17 17 15 
228 217 15 255 242 0 255 242 0 241 229 13 28 28 22 
0 0 0 0 0 0 0 0 0 0 0 0 0 0 0 
0 0 0 12 12 12 207 198 26 137 132 39 0 0 0 
0 0 0 13 13 13 222 212 19 86 83 35 0 0 0 
0 0 0 0 0 0 0 0 0 0 0 0 5 5 5 
93 90 40 250 238 2 255 242 0 255 242 0 252 240 0 
70 68 34 0 0 0 0 0 0 0 0 0 180 172 34 
255 242 0 255 242 0 252 239 1 62 61 35 0 0 0 
0 0 0 0 0 0 99 94 3 255 242 0 255 242 0 
255 242 0 245 233 15 20 20 20 0 0 0 0 0 0 
0 0 0 0 0 0 0 0 0 0 0 0 0 0 0 
0 0 0 0 0 0 0 0 0 0 0 0 0 0 0 
0 0 0 0 0 0 85 82 25 137 131 13 208 199 34 
248 235 3 214 206 68 88 85 35 35 35 31 0 0 0 
0 0 0 0 0 0 0 0 0 0 0 0 0 0 0 
0 0 0 0 0 0 0 0 0 0 0 0 0 0 0 
0 0 0 0 0 0 91 89 44 255 242 0 171 164 33 
0 0 0 0 0 0 0 0 0 0 0 0 28 28 28 
250 238 9 255 242 0 255 242 0 255 242 0 178 171 39 
8 8 8 0 0 0 0 0 0 0 0 0 0 0 0 
118 114 23 255 242 0 255 242 0 255 242 0 255 242 0 
171 164 29 0 0 0 0 0 0 0 0 0 0 0 0 
0 0 0 0 0 0 30 29 18 255 242 0 255 242 0 
255 242 0 181 173 23 4 4 4 0 0 0 0 0 0 
0 0 0 0 0 0 0 0 0 0 0 0 91 88 42 
225 214 10 33 33 32 0 0 0 0 0 0 74 72 31 
255 242 0 106 102 32 0 0 0 0 0 0 0 0 0 
0 0 0 0 0 0 0 0 0 10 10 10 195 186 14 
255 242 0 255 242 0 214 204 20 14 14 14 0 0 0 
0 0 0 36 36 33 233 221 9 255 242 0 255 242 0 
219 209 22 19 19 19 0 0 0 0 0 0 0 0 0 
89 85 18 255 242 0 255 242 0 255 242 0 248 236 19 
24 24 24 0 0 0 0 0 0 0 0 0 0 0 0 
0 0 0 0 0 0 0 0 0 45 45 28 163 158 56 
10 10 10 0 0 0 0 0 0 0 0 0 0 0 0 
155 148 21 207 198 30 215 205 24 255 242 0 245 232 2 
204 195 25 106 102 39 11 11 11 0 0 0 0 0 0 
0 0 0 0 0 0 0 0 0 0 0 0 0 0 0 
0 0 0 0 0 0 0 0 0 0 0 0 16 16 16 
212 203 25 255 242 0 153 146 20 0 0 0 0 0 0 
0 0 0 0 0 0 0 0 0 221 210 3 255 242 0 
255 242 0 213 203 15 34 33 27 0 0 0 0 0 0 
0 0 0 0 0 0 19 19 19 213 204 27 255 242 0 
255 242 0 255 242 0 255 242 0 86 84 35 0 0 0 
0 0 0 0 0 0 0 0 0 0 0 0 0 0 0 
31 30 6 255 242 0 255 242 0 255 242 0 186 178 29 
3 3 3 0 0 0 0 0 0 0 0 0 0 0 0 
0 0 0 59 59 45 218 208 18 110 107 46 0 0 0 
0 0 0 0 0 0 149 143 29 255 242 0 186 179 35 
8 8 8 0 0 0 0 0 0 0 0 0 0 0 0 
0 0 0 39 38 22 241 229 4 255 242 0 249 236 2 
95 92 42 0 0 0 0 0 0 0 0 0 94 91 32 
255 242 0 255 242 0 255 242 0 148 142 40 0 0 0 
0 0 0 0 0 0 0 0 0 56 55 35 245 233 1 
255 242 0 255 242 0 243 231 4 44 44 31 0 0 0 
0 0 0 0 0 0 0 0 0 0 0 0 0 0 0 
91 89 46 217 207 20 95 93 55 0 0 0 0 0 0 
0 0 0 0 0 0 0 0 0 0 0 0 0 0 0 
14 13 13 193 185 31 255 242 0 255 242 0 252 239 1 
103 99 42 0 0 0 0 0 0 0 0 0 0 0 0 
0 0 0 0 0 0 0 0 0 0 0 0 0 0 0 
1 1 1 48 48 40 172 164 35 254 241 0 255 242 0 
204 195 21 32 32 28 1 1 1 0 0 0 0 0 0 
0 0 0 190 181 7 255 242 0 246 233 4 61 60 34 
0 0 0 0 0 0 0 0 0 1 1 1 13 13 12 
113 109 32 253 240 0 255 242 0 255 242 0 255 242 0 
255 242 0 111 108 53 2 2 2 0 0 0 0 0 0 
0 0 0 0 0 0 0 0 0 39 39 33 239 227 7 
255 242 0 255 242 0 242 230 12 57 56 33 0 0 0 
0 0 0 0 0 0 8 8 8 82 80 43 219 209 24 
137 132 51 9 9 9 0 0 0 0 0 0 15 15 15 
209 199 24 255 242 0 248 236 3 82 80 44 0 0 0 
0 0 0 0 0 0 0 0 0 14 14 13 169 162 30 
255 242 0 249 236 2 134 130 58 6 6 6 0 0 0 
0 0 0 6 6 6 188 180 35 255 242 0 255 242 0 
255 242 0 62 60 31 0 0 0 0 0 0 0 0 0 
0 0 0 4 4 4 179 172 40 255 242 0 255 242 0 
255 242 0 170 163 40 15 15 15 0 0 0 0 0 0 
1 1 1 33 33 22 155 149 39 210 200 16 91 89 51 
1 1 1 0 0 0 0 0 0 0 0 0 0 0 0 
0 0 0 0 0 0 0 0 0 0 0 0 138 133 29 
255 242 0 255 242 0 255 242 0 185 178 44 0 0 0 
7 7 7 0 0 0 0 0 0 0 0 0 0 0 0 
0 0 0 7 7 7 166 160 45 195 186 25 237 225 5 
255 242 0 255 242 0 255 242 0 255 242 0 244 232 6 
195 187 34 44 44 35 0 0 0 0 0 0 197 188 14 
252 239 0 139 134 47 1 1 1 0 0 0 6 6 6 
171 166 63 177 169 26 236 226 23 255 242 0 255 242 0 
255 242 0 255 242 0 255 242 0 255 242 0 239 227 5 
193 185 33 108 105 49 0 0 0 0 0 0 0 0 0 
0 0 0 0 0 0 96 93 35 244 232 3 255 242 0 
255 242 0 241 229 12 169 162 33 96 92 12 140 134 28 
189 181 27 220 209 18 89 86 32 9 9 9 0 0 0 
0 0 0 0 0 0 63 61 39 253 240 0 215 205 13 
254 241 0 242 230 13 106 103 42 65 64 40 69 68 44 
86 83 34 187 179 22 255 242 0 221 211 20 75 73 39 
7 7 7 0 0 0 37 37 23 108 104 30 155 149 36 
247 234 0 255 242 0 255 242 0 255 242 0 172 165 26 
100 97 39 16 16 16 0 0 0 0 0 0 0 0 0 
32 32 28 196 188 33 253 241 0 255 242 0 255 242 0 
207 197 20 180 173 38 176 169 34 190 182 31 235 224 11 
181 174 45 44 44 32 0 0 0 0 0 0 36 36 28 
105 101 28 97 94 31 16 16 16 0 0 0 0 0 0 
0 0 0 1 1 1 194 186 34 255 242 0 255 242 0 
255 242 0 123 118 29 48 48 48 38 38 38 0 0 0 
0 0 0 0 0 0 0 0 0 0 0 0 28 27 18 
146 138 1 150 142 0 150 142 0 150 142 0 150 142 0 
150 142 0 150 142 0 150 142 0 141 135 14 7 7 7 
0 0 0 0 0 0 53 52 29 60 59 31 11 11 11 
0 0 0 0 0 0 21 21 21 142 135 1 150 142 0 
150 142 0 150 142 0 150 142 0 150 142 0 150 142 0 
150 142 0 150 142 0 150 142 0 150 142 0 56 54 22 
0 0 0 0 0 0 0 0 0 0 0 0 0 0 0 
4 4 4 79 78 45 160 153 24 224 214 25 220 210 12 
217 206 8 232 222 24 185 177 34 104 101 33 31 30 27 
0 0 0 0 0 0 0 0 0 0 0 0 0 0 0 
65 62 15 99 95 18 30 30 30 89 86 29 172 165 33 
229 219 27 219 208 11 223 212 15 228 219 33 174 167 29 
89 86 34 11 11 9 0 0 0 0 0 0 3 3 3 
109 104 21 150 142 0 150 142 0 150 142 0 150 142 0 
150 142 0 150 142 0 150 142 0 139 132 6 13 13 13 
0 0 0 0 0 0 0 0 0 0 0 0 21 21 21 
87 84 28 190 182 34 233 223 25 218 208 10 226 215 18 
209 199 26 152 146 33 57 55 26 9 9 9 0 0 0 
0 0 0 49 47 21 233 222 12 255 242 0 254 241 0 
68 66 28 0 0 0 0 0 0 0 0 0 41 41 29 
238 226 3 255 242 0 255 242 0 239 228 7 47 46 30 
14 14 14 0 0 0 0 0 0 0 0 0 0 0 0 
0 0 0 0 0 0 0 0 0 0 0 0 0 0 0 
0 0 0 0 0 0 0 0 0 0 0 0 0 0 0 
0 0 0 0 0 0 0 0 0 0 0 0 0 0 0 
0 0 0 0 0 0 0 0 0 0 0 0 0 0 0 
0 0 0 0 0 0 0 0 0 0 0 0 0 0 0 
0 0 0 0 0 0 0 0 0 0 0 0 0 0 0 
0 0 0 0 0 0 0 0 0 0 0 0 0 0 0 
0 0 0 0 0 0 0 0 0 0 0 0 0 0 0 
0 0 0 6 6 6 3 3 3 2 2 2 6 6 6 
3 3 3 0 0 0 0 0 0 0 0 0 0 0 0 
0 0 0 0 0 0 0 0 0 0 0 0 0 0 0 
0 0 0 0 0 0 1 1 1 7 7 7 3 3 3 
4 4 4 9 9 9 0 0 0 0 0 0 0 0 0 
0 0 0 0 0 0 0 0 0 0 0 0 0 0 0 
0 0 0 0 0 0 0 0 0 0 0 0 0 0 0 
0 0 0 0 0 0 0 0 0 0 0 0 0 0 0 
0 0 0 0 0 0 0 0 0 0 0 0 3 3 3 
6 6 6 2 2 2 4 4 4 5 5 5 0 0 0 
0 0 0 0 0 0 0 0 0 0 0 0 176 170 41 
255 242 0 255 242 0 248 235 4 45 45 33 0 0 0 
0 0 0 11 11 11 161 155 40 255 242 0 255 242 0 
251 239 1 127 122 44 1 1 1 0 0 0 0 0 0 
0 0 0 0 0 0 0 0 0 0 0 0 0 0 0 
0 0 0 0 0 0 0 0 0 0 0 0 0 0 0 
0 0 0 0 0 0 0 0 0 0 0 0 0 0 0 
0 0 0 0 0 0 0 0 0 0 0 0 0 0 0 
0 0 0 0 0 0 0 0 0 0 0 0 0 0 0 
0 0 0 0 0 0 0 0 0 0 0 0 0 0 0 
0 0 0 0 0 0 0 0 0 0 0 0 0 0 0 
0 0 0 0 0 0 0 0 0 0 0 0 0 0 0 
0 0 0 0 0 0 0 0 0 0 0 0 0 0 0 
0 0 0 0 0 0 0 0 0 0 0 0 0 0 0 
0 0 0 0 0 0 0 0 0 0 0 0 0 0 0 
0 0 0 0 0 0 0 0 0 0 0 0 0 0 0 
0 0 0 0 0 0 0 0 0 0 0 0 0 0 0 
0 0 0 0 0 0 0 0 0 0 0 0 0 0 0 
0 0 0 0 0 0 0 0 0 0 0 0 0 0 0 
0 0 0 0 0 0 0 0 0 0 0 0 0 0 0 
0 0 0 0 0 0 0 0 0 0 0 0 0 0 0 
0 0 0 0 0 0 0 0 0 0 0 0 0 0 0 
0 0 0 0 0 0 0 0 0 0 0 0 0 0 0 
0 0 0 0 0 0 199 190 38 255 242 0 255 242 0 
153 148 44 0 0 0 0 0 0 15 15 15 151 146 58 
252 240 1 255 242 0 241 229 9 131 126 48 9 9 9 
0 0 0 0 0 0 0 0 0 0 0 0 0 0 0 
0 0 0 0 0 0 0 0 0 0 0 0 0 0 0 
0 0 0 0 0 0 0 0 0 0 0 0 0 0 0 
0 0 0 0 0 0 0 0 0 0 0 0 0 0 0 
0 0 0 0 0 0 0 0 0 0 0 0 0 0 0 
0 0 0 0 0 0 0 0 0 0 0 0 0 0 0 
0 0 0 0 0 0 0 0 0 0 0 0 0 0 0 
0 0 0 0 0 0 0 0 0 0 0 0 0 0 0 
0 0 0 0 0 0 0 0 0 0 0 0 0 0 0 
0 0 0 0 0 0 0 0 0 0 0 0 0 0 0 
0 0 0 0 0 0 0 0 0 0 0 0 0 0 0 
0 0 0 0 0 0 0 0 0 0 0 0 0 0 0 
0 0 0 0 0 0 0 0 0 0 0 0 0 0 0 
0 0 0 0 0 0 0 0 0 0 0 0 0 0 0 
0 0 0 0 0 0 0 0 0 0 0 0 0 0 0 
0 0 0 0 0 0 0 0 0 0 0 0 0 0 0 
0 0 0 0 0 0 0 0 0 0 0 0 0 0 0 
0 0 0 0 0 0 0 0 0 0 0 0 0 0 0 
0 0 0 0 0 0 0 0 0 0 0 0 0 0 0 
0 0 0 0 0 0 0 0 0 0 0 0 0 0 0 
67 65 37 219 208 11 244 231 0 105 101 33 80 77 27 
114 110 36 210 201 37 251 238 0 234 222 4 186 178 47 
59 58 35 1 1 1 0 0 0 0 0 0 0 0 0 
0 0 0 0 0 0 0 0 0 0 0 0 0 0 0 
0 0 0 0 0 0 0 0 0 0 0 0 0 0 0 
0 0 0 0 0 0 0 0 0 0 0 0 0 0 0 
0 0 0 0 0 0 0 0 0 0 0 0 0 0 0 
0 0 0 0 0 0 0 0 0 0 0 0 0 0 0 
0 0 0 0 0 0 0 0 0 0 0 0 0 0 0 
0 0 0 0 0 0 0 0 0 0 0 0 0 0 0 
0 0 0 0 0 0 0 0 0 0 0 0 0 0 0 
0 0 0 0 0 0 0 0 0 0 0 0 0 0 0 
0 0 0 0 0 0 0 0 0 0 0 0 0 0 0 
0 0 0 0 0 0 0 0 0 0 0 0 0 0 0 
0 0 0 0 0 0 0 0 0 0 0 0 0 0 0 
0 0 0 0 0 0 0 0 0 0 0 0 0 0 0 
0 0 0 0 0 0 0 0 0 0 0 0 0 0 0 
0 0 0 0 0 0 0 0 0 0 0 0 0 0 0 
0 0 0 0 0 0 0 0 0 0 0 0 0 0 0 
0 0 0 0 0 0 0 0 0 0 0 0 0 0 0 
0 0 0 0 0 0 0 0 0 0 0 0 0 0 0 
0 0 0 0 0 0 0 0 0 0 0 0 0 0 0 
0 0 0 0 0 0 0 0 0 0 0 0 26 26 24 
120 116 39 140 134 17 171 163 1 137 131 9 153 148 35 
89 86 33 32 32 29 2 2 2 0 0 0 0 0 0 
0 0 0 0 0 0 0 0 0 0 0 0 0 0 0 
0 0 0 0 0 0 0 0 0 0 0 0 0 0 0 
0 0 0 0 0 0 0 0 0 0 0 0 0 0 0 
0 0 0 0 0 0 0 0 0 0 0 0 0 0 0 
0 0 0 0 0 0 0 0 0 0 0 0 0 0 0 
0 0 0 0 0 0 0 0 0 0 0 0 0 0 0 
0 0 0 0 0 0 0 0 0 0 0 0 0 0 0 
0 0 0 0 0 0 0 0 0 0 0 0 0 0 0 
0 0 0 0 0 0 0 0 0 0 0 0 0 0 0 
0 0 0 0 0 0 0 0 0 0 0 0 0 0 0 
0 0 0 0 0 0 0 0 0 0 0 0 0 0 0 
0 0 0 0 0 0 0 0 0 0 0 0 0 0 0 
0 0 0 0 0 0 0 0 0 0 0 0 0 0 0 
0 0 0 0 0 0 0 0 0 0 0 0 0 0 0 
0 0 0 0 0 0 0 0 0 0 0 0 0 0 0 
0 0 0 0 0 0 0 0 0 0 0 0 0 0 0 
0 0 0 0 0 0 0 0 0 0 0 0 0 0 0 
0 0 0 0 0 0 0 0 0 0 0 0 0 0 0 
0 0 0 0 0 0 0 0 0 0 0 0 0 0 0 
0 0 0 0 0 0 0 0 0 0 0 0 0 0 0 
0 0 0 0 0 0 0 0 0 0 0 0 0 0 0 
0 0 0 0 0 0 0 0 0 0 0 0 0 0 0 
0 0 0 0 0 0 0 0 0 0 0 0 0 0 0 
0 0 0 0 0 0 0 0 0 0 0 0 0 0 0 
0 0 0 0 0 0 0 0 0 0 0 0 0 0 0 
0 0 0 0 0 0 0 0 0 0 0 0 0 0 0 
0 0 0 0 0 0 0 0 0 0 0 0 0 0 0 
0 0 0 0 0 0 0 0 0 0 0 0 0 0 0 
0 0 0 0 0 0 0 0 0 0 0 0 0 0 0 
0 0 0 0 0 0 0 0 0 0 0 0 0 0 0 
0 0 0 0 0 0 0 0 0 0 0 0 0 0 0 
0 0 0 0 0 0 0 0 0 0 0 0 0 0 0 
0 0 0 0 0 0 0 0 0 0 0 0 0 0 0 
0 0 0 0 0 0 0 0 0 0 0 0 0 0 0 
0 0 0 0 0 0 0 0 0 0 0 0 0 0 0 
0 0 0 0 0 0 0 0 0 0 0 0 0 0 0 
0 0 0 0 0 0 0 0 0 0 0 0 0 0 0 
0 0 0 0 0 0 0 0 0 0 0 0 0 0 0 
0 0 0 0 0 0 0 0 0 0 0 0 0 0 0 
0 0 0 0 0 0 0 0 0 0 0 0 0 0 0 
0 0 0 0 0 0 0 0 0 0 0 0 0 0 0 
0 0 0 0 0 0 0 0 0 0 0 0 0 0 0 
0 0 0 0 0 0 0 0 0 0 0 0 0 0 0 
0 0 0 0 0 0 0 0 0 0 0 0 0 0 0 
0 0 0 0 0 0 0 0 0 0 0 0 0 0 0 
0 0 0 0 0 0 0 0 0 0 0 0 0 0 0 
0 0 0 0 0 0 0 0 0 0 0 0 0 0 0 
