P3
# Created by IrfanView
80 30
255
0 0 0 0 0 0 0 0 0 0 0 0 0 0 0 
0 0 0 0 0 0 0 0 0 0 0 0 0 0 0 
0 0 0 0 0 0 0 0 0 0 0 0 0 0 0 
0 0 0 0 0 0 0 0 2 0 0 1 2 0 1 
3 1 1 3 0 3 2 0 2 0 0 1 0 0 0 
0 0 0 0 0 0 0 0 0 0 0 0 0 0 0 
0 0 0 0 0 0 0 0 0 0 0 0 0 0 0 
0 0 0 0 0 0 0 0 0 0 0 0 0 0 0 
0 0 0 0 0 0 0 0 0 0 0 0 0 0 0 
0 0 0 0 0 0 0 0 0 0 0 0 0 0 0 
0 0 0 0 0 0 0 0 0 0 0 0 0 0 0 
0 0 0 0 0 0 0 0 0 0 0 0 0 0 0 
0 0 0 0 0 0 0 0 0 0 0 0 0 0 0 
0 0 0 0 0 0 0 0 0 0 0 0 0 0 0 
0 0 0 0 0 0 0 0 0 0 0 0 0 0 0 
0 0 0 0 0 0 0 0 0 0 0 0 0 0 0 
0 0 0 0 0 0 0 0 0 0 0 0 0 0 0 
0 0 0 0 0 0 0 0 0 0 0 0 0 0 0 
0 0 0 0 0 0 0 0 0 0 0 0 0 0 0 
0 0 0 0 0 0 1 1 2 1 1 3 1 2 6 
1 3 8 0 2 7 0 1 6 0 0 2 0 0 1 
0 0 0 0 0 0 0 0 0 0 0 0 0 0 0 
0 0 0 0 0 0 0 0 0 0 0 0 0 0 0 
0 0 0 0 0 0 0 0 0 0 0 0 0 0 0 
0 0 0 0 0 0 0 0 0 0 0 0 0 0 0 
0 0 0 0 0 0 0 0 0 0 0 0 0 0 0 
0 0 0 0 0 0 0 0 0 0 0 0 0 0 0 
0 0 0 0 0 0 0 0 0 0 0 0 0 0 0 
0 0 0 0 0 0 0 0 0 0 0 0 0 0 0 
0 0 0 0 0 0 0 0 0 0 0 0 0 0 0 
0 0 0 0 0 0 0 0 0 0 0 0 0 0 0 
0 0 0 0 0 0 0 0 0 0 0 0 0 0 0 
0 0 0 0 0 0 0 0 0 0 0 0 0 0 0 
0 0 0 0 0 0 0 0 0 0 0 0 0 0 0 
0 0 0 0 0 0 0 0 0 0 0 0 0 0 0 
0 0 0 0 0 0 2 3 5 5 4 6 10 6 8 
9 3 6 28 22 23 18 15 19 0 1 1 0 1 0 
0 0 0 0 0 0 0 0 0 0 0 0 0 0 0 
0 0 0 0 0 0 0 0 0 0 0 0 0 0 0 
0 0 0 0 0 0 0 0 0 0 0 0 0 0 0 
0 0 0 0 0 0 0 0 0 0 0 0 0 0 0 
0 0 0 0 0 0 0 0 0 0 0 0 0 0 0 
0 0 0 0 0 0 0 0 0 0 0 0 0 0 0 
0 0 0 0 0 0 0 0 0 0 0 0 0 0 0 
0 0 0 0 0 0 0 0 0 0 0 0 0 0 0 
0 0 0 0 0 0 0 0 0 0 0 0 0 0 0 
0 0 0 0 0 0 0 0 0 0 0 0 0 0 0 
0 0 0 0 0 0 0 0 0 0 0 0 0 0 0 
0 0 0 0 0 0 0 0 0 0 0 0 0 0 0 
0 0 0 0 0 0 0 0 0 0 0 0 0 0 0 
0 0 0 2 0 0 3 1 3 0 3 2 2 4 2 
10 14 6 73 74 33 121 119 32 177 174 44 204 199 38 
230 229 19 236 236 28 116 114 59 0 1 7 0 0 3 
0 0 0 0 0 0 0 0 0 0 0 0 0 0 0 
0 0 0 0 0 0 0 0 0 0 0 0 0 0 0 
0 0 0 0 0 0 0 0 0 0 0 0 0 0 0 
0 0 0 0 0 0 0 0 0 0 0 0 0 0 0 
0 0 0 0 0 0 0 0 0 0 0 0 0 0 0 
0 0 0 0 0 0 0 0 0 0 0 0 0 0 0 
0 0 0 0 0 0 0 0 0 0 0 0 0 0 0 
0 0 0 0 0 0 0 0 0 0 0 0 0 0 0 
0 0 0 0 0 0 0 0 0 0 0 0 0 0 0 
0 0 0 0 0 0 0 0 0 0 0 0 0 0 0 
0 0 0 0 0 0 0 0 0 0 0 0 0 0 0 
0 0 0 0 0 0 0 0 0 0 0 0 0 0 0 
0 0 0 0 0 0 0 0 0 0 0 0 0 0 0 
0 0 2 1 2 0 7 4 12 62 58 33 152 151 48 
229 223 39 251 238 13 250 241 10 250 241 20 254 241 7 
255 238 8 248 241 12 70 66 30 0 0 4 0 0 0 
0 0 0 0 0 0 0 0 0 0 0 0 0 0 0 
0 0 0 0 0 0 0 0 0 0 0 0 0 0 0 
0 0 0 0 0 0 0 0 0 0 0 0 0 0 0 
0 0 0 0 0 0 0 0 0 0 0 0 0 0 0 
0 0 0 0 0 0 0 0 0 0 0 0 0 0 0 
0 0 0 0 0 0 0 0 0 0 0 0 0 0 0 
0 0 0 0 0 0 0 0 0 0 0 0 0 0 0 
0 0 0 0 0 0 0 0 0 0 0 0 0 0 0 
0 0 0 0 0 0 0 0 0 0 0 0 0 0 0 
0 0 0 0 0 0 0 0 0 0 0 0 0 0 0 
0 0 0 0 0 0 0 0 0 0 0 0 0 0 0 
0 0 0 0 0 0 0 0 0 0 0 0 0 0 0 
0 0 0 0 0 0 0 0 0 0 0 0 0 0 0 
3 3 8 22 23 10 151 148 47 243 237 24 251 240 6 
251 239 15 211 211 39 133 137 40 84 81 32 227 228 34 
252 242 4 241 235 38 26 25 12 1 0 5 1 0 0 
0 0 0 0 0 0 0 0 0 0 0 0 0 0 0 
0 0 0 0 0 0 0 0 0 0 0 0 0 0 0 
0 0 0 0 0 0 0 0 0 0 0 0 0 0 0 
0 0 0 0 0 0 0 0 0 0 0 0 0 0 0 
0 0 0 0 0 0 0 0 0 0 0 0 0 0 0 
0 0 0 0 0 0 0 0 0 0 0 0 0 0 0 
0 0 0 0 0 0 0 0 0 0 0 0 0 0 0 
0 0 0 0 0 0 0 0 0 0 0 0 0 0 0 
0 0 0 0 0 0 0 0 0 0 0 0 0 0 0 
0 0 0 0 0 0 0 0 0 0 0 0 0 0 0 
0 0 0 0 0 0 0 0 0 0 0 0 0 0 0 
0 0 0 0 0 0 0 0 0 0 0 0 0 0 0 
0 0 0 0 0 0 0 0 0 0 0 1 0 0 0 
31 34 17 214 210 54 252 240 7 248 241 9 225 217 41 
92 89 35 10 10 9 4 4 6 5 5 4 162 158 41 
251 239 6 214 208 44 4 4 4 2 1 5 2 0 0 
0 0 0 0 0 0 0 0 0 0 0 0 0 0 0 
0 0 0 0 0 0 0 0 0 0 0 0 0 0 0 
0 0 0 0 0 1 0 0 1 0 0 1 0 0 0 
0 0 0 0 0 0 0 0 0 0 0 0 0 0 0 
0 0 0 0 0 0 0 0 0 0 0 0 0 0 0 
0 0 0 0 0 0 0 0 0 0 0 0 0 0 0 
0 0 0 0 0 1 0 0 0 0 0 0 0 0 0 
0 0 1 0 0 2 0 0 1 0 0 0 0 0 0 
0 0 1 0 0 0 0 0 0 0 0 0 0 0 0 
0 0 0 0 0 0 0 0 0 0 0 0 0 0 0 
0 0 1 0 0 0 0 0 0 0 0 0 0 0 0 
0 0 0 0 0 0 0 0 0 0 0 0 0 0 0 
0 0 0 1 0 0 3 0 3 1 4 2 27 25 21 
216 210 45 255 241 10 249 241 8 198 196 54 25 25 16 
3 3 3 0 0 3 0 0 6 1 1 4 89 89 27 
252 239 10 164 161 36 2 4 4 3 0 2 0 0 2 
0 0 1 1 0 1 1 0 1 0 0 1 1 0 1 
1 0 1 0 0 1 0 0 1 1 0 1 0 0 2 
1 0 3 1 0 4 0 0 3 2 0 4 1 0 1 
1 0 1 2 1 2 1 0 7 0 1 2 1 0 4 
0 0 2 0 0 0 0 0 0 0 1 0 0 1 3 
0 1 7 0 1 2 0 0 1 1 0 1 0 0 1 
0 1 1 0 2 1 0 1 2 0 1 5 0 1 3 
0 0 2 2 0 6 2 0 7 0 2 1 0 1 5 
0 2 3 1 0 1 0 0 1 0 0 1 1 0 1 
0 0 1 0 0 1 1 0 2 0 1 1 0 1 1 
0 0 5 0 0 0 0 0 0 0 0 0 0 0 0 
0 0 0 0 0 0 0 0 0 0 0 0 0 0 0 
0 0 0 0 0 0 0 1 9 3 4 4 155 145 59 
252 243 8 254 241 4 225 220 50 23 23 14 3 3 3 
2 2 2 0 0 1 0 1 2 2 0 8 32 31 24 
240 239 31 122 112 39 2 4 7 2 2 7 2 1 0 
2 1 0 2 1 1 2 1 1 2 1 0 2 1 1 
2 1 1 2 1 0 2 1 0 2 1 1 2 1 1 
2 2 6 0 1 4 1 0 0 1 2 4 2 1 2 
2 0 4 1 1 4 2 1 1 4 1 1 1 1 3 
0 0 0 0 0 0 0 0 0 1 0 4 0 1 1 
0 1 4 6 1 11 2 1 1 2 1 1 2 1 0 
2 0 2 1 1 2 1 3 3 0 2 5 1 2 3 
1 1 2 0 0 3 1 2 6 2 2 3 3 1 4 
1 1 5 2 1 1 2 1 0 2 1 0 2 1 1 
2 1 0 2 1 0 2 1 1 2 1 3 3 1 1 
3 2 3 0 1 3 0 0 0 0 0 0 0 0 0 
0 0 0 0 0 0 0 0 0 0 0 0 0 0 0 
0 0 0 0 0 0 0 2 1 22 19 15 234 230 28 
254 238 8 254 240 8 155 149 20 4 4 8 0 0 3 
0 0 0 0 0 0 0 2 1 2 0 4 3 9 3 
171 175 93 71 71 39 4 6 11 70 71 36 164 154 31 
163 155 25 164 155 25 164 155 25 163 155 25 164 155 25 
164 155 25 163 155 25 163 155 25 164 155 25 163 155 28 
94 86 35 1 1 4 1 1 0 30 35 26 148 146 67 
162 155 27 161 157 22 162 155 28 159 155 32 100 102 56 
0 0 0 0 0 0 0 0 0 2 0 2 0 1 1 
12 14 9 156 160 49 163 156 24 164 155 25 163 155 25 
162 156 25 157 155 27 129 127 33 80 77 30 15 15 13 
4 3 17 0 3 0 3 6 11 60 53 40 163 154 35 
164 155 28 163 155 25 163 155 25 163 155 25 164 155 25 
163 155 25 163 155 25 163 155 25 163 155 26 165 157 21 
105 105 37 1 2 2 0 0 0 0 0 0 0 0 0 
0 0 0 0 0 0 0 0 0 0 0 0 0 0 0 
0 0 0 0 0 3 1 3 7 78 79 24 251 241 13 
253 241 4 254 241 3 212 206 38 13 10 10 1 3 4 
1 1 3 0 0 1 0 0 4 1 0 3 0 3 3 
4 2 12 4 4 5 3 5 10 178 177 36 252 239 9 
251 238 14 227 219 19 244 230 7 255 240 4 253 241 1 
250 243 4 232 225 19 225 213 15 252 240 12 252 241 5 
125 114 37 2 3 3 0 1 4 5 3 15 71 67 30 
214 204 43 252 240 9 237 229 19 121 115 36 18 15 12 
0 0 1 0 0 0 0 0 0 1 0 0 0 0 2 
1 1 10 57 54 29 214 203 37 252 239 4 245 231 23 
251 239 16 252 239 6 253 240 4 249 241 14 229 230 47 
98 94 31 3 1 11 1 7 4 156 145 50 253 241 6 
250 240 13 228 222 18 239 228 12 254 242 3 254 238 9 
252 240 6 235 226 19 221 214 12 252 237 7 253 239 11 
145 143 38 4 1 3 0 0 0 0 0 0 0 0 0 
0 0 0 0 0 0 0 0 0 0 0 0 0 0 0 
0 0 0 0 0 1 2 1 7 81 80 18 253 242 5 
253 241 5 255 240 5 246 240 10 171 168 41 35 31 22 
1 5 8 0 3 1 1 0 1 0 0 0 0 0 0 
2 0 4 2 2 4 53 50 36 246 240 28 224 230 34 
89 86 35 20 17 14 225 216 41 255 241 4 251 242 6 
226 223 47 22 15 10 15 11 10 218 217 41 248 238 21 
53 46 18 4 6 6 0 1 5 3 6 2 15 13 8 
191 185 48 251 240 3 182 174 27 4 2 1 1 0 4 
0 0 0 0 0 0 0 0 0 0 0 1 0 0 2 
0 0 2 0 0 2 90 89 58 247 242 13 124 117 44 
59 57 23 175 169 47 249 241 19 254 243 0 252 242 2 
239 234 34 44 39 17 39 38 19 238 228 41 237 236 24 
109 101 39 21 12 9 206 199 38 253 241 8 251 240 7 
231 231 38 38 32 23 7 5 12 201 199 40 250 242 11 
72 73 33 1 3 5 0 0 0 0 0 0 0 0 0 
0 0 0 0 0 0 0 0 0 0 0 0 0 0 0 
0 0 0 0 0 1 3 0 4 50 47 30 241 242 25 
254 241 4 254 241 3 254 241 2 253 241 8 219 215 38 
76 74 32 6 4 6 1 0 3 0 0 0 0 0 0 
2 2 1 4 6 8 150 149 37 233 232 39 64 68 25 
3 4 4 53 51 27 248 236 30 255 241 2 250 242 6 
129 128 37 6 2 13 1 2 7 153 149 43 227 216 42 
13 10 9 2 2 7 0 0 3 2 3 14 141 138 44 
249 243 7 254 240 1 224 213 59 3 2 1 1 1 5 
0 0 1 0 0 0 0 0 0 0 0 2 0 0 3 
2 2 1 3 4 1 165 168 37 251 240 14 65 60 20 
1 4 8 2 2 2 113 108 34 249 239 22 254 241 5 
252 240 7 96 88 23 127 118 40 241 238 24 84 87 31 
1 3 8 26 25 16 244 242 28 255 240 9 252 239 10 
157 150 34 2 1 18 1 3 6 128 127 33 247 237 40 
22 15 15 1 1 3 0 0 0 0 0 0 0 0 0 
0 0 0 0 0 0 0 0 0 0 0 0 0 0 0 
0 0 0 0 0 1 1 1 2 4 4 8 155 159 47 
252 240 11 253 243 0 253 242 3 253 243 2 250 241 6 
246 237 19 156 156 57 14 16 11 0 0 1 0 0 1 
1 2 2 20 19 22 219 224 62 75 71 35 1 2 13 
5 3 3 111 108 43 252 240 12 255 241 4 242 232 27 
43 41 25 0 4 4 0 1 8 75 76 45 146 152 82 
3 4 6 2 2 6 1 1 4 80 77 34 248 240 19 
255 240 2 255 240 5 224 218 31 3 2 3 1 1 4 
0 0 0 0 0 0 0 0 0 0 0 3 0 0 3 
2 3 1 31 31 17 240 232 30 242 236 34 22 17 22 
8 1 2 2 1 3 10 6 9 214 207 43 251 243 3 
253 240 10 96 85 32 212 217 78 103 91 43 1 5 4 
2 3 0 84 80 37 251 241 10 254 240 4 246 242 16 
65 61 29 0 5 4 1 1 8 53 55 36 168 174 101 
5 6 13 2 1 1 0 0 0 0 0 0 0 0 0 
0 0 0 0 0 0 0 0 0 0 0 0 0 0 0 
0 0 0 0 0 0 0 0 1 1 1 8 15 17 7 
167 166 54 248 241 18 255 241 2 254 242 1 255 241 4 
253 242 2 250 242 11 203 201 66 40 39 24 1 2 8 
1 2 1 8 8 8 29 29 24 3 3 3 1 1 3 
0 5 2 170 163 38 250 242 6 253 239 8 165 164 38 
3 5 5 2 1 1 0 0 1 0 0 0 0 0 2 
0 2 1 4 1 12 37 38 19 220 217 40 252 239 8 
237 228 32 252 242 6 234 223 15 2 4 3 5 1 2 
0 1 0 0 0 0 0 0 0 0 0 7 0 2 3 
4 5 4 122 117 41 251 239 13 206 203 38 9 6 3 
5 6 4 6 6 6 140 140 48 249 237 23 249 240 8 
229 227 47 30 27 24 31 33 28 4 2 7 1 1 3 
0 1 1 141 140 39 254 239 8 253 243 4 192 190 43 
12 7 8 1 1 2 0 1 3 0 0 0 0 0 0 
0 0 0 0 0 0 0 0 0 0 0 0 0 0 0 
0 0 0 0 0 0 0 0 0 0 0 0 0 0 0 
0 0 0 0 0 1 0 0 3 1 2 1 3 3 4 
2 2 5 93 93 28 228 219 36 253 239 6 252 243 1 
253 243 2 253 243 1 252 244 4 190 183 52 7 3 4 
0 2 0 2 2 2 2 2 2 3 3 3 3 2 7 
3 4 2 228 222 37 251 242 2 247 242 18 75 70 34 
2 2 9 1 1 1 0 0 0 0 0 0 3 1 2 
4 2 8 8 8 11 191 187 45 252 239 3 226 225 49 
124 123 49 250 242 5 234 223 14 2 4 3 5 1 2 
0 1 0 0 0 0 0 0 0 0 0 1 0 2 1 
13 7 13 215 212 33 252 240 11 145 146 37 1 4 16 
30 33 28 167 166 40 249 240 11 249 239 8 239 235 31 
77 80 33 4 5 6 5 2 6 2 2 4 1 1 1 
2 2 0 195 200 39 253 240 5 251 243 8 100 93 38 
6 4 9 0 2 0 0 0 5 0 0 0 0 0 0 
0 0 0 0 0 0 0 0 0 0 0 0 0 0 0 
0 0 0 0 0 0 0 0 0 0 0 0 0 0 0 
0 0 0 0 0 0 0 1 0 0 0 1 0 0 3 
1 1 4 1 1 2 29 25 13 183 182 51 248 240 17 
251 243 1 254 240 7 255 237 11 245 240 21 25 19 11 
0 1 2 0 0 0 0 0 0 0 0 0 4 3 5 
59 56 32 249 241 12 255 240 6 201 197 39 9 7 4 
3 1 8 0 1 1 0 0 0 0 0 0 1 2 1 
7 6 9 134 132 40 247 240 11 243 240 33 58 50 31 
134 141 44 251 240 11 245 233 23 23 25 19 5 1 2 
0 1 0 0 0 0 0 0 0 0 0 2 0 0 7 
78 70 29 248 239 17 249 241 12 105 100 35 104 100 35 
224 220 39 251 240 15 247 241 13 197 190 46 68 64 30 
4 3 7 0 1 4 2 0 1 0 0 0 3 4 2 
38 37 19 237 234 27 250 242 7 219 216 36 13 13 16 
0 2 1 0 1 3 0 1 4 0 0 0 0 0 0 
0 0 0 0 0 0 0 0 0 0 0 0 0 0 0 
0 0 0 0 0 0 0 0 0 1 3 2 5 2 1 
4 4 6 2 3 6 0 1 0 0 0 2 0 0 0 
2 0 0 1 0 0 0 2 4 7 7 6 165 160 57 
250 243 4 254 241 2 253 238 11 244 241 18 27 19 9 
1 0 4 0 0 0 0 0 0 0 0 0 4 4 5 
125 120 38 253 241 7 251 240 15 115 106 39 4 2 5 
1 0 9 0 0 4 1 1 1 4 2 2 3 5 3 
79 75 39 248 240 26 242 239 17 93 94 33 7 7 5 
173 168 39 252 241 3 249 239 18 36 34 17 2 1 0 
0 0 0 0 0 0 0 0 0 2 2 2 2 4 5 
173 164 35 253 240 5 248 241 15 230 228 48 251 242 6 
252 241 4 246 239 20 56 56 22 3 1 5 2 3 4 
4 1 3 0 1 1 0 0 3 1 0 4 5 6 6 
99 95 34 253 240 5 252 240 7 137 136 42 2 3 7 
0 2 1 0 0 3 0 1 1 0 0 0 0 0 0 
0 0 0 0 0 0 0 0 0 0 0 0 0 0 0 
0 0 0 0 0 0 0 0 0 1 4 7 9 5 6 
164 165 80 14 12 19 0 0 0 0 0 0 0 0 0 
0 0 0 0 0 0 0 0 0 0 2 0 18 17 19 
245 236 39 254 241 3 253 240 10 223 217 41 14 9 6 
0 1 0 0 0 0 0 0 0 0 0 0 3 5 7 
182 178 44 254 241 3 235 227 39 28 24 25 2 2 7 
0 0 1 1 1 0 0 0 11 4 6 2 36 35 27 
222 223 39 248 242 16 199 196 45 54 52 26 26 28 9 
220 212 36 251 240 4 251 240 15 41 36 12 0 1 0 
0 0 0 0 0 0 0 0 0 3 3 3 33 32 15 
242 232 41 253 241 4 224 219 28 192 190 46 255 238 7 
253 242 1 248 239 25 9 8 2 2 0 5 0 0 0 
0 0 0 0 0 0 0 0 1 1 0 4 4 6 4 
160 153 40 254 240 6 243 233 32 44 42 22 2 1 8 
0 0 0 0 0 0 0 0 0 0 0 0 0 0 0 
0 0 0 0 0 0 0 0 0 0 0 0 0 0 0 
0 0 0 0 0 0 0 0 0 2 2 7 33 34 16 
243 238 37 89 86 30 0 0 0 0 0 0 0 0 0 
0 0 0 0 0 0 3 3 3 3 3 4 60 56 28 
247 239 21 255 241 1 250 242 7 144 141 40 1 2 3 
0 1 5 0 0 0 0 0 0 0 0 0 14 15 8 
230 227 37 251 241 6 149 144 40 0 3 3 1 1 2 
0 1 1 2 0 5 0 3 3 15 13 12 185 183 44 
249 240 12 250 242 13 249 240 11 252 237 18 247 240 26 
253 240 11 248 245 3 249 239 15 40 35 12 0 1 0 
0 0 0 0 0 0 0 0 0 1 3 2 125 117 41 
250 241 9 254 242 2 185 180 40 91 93 33 251 240 10 
254 241 1 248 240 24 20 20 8 2 0 5 0 0 0 
0 0 0 0 0 0 0 0 1 1 1 1 3 6 2 
217 212 37 250 241 3 175 171 43 4 5 5 2 1 2 
0 0 0 0 0 0 0 0 0 0 0 0 0 0 0 
0 0 0 0 0 0 0 0 0 0 0 0 0 0 0 
0 0 0 0 0 0 0 0 0 2 2 5 53 55 23 
251 238 18 191 190 40 1 1 2 0 0 1 0 1 2 
0 1 0 0 0 3 2 2 3 52 51 24 223 219 49 
252 238 7 254 239 5 214 211 38 30 28 20 1 2 6 
5 0 0 0 0 0 0 0 2 0 0 2 62 57 24 
247 240 22 245 239 25 50 47 29 2 1 2 6 0 11 
1 2 0 0 2 2 1 2 8 136 132 46 247 242 15 
188 187 29 134 132 47 209 204 57 139 139 32 122 110 44 
254 241 6 252 241 10 250 241 18 57 52 24 0 1 3 
1 0 1 0 0 0 1 0 1 2 2 3 222 216 50 
252 242 3 253 241 5 134 122 28 20 21 16 238 232 36 
252 238 7 248 240 20 53 53 24 2 0 3 0 0 0 
0 0 0 0 0 0 2 0 1 1 1 3 33 35 22 
245 239 18 248 239 22 76 73 34 1 4 9 2 1 1 
0 0 0 0 0 0 0 0 0 0 0 0 0 0 0 
0 0 0 0 0 0 0 0 0 0 0 0 0 0 0 
0 0 0 0 0 0 0 0 0 0 4 2 65 58 17 
252 243 5 248 241 17 62 61 29 5 7 5 2 2 12 
7 6 5 29 27 18 133 133 32 240 236 25 254 240 6 
253 238 12 220 213 42 73 72 38 4 5 2 0 0 1 
1 0 4 2 1 3 0 1 5 1 0 3 117 116 34 
248 241 9 188 187 41 7 6 6 0 0 1 1 0 3 
2 0 11 2 4 12 80 73 34 240 237 21 214 208 34 
43 40 19 3 1 9 0 2 2 2 7 9 89 80 28 
251 242 8 253 241 6 251 240 17 80 79 29 1 1 7 
4 1 1 1 0 5 4 4 3 82 73 31 245 240 19 
254 243 4 252 242 8 76 77 32 7 3 8 154 151 43 
252 240 5 253 242 4 60 57 14 0 1 3 0 0 1 
0 0 0 0 1 1 1 0 8 0 2 7 92 93 32 
249 241 7 211 207 43 7 11 8 0 1 3 0 1 0 
0 0 0 0 0 0 0 0 0 0 0 0 0 0 0 
0 0 0 0 0 0 0 0 0 0 0 0 0 0 0 
0 0 0 0 0 0 0 0 0 1 3 6 100 93 35 
253 242 4 253 242 3 165 159 45 17 19 17 71 66 29 
167 150 45 237 228 28 250 240 7 252 235 12 247 242 19 
196 192 50 37 39 18 1 3 4 2 3 1 0 0 2 
0 0 5 2 2 9 0 3 4 1 3 3 191 188 49 
250 240 13 93 87 35 3 6 5 2 1 3 1 5 2 
2 4 2 33 31 17 228 220 33 235 230 38 63 62 39 
4 1 7 3 2 5 1 3 3 2 7 6 134 132 25 
252 240 14 254 241 2 253 241 6 94 88 21 2 1 5 
2 2 10 1 5 2 5 5 10 172 170 44 253 241 8 
252 240 9 246 241 25 19 22 14 2 7 3 69 68 37 
249 239 19 254 240 5 73 66 25 1 5 6 1 2 1 
2 2 6 2 2 6 0 2 4 3 1 6 167 163 47 
250 241 8 121 113 46 1 6 4 3 1 9 1 0 4 
0 0 0 0 0 0 0 0 0 0 0 0 0 0 0 
0 0 0 0 0 0 0 0 0 0 0 0 0 0 0 
0 0 0 0 0 0 0 0 0 0 3 1 111 106 28 
253 241 4 254 241 2 245 238 26 232 231 33 247 241 17 
253 242 7 254 240 12 247 240 26 191 190 39 91 87 43 
8 6 5 0 1 7 0 0 7 0 0 3 0 0 2 
1 2 2 4 7 5 44 43 26 145 145 36 243 238 18 
254 239 7 151 145 46 35 30 19 6 4 10 8 10 15 
88 84 41 209 207 51 247 241 14 174 168 38 15 15 14 
0 2 1 2 5 3 9 12 8 78 74 33 206 196 29 
255 240 10 254 242 2 255 241 0 169 161 36 28 27 19 
3 5 4 27 26 14 136 126 41 241 232 17 255 241 3 
253 240 7 236 228 32 48 45 22 9 6 14 64 59 25 
242 235 14 255 240 4 191 183 50 41 40 23 5 5 3 
4 3 7 5 6 3 38 36 19 137 129 40 238 230 20 
252 242 5 170 163 38 38 38 20 6 2 10 1 3 0 
0 0 0 0 0 0 0 0 0 0 0 0 0 0 0 
0 0 0 0 0 0 0 0 0 0 0 0 0 0 0 
0 0 0 0 0 0 0 0 0 1 3 3 125 122 34 
249 240 5 252 242 4 250 243 5 249 238 22 233 222 37 
184 183 37 124 124 35 53 49 29 2 1 6 1 1 3 
1 1 3 0 0 0 0 0 1 0 0 2 0 0 1 
3 2 3 163 159 96 240 234 51 248 239 30 249 238 28 
250 238 26 245 240 31 223 221 55 92 84 70 187 194 85 
241 238 41 249 238 26 249 237 28 246 238 30 207 202 77 
22 23 16 28 27 25 197 197 87 242 238 41 248 239 26 
250 238 28 249 239 28 251 237 25 246 240 29 180 182 83 
110 112 79 225 224 69 250 238 28 250 237 23 250 239 24 
249 237 30 249 239 27 230 226 57 122 118 87 226 231 72 
249 239 26 250 237 26 247 240 27 233 229 53 110 106 58 
2 5 5 140 141 84 232 230 56 246 239 30 249 237 29 
249 238 26 247 239 27 229 224 63 86 82 47 1 1 3 
0 0 0 0 0 0 0 0 0 0 0 0 0 0 0 
0 0 0 0 0 0 0 0 0 0 0 0 0 0 0 
0 0 0 0 0 0 0 0 0 1 2 8 105 103 65 
142 136 41 111 106 27 77 74 30 41 39 21 6 4 3 
5 4 10 2 2 8 0 0 3 0 1 0 0 0 0 
0 0 0 0 0 0 0 0 0 0 0 0 0 0 0 
1 1 5 5 6 8 11 5 1 7 4 6 6 5 3 
7 4 4 7 4 4 7 5 4 5 6 11 2 10 3 
6 4 6 8 4 3 7 4 4 7 4 4 7 3 4 
6 4 3 2 5 1 9 5 6 8 4 5 7 4 4 
7 4 4 6 4 7 7 6 1 10 6 3 4 9 6 
3 7 13 8 7 0 11 2 7 7 4 5 7 4 4 
7 4 4 7 4 4 7 8 3 4 6 6 4 10 0 
6 4 7 7 4 4 7 4 4 7 4 4 6 5 13 
4 3 2 7 4 6 8 5 4 7 4 4 7 4 4 
7 4 4 8 5 2 9 5 0 3 6 4 0 1 6 
0 0 0 0 0 0 0 0 0 0 0 0 0 0 0 
0 0 0 0 0 0 0 0 0 0 0 0 0 0 0 
0 0 0 0 0 0 0 0 0 0 2 2 0 2 2 
1 1 2 1 1 2 1 1 2 1 1 1 1 2 2 
0 1 3 0 2 1 0 1 0 0 0 4 0 0 0 
0 0 0 0 0 0 0 0 0 0 0 0 0 0 0 
0 0 1 3 0 2 3 0 1 1 1 1 1 2 1 
1 1 1 1 1 1 2 1 2 3 1 4 1 2 1 
0 1 4 1 1 4 1 1 1 1 1 1 1 1 1 
0 1 0 0 2 3 0 2 4 1 1 2 1 1 1 
1 1 1 0 2 1 0 3 1 2 1 7 2 1 7 
2 2 1 3 0 1 1 0 2 0 1 1 1 1 1 
1 1 1 1 1 1 0 2 4 5 0 5 2 0 8 
1 1 2 1 1 1 1 1 1 1 1 1 0 4 1 
3 0 6 0 2 4 0 3 2 1 1 1 1 1 1 
1 1 1 1 1 1 4 0 3 3 1 1 1 1 1 
0 0 0 0 0 0 0 0 0 0 0 0 0 0 0 
0 0 0 0 0 0 0 0 0 0 0 0 0 0 0 
0 0 0 0 0 0 0 0 0 0 0 2 0 0 5 
0 0 2 3 0 0 0 0 1 0 0 0 1 0 0 
0 0 1 0 0 5 0 0 7 0 0 1 0 0 0 
0 0 0 0 0 0 0 0 0 0 0 0 0 0 0 
0 0 0 0 1 2 0 2 1 1 0 2 0 0 3 
0 0 1 0 0 2 0 1 1 0 1 4 1 1 2 
0 0 7 0 1 1 0 0 1 0 0 2 0 1 1 
0 1 1 0 0 4 1 1 4 0 0 2 0 0 2 
0 0 2 1 0 1 2 0 15 0 2 1 1 1 3 
1 1 1 0 1 2 0 1 0 0 0 4 0 0 2 
0 0 2 0 0 1 2 0 6 0 4 3 1 1 11 
2 0 1 0 0 2 0 0 1 1 0 3 4 0 6 
0 2 7 0 3 3 0 0 6 0 0 2 0 0 1 
0 0 2 1 0 3 1 1 1 1 1 3 0 0 2 
0 0 0 0 0 0 0 0 0 0 0 0 0 0 0 
0 0 0 0 0 0 0 0 0 0 0 0 0 0 0 
0 0 0 0 0 0 0 0 0 0 0 0 0 0 0 
0 0 0 0 0 0 0 0 0 0 0 0 0 0 0 
0 0 0 0 0 0 0 0 0 0 0 0 0 0 0 
0 0 0 0 0 0 0 0 0 0 0 0 0 0 0 
0 0 0 0 0 0 0 0 0 0 0 0 0 0 0 
0 0 0 0 0 0 0 0 0 0 0 0 0 0 0 
0 0 0 0 0 0 0 0 0 0 0 0 0 0 0 
0 0 0 0 0 0 0 0 0 0 0 0 0 0 0 
0 0 0 0 0 0 0 0 0 0 0 0 0 0 0 
0 0 0 0 0 0 0 0 0 0 0 0 0 0 0 
0 0 0 0 0 0 0 0 0 0 0 0 0 0 0 
0 0 0 0 0 0 0 0 0 0 0 0 0 0 0 
0 0 0 0 0 0 0 0 0 0 0 0 0 0 0 
0 0 0 0 0 0 0 0 0 0 0 0 0 0 0 
0 0 0 0 0 0 0 0 0 0 0 0 0 0 0 
0 0 0 0 0 0 0 0 0 0 0 0 0 0 0 
0 0 0 0 0 0 0 0 0 0 0 0 0 0 0 
0 0 0 0 0 0 0 0 0 0 0 0 0 0 0 
0 0 0 0 0 0 0 0 0 0 0 0 0 0 0 
0 0 0 0 0 0 0 0 0 0 0 0 0 0 0 
0 0 0 0 0 0 0 0 0 0 0 0 0 0 0 
0 0 0 0 0 0 0 0 0 0 0 0 0 0 0 
0 0 0 0 0 0 0 0 0 0 0 0 0 0 0 
0 0 0 0 0 0 0 0 0 0 0 0 0 0 0 
0 0 0 0 0 0 0 0 0 0 0 0 0 0 0 
0 0 0 0 0 0 0 0 0 0 0 0 0 0 0 
0 0 0 0 0 0 0 0 0 0 0 0 0 0 0 
0 0 0 0 0 0 0 0 0 0 0 0 0 0 0 
0 0 0 0 0 0 0 0 0 0 0 0 0 0 0 
0 0 0 0 0 0 0 0 0 0 0 0 0 0 0 
0 0 0 0 0 0 0 0 0 0 0 0 0 0 0 
0 0 0 0 0 0 0 0 0 0 0 0 0 0 0 
