P3
# Created by IrfanView
80 30
255
0 0 0 0 0 0 0 0 0 0 0 0 0 0 0 
0 0 0 0 0 0 0 0 0 0 0 0 0 0 0 
0 0 0 0 0 0 0 0 0 0 0 0 0 0 0 
0 0 0 0 0 0 2 2 0 2 2 0 1 0 2 
3 1 3 4 1 3 0 1 2 1 0 1 1 0 1 
0 0 0 0 0 0 0 0 0 0 0 0 0 0 0 
0 0 0 0 0 0 0 0 0 0 0 0 0 0 0 
0 0 0 0 0 0 0 0 0 0 0 0 0 0 0 
0 0 0 0 0 0 0 0 0 0 0 0 0 0 0 
0 0 0 0 0 0 0 0 0 0 0 0 0 0 0 
0 0 0 0 0 0 0 0 0 0 0 0 0 0 0 
0 0 0 0 0 0 0 0 0 0 0 0 0 0 0 
0 0 0 0 0 0 0 0 0 0 0 0 0 0 0 
0 0 0 0 0 0 0 0 0 0 0 0 0 0 0 
0 0 0 0 0 0 0 0 0 0 0 0 0 0 0 
0 0 0 0 0 0 0 0 0 0 0 0 0 0 0 
0 0 0 0 0 0 0 0 0 0 0 0 0 0 0 
0 0 0 0 0 0 0 0 0 0 0 0 0 0 0 
0 0 0 0 0 0 0 0 0 0 0 0 0 0 0 
0 0 0 0 0 0 2 1 3 2 1 4 1 2 2 
2 3 2 1 2 7 1 2 4 2 0 1 1 0 0 
0 0 0 0 0 0 0 0 0 0 0 0 0 0 0 
0 0 0 0 0 0 0 0 0 0 0 0 0 0 0 
0 0 0 0 0 0 0 0 0 0 0 0 0 0 0 
0 0 0 0 0 0 0 0 0 0 0 0 0 0 0 
0 0 0 0 0 0 0 0 0 0 0 0 0 0 0 
0 0 0 0 0 0 0 0 0 0 0 0 0 0 0 
0 0 0 0 0 0 0 0 0 0 0 0 0 0 0 
0 0 0 0 0 0 0 0 0 0 0 0 0 0 0 
0 0 0 0 0 0 0 0 0 0 0 0 0 0 0 
0 0 0 0 0 0 0 0 0 0 0 0 0 0 0 
0 0 0 0 0 0 0 0 0 0 0 0 0 0 0 
0 0 0 0 0 0 0 0 0 0 0 0 0 0 0 
0 0 0 0 0 0 0 0 0 0 0 0 0 0 0 
0 0 0 0 0 0 0 0 0 0 0 0 0 0 0 
0 0 0 0 0 0 3 2 3 4 3 4 7 3 6 
8 4 9 24 24 28 17 13 16 2 0 1 0 0 0 
0 0 0 0 0 0 0 0 0 0 0 0 0 0 0 
0 0 0 0 0 0 0 0 0 0 0 0 0 0 0 
0 0 0 0 0 0 0 0 0 0 0 0 0 0 0 
0 0 0 0 0 0 0 0 0 0 0 0 0 0 0 
0 0 0 0 0 0 0 0 0 0 0 0 0 0 0 
0 0 0 0 0 0 0 0 0 0 0 0 0 0 0 
0 0 0 0 0 0 0 0 0 0 0 0 0 0 0 
0 0 0 0 0 0 0 0 0 0 0 0 0 0 0 
0 0 0 0 0 0 0 0 0 0 0 0 0 0 0 
0 0 0 0 0 0 0 0 0 0 0 0 0 0 0 
0 0 0 0 0 0 0 0 0 0 0 0 0 0 0 
0 0 0 0 0 0 0 0 0 0 0 0 0 0 0 
0 0 0 0 0 0 0 0 0 0 0 0 0 0 0 
0 0 2 2 0 0 3 1 4 3 1 1 0 3 5 
7 11 18 28 50 67 24 70 105 34 95 146 23 106 164 
4 105 176 15 113 185 44 74 99 0 1 3 0 0 0 
0 0 0 0 0 0 0 0 0 0 0 0 0 0 0 
0 0 0 0 0 0 0 0 0 0 0 0 0 0 0 
0 0 0 0 0 0 0 0 0 0 0 0 0 0 0 
0 0 0 0 0 0 0 0 0 0 0 0 0 0 0 
0 0 0 0 0 0 0 0 0 0 0 0 0 0 0 
0 0 0 0 0 0 0 0 0 0 0 0 0 0 0 
0 0 0 0 0 0 0 0 0 0 0 0 0 0 0 
0 0 0 0 0 0 0 0 0 0 0 0 0 0 0 
0 0 0 0 0 0 0 0 0 0 0 0 0 0 0 
0 0 0 0 0 0 0 0 0 0 0 0 0 0 0 
0 0 0 0 0 0 0 0 0 0 0 0 0 0 0 
0 0 0 0 0 0 0 0 0 0 0 0 0 0 0 
0 0 0 0 0 0 0 0 0 0 0 0 0 0 0 
5 0 0 0 3 7 5 2 4 33 50 63 35 86 120 
26 116 179 6 112 190 2 114 192 3 113 191 1 115 187 
0 113 191 5 112 189 26 49 66 0 1 1 0 0 0 
0 0 0 0 0 0 0 0 0 0 0 0 0 0 0 
0 0 0 0 0 0 0 0 0 0 0 0 0 0 0 
0 0 0 0 0 0 0 0 0 0 0 0 0 0 0 
0 0 0 0 0 0 0 0 0 0 0 0 0 0 0 
0 0 0 0 0 0 0 0 0 0 0 0 0 0 0 
0 0 0 0 0 0 0 0 0 0 0 0 0 0 0 
0 0 0 0 0 0 0 0 0 0 0 0 0 0 0 
0 0 0 0 0 0 0 0 0 0 0 0 0 0 0 
0 0 0 0 0 0 0 0 0 0 0 0 0 0 0 
0 0 0 0 0 0 0 0 0 0 0 0 0 0 0 
0 0 0 0 0 0 0 0 0 0 0 0 0 0 0 
0 0 0 0 0 0 0 0 0 0 0 0 0 0 0 
0 0 0 0 0 0 0 0 0 0 0 0 0 0 0 
2 2 5 11 16 20 34 82 123 15 115 188 4 113 195 
6 114 184 26 109 172 24 72 112 37 62 90 27 116 176 
2 113 197 20 116 184 14 21 30 1 0 4 0 0 0 
0 0 0 0 0 0 0 0 0 0 0 0 0 0 0 
0 0 0 0 0 0 0 0 0 0 0 0 0 0 0 
0 0 0 0 0 0 0 0 0 0 0 0 0 0 0 
0 0 0 0 0 0 0 0 0 0 0 0 0 0 0 
0 0 0 0 0 0 0 0 0 0 0 0 0 0 0 
0 0 0 0 0 0 0 0 0 0 0 0 0 0 0 
0 0 0 0 0 0 0 0 0 0 0 0 0 0 0 
0 0 0 0 0 0 0 0 0 0 0 0 0 0 0 
0 0 0 0 0 0 0 0 0 0 0 0 0 0 0 
0 0 0 0 0 0 0 0 0 0 0 0 0 0 0 
0 0 0 0 0 0 0 0 0 0 0 0 0 0 0 
0 0 0 0 0 0 0 0 0 0 0 0 0 0 0 
0 0 0 0 0 0 0 0 0 0 0 1 1 0 0 
16 27 38 35 114 165 3 111 200 6 111 189 27 114 172 
24 55 83 7 8 13 3 4 6 12 2 3 25 89 132 
3 113 194 30 113 172 5 4 9 1 0 5 1 0 0 
0 0 0 0 0 0 0 0 0 0 0 0 0 0 0 
0 0 0 0 0 0 0 0 0 0 0 0 0 0 0 
0 0 1 0 0 0 0 0 0 0 0 0 0 0 0 
0 0 1 0 0 1 0 0 1 0 0 1 0 0 0 
0 0 0 0 0 0 0 0 0 0 0 0 0 0 0 
0 0 0 0 0 0 0 0 0 0 0 0 0 0 0 
0 0 1 0 0 1 0 0 0 0 0 0 0 0 0 
0 0 0 0 0 0 0 0 0 0 0 0 0 0 0 
0 0 0 0 0 0 0 0 0 0 0 0 0 0 0 
0 0 0 0 0 0 0 0 0 0 0 0 0 0 1 
0 0 0 0 0 0 0 0 0 0 0 0 0 0 0 
0 0 0 0 0 0 0 0 0 0 0 0 0 0 0 
0 0 0 0 0 1 3 1 1 2 2 4 21 25 31 
32 113 173 3 113 190 1 113 193 44 110 154 15 20 26 
2 2 2 1 0 0 0 0 2 3 0 0 24 51 82 
5 113 190 32 88 130 3 3 7 5 0 1 0 0 3 
0 0 1 1 0 1 1 0 1 0 0 1 1 0 1 
1 0 1 0 0 1 0 0 1 1 0 1 1 0 1 
1 0 4 3 0 2 3 0 0 0 1 1 2 0 1 
2 0 2 0 1 3 2 0 2 0 1 2 2 1 1 
1 0 0 0 0 0 0 0 0 2 1 2 5 0 0 
2 1 1 2 2 1 1 0 1 1 0 1 0 0 1 
0 1 3 1 0 3 4 0 1 5 1 1 1 0 2 
1 1 3 0 0 2 2 0 2 1 0 0 1 0 1 
0 1 0 0 0 1 0 0 1 0 0 1 1 0 1 
0 0 1 0 0 1 1 0 1 1 0 1 1 1 2 
2 0 1 0 0 0 0 0 0 0 0 0 0 0 0 
0 0 0 0 0 0 0 0 0 0 0 0 0 0 0 
0 0 0 0 0 1 2 0 1 4 2 5 40 89 128 
5 112 189 4 111 193 34 120 178 16 20 27 3 3 3 
1 1 1 0 0 0 2 0 1 0 2 5 22 26 35 
21 121 190 22 63 95 6 2 2 1 1 1 1 0 4 
2 0 3 2 0 3 2 0 3 2 0 3 2 0 3 
2 0 3 2 0 3 2 0 3 2 0 3 1 1 4 
3 1 2 1 1 4 0 1 2 4 1 2 0 3 4 
1 1 2 3 1 1 2 1 2 2 1 2 3 1 5 
1 0 1 0 0 0 0 0 0 1 1 0 1 3 4 
2 1 3 3 1 4 2 0 3 2 0 3 2 0 3 
4 0 3 3 1 5 1 1 5 3 2 4 5 1 2 
1 1 5 1 0 2 2 1 1 2 1 1 3 0 3 
1 1 7 2 0 3 2 0 3 2 0 3 2 0 3 
2 0 3 2 0 3 1 0 4 2 0 3 3 0 1 
2 1 3 2 0 1 0 0 0 0 0 0 0 0 0 
0 0 0 0 0 0 0 0 0 0 0 0 0 0 0 
0 0 0 0 0 0 1 0 2 8 13 23 19 112 182 
2 113 198 2 115 193 17 73 121 8 2 2 2 0 0 
0 0 0 0 0 2 1 0 1 0 2 2 5 4 7 
78 125 153 32 51 67 5 3 3 32 51 63 11 71 121 
8 72 124 9 72 124 9 72 124 8 72 124 9 72 124 
9 72 124 8 72 124 8 72 124 9 72 124 9 73 125 
14 40 64 4 2 2 0 1 2 30 33 40 37 84 116 
7 74 126 9 71 125 9 70 131 10 73 122 38 64 81 
0 1 2 0 0 0 0 0 0 4 0 0 3 0 3 
12 11 11 41 83 114 9 72 124 9 72 124 8 72 124 
9 73 122 10 74 119 25 71 108 24 46 71 11 14 23 
5 2 2 2 0 0 5 2 2 30 45 56 17 70 111 
14 70 121 9 72 124 8 72 124 8 72 124 9 72 124 
8 72 124 8 72 124 8 72 126 8 73 127 8 74 130 
11 48 84 1 2 5 0 0 0 0 0 0 0 0 0 
0 0 0 0 0 0 0 0 0 0 0 0 0 0 0 
0 0 0 1 0 0 2 0 3 23 47 67 6 112 190 
1 114 194 5 111 190 26 108 164 9 10 17 5 1 1 
1 1 4 1 0 3 1 0 1 2 0 0 1 2 6 
2 4 2 5 2 5 2 5 6 33 93 143 4 113 192 
11 115 187 10 107 174 4 109 180 1 112 193 2 113 191 
4 113 187 15 111 178 9 99 164 2 114 197 4 112 191 
27 66 97 6 1 2 0 1 0 5 4 4 27 48 63 
31 106 159 2 114 195 15 112 180 26 66 97 12 15 20 
1 0 0 0 0 0 0 0 0 0 1 1 0 1 2 
3 0 1 20 38 60 32 109 167 1 113 197 13 114 187 
8 112 189 3 114 195 1 113 193 3 113 193 36 120 179 
34 63 83 4 3 5 4 3 3 31 85 126 2 115 192 
6 115 199 14 107 174 4 108 180 3 112 191 2 112 195 
3 113 195 16 112 183 5 97 168 8 110 184 3 112 196 
30 77 113 0 1 1 0 0 0 0 0 0 0 0 0 
0 0 0 0 0 0 0 0 0 0 0 0 0 0 0 
0 0 0 0 0 0 1 0 1 9 38 62 4 111 191 
0 113 195 3 112 188 3 113 198 26 93 144 16 24 35 
7 1 1 0 0 5 1 0 0 0 0 0 0 0 0 
1 0 1 1 1 2 27 43 56 11 114 192 12 112 193 
25 56 89 13 18 31 26 110 167 0 112 197 2 113 193 
31 122 183 8 16 25 5 12 19 33 115 174 10 114 186 
17 33 48 3 1 5 1 0 0 4 3 2 9 14 16 
28 104 160 5 113 189 9 84 144 1 2 7 1 0 1 
0 0 0 0 0 0 0 0 0 0 0 1 0 0 1 
0 0 0 1 0 0 37 64 85 13 109 180 31 72 102 
18 38 53 33 95 139 7 113 190 4 111 192 3 113 194 
18 112 182 16 32 48 22 32 39 20 114 185 9 115 193 
28 64 91 10 13 18 27 106 158 2 113 189 1 113 198 
29 114 178 19 31 42 8 5 10 35 109 164 3 112 193 
24 45 64 2 1 0 0 0 0 0 0 0 0 0 0 
0 0 0 0 0 0 0 0 0 0 0 0 0 0 0 
0 0 0 0 0 1 3 1 2 25 39 54 20 113 182 
0 113 199 2 112 192 3 113 192 3 112 189 30 110 170 
32 57 76 3 4 4 2 1 1 0 0 0 0 0 0 
1 1 4 3 4 5 31 82 125 17 116 184 19 46 69 
2 4 5 25 38 54 10 115 190 2 112 195 2 113 192 
28 75 107 7 0 1 3 1 3 26 81 122 25 115 177 
8 11 14 1 2 5 3 0 1 1 3 6 40 85 117 
6 111 186 2 112 188 43 126 183 0 2 5 1 0 1 
0 0 0 0 0 0 0 0 0 0 0 0 0 0 0 
2 2 2 3 4 6 26 89 142 4 113 194 18 40 62 
6 1 2 5 1 2 32 71 101 10 113 190 2 113 189 
4 111 202 9 44 62 29 69 107 17 114 189 25 58 83 
3 3 6 18 24 35 14 115 188 4 112 186 4 112 190 
32 85 124 2 2 6 5 1 3 26 70 105 24 122 186 
10 17 28 1 1 1 0 0 0 0 0 0 0 0 0 
0 0 0 0 0 0 0 0 0 0 0 0 0 0 0 
0 0 0 0 0 1 6 1 2 3 3 7 37 93 135 
8 111 185 0 113 196 1 113 192 1 114 192 3 112 194 
10 111 183 45 97 134 9 14 19 1 0 0 0 0 1 
0 0 1 19 20 24 44 127 177 30 51 75 6 2 5 
3 4 3 28 62 97 6 113 194 7 110 188 12 115 188 
24 34 40 4 0 3 3 0 2 38 57 78 67 108 140 
7 3 1 1 3 5 3 1 2 30 53 73 8 113 192 
2 112 194 0 114 194 16 107 174 0 3 7 2 0 0 
0 0 0 0 0 0 0 0 0 1 0 0 1 0 0 
1 2 2 16 23 30 17 115 190 20 110 174 13 19 28 
5 1 3 1 2 9 8 6 8 30 110 174 1 113 193 
4 112 190 22 47 73 52 130 181 35 65 88 4 5 9 
5 3 4 29 52 71 4 112 191 4 112 191 9 114 195 
27 46 59 4 0 0 2 1 4 28 43 52 83 122 149 
1 4 9 2 1 0 0 0 0 0 0 0 0 0 0 
0 0 0 0 0 0 0 0 0 0 0 0 0 0 0 
0 0 0 0 0 0 1 0 2 3 1 1 6 14 22 
44 96 137 7 115 191 2 111 197 2 112 191 1 112 192 
1 112 192 3 112 192 41 113 166 24 31 39 1 1 3 
4 1 1 6 6 7 25 29 31 3 3 3 1 1 2 
4 0 2 22 89 143 3 112 192 4 112 195 28 92 141 
4 4 3 1 0 3 0 0 0 0 0 0 0 0 0 
2 0 3 7 3 2 16 27 38 23 107 171 3 113 191 
23 117 185 3 112 192 7 102 175 1 1 8 1 1 1 
0 0 1 0 0 0 0 0 0 0 0 2 1 0 1 
2 4 5 28 67 99 3 113 194 33 106 160 4 5 10 
4 3 4 4 6 8 43 90 121 10 112 189 2 113 196 
30 117 180 16 26 35 27 32 36 3 3 6 1 0 1 
2 0 0 26 75 114 4 112 195 1 113 194 31 102 154 
7 7 10 3 1 2 2 0 1 0 0 0 0 0 1 
0 0 0 0 0 0 0 0 0 0 0 0 0 0 0 
0 0 0 0 0 0 0 0 0 0 0 0 0 0 0 
0 0 0 0 0 0 0 0 2 4 1 0 3 2 2 
2 2 8 32 62 84 22 109 175 1 113 192 1 113 196 
0 113 197 1 112 193 1 113 198 42 104 150 3 4 7 
3 1 2 2 2 2 3 3 3 1 1 1 2 1 3 
1 3 9 25 112 176 2 112 194 7 112 191 31 51 66 
2 2 6 1 0 0 0 0 0 0 0 0 2 0 3 
1 2 2 6 7 12 36 103 154 3 113 198 30 116 172 
40 82 117 3 112 196 8 103 175 1 1 8 1 1 1 
0 0 1 0 0 0 0 0 0 0 1 3 4 1 0 
4 6 13 29 112 171 5 112 191 23 76 119 2 4 7 
23 26 33 36 94 142 5 113 196 4 112 192 20 115 181 
31 59 81 6 1 3 1 3 7 1 1 2 1 1 1 
1 2 6 23 101 156 2 113 200 4 111 193 32 61 87 
4 2 2 0 1 5 2 0 0 0 0 0 0 0 0 
0 0 0 0 0 0 0 0 0 0 0 0 0 0 0 
0 0 0 0 0 0 0 0 0 0 0 0 0 0 0 
0 0 0 0 0 0 0 1 0 0 0 1 2 0 1 
4 0 0 0 2 1 15 22 32 40 107 152 11 112 186 
1 112 194 1 112 194 3 114 192 18 115 185 7 14 24 
1 1 6 0 0 0 0 0 0 0 0 0 2 3 4 
27 46 59 6 111 188 1 113 196 30 103 155 4 5 9 
4 0 3 0 0 1 0 0 0 0 0 0 1 1 2 
3 3 8 35 81 115 4 115 194 24 115 181 21 42 57 
30 75 111 3 112 197 18 113 185 20 23 30 1 1 1 
0 0 1 0 0 0 0 0 0 2 0 0 1 1 4 
30 53 72 6 112 193 1 113 198 29 65 93 30 63 94 
29 117 183 5 114 187 9 113 185 33 108 157 25 46 66 
5 4 5 2 1 1 1 0 2 1 0 0 2 2 3 
21 31 40 14 112 185 4 112 191 21 108 173 9 11 17 
0 0 1 2 0 1 0 0 1 0 0 0 0 0 0 
0 0 0 0 0 0 0 0 0 0 0 0 0 0 0 
0 0 0 0 0 0 0 0 0 2 0 0 2 2 5 
5 2 2 2 2 3 0 0 0 0 0 1 0 0 1 
0 0 2 0 0 0 0 1 4 6 8 11 42 100 140 
5 112 188 0 113 194 5 113 186 6 112 189 7 11 27 
3 0 4 0 0 0 0 0 0 0 0 0 2 4 4 
29 72 103 2 113 191 4 111 193 30 68 97 6 2 3 
4 0 2 3 0 1 0 1 6 2 2 2 3 2 1 
28 54 79 16 116 190 10 111 178 33 67 97 8 3 3 
22 86 135 2 113 195 11 113 191 12 21 33 1 0 1 
0 0 0 0 0 0 0 0 0 4 1 0 1 5 7 
33 91 133 3 112 197 11 112 189 31 122 185 7 112 186 
2 111 195 13 114 191 20 37 59 3 1 5 5 1 0 
3 1 1 0 1 1 1 1 0 3 0 3 3 3 4 
30 62 83 3 114 187 5 112 191 30 77 115 1 2 1 
0 1 1 2 0 0 0 0 2 0 0 0 0 0 0 
0 0 0 0 0 0 0 0 0 0 0 0 0 0 0 
0 0 0 0 0 0 0 0 0 2 2 3 4 7 11 
65 106 135 12 12 17 0 0 0 0 0 0 0 0 0 
0 0 0 0 0 0 0 0 0 1 0 0 8 16 25 
29 125 189 1 114 196 2 112 195 29 115 180 8 10 16 
2 1 3 0 0 0 0 0 0 0 0 0 4 4 4 
27 96 142 1 113 196 26 117 184 16 25 35 6 2 3 
1 0 4 2 0 0 1 1 2 9 3 1 20 30 36 
22 113 180 7 111 189 36 111 166 26 43 56 6 15 30 
27 111 176 3 112 192 6 112 192 6 17 33 2 0 1 
0 0 0 0 0 0 0 0 0 3 3 1 17 26 35 
19 112 182 2 113 193 18 111 180 37 110 163 0 115 194 
3 113 190 11 110 184 2 5 14 0 0 0 0 0 0 
0 0 0 0 0 0 1 1 0 3 0 3 3 4 6 
29 85 124 1 113 191 16 116 185 24 38 49 1 2 2 
0 0 0 0 0 0 0 0 0 0 0 0 0 0 0 
0 0 0 0 0 0 0 0 0 0 0 0 0 0 0 
0 0 0 0 0 0 0 0 0 2 1 3 17 29 40 
13 110 182 26 53 74 0 0 0 0 0 0 0 0 0 
0 0 0 0 0 0 2 2 2 3 3 3 21 40 56 
10 114 186 7 111 184 3 113 200 34 80 117 1 1 1 
1 0 2 0 0 0 0 0 0 0 0 0 7 12 18 
22 113 178 3 112 196 33 84 120 2 1 1 1 0 5 
0 0 3 0 1 0 2 0 0 11 14 21 35 99 148 
4 112 192 5 111 192 4 112 196 8 111 191 12 110 181 
1 112 196 5 111 189 6 112 192 6 18 34 2 0 1 
0 0 0 0 0 0 0 0 0 1 2 1 30 71 102 
2 112 197 1 113 190 29 100 148 28 57 80 3 113 191 
2 113 188 9 111 188 11 17 28 0 0 0 0 0 0 
0 0 0 0 0 0 0 0 0 1 0 2 2 3 8 
26 110 169 3 113 194 35 98 140 5 4 5 0 1 2 
0 0 0 0 0 0 0 0 0 0 0 0 0 0 0 
0 0 0 0 0 0 0 0 0 0 0 0 0 0 0 
0 0 0 0 0 0 0 0 0 5 0 0 17 36 57 
6 111 186 33 104 153 0 1 2 0 1 0 1 0 0 
0 1 1 1 0 1 3 3 3 22 37 50 32 114 173 
1 113 194 2 114 197 29 106 166 13 20 28 1 0 2 
0 1 1 1 0 0 1 0 0 0 0 1 19 40 57 
8 112 191 14 116 188 21 34 46 0 1 2 3 0 1 
2 0 1 0 1 2 1 1 1 34 78 113 7 112 190 
23 100 158 32 78 108 44 122 169 23 69 105 32 73 107 
9 111 179 1 114 195 7 111 189 19 35 52 2 0 1 
0 0 1 1 0 0 1 0 0 2 3 8 35 117 176 
2 112 189 2 112 193 20 68 102 12 19 25 29 117 175 
2 114 197 8 112 189 25 39 55 1 0 1 0 0 0 
0 0 0 0 0 0 2 0 1 0 2 3 19 26 33 
8 113 191 6 113 188 29 51 68 3 2 6 0 1 0 
0 0 0 0 0 0 0 0 0 0 0 0 0 0 0 
0 0 0 0 0 0 0 0 0 0 0 0 0 0 0 
0 0 0 0 0 0 0 0 0 2 2 4 9 31 50 
5 112 187 9 113 187 27 48 65 6 4 3 3 3 7 
3 6 6 16 21 26 27 74 110 22 115 182 3 112 191 
2 113 196 19 108 170 31 50 63 5 5 5 0 0 0 
0 1 2 1 1 3 4 1 0 1 0 3 25 66 99 
3 113 192 32 105 156 4 6 9 1 0 2 1 0 1 
0 0 2 5 4 7 29 49 70 12 113 191 24 106 169 
21 33 45 4 2 2 1 1 5 4 3 6 13 45 70 
4 111 187 1 113 194 7 111 186 24 54 82 0 1 1 
2 0 2 1 2 4 6 3 3 29 54 78 10 111 183 
1 113 193 2 112 192 27 50 72 2 4 5 30 87 128 
1 113 199 2 113 187 6 26 49 2 0 3 0 0 0 
0 0 1 0 0 1 2 0 3 1 0 4 25 54 76 
4 113 190 30 114 171 7 8 12 0 1 5 1 1 0 
0 0 0 0 0 0 0 0 0 0 0 0 0 0 0 
0 0 0 0 0 0 0 0 0 0 0 0 0 0 0 
0 0 0 0 0 0 0 0 0 2 1 3 32 65 91 
3 112 188 1 113 191 33 89 134 21 17 23 18 42 61 
37 86 128 17 112 185 5 113 193 3 113 188 6 113 186 
38 107 157 19 31 41 3 1 2 2 2 2 0 0 0 
1 0 0 4 2 1 2 2 6 4 2 4 38 105 155 
3 112 193 34 59 79 7 3 4 2 1 1 2 1 1 
6 1 1 16 23 32 22 113 183 23 114 179 25 44 60 
4 1 1 2 2 4 2 1 3 11 2 2 21 71 111 
1 114 190 1 113 192 1 112 198 8 40 68 4 2 2 
2 1 1 5 1 1 4 4 7 35 94 138 2 113 196 
1 114 196 14 112 184 13 17 24 7 2 5 28 47 65 
13 111 184 0 115 197 14 36 57 5 1 1 1 2 3 
3 1 0 3 1 1 3 1 2 4 2 2 34 96 142 
4 112 190 33 70 99 5 2 4 2 2 5 4 0 0 
0 0 0 0 0 0 0 0 0 0 0 0 0 0 0 
0 0 0 0 0 0 0 0 0 0 0 0 0 0 0 
0 0 0 0 0 0 0 0 0 2 1 1 9 51 88 
3 112 190 0 113 195 12 118 193 27 118 182 4 114 195 
2 114 194 5 111 186 15 115 188 29 102 156 34 68 91 
6 7 9 1 2 1 2 0 0 0 0 0 0 0 0 
0 0 2 4 5 11 27 35 46 30 83 126 8 111 190 
4 112 187 32 86 126 17 28 39 3 3 7 7 10 14 
37 66 87 38 111 168 3 115 190 32 97 149 7 13 21 
0 1 5 4 2 3 9 10 15 31 53 76 17 98 161 
2 113 191 1 112 195 5 111 189 20 87 138 18 25 34 
4 5 5 15 22 34 30 74 111 7 109 184 5 112 187 
2 113 192 24 116 184 18 37 55 11 3 4 22 43 67 
6 110 186 1 113 194 44 107 156 19 33 49 3 5 6 
4 2 2 1 4 10 18 31 47 34 81 119 13 107 178 
5 111 191 30 91 136 22 32 44 2 4 7 1 2 2 
0 0 0 0 0 0 0 0 0 0 0 0 0 0 0 
0 0 0 0 0 0 0 0 0 0 0 0 0 0 0 
0 0 0 0 0 0 0 0 0 5 1 1 19 63 98 
1 114 191 4 111 190 5 111 192 9 109 185 26 112 182 
29 96 142 25 73 107 25 42 55 1 2 4 3 1 1 
0 0 1 0 0 0 0 0 1 0 0 0 0 0 0 
1 1 2 74 114 143 20 112 179 13 109 176 10 109 181 
10 110 180 11 110 182 33 107 161 57 72 91 63 121 161 
17 111 172 10 110 186 10 109 183 12 110 178 51 106 150 
18 21 28 21 26 31 55 110 151 18 110 178 10 110 184 
11 109 181 10 110 183 14 109 176 9 111 186 58 109 144 
66 92 106 25 110 173 14 109 177 9 111 186 11 109 180 
10 110 184 11 109 181 32 108 160 80 108 127 32 112 168 
10 110 183 11 109 181 12 109 182 25 108 168 44 73 93 
9 2 3 76 103 126 27 107 165 11 109 184 10 109 183 
11 109 180 10 111 184 34 107 160 39 58 72 1 2 0 
0 0 0 0 0 0 0 0 0 0 0 0 0 0 0 
0 0 0 0 0 0 0 0 0 0 0 0 0 0 0 
0 0 0 0 0 0 0 0 0 3 1 4 54 78 96 
31 83 120 12 52 90 23 45 63 20 31 40 3 6 8 
1 4 10 3 3 6 6 0 0 3 0 2 0 0 0 
0 0 0 0 0 0 0 0 0 0 0 0 0 0 0 
3 0 0 5 4 8 1 5 15 2 3 10 0 3 14 
0 3 12 0 3 12 0 5 13 3 6 3 1 6 15 
2 3 15 0 3 12 0 3 12 0 3 12 1 5 14 
3 5 9 7 4 3 4 6 17 1 4 14 0 3 12 
0 3 12 0 4 15 2 3 10 2 5 16 6 6 9 
9 4 4 1 7 18 3 3 9 0 4 14 0 3 12 
0 3 12 0 3 13 3 6 16 8 4 6 0 5 17 
2 3 12 0 3 12 0 3 12 0 3 12 5 5 8 
2 5 6 2 7 14 1 5 15 0 3 12 0 3 12 
0 3 12 1 2 15 1 4 19 4 5 10 2 1 1 
0 0 0 0 0 0 0 0 0 0 0 0 0 0 0 
0 0 0 0 0 0 0 0 0 0 0 0 0 0 0 
0 0 0 0 0 0 0 0 0 2 1 2 3 1 2 
4 0 2 4 0 2 1 1 3 1 1 1 2 0 1 
1 1 1 1 2 0 1 1 0 0 1 2 0 0 0 
0 0 0 0 0 0 0 0 0 0 0 0 0 0 0 
0 0 2 0 1 8 2 0 2 2 0 1 2 0 3 
2 0 2 2 0 2 4 0 3 2 2 4 4 1 1 
1 2 2 2 1 1 2 0 2 2 0 2 2 0 1 
2 0 0 1 0 2 3 0 2 2 0 2 2 0 2 
2 0 2 1 0 5 2 0 2 4 0 1 1 1 5 
0 1 8 1 0 3 3 0 0 1 0 3 2 0 2 
2 0 2 2 0 2 1 1 1 0 2 2 1 2 2 
2 0 1 2 0 2 2 0 2 2 0 2 1 1 4 
3 1 0 2 1 1 2 0 3 2 0 2 2 0 2 
2 0 2 0 1 4 3 1 1 3 1 1 1 1 1 
0 0 0 0 0 0 0 0 0 0 0 0 0 0 0 
0 0 0 0 0 0 0 0 0 0 0 0 0 0 0 
0 0 0 0 0 0 0 0 0 1 1 1 0 1 2 
0 0 3 1 0 2 1 0 2 1 0 1 3 1 4 
2 0 2 2 0 0 2 0 0 2 0 0 0 0 0 
0 0 0 0 0 0 0 0 0 0 0 0 0 0 0 
0 0 0 2 0 0 1 0 4 2 0 3 3 0 1 
2 0 1 2 0 2 3 1 1 1 1 6 5 0 1 
2 2 6 4 0 1 2 0 1 2 0 2 1 0 3 
0 0 3 1 0 0 1 0 1 1 0 1 2 0 2 
2 0 2 2 0 1 1 1 2 2 0 1 1 0 0 
0 0 0 1 1 2 0 2 5 2 0 0 2 0 2 
2 0 2 2 0 2 1 0 3 2 0 2 3 0 2 
1 0 5 2 0 2 2 0 1 2 0 1 0 1 0 
1 0 4 0 1 2 1 1 1 2 0 2 2 0 1 
2 0 1 3 0 1 1 1 3 2 1 3 1 0 0 
0 0 0 0 0 0 0 0 0 0 0 0 0 0 0 
0 0 0 0 0 0 0 0 0 0 0 0 0 0 0 
0 0 0 0 0 0 0 0 0 0 0 0 0 0 0 
0 0 0 0 0 0 0 0 0 0 0 0 0 0 0 
0 0 0 0 0 0 0 0 0 0 0 0 0 0 0 
0 0 0 0 0 0 0 0 0 0 0 0 0 0 0 
0 0 0 0 0 0 0 0 0 0 0 0 0 0 0 
0 0 0 0 0 0 0 0 0 0 0 0 0 0 0 
0 0 0 0 0 0 0 0 0 0 0 0 0 0 0 
0 0 0 0 0 0 0 0 0 0 0 0 0 0 0 
0 0 0 0 0 0 0 0 0 0 0 0 0 0 0 
0 0 0 0 0 0 0 0 0 0 0 0 0 0 0 
0 0 0 0 0 0 0 0 0 0 0 0 0 0 0 
0 0 0 0 0 0 0 0 0 0 0 0 0 0 0 
0 0 0 0 0 0 0 0 0 0 0 0 0 0 0 
0 0 0 0 0 0 0 0 0 0 0 0 0 0 0 
0 0 0 0 0 0 0 0 0 0 0 0 0 0 0 
0 0 0 0 0 0 0 0 0 0 0 0 0 0 0 
0 0 0 0 0 0 0 0 0 0 0 0 0 0 0 
0 0 0 0 0 0 0 0 0 0 0 0 0 0 0 
0 0 0 0 0 0 0 0 0 0 0 0 0 0 0 
0 0 0 0 0 0 0 0 0 0 0 0 0 0 0 
0 0 0 0 0 0 0 0 0 0 0 0 0 0 0 
0 0 0 0 0 0 0 0 0 0 0 0 0 0 0 
0 0 0 0 0 0 0 0 0 0 0 0 0 0 0 
0 0 0 0 0 0 0 0 0 0 0 0 0 0 0 
0 0 0 0 0 0 0 0 0 0 0 0 0 0 0 
0 0 0 0 0 0 0 0 0 0 0 0 0 0 0 
0 0 0 0 0 0 0 0 0 0 0 0 0 0 0 
0 0 0 0 0 0 0 0 0 0 0 0 0 0 0 
0 0 0 0 0 0 0 0 0 0 0 0 0 0 0 
0 0 0 0 0 0 0 0 0 0 0 0 0 0 0 
0 0 0 0 0 0 0 0 0 0 0 0 0 0 0 
0 0 0 0 0 0 0 0 0 0 0 0 0 0 0 
