P3
# Created by IrfanView
30 30
255
36 177 78 36 177 78 36 177 78 36 177 78 36 177 78 
36 177 78 36 177 78 36 177 78 36 177 78 36 177 78 
37 177 78 37 177 78 37 177 78 37 177 78 37 177 78 
37 177 78 37 177 78 37 177 78 37 177 78 37 177 78 
37 177 78 37 177 78 37 177 78 37 177 78 37 177 78 
37 177 78 37 177 78 37 177 78 37 177 78 37 177 78 
36 176 77 36 176 77 36 176 77 36 176 77 36 176 77 
36 176 77 36 176 77 36 176 77 36 176 77 36 176 77 
28 133 59 28 133 59 35 170 75 37 177 78 31 148 65 
28 133 59 28 135 60 37 177 78 37 177 78 37 177 78 
37 177 78 37 177 78 37 177 78 37 177 78 37 177 78 
37 177 78 37 177 78 37 177 78 37 177 78 37 177 78 
37 177 78 37 177 78 37 177 78 37 177 78 37 177 78 
37 177 78 37 177 78 37 177 78 37 177 78 24 114 50 
159 126 8 177 140 9 34 97 38 34 164 72 91 81 10 
207 163 11 108 89 8 32 151 67 37 177 78 37 177 78 
37 177 78 37 177 78 37 177 78 37 177 78 37 177 78 
37 177 78 37 177 78 37 177 78 37 177 78 37 177 78 
37 177 78 37 177 78 37 177 78 37 177 78 37 177 78 
37 177 78 37 177 78 37 177 78 37 177 78 63 72 15 
255 201 14 255 201 14 58 75 18 29 88 35 212 167 12 
255 201 14 236 186 13 23 109 48 37 177 78 37 177 78 
37 175 77 34 164 72 35 169 74 37 177 78 37 177 78 
37 177 78 37 177 78 37 177 78 37 177 78 37 177 78 
36 176 77 36 176 77 36 176 77 36 176 77 36 176 77 
36 176 77 36 176 77 36 176 77 36 176 77 117 111 16 
255 201 14 255 201 14 154 121 8 95 75 5 255 201 14 
255 201 14 244 193 13 32 76 28 37 177 78 23 112 49 
64 96 27 130 103 7 54 65 14 33 158 69 37 177 78 
37 177 78 37 177 78 37 177 78 37 177 78 37 177 78 
37 177 78 37 177 78 37 177 78 37 177 78 37 177 78 
37 177 78 34 148 64 94 108 22 67 87 21 76 64 6 
255 201 14 255 201 14 154 121 8 135 106 7 255 201 14 
255 201 14 255 201 14 104 109 20 23 109 48 126 104 9 
255 201 14 255 201 14 231 182 13 26 99 42 37 177 78 
37 177 78 37 177 78 37 177 78 37 177 78 37 177 78 
37 177 78 37 177 78 37 177 78 37 177 78 37 177 78 
37 177 78 27 68 25 255 201 14 247 195 14 85 67 5 
204 161 11 255 201 14 157 123 8 135 106 7 255 201 14 
255 201 14 255 201 14 99 94 14 81 83 15 252 199 14 
255 201 14 255 201 14 255 201 14 28 101 42 37 177 78 
37 177 78 37 177 78 37 177 78 37 177 78 37 177 78 
37 177 78 37 177 78 37 177 78 37 177 78 37 177 78 
37 177 78 126 112 13 255 201 14 255 201 14 254 200 14 
92 72 5 242 191 13 255 201 14 122 96 7 213 168 12 
213 168 12 220 174 12 14 37 14 201 159 11 255 201 14 
255 201 14 255 201 14 194 153 11 26 110 47 37 177 78 
37 177 78 37 177 78 37 177 78 37 177 78 37 177 78 
37 177 78 37 177 78 37 177 78 37 177 78 37 177 78 
37 177 78 126 112 13 255 201 14 255 201 14 255 201 14 
190 150 10 126 100 7 150 119 8 136 107 7 186 146 10 
186 146 10 162 128 9 94 74 5 204 160 11 255 201 14 
255 201 14 255 201 14 76 78 13 36 173 76 37 177 78 
37 177 78 37 177 78 37 177 78 37 177 78 37 177 78 
37 177 78 37 177 78 37 177 78 37 177 78 37 177 78 
37 177 78 38 69 22 255 201 14 255 201 14 255 201 14 
188 148 10 186 147 10 249 196 14 255 201 14 255 201 14 
255 201 14 255 201 14 248 196 14 195 155 11 195 154 11 
255 201 14 149 117 8 14 46 18 21 102 45 21 102 45 
34 162 71 37 177 78 37 177 78 37 177 78 37 177 78 
37 177 78 37 177 78 37 177 78 37 177 78 34 163 72 
33 156 69 24 114 51 143 113 8 255 201 14 193 152 10 
206 163 11 255 201 14 255 201 14 255 201 14 255 201 14 
255 201 14 255 201 14 255 201 14 255 201 14 205 161 11 
115 91 6 110 87 6 187 147 10 253 199 14 228 179 13 
48 63 15 34 161 71 37 177 78 37 177 78 37 177 78 
37 177 78 37 177 78 37 177 78 30 118 50 141 127 16 
175 138 10 175 138 10 110 87 6 162 128 8 136 107 7 
255 201 14 255 205 30 230 209 136 197 166 60 255 201 14 
255 201 14 255 209 49 216 199 140 211 172 38 254 200 14 
145 114 8 255 201 14 255 201 14 255 201 14 255 201 14 
226 178 13 31 97 39 37 177 78 37 177 78 37 177 78 
37 177 78 37 177 78 37 177 78 70 73 13 255 201 14 
255 201 14 255 201 14 247 194 13 96 76 5 202 160 11 
255 201 14 255 235 164 63 63 63 4 3 0 184 145 10 
255 201 14 244 236 206 18 18 18 15 12 1 230 181 13 
205 162 11 194 153 11 255 201 14 255 201 14 255 201 14 
220 173 12 30 96 39 37 177 78 37 177 78 37 177 78 
37 177 78 37 177 78 37 177 78 126 106 10 255 201 14 
255 201 14 255 201 14 255 201 14 176 139 10 223 176 12 
255 201 14 255 226 124 108 107 105 30 26 11 213 168 12 
255 201 14 249 230 167 62 62 62 55 44 8 240 189 13 
219 173 12 166 131 9 235 185 13 235 185 13 162 130 10 
88 104 23 35 167 73 37 177 78 37 177 78 37 177 78 
37 177 78 37 177 78 37 177 78 33 87 33 236 186 13 
255 201 14 255 201 14 255 201 14 193 152 11 206 163 11 
255 201 14 232 183 13 255 217 86 255 210 55 255 201 14 
255 201 14 255 202 18 255 220 100 232 188 34 255 201 14 
203 160 11 54 42 3 54 42 3 18 80 35 27 128 56 
37 177 78 37 177 78 37 177 78 37 177 78 37 177 78 
37 177 78 37 177 78 37 177 78 35 167 73 66 69 13 
199 156 11 255 201 14 240 189 13 168 132 9 133 105 7 
255 201 14 201 158 11 164 129 9 252 198 14 255 201 14 
255 201 14 255 201 14 197 155 11 202 160 11 254 200 14 
145 114 8 255 201 14 255 201 14 133 108 9 22 105 46 
37 177 78 37 177 78 37 177 78 37 177 78 37 177 78 
37 177 78 37 177 78 37 177 78 37 177 78 35 166 73 
29 106 45 41 102 38 34 84 31 41 32 3 179 141 10 
203 161 11 255 201 14 235 185 13 147 117 8 211 167 11 
246 194 13 152 120 8 202 159 11 255 201 14 198 156 10 
198 156 11 255 201 14 255 201 14 253 199 14 130 106 9 
30 141 62 37 177 78 37 177 78 37 177 78 37 177 78 
37 177 78 37 177 78 37 177 78 37 177 78 37 177 78 
37 177 78 37 176 77 46 109 40 229 180 12 255 201 14 
196 154 11 192 151 11 248 195 14 255 201 14 188 148 10 
154 121 8 247 195 14 247 195 14 191 150 11 86 68 5 
218 172 12 255 201 14 255 201 14 255 201 14 232 183 13 
45 89 30 37 177 78 37 177 78 37 177 78 37 177 78 
37 177 78 37 177 78 37 177 78 37 177 78 37 177 78 
37 177 78 35 169 74 127 100 7 255 201 14 255 201 14 
255 201 14 157 124 9 87 69 5 162 128 9 179 141 10 
179 141 10 129 102 7 152 120 8 208 164 11 224 176 12 
43 40 5 150 131 15 210 165 12 255 201 14 238 187 13 
50 93 30 37 177 78 37 177 78 37 177 78 37 177 78 
37 177 78 37 177 78 37 177 78 37 177 78 37 177 78 
37 177 78 35 169 74 156 123 9 255 201 14 255 201 14 
255 201 14 187 147 10 101 80 6 237 187 13 220 174 12 
220 174 12 78 62 4 255 201 14 255 201 14 255 201 14 
111 100 12 29 138 60 33 99 40 51 103 35 43 97 35 
31 146 64 37 177 78 37 177 78 37 177 78 37 177 78 
37 177 78 50 182 74 100 200 57 104 202 56 43 179 76 
37 177 78 35 169 74 156 123 9 255 201 14 255 201 14 
251 198 14 131 111 9 115 97 8 255 201 14 255 201 14 
255 201 14 137 108 8 200 158 11 255 201 14 255 201 14 
219 172 12 26 125 55 37 177 78 37 177 78 37 177 78 
37 177 78 37 177 78 37 177 78 37 177 78 37 177 78 
66 188 68 125 209 48 64 187 69 66 187 68 126 210 48 
45 180 75 36 171 75 72 71 11 190 149 10 189 149 10 
105 101 10 164 209 26 190 226 27 253 202 14 255 201 14 
255 201 14 132 106 8 85 81 12 255 201 14 255 201 14 
144 119 10 29 138 61 37 177 78 37 177 78 37 177 78 
37 177 78 37 177 78 37 177 78 37 177 78 37 177 78 
103 201 56 45 180 75 59 185 71 88 196 61 68 188 67 
80 193 63 37 177 78 33 158 69 30 146 64 30 146 64 
140 203 36 181 230 29 159 222 37 116 96 8 255 201 14 
220 173 12 40 65 19 28 104 43 128 101 7 198 156 11 
30 70 25 37 177 78 37 177 78 37 177 78 37 177 78 
37 177 78 37 177 78 37 177 78 37 177 78 37 177 78 
100 200 57 37 177 78 94 198 59 49 181 74 37 177 78 
100 200 57 37 177 78 37 177 78 41 178 77 131 212 46 
181 230 29 178 229 30 62 186 70 28 129 56 31 101 41 
32 125 53 36 173 76 37 176 77 30 145 63 24 97 41 
36 174 76 37 177 78 37 177 78 37 177 78 37 177 78 
37 177 78 37 177 78 37 177 78 37 177 78 37 177 78 
131 211 46 46 180 75 81 193 63 99 199 57 82 193 62 
106 203 55 37 177 78 37 177 78 95 198 58 181 230 29 
177 229 30 137 214 45 61 186 70 37 177 78 72 189 66 
107 202 55 100 200 57 80 193 63 45 180 75 37 177 78 
37 177 78 37 177 78 37 177 78 37 177 78 37 177 78 
37 177 78 37 177 78 37 177 78 37 177 78 37 177 78 
63 187 69 87 195 61 37 177 78 68 188 67 69 189 67 
44 180 76 37 177 78 79 192 64 173 227 32 181 230 29 
113 205 52 37 177 78 98 199 57 49 182 74 123 209 49 
61 186 70 63 186 69 57 184 71 88 196 61 43 179 76 
37 177 78 37 177 78 37 177 78 37 177 78 37 177 78 
37 177 78 37 177 78 37 177 78 37 177 78 37 177 78 
37 177 78 59 185 71 127 210 47 45 180 75 39 178 77 
37 177 78 48 181 74 176 228 31 181 230 29 148 218 40 
43 179 76 37 177 78 42 179 76 129 211 47 94 198 59 
48 181 75 101 201 56 37 177 78 61 186 70 106 202 54 
37 177 78 37 177 78 37 177 78 37 177 78 37 177 78 
37 177 78 37 177 78 37 177 78 37 177 78 37 177 78 
37 177 78 37 177 78 37 177 78 97 199 58 119 207 50 
108 203 54 176 228 31 181 230 29 154 220 38 44 180 76 
37 177 78 37 177 78 37 177 78 97 199 57 104 202 55 
94 198 59 66 188 68 37 177 78 37 177 78 151 219 39 
37 177 78 37 177 78 37 177 78 37 177 78 37 177 78 
37 177 78 37 177 78 37 177 78 37 177 78 37 177 78 
37 177 78 37 177 78 37 177 78 37 177 78 37 177 78 
87 196 61 181 230 29 173 227 32 79 193 64 37 177 78 
37 177 78 37 177 78 37 177 78 46 180 75 127 210 47 
46 180 75 37 177 78 37 177 78 70 189 67 93 198 59 
37 177 78 37 177 78 37 177 78 37 177 78 37 177 78 
37 177 78 37 177 78 37 177 78 37 177 78 37 177 78 
37 177 78 37 177 78 37 177 78 37 177 78 37 177 78 
44 179 76 113 205 52 77 192 65 37 177 78 37 177 78 
37 177 78 37 177 78 37 177 78 37 177 78 63 187 69 
104 201 56 127 210 47 111 204 53 102 201 56 39 178 77 
37 177 78 37 177 78 37 177 78 37 177 78 37 177 78 
37 177 78 37 177 78 37 177 78 37 177 78 37 177 78 
