P3
# Created by IrfanView
30 30
255
39 189 40 39 189 40 39 189 40 39 189 40 39 189 40 
39 189 40 39 189 40 39 189 40 39 189 40 39 189 40 
39 189 40 39 189 40 39 189 40 39 189 40 39 189 40 
39 189 40 39 189 40 39 189 40 39 189 40 39 189 40 
39 189 40 39 189 40 39 189 40 39 189 40 39 189 40 
39 189 40 39 189 40 39 189 40 39 189 40 39 189 40 
39 189 40 39 189 40 39 189 40 39 189 40 39 189 40 
39 189 40 39 189 40 39 189 40 39 189 40 39 189 40 
39 189 40 39 189 40 39 189 40 39 189 40 39 189 40 
39 189 40 39 189 40 39 189 40 39 189 40 39 189 40 
39 189 40 39 189 40 39 189 40 39 189 40 39 189 40 
39 189 40 39 189 40 39 189 40 39 189 40 39 189 40 
39 189 40 39 189 40 39 189 40 39 189 40 39 189 40 
39 189 40 39 189 40 39 189 40 39 189 40 39 189 40 
39 189 40 39 189 40 39 189 40 39 189 40 39 189 40 
39 189 40 39 189 40 39 189 40 39 189 40 39 189 40 
39 189 40 39 189 40 39 189 40 39 189 40 39 189 40 
39 189 40 39 189 40 39 189 40 39 189 40 39 189 40 
39 189 40 39 189 40 39 189 40 39 189 40 39 189 40 
39 189 40 39 189 40 39 189 40 39 189 40 39 189 40 
39 189 40 66 167 39 212 49 36 226 37 36 226 37 36 
226 37 36 226 37 36 210 50 36 64 168 39 39 189 40 
39 189 40 39 189 40 39 189 40 39 189 40 39 189 40 
39 189 40 39 189 40 39 189 40 39 189 40 39 189 40 
39 189 40 39 189 40 39 189 40 39 189 40 39 189 40 
39 189 40 39 189 40 39 189 40 39 189 40 39 189 40 
39 189 40 92 146 39 237 28 36 237 28 36 237 28 36 
237 28 36 237 28 36 237 28 36 89 148 39 39 189 40 
39 189 40 39 189 40 39 189 40 39 189 40 39 189 40 
39 189 40 39 189 40 39 189 40 39 189 40 39 189 40 
39 189 40 39 189 40 39 189 40 39 189 40 39 189 40 
39 189 40 39 189 40 39 189 40 39 189 40 39 189 40 
39 189 40 92 146 39 237 28 36 237 28 36 237 28 36 
237 28 36 237 28 36 237 28 36 89 148 39 39 189 40 
39 189 40 39 189 40 39 189 40 39 189 40 39 189 40 
39 189 40 39 189 40 39 189 40 39 189 40 39 189 40 
39 189 40 39 189 40 39 189 40 39 189 40 39 189 40 
39 189 40 39 189 40 39 189 40 39 189 40 39 189 40 
39 189 40 92 146 39 237 28 36 237 28 36 237 28 36 
237 28 36 237 28 36 237 28 36 89 148 39 39 189 40 
39 189 40 39 189 40 39 189 40 39 189 40 39 189 40 
39 189 40 39 189 40 39 189 40 39 189 40 39 189 40 
39 189 40 39 189 40 39 189 40 39 189 40 39 189 40 
39 189 40 39 189 40 39 189 40 39 189 40 39 189 40 
39 189 40 92 146 39 237 28 36 237 28 36 237 28 36 
237 28 36 237 28 36 237 28 36 89 148 39 39 189 40 
39 189 40 39 189 40 39 189 40 39 189 40 39 189 40 
39 189 40 39 189 40 39 189 40 39 189 40 39 189 40 
39 189 40 39 189 40 39 189 40 39 189 40 39 189 40 
39 189 40 39 189 40 39 189 40 39 189 40 39 189 40 
39 189 40 92 146 39 237 28 36 237 28 36 237 28 36 
237 28 36 237 28 36 237 28 36 89 148 39 39 189 40 
39 189 40 39 189 40 39 189 40 39 189 40 39 189 40 
39 189 40 39 189 40 39 189 40 39 189 40 39 189 40 
39 189 40 39 189 40 39 189 40 39 189 40 39 189 40 
39 189 40 39 189 40 39 189 40 39 189 40 39 189 40 
39 189 40 92 146 39 237 28 36 237 28 36 237 28 36 
237 28 36 237 28 36 237 28 36 89 148 39 39 189 40 
39 189 40 39 189 40 39 189 40 39 189 40 39 189 40 
39 189 40 39 189 40 39 189 40 39 189 40 39 189 40 
39 189 40 39 189 40 39 189 40 39 189 40 39 189 40 
39 189 40 39 189 40 39 189 40 39 189 40 39 189 40 
39 189 40 92 146 39 237 28 36 237 28 36 237 28 36 
237 28 36 237 28 36 237 28 36 89 148 39 39 189 40 
39 189 40 39 189 40 39 189 40 39 189 40 39 189 40 
39 189 40 39 189 40 39 189 40 39 189 40 39 189 40 
39 189 40 39 189 40 39 189 40 39 189 40 39 189 40 
39 189 40 39 189 40 39 189 40 39 189 40 39 189 40 
39 189 40 92 146 39 237 28 36 237 28 36 237 28 36 
237 28 36 237 28 36 237 28 36 89 148 39 39 189 40 
39 189 40 39 189 40 39 189 40 39 189 40 39 189 40 
39 189 40 39 189 40 39 189 40 39 189 40 39 189 40 
39 189 40 39 189 40 39 189 40 39 189 40 39 189 40 
39 189 40 39 189 40 39 189 40 39 189 40 39 189 40 
39 189 40 92 146 39 237 28 36 237 28 36 237 28 36 
237 28 36 237 28 36 237 28 36 89 148 39 39 189 40 
39 189 40 39 189 40 39 189 40 39 189 40 39 189 40 
39 189 40 39 189 40 39 189 40 39 189 40 39 189 40 
39 189 40 39 189 40 39 189 40 39 189 40 39 189 40 
39 189 40 39 189 40 39 189 40 39 189 40 39 189 40 
104 136 39 167 85 37 237 28 36 237 28 36 237 28 36 
237 28 36 237 28 36 237 28 36 165 86 37 65 168 40 
39 189 40 39 189 40 39 189 40 39 189 40 39 189 40 
39 189 40 39 189 40 39 189 40 39 189 40 39 189 40 
39 189 40 39 189 40 39 189 40 39 189 40 39 189 40 
39 189 40 39 189 40 39 189 40 39 189 40 96 143 39 
237 28 36 237 28 36 237 28 36 237 28 36 237 28 36 
237 28 36 237 28 36 237 28 36 237 28 36 236 29 36 
93 145 39 39 189 40 39 189 40 39 189 40 39 189 40 
39 189 40 39 189 40 39 189 40 39 189 40 39 189 40 
39 189 40 39 189 40 39 189 40 39 189 40 39 189 40 
39 189 40 39 189 40 39 189 40 39 189 40 97 142 39 
237 28 36 237 28 36 237 28 36 237 28 36 237 28 36 
237 28 36 237 28 36 237 28 36 237 28 36 236 29 36 
95 144 39 39 189 40 39 189 40 39 189 40 39 189 40 
39 189 40 39 189 40 39 189 40 39 189 40 39 189 40 
39 189 40 39 189 40 39 189 40 39 189 40 39 189 40 
39 189 40 39 189 40 39 189 40 39 189 40 40 189 40 
197 61 37 237 28 36 237 28 36 237 28 36 237 28 36 
237 28 36 237 28 36 237 28 36 237 28 36 195 63 37 
39 189 40 39 189 40 39 189 40 39 189 40 39 189 40 
39 189 40 39 189 40 39 189 40 39 189 40 39 189 40 
39 189 40 39 189 40 39 189 40 39 189 40 39 189 40 
39 189 40 39 189 40 39 189 40 39 189 40 39 189 40 
138 109 38 237 28 36 237 28 36 237 28 36 237 28 36 
237 28 36 237 28 36 237 28 36 237 28 36 135 111 38 
39 189 40 39 189 40 39 189 40 39 189 40 39 189 40 
39 189 40 39 189 40 39 189 40 39 189 40 39 189 40 
39 189 40 39 189 40 39 189 40 39 189 40 39 189 40 
39 189 40 39 189 40 39 189 40 39 189 40 39 189 40 
58 174 40 219 42 36 237 28 36 237 28 36 237 28 36 
237 28 36 237 28 36 237 28 36 219 43 36 56 175 40 
39 189 40 39 189 40 39 189 40 39 189 40 39 189 40 
39 189 40 39 189 40 39 189 40 39 189 40 39 189 40 
39 189 40 39 189 40 39 189 40 39 189 40 39 189 40 
39 189 40 39 189 40 39 189 40 39 189 40 39 189 40 
39 189 40 178 76 37 237 28 36 237 28 36 237 28 36 
237 28 36 237 28 36 237 28 36 175 78 37 39 189 40 
39 189 40 39 189 40 39 189 40 39 189 40 39 189 40 
39 189 40 39 189 40 39 189 40 39 189 40 39 189 40 
39 189 40 39 189 40 39 189 40 39 189 40 39 189 40 
39 189 40 39 189 40 39 189 40 39 189 40 39 189 40 
39 189 40 86 151 39 233 31 36 237 28 36 237 28 36 
237 28 36 237 28 36 232 32 36 83 153 39 39 189 40 
39 189 40 39 189 40 39 189 40 39 189 40 39 189 40 
39 189 40 39 189 40 39 189 40 39 189 40 39 189 40 
39 189 40 39 189 40 39 189 40 39 189 40 39 189 40 
39 189 40 39 189 40 39 189 40 39 189 40 39 189 40 
39 189 40 39 189 40 182 73 37 237 28 36 237 28 36 
237 28 36 237 28 36 201 57 37 39 189 40 39 189 40 
39 189 40 39 189 40 39 189 40 39 189 40 39 189 40 
39 189 40 39 189 40 39 189 40 39 189 40 39 189 40 
39 189 40 39 189 40 39 189 40 39 189 40 39 189 40 
39 189 40 39 189 40 39 189 40 39 189 40 39 189 40 
39 189 40 39 189 40 118 125 38 237 28 36 237 28 36 
237 28 36 237 28 36 130 115 38 39 189 40 39 189 40 
39 189 40 39 189 40 39 189 40 39 189 40 39 189 40 
39 189 40 39 189 40 39 189 40 39 189 40 39 189 40 
39 189 40 39 189 40 39 189 40 39 189 40 39 189 40 
39 189 40 39 189 40 39 189 40 39 189 40 39 189 40 
39 189 40 39 189 40 43 186 40 223 40 36 237 28 36 
237 28 36 227 36 36 42 186 40 39 189 40 39 189 40 
39 189 40 39 189 40 39 189 40 39 189 40 39 189 40 
39 189 40 39 189 40 39 189 40 39 189 40 39 189 40 
39 189 40 39 189 40 39 189 40 39 189 40 39 189 40 
39 189 40 39 189 40 39 189 40 39 189 40 39 189 40 
39 189 40 39 189 40 39 189 40 144 104 38 237 28 36 
237 28 36 171 82 38 39 189 40 39 189 40 39 189 40 
39 189 40 39 189 40 39 189 40 39 189 40 39 189 40 
39 189 40 39 189 40 39 189 40 39 189 40 39 189 40 
39 189 40 39 189 40 39 189 40 39 189 40 39 189 40 
39 189 40 39 189 40 39 189 40 39 189 40 39 189 40 
39 189 40 39 189 40 39 189 40 77 159 39 237 28 36 
237 28 36 74 161 39 39 189 40 39 189 40 39 189 40 
39 189 40 39 189 40 39 189 40 39 189 40 39 189 40 
39 189 40 39 189 40 39 189 40 39 189 40 39 189 40 
39 189 40 39 189 40 39 189 40 39 189 40 39 189 40 
39 189 40 39 189 40 39 189 40 39 189 40 39 189 40 
39 189 40 39 189 40 39 189 40 41 188 40 114 129 39 
112 130 39 40 188 40 39 189 40 39 189 40 39 189 40 
39 189 40 39 189 40 39 189 40 39 189 40 39 189 40 
39 189 40 39 189 40 39 189 40 39 189 40 39 189 40 
39 189 40 39 189 40 39 189 40 39 189 40 39 189 40 
39 189 40 39 189 40 39 189 40 39 189 40 39 189 40 
39 189 40 39 189 40 39 189 40 39 189 40 39 189 40 
39 189 40 39 189 40 39 189 40 39 189 40 39 189 40 
39 189 40 39 189 40 39 189 40 39 189 40 39 189 40 
39 189 40 39 189 40 39 189 40 39 189 40 39 189 40 
39 189 40 39 189 40 39 189 40 39 189 40 39 189 40 
39 189 40 39 189 40 39 189 40 39 189 40 39 189 40 
39 189 40 39 189 40 39 189 40 39 189 40 39 189 40 
39 189 40 39 189 40 39 189 40 39 189 40 39 189 40 
39 189 40 39 189 40 39 189 40 39 189 40 39 189 40 
39 189 40 39 189 40 39 189 40 39 189 40 39 189 40 
39 189 40 39 189 40 39 189 40 39 189 40 39 189 40 
39 189 40 39 189 40 39 189 40 39 189 40 39 189 40 
39 189 40 39 189 40 39 189 40 39 189 40 39 189 40 
39 189 40 39 189 40 39 189 40 39 189 40 39 189 40 
39 189 40 39 189 40 39 189 40 39 189 40 39 189 40 
39 189 40 39 189 40 39 189 40 39 189 40 39 189 40 
