P3
# Created by IrfanView
30 30
255
39 189 40 39 189 40 39 189 40 39 189 40 39 189 40 
39 189 40 39 189 40 39 189 40 39 189 40 126 118 38 
237 28 36 237 28 36 237 28 36 237 28 36 237 28 36 
237 28 36 237 28 36 237 28 36 237 28 36 235 30 36 
39 189 40 39 189 40 39 189 40 39 189 40 39 189 40 
39 189 40 39 189 40 39 189 40 39 189 40 39 189 40 
39 189 40 39 189 40 39 189 40 39 189 40 39 189 40 
39 189 40 39 189 40 39 189 40 39 189 40 126 118 38 
237 28 36 237 28 36 237 28 36 237 28 36 237 28 36 
237 28 36 237 28 36 237 28 36 237 28 36 235 30 36 
39 189 40 39 189 40 39 189 40 39 189 40 39 189 40 
39 189 40 39 189 40 39 189 40 39 189 40 39 189 40 
39 189 40 39 189 40 39 189 40 39 189 40 39 189 40 
39 189 40 39 189 40 39 189 40 39 189 40 126 118 38 
237 28 36 237 28 36 237 28 36 237 28 36 237 28 36 
237 28 36 237 28 36 237 28 36 237 28 36 235 30 36 
39 189 40 39 189 40 39 189 40 39 189 40 39 189 40 
39 189 40 39 189 40 39 189 40 39 189 40 39 189 40 
39 189 40 39 189 40 39 189 40 39 189 40 39 189 40 
39 189 40 39 189 40 39 189 40 39 189 40 126 118 38 
237 28 36 237 28 36 237 28 36 237 28 36 237 28 36 
237 28 36 237 28 36 237 28 36 237 28 36 235 30 36 
39 189 40 39 189 40 39 189 40 39 189 40 39 189 40 
39 189 40 39 189 40 39 189 40 39 189 40 39 189 40 
39 189 40 39 189 40 39 189 40 39 189 40 39 189 40 
39 189 40 39 189 40 39 189 40 39 189 40 126 118 38 
237 28 36 237 28 36 237 28 36 237 28 36 237 28 36 
237 28 36 237 28 36 237 28 36 237 28 36 235 30 36 
39 189 40 39 189 40 39 189 40 39 189 40 39 189 40 
39 189 40 39 189 40 39 189 40 39 189 40 39 189 40 
39 189 40 39 189 40 39 189 40 39 189 40 39 189 40 
39 189 40 39 189 40 39 189 40 39 189 40 126 118 38 
237 28 36 237 28 36 237 28 36 237 28 36 237 28 36 
237 28 36 237 28 36 237 28 36 237 28 36 235 30 36 
39 189 40 39 189 40 39 189 40 39 189 40 39 189 40 
39 189 40 39 189 40 39 189 40 39 189 40 39 189 40 
39 189 40 39 189 40 39 189 40 39 189 40 39 189 40 
39 189 40 39 189 40 39 189 40 39 189 40 126 118 38 
237 28 36 237 28 36 237 28 36 237 28 36 237 28 36 
237 28 36 237 28 36 237 28 36 237 28 36 235 30 36 
39 189 40 39 189 40 39 189 40 39 189 40 39 189 40 
39 189 40 39 189 40 39 189 40 39 189 40 39 189 40 
39 189 40 39 189 40 39 189 40 39 189 40 39 189 40 
39 189 40 39 189 40 39 189 40 39 189 40 126 118 38 
237 28 36 237 28 36 237 28 36 237 28 36 237 28 36 
237 28 36 237 28 36 237 28 36 237 28 36 235 30 36 
39 189 40 39 189 40 39 189 40 39 189 40 39 189 40 
39 189 40 39 189 40 39 189 40 39 189 40 39 189 40 
39 189 40 39 189 40 39 189 40 39 189 40 39 189 40 
39 189 40 39 189 40 39 189 40 39 189 40 126 118 38 
237 28 36 237 28 36 237 28 36 237 28 36 237 28 36 
237 28 36 237 28 36 237 28 36 237 28 36 235 30 36 
39 189 40 39 189 40 39 189 40 39 189 40 39 189 40 
39 189 40 39 189 40 39 189 40 39 189 40 39 189 40 
39 189 40 39 189 40 39 189 40 39 189 40 39 189 40 
39 189 40 39 189 40 39 189 40 39 189 40 126 118 38 
237 28 36 237 28 36 237 28 36 237 28 36 237 28 36 
237 28 36 237 28 36 237 28 36 237 28 36 235 30 36 
39 189 40 39 189 40 39 189 40 39 189 40 39 189 40 
39 189 40 39 189 40 39 189 40 39 189 40 39 189 40 
39 189 40 39 189 40 39 189 40 39 189 40 39 189 40 
39 189 40 39 189 40 39 189 40 39 189 40 126 118 38 
237 28 36 237 28 36 237 28 36 237 28 36 237 28 36 
237 28 36 237 28 36 237 28 36 237 28 36 235 30 36 
39 189 40 39 189 40 39 189 40 39 189 40 39 189 40 
39 189 40 39 189 40 39 189 40 39 189 40 39 189 40 
39 189 40 39 189 40 39 189 40 39 189 40 39 189 40 
39 189 40 39 189 40 39 189 40 39 189 40 126 118 38 
237 28 36 237 28 36 237 28 36 237 28 36 237 28 36 
237 28 36 237 28 36 237 28 36 237 28 36 235 30 36 
39 189 40 39 189 40 39 189 40 39 189 40 39 189 40 
39 189 40 39 189 40 39 189 40 39 189 40 39 189 40 
39 189 40 39 189 40 39 189 40 39 189 40 39 189 40 
39 189 40 39 189 40 39 189 40 39 189 40 126 118 38 
237 28 36 237 28 36 237 28 36 237 28 36 237 28 36 
237 28 36 237 28 36 237 28 36 237 28 36 235 30 36 
39 189 40 39 189 40 39 189 40 39 189 40 39 189 40 
39 189 40 39 189 40 39 189 40 39 189 40 39 189 40 
39 189 40 39 189 40 39 189 40 39 189 40 39 189 40 
45 184 40 175 78 37 227 36 36 227 36 36 231 32 36 
237 28 36 237 28 36 237 28 36 237 28 36 237 28 36 
237 28 36 237 28 36 237 28 36 237 28 36 237 28 36 
227 36 36 227 36 36 192 64 37 94 145 39 39 189 40 
39 189 40 39 189 40 39 189 40 39 189 40 39 189 40 
39 189 40 39 189 40 39 189 40 39 189 40 39 189 40 
94 144 39 233 31 36 237 28 36 237 28 36 237 28 36 
237 28 36 237 28 36 237 28 36 237 28 36 237 28 36 
237 28 36 237 28 36 237 28 36 237 28 36 237 28 36 
237 28 36 237 28 36 237 28 36 217 44 36 39 189 40 
39 189 40 39 189 40 39 189 40 39 189 40 39 189 40 
39 189 40 39 189 40 39 189 40 39 189 40 39 189 40 
39 189 40 191 65 37 237 28 36 237 28 36 237 28 36 
237 28 36 237 28 36 237 28 36 237 28 36 237 28 36 
237 28 36 237 28 36 237 28 36 237 28 36 237 28 36 
237 28 36 237 28 36 237 28 36 121 122 38 39 189 40 
39 189 40 39 189 40 39 189 40 39 189 40 39 189 40 
39 189 40 39 189 40 39 189 40 39 189 40 39 189 40 
39 189 40 94 145 39 237 28 36 237 28 36 237 28 36 
237 28 36 237 28 36 237 28 36 237 28 36 237 28 36 
237 28 36 237 28 36 237 28 36 237 28 36 237 28 36 
237 28 36 237 28 36 200 59 37 42 186 40 39 189 40 
39 189 40 39 189 40 39 189 40 39 189 40 39 189 40 
39 189 40 39 189 40 39 189 40 39 189 40 39 189 40 
39 189 40 43 186 40 177 77 37 237 28 36 237 28 36 
237 28 36 237 28 36 237 28 36 237 28 36 237 28 36 
237 28 36 237 28 36 237 28 36 237 28 36 237 28 36 
237 28 36 237 28 36 106 135 38 39 189 40 39 189 40 
39 189 40 39 189 40 39 189 40 39 189 40 39 189 40 
39 189 40 39 189 40 39 189 40 39 189 40 39 189 40 
39 189 40 39 189 40 64 169 39 222 40 36 237 28 36 
237 28 36 237 28 36 237 28 36 237 28 36 237 28 36 
237 28 36 237 28 36 237 28 36 237 28 36 237 28 36 
237 28 36 172 81 37 48 182 40 39 189 40 39 189 40 
39 189 40 39 189 40 39 189 40 39 189 40 39 189 40 
39 189 40 39 189 40 39 189 40 39 189 40 39 189 40 
39 189 40 39 189 40 39 189 40 149 99 38 237 28 36 
237 28 36 237 28 36 237 28 36 237 28 36 237 28 36 
237 28 36 237 28 36 237 28 36 237 28 36 237 28 36 
225 38 36 72 162 39 39 189 40 39 189 40 39 189 40 
39 189 40 39 189 40 39 189 40 39 189 40 39 189 40 
39 189 40 39 189 40 39 189 40 39 189 40 39 189 40 
39 189 40 39 189 40 39 189 40 66 167 39 223 39 36 
237 28 36 237 28 36 237 28 36 237 28 36 237 28 36 
237 28 36 237 28 36 237 28 36 237 28 36 237 28 36 
161 90 37 39 189 40 39 189 40 39 189 40 39 189 40 
39 189 40 39 189 40 39 189 40 39 189 40 39 189 40 
39 189 40 39 189 40 39 189 40 39 189 40 39 189 40 
39 189 40 39 189 40 39 189 40 39 189 40 130 114 38 
237 28 36 237 28 36 237 28 36 237 28 36 237 28 36 
237 28 36 237 28 36 237 28 36 237 28 36 213 47 36 
65 168 40 39 189 40 39 189 40 39 189 40 39 189 40 
39 189 40 39 189 40 39 189 40 39 189 40 39 189 40 
39 189 40 39 189 40 39 189 40 39 189 40 39 189 40 
39 189 40 39 189 40 39 189 40 39 189 40 40 189 40 
204 55 37 237 28 36 237 28 36 237 28 36 237 28 36 
237 28 36 237 28 36 237 28 36 237 28 36 116 126 39 
39 189 40 39 189 40 39 189 40 39 189 40 39 189 40 
39 189 40 39 189 40 39 189 40 39 189 40 39 189 40 
39 189 40 39 189 40 39 189 40 39 189 40 39 189 40 
39 189 40 39 189 40 39 189 40 39 189 40 39 189 40 
107 133 39 237 28 36 237 28 36 237 28 36 237 28 36 
237 28 36 237 28 36 237 28 36 205 54 37 51 180 40 
39 189 40 39 189 40 39 189 40 39 189 40 39 189 40 
39 189 40 39 189 40 39 189 40 39 189 40 39 189 40 
39 189 40 39 189 40 39 189 40 39 189 40 39 189 40 
39 189 40 39 189 40 39 189 40 39 189 40 39 189 40 
48 181 40 180 75 37 237 28 36 237 28 36 237 28 36 
237 28 36 237 28 36 229 34 36 108 133 39 39 189 40 
39 189 40 39 189 40 39 189 40 39 189 40 39 189 40 
39 189 40 39 189 40 39 189 40 39 189 40 39 189 40 
39 189 40 39 189 40 39 189 40 39 189 40 39 189 40 
39 189 40 39 189 40 39 189 40 39 189 40 39 189 40 
39 189 40 74 161 39 226 37 36 237 28 36 237 28 36 
237 28 36 237 28 36 171 82 37 39 189 40 39 189 40 
39 189 40 39 189 40 39 189 40 39 189 40 39 189 40 
39 189 40 39 189 40 39 189 40 39 189 40 39 189 40 
39 189 40 39 189 40 39 189 40 39 189 40 39 189 40 
39 189 40 39 189 40 39 189 40 39 189 40 39 189 40 
39 189 40 39 189 40 163 89 38 237 28 36 237 28 36 
237 28 36 232 32 36 79 157 39 39 189 40 39 189 40 
39 189 40 39 189 40 39 189 40 39 189 40 39 189 40 
39 189 40 39 189 40 39 189 40 39 189 40 39 189 40 
39 189 40 39 189 40 39 189 40 39 189 40 39 189 40 
39 189 40 39 189 40 39 189 40 39 189 40 39 189 40 
39 189 40 39 189 40 70 164 39 218 44 37 237 28 36 
237 28 36 160 91 38 39 189 40 39 189 40 39 189 40 
39 189 40 39 189 40 39 189 40 39 189 40 39 189 40 
39 189 40 39 189 40 39 189 40 39 189 40 39 189 40 
39 189 40 39 189 40 39 189 40 39 189 40 39 189 40 
39 189 40 39 189 40 39 189 40 39 189 40 39 189 40 
39 189 40 39 189 40 39 189 40 118 125 38 237 28 36 
216 45 36 50 180 40 39 189 40 39 189 40 39 189 40 
39 189 40 39 189 40 39 189 40 39 189 40 39 189 40 
39 189 40 39 189 40 39 189 40 39 189 40 39 189 40 
39 189 40 39 189 40 39 189 40 39 189 40 39 189 40 
39 189 40 39 189 40 39 189 40 39 189 40 39 189 40 
39 189 40 39 189 40 39 189 40 41 187 40 122 122 38 
74 161 39 39 189 40 39 189 40 39 189 40 39 189 40 
39 189 40 39 189 40 39 189 40 39 189 40 39 189 40 
39 189 40 39 189 40 39 189 40 39 189 40 39 189 40 
