P3
# Created by IrfanView
30 30
255
37 177 78 37 177 78 37 177 78 37 177 78 37 177 78 
37 177 78 37 177 78 37 177 78 37 177 78 38 174 77 
77 128 63 39 151 68 49 146 67 37 177 78 37 177 78 
37 177 78 37 177 78 37 177 78 37 177 78 37 177 78 
37 177 78 37 177 78 37 177 78 37 177 78 37 177 78 
37 177 78 37 177 78 37 177 78 37 177 78 37 177 78 
37 177 78 37 177 78 37 177 78 37 177 78 37 177 78 
37 177 78 37 177 78 37 177 78 38 172 76 112 54 37 
193 40 38 135 63 43 140 20 24 83 94 51 37 177 78 
37 177 78 37 177 78 37 177 78 37 177 78 37 177 78 
37 177 78 37 177 78 37 177 78 37 177 78 37 177 78 
37 177 78 37 177 78 37 177 78 37 177 78 37 177 78 
37 177 78 37 177 78 37 177 78 37 177 78 37 177 78 
37 177 78 37 177 78 37 177 78 41 162 73 230 29 36 
236 28 36 236 28 35 235 28 36 144 87 52 37 177 78 
37 177 78 37 177 78 37 177 78 37 177 78 37 177 78 
37 177 78 37 177 78 37 177 78 37 177 78 37 177 78 
37 177 78 37 177 78 37 177 78 37 177 78 37 177 78 
37 177 78 37 177 78 37 177 78 37 177 78 37 177 78 
37 177 78 37 177 78 37 177 78 42 158 71 213 33 39 
195 75 81 189 89 92 199 51 57 139 88 53 37 177 78 
37 177 78 29 116 52 37 176 78 37 177 78 37 177 78 
37 177 78 37 177 78 37 177 78 37 177 78 37 177 78 
37 177 78 37 177 78 37 177 78 37 177 78 37 177 78 
37 177 78 37 177 78 37 177 78 37 177 78 37 177 78 
37 177 78 37 177 78 37 177 78 37 177 78 135 169 142 
194 195 194 195 194 194 192 193 193 59 157 84 37 177 78 
37 177 78 110 44 33 31 128 57 37 175 78 37 177 78 
37 177 78 37 177 78 37 177 78 37 177 78 37 177 78 
37 177 78 37 177 78 37 177 78 37 177 78 37 177 78 
37 177 78 37 177 78 37 177 78 37 177 78 37 177 78 
37 177 78 37 177 78 37 177 78 37 177 78 119 162 134 
138 139 165 194 195 195 194 195 194 52 174 88 37 177 78 
35 158 71 139 22 27 39 85 41 101 83 48 37 177 78 
37 177 78 37 177 78 37 177 78 37 177 78 37 177 78 
37 177 78 37 177 78 37 177 78 37 177 78 37 177 78 
37 177 78 37 177 78 37 177 78 37 177 78 37 177 78 
37 177 78 37 177 78 37 177 78 37 177 78 112 158 130 
129 131 164 195 194 195 194 194 194 45 177 83 75 93 49 
148 52 39 167 26 31 138 28 44 89 54 57 37 175 78 
37 177 78 37 177 78 37 177 78 37 177 78 37 177 78 
37 177 78 37 177 78 37 177 78 37 177 78 37 177 78 
37 177 78 37 177 78 37 177 78 37 177 78 37 177 78 
37 177 78 37 177 78 37 177 78 37 177 78 138 180 150 
194 195 194 195 195 194 194 195 194 46 146 70 155 27 31 
205 28 35 204 28 33 71 35 82 42 81 68 37 173 76 
37 177 78 37 177 78 37 177 78 37 177 78 37 177 78 
37 177 78 37 177 78 37 177 78 37 177 78 37 177 78 
37 177 78 37 177 78 37 177 78 37 177 78 37 177 78 
37 177 78 37 177 78 37 177 78 37 177 78 151 189 162 
178 178 184 178 178 184 192 192 191 116 55 42 169 59 63 
157 95 98 193 76 81 203 35 42 206 38 39 60 142 67 
37 174 77 37 177 78 37 177 78 37 177 78 37 177 78 
37 177 78 37 177 78 37 177 78 37 177 78 37 177 78 
37 177 78 37 177 78 37 177 78 37 177 78 37 167 75 
109 67 43 109 100 56 51 146 68 37 177 78 163 183 168 
136 138 170 140 142 168 152 112 114 165 115 118 191 191 191 
163 163 164 194 195 194 189 188 189 177 142 144 137 72 60 
55 87 44 37 177 78 37 177 78 37 177 78 37 177 78 
37 177 78 37 177 78 37 177 78 37 177 78 37 177 78 
37 177 78 37 177 78 37 177 78 37 177 78 39 159 73 
177 60 65 178 38 43 129 67 44 37 177 78 177 186 180 
182 181 183 173 173 174 156 143 144 194 195 195 193 193 193 
154 154 154 194 194 194 194 195 194 194 194 194 88 180 115 
37 177 78 37 177 78 37 177 78 37 177 78 37 177 78 
37 177 78 37 177 78 37 177 78 37 177 78 37 177 78 
37 177 78 37 177 78 37 177 78 37 177 78 56 165 88 
119 120 141 195 195 194 91 152 108 40 170 78 170 164 163 
168 168 175 137 139 172 157 157 157 171 171 170 167 167 167 
151 151 151 169 169 170 168 168 169 171 172 172 79 173 106 
37 177 78 37 177 78 37 177 78 37 177 78 37 177 78 
37 177 78 37 177 78 37 177 78 37 177 78 37 177 78 
37 177 78 37 177 78 37 177 78 37 177 78 78 168 104 
174 174 178 194 194 194 174 71 74 175 31 33 183 41 47 
157 156 168 124 126 166 151 151 152 163 164 168 194 193 193 
141 141 145 174 175 177 93 94 131 183 183 183 42 116 56 
56 106 52 37 177 78 37 177 78 37 177 78 37 177 78 
37 177 78 37 177 78 37 177 78 37 177 78 37 177 78 
37 177 78 37 177 78 37 177 78 37 177 78 68 147 90 
191 191 191 180 180 182 174 81 85 203 41 47 221 28 35 
186 79 84 177 156 158 145 146 147 106 109 158 162 162 169 
60 68 190 79 81 128 43 48 130 165 164 165 216 28 35 
141 62 43 35 150 67 36 173 76 37 177 78 37 177 78 
37 177 78 37 177 78 37 177 78 37 177 78 37 177 78 
37 177 78 37 177 78 37 177 78 37 177 78 80 120 100 
177 177 178 103 105 148 166 166 166 194 194 194 184 180 181 
157 129 131 169 163 165 139 139 140 172 172 179 192 192 192 
68 73 148 117 118 158 141 141 163 155 155 155 179 105 108 
180 77 82 82 26 26 34 154 68 37 177 78 37 177 78 
37 177 78 37 177 78 37 177 78 37 177 78 37 177 78 
37 177 78 37 177 78 37 177 78 37 177 78 107 119 120 
193 193 192 155 139 141 173 89 92 149 93 97 169 115 117 
165 165 165 181 181 182 142 84 87 181 181 183 170 171 179 
160 160 161 190 191 191 124 126 163 178 178 178 180 180 181 
110 112 137 57 139 81 37 177 78 37 177 78 37 177 78 
37 177 78 37 177 78 37 177 78 37 177 78 37 177 78 
37 177 78 37 177 78 37 177 78 37 167 75 156 155 153 
191 190 190 181 53 58 222 29 36 217 29 36 190 65 71 
194 195 195 182 182 182 162 49 53 145 145 158 129 131 158 
160 160 161 109 111 153 68 71 128 181 181 182 138 111 113 
158 120 122 63 156 90 37 177 78 37 177 78 37 177 78 
37 177 78 37 177 78 37 177 78 37 177 78 37 177 78 
37 177 78 37 177 78 37 177 78 98 65 40 190 61 67 
148 63 67 161 78 82 185 109 112 183 127 130 152 109 112 
170 169 171 164 153 154 218 28 36 170 135 137 195 194 195 
151 152 151 186 187 187 140 141 164 173 173 173 155 92 96 
182 62 67 55 129 75 95 76 45 110 74 46 79 120 60 
37 177 78 37 177 78 37 177 78 37 177 78 37 177 78 
37 177 78 37 177 78 37 177 78 136 57 43 202 58 64 
175 58 62 162 161 161 121 123 155 194 194 194 157 157 158 
188 186 187 163 76 80 200 68 73 174 61 66 182 174 174 
165 165 165 195 194 195 194 194 194 183 176 177 205 32 38 
224 28 36 170 89 93 176 113 117 193 50 56 100 109 58 
37 177 78 37 177 78 37 177 78 37 177 78 37 177 78 
37 177 78 37 177 78 37 177 78 100 152 115 195 194 195 
166 166 166 145 145 146 87 91 149 194 194 194 162 162 163 
182 174 175 164 155 155 194 194 194 185 184 184 138 128 128 
134 134 135 170 171 171 167 167 168 146 112 113 171 138 139 
182 180 180 149 118 120 169 169 169 162 162 162 60 169 92 
37 177 78 37 177 78 37 177 78 37 177 78 37 177 78 
37 177 78 37 177 78 37 177 78 126 154 135 194 195 194 
164 163 164 160 160 160 171 170 170 160 160 160 154 154 154 
162 161 161 167 167 166 166 166 166 180 180 181 136 136 136 
175 175 175 149 149 149 174 174 174 148 148 148 188 187 188 
194 195 194 167 167 167 175 175 174 161 160 162 83 174 109 
37 177 78 37 177 78 37 177 78 37 177 78 37 177 78 
37 177 78 37 177 78 54 159 84 132 143 135 153 152 153 
147 146 147 157 157 157 166 166 166 163 163 163 192 192 192 
170 170 170 138 138 138 194 195 196 154 154 155 143 143 143 
128 128 128 143 143 143 134 134 134 129 129 129 148 147 148 
163 163 164 135 135 138 134 133 134 156 155 155 125 144 131 
68 167 97 50 177 87 37 177 78 37 177 78 37 177 78 
37 177 78 37 177 78 143 185 155 170 169 170 192 192 191 
174 174 178 191 192 192 194 195 194 183 183 185 155 156 173 
194 195 194 147 146 147 194 194 194 166 166 166 136 136 150 
160 160 177 103 107 161 146 147 166 131 130 141 153 152 153 
164 164 168 105 106 133 169 170 178 169 170 180 195 194 195 
165 182 170 178 181 179 96 169 117 52 175 87 37 177 78 
37 177 78 37 177 78 172 190 178 118 120 154 194 194 195 
84 87 155 115 117 153 194 195 194 158 158 167 122 125 165 
194 194 194 165 164 164 194 194 194 165 165 165 149 149 149 
97 84 107 74 64 117 95 86 136 108 83 73 124 118 116 
193 193 194 177 177 178 150 150 163 66 70 137 163 163 169 
194 194 194 194 194 194 194 194 194 86 182 114 37 177 78 
37 177 78 38 176 79 187 191 188 123 125 156 194 194 194 
173 173 180 152 154 174 195 194 194 194 195 194 194 194 194 
194 194 194 161 161 161 194 194 194 173 173 173 135 126 123 
140 94 72 118 84 88 185 122 87 184 122 87 165 114 87 
180 180 180 191 191 191 168 167 168 195 194 195 194 194 194 
194 195 195 194 195 193 194 194 194 90 175 115 37 177 78 
37 177 78 54 179 91 194 194 194 194 194 194 194 195 195 
194 194 194 194 195 195 194 194 195 195 195 194 195 194 194 
192 192 192 167 167 167 194 194 194 175 175 176 134 125 123 
162 108 81 170 113 81 185 122 86 185 122 87 141 119 109 
194 194 194 191 192 191 166 165 166 194 195 194 195 195 195 
194 195 194 194 194 194 194 195 195 90 176 115 37 177 78 
37 177 78 77 180 108 194 194 194 195 195 194 194 194 194 
194 194 194 194 194 194 194 194 194 194 194 194 194 194 194 
173 173 173 183 183 183 194 194 194 188 188 189 158 158 158 
145 97 73 185 122 87 184 122 86 166 113 86 156 154 156 
194 194 194 194 195 195 165 165 165 195 195 194 194 194 194 
194 195 195 194 195 195 194 195 195 90 173 114 37 177 78 
37 177 78 101 179 124 195 194 195 195 195 196 194 194 194 
195 194 194 194 195 195 195 194 194 194 195 195 195 194 194 
168 168 168 195 195 194 194 194 194 194 195 194 141 134 131 
178 118 85 185 122 87 185 122 87 161 140 130 161 160 162 
194 194 194 194 194 194 161 165 162 151 179 159 127 180 142 
103 171 123 79 167 105 57 167 89 38 170 76 37 177 78 
37 177 78 57 167 89 89 175 114 106 175 126 107 170 125 
108 165 124 116 166 130 120 162 133 124 165 136 132 176 145 
135 150 140 195 194 194 195 194 194 194 194 194 92 123 93 
89 118 67 91 117 66 79 112 64 50 130 72 99 163 117 
124 178 140 116 171 132 52 173 87 37 177 78 37 177 78 
37 177 78 37 177 78 37 177 78 37 177 78 37 177 78 
37 177 78 37 177 78 37 177 78 37 177 78 37 177 78 
37 177 78 37 177 78 37 177 78 37 177 78 37 177 78 
39 171 77 78 166 103 106 176 126 55 164 86 37 170 76 
37 177 78 37 177 78 37 177 78 37 177 78 37 177 78 
37 177 78 37 177 78 37 177 78 37 177 78 37 177 78 
37 177 78 37 177 78 37 177 78 37 177 78 37 177 78 
